<?xml version="1.0"?>
<svg xmlns="http://www.w3.org/2000/svg" version="1.2" baseProfile="tiny" width="800" height="520"
    viewBox="0 0 800 520" stroke-linecap="round" stroke-linejoin="round">
    <g id="bihar_district">
        <path
            d="M 190.5437 148.1915 188.0484 147.6829 187.749 145.7757 183.1576 144.6738 183.3073 143.36 176.021 151.2853 179.215 146.4114 178.666 142.809 176.9692 143.5719 176.8195 142.6395 176.1707 142.5547 175.7715 137.4265 162.8957 135.1803 159.003 124.6697 155.7591 124.5849 150.1696 127.7211 149.8702 127.8907 149.2713 127.0007 147.2251 124.0339 151.567 115.939 151.567 115.8543 150.0698 113.5233 151.4672 110.6837 150.9681 108.7765 149.4709 107.0389 145.1291 105.1317 140.4379 107.2084 139.0904 111.2347 136.5452 111.1923 132.5028 108.1408 133.4011 102.9279 128.8597 102.5464 127.6619 100.8088 125.6657 104.4112 119.627 102.5041 119.627 102.4617 118.3295 99.5373 119.5771 97.3335 116.8822 95.4687 117.3812 94.282 115.0856 93.9853 118.7287 90.9339 117.2814 87.3738 119.0281 86.1871 115.934 83.0933 117.8803 77.626 109.9452 73.5574 112.5902 73.0488 114.7861 68.8954 112.5902 67.6663 104.2559 71.0569 101.3614 69.9973 103.4075 62.6229 108.997 56.4776 108.4979 54.8247 107.8991 52.9599 104.755 50.968 105.1542 48.7641 104.9047 48.5522 95.8717 45.1617 95.8717 45.1193 95.7719 45.0345 94.7737 43.2969 94.7238 40.7116 95.0732 40.4573 95.672 39.9487 97.4188 38.6349 98.9159 37.0244 99.1655 35.1172 99.0657 34.5663 98.7662 34.2696 95.5223 32.6591 89.334 35.2868 88.1861 34.8206 83.7944 32.9134 87.8867 30.7943 91.3801 25.1152 82.8462 16.0879 85.591 12.6126 89.0844 14.435 99.415 12.443 112.5403 14.4774 119.128 11.5106 120.675 7.3149 124.8173 5.9587 125.5659 1.7205 127.3126 1 129.7081 2.5257 134.2495 1.7205 133.8503 6.6368 143.3325 9.4339 143.6818 13.5874 145.2788 13.9264 147.2251 11.5106 151.3674 12.2735 155.0105 18.207 154.7111 21.3008 157.0567 23.2504 158.9032 22.318 166.6886 24.988 177.618 25.0304 185.3036 27.7004 187.6991 26.8528 209.3084 30.1586 220.4874 49.0184 219.0402 52.4513 220.1381 55.7571 217.7925 57.1557 220.1381 59.1052 218.8405 66.3101 217.2435 66.9882 217.9422 69.1921 213.5006 72.4131 212.9017 76.9055 231.4668 84.068 231.7662 84.1952 229.4206 87.1619 230.2191 89.4081 228.722 91.7391 226.1268 91.5272 224.1306 94.0701 221.9846 94.1125 221.6852 98.3507 220.0383 98.6897 220.0383 96.9097 218.7407 98.393 220.4874 104.1569 225.0289 107.5051 223.8811 107.8865 224.6296 109.7937 227.6739 109.8361 225.3283 112.4637 229.221 114.0319 224.7295 119.9653 226.6259 125.7716 226.576 125.814 222.8829 126.8735 222.3839 130.1793 221.5854 129.3316 214.4987 136.0279 211.9535 133.8241 205.6154 133.697 205.7152 136.4941 197.1812 140.0966 193.4882 144.0805 193.8874 148.7001 193.8874 148.8272 190.5437 148.1915 Z" />
        <path
            d="M 190.5437 148.1915 193.8874 148.8272 193.8874 148.7001 193.4882 144.0805 197.1812 140.0966 205.7152 136.4941 205.6154 133.697 211.9535 133.8241 214.4987 136.0279 221.5854 129.3316 222.3839 130.1793 222.8829 126.8735 226.576 125.814 226.6259 125.7716 224.7295 119.9653 229.221 114.0319 225.3283 112.4637 227.6739 109.8361 224.6296 109.7937 223.8811 107.8865 225.0289 107.5051 220.4874 104.1569 218.7407 98.393 220.0383 96.9097 220.0383 98.6897 221.6852 98.3507 221.9846 94.1125 224.1306 94.0701 226.1268 91.5272 228.722 91.7391 230.2191 89.4081 229.4206 87.1619 231.7662 84.1952 231.4668 84.068 232.5148 82.4152 235.2098 82.2456 237.1062 85.17 239.5516 81.6099 241.8972 81.1861 247.0375 83.2204 247.0874 86.7381 252.8266 89.3657 264.1553 90.8915 266.6507 94.5363 265.2034 98.054 270.194 98.6897 270.9426 101.3598 279.9756 102.6736 275.0848 104.5384 273.8871 107.7594 283.5689 108.0561 283.9681 105.937 286.0642 105.1741 300.9362 105.5555 298.8901 116.8714 303.7809 123.1863 308.7715 122.7625 311.0672 124.0763 311.6161 124.373 311.2169 125.3478 312.1152 132.9341 311.9156 133.1036 312.0154 133.5698 308.522 137.257 308.522 138.0623 308.6717 138.2318 310.5182 137.2994 312.9636 139.4609 312.764 141.1137 312.6642 141.5376 314.2113 143.5295 314.4608 143.7414 314.4109 143.7838 311.7659 146.7081 312.0154 150.692 307.4739 153.2349 308.6218 154.803 307.5737 156.7526 305.5775 156.795 305.9268 163.7032 305.9268 163.7879 299.7884 164.8475 298.7902 166.6699 304.4795 172.6881 303.0323 173.1967 304.9287 175.57 303.2319 176.46 306.4758 176.6719 307.2244 178.452 307.5737 176.8839 309.1208 177.3501 309.2705 179.0029 310.9174 177.7315 310.2687 180.2744 313.7122 182.563 315.5088 181.3763 316.8064 185.233 314.9099 186.335 317.6049 187.4793 316.6068 188.115 316.3572 188.2421 316.3073 188.2845 315.3092 188.8779 315.2094 188.9202 310.9174 188.7083 308.7715 185.6569 306.1764 186.1654 305.7272 188.454 305.7771 188.7083 314.1114 191.1241 311.3167 192.4803 312.0154 196.9304 308.0728 196.8032 307.2743 195.3623 302.8326 198.7104 302.3835 199.0918 303.3317 196.2947 302.2837 197.8204 300.3373 196.5489 300.2874 196.5066 302.5831 195.9556 302.6829 193.5398 301.2856 194.5994 301.0859 192.0141 300.7366 194.7689 299.1396 193.4127 300.2375 192.3108 299.0398 190.1917 295.5962 194.006 293.0011 193.0313 291.0548 194.8113 280.824 191.2089 277.4304 189.9798 273.7373 193.7094 270.2938 191.5055 267 193.0313 254.5235 192.5651 249.1835 203.6691 248.5846 203.1605 243.2946 198.9223 239.1523 199.0071 239.3021 193.0736 238.1542 193.8789 235.8086 190.785 233.0139 190.7427 229.9696 187.8183 226.6259 184.0887 223.2323 175.7819 214.3989 170.018 204.6672 174.7648 201.8724 169.4671 202.5711 166.8818 199.976 165.4408 198.8281 167.5599 196.233 167.3056 197.2311 165.1865 191.7415 159.3379 192.2904 154.5487 188.0983 150.6072 188.6972 147.8948 190.5437 148.1915 Z" />
        <path
            d="M 312.764 141.1137 312.9636 139.4609 310.5182 137.2994 308.6717 138.2318 308.522 138.0623 308.522 137.257 312.0154 133.5698 311.9156 133.1036 312.1152 132.9341 311.2169 125.3478 311.6161 124.373 311.0672 124.0763 310.9674 123.4406 323.7932 125.9411 327.0371 122.9744 330.2811 122.7625 335.5212 117.931 343.0071 119.4567 347.0495 116.2357 349.5947 117.041 349.9441 114.5404 353.8867 113.9471 357.3302 110.5142 360.9235 110.048 362.4705 106.8694 364.0675 109.0732 372.0026 105.0046 373.2004 108.0561 383.0818 111.4466 387.0743 115.2186 387.8728 126.6616 386.176 136.7908 390.0188 142.3428 398.6525 144.7586 401.0979 148.6153 399.3013 155.9049 402.4953 158.024 398.1036 165.2713 396.4567 165.2289 396.806 162.3046 394.6101 162.0927 391.8653 166.2037 391.9651 166.2884 394.3606 168.0685 395.0094 168.5347 395.0593 168.5347 399.0019 167.6023 400.2994 169.7214 397.3051 171.9252 392.7636 169.2975 392.015 169.5518 391.2165 169.7637 390.6675 169.9333 391.2664 172.1795 393.9114 173.4509 393.063 174.9343 389.1704 175.4429 385.9764 173.2814 384.6289 173.4509 384.1797 173.5357 383.3313 173.6205 383.3812 177.1381 383.3313 177.3077 380.5366 178.4944 380.5366 178.5367 380.3869 180.2744 381.8841 182.2663 380.9358 184.5973 384.7287 187.4793 383.531 187.6912 378.6402 188.5388 378.7899 188.5812 382.5328 190.8698 382.5827 188.4964 383.0818 188.6236 386.9745 189.9798 386.7749 195.2351 384.4792 194.6842 383.5809 195.7437 383.1317 196.2523 382.7325 195.8708 380.2871 193.4975 379.8379 193.7094 377.8916 194.6842 374.2484 193.116 371.4537 193.9637 371.7032 191.4631 368.2098 191.3784 368.2098 188.7931 362.4206 186.8012 363.1193 181.8001 362.9696 181.8849 357.5797 185.5721 351.042 183.7921 350.543 186.7588 344.9036 191.5055 344.9036 191.5479 344.155 196.5489 340.5118 201.3805 340.7114 200.0242 340.8612 199.3885 340.8113 199.4309 339.364 200.1938 337.5674 201.1685 337.8668 200.1938 338.6653 198.0323 338.5156 198.2018 336.17 201.2957 336.1201 201.1262 335.7707 199.4309 335.4214 198.0747 335.4214 197.8628 333.3752 199.7699 333.2255 199.6004 333.4251 198.668 334.1737 195.8708 336.669 196.2523 335.8206 193.7941 333.8244 195.108 331.5287 192.8194 333.2255 195.6165 330.3809 194.5994 330.0315 191.336 330.4308 190.785 332.2274 188.1574 328.185 186.4197 330.7302 179.8506 327.8356 175.4429 329.8818 169.7214 327.6859 166.8394 328.0852 163.6184 334.7726 164.2117 331.8281 163.2793 332.1775 161.245 334.573 162.2198 330.9298 157.2188 328.0353 157.5578 328.3347 156.0321 330.0814 155.5235 330.5805 153.4892 332.427 153.362 330.9797 151.582 326.6379 151.9211 328.2848 150.7344 327.9854 149.251 326.5381 149.9291 327.0871 147.1743 329.0833 145.5214 326.2886 141.368 321.1482 138.8675 321.0484 138.8251 316.0079 140.1813 315.3591 141.1561 314.6105 140.5628 312.764 141.1137 Z" />
        <path
            d="M 316.6068 188.115 317.6049 187.4793 314.9099 186.335 316.8064 185.233 315.5088 181.3763 313.7122 182.563 310.2687 180.2744 310.9174 177.7315 309.2705 179.0029 309.1208 177.3501 307.5737 176.8839 307.2244 178.452 306.4758 176.6719 303.2319 176.46 304.9287 175.57 303.0323 173.1967 304.4795 172.6881 298.7902 166.6699 299.7884 164.8475 305.9268 163.7879 305.9268 163.7032 305.5775 156.795 307.5737 156.7526 308.6218 154.803 307.4739 153.2349 312.0154 150.692 311.7659 146.7081 314.4109 143.7838 314.4608 143.7414 314.2113 143.5295 312.6642 141.5376 312.764 141.1137 314.6105 140.5628 315.3591 141.1561 316.0079 140.1813 321.0484 138.8251 321.1482 138.8675 326.2886 141.368 329.0833 145.5214 327.0871 147.1743 326.5381 149.9291 327.9854 149.251 328.2848 150.7344 326.6379 151.9211 330.9797 151.582 332.427 153.362 330.5805 153.4892 330.0814 155.5235 328.3347 156.0321 328.0353 157.5578 330.9298 157.2188 334.573 162.2198 332.1775 161.245 331.8281 163.2793 334.7726 164.2117 328.0852 163.6184 327.6859 166.8394 329.8818 169.7214 327.8356 175.4429 330.7302 179.8506 328.185 186.4197 332.2274 188.1574 330.4308 190.785 328.2349 189.3017 326.6379 190.9546 325.9891 189.4288 323.943 189.7679 323.8432 189.7679 323.7433 192.3532 323.1944 190.6579 322.5955 188.7083 322.5456 188.7507 318.1538 189.6831 316.6068 188.115 Z M 315.3092 188.8779 316.3073 188.2845 315.3591 189.6407 315.3092 188.8779 Z" />
        <path
            d="M 176.9692 143.5719 178.666 142.809 179.215 146.4114 176.021 151.2853 183.3073 143.36 183.1576 144.6738 187.749 145.7757 188.0484 147.6829 190.5437 148.1915 188.6972 147.8948 188.0983 150.6072 192.2904 154.5487 191.7415 159.3379 197.2311 165.1865 196.233 167.3056 198.8281 167.5599 199.976 165.4408 202.5711 166.8818 201.8724 169.4671 204.6672 174.7648 214.3989 170.018 223.2323 175.7819 226.6259 184.0887 229.9696 187.8183 233.0139 190.7427 235.8086 190.785 238.1542 193.8789 239.3021 193.0736 239.1523 199.0071 243.2946 198.9223 248.5846 203.1605 251.7287 207.2715 255.2221 206.2543 253.8248 210.4501 248.0856 209.3906 236.4075 212.103 233.6128 210.9163 232.3152 210.3654 232.5647 211.213 231.9159 211.3401 230.4687 208.4158 227.3745 208.543 224.2304 206.0848 218.8904 206.212 220.0882 201.9314 214.4488 201.2533 214.7482 196.888 207.2623 196.1251 202.2218 192.7346 199.1775 194.5146 198.4788 197.0999 196.2829 196.4218 197.9298 192.6498 193.0889 190.446 187.1501 191.0393 182.409 188.9626 183.2574 185.8264 178.5662 184.8092 168.0859 185.7416 167.2874 196.4642 164.0934 195.6589 163.9936 192.9889 161.4484 191.5903 161.4484 191.6327 161.3985 191.5903 156.9568 193.8365 155.0105 193.9213 154.4116 195.108 153.8128 195.447 152.7148 195.0656 144.0311 190.9546 144.1809 188.2845 138.0923 184.9788 135.1478 184.5973 129.3587 183.0716 125.9651 183.2835 121.9726 182.7325 120.176 180.5711 115.385 178.8334 112.74 173.0695 109.5959 173.239 108.5977 175.5276 95.2229 173.1543 96.3707 164.2117 95.2229 161.6265 100.3632 160.6517 102.1099 163.237 105.3538 163.3641 105.9028 163.4065 106.2023 159.3379 111.3426 161.2026 118.7287 157.0492 119.0281 156.8797 118.8784 156.795 118.2795 156.4135 124.2184 148.1491 123.8191 142.3852 127.9114 143.7414 135.3974 142.8514 135.6469 144.7162 142.1846 144.6738 155.0604 148.7424 158.1047 148.022 159.2026 146.03 170.7809 146.3267 177.1689 144.4619 176.9692 143.5719 Z" />
        <path
            d="M 493.1749 289.8733 488.0345 292.9672 482.7445 299.833 477.2548 300.2145 477.5542 302.8845 474.3103 304.156 471.3659 303.054 471.4657 301.1469 459.6379 298.5192 458.8893 290.8057 456.394 289.9157 453.1002 291.7805 453.3996 288.5595 453.8488 288.3476 454.248 286.5676 453.6492 285.6352 454.6473 284.6604 454.8469 283.6856 454.6473 283.1347 453.4495 282.6261 451.8026 283.0499 452.5512 282.2446 449.7066 281.058 448.2593 280.8884 447.4608 281.0156 447.6105 283.5161 452.651 284.0671 451.603 287.1609 443.9174 285.8047 442.5201 286.4404 444.2668 287.7119 442.8195 288.6443 437.4296 287.5 437.0803 289.4495 435.2837 288.7714 434.4852 290.3395 432.1895 289.1952 432.0897 291.6534 435.134 293.8996 430.2931 295.9339 431.4409 298.8159 434.3355 298.7311 432.6886 299.7483 434.1358 302.2064 432.5887 303.4779 432.0897 309.4113 426.8495 306.6989 422.4578 300.8078 416.9681 302.8421 413.8739 300.7654 411.4784 303.4779 412.8259 299.0278 411.3287 298.5616 409.8315 301.7826 405.4398 301.9097 403.194 306.1055 406.4379 308.3094 406.1884 312.929 394.5602 311.4032 389.6694 315.8109 387.9227 321.0239 387.773 321.4477 386.176 320.9391 379.0893 328.7373 378.7899 325.6858 373.949 325.0925 375.1467 330.8564 374.5478 331.0259 365.6645 329.1188 368.6589 327.5082 369.0582 327.2963 368.1598 327.2963 357.4799 327.5506 357.6296 323.9482 355.6833 323.6515 354.9347 318.8624 354.7351 318.82 354.5854 318.269 355.4338 316.5738 355.7332 315.9804 355.7831 315.8533 357.9291 318.4386 359.4762 314.8785 357.3302 313.9037 357.8792 312.4204 354.9846 310.4284 355.0345 308.4789 356.2822 305.0884 358.4281 305.0884 361.6221 294.7472 368.1598 291.2296 369.3576 283.3466 371.1043 281.1003 368.609 280.6341 367.4612 278.3455 369.4574 272.7512 367.8105 271.3949 368.7587 270.0387 366.1137 268.8944 368.0101 268.1316 368.3096 264.2748 370.2559 264.0205 370.9546 260.2909 373.5996 258.2566 373.3501 254.3575 371.6533 252.0689 372.4019 249.3565 372.851 248.5936 372.7512 248.1698 372.2023 245.7964 371.9028 244.4402 374.0987 244.3131 376.9433 240.2868 379.5884 240.3716 381.0856 237.1506 382.7824 237.3625 383.8304 232.4462 384.2296 230.6662 384.7786 230.6238 385.5272 233.8872 385.5771 233.9719 387.1741 233.5057 385.6769 237.1506 386.1261 237.6168 387.4236 238.5915 389.1205 236.8539 391.7655 238.4644 392.9632 235.6672 395.4585 238.422 404.4916 239.7358 406.7373 238.3373 406.4878 240.414 409.2826 240.3292 410.5801 242.4907 410.2807 245.4998 412.6762 245.5421 415.6705 248.5936 417.3674 247.4917 419.2638 251.5179 421.1103 250.077 421.809 252.2808 423.1066 251.0517 428.4465 252.408 430.4428 255.968 431.4409 254.188 436.4814 253.637 437.8289 254.5694 436.5812 255.9256 439.4758 255.5866 438.9268 256.7733 445.3647 261.2657 446.5126 258.8076 446.5126 258.7228 447.86 261.7743 455.0964 261.3081 456.1445 263.851 458.3902 261.6048 464.6784 262.7915 467.4732 261.52 468.8206 263.8934 467.2735 267.0296 469.3696 268.513 467.0739 270.293 466.2255 275.1245 468.4214 277.4979 465.1775 278.8965 466.525 280.5494 471.4657 281.7361 472.364 284.2366 476.2567 282.6261 477.3047 282.2023 477.4544 282.287 479.8998 283.177 479.9497 283.3042 480.2991 283.4737 481.5966 286.5252 482.1456 286.7371 489.1325 286.1861 489.3321 287.9238 493.125 289.831 493.1749 289.8733 Z" />
        <path
            d="M 679.1253 351.9625 677.5283 352.0896 676.7298 350.7758 675.4323 348.4872 675.2826 348.2329 675.0829 348.2329 674.9831 349.2077 670.9906 348.7415 668.7947 345.9019 661.6083 346.8343 661.5583 346.7919 660.4604 343.9523 656.1186 344.0371 656.2683 342.1299 649.5809 339.4599 649.2814 337.0017 637.5535 341.028 635.8068 346.3257 632.8623 348.7415 635.0582 345.5628 627.5223 344.7152 625.2266 342.2571 625.2765 339.3327 623.0807 337.8494 622.8311 337.6798 623.6296 337.0441 626.9734 332.3821 625.6259 332.0007 627.8717 331.0259 627.8717 330.9835 627.3227 328.2711 624.2784 327.6778 624.0788 323.9482 626.0251 323.6091 626.5242 318.9895 633.7107 314.9633 630.5666 304.7493 632.0638 302.2488 635.0582 301.3588 635.3077 301.3164 632.7625 300.4688 629.3189 293.5182 629.818 292.5434 631.2653 291.1024 633.5111 290.6786 635.158 291.3991 644.8398 295.722 649.2315 294.5353 657.2165 296.8663 667.8964 295.5101 668.4454 297.2054 671.5895 298.1801 671.7392 295.8915 674.9831 297.1206 677.2788 295.0015 677.179 297.5868 682.2694 299.4092 683.3174 297.7563 679.2251 295.8915 680.0236 294.5777 689.5058 295.722 692.9992 293.7725 694.8458 295.6796 697.6405 294.6625 698.5887 292.2043 700.3854 292.6282 700.5351 285.3809 703.4795 284.9571 702.3317 284.4061 704.5775 282.4142 709.1689 282.3294 711.2649 284.7452 714.7583 283.9399 716.9043 285.8895 716.8544 285.2537 716.7047 282.838 719.749 283.2194 719.9985 283.2194 720.3478 280.2103 723.7914 278.9813 723.8413 278.9813 721.7452 271.8611 718.4015 269.7844 721.7452 269.5301 722.3441 267.1992 720.0983 264.6563 723.3422 262.2405 723.6417 265.1225 723.6916 265.3767 723.7914 265.4191 730.928 265.9277 732.2255 267.3687 733.7227 266.3091 737.4657 268.3011 734.7707 270.7592 735.5193 271.5645 733.2236 272.1154 735.8687 271.9459 735.0203 273.1326 737.815 274.2769 734.9704 275.7179 736.6173 276.2688 735.669 281.2699 741.7077 280.9732 745.8499 288.729 750.7906 289.1952 754.4338 291.2296 754.3839 293.4758 758.8754 292.5434 758.9752 292.7129 759.125 299.9602 759.075 300.2145 756.7794 301.1045 759.8236 301.7402 756.5298 304.0288 757.9771 307.2498 754.4338 309.5384 754.9328 311.6999 756.6296 311.9542 754.334 313.6494 757.4281 313.1409 756.0308 316.2771 759.3745 317.0824 761.4206 319.8372 760.5722 320.7272 762.1193 320.7696 762.5186 323.7363 762.9178 326.4063 762.7182 327.5506 761.8698 327.5082 761.5205 326.6606 755.8811 326.4487 752.9865 322.6767 752.9366 322.6767 751.2897 322.6344 751.3396 322.7615 751.3396 323.0158 751.639 325.3892 751.5392 325.3468 748.5448 320.8543 745.1512 319.1167 744.5024 318.7776 742.9054 318.9472 738.8131 319.371 737.4657 319.5405 735.4195 324.1601 732.4251 321.6596 732.6248 323.4396 729.5306 325.4315 729.5306 325.813 729.4807 326.703 729.2811 330.1359 727.6341 330.4326 725.2386 330.0935 724.7895 330.8988 723.0927 333.8655 722.4938 335.0098 716.8544 333.0602 714.7084 336.366 715.5069 339.2903 713.6105 338.358 713.3111 343.2742 713.3111 343.5709 717.2537 344.6728 716.4053 350.5639 717.8026 352.2591 726.4863 357.2602 726.3865 362.685 721.8949 366.2875 712.9617 362.5155 704.7272 363.7869 704.6773 363.7869 704.7272 361.0745 701.8326 359.464 702.6811 356.3702 700.5351 356.0311 701.633 355.1411 695.6942 355.7768 691.8015 353.8273 688.857 354.8868 688.7572 354.9292 688.6574 354.8868 686.9107 353.7001 684.4653 352.0896 684.5152 352.0048 685.5632 350.2672 684.3655 349.1229 682.2694 351.6658 679.1253 351.9625 Z" />
        <path
            d="M 477.5542 302.8845 477.2548 300.2145 482.7445 299.833 488.0345 292.9672 493.1749 289.8733 496.7182 289.4919 496.6683 288.0933 496.8679 288.1357 498.5148 290.5091 498.6146 291.95 499.2135 291.5262 500.4612 293.3486 502.3077 294.4506 502.3576 294.4929 504.7531 292.8824 503.0064 295.722 505.4518 296.6544 506.4998 300.2992 507.9471 299.7483 506.949 302.4183 509.6439 305.7665 509.7437 305.8088 517.1797 308.0975 519.9246 306.7412 521.2221 308.8179 524.9651 309.2418 524.466 310.2589 524.4161 310.4284 526.2627 309.0722 524.9152 307.3346 526.1629 305.4274 534.6968 302.4183 538.5895 305.7241 540.7355 301.9097 543.0311 301.2316 544.3786 303.2659 544.0293 300.4264 546.6244 298.8583 549.8184 302.2488 552.663 302.5031 552.8128 305.1307 555.2582 305.0884 558.3024 303.2659 559.3006 302.9269 562.1951 306.1055 564.8402 306.1055 564.8901 311.6151 566.7865 312.4628 565.0897 316.5314 565.8383 320.3034 562.9437 324.7111 563.5925 327.9744 560.2987 329.6697 560.4983 329.8392 560.648 330.0511 561.1471 330.5173 560.3985 331.7464 560.5482 331.9159 560.4484 331.9583 562.245 334.035 562.2949 333.8231 562.5944 334.1622 561.7959 339.0784 567.7846 346.7919 560.9974 352.3015 556.1565 353.022 556.8053 355.904 554.3099 359.125 555.2083 360.905 546.7741 364.3803 546.7242 364.3803 545.9257 363.4479 538.34 361.795 534.1977 361.244 533.9981 360.8626 532.1516 356.2854 534.597 352.5982 530.4548 348.4872 533.0998 343.1895 533.0499 342.5961 526.3625 336.6627 521.821 326.4487 520.7231 326.0249 519.4754 326.1097 517.0799 326.2792 514.8341 331.6617 511.9396 333.6536 512.1392 337.2136 511.9396 336.5355 511.1411 337.5103 504.3039 334.1198 500.5111 328.9492 497.7163 328.5678 498.4649 324.9654 494.4724 324.1601 492.4263 327.8897 489.2323 328.3559 490.7295 327.0844 489.7313 325.8554 487.0364 328.8221 485.8886 327.4659 489.1824 324.5415 485.3895 325.1349 484.8904 327.2116 483.2435 326.1097 484.3914 325.0925 483.3932 322.0834 482.6946 323.7363 481.4968 321.0239 477.3546 321.3205 478.2529 318.9895 475.8075 318.0571 475.9073 314.9633 476.3565 312.4204 478.4026 313.0137 475.1587 309.5384 477.6041 303.054 477.654 302.8421 477.5542 302.8845 Z" />
        <path
            d="M 161.1989 298.1378 161.8477 297.6292 163.8938 285.9742 170.0822 287.3304 169.8326 286.1014 170.5812 285.8471 172.4777 285.7199 172.5775 285.7623 171.5295 287.7543 174.0248 288.2628 175.1227 293.2215 178.3666 293.9844 178.8158 291.1024 182.6086 290.6362 185.3535 294.9591 188.9966 294.4082 189.9448 296.9087 194.7358 295.6796 196.4326 288.6019 195.734 294.4082 199.2773 296.1882 199.7265 286.9914 206.0645 287.7543 206.0146 288.1357 210.7058 289.4071 209.7077 290.3819 211.3546 291.611 229.77 290.9329 239.4019 294.9591 241.5977 294.1539 239.5516 292.7129 244.4923 293.8996 245.4405 292.9672 245.9895 293.0096 245.6901 296.2306 241.8473 297.2478 242.1467 297.502 244.8916 299.6635 241.997 302.7997 241.5977 305.385 243.1448 305.2579 241.0987 307.4617 241.2983 311.9118 233.6627 318.481 230.9677 324.4992 230.8679 324.7111 234.7606 333.2722 226.4263 351.5386 222.4338 354.5901 223.3321 355.6497 222.9328 355.3954 218.042 357.2602 217.6428 357.5568 210.7058 367.0079 193.6379 371.7971 192.8394 372.3057 185.9523 377.8577 184.2056 379.2562 175.2724 373.8314 174.6735 375.4843 171.1801 373.7043 167.1377 374.4247 167.1876 373.0261 161.2987 370.9071 163.3448 367.4318 161.648 361.7526 163.5944 359.7607 161.648 358.8283 163.8439 357.6416 161.4983 353.573 154.761 352.2168 154.212 347.7243 154.212 347.5124 154.1621 347.5548 153.9625 347.5548 153.7129 347.3852 155.4098 346.58 156.358 342.6809 159.2026 343.1471 158.9531 337.4679 158.9531 337.4256 161.3985 335.476 165.7403 335.7303 166.2394 334.035 164.4927 332.9755 166.5388 332.5517 168.3355 329.4578 166.2893 329.034 166.5388 326.1944 164.3929 325.9825 165.0916 322.0834 162.5962 321.9139 162.2469 319.0319 162.8458 310.0046 165.8402 302.715 161.7977 300.5111 157.406 300.8502 161.1989 298.1378 Z" />
        <path
            d="M 161.1989 298.1378 157.406 300.8502 161.7977 300.5111 165.8402 302.715 162.8458 310.0046 162.2469 319.0319 162.5962 321.9139 165.0916 322.0834 164.3929 325.9825 166.5388 326.1944 166.2893 329.034 168.3355 329.4578 166.5388 332.5517 164.4927 332.9755 166.2394 334.035 165.7403 335.7303 161.3985 335.476 158.9531 337.4256 158.9531 337.4679 159.2026 343.1471 156.358 342.6809 155.4098 346.58 153.7129 347.3852 153.9625 347.5548 147.6244 347.9362 147.0255 349.8434 145.179 349.5467 143.9812 346.2409 132.5028 345.2662 128.7598 347.5972 117.4311 345.0119 118.3794 348.8686 115.5846 350.9453 118.03 352.6406 119.3276 356.7516 116.1835 358.9978 115.5846 362.2188 110.6938 362.5579 103.9565 360.1845 102.5092 359.3369 100.0638 358.8283 96.8199 358.1078 94.9235 357.7264 94.1749 358.1502 93.3764 358.6164 93.3265 357.8959 93.2765 356.794 91.8792 355.8616 81.3989 348.9534 81.349 348.8262 79.5024 345.5205 74.7614 346.0714 73.4638 343.1471 74.6116 341.1975 76.4582 341.3671 78.0053 339.8837 79.1531 339.5023 80.0015 337.9341 80.1013 337.7222 80.2011 337.5527 78.3047 336.2813 81.4987 335.8574 85.3415 335.476 85.2916 335.3065 84.5929 333.4417 79.9516 333.2298 80.5006 331.1531 83.1456 331.7464 86.9884 329.9664 90.382 325.0501 90.0826 322.041 94.3745 320.9391 94.4743 320.8967 98.7662 315.7262 112.74 306.5293 122.9707 303.0964 121.9726 293.6453 124.2184 290.7634 132.3531 287.7966 132.6525 289.3648 130.7561 290.0429 134.0499 289.831 134.7486 288.1781 141.8353 292.5434 142.9332 297.7563 143.2326 297.7987 145.6281 298.1378 154.2619 299.4092 155.4597 299.1549 157.3561 298.7311 158.0049 298.5616 157.7054 298.2649 155.9587 296.6544 158.7036 297.1206 161.1989 298.1378 Z" />
        <path
            d="M 383.1317 196.2523 383.5809 195.7437 384.4792 194.6842 386.7749 195.2351 386.9745 189.9798 383.0818 188.6236 382.5827 188.4964 382.5328 190.8698 378.7899 188.5812 378.6402 188.5388 383.531 187.6912 384.7287 187.4793 380.9358 184.5973 381.8841 182.2663 380.3869 180.2744 380.5366 178.5367 380.5366 178.4944 383.3313 177.3077 383.3812 177.1381 383.3313 173.6205 384.1797 173.5357 384.6289 173.4509 385.9764 173.2814 389.1704 175.4429 393.063 174.9343 393.4623 174.8919 391.9651 180.7406 401.6968 179.2996 401.8964 182.7325 402.146 182.7749 402.5452 182.9021 404.6912 183.6225 404.7411 183.6649 401.4972 185.0635 403.8428 187.3097 403.8927 187.3097 401.9463 189.4288 401.7966 189.5984 404.3418 190.4036 404.2919 191.0817 403.9925 192.3532 402.0462 192.0141 401.2477 196.2947 400.9981 197.6932 403.2938 199.0918 404.2919 199.6428 404.8409 200.0242 411.6281 200.8719 412.8259 200.5752 417.567 199.3038 417.567 195.2775 424.3542 195.8285 427.0991 193.0313 429.0953 193.2856 432.5388 196.337 430.2931 198.8799 430.6923 202.5671 432.7884 203.2452 432.7385 205.2796 437.5295 207.1444 437.3797 207.4834 435.0841 212.8659 434.7846 213.5016 435.0341 213.5864 435.8826 213.7983 437.6293 214.2645 438.0285 213.9678 439.4758 212.8659 441.1227 211.6368 442.4702 210.6197 448.0597 214.0102 450.2056 209.8144 454.4477 207.102 461.4345 209.4753 461.5343 209.5177 461.6341 209.5177 462.9317 209.433 469.9685 208.9668 470.7171 209.3482 469.7189 213.544 473.6116 215.4088 475.3084 216.214 477.2548 217.104 480.9977 218.8417 483.2435 219.9012 483.3932 220.1131 484.042 221.2574 482.2953 225.0718 483.4432 230.1152 487.9347 232.4462 492.6259 239.3968 492.7257 239.3968 492.7257 239.4392 492.4762 240.202 491.478 243.1264 494.1231 246.2202 492.8255 246.1779 493.7238 248.5936 491.3782 251.0094 492.576 250.5856 491.8274 252.747 492.2765 253.298 495.3208 256.4342 494.8717 256.4766 491.4281 256.9428 489.1824 255.1628 485.5392 260.63 483.6428 263.512 482.8443 264.6986 481.2473 267.1568 482.1456 267.7501 484.1917 267.7925 485.8886 267.8773 488.5835 267.962 488.5835 268.0044 490.1805 269.2759 489.5317 271.0559 492.0769 272.4545 491.1287 274.7007 494.8717 275.1245 495.9197 277.4131 496.7681 277.8793 496.4188 278.5151 495.1212 281.1003 496.7182 282.838 495.4206 287.3728 495.7201 287.7966 496.6683 288.0933 496.7182 289.4919 493.1749 289.8733 493.125 289.831 489.3321 287.9238 489.1325 286.1861 482.1456 286.7371 481.5966 286.5252 480.2991 283.4737 479.9497 283.3042 479.8998 283.177 477.4544 282.287 477.3047 282.2023 476.2567 282.6261 472.364 284.2366 471.4657 281.7361 466.525 280.5494 465.1775 278.8965 468.4214 277.4979 466.2255 275.1245 467.0739 270.293 469.3696 268.513 467.2735 267.0296 468.8206 263.8934 467.4732 261.52 464.6784 262.7915 458.3902 261.6048 456.1445 263.851 455.0964 261.3081 447.86 261.7743 446.5126 258.7228 446.5126 258.8076 445.3647 261.2657 438.9268 256.7733 439.4758 255.5866 436.5812 255.9256 437.8289 254.5694 436.4814 253.637 431.4409 254.188 430.4428 255.968 428.4465 252.408 423.1066 251.0517 421.809 252.2808 421.1103 250.077 419.2638 251.5179 417.3674 247.4917 415.6705 248.5936 412.6762 245.5421 410.2807 245.4998 410.5801 242.4907 409.2826 240.3292 406.4878 240.414 406.7373 238.3373 404.4916 239.7358 395.4585 238.422 392.9632 235.6672 391.7655 238.4644 389.1205 236.8539 387.4236 238.5915 386.1261 237.6168 385.6769 237.1506 387.1741 233.5057 385.5771 233.9719 385.5272 233.8872 384.7786 230.6238 384.2296 230.6662 384.8285 227.9961 384.8784 227.6571 387.8728 227.5723 386.8747 224.648 390.9171 224.097 392.7137 221.9779 385.7767 218.5026 386.4255 212.5692 381.8341 208.5853 385.128 205.1524 385.0281 205.11 382.5328 204.0505 381.7343 203.7114 382.1336 203.33 385.128 201.2533 385.078 200.7871 385.0281 200.2785 384.9283 197.9475 383.1317 196.2523 Z" />
        <path
            d="M 558.3024 303.2659 555.2582 305.0884 552.8128 305.1307 552.663 302.5031 549.8184 302.2488 546.6244 298.8583 544.0293 300.4264 544.3786 303.2659 543.0311 301.2316 540.7355 301.9097 538.5895 305.7241 534.6968 302.4183 526.1629 305.4274 524.9152 307.3346 526.2627 309.0722 524.4161 310.4284 524.466 310.2589 524.9651 309.2418 521.2221 308.8179 519.9246 306.7412 517.1797 308.0975 509.7437 305.8088 509.6439 305.7665 506.949 302.4183 507.9471 299.7483 506.4998 300.2992 505.4518 296.6544 503.0064 295.722 504.7531 292.8824 502.3576 294.4929 502.3077 294.4506 500.4612 293.3486 499.2135 291.5262 498.6146 291.95 498.5148 290.5091 496.8679 288.1357 496.6683 288.0933 495.7201 287.7966 495.4206 287.3728 496.7182 282.838 495.1212 281.1003 496.4188 278.5151 496.7681 277.8793 495.9197 277.4131 494.8717 275.1245 491.1287 274.7007 492.0769 272.4545 489.5317 271.0559 490.1805 269.2759 488.5835 268.0044 488.5835 267.962 485.8886 267.8773 484.1917 267.7925 482.1456 267.7501 481.2473 267.1568 482.8443 264.6986 483.6428 263.512 485.5392 260.63 489.1824 255.1628 491.4281 256.9428 494.8717 256.4766 495.3208 256.4342 492.2765 253.298 491.8274 252.747 492.576 250.5856 491.3782 251.0094 493.7238 248.5936 492.8255 246.1779 494.1231 246.2202 491.478 243.1264 492.4762 240.202 492.7257 239.4392 492.7257 239.3968 494.0233 239.312 495.8698 239.1849 499.5129 236.2182 500.4612 233.2938 500.6109 233.3362 505.1024 233.5905 505.2023 233.6753 505.2522 233.76 505.6514 236.3029 508.1966 237.1082 513.337 235.7096 510.4424 241.3464 515.5827 246.2202 520.224 240.4987 528.8578 242.194 533.8484 241.8973 530.5047 244.3978 530.3051 244.9912 529.2071 248.5088 532.3512 249.8227 529.806 253.5946 529.8559 253.6794 534.4473 257.4514 541.3343 255.5018 541.4341 255.5442 540.5358 257.5361 541.6338 260.079 543.8795 260.2909 544.678 266.3515 551.1159 267.962 557.7036 267.1992 560.0492 265.2496 565.6386 265.5039 567.9842 272.1154 570.5794 274.3193 567.6349 274.8279 568.7827 278.8117 566.3373 284.0671 567.6848 285.6776 565.5887 286.059 565.6386 287.4152 570.1801 289.3224 567.6349 293.6453 568.134 296.9935 565.8882 296.0611 558.7017 299.833 559.7497 302.4183 558.3024 303.2659 Z" />
        <path
            d="M 74.6116 341.1975 73.4638 343.1471 74.7614 346.0714 79.5024 345.5205 81.349 348.8262 81.3989 348.9534 91.8792 355.8616 93.2765 356.794 93.3265 357.8959 93.3764 358.6164 93.0769 358.7435 93.576 362.8122 91.3302 362.685 91.1805 364.7617 83.6946 366.0332 81.7981 370.1018 79.0034 370.568 80.2011 372.7719 79.1032 376.6286 81.2991 377.0524 81.848 379.2562 80.1512 380.6548 81.0495 381.7144 78.654 387.0969 83.6946 398.879 82.0976 402.9476 84.1936 404.8971 79.3028 408.2877 79.6522 411.5934 78.0552 411.6358 78.7039 412.8225 72.0664 418.9679 70.9186 426.5966 64.3809 431.3433 66.5268 435.9629 74.1625 438.1667 75.5099 443.5492 74.0128 443.8459 74.8113 447.5331 72.3659 448.296 71.5674 452.2375 66.7265 457.7471 67.2255 461.6038 70.17 464.9096 68.024 470.0377 68.4732 474.064 61.4364 478.6412 57.7433 478.5565 55.4976 475.7593 51.3553 478.5141 33.8882 478.3446 33.5388 477.1579 33.7884 476.4798 34.6368 474.4031 33.5887 468.7239 35.6349 467.0286 37.4814 465.5029 37.4315 465.5029 33.7884 464.74 34.5869 462.2819 29.8957 460.9681 33.0897 456.7723 32.5407 456.1366 29.5962 452.6189 27.4004 452.9156 28.0991 447.3212 23.1084 448.0841 18.2675 442.2354 13.3268 440.0315 12.9775 440.0739 12.728 439.9892 12.8777 437.7853 13.227 432.4452 12.9775 431.64 6.9887 425.8337 8.8852 424.3079 6.5396 420.2393 7.9869 418.9255 7.6375 412.4835 4.6931 410.9577 5.8409 403.6681 1 402.3119 1.6488 399.0909 4.6931 396.9294 3.5452 395.2341 5.791 386.9273 7.8871 387.2664 8.5358 385.0202 7.1385 380.2734 5.791 375.6114 5.7411 375.4419 5.791 375.3571 6.9388 373.0685 10.8814 372.7295 11.5801 371.0766 12.678 372.3057 13.4266 370.3985 14.1253 371.5852 16.1216 365.5246 16.2713 365.016 18.1178 364.5074 18.2176 364.4651 18.2675 364.4651 19.615 365.9484 20.0143 363.7446 21.8109 363.236 24.5058 364.5498 28.2488 358.7011 28.4484 360.2269 30.1951 358.9978 30.6942 360.015 34.1377 358.1078 33.5887 356.5821 35.2856 357.3873 35.7347 357.1754 38.3298 355.6073 35.7846 355.4378 36.2338 354.463 41.3741 354.6325 41.424 356.0311 41.6236 355.8616 45.2668 352.5558 50.4071 352.4287 51.2555 350.0553 53.651 350.691 53.651 350.6486 53.7009 350.6486 54.8488 346.0714 56.5955 346.9614 56.2961 346.0714 57.1944 346.0714 58.1426 346.6648 59.8893 346.1562 60.2386 346.029 60.8375 345.8171 59.2904 344.6304 59.1407 344.3761 61.3366 343.7828 62.0353 341.8332 63.4826 343.1895 68.4233 339.3327 69.072 340.9009 72.4657 340.8161 70.7689 342.1299 70.669 342.2147 71.9666 342.7656 72.7651 343.1047 72.9148 343.1471 73.0146 342.8504 74.6116 341.1975 Z" />
        <path
            d="M 153.9625 347.5548 154.1621 347.5548 154.212 347.5124 154.212 347.7243 154.761 352.2168 161.4983 353.573 163.8439 357.6416 161.648 358.8283 163.5944 359.7607 161.648 361.7526 163.3448 367.4318 161.2987 370.9071 167.1876 373.0261 167.1377 374.4247 171.1801 373.7043 174.6735 375.4843 175.2724 373.8314 184.2056 379.2562 182.3591 383.0282 181.5606 384.554 177.7677 392.1403 177.1689 392.5217 165.5407 399.4299 158.8533 403.4562 139.9887 426.0456 123.4698 442.0235 121.773 444.4816 112.0912 460.4171 111.1929 462.3243 111.2428 462.3667 109.546 464.6129 100.2135 476.7764 99.7144 477.285 89.5336 480.0398 89.5336 480.0822 89.4338 480.0398 87.9366 479.2769 78.5043 480.3789 77.9553 480.4636 77.8056 480.4636 64.83 484.6594 59.8893 483.0065 45.167 483.1761 30.7441 481.0994 30.4946 481.1417 30.3448 481.1417 29.3467 478.9379 33.3891 477.5817 33.5388 477.1579 33.8882 478.3446 51.3553 478.5141 55.4976 475.7593 57.7433 478.5565 61.4364 478.6412 68.4732 474.064 68.024 470.0377 70.17 464.9096 67.2255 461.6038 66.7265 457.7471 71.5674 452.2375 72.3659 448.296 74.8113 447.5331 74.0128 443.8459 75.5099 443.5492 74.1625 438.1667 66.5268 435.9629 64.3809 431.3433 70.9186 426.5966 72.0664 418.9679 78.7039 412.8225 78.0552 411.6358 79.6522 411.5934 79.3028 408.2877 84.1936 404.8971 82.0976 402.9476 83.6946 398.879 78.654 387.0969 81.0495 381.7144 80.1512 380.6548 81.848 379.2562 81.2991 377.0524 79.1032 376.6286 80.2011 372.7719 79.0034 370.568 81.7981 370.1018 83.6946 366.0332 91.1805 364.7617 91.3302 362.685 93.576 362.8122 93.0769 358.7435 93.3764 358.6164 94.1749 358.1502 94.9235 357.7264 96.8199 358.1078 100.0638 358.8283 102.5092 359.3369 103.9565 360.1845 110.6938 362.5579 115.5846 362.2188 116.1835 358.9978 119.3276 356.7516 118.03 352.6406 115.5846 350.9453 118.3794 348.8686 117.4311 345.0119 128.7598 347.5972 132.5028 345.2662 143.9812 346.2409 145.179 349.5467 147.0255 349.8434 147.6244 347.9362 153.9625 347.5548 Z" />
        <path
            d="M 511.2908 407.7791 509.1947 409.6015 510.4923 417.4845 510.4923 417.5269 508.4961 417.7388 508.8953 419.1798 509.045 419.646 509.045 419.7307 514.8341 422.867 514.8841 422.9093 514.934 423.1636 516.1317 428.2494 516.3313 429.0971 515.9321 430.3261 515.1336 438.421 510.9914 439.0568 509.8934 442.9559 518.3276 441.0911 519.9246 452.8308 528.758 458.8914 529.6563 459.4847 528.7081 459.9933 528.6582 461.18 529.6064 461.9852 528.4585 466.0539 528.4086 467.7915 527.9595 467.8339 527.9096 468.0034 523.5178 474.5302 520.0743 474.8269 518.9764 479.4041 515.0338 478.1326 510.5422 483.6423 510.9914 486.3123 507.9471 490.3809 509.8435 492.2457 509.6439 493.5596 509.1947 496.7382 506.949 495.721 507.5478 496.7382 505.4518 497.2468 505.4518 497.4163 505.3021 503.9431 505.3021 504.2821 505.1024 504.4093 503.0563 505.6383 500.5111 505.1298 496.6683 504.4093 494.0233 499.1539 493.8236 498.7725 490.9291 496.3144 487.8848 496.5687 486.4375 493.7715 481.2972 494.5767 477.6041 493.0086 478.3527 491.4829 474.7096 490.6776 479.9996 483.4303 478.1032 479.8703 479.8 477.5817 478.6522 475.4626 482.1955 471.2668 472.0146 472.6654 464.928 466.9439 464.7283 470.0801 459.8874 471.9449 451.7028 468.6392 448.958 462.1548 451.5032 457.069 451.054 453.3394 446.3129 446.9821 445.5644 445.965 441.7715 444.9902 441.3223 444.9054 441.1227 444.863 436.3816 446.6431 439.5257 443.4221 439.3261 440.3706 439.2762 440.413 439.2263 440.3282 432.0398 435.751 426.3505 426.2151 423.0068 424.9013 422.7572 427.3594 413.2251 425.2827 412.0773 420.4088 410.1809 419.0526 411.2289 415.4926 408.4841 414.8145 408.4841 417.5693 404.0424 417.0183 402.0961 416.8064 401.8964 416.764 402.5951 412.7801 406.8371 413.8397 407.7854 413.0768 407.7854 412.9073 404.0923 407.4824 403.8927 407.1858 405.34 406.6772 413.4248 403.7105 416.0199 404.9395 417.8165 402.6509 422.1583 403.9648 421.3598 406.5924 426.1009 405.321 426.3505 405.5753 427.2987 406.4653 427.3985 406.55 431.5407 405.4481 431.7403 407.9062 438.4777 409.2201 440.3741 408.4996 440.2743 406.5924 442.57 408.0758 445.0653 405.7872 446.1133 408.2877 449.457 409.2201 449.4071 406.6348 452.6011 404.0071 453.6492 397.0565 464.1794 402.2271 464.4289 405.8295 467.9223 406.1262 471.0165 403.1595 469.3696 396.1665 476.4563 392.1827 480.5486 392.6065 481.8462 387.3088 489.8811 382.0111 497.7662 382.9435 496.7681 389.3855 493.4743 391.1655 492.027 395.9122 500.7107 397.777 500.7606 405.2786 502.8567 403.5409 503.8049 405.2786 511.6402 407.4824 511.2908 407.7791 Z" />
        <path
            d="M 528.4086 467.7915 528.4585 466.0539 529.6064 461.9852 528.6582 461.18 528.7081 459.9933 529.6563 459.4847 528.758 458.8914 519.9246 452.8308 518.3276 441.0911 509.8934 442.9559 510.9914 439.0568 515.1336 438.421 515.9321 430.3261 516.3313 429.0971 516.1317 428.2494 514.934 423.1636 514.8841 422.9093 514.8341 422.867 509.045 419.7307 509.045 419.646 508.8953 419.1798 508.4961 417.7388 510.4923 417.5269 510.4923 417.4845 509.1947 409.6015 511.2908 407.7791 511.74 407.44 515.3831 407.5248 518.7767 410.7458 517.8285 412.4835 522.0705 410.9577 524.1167 413.5006 527.3107 413.2887 527.5602 409.0505 530.2552 408.7115 531.0038 410.4068 534.7966 408.0758 534.6968 403.3714 537.8908 403.3714 535.0462 401.1676 534.7467 398.2856 537.3418 391.7588 541.534 388.1988 540.9351 386.673 541.3842 386.5883 542.2826 386.4611 547.4728 385.5711 548.2214 385.8254 549.0199 386.1221 556.6056 388.7921 558.3523 386.8426 560.8477 390.2755 562.7441 387.3088 566.8364 387.6478 570.4296 390.1907 592.8375 387.6054 597.3291 389.9364 598.976 388.1564 610.3047 390.5298 613.5486 394.8951 619.0383 395.6579 618.9884 395.7427 614.0976 401.9728 615.4949 408.5844 614.1475 414.433 615.4949 415.9164 613.9478 418.0355 615.8443 424.1384 613.7981 427.317 613.6484 427.3594 608.2585 428.8428 605.364 433.3776 602.9186 434.2253 602.6191 435.7934 606.0627 436.6834 603.3178 440.7096 604.2161 444.1426 601.9205 445.965 603.7171 448.4655 603.5674 448.8469 603.6173 448.9741 599.2255 461.3071 599.0758 464.8248 599.0259 465.0367 598.427 467.6644 594.4345 466.6472 593.9355 464.401 590.1426 465.9691 587.248 462.7481 583.2056 464.1467 584.054 461.3495 581.3591 460.7985 582.0079 463.4686 576.1189 469.8682 576.8176 477.3698 576.8176 477.5393 571.7272 473.3435 567.7846 476.4374 565.2394 475.1235 565.6386 473.2164 559.0011 473.9369 560.4484 469.3173 554.4098 466.3505 551.2158 466.3082 550.6668 469.9106 548.2713 472.4535 536.194 473.8097 534.9463 473.9369 533.6987 472.5806 530.5047 469.1901 528.3088 469.2749 528.4086 467.7915 Z" />
        <path
            d="M 403.8927 407.1858 404.0923 407.4824 407.7854 412.9073 407.7854 413.0768 406.8371 413.8397 402.5951 412.7801 401.8964 416.764 402.0961 416.8064 404.0424 417.0183 408.4841 417.5693 408.4841 414.8145 411.2289 415.4926 410.1809 419.0526 412.0773 420.4088 413.2251 425.2827 422.7572 427.3594 423.0068 424.9013 426.3505 426.2151 432.0398 435.751 439.2263 440.3282 439.2762 440.413 427.2987 445.3716 425.7017 447.8721 421.0105 447.5755 419.7629 446.9821 414.922 442.4897 414.7722 442.6168 412.2769 439.6925 412.776 438.2939 409.1827 436.3867 402.3955 435.7934 399.9501 438.082 394.9096 437.7005 388.5715 434.0557 385.9764 439.3534 383.5809 440.413 383.531 449.2284 379.3887 454.5261 374.1985 455.628 377.0432 459.4 378.5403 466.5625 378.7899 470.6311 377.4424 472.284 377.3426 472.4111 377.2428 472.5383 368.8086 472.284 363.269 469.063 360.9235 471.2668 361.8218 475.3355 360.075 476.7764 356.8811 475.2083 357.0308 480.1246 354.1362 481.8622 351.591 481.1841 350.3433 478.3446 349.5947 477.9207 339.8131 480.7179 331.1295 476.4374 330.331 476.6069 330.1313 476.5645 329.6323 476.3526 326.6878 477.3274 321.5974 476.0559 323.0946 472.1144 320.7989 471.6906 318.8525 463.9772 319.3516 462.409 321.9966 463.8076 322.346 461.7309 319.0023 461.3071 317.4552 458.1285 318.5531 457.1113 322.0964 458.7218 323.0447 451.1779 321.7471 448.3807 318.7527 449.186 317.6049 445.6683 312.9636 446.0073 314.5107 440.2858 316.9062 440.1587 318.4533 437.192 319.0023 432.1485 321.4976 430.8347 321.5974 427.9528 324.3921 427.7409 323.1445 424.1808 328.4844 424.2656 328.6341 422.316 330.9797 421.3836 330.1313 417.3574 331.4788 415.5773 330.1812 413.7549 330.6803 413.204 332.427 411.1696 332.7265 411.3392 332.8263 411.2968 334.6728 409.6863 353.6871 402.5238 353.2379 404.5581 359.5261 407.44 360.4244 404.3038 356.6814 402.3966 357.979 399.8537 366.0638 400.4471 371.4038 394.1746 374.997 395.2341 371.8529 389.555 379.3388 386.9697 381.4349 390.0636 388.9208 389.6821 390.5178 387.8173 394.1111 389.9364 394.3107 392.3098 392.8634 392.6488 393.5621 401.8457 393.5621 402.1847 388.5715 402.439 388.3719 404.0495 390.2683 405.3633 390.9171 405.7872 392.3144 405.1938 393.3126 403.7952 395.209 404.0495 394.9595 406.2534 397.8041 408.7539 399.7006 405.9991 400.6987 405.9143 401.9463 405.7872 402.8946 405.7024 403.194 406.0838 403.8927 407.1858 Z" />
        <path
            d="M 332.427 411.1696 330.6803 413.204 330.1812 413.7549 331.4788 415.5773 330.1313 417.3574 330.9797 421.3836 328.6341 422.316 328.4844 424.2656 323.1445 424.1808 324.3921 427.7409 321.5974 427.9528 321.4976 430.8347 319.0023 432.1485 318.4533 437.192 316.9062 440.1587 314.5107 440.2858 312.9636 446.0073 317.6049 445.6683 318.7527 449.186 321.7471 448.3807 323.0447 451.1779 322.0964 458.7218 318.5531 457.1113 317.4552 458.1285 319.0023 461.3071 322.346 461.7309 321.9966 463.8076 319.3516 462.409 318.8525 463.9772 320.7989 471.6906 323.0946 472.1144 321.5974 476.0559 326.6878 477.3274 329.6323 476.3526 330.1313 476.5645 330.331 476.6069 333.9242 478.0479 332.976 480.4213 323.2942 483.6423 326.8375 481.6079 316.4071 481.5232 315.5088 486.5666 310.2188 486.6937 306.4259 491.1014 296.0953 491.5252 294.7977 493.5596 298.2912 497.6706 297.9418 497.7977 289.9568 500.934 286.0143 505.4688 285.1159 505.2145 284.2675 505.9774 284.3674 505.4264 281.872 504.3245 283.3193 501.4849 282.97 495.8906 280.1253 500.044 274.7355 498.7725 266.2514 505.2569 266.2015 505.2569 265.952 505.2993 262.8578 505.8079 262.0593 505.4264 254.8229 505.6807 254.8728 501.9935 251.2795 497.2891 252.1779 491.1014 250.2315 490.4657 248.4349 492.0762 246.7381 490.5928 244.5422 492.8391 244.6919 490.169 243.3944 489.9995 244.3925 483.1761 238.6034 480.3365 235.9084 484.6594 230.9677 485.2528 226.6758 490.0843 219.9385 492.161 216.5448 502.6716 213.5505 500.7644 203.8687 501.1883 203.3696 499.1539 200.8743 499.7473 199.9261 501.824 201.6728 503.9855 198.7283 505.596 194.5362 505.2569 194.5861 505.4688 194.8356 508.1389 195.1351 511.0632 190.8432 517.4204 189.5955 519.2852 189.4458 519.4548 189.3959 519.3276 189.1962 518.9886 187.6991 516.1914 190.5936 512.5889 187.4495 515.1742 184.7546 514.4961 183.6567 511.2751 177.9674 512.5042 178.9655 508.1812 174.1246 506.9098 175.1227 505.2569 173.0765 505.5112 172.1283 503.0531 169.7827 503.9007 164.7422 502.3326 164.7422 502.2902 163.5445 497.9673 161.2987 497.8401 163.7441 496.2296 161.4983 493.8562 157.6056 493.39 156.857 491.271 156.6075 490.6352 158.4041 488.4738 162.197 486.8209 169.5831 483.6423 169.3835 480.5908 171.779 480.3789 172.7272 474.4454 174.5238 473.5554 177.4683 476.8612 179.9636 473.5554 181.7103 479.4889 184.9043 479.4041 187.5493 483.0489 197.5805 480.9298 203.1201 475.2931 200.5749 473.8521 205.5655 469.8258 206.4638 460.2476 211.6041 461.0952 213.3508 456.5604 222.0844 456.6028 222.5336 453.4241 225.7276 453.2546 226.7756 446.1345 224.8293 442.7863 227.7238 442.7016 226.1268 439.0144 227.8236 437.9972 222.9328 437.2767 221.3857 432.0214 218.1418 432.1062 217.8424 429.3514 214.2991 428.2494 212.5024 425.2403 213.5006 424.3079 217.2435 425.7489 216.2454 422.9941 219.0402 422.6551 219.3895 420.875 222.833 420.9598 222.9827 420.7903 224.7794 417.2302 223.931 412.4411 227.8735 411.2968 227.624 410.1101 226.8754 409.2625 227.3246 408.9658 229.5205 407.5248 229.5704 404.9819 225.0289 404.1767 222.334 399.1756 221.9347 398.3704 226.9752 398.7094 227.5242 396.2089 233.2135 397.3956 235.2098 394.4713 240.0008 393.4541 247.1872 395.1494 255.7711 394.556 258.5159 396.3361 255.6713 400.7861 258.7655 402.5662 259.7636 407.1858 263.1073 407.101 264.9538 404.2614 267.549 404.6005 269.2458 403.0747 268.7966 401.0404 274.0368 402.3542 275.8833 400.0233 277.131 400.1928 277.9295 404.8548 284.5171 406.2534 290.5058 396.5056 294.0991 396.7175 294.7977 394.1746 299.4889 393.4117 299.5887 393.3693 299.1396 394.5984 298.391 396.9294 298.5906 396.9294 302.5831 395.5732 300.9362 399.3452 300.9362 399.8537 304.1801 398.3704 304.2799 396.3361 306.5257 396.2937 306.6255 396.2937 308.2724 403.9224 310.0191 404.0071 310.069 400.5742 311.4165 399.8113 311.4664 399.769 311.666 399.6842 311.7659 401.4219 320.3996 401.4219 321.1981 403.8376 326.3884 401.8033 327.2867 407.1434 331.5786 406.4229 329.8319 409.4744 332.4769 411.1696 332.427 411.1696 Z" />
        <path
            d="M 512.1392 337.2136 511.9396 333.6536 514.8341 331.6617 517.0799 326.2792 519.4754 326.1097 520.7231 326.0249 521.821 326.4487 526.3625 336.6627 533.0499 342.5961 533.0998 343.1895 530.4548 348.4872 534.597 352.5982 532.1516 356.2854 533.9981 360.8626 534.1977 361.244 538.34 361.795 545.9257 363.4479 546.7242 364.3803 547.1235 365.567 535.5951 366.0332 532.8503 366.1603 532.7505 366.1603 533.2495 368.3218 533.3992 368.9151 533.3992 368.9575 537.8409 370.9071 540.2364 374.9333 540.3362 374.9333 542.4323 374.5519 542.033 372.5599 543.3805 374.9757 548.7205 375.7386 543.9794 377.8153 543.9295 377.8153 542.033 382.1806 539.7373 382.6044 539.1385 385.6135 541.2844 386.2068 541.3842 386.5883 540.9351 386.673 541.534 388.1988 537.3418 391.7588 534.7467 398.2856 535.0462 401.1676 537.8908 403.3714 534.6968 403.3714 534.7966 408.0758 531.0038 410.4068 530.2552 408.7115 527.5602 409.0505 527.3107 413.2887 524.1167 413.5006 522.0705 410.9577 517.8285 412.4835 518.7767 410.7458 515.3831 407.5248 511.74 407.44 511.2908 407.7791 511.6402 407.4824 503.8049 405.2786 502.8567 403.5409 500.7606 405.2786 500.7107 397.777 492.027 395.9122 493.4743 391.1655 496.7681 389.3855 497.7662 382.9435 489.8811 382.0111 489.382 371.5852 492.9253 368.6185 489.7812 365.1855 486.9865 357.0906 472.8131 360.6083 472.6634 360.2693 472.2642 359.2945 479.6503 355.1411 479.8499 355.0139 479.8 354.9716 479.7002 354.5901 479.5006 353.8273 479.8499 354.2087 480.0994 354.7597 480.2991 354.6749 482.0458 353.4034 480.848 351.4115 489.6814 348.1057 488.7332 347.47 492.6758 344.1642 493.4743 346.6224 493.4743 346.6648 493.5242 346.6224 494.9216 344.7576 497.0675 341.8756 500.5111 340.7313 504.6034 342.9352 507.7475 338.9089 512.2889 339.0361 512.8379 339.0361 512.1392 337.2136 Z" />
        <path
            d="M 373.5996 258.2566 370.9546 260.2909 370.2559 264.0205 368.3096 264.2748 368.0101 268.1316 366.1137 268.8944 368.7587 270.0387 367.8105 271.3949 369.4574 272.7512 367.4612 278.3455 368.609 280.6341 371.1043 281.1003 369.3576 283.3466 368.1598 291.2296 361.6221 294.7472 358.4281 305.0884 356.2822 305.0884 355.0345 308.4789 354.9846 310.4284 357.8792 312.4204 357.3302 313.9037 359.4762 314.8785 357.9291 318.4386 355.7831 315.8533 355.7332 315.9804 355.4338 316.5738 354.5854 318.269 354.7351 318.82 349.5448 317.93 349.4949 317.9724 345.7021 321.8291 339.9129 322.8463 339.0645 325.6011 332.427 324.7534 322.0964 323.3972 320.1002 323.0158 310.0191 310.0046 307.0248 308.7756 308.7715 305.385 302.7328 301.0197 301.0859 297.6716 296.5944 270.7168 288.6094 266.0125 288.6094 261.6472 282.7205 255.6713 282.1216 250.077 281.2732 248.8479 282.0717 248.7208 282.8702 249.4836 287.0124 247.7884 287.1621 247.746 287.3118 247.6612 287.0124 245.0336 294.149 245.3726 298.2413 243.0416 307.7235 245.2878 309.8195 242.9145 313.7122 242.6602 317.2555 245.1183 315.6585 252.0265 317.3054 253.3404 323.6934 252.0689 332.3272 255.8833 335.7707 253.637 341.7096 256.9852 345.3527 256.5614 345.3527 255.3323 351.8405 260.2062 355.7332 257.2395 359.4263 259.3162 360.9235 256.6885 370.6552 257.1971 373.5996 258.2566 Z" />
        <path
            d="M 387.9227 321.0239 389.6694 315.8109 394.5602 311.4032 406.1884 312.929 406.4379 308.3094 403.194 306.1055 405.4398 301.9097 409.8315 301.7826 411.3287 298.5616 412.8259 299.0278 411.4784 303.4779 413.8739 300.7654 416.9681 302.8421 422.4578 300.8078 426.8495 306.6989 432.0897 309.4113 432.5887 303.4779 434.1358 302.2064 432.6886 299.7483 434.3355 298.7311 431.4409 298.8159 430.2931 295.9339 435.134 293.8996 432.0897 291.6534 432.1895 289.1952 434.4852 290.3395 435.2837 288.7714 437.0803 289.4495 437.4296 287.5 442.8195 288.6443 444.2668 287.7119 442.5201 286.4404 443.9174 285.8047 451.603 287.1609 452.651 284.0671 447.6105 283.5161 447.4608 281.0156 448.2593 280.8884 449.7066 281.058 452.5512 282.2446 451.8026 283.0499 453.4495 282.6261 454.6473 283.1347 454.8469 283.6856 454.6473 284.6604 453.6492 285.6352 454.248 286.5676 453.8488 288.3476 453.3996 288.5595 453.1002 291.7805 456.394 289.9157 458.8893 290.8057 459.6379 298.5192 471.4657 301.1469 471.3659 303.054 474.3103 304.156 477.5542 302.8845 477.654 302.8421 477.6041 303.054 475.1587 309.5384 478.4026 313.0137 476.3565 312.4204 475.9073 314.9633 475.8075 318.0571 478.2529 318.9895 477.3546 321.3205 481.4968 321.0239 482.6946 323.7363 483.3932 322.0834 484.3914 325.0925 483.2435 326.1097 484.8904 327.2116 485.3895 325.1349 489.1824 324.5415 485.8886 327.4659 487.0364 328.8221 489.7313 325.8554 490.7295 327.0844 489.2323 328.3559 492.4263 327.8897 494.4724 324.1601 498.4649 324.9654 497.7163 328.5678 500.5111 328.9492 504.3039 334.1198 511.1411 337.5103 511.9396 336.5355 512.1392 337.2136 512.8379 339.0361 512.2889 339.0361 507.7475 338.9089 504.6034 342.9352 500.5111 340.7313 497.0675 341.8756 494.9216 344.7576 493.5242 346.6224 493.4743 346.6648 493.4743 346.6224 492.6758 344.1642 488.7332 347.47 489.6814 348.1057 480.848 351.4115 482.0458 353.4034 480.2991 354.6749 480.0994 354.7597 479.8499 354.2087 479.5006 353.8273 479.7002 354.5901 479.8 354.9716 479.8499 355.0139 479.6503 355.1411 472.2642 359.2945 472.6634 360.2693 472.7133 360.4812 461.5842 365.0584 461.6341 363.6174 457.0927 361.6679 457.1426 363.6174 455.8949 362.685 454.0983 357.3026 443.2188 355.4378 442.9193 355.3954 442.7197 354.8868 441.3722 351.2844 441.522 351.2844 438.0784 342.3418 435.6829 342.2994 435.134 346.919 432.5887 346.9614 431.1415 344.1642 423.5557 338.8665 420.8109 339.5446 415.6705 335.9846 414.5227 337.7222 412.4765 337.5103 410.2308 334.6707 411.4784 329.2035 415.4709 331.4921 412.776 325.0925 404.5914 322.1682 400.0499 317.93 400 317.8876 398.4529 317.5909 395.5583 317.0824 395.4585 317.0824 394.2109 317.7605 387.9227 321.0239 Z" />
        <path
            d="M 625.6259 332.0007 626.9734 332.3821 623.6296 337.0441 622.8311 337.6798 623.0807 337.8494 625.2765 339.3327 625.2266 342.2571 627.5223 344.7152 635.0582 345.5628 632.8623 348.7415 635.8068 346.3257 637.5535 341.028 649.2814 337.0017 649.5809 339.4599 656.2683 342.1299 656.1186 344.0371 660.4604 343.9523 661.5583 346.7919 661.6083 346.8343 668.7947 345.9019 670.9906 348.7415 674.9831 349.2077 675.0829 348.2329 675.2826 348.2329 675.4323 348.4872 676.7298 350.7758 677.5283 352.0896 679.1253 351.9625 677.728 360.015 671.1403 358.2349 669.8428 356.4125 668.8447 357.4297 670.9407 363.4479 667.1977 366.4146 666.6488 367.5589 666.6987 368.1099 667.3475 373.9162 656.8173 370.6104 655.6195 369.3389 654.272 368.788 653.5734 368.9151 650.3295 372.009 643.2428 369.2542 638.1024 390.8688 633.9602 390.0212 629.4188 386.334 628.7201 390.7841 624.8274 390.4874 624.5779 392.1403 621.2341 394.3017 618.9884 395.7427 619.0383 395.6579 613.5486 394.8951 610.3047 390.5298 598.976 388.1564 597.3291 389.9364 592.8375 387.6054 570.4296 390.1907 566.8364 387.6478 562.7441 387.3088 560.8477 390.2755 558.3523 386.8426 556.6056 388.7921 549.0199 386.1221 548.2214 385.8254 547.4728 385.5711 542.2826 386.4611 541.3842 386.5883 541.2844 386.2068 539.1385 385.6135 539.7373 382.6044 542.033 382.1806 543.9295 377.8153 543.9794 377.8153 548.7205 375.7386 543.3805 374.9757 542.033 372.5599 542.4323 374.5519 540.3362 374.9333 540.2364 374.9333 537.8409 370.9071 533.3992 368.9575 533.3992 368.9151 533.2495 368.3218 532.7505 366.1603 532.8503 366.1603 535.5951 366.0332 547.1235 365.567 546.7242 364.3803 546.7741 364.3803 555.2083 360.905 554.3099 359.125 556.8053 355.904 556.1565 353.022 560.9974 352.3015 567.7846 346.7919 561.7959 339.0784 562.5944 334.1622 562.2949 333.8231 562.9437 332.0855 562.9936 331.7464 563.0934 331.7888 567.2356 332.4669 574.9212 328.4406 576.9674 329.2459 576.1189 326.5759 578.0154 326.0249 578.8139 327.5082 579.4128 326.1944 581.5587 326.6606 580.0116 327.8897 583.3054 328.1864 585.9006 331.0259 587.248 328.7797 591.2405 329.6697 593.3865 328.0592 593.7857 331.0259 597.6784 329.2883 601.4713 329.7545 605.8131 323.3972 606.7614 321.8715 606.4619 326.4487 603.3178 329.5426 603.9167 334.0774 603.9666 334.1198 607.2604 335.6879 614.6964 335.1369 617.0919 332.6788 619.9865 334.3741 620.0364 334.4165 620.1362 334.3741 623.5797 332.8907 625.6259 332.0007 Z" />
        <path
            d="M 489.8811 382.0111 481.8462 387.3088 480.5486 392.6065 476.4563 392.1827 469.3696 396.1665 471.0165 403.1595 467.9223 406.1262 464.4289 405.8295 464.1794 402.2271 453.6492 397.0565 452.6011 404.0071 449.4071 406.6348 449.457 409.2201 446.1133 408.2877 445.0653 405.7872 442.57 408.0758 440.2743 406.5924 440.3741 408.4996 438.4777 409.2201 431.7403 407.9062 431.5407 405.4481 427.3985 406.55 427.2987 406.4653 426.3505 405.5753 426.7996 405.4905 428.0473 401.6338 426.1009 400.2775 426.6499 393.5389 424.4041 392.3946 424.7535 391.7588 425.6019 390.3179 422.6075 389.8093 422.8071 386.5883 423.0567 385.6559 423.5557 383.8335 423.8552 382.6892 427.648 381.2482 427.2987 378.1967 429.4447 378.2815 427.5482 376.2048 431.0916 376.5438 432.6886 370.8647 429.0454 370.9071 428.746 374.0009 426.051 374.9333 425.6019 374.7638 424.5538 374.34 423.406 373.9162 423.3561 373.4076 423.2563 370.4409 414.7722 363.9565 414.7722 363.8293 414.7722 363.7869 414.922 363.6598 415.4709 358.8283 416.1696 357.8111 419.6131 357.2178 419.4135 353.573 433.6368 357.5145 437.0803 351.581 437.3298 351.4539 439.6754 351.3691 441.3722 351.2844 442.7197 354.8868 442.9193 355.3954 443.2188 355.4378 454.0983 357.3026 455.8949 362.685 457.1426 363.6174 457.0927 361.6679 461.6341 363.6174 461.5842 365.0584 472.7133 360.4812 472.6634 360.2693 472.8131 360.6083 486.9865 357.0906 489.7812 365.1855 492.9253 368.6185 489.382 371.5852 489.8811 382.0111 Z" />
        <path
            d="M 426.3505 405.5753 426.1009 405.321 421.3598 406.5924 422.1583 403.9648 417.8165 402.6509 416.0199 404.9395 413.4248 403.7105 405.34 406.6772 403.8927 407.1858 403.194 406.0838 402.8946 405.7024 401.9463 405.7872 400.6987 405.9143 399.7006 405.9991 397.8041 408.7539 394.9595 406.2534 395.209 404.0495 393.3126 403.7952 392.3144 405.1938 390.9171 405.7872 390.2683 405.3633 388.3719 404.0495 388.5715 402.439 393.5621 402.1847 393.5621 401.8457 392.8634 392.6488 394.3107 392.3098 394.1111 389.9364 390.5178 387.8173 388.9208 389.6821 381.4349 390.0636 379.3388 386.9697 371.8529 389.555 369.2578 387.3511 368.3595 386.1221 368.8086 385.2744 377.3426 386.1221 377.3426 385.783 377.8417 382.3077 380.4368 382.1382 382.982 378.9172 381.7343 378.3239 381.7842 375.0605 385.4773 375.6114 387.0244 374.0009 387.0244 373.9585 386.8248 373.1957 385.9265 369.7204 385.4274 369.5508 382.433 368.5761 382.5328 362.8545 388.5715 361.1593 388.6214 363.7446 394.5602 363.3631 394.0612 366.796 397.7542 365.6094 397.4548 370.9071 397.4548 371.0342 397.5546 370.9071 398.7523 369.0847 403.9426 370.4832 405.4897 367.4741 410.4803 367.4741 414.7722 363.8293 414.7722 363.9565 423.2563 370.4409 423.3561 373.4076 423.406 373.9162 424.5538 374.34 425.6019 374.7638 426.051 374.9333 428.746 374.0009 429.0454 370.9071 432.6886 370.8647 431.0916 376.5438 427.5482 376.2048 429.4447 378.2815 427.2987 378.1967 427.648 381.2482 423.8552 382.6892 423.5557 383.8335 423.0567 385.6559 422.8071 386.5883 422.6075 389.8093 425.6019 390.3179 424.7535 391.7588 424.4041 392.3946 426.6499 393.5389 426.1009 400.2775 428.0473 401.6338 426.7996 405.4905 426.3505 405.5753 Z" />
        <path
            d="M 184.2056 379.2562 185.9523 377.8577 192.8394 372.3057 193.6379 371.7971 210.7058 367.0079 217.6428 357.5568 218.042 357.2602 222.9328 355.3954 223.3321 355.6497 226.3764 359.2097 223.6315 359.6759 222.4837 360.7778 220.2878 362.8969 219.9884 363.1936 220.1381 363.2784 220.3876 363.4479 221.5854 364.2108 225.6278 362.9817 228.0732 364.4651 229.5704 361.8374 229.6203 361.8798 232.7144 363.8717 235.06 363.6598 235.9583 363.9565 236.4075 365.0584 236.2578 365.9484 234.1118 367.8132 233.5629 368.0675 230.1193 367.0927 225.6777 370.3985 226.2765 372.1785 234.1118 368.9999 239.9009 370.2713 244.6919 367.1775 247.337 368.8304 246.239 369.8899 245.2908 370.1018 243.3445 372.8142 244.7418 376.9676 242.0968 383.113 242.0469 383.1977 245.191 383.4096 246.1891 388.3683 248.4349 389.004 247.1872 395.1494 240.0008 393.4541 235.2098 394.4713 233.2135 397.3956 227.5242 396.2089 227.8735 394.0474 219.7388 389.0888 218.042 390.1907 214.5486 388.4107 210.4563 392.3098 206.5137 390.6145 203.1201 393.4117 205.1662 388.665 200.9741 388.2412 200.4251 386.334 196.3328 388.3259 191.2923 387.8173 185.603 390.5721 184.5051 389.6398 183.5069 388.7074 185.4533 386.5459 181.5606 384.554 182.3591 383.0282 184.2056 379.2562 Z" />
        <path
            d="M 302.5831 395.5732 298.5906 396.9294 298.391 396.9294 299.1396 394.5984 299.5887 393.3693 299.4889 393.4117 294.7977 394.1746 294.0991 396.7175 290.5058 396.5056 284.5171 406.2534 277.9295 404.8548 277.131 400.1928 275.8833 400.0233 274.0368 402.3542 268.7966 401.0404 269.2458 403.0747 267.549 404.6005 264.9538 404.2614 263.1073 407.101 259.7636 407.1858 258.7655 402.5662 255.6713 400.7861 258.5159 396.3361 255.7711 394.556 247.1872 395.1494 248.4349 389.004 246.1891 388.3683 245.191 383.4096 242.0469 383.1977 242.0968 383.113 244.7418 376.9676 243.3445 372.8142 245.2908 370.1018 246.239 369.8899 247.337 368.8304 248.3351 369.4237 248.934 369.8051 249.0837 369.2966 250.0818 364.677 252.7268 363.2784 253.1261 363.1088 253.0762 360.0574 257.3681 357.9383 256.9689 360.8202 259.9632 361.9645 261.9595 358.023 267.1996 358.5316 269.5452 354.0815 273.5377 359.8031 271.8409 362.685 279.5265 358.7435 282.4709 361.2864 285.0161 358.9131 288.1602 361.795 289.0086 360.6931 287.3617 358.7859 289.6075 357.2178 289.7572 355.904 290.4559 354.9716 295.9456 356.5397 296.8938 355.692 298.0417 355.8616 298.94 358.4892 297.0934 361.4136 304.0304 362.6003 304.0304 362.685 303.7809 363.8293 300.3872 363.8293 299.9381 363.8293 299.8882 363.8293 294.8976 367.2199 297.842 370.1018 294.9475 373.7466 296.1452 376.2472 294.7977 378.4934 297.4927 377.4338 299.6386 381.121 296.5944 382.0958 294.7478 389.5126 300.1876 388.0292 301.9842 389.2583 300.6867 390.6993 302.7328 395.1494 302.5831 395.5732 Z" />
        <path
            d="M 371.8529 389.555 374.997 395.2341 371.4038 394.1746 366.0638 400.4471 357.979 399.8537 356.6814 402.3966 360.4244 404.3038 359.5261 407.44 353.2379 404.5581 353.6871 402.5238 334.6728 409.6863 332.8263 411.2968 332.7265 411.3392 332.427 411.1696 332.4769 411.1696 329.8319 409.4744 331.5786 406.4229 327.2867 407.1434 326.3884 401.8033 321.1981 403.8376 320.3996 401.4219 311.7659 401.4219 311.666 399.6842 311.4664 399.769 311.4165 399.8113 310.069 400.5742 310.0191 404.0071 308.2724 403.9224 306.6255 396.2937 306.5257 396.2937 304.2799 396.3361 304.1801 398.3704 300.9362 399.8537 300.9362 399.3452 302.5831 395.5732 302.7328 395.1494 300.6867 390.6993 301.9842 389.2583 300.1876 388.0292 294.7478 389.5126 296.5944 382.0958 299.6386 381.121 297.4927 377.4338 294.7977 378.4934 296.1452 376.2472 294.9475 373.7466 297.842 370.1018 294.8976 367.2199 299.8882 363.8293 299.9381 363.8293 300.3872 363.8293 303.7809 363.8293 304.0304 362.685 304.0304 362.6003 297.0934 361.4136 298.94 358.4892 298.0417 355.8616 296.8938 355.692 298.0916 354.6749 299.3392 353.573 299.439 352.3015 299.8383 347.9786 300.0878 345.0966 299.3392 344.3761 298.8402 340.6466 298.8402 340.6042 308.1726 340.5194 310.5182 338.697 310.7178 341.6213 314.9099 340.477 317.8544 342.2147 318.5531 340.0532 323.5936 340.8161 325.3902 339.3327 327.8856 340.6889 330.0315 336.1965 333.7246 335.7727 334.1737 335.6879 334.573 331.5345 336.5193 331.0259 341.5099 334.7979 343.5561 333.8655 346.4507 335.2641 348.4469 333.7384 349.8942 336.8746 359.5261 337.1713 359.4762 338.8242 362.3707 337.5527 362.0214 341.8756 363.9677 343.9523 364.1174 344.1219 365.3152 343.2742 366.2135 342.8504 370.4056 344.5033 372.1523 347.1733 371.4038 349.1653 372.7512 348.5719 373.7493 351.1148 373.6994 351.4539 370.9047 352.0472 370.8049 353.7849 373.2503 353.4882 373.9989 355.0139 374.0987 355.2259 374.5977 355.0987 375.3962 354.8868 375.5959 354.802 375.2465 351.7506 380.0874 350.0553 382.2334 346.8343 384.03 348.7415 385.3775 347.2581 388.9208 353.7001 388.9707 353.7425 389.0206 353.7849 399.0019 355.692 399.8004 358.9131 408.8833 358.0654 408.6338 360.3964 412.5265 360.3964 413.0255 360.3964 412.9257 358.4045 415.5208 358.4045 415.4709 358.8283 414.922 363.6598 414.7722 363.7869 414.7722 363.8293 410.4803 367.4741 405.4897 367.4741 403.9426 370.4832 398.7523 369.0847 397.5546 370.9071 397.4548 371.0342 397.4548 370.9071 397.7542 365.6094 394.0612 366.796 394.5602 363.3631 388.6214 363.7446 388.5715 361.1593 382.5328 362.8545 382.433 368.5761 385.4274 369.5508 385.9265 369.7204 386.8248 373.1957 387.0244 373.9585 387.0244 374.0009 385.4773 375.6114 381.7842 375.0605 381.7343 378.3239 382.982 378.9172 380.4368 382.1382 377.8417 382.3077 377.3426 385.783 377.3426 386.1221 368.8086 385.2744 368.3595 386.1221 369.2578 387.3511 371.8529 389.555 Z" />
        <path
            d="M 354.7351 318.82 354.9347 318.8624 355.6833 323.6515 357.6296 323.9482 357.4799 327.5506 368.1598 327.2963 369.0582 327.2963 368.6589 327.5082 365.6645 329.1188 374.5478 331.0259 375.1467 330.8564 373.949 325.0925 378.7899 325.6858 379.0893 328.7373 386.176 320.9391 387.773 321.4477 387.9227 321.0239 394.2109 317.7605 395.4585 317.0824 395.5583 317.0824 398.4529 317.5909 400 317.8876 400.0499 317.93 404.5914 322.1682 412.776 325.0925 415.4709 331.4921 411.4784 329.2035 410.2308 334.6707 412.4765 337.5103 414.5227 337.7222 415.6705 335.9846 420.8109 339.5446 423.5557 338.8665 431.1415 344.1642 432.5887 346.9614 435.134 346.919 435.6829 342.2994 438.0784 342.3418 441.522 351.2844 441.3722 351.2844 439.6754 351.3691 437.3298 351.4539 437.0803 351.581 433.6368 357.5145 419.4135 353.573 419.6131 357.2178 416.1696 357.8111 415.4709 358.8283 415.5208 358.4045 412.9257 358.4045 413.0255 360.3964 412.5265 360.3964 408.6338 360.3964 408.8833 358.0654 399.8004 358.9131 399.0019 355.692 389.0206 353.7849 388.9707 353.7425 388.9208 353.7001 385.3775 347.2581 384.03 348.7415 382.2334 346.8343 380.0874 350.0553 375.2465 351.7506 375.5959 354.802 375.3962 354.8868 374.5977 355.0987 374.0987 355.2259 373.9989 355.0139 373.2503 353.4882 370.8049 353.7849 370.9047 352.0472 373.6994 351.4539 373.7493 351.1148 372.7512 348.5719 371.4038 349.1653 372.1523 347.1733 370.4056 344.5033 366.2135 342.8504 365.3152 343.2742 364.1174 344.1219 363.9677 343.9523 362.0214 341.8756 362.3707 337.5527 359.4762 338.8242 359.5261 337.1713 349.8942 336.8746 348.4469 333.7384 346.4507 335.2641 343.5561 333.8655 341.5099 334.7979 336.5193 331.0259 334.573 331.5345 334.1737 335.6879 333.7246 335.7727 330.0315 336.1965 327.8856 340.6889 325.3902 339.3327 323.5936 340.8161 318.5531 340.0532 317.8544 342.2147 314.9099 340.477 310.7178 341.6213 310.5182 338.697 308.1726 340.5194 298.8402 340.6042 298.8402 340.6466 299.3392 344.3761 300.0878 345.0966 299.8383 347.9786 299.439 352.3015 299.3392 353.573 298.0916 354.6749 296.8938 355.692 295.9456 356.5397 290.4559 354.9716 289.7572 355.904 289.6075 357.2178 287.3617 358.7859 289.0086 360.6931 288.1602 361.795 285.0161 358.9131 282.4709 361.2864 279.5265 358.7435 271.8409 362.685 273.5377 359.8031 269.5452 354.0815 267.1996 358.5316 261.9595 358.023 259.9632 361.9645 256.9689 360.8202 257.3681 357.9383 253.0762 360.0574 253.1261 363.1088 252.7268 363.2784 250.0818 364.677 249.0837 369.2966 248.934 369.8051 248.3351 369.4237 247.337 368.8304 244.6919 367.1775 239.9009 370.2713 234.1118 368.9999 226.2765 372.1785 225.6777 370.3985 230.1193 367.0927 233.5629 368.0675 234.1118 367.8132 236.2578 365.9484 236.4075 365.0584 235.9583 363.9565 235.06 363.6598 232.7144 363.8717 229.6203 361.8798 229.5704 361.8374 228.0732 364.4651 225.6278 362.9817 221.5854 364.2108 220.3876 363.4479 220.1381 363.2784 219.9884 363.1936 220.2878 362.8969 222.4837 360.7778 223.6315 359.6759 226.3764 359.2097 223.3321 355.6497 222.4338 354.5901 226.4263 351.5386 234.7606 333.2722 230.8679 324.7111 230.9677 324.4992 233.6627 318.481 241.2983 311.9118 241.0987 307.4617 243.1448 305.2579 241.5977 305.385 241.997 302.7997 244.8916 299.6635 242.1467 297.502 241.8473 297.2478 245.6901 296.2306 245.9895 293.0096 246.0394 292.6282 248.4848 290.0429 250.5809 291.0176 254.6732 289.6191 254.6233 291.3991 260.2128 292.5434 269.4953 288.0509 269.645 288.2628 272.7891 292.6705 277.3805 294.1539 281.2732 291.6958 285.9644 294.2387 284.2176 295.7644 287.4615 296.4849 286.2638 298.5616 287.3617 300.2568 293.9992 301.6978 293.1009 305.385 300.4371 306.1055 307.0248 308.7756 310.0191 310.0046 320.1002 323.0158 322.0964 323.3972 332.427 324.7534 339.0645 325.6011 339.9129 322.8463 345.7021 321.8291 349.4949 317.9724 349.5448 317.93 354.7351 318.82 Z" />
        <path
            d="M 232.5647 211.213 232.3152 210.3654 233.6128 210.9163 236.4075 212.103 248.0856 209.3906 253.8248 210.4501 253.9745 210.7468 258.0668 218.5874 256.7193 224.9023 256.8191 225.0294 261.0113 231.1324 262.9576 231.0476 260.7118 232.0224 261.9595 232.1919 262.3587 235.6672 259.3644 238.2101 260.063 240.8802 264.7542 245.415 268.3475 243.084 269.0462 243.1688 279.3767 246.1355 281.2732 248.8479 282.1216 250.077 282.7205 255.6713 288.6094 261.6472 288.6094 266.0125 296.5944 270.7168 301.0859 297.6716 302.7328 301.0197 308.7715 305.385 307.0248 308.7756 300.4371 306.1055 293.1009 305.385 293.9992 301.6978 287.3617 300.2568 286.2638 298.5616 287.4615 296.4849 284.2176 295.7644 285.9644 294.2387 281.2732 291.6958 277.3805 294.1539 272.7891 292.6705 269.645 288.2628 269.4953 288.0509 260.2128 292.5434 254.6233 291.3991 254.6732 289.6191 250.5809 291.0176 248.4848 290.0429 246.0394 292.6282 245.9895 293.0096 245.4405 292.9672 244.4923 293.8996 239.5516 292.7129 241.5977 294.1539 239.4019 294.9591 229.77 290.9329 211.3546 291.611 209.7077 290.3819 210.7058 289.4071 206.0146 288.1357 206.0645 287.7543 206.1144 287.7543 211.654 288.4324 210.8056 285.9742 206.5636 282.9651 208.2604 280.7189 209.8574 281.5242 210.057 278.176 198.2293 270.3354 197.83 272.285 194.9854 271.7764 193.7876 267.2415 197.0814 267.4111 195.5343 264.6563 191.8413 265.4191 188.3977 262.7067 185.6529 263.7662 183.4071 262.5796 183.5568 253.4675 179.4645 251.1365 182.1096 246.0507 178.3167 245.5421 178.0173 242.7026 174.8732 242.4059 175.5719 239.5239 200.6248 239.863 204.0184 232.8276 207.4619 233.4634 207.961 230.2 209.6578 232.2767 217.1437 233.6329 218.042 231.6833 222.7831 231.8529 224.9291 224.1818 230.1692 222.6137 231.866 216.8921 234.3614 217.0193 233.6627 214.7307 233.3632 213.7559 232.9141 212.2725 232.5647 211.213 Z" />
        <path
            d="M 135.1478 184.5973 138.0923 184.9788 144.1809 188.2845 144.0311 190.9546 152.7148 195.0656 153.8128 195.447 154.4116 195.108 155.0105 193.9213 156.9568 193.8365 161.3985 191.5903 161.4484 191.6327 161.4484 191.5903 163.9936 192.9889 164.0934 195.6589 167.2874 196.4642 168.0859 185.7416 178.5662 184.8092 183.2574 185.8264 182.409 188.9626 187.1501 191.0393 193.0889 190.446 197.9298 192.6498 196.2829 196.4218 198.4788 197.0999 199.1775 194.5146 202.2218 192.7346 207.2623 196.1251 214.7482 196.888 214.4488 201.2533 220.0882 201.9314 218.8904 206.212 224.2304 206.0848 227.3745 208.543 230.4687 208.4158 231.9159 211.3401 232.5647 211.213 232.9141 212.2725 233.3632 213.7559 233.6627 214.7307 234.3614 217.0193 231.866 216.8921 230.1692 222.6137 224.9291 224.1818 222.7831 231.8529 218.042 231.6833 217.1437 233.6329 209.6578 232.2767 207.961 230.2 207.4619 233.4634 204.0184 232.8276 200.6248 239.863 175.5719 239.5239 174.8732 242.4059 178.0173 242.7026 178.3167 245.5421 182.1096 246.0507 179.4645 251.1365 183.5568 253.4675 183.4071 262.5796 185.6529 263.7662 178.4664 262.2405 175.9711 255.9256 166.6886 251.4332 157.5058 253.5946 143.1328 244.8216 141.3861 246.7712 138.1422 245.3726 137.194 246.7712 137.5932 240.8802 126.6139 229.9457 118.9283 228.759 118.03 224.4785 117.9801 224.0123 117.9302 223.9699 114.337 221.9779 115.3351 219.096 111.3925 216.1716 111.3925 215.7055 111.642 214.3916 114.5366 213.0778 114.5366 212.9083 114.7861 211.0435 114.9358 210.0263 114.9358 209.9839 113.239 208.6701 111.9415 207.6106 111.9914 207.5258 113.5884 206.7205 123.8191 209.772 124.5677 207.3563 128.7598 206.3391 129.4585 203.3724 134.1497 203.4995 136.5951 206.1696 135.8465 203.6267 138.2919 202.3552 137.9426 197.9475 139.7891 194.6418 137.6432 191.3784 138.2919 185.4026 135.1478 184.5973 Z" />
        <path
            d="M 316.3073 188.2845 316.3572 188.2421 316.6068 188.115 318.1538 189.6831 322.5456 188.7507 322.5955 188.7083 323.1944 190.6579 323.7433 192.3532 323.8432 189.7679 323.943 189.7679 325.9891 189.4288 326.6379 190.9546 328.2349 189.3017 330.4308 190.785 330.0315 191.336 330.3809 194.5994 333.2255 195.6165 331.5287 192.8194 333.8244 195.108 335.8206 193.7941 336.669 196.2523 334.1737 195.8708 333.4251 198.668 333.2255 199.6004 333.3752 199.7699 335.4214 197.8628 335.4214 198.0747 335.7707 199.4309 336.1201 201.1262 336.17 201.2957 338.5156 198.2018 338.6653 198.0323 337.8668 200.1938 337.5674 201.1685 339.364 200.1938 340.8113 199.4309 340.8612 199.3885 340.7114 200.0242 340.5118 201.3805 344.155 196.5489 344.9036 191.5479 344.9036 191.5055 350.543 186.7588 351.042 183.7921 357.5797 185.5721 362.9696 181.8849 363.1193 181.8001 362.4206 186.8012 368.2098 188.7931 368.2098 191.3784 371.7032 191.4631 371.4537 193.9637 374.2484 193.116 377.8916 194.6842 379.8379 193.7094 380.2871 193.4975 382.7325 195.8708 383.1317 196.2523 384.9283 197.9475 385.0281 200.2785 385.078 200.7871 385.128 201.2533 382.1336 203.33 381.7343 203.7114 382.5328 204.0505 385.0281 205.11 385.128 205.1524 381.8341 208.5853 386.4255 212.5692 385.7767 218.5026 392.7137 221.9779 390.9171 224.097 386.8747 224.648 387.8728 227.5723 384.8784 227.6571 384.8285 227.9961 384.2296 230.6662 383.8304 232.4462 382.7824 237.3625 381.0856 237.1506 379.5884 240.3716 376.9433 240.2868 374.0987 244.3131 371.9028 244.4402 372.2023 245.7964 372.7512 248.1698 372.851 248.5936 372.4019 249.3565 371.6533 252.0689 373.3501 254.3575 373.5996 258.2566 370.6552 257.1971 360.9235 256.6885 359.4263 259.3162 355.7332 257.2395 351.8405 260.2062 345.3527 255.3323 345.3527 256.5614 341.7096 256.9852 335.7707 253.637 332.3272 255.8833 323.6934 252.0689 317.3054 253.3404 315.6585 252.0265 317.2555 245.1183 313.7122 242.6602 309.8195 242.9145 307.7235 245.2878 298.2413 243.0416 294.149 245.3726 287.0124 245.0336 287.3118 247.6612 287.1621 247.746 287.0124 247.7884 282.8702 249.4836 282.0717 248.7208 281.2732 248.8479 279.3767 246.1355 269.0462 243.1688 268.3475 243.084 264.7542 245.415 260.063 240.8802 259.3644 238.2101 262.3587 235.6672 261.9595 232.1919 260.7118 232.0224 262.9576 231.0476 261.0113 231.1324 256.8191 225.0294 256.7193 224.9023 258.0668 218.5874 253.9745 210.7468 253.8248 210.4501 255.2221 206.2543 251.7287 207.2715 248.5846 203.1605 249.1835 203.6691 254.5235 192.5651 267 193.0313 270.2938 191.5055 273.7373 193.7094 277.4304 189.9798 280.824 191.2089 291.0548 194.8113 293.0011 193.0313 295.5962 194.006 299.0398 190.1917 300.2375 192.3108 299.1396 193.4127 300.7366 194.7689 301.0859 192.0141 301.2856 194.5994 302.6829 193.5398 302.5831 195.9556 300.2874 196.5066 300.3373 196.5489 302.2837 197.8204 303.3317 196.2947 302.3835 199.0918 302.8326 198.7104 307.2743 195.3623 308.0728 196.8032 312.0154 196.9304 311.3167 192.4803 314.1114 191.1241 305.7771 188.7083 305.7272 188.454 306.1764 186.1654 308.7715 185.6569 310.9174 188.7083 315.2094 188.9202 315.3092 188.8779 315.3591 189.6407 316.3073 188.2845 Z" />
        <path
            d="M 562.2949 333.8231 562.245 334.035 560.4484 331.9583 560.5482 331.9159 560.3985 331.7464 561.1471 330.5173 560.648 330.0511 560.4983 329.8392 560.2987 329.6697 563.5925 327.9744 562.9437 324.7111 565.8383 320.3034 565.0897 316.5314 566.7865 312.4628 564.8901 311.6151 564.8402 306.1055 562.1951 306.1055 559.3006 302.9269 558.3024 303.2659 559.7497 302.4183 558.7017 299.833 565.8882 296.0611 568.134 296.9935 567.6349 293.6453 570.1801 289.3224 565.6386 287.4152 565.5887 286.059 567.6848 285.6776 566.3373 284.0671 568.7827 278.8117 567.6349 274.8279 570.5794 274.3193 567.9842 272.1154 565.6386 265.5039 560.0492 265.2496 557.7036 267.1992 551.1159 267.962 544.678 266.3515 543.8795 260.2909 541.6338 260.079 540.5358 257.5361 541.4341 255.5442 541.3343 255.5018 534.4473 257.4514 529.8559 253.6794 529.806 253.5946 532.3512 249.8227 529.2071 248.5088 530.3051 244.9912 530.5047 244.3978 533.8484 241.8973 533.8983 241.8549 541.5839 241.3887 543.7298 234.862 545.9756 233.6329 548.4709 229.2676 550.8664 226.3856 556.8053 230.4966 563.2931 227.6147 563.9418 227.6147 566.1876 229.4795 566.6867 229.5219 583.006 231.641 590.6417 234.862 592.5381 233.5481 597.3291 236.091 601.122 236.3877 607.6597 236.8539 605.7133 235.3282 610.1051 238.083 610.8537 238.5492 610.2548 240.2868 606.1625 239.6511 604.5655 246.0507 600.9223 245.0336 600.8724 248.085 603.8169 249.8227 603.5174 250.5008 603.4675 250.5008 600.8225 250.6703 600.7726 250.7127 599.6248 253.2556 595.0334 251.7722 593.137 253.6794 589.0946 253.5523 591.8394 261.3081 593.9854 260.6724 595.7321 262.3677 594.4345 265.2496 597.4788 269.2335 596.0315 273.5564 593.7358 273.5564 592.039 285.5504 592.039 285.7623 598.427 293.7301 594.8837 300.1297 597.7782 304.6222 597.2293 309.0722 600.024 312.0389 599.1257 320.6424 606.7614 321.7443 606.7614 321.8715 605.8131 323.3972 601.4713 329.7545 597.6784 329.2883 593.7857 331.0259 593.3865 328.0592 591.2405 329.6697 587.248 328.7797 585.9006 331.0259 583.3054 328.1864 580.0116 327.8897 581.5587 326.6606 579.4128 326.1944 578.8139 327.5082 578.0154 326.0249 576.1189 326.5759 576.9674 329.2459 574.9212 328.4406 567.2356 332.4669 563.0934 331.7888 562.9936 331.7464 562.9437 332.0855 562.2949 333.8231 Z" />
        <path
            d="M 603.5174 250.5008 603.8169 249.8227 600.8724 248.085 600.9223 245.0336 604.5655 246.0507 606.1625 239.6511 610.2548 240.2868 610.8537 238.5492 610.1051 238.083 605.7133 235.3282 609.8056 232.6157 609.8056 230.3271 602.17 228.4623 602.3197 228.3776 605.9629 226.1737 605.4139 223.8003 608.1088 223.5461 607.2604 219.8165 609.5561 216.214 604.6653 215.7055 606.7114 212.3149 603.5674 209.9839 604.4657 208.5006 602.1201 206.3391 603.1182 197.6932 599.5749 197.1423 597.8281 194.0908 599.2754 191.1665 602.9186 190.9546 601.3715 186.8859 603.1182 186.0807 603.2679 183.8768 600.2236 179.2996 603.5674 180.0201 600.3235 175.231 602.3696 174.6376 602.17 170.7385 598.2773 168.0261 600.5231 167.2632 598.5268 163.4913 600.3235 162.6012 601.1719 156.3288 597.5287 155.1421 596.7302 154.8878 597.5287 150.6496 602.0702 150.8191 605.3141 172.5609 616.7426 179.9777 620.8848 179.7234 620.2859 178.4096 624.5779 178.4944 625.7257 179.9777 627.3726 178.4096 631.8143 179.0029 633.2116 179.7658 633.2615 184.9364 640.6976 185.233 645.239 189.0898 647.9839 186.9283 647.7343 182.5206 649.7306 179.4268 665.0518 174.2562 678.4266 177.8163 685.0143 183.6649 695.0953 181.7577 696.2432 183.9616 692.7996 184.0464 693.3985 186.3773 690.8533 189.5136 688.6574 189.3864 691.4023 193.9213 697.3411 196.9728 697.3411 197.0151 696.3929 201.3381 698.7385 202.1433 698.2893 202.6519 697.1914 203.881 699.0379 205.3219 698.7884 206.4239 700.8844 209.6449 702.6311 211.4249 703.0803 213.0778 703.3298 213.9254 703.4795 214.434 700.8345 216.2564 703.8289 218.9265 700.7347 219.5622 702.0822 221.5541 700.4852 228.3776 700.4852 228.4199 699.7865 228.759 700.2856 229.2676 699.6368 231.98 699.0878 232.7853 697.94 232.7853 696.6923 231.8952 693.7977 232.7429 693.0492 232.9548 692.5501 233.1243 693.9475 234.311 690.8034 237.1082 690.5538 237.2777 692.6 239.4392 692.3006 242.1516 673.8353 249.0174 671.9887 246.5169 668.645 248.4241 666.0499 246.5593 657.2165 246.1355 657.0169 246.2202 655.3201 246.8136 654.7711 250.7975 652.7749 250.6279 653.5734 251.8994 646.7861 247.6612 640.1985 248.085 637.0544 251.5179 635.9066 247.746 635.5572 247.5765 634.8585 247.3222 634.2597 247.1103 628.4705 250.8822 628.0214 253.637 624.8274 251.7722 624.1287 251.3908 617.1418 253.9337 612.7501 251.9841 611.1531 252.9165 608.1587 250.4584 607.9591 250.2889 603.5174 250.5008 Z" />
        <path
            d="M 533.8484 241.8973 528.8578 242.194 520.224 240.4987 515.5827 246.2202 510.4424 241.3464 513.337 235.7096 508.1966 237.1082 505.6514 236.3029 505.2522 233.76 505.2023 233.6753 505.1024 233.5905 500.6109 233.3362 500.4612 233.2938 500.5111 233.1667 500.561 232.9124 503.3557 229.2252 504.9527 228.3776 505.9508 225.7075 509.6938 224.6904 512.9377 226.0466 516.9801 221.1303 516.7805 221.0032 512.5385 218.206 512.0893 219.7317 506.5497 221.3422 503.755 217.4855 502.7069 219.5622 500.4113 219.7741 499.9122 218.4179 500.1617 219.6893 498.1655 219.4774 497.8161 217.655 495.3208 217.6126 496.6184 214.8154 495.3707 212.3997 499.5129 213.7559 501.9583 208.9668 503.6552 210.662 503.9047 210.9163 504.803 210.7892 510.0931 210.1958 512.9876 209.8568 513.0874 209.4753 514.0356 203.9657 514.0856 203.9234 511.4904 203.8386 511.6901 201.2109 514.385 200.3209 516.2814 196.2523 520.4735 195.9132 526.5122 189.895 531.8023 191.4631 535.4953 186.1231 543.2308 185.8688 543.3306 185.6145 544.1291 184.2159 543.9295 183.8768 545.6762 178.5791 546.5246 177.0534 546.3749 176.5872 546.3749 176.5448 550.1178 176.121 553.2619 171.2895 566.1377 174.0019 568.4334 171.5014 573.7235 170.8233 573.6236 166.6275 579.4128 166.3308 580.0615 162.2198 593.2368 159.6769 597.5287 155.1421 601.1719 156.3288 600.3235 162.6012 598.5268 163.4913 600.5231 167.2632 598.2773 168.0261 602.17 170.7385 602.3696 174.6376 600.3235 175.231 603.5674 180.0201 600.2236 179.2996 603.2679 183.8768 603.1182 186.0807 601.3715 186.8859 602.9186 190.9546 599.2754 191.1665 597.8281 194.0908 599.5749 197.1423 603.1182 197.6932 602.1201 206.3391 604.4657 208.5006 603.5674 209.9839 606.7114 212.3149 604.6653 215.7055 609.5561 216.214 607.2604 219.8165 608.1088 223.5461 605.4139 223.8003 605.9629 226.1737 602.3197 228.3776 602.17 228.4623 609.8056 230.3271 609.8056 232.6157 605.7133 235.3282 607.6597 236.8539 601.122 236.3877 597.3291 236.091 592.5381 233.5481 590.6417 234.862 583.006 231.641 566.6867 229.5219 566.1876 229.4795 563.9418 227.6147 563.2931 227.6147 556.8053 230.4966 550.8664 226.3856 548.4709 229.2676 545.9756 233.6329 543.7298 234.862 541.5839 241.3887 533.8983 241.8549 533.8484 241.8973 Z" />
        <path
            d="M 393.063 174.9343 393.9114 173.4509 391.2664 172.1795 390.6675 169.9333 391.2165 169.7637 392.015 169.5518 392.7636 169.2975 397.3051 171.9252 400.2994 169.7214 399.0019 167.6023 395.0593 168.5347 395.0094 168.5347 394.3606 168.0685 391.9651 166.2884 391.8653 166.2037 394.6101 162.0927 396.806 162.3046 396.4567 165.2289 398.1036 165.2713 402.4953 158.024 399.3013 155.9049 401.0979 148.6153 401.1977 148.2339 406.5377 147.3015 407.6856 150.3106 406.2882 153.4044 407.8353 153.6163 418.9644 146.0724 422.0086 146.5386 423.955 140.4356 434.9842 138.0623 452.5512 143.9533 452.2518 147.6405 461.0852 146.2843 461.8837 149.6325 465.427 150.4801 468.0221 150.1834 470.8668 145.9029 483.7925 145.5214 485.4394 145.9029 485.0901 147.6829 494.0732 149.6325 493.8236 150.9887 503.5553 153.8282 510.143 157.8545 517.3295 158.5326 521.8709 165.2289 528.8079 166.6275 531.7024 170.3571 541.4341 172.4762 542.6319 174.68 545.8758 175.1038 546.3749 176.5872 546.5246 177.0534 545.6762 178.5791 543.9295 183.8768 544.1291 184.2159 543.3306 185.6145 543.2308 185.8688 535.4953 186.1231 531.8023 191.4631 526.5122 189.895 520.4735 195.9132 516.2814 196.2523 514.385 200.3209 511.6901 201.2109 511.4904 203.8386 514.0856 203.9234 514.0356 203.9657 513.0874 209.4753 512.9876 209.8568 510.0931 210.1958 504.803 210.7892 503.9047 210.9163 503.6552 210.662 501.9583 208.9668 499.5129 213.7559 495.3707 212.3997 496.6184 214.8154 495.3208 217.6126 497.8161 217.655 498.1655 219.4774 500.1617 219.6893 499.9122 218.4179 500.4113 219.7741 502.7069 219.5622 503.755 217.4855 506.5497 221.3422 512.0893 219.7317 512.5385 218.206 516.7805 221.0032 516.9801 221.1303 512.9377 226.0466 509.6938 224.6904 505.9508 225.7075 504.9527 228.3776 503.3557 229.2252 500.561 232.9124 500.5111 233.1667 500.4612 233.2938 499.5129 236.2182 495.8698 239.1849 494.0233 239.312 492.7257 239.3968 492.6259 239.3968 487.9347 232.4462 483.4432 230.1152 482.2953 225.0718 484.042 221.2574 483.3932 220.1131 483.2435 219.9012 480.9977 218.8417 477.2548 217.104 475.3084 216.214 473.6116 215.4088 469.7189 213.544 470.7171 209.3482 469.9685 208.9668 462.9317 209.433 461.6341 209.5177 461.5343 209.5177 461.4345 209.4753 454.4477 207.102 450.2056 209.8144 448.0597 214.0102 442.4702 210.6197 441.1227 211.6368 439.4758 212.8659 438.0285 213.9678 437.6293 214.2645 435.8826 213.7983 435.0341 213.5864 434.7846 213.5016 435.0841 212.8659 437.3797 207.4834 437.5295 207.1444 432.7385 205.2796 432.7884 203.2452 430.6923 202.5671 430.2931 198.8799 432.5388 196.337 429.0953 193.2856 427.0991 193.0313 424.3542 195.8285 417.567 195.2775 417.567 199.3038 412.8259 200.5752 411.6281 200.8719 404.8409 200.0242 404.2919 199.6428 403.2938 199.0918 400.9981 197.6932 401.2477 196.2947 402.0462 192.0141 403.9925 192.3532 404.2919 191.0817 404.3418 190.4036 401.7966 189.5984 401.9463 189.4288 403.8927 187.3097 403.8428 187.3097 401.4972 185.0635 404.7411 183.6649 404.6912 183.6225 402.5452 182.9021 402.146 182.7749 401.8964 182.7325 401.6968 179.2996 391.9651 180.7406 393.4623 174.8919 393.063 174.9343 Z" />
        <path
            d="M 723.3422 262.2405 720.0983 264.6563 722.3441 267.1992 721.7452 269.5301 718.4015 269.7844 721.7452 271.8611 723.8413 278.9813 723.7914 278.9813 720.3478 280.2103 719.9985 283.2194 719.749 283.2194 716.7047 282.838 716.8544 285.2537 716.9043 285.8895 714.7583 283.9399 711.2649 284.7452 709.1689 282.3294 704.5775 282.4142 702.3317 284.4061 703.4795 284.9571 700.5351 285.3809 700.3854 292.6282 698.5887 292.2043 697.6405 294.6625 694.8458 295.6796 692.9992 293.7725 689.5058 295.722 680.0236 294.5777 679.2251 295.8915 683.3174 297.7563 682.2694 299.4092 677.179 297.5868 677.2788 295.0015 674.9831 297.1206 671.7392 295.8915 671.5895 298.1801 668.4454 297.2054 667.8964 295.5101 657.2165 296.8663 649.2315 294.5353 644.8398 295.722 635.158 291.3991 633.5111 290.6786 631.2653 291.1024 629.818 292.5434 629.3189 293.5182 632.7625 300.4688 635.3077 301.3164 635.0582 301.3588 632.0638 302.2488 630.5666 304.7493 633.7107 314.9633 626.5242 318.9895 626.0251 323.6091 624.0788 323.9482 624.2784 327.6778 627.3227 328.2711 627.8717 330.9835 627.8717 331.0259 625.6259 332.0007 623.5797 332.8907 620.1362 334.3741 620.0364 334.4165 619.9865 334.3741 617.0919 332.6788 614.6964 335.1369 607.2604 335.6879 603.9666 334.1198 603.9167 334.0774 603.3178 329.5426 606.4619 326.4487 606.7614 321.8715 606.7614 321.7443 599.1257 320.6424 600.024 312.0389 597.2293 309.0722 597.7782 304.6222 594.8837 300.1297 598.427 293.7301 592.039 285.7623 592.039 285.5504 593.7358 273.5564 596.0315 273.5564 597.4788 269.2335 594.4345 265.2496 595.7321 262.3677 593.9854 260.6724 591.8394 261.3081 589.0946 253.5523 593.137 253.6794 595.0334 251.7722 599.6248 253.2556 600.7726 250.7127 600.8225 250.6703 603.4675 250.5008 603.5174 250.5008 607.9591 250.2889 608.1587 250.4584 611.1531 252.9165 612.7501 251.9841 617.1418 253.9337 624.1287 251.3908 624.8274 251.7722 628.0214 253.637 628.4705 250.8822 634.2597 247.1103 634.8585 247.3222 635.5572 247.5765 635.9066 247.746 637.0544 251.5179 640.1985 248.085 646.7861 247.6612 653.5734 251.8994 652.7749 250.6279 654.7711 250.7975 655.3201 246.8136 657.0169 246.2202 657.2165 246.1355 666.0499 246.5593 668.645 248.4241 671.9887 246.5169 673.8353 249.0174 692.3006 242.1516 692.6 239.4392 690.5538 237.2777 690.8034 237.1082 693.9475 234.311 692.5501 233.1243 693.0492 232.9548 693.7977 232.7429 696.6923 231.8952 697.94 232.7853 699.0878 232.7853 699.6368 231.98 700.2856 229.2676 699.7865 228.759 700.4852 228.4199 705.2762 226.089 705.5756 225.9618 710.6161 229.2676 711.3647 227.7418 715.2574 227.9114 715.5568 230.4119 719.3497 228.6319 728.8319 229.8185 729.8799 227.869 730.6285 229.4795 730.4289 230.0304 729.1313 233.0395 730.4788 233.5057 726.636 238.2101 726.9355 238.5492 727.7839 239.6087 727.5343 240.0325 727.2349 240.6259 725.1887 245.1607 725.5381 245.3726 726.4364 246.0083 724.8893 246.856 721.1962 248.8479 721.9947 250.8398 723.0927 253.4675 723.1925 253.6794 723.1925 253.7642 722.4439 255.1204 721.8949 256.0952 720.5475 258.6381 720.4976 258.8076 723.0428 259.0619 723.6916 261.9862 723.3422 262.2405 Z" />
        <path
            d="M 722.4439 255.1204 723.1925 253.7642 723.1925 253.6794 723.0927 253.4675 721.9947 250.8398 721.1962 248.8479 724.8893 246.856 726.4364 246.0083 726.3366 247.7884 725.3884 251.8146 724.4901 253.4251 724.8394 254.3151 724.54 255.5442 723.8413 255.7137 722.4439 255.1204 Z M 725.5381 245.3726 725.1887 245.1607 727.2349 240.6259 727.5343 240.0325 727.5343 241.643 727.2848 243.8045 727.1351 245.1183 725.5381 245.3726 Z M 700.4852 228.4199 700.4852 228.3776 702.0822 221.5541 700.7347 219.5622 703.8289 218.9265 700.8345 216.2564 703.4795 214.434 703.3298 213.9254 703.0803 213.0778 702.6311 211.4249 700.8844 209.6449 698.7884 206.4239 699.0379 205.3219 697.1914 203.881 698.2893 202.6519 698.7385 202.1433 696.3929 201.3381 697.3411 197.0151 697.3411 196.9728 691.4023 193.9213 688.6574 189.3864 690.8533 189.5136 693.3985 186.3773 692.7996 184.0464 696.2432 183.9616 694.8458 179.7658 699.3373 178.1977 699.2375 175.0191 704.9767 176.3329 708.3205 179.4691 709.1689 177.901 713.1614 179.0877 716.8544 169.8909 726.636 174.8072 728.9816 172.2643 728.3328 170.4842 733.1238 166.797 736.5174 171.3742 734.7208 172.8152 738.8131 173.1967 737.4158 175.57 739.1625 177.7315 749.6927 181.8849 750.2916 186.1654 754.0844 186.5045 755.7313 185.8264 756.4799 181.8425 761.9696 178.2825 766.8604 171.7133 765.5629 169.679 767.9583 168.789 768.7069 165.0594 766.8105 162.6012 768.2578 159.2955 766.7107 157.0492 768.5572 156.9645 774.3962 161.1179 777.6901 158.9564 777.9895 156.1168 779.6863 157.4731 781.3332 155.1421 785.9745 156.1168 785.7749 152.9382 786.9726 153.023 788.0206 153.2349 788.7193 157.5154 780.1854 163.7879 780.3351 163.9575 782.7805 167.1361 787.4717 165.9918 785.4754 168.3228 789.5178 171.5014 789.5677 171.4166 790.2664 173.1119 791.2146 175.4005 794.7081 177.6467 792.8615 177.5196 789.0188 181.5035 788.5197 182.012 789.1186 182.9868 789.6675 183.7921 790.1666 184.5973 796.4049 184.2583 797.0537 187.4369 799 188.6236 796.7542 189.1322 795.8559 191.8446 795.0574 191.7598 795.0075 191.7174 791.564 191.2089 791.1148 194.8961 788.0206 196.5489 787.4717 199.1766 780.7343 201.4228 779.2871 204.0929 774.3962 204.7286 773.7475 208.543 769.6552 208.9668 762.7182 216.7226 756.5797 216.0869 752.4874 219.096 752.6871 221.5117 750.7407 222.4441 749.7925 220.6217 746.9977 221.8932 748.0957 224.3937 745.9996 225.7075 748.6447 226.0042 749.1936 227.9537 745.251 229.6066 747.946 231.2171 748.1456 233.1667 743.5542 232.7429 742.8056 235.1586 740.6098 234.5229 739.2623 231.3443 733.9223 234.5653 732.7745 237.8711 728.233 239.1001 726.9355 238.5492 726.636 238.2101 730.4788 233.5057 729.1313 233.0395 730.4289 230.0304 730.6285 229.4795 729.8799 227.869 728.8319 229.8185 719.3497 228.6319 715.5568 230.4119 715.2574 227.9114 711.3647 227.7418 710.6161 229.2676 705.5756 225.9618 705.2762 226.089 700.4852 228.4199 Z" />
        <path
            d="M 111.2428 462.3667 111.1929 462.3243 112.0912 460.4171 121.773 444.4816 123.4698 442.0235 139.9887 426.0456 158.8533 403.4562 165.5407 399.4299 177.1689 392.5217 177.7677 392.1403 181.5606 384.554 185.4533 386.5459 183.5069 388.7074 184.5051 389.6398 185.603 390.5721 191.2923 387.8173 196.3328 388.3259 200.4251 386.334 200.9741 388.2412 205.1662 388.665 203.1201 393.4117 206.5137 390.6145 210.4563 392.3098 214.5486 388.4107 218.042 390.1907 219.7388 389.0888 227.8735 394.0474 227.5242 396.2089 226.9752 398.7094 221.9347 398.3704 222.334 399.1756 225.0289 404.1767 229.5704 404.9819 229.5205 407.5248 227.3246 408.9658 226.8754 409.2625 227.624 410.1101 227.8735 411.2968 223.931 412.4411 224.7794 417.2302 222.9827 420.7903 222.833 420.9598 219.3895 420.875 219.0402 422.6551 216.2454 422.9941 217.2435 425.7489 213.5006 424.3079 212.5024 425.2403 214.2991 428.2494 217.8424 429.3514 218.1418 432.1062 221.3857 432.0214 222.9328 437.2767 227.8236 437.9972 226.1268 439.0144 227.7238 442.7016 224.8293 442.7863 226.7756 446.1345 225.7276 453.2546 222.5336 453.4241 222.0844 456.6028 213.3508 456.5604 211.6041 461.0952 206.4638 460.2476 205.5655 469.8258 200.5749 473.8521 203.1201 475.2931 197.5805 480.9298 187.5493 483.0489 184.9043 479.4041 181.7103 479.4889 179.9636 473.5554 177.4683 476.8612 174.5238 473.5554 172.7272 474.4454 171.779 480.3789 169.3835 480.5908 169.5831 483.6423 162.197 486.8209 157.4559 475.4626 153.3137 475.5897 154.761 477.6241 151.1178 480.8874 147.7242 478.9379 147.6743 477.1579 145.2289 477.6664 144.6799 479.1074 144.0811 479.5312 141.985 476.4374 141.1366 476.5221 140.6375 476.6069 140.1385 476.6493 137.6432 477.9631 139.6893 481.6927 138.4916 484.3627 134.9981 483.4727 136.0961 479.8279 133.3013 479.1922 131.5047 481.3113 132.5028 485.1256 130.0574 486.4394 129.9576 488.2619 127.3126 488.8128 123.6694 484.1932 124.8672 479.7008 122.3719 478.5565 121.6732 474.4031 119.3276 473.6402 119.8765 471.3092 118.03 471.3092 118.2795 467.5372 111.2927 462.3243 111.2428 462.3667 Z" />
    </g>
</svg>