<?xml version="1.0"?>
<svg xmlns="http://www.w3.org/2000/svg" version="1.2" baseProfile="tiny" width="800" height="714"
    viewBox="0 0 800 714" stroke-linecap="round" stroke-linejoin="round">
    <g id="chandigarh_district">
        <path
            d="M 680.1755 632.8662 573.8589 713.0283 565.1034 711.8495 473.7962 667.053 400 696.5244 329.9561 606.9314 191.1191 570.3869 146.0909 399.4529 1 290.9983 29.768 191.9745 217.3856 142.4626 372.4828 1 433.7712 87.0564 433.7712 136.5683 462.5392 127.1375 603.8777 83.5198 617.6364 101.2027 621.3887 104.7392 558.8495 167.2185 613.884 235.5921 678.9248 176.6494 741.4639 227.3401 742.7147 224.9824 706.442 309.86 796.4984 359.3719 799 378.2336 795.2476 443.0706 671.4201 596.3217 680.1755 632.8662 Z" />
    </g>
</svg>