<?xml version="1.0"?>
<svg xmlns="http://www.w3.org/2000/svg" version="1.2" baseProfile="tiny" width="800" height="755"
    viewBox="0 0 800 755" stroke-linecap="round" stroke-linejoin="round">
    <g id="delhi_district">
        <path
            d="M 579.6214 145.5155 581.2524 150.689 526.2039 175.5222 523.7573 176.557 540.4757 206.2188 532.3204 224.4988 555.1553 249.332 591.4466 247.6075 599.6019 264.5079 561.6796 313.8294 553.5243 305.5517 550.2621 302.4475 501.7379 280.3736 501.7379 235.8807 447.5049 277.2694 423.0388 230.0173 381.0388 242.7788 293.7767 207.2536 292.5534 205.8739 278.6893 191.7328 273.7961 186.2143 276.6505 163.1056 204.8835 133.0989 202.4369 112.7494 199.9903 92.4 200.8058 89.6407 221.1942 98.9532 221.6019 98.6083 222.0097 98.6083 244.0291 71.7057 248.5146 71.0158 315.7961 82.3977 343.932 25.8332 370.4369 26.1781 383.0777 1 443.0194 40.6641 473.6019 34.8008 476.8641 71.3607 478.9029 71.7057 496.8447 74.12 500.1068 74.8098 500.1068 74.4649 528.6505 40.6641 592.6699 49.6317 595.1165 54.4604 602.8641 83.0875 597.1553 119.3026 569.835 113.0943 571.466 143.1011 579.6214 145.5155 Z" />
        <path
            d="M 721.932 275.8898 717.0388 297.6188 681.1553 294.5147 664.4369 334.8686 653.0194 338.3177 635.4854 307.2762 614.2816 270.3713 650.165 273.1305 626.9223 260.369 633.0388 221.3947 632.6311 221.3947 600.8252 209.6679 596.7476 183.8 611.4272 179.6611 623.2524 193.8022 655.8738 201.0453 662.8058 235.8807 687.6796 233.8113 710.1068 254.1607 708.068 275.5449 708.068 277.6143 710.9223 277.2694 721.932 275.8898 Z" />
        <path
            d="M 523.7573 341.0769 514.7864 357.6324 532.3204 361.7713 536.8058 409.3683 515.1942 396.9517 493.9903 384.5351 449.9515 385.5698 417.3301 425.5788 336.5922 417.9909 350.4563 447.3079 336.5922 451.7916 287.6602 405.2294 259.932 407.6437 242.3981 354.8732 221.1942 361.4264 180.0097 340.732 208.9612 293.48 253 322.1071 272.9806 296.929 312.534 292.4453 338.2233 315.5539 354.534 302.1026 372.4757 316.2437 433.6408 316.2437 465.8544 295.2045 465.8544 295.5494 465.8544 298.3086 458.5146 323.8317 465.8544 329.6951 466.2621 330.04 471.9709 334.8686 514.3786 340.0422 523.7573 341.0769 Z" />
        <path
            d="M 721.1165 498.3539 700.3204 448.6875 669.7379 459.7245 656.2816 434.5464 639.1553 413.1622 656.6893 422.1298 660.767 424.1992 670.9612 369.0143 668.9223 365.5652 712.5534 359.012 712.9612 359.012 746.3981 381.4309 750.068 381.7758 791.2524 412.1275 790.8447 431.4422 787.9903 432.8218 745.5825 452.1366 721.1165 498.3539 Z" />
        <path
            d="M 180.0097 340.732 221.1942 361.4264 242.3981 354.8732 259.932 407.6437 287.6602 405.2294 336.5922 451.7916 350.4563 447.3079 336.5922 417.9909 417.3301 425.5788 418.5534 425.5788 379.8155 490.0762 345.1553 491.1109 332.1068 510.0807 390.0097 544.2264 407.9515 585.615 405.9126 589.7539 396.534 584.5803 379.8155 575.6128 326.3981 577.6822 264.4175 539.0528 264.4175 539.3977 253.8155 553.5388 278.2816 569.7494 269.3107 580.7864 218.7476 570.4392 174.301 596.652 108.6505 582.166 71.9515 599.0664 63.7961 596.3071 75.6214 571.4739 9.9709 524.9116 1 474.2105 39.7379 469.0369 77.6602 396.6068 105.7961 409.3683 127.8155 397.2966 150.2427 417.9909 150.6505 417.3011 154.3204 413.5071 164.5146 402.4701 163.2913 400.4007 135.1553 368.3245 151.0583 340.732 180.0097 341.0769 180.0097 340.732 Z" />
        <path
            d="M 553.5243 305.5517 561.6796 313.8294 599.6019 264.5079 591.4466 247.6075 555.1553 249.332 532.3204 224.4988 540.4757 206.2188 523.7573 176.557 526.2039 175.5222 581.2524 150.689 579.6214 145.5155 621.2136 157.9321 601.6408 167.9343 611.0194 178.9713 611.4272 179.6611 596.7476 183.8 600.8252 209.6679 632.6311 221.3947 633.0388 221.3947 626.9223 260.369 650.165 273.1305 614.2816 270.3713 635.4854 307.2762 653.0194 338.3177 668.5146 364.8754 668.9223 365.5652 670.9612 369.0143 660.767 424.1992 656.6893 422.1298 639.1553 413.1622 634.2621 407.2988 570.6505 378.6717 563.7184 375.5675 536.8058 409.3683 532.3204 361.7713 514.7864 357.6324 523.7573 341.0769 514.3786 335.5585 553.5243 305.5517 Z" />
        <path
            d="M 417.3301 425.5788 449.9515 385.5698 493.9903 384.5351 515.1942 396.9517 536.8058 409.3683 563.7184 375.5675 570.6505 378.6717 634.2621 407.2988 639.1553 413.1622 656.2816 434.5464 619.1748 450.0671 586.5534 463.5184 576.767 506.2867 564.9417 493.8701 513.5631 513.5298 503.3689 534.569 524.165 546.2958 518.0485 564.2309 460.1456 565.9554 459.7379 566.3003 456.4757 588.0294 485.0194 614.932 480.1262 629.0731 439.7573 621.4852 442.6117 609.7584 405.9126 589.7539 407.9515 585.615 390.0097 544.2264 332.1068 510.0807 345.1553 491.1109 379.8155 490.0762 418.5534 425.5788 417.3301 425.5788 Z" />
        <path
            d="M 439.7573 621.4852 480.1262 629.0731 485.0194 614.932 456.4757 588.0294 459.7379 566.3003 460.1456 565.9554 518.0485 564.2309 524.165 546.2958 503.3689 534.569 513.5631 513.5298 564.9417 493.8701 576.767 506.2867 605.7184 502.8377 622.8447 550.0898 641.6019 561.1267 651.7961 630.7977 635.4854 637.006 632.2233 643.9041 619.1748 670.1169 639.9709 678.0497 640.7864 680.4641 644.0485 714.2648 615.5049 735.9939 604.9029 740.8226 577.1748 745.3063 542.9223 744.6165 530.2816 753.2392 527.4272 753.5841 513.9709 720.4731 509.8932 718.7486 447.5049 689.7765 427.5243 648.7328 439.7573 621.4852 Z" />
        <path
            d="M 653.0194 338.3177 664.4369 334.8686 681.1553 294.5147 717.0388 297.6188 721.932 275.8898 773.3107 268.9917 761.0777 291.7554 776.165 317.9683 761.4854 326.246 750.068 381.7758 746.3981 381.4309 712.9612 359.012 712.5534 359.012 668.9223 365.5652 668.5146 364.8754 653.0194 338.3177 Z" />
        <path
            d="M 656.2816 434.5464 669.7379 459.7245 700.3204 448.6875 721.1165 498.3539 719.8932 500.0784 722.7476 502.4928 799 571.4739 782.6893 595.2724 746.8058 629.418 709.2913 609.4135 651.7961 630.7977 641.6019 561.1267 622.8447 550.0898 605.7184 502.8377 576.767 506.2867 586.5534 463.5184 619.1748 450.0671 656.2816 434.5464 Z" />
        <path
            d="M 202.4369 112.7494 204.8835 133.0989 276.6505 163.1056 273.7961 186.2143 278.6893 191.7328 292.5534 205.8739 293.7767 207.2536 381.0388 242.7788 423.0388 230.0173 447.5049 277.2694 501.7379 235.8807 501.7379 280.3736 550.2621 302.4475 553.5243 305.5517 514.3786 335.5585 523.7573 341.0769 514.3786 340.0422 471.9709 334.8686 466.2621 330.04 465.8544 329.6951 458.5146 323.8317 465.8544 298.3086 465.8544 295.5494 465.8544 295.2045 433.6408 316.2437 372.4757 316.2437 354.534 302.1026 338.2233 315.5539 312.534 292.4453 272.9806 296.929 253 322.1071 208.9612 293.48 171.8544 269.3366 190.2039 237.9502 166.1456 204.4943 183.6796 183.8 180.4175 146.5502 180.4175 146.2053 179.6019 146.2053 162.068 134.8234 177.1553 104.1268 202.4369 112.7494 Z" />
    </g>
</svg>