<?xml version="1.0"?>
<svg xmlns="http://www.w3.org/2000/svg" version="1.2" baseProfile="tiny" width="800" height="446"
    viewBox="0 0 800 446" stroke-linecap="round" stroke-linejoin="round">
    <g id="dnh-and-dd">
        <path
            d="M 633.6168 442.6662 635.0626 443.1223 633.6971 445.4024 633.6168 442.6662 Z M 712.0915 157.2667 708.718 153.7705 711.6899 147.9181 718.0353 150.6542 718.5976 151.7183 715.8666 157.8747 714.7421 159.6989 712.0915 157.2667 Z M 712.0112 190.0249 712.1718 190.0249 710.8867 183.6405 710.4047 181.3603 699.6416 175.5839 695.3042 168.6675 701.5693 160.6869 715.1437 169.0475 715.2241 168.8195 718.3566 162.359 728.1559 161.903 727.3527 154.6825 730.5656 155.8226 730.2443 161.067 736.5094 161.827 739.2404 150.3502 751.2084 151.1103 757.7144 138.5694 762.8551 146.3219 759.3209 157.9507 776.3492 153.0104 781.3291 155.6706 781.6504 162.8151 778.5982 165.6273 774.3411 163.4991 773.2969 167.8314 758.1161 179.6122 758.1161 183.5645 748.7987 182.1204 747.0316 183.5645 745.9071 184.4766 745.2645 185.0086 742.4532 190.861 741.5697 192.7611 741.4894 192.9131 745.1039 195.0413 746.63 206.5941 746.7103 207.0501 749.9232 208.1142 751.8509 202.1098 764.2205 209.2542 765.4254 203.8579 773.1363 200.7417 770.8069 193.2172 771.3692 191.393 778.3572 193.5212 782.1324 190.1769 785.4256 195.4973 790.1646 193.9012 799 197.7775 795.7068 204.3139 793.1365 205.53 789.4417 205.15 789.3613 207.4301 788.7991 217.1588 788.7991 217.3108 796.51 220.047 796.51 231.9038 789.2007 234.792 790.2449 244.2166 781.3291 242.4685 771.4495 231.8278 762.9354 235.8561 760.0438 230.6117 746.63 227.5715 743.7384 227.4195 743.6581 228.5596 742.6942 239.1243 739.7223 238.5923 725.184 223.0872 727.5133 217.8428 728.2362 216.2467 728.6378 215.2587 724.1398 212.4465 721.9711 221.1111 720.9269 221.4151 716.3486 221.9471 713.2963 218.9069 712.6537 217.8428 717.0715 199.9816 711.6899 198.1575 711.6899 197.2454 712.0112 190.0249 Z M 720.5253 187.6688 722.453 187.6688 725.2643 187.5928 726.0675 184.4766 726.5495 182.5764 726.7101 182.1204 725.5053 182.0444 719.2402 181.5124 717.714 181.3603 717.714 182.8804 716.1879 184.2485 717.714 185.4646 717.714 187.6688 720.5253 187.6688 Z" />
        <path
            d="M 686.0671 103.607 689.1194 109.7634 682.1314 109.3074 676.1072 118.428 690.3242 119.5681 690.8061 120.7082 684.782 125.5725 689.28 131.881 689.28 132.033 675.7859 134.0091 668.8782 133.9331 666.4685 135.4532 663.8179 135.8332 669.0389 106.6472 675.3843 101.8589 686.0671 103.607 Z" />
        <path
            d="M 16.0202 8.0685 16.5022 8.2965 19.6347 10.0446 22.2854 11.5647 29.7553 10.1206 36.663 14.909 36.7433 14.8329 41.9643 9.4366 43.0888 8.3725 45.7394 9.8926 38.9924 14.909 42.2052 18.0252 35.3779 21.9014 19.0725 18.4812 8.9519 22.7375 1 19.4693 4.0522 13.8449 14.4941 11.4127 16.0202 8.0685 Z M 95.0572 2.4441 94.8162 1 95.6194 2.1401 95.0572 2.4441 Z" />
    </g>
</svg>