<?xml version="1.0"?>
<svg xmlns="http://www.w3.org/2000/svg" version="1.2" baseProfile="tiny" width="800" height="1090"
    viewBox="0 0 800 1090" stroke-linecap="round" stroke-linejoin="round">
    <g id="goa_district">
        <path
            d="M 695.9525 374.3062 633.7118 404.6426 608.5682 440.035 542.2056 439.1923 524.8936 461.9446 517.4742 451.8325 475.0186 471.2141 459.7676 476.6915 459.3554 475.8488 456.8822 443.4057 433.7996 428.6589 441.6312 422.7601 423.0826 395.7944 429.2655 389.4744 345.5909 315.7401 324.5692 334.7003 345.5909 360.402 345.5909 360.8233 337.3471 379.7836 331.9886 391.1597 339.8202 407.1706 340.2324 408.0133 326.218 426.5522 312.2035 445.0911 275.9308 463.63 247.4897 442.5631 226.468 449.7258 209.5682 421.4961 153.5103 424.0241 135.374 407.5919 153.0981 410.5413 167.937 373.8848 139.9081 363.3514 108.9938 370.5141 95.8037 307.7346 67.7748 254.2246 74.3698 222.2029 56.6457 205.7707 17.0754 94.9586 1 86.5318 10.0682 88.2171 22.0217 94.5372 63.2407 97.9079 80.5527 78.9477 132.0764 91.1665 132.4886 91.1665 132.9008 90.3238 152.2738 76.4196 174.9442 73.0489 178.6539 72.6276 179.8905 72.2063 180.7149 68.4142 200.0878 33.4431 212.4535 24.1736 216.1632 3.9494 217.812 1 219.4607 1.4213 246.2531 32.1791 240.8946 60.4088 317.9742 70.0996 333.6374 102.1213 323.7448 123.6096 348.4762 132.879 352.5981 199.8719 353.0103 206.192 381.0393 228.9443 417.7242 235.6857 429.6777 215.4614 513.7645 191.4451 529.0155 187.2317 535.1983 180.069 536.4349 179.6476 545.0909 179.2263 556.22 184.2824 591.2562 177.9623 594.5537 156.0527 611.0413 143.4125 622.9948 147.2046 618.4607 161.1087 639.0702 165.7435 640.3068 181.333 678.2283 159.8447 697.189 177.1196 687.7087 211.2481 712.0279 224.3096 688.9452 283.297 708.7304 285.4037 728.5155 308.156 728.9277 336.3857 695.9525 373.8848 695.9525 374.3062 Z" />
        <path
            d="M 312.2035 445.0911 326.218 426.5522 340.2324 408.0133 339.8202 407.1706 331.9886 391.1597 337.3471 379.7836 345.5909 360.8233 345.5909 360.402 324.5692 334.7003 345.5909 315.7401 429.2655 389.4744 423.0826 395.7944 441.6312 422.7601 433.7996 428.6589 456.8822 443.4057 459.3554 475.8488 459.7676 476.6915 475.0186 471.2141 517.4742 451.8325 524.8936 461.9446 542.2056 439.1923 608.5682 440.035 633.7118 404.6426 695.9525 374.3062 725.6302 425.2882 717.3864 461.9446 726.0424 495.2304 783.3368 523.8814 775.9174 570.65 799 612.3626 787.0465 626.2668 726.4545 626.2668 696.3647 656.1818 706.2572 677.2488 756.9566 697.473 775.9174 743.399 737.1715 788.9035 736.7593 831.0374 721.9205 850.8403 750.7738 919.0972 716.1498 967.1299 698.8378 971.7646 712.0279 994.9382 697.6012 1018.9545 678.2283 1009.6851 635.7727 1059.403 608.9804 1021.4826 591.6684 1019.7972 590.0196 1019.7972 578.8905 1037.9148 587.9587 1075.8353 542.2056 1059.8244 495.6281 1089.3181 489.8574 1077.5206 445.3409 1069.0938 452.3481 1018.5332 434.2118 972.6073 417.7242 954.911 378.5661 944.3776 370.3223 902.665 357.9566 905.6144 351.3616 888.3395 285.8233 865.1659 303.5475 851.683 292.8306 838.2002 313.8523 833.1441 314.6767 807.0211 331.1643 793.9596 252.0238 539.8923 235.9483 519.6681 200.5 533.1509 160.1054 512.5053 157.22 492.281 139.4959 491.8597 130.4277 474.1635 143.6178 467.422 158.8688 485.961 170.8223 472.0568 181.5393 481.3262 198.8512 472.0568 206.2707 487.225 239.6581 489.3317 261.5041 474.5848 319.2107 474.5848 302.7231 457.7313 312.2035 445.0911 Z" />
    </g>
</svg>