<?xml version="1.0"?>
<svg xmlns="http://www.w3.org/2000/svg" version="1.2" baseProfile="tiny" width="800" height="675"
    viewBox="0 0 800 675" stroke-linecap="round" stroke-linejoin="round">
    <g id="himachalpradesh_district">
        <path
            d="M 720.4619 276.3611 720.7266 277.0436 720.1972 277.1195 716.5791 277.4228 716.4026 277.4228 713.9318 280.5321 709.8725 279.0154 706.5192 283.1863 701.6657 278.8637 681.8988 283.5655 668.1326 280.6838 664.1616 299.8703 670.3387 304.4963 669.4563 309.1982 661.2495 309.9565 656.6607 305.558 648.2775 304.1171 642.8063 310.7149 610.1556 310.4874 605.4786 314.355 607.2435 324.4412 607.2435 324.5171 607.067 324.6687 605.3021 326.0338 604.0667 326.413 602.037 327.0955 600.9781 327.3988 592.4183 325.5029 584.0351 328.0814 582.4466 330.6598 585.7117 333.1624 585.7117 333.2382 585.447 333.9966 582.1819 344.1586 582.0054 344.5378 576.3577 345.2962 570.0041 350.6805 569.5629 351.0597 562.5033 345.827 551.9139 344.2345 551.6491 344.1586 548.8253 352.3489 548.5605 352.9556 547.0604 352.8798 543.0011 352.8039 541.7657 352.7281 541.3244 352.4248 539.6478 351.9697 531.2645 345.7512 532.5882 345.5237 527.5582 340.8977 527.9994 333.7691 525.3521 328.7639 532.4999 321.2561 517.4983 317.9193 508.6738 307.9848 515.9981 297.7469 509.9975 293.1967 514.2332 290.3149 507.9678 284.7031 505.6734 277.1195 503.3791 273.7827 503.1143 273.4793 490.3188 270.9767 481.9355 261.2697 463.1393 251.5627 461.8157 246.9367 457.2269 243.3724 453.6971 249.0601 439.1367 242.3107 438.0777 249.3634 427.8413 250.3493 423.8703 245.4958 418.5756 245.1166 412.2219 241.0214 410.1041 237.0021 410.81 233.817 409.7511 228.8118 407.1037 223.0483 403.7504 219.3323 386.1896 206.971 382.5716 208.1844 376.218 204.5443 375.0708 201.5866 365.0108 197.7948 364.9226 197.7948 349.7444 202.1175 348.5973 202.4967 346.7441 201.5866 346.6559 201.5866 347.5383 197.1123 347.6266 196.8848 344.6262 196.8848 342.3319 193.3205 324.8593 200.2974 317.182 200.4491 317.0938 194.9131 308.0928 197.1123 309.9459 193.0172 305.7984 189.9079 308.7105 186.1161 308.534 186.1161 298.1211 186.3436 296.7092 179.9733 301.2979 174.8923 298.3858 169.963 292.5616 172.1622 289.2083 168.9013 282.59 170.4938 281.4428 166.9295 275.0891 167.3087 271.3828 164.6544 262.8231 168.9013 259.2933 167.3087 257.5284 162.6827 253.4691 162.986 247.9979 158.5117 242.7914 160.4834 244.1151 153.279 237.1438 153.4307 234.7611 145.9229 224.613 141.2211 219.8477 141.2969 217.9063 138.491 204.8461 142.2828 199.5514 140.9177 199.3749 140.8419 200.1691 137.1259 195.2274 133.865 196.551 129.0873 189.8444 124.5371 189.7562 124.4613 186.8441 111.5691 183.932 108.3082 184.3732 103.0755 199.1984 94.6577 206.5227 102.848 205.552 106.2606 210.582 107.2465 230.5254 102.0896 238.3792 95.6435 254.4398 96.8569 261.8524 88.0599 263.176 80.173 267.1471 77.367 273.4125 78.5046 279.4131 72.1343 275.7951 63.1098 278.1777 56.9671 274.6479 56.5879 269.1767 38.3114 268.7355 36.5672 269.8827 33.382 271.1181 23.4475 270.5004 18.9732 270.5004 18.7457 270.4121 17.9115 272.177 15.7122 276.854 7.0669 276.4128 4.3368 276.1481 2.2134 281.0015 1 281.4428 1.3033 287.4434 5.7777 289.9143 2.7442 292.7381 3.3509 292.8264 3.3509 288.6789 10.6312 290.7085 13.0579 286.8257 15.6364 286.6492 23.675 293.0911 28.8319 295.6502 34.2921 302.6216 32.5478 308.2693 38.9939 307.3868 42.5582 313.8287 54.3128 322.8297 60.9106 327.6832 60.5314 331.8307 63.5648 340.9199 61.2139 349.568 67.4325 355.3921 66.7499 356.6276 64.5507 364.4814 66.0674 364.3049 71.2243 367.0405 71.9826 367.7464 75.6986 366.158 81.6138 369.2466 81.8413 373.4824 77.5945 375.9532 82.2205 386.3661 86.0882 384.866 88.8183 388.9252 92.8376 393.514 90.4867 393.9552 90.8658 399.8676 96.0985 404.8976 95.9469 407.6332 101.7104 408.6039 103.758 410.6335 103.3788 416.6342 102.2413 416.6342 102.1654 416.9872 94.961 424.2233 88.2874 433.4008 89.1216 435.1657 92.6859 439.0484 94.051 446.6375 87.6807 449.2849 89.6525 455.462 87.4532 468.6988 77.9737 470.1989 74.3336 486.8773 70.0867 488.9951 63.6407 496.143 65.0816 497.6431 68.2667 502.5849 68.1908 518.9985 82.7514 513.9685 86.5432 512.0271 92.3826 522.5283 99.2837 525.6168 97.9186 532.5882 101.4071 537.0004 108.0048 536.118 110.5832 540.7067 114.2992 545.8249 114.2992 547.8546 125.068 544.1483 133.2583 550.5902 140.0835 556.3261 141.6002 556.2379 143.572 566.9155 149.8664 574.1516 143.9512 577.5049 148.3497 583.5938 148.8047 586.3294 147.3638 584.8293 143.3445 589.065 139.856 597.6248 141.8277 596.5659 135.3817 614.4796 139.3252 620.6568 137.6568 622.3334 133.1824 636.1879 128.9356 634.2465 123.0962 646.5126 117.636 653.8369 117.7877 655.3371 127.4189 651.8955 138.491 653.7486 146.4538 657.8962 149.9422 644.4829 158.8909 636.2761 160.6351 636.8938 171.9347 632.0404 176.8641 639.4529 184.3718 656.3078 171.8589 659.1316 172.0864 661.6907 175.4232 670.9564 179.2908 669.368 188.9978 675.8982 191.5763 678.722 196.1264 688.1642 197.8707 681.8106 208.4119 675.3687 213.3412 675.8099 229.3427 669.4563 238.0638 692.9294 237.3055 705.4602 244.5857 705.5485 253.0794 701.1362 258.8429 706.8722 267.6399 718.2558 270.7492 720.4619 276.3611 Z" />
        <path
            d="M 270.5004 18.9732 271.1181 23.4475 269.8827 33.382 268.7355 36.5672 269.1767 38.3114 274.6479 56.5879 278.1777 56.9671 275.7951 63.1098 279.4131 72.1343 273.4125 78.5046 267.1471 77.367 263.176 80.173 261.8524 88.0599 254.4398 96.8569 238.3792 95.6435 230.5254 102.0896 210.582 107.2465 205.552 106.2606 206.5227 102.848 199.1984 94.6577 184.3732 103.0755 183.932 108.3082 186.8441 111.5691 189.7562 124.4613 189.8444 124.5371 196.551 129.0873 195.2274 133.865 200.1691 137.1259 199.3749 140.8419 199.5514 140.9177 204.8461 142.2828 217.9063 138.491 219.8477 141.2969 224.613 141.2211 234.7611 145.9229 237.1438 153.4307 244.1151 153.279 242.7914 160.4834 247.9979 158.5117 253.4691 162.986 257.5284 162.6827 259.2933 167.3087 262.8231 168.9013 271.3828 164.6544 275.0891 167.3087 281.4428 166.9295 282.59 170.4938 289.2083 168.9013 292.5616 172.1622 298.3858 169.963 301.2979 174.8923 296.7092 179.9733 298.1211 186.3436 298.2093 186.5711 287.3552 194.3822 278.7954 200.6766 278.7954 200.8283 279.5014 207.7294 277.56 209.8528 277.2953 210.232 271.3828 210.9903 279.2366 221.304 275.5304 222.8966 277.8247 233.362 274.8244 236.2438 276.9423 237.2296 274.2067 245.9508 267.5883 251.1835 261.3229 247.9984 251.5277 253.6102 251.4395 253.6861 238.8204 248.7567 232.8198 242.614 212.5234 240.4148 208.9936 236.2438 203.9636 236.9263 199.6396 233.0586 195.7568 233.7412 188.3442 227.2193 179.7845 219.5598 178.7255 218.6498 164.6063 215.8438 161.6942 208.0327 157.0173 207.3502 153.9287 202.5725 147.575 202.4208 142.1038 208.7152 134.8677 211.9004 136.7209 215.2371 133.5441 224.6408 140.2507 233.5137 138.574 239.8081 138.0446 242.0831 137.8681 242.6898 137.0739 242.614 136.6326 242.5382 135.4855 242.4623 135.4855 239.353 129.3965 242.4623 124.5431 240.7939 124.7196 234.8787 117.307 231.4661 103.0995 231.9211 103.0113 231.8453 99.5697 226.7642 100.9816 216.6022 88.9803 202.8759 80.1558 203.1792 79.9793 202.7242 79.8911 202.5725 72.7432 188.922 59.2417 176.9399 57.4768 175.3473 57.3886 175.2715 56.7709 174.7406 58.0945 173.6031 66.7426 166.0195 65.1542 162.986 67.8897 161.3176 67.8897 157.6775 72.8315 156.1608 76.7143 146.7571 79.3616 147.1363 80.95 143.2686 76.626 144.027 74.5081 140.6144 70.0076 141.9794 69.8311 142.0553 78.0379 119.9869 70.1841 111.7208 68.5957 104.8955 54.4765 95.1127 49.27 87.7566 49.27 87.6807 49.4465 87.6049 60.6537 77.367 78.1262 82.9031 84.921 90.5625 103.1878 80.4763 106.0116 75.7745 116.3363 71.2243 121.8075 63.7923 121.984 59.4697 136.1914 57.8771 138.4858 56.1329 147.4868 56.0571 153.5757 55.9054 160.8118 52.1136 164.9593 46.805 163.9004 36.8705 191.6093 17.3806 209.5231 19.049 228.8487 11.9962 236.6143 12.7546 240.3206 20.2624 246.7625 23.0683 262.9113 18.594 270.3239 19.1248 270.4121 18.9732 270.5004 18.9732 Z" />
        <path
            d="M 298.1211 186.3436 308.534 186.1161 308.7105 186.1161 305.7984 189.9079 309.9459 193.0172 308.0928 197.1123 317.0938 194.9131 317.182 200.4491 324.8593 200.2974 342.3319 193.3205 344.6262 196.8848 347.6266 196.8848 347.5383 197.1123 346.6559 201.5866 346.7441 201.5866 343.3908 205.7576 339.155 214.7063 345.7734 216.5264 341.5377 222.7449 337.2136 228.9635 335.9782 232.6795 336.0665 234.1962 340.8317 243.8274 328.9186 249.4393 324.5064 263.7723 325.9183 268.9292 315.9466 268.1708 315.9466 268.3983 314.3582 280.1529 296.1797 282.883 292.5616 285.6131 283.2077 279.9254 283.1194 278.257 279.8544 278.6362 275.9716 279.8496 266.6176 288.419 260.6169 286.144 260.5287 284.5514 259.1168 283.6414 255.4987 283.6414 252.2337 285.3098 251.5277 286.2198 250.6453 291.6042 256.3812 301.1595 258.4108 310.184 253.0279 316.8576 254.7045 324.8962 248.9686 325.5029 247.2037 324.6687 244.9976 324.6687 245.0858 324.2895 235.0259 319.891 227.4368 320.9528 225.9366 321.2561 217.2004 331.494 204.8461 334.6791 206.7875 339.3051 202.5517 337.3334 204.1401 340.3668 199.5514 341.5044 198.7572 338.7743 197.4335 342.7177 197.4335 342.8694 192.227 342.8694 192.1388 344.6895 192.227 345.4478 192.1388 345.372 188.3442 342.7177 182.3436 347.8746 178.6373 343.3244 171.6659 346.5854 165.7535 346.1304 165.8418 346.282 167.3419 350.0738 170.254 357.5058 169.3716 358.8708 168.8421 359.6292 167.1654 362.1318 163.4591 367.6678 163.1944 368.1228 163.0179 367.8953 143.6922 349.0121 138.1328 349.9222 138.7505 346.3579 130.1908 341.4285 121.4545 342.5661 121.0133 336.1958 116.6893 336.9542 115.1009 331.949 111.6593 332.1765 111.571 332.1765 105.6586 327.0196 99.9227 326.0338 99.0403 325.9579 94.3633 329.3706 93.8338 329.7497 86.333 328.1572 74.7729 306.3922 64.9777 301.0837 51.5644 297.5194 49.1818 296.2302 48.6523 296.0027 44.2401 293.5759 37.4452 285.9164 31.0916 286.9782 16.6194 277.1195 15.1192 276.6644 14.0603 276.7403 2.4119 278.1812 1 278.3328 1.706 275.5269 2.4119 272.9485 3.7356 272.6451 5.677 272.1901 8.1478 267.1091 16.5311 262.7106 19.2667 257.6296 17.1488 256.7954 17.943 253.2311 16.0017 253.2311 15.2957 248.6051 7.8831 250.1976 8.4126 244.3582 11.3247 242.8415 10.7952 240.6423 6.3829 239.4289 11.2364 235.7887 42.1222 227.2193 48.4758 218.8014 52.5351 217.5122 51.5644 213.2654 59.33 211.5212 60.0359 207.3502 66.2131 202.2692 66.3013 202.1933 79.8911 202.5725 79.9793 202.7242 80.1558 203.1792 88.9803 202.8759 100.9816 216.6022 99.5697 226.7642 103.0113 231.8453 103.0995 231.9211 117.307 231.4661 124.7196 234.8787 124.5431 240.7939 129.3965 242.4623 135.4855 239.353 135.4855 242.4623 136.6326 242.5382 137.0739 242.614 137.8681 242.6898 138.0446 242.0831 138.574 239.8081 140.2507 233.5137 133.5441 224.6408 136.7209 215.2371 134.8677 211.9004 142.1038 208.7152 147.575 202.4208 153.9287 202.5725 157.0173 207.3502 161.6942 208.0327 164.6063 215.8438 178.7255 218.6498 179.7845 219.5598 188.3442 227.2193 195.7568 233.7412 199.6396 233.0586 203.9636 236.9263 208.9936 236.2438 212.5234 240.4148 232.8198 242.614 238.8204 248.7567 251.4395 253.6861 251.5277 253.6102 261.3229 247.9984 267.5883 251.1835 274.2067 245.9508 276.9423 237.2296 274.8244 236.2438 277.8247 233.362 275.5304 222.8966 279.2366 221.304 271.3828 210.9903 277.2953 210.232 277.56 209.8528 279.5014 207.7294 278.7954 200.8283 278.7954 200.6766 287.3552 194.3822 298.2093 186.5711 298.1211 186.3436 Z" />
        <path
            d="M 346.7441 201.5866 348.5973 202.4967 349.7444 202.1175 364.9226 197.7948 365.0108 197.7948 375.0708 201.5866 376.218 204.5443 382.5716 208.1844 386.1896 206.971 403.7504 219.3323 407.1037 223.0483 409.7511 228.8118 410.81 233.817 410.1041 237.0021 412.2219 241.0214 418.5756 245.1166 423.8703 245.4958 427.8413 250.3493 438.0777 249.3634 439.1367 242.3107 453.6971 249.0601 457.2269 243.3724 461.8157 246.9367 463.1393 251.5627 481.9355 261.2697 490.3188 270.9767 503.1143 273.4793 503.3791 273.7827 505.6734 277.1195 507.9678 284.7031 514.2332 290.3149 509.9975 293.1967 515.9981 297.7469 508.6738 307.9848 517.4983 317.9193 532.4999 321.2561 525.3521 328.7639 527.9994 333.7691 527.5582 340.8977 532.5882 345.5237 531.2645 345.7512 530.6468 345.2962 530.5586 345.9029 529.1466 351.6664 529.0584 352.0456 518.2042 350.5289 513.1743 352.5764 508.0561 350.3772 504.7028 353.4865 504.2615 361.6009 503.0261 361.8284 487.9362 364.1035 480.4354 373.583 484.3181 380.3325 480.3471 384.6551 481.0531 392.1629 492.7897 401.7183 494.7311 411.1978 485.9066 420.2981 476.1996 422.9524 474.6112 428.7159 477.5233 434.707 476.4643 437.2854 468.787 435.162 458.9036 437.2096 450.3438 447.0683 443.5489 445.3999 429.7827 448.8884 422.5466 443.959 418.9286 444.2623 418.9286 444.1865 419.6345 433.0386 419.5463 432.1286 406.3978 421.8907 403.3092 403.9175 399.3382 399.4432 400.2206 372.2938 389.543 362.511 379.3948 358.8708 373.3941 337.03 369.9526 335.9683 371.0115 331.7215 352.3035 332.404 348.5973 335.1341 347.5383 332.7832 342.9496 332.6315 343.2143 327.5505 323.5357 299.1119 323.0062 290.9975 315.1524 284.7789 315.1524 284.7031 315.0641 284.7031 315.0641 284.4756 314.3582 280.1529 315.9466 268.3983 315.9466 268.1708 325.9183 268.9292 324.5064 263.7723 328.9186 249.4393 340.8317 243.8274 336.0665 234.1962 335.9782 232.6795 337.2136 228.9635 341.5377 222.7449 345.7734 216.5264 339.155 214.7063 343.3908 205.7576 346.7441 201.5866 Z" />
        <path
            d="M 244.9976 324.6687 247.2037 324.6687 248.9686 325.5029 254.7045 324.8962 253.0279 316.8576 258.4108 310.184 256.3812 301.1595 250.6453 291.6042 251.5277 286.2198 252.2337 285.3098 255.4987 283.6414 259.1168 283.6414 260.5287 284.5514 260.6169 286.144 266.6176 288.419 275.9716 279.8496 279.8544 278.6362 283.1194 278.257 283.2077 279.9254 292.5616 285.6131 296.1797 282.883 314.3582 280.1529 315.0641 284.4756 315.0641 284.7031 315.1524 284.7031 315.1524 284.7789 323.0062 290.9975 323.5357 299.1119 343.2143 327.5505 342.9496 332.6315 347.5383 332.7832 348.5973 335.1341 352.3035 332.404 371.0115 331.7215 369.9526 335.9683 373.3941 337.03 379.3948 358.8708 389.543 362.511 400.2206 372.2938 399.3382 399.4432 403.3092 403.9175 406.3978 421.8907 419.5463 432.1286 419.6345 433.0386 418.9286 444.1865 416.1047 444.414 414.9575 445.3241 411.869 448.0542 410.0158 449.6467 407.4567 459.6571 400.8383 465.724 395.1906 466.7857 392.1903 464.7381 386.8074 469.7433 380.8067 467.3924 376.0415 471.8667 373.9236 469.1366 365.6286 474.521 362.187 474.7485 359.5396 474.6726 358.7454 470.5017 358.3925 470.5017 358.3925 470.2742 349.6562 470.1983 346.7441 468.1507 341.8024 466.4823 336.5959 464.6623 315.8583 450.6326 316.1231 447.9783 310.9166 443.1248 300.5037 446.4616 300.3272 446.4616 297.5916 440.0914 301.7391 438.6505 300.4155 431.8252 283.2077 430.081 283.2077 430.0052 283.1194 429.9293 282.5017 424.6966 280.9133 423.1041 282.237 422.5732 281.7075 417.4163 278.5307 416.2788 278.8837 411.2736 275.6186 408.1643 274.7361 407.406 266.5294 407.7093 268.0295 405.9651 264.588 402.0974 264.7645 402.0974 264.588 402.0216 266.7058 401.7941 266.6176 397.1681 265.6469 396.9406 266.5294 392.7696 266.5294 392.5421 262.7348 381.47 262.7348 381.3183 263.6173 378.0574 264.9409 373.0522 264.235 372.673 257.6166 368.8054 256.2929 368.047 256.9989 365.9994 256.7342 364.9377 252.4984 360.16 252.8514 356.7474 244.9093 353.9415 241.2913 343.6278 240.7618 341.8077 244.8211 324.6687 244.9976 324.6687 Z" />
        <path
            d="M 531.2645 345.7512 539.6478 351.9697 541.3244 352.4248 541.7657 352.7281 543.0011 352.8039 547.0604 352.8798 548.5605 352.9556 548.8253 352.3489 551.6491 344.1586 551.9139 344.2345 562.5033 345.827 569.5629 351.0597 570.0041 350.6805 576.3577 345.2962 582.0054 344.5378 582.1819 344.1586 585.447 333.9966 585.7117 333.2382 585.7117 333.1624 582.4466 330.6598 584.0351 328.0814 592.4183 325.5029 600.9781 327.3988 602.037 327.0955 604.0667 326.413 605.3021 326.0338 607.067 324.6687 607.2435 324.5171 607.2435 324.4412 605.4786 314.355 610.1556 310.4874 642.8063 310.7149 648.2775 304.1171 656.6607 305.558 661.2495 309.9565 669.4563 309.1982 670.3387 304.4963 664.1616 299.8703 668.1326 280.6838 681.8988 283.5655 701.6657 278.8637 706.5192 283.1863 709.8725 279.0154 713.9318 280.5321 716.4026 277.4228 716.5791 277.4228 720.1972 277.1195 720.7266 277.0436 720.4619 276.3611 721.3444 274.2377 728.1392 279.167 734.8458 293.7276 745.7882 296.306 744.0233 300.7045 745.7882 302.8279 742.1702 305.3305 743.4939 311.3216 736.5225 317.7676 738.4639 324.2137 737.3167 332.2523 727.4333 339.7601 728.1392 347.5712 732.8162 351.2114 733.6987 357.1266 739.4346 365.9236 738.5521 369.1846 741.729 370.7771 749.8475 368.957 750.5535 376.9957 759.731 382.8351 761.1429 386.2477 744.4646 401.3391 741.1112 400.1257 734.9341 403.1592 732.022 408.5435 732.6397 415.3688 740.4935 415.6721 745.1705 422.9524 749.671 424.7725 741.023 434.7828 738.3756 442.8973 742.9644 446.5374 742.9644 452.6043 748.1709 457.2303 762.5548 459.4296 762.2018 455.7894 764.5844 454.5002 767.9377 457.6095 769.1732 462.008 769.3497 462.7664 770.2321 465.5723 770.3204 465.6481 777.2917 470.35 780.0273 477.0236 780.292 477.7061 784.7043 477.7819 783.8219 480.1329 786.9987 484.8347 793.6171 487.7923 793.97 494.9209 799 502.732 785.4103 505.538 778.3507 502.5804 775.5268 505.3105 770.1439 505.3863 757.4366 495.5276 756.0247 490.2191 752.6713 488.2473 754.2598 484.0763 752.4949 482.1046 741.9937 484.9864 720.1972 482.4079 717.0203 485.138 714.4612 478.2369 705.6367 474.8243 698.3124 475.8102 692.1352 481.7254 676.2511 481.9529 669.8975 472.3976 669.721 472.0942 667.9561 470.9567 664.9558 469.1366 664.691 468.9091 658.3374 471.7909 655.7783 464.1314 655.7783 464.0556 653.4839 464.9656 650.6601 462.3872 649.7776 461.4772 642.5415 463.1456 640.0707 463.3731 635.9231 462.2355 635.9231 462.3114 634.3347 461.6288 631.9521 460.5671 631.9521 460.4155 633.8053 454.7277 631.3344 452.2251 623.3923 452.0735 618.7154 448.585 612.6265 452.6802 601.1546 447.9783 598.3308 444.1107 601.3311 438.878 586.9471 430.4602 575.9165 430.8393 568.3274 435.162 556.4144 434.4795 555.1789 434.4036 554.0317 433.0386 547.8546 429.4743 546.0897 429.5501 539.2948 424.5449 539.2066 424.4691 539.0301 424.3174 535.412 418.6297 535.412 413.9279 532.4117 411.2736 530.2056 409.3777 525.7051 410.2119 525.3521 392.7696 519.2632 385.9443 521.9105 380.105 519.4397 373.583 514.7627 370.8529 509.9092 363.5727 504.2615 361.6768 504.2615 361.6009 504.7028 353.4865 508.0561 350.3772 513.1743 352.5764 518.2042 350.5289 529.0584 352.0456 529.1466 351.6664 530.5586 345.9029 530.6468 345.2962 531.2645 345.7512 Z" />
        <path
            d="M 86.333 328.1572 93.8338 329.7497 94.3633 329.3706 99.0403 325.9579 99.9227 326.0338 105.6586 327.0196 111.571 332.1765 111.6593 332.1765 115.1009 331.949 116.6893 336.9542 121.0133 336.1958 121.4545 342.5661 130.1908 341.4285 138.7505 346.3579 138.1328 349.9222 143.6922 349.0121 163.0179 367.8953 163.1944 368.1228 163.4591 367.6678 167.1654 362.1318 168.8421 359.6292 170.1658 361.6768 180.9317 378.3607 189.0502 385.8685 189.4032 386.2477 191.0798 390.1153 200.9633 410.9703 203.9636 414.4587 203.6106 414.6104 201.0515 415.8238 205.9933 422.0424 203.7871 424.6966 207.7582 425.1516 205.552 426.1375 206.1697 430.2327 195.1391 433.1144 188.3442 429.2468 188.1678 429.7776 187.3735 431.9769 187.0206 432.9628 183.3143 426.5925 181.7259 434.0245 173.0779 434.6312 172.7249 439.9397 175.5487 440.0914 175.7252 445.5516 178.549 447.8266 167.6067 448.3575 171.1365 453.2869 163.5474 456.6995 163.3709 456.6995 160.1058 458.0645 158.6057 455.2586 142.5451 457.7612 137.9563 456.8512 137.7798 456.6995 137.5151 448.8884 131.3379 446.1583 130.5437 445.1724 130.1908 440.8497 130.279 439.9397 135.1325 435.8445 135.1325 432.6594 126.8374 422.8007 126.308 418.3264 123.0429 415.5204 123.9254 412.1078 108.8355 391.5562 108.659 386.8544 106.5411 387.4611 99.8345 380.7116 100.0109 376.7682 97.8048 375.7065 86.4212 345.827 80.95 337.8642 88.1861 335.9683 90.7452 338.3951 91.5394 337.8642 91.9806 337.6367 92.5984 337.2575 91.2747 336.3475 86.333 328.1572 Z" />
        <path
            d="M 418.9286 444.1865 418.9286 444.2623 422.5466 443.959 429.7827 448.8884 443.5489 445.3999 450.3438 447.0683 458.9036 437.2096 468.787 435.162 476.4643 437.2854 477.5233 434.707 474.6112 428.7159 476.1996 422.9524 485.9066 420.2981 494.7311 411.1978 492.7897 401.7183 481.0531 392.1629 480.3471 384.6551 484.3181 380.3325 480.4354 373.583 487.9362 364.1035 503.0261 361.8284 504.2615 361.6009 504.2615 361.6768 509.9092 363.5727 514.7627 370.8529 519.4397 373.583 521.9105 380.105 519.2632 385.9443 525.3521 392.7696 525.7051 410.2119 530.2056 409.3777 532.4117 411.2736 535.412 413.9279 535.412 418.6297 539.0301 424.3174 539.2066 424.4691 539.2948 424.5449 546.0897 429.5501 547.8546 429.4743 554.0317 433.0386 555.1789 434.4036 556.4144 434.4795 568.3274 435.162 575.9165 430.8393 586.9471 430.4602 601.3311 438.878 598.3308 444.1107 601.1546 447.9783 612.6265 452.6802 618.7154 448.585 623.3923 452.0735 631.3344 452.2251 633.8053 454.7277 631.9521 460.4155 631.9521 460.5671 634.3347 461.6288 635.9231 462.3114 635.8349 462.3872 634.776 467.6957 629.3048 466.179 620.745 474.521 614.6561 473.7626 611.038 476.8719 608.7437 476.6444 600.6251 475.7344 587.3884 485.0622 573.1809 486.7306 570.2688 493.1767 563.3857 490.5982 559.5912 491.7358 555.5319 487.8681 545.6485 493.2525 539.4713 493.3283 537.6182 500.0019 531.3528 503.0354 528.4407 511.3015 525.3521 511.4532 522.087 515.4725 519.0867 514.6383 523.3225 521.5394 523.4107 521.6911 520.2339 521.2361 518.2042 524.6487 522.2635 526.1654 523.8519 529.8055 519.7927 537.3892 525.2639 539.3609 520.4104 539.2092 519.7044 539.2092 513.1743 536.0241 509.9092 534.5074 506.9089 537.1616 504.6145 539.5126 507.7031 547.5512 519.5279 546.717 519.9691 550.8122 516.7923 553.3906 517.763 562.7184 511.5859 561.05 510.2622 557.0307 506.6441 557.2582 503.3791 564.311 507.3501 569.0887 493.9369 583.5734 483.4357 573.563 475.3172 572.8805 469.7577 580.0091 457.2269 581.2225 457.6681 575.0797 453.2559 575.2314 451.2263 578.4924 444.5196 576.2931 444.3431 565.221 441.3428 560.0642 434.9892 560.4433 431.1946 557.6374 431.8123 554.3006 427.1354 545.0486 433.0478 541.3326 432.1653 533.294 418.1344 523.587 415.84 527.1513 408.0744 528.8197 399.8676 536.0241 399.1617 539.4367 391.7491 542.2427 387.2486 547.7029 387.1603 547.3995 385.3954 542.546 387.7781 540.6501 377.1887 536.0241 378.8653 531.3981 375.6002 527.758 369.4231 525.7104 367.8347 528.5163 357.2453 521.0844 353.2742 521.5394 345.0675 517.2167 350.0092 512.9699 348.3325 509.3298 342.3319 508.6472 337.8314 512.7424 335.0958 508.5714 342.0671 505.0829 340.7434 501.7462 328.9186 504.3246 327.6832 503.1112 327.5949 503.0354 326.889 502.3528 332.1837 501.7462 331.8307 496.9685 337.7431 492.8733 337.2136 486.7306 329.8011 482.6354 334.3898 476.7202 330.2423 471.1084 336.5959 464.6623 341.8024 466.4823 346.7441 468.1507 349.6562 470.1983 358.3925 470.2742 358.3925 470.5017 358.7454 470.5017 359.5396 474.6726 362.187 474.7485 365.6286 474.521 373.9236 469.1366 376.0415 471.8667 380.8067 467.3924 386.8074 469.7433 392.1903 464.7381 395.1906 466.7857 400.8383 465.724 407.4567 459.6571 410.0158 449.6467 411.869 448.0542 414.9575 445.3241 416.1047 444.414 418.9286 444.1865 Z" />
        <path
            d="M 300.5037 446.4616 310.9166 443.1248 316.1231 447.9783 315.8583 450.6326 336.5959 464.6623 330.2423 471.1084 334.3898 476.7202 329.8011 482.6354 337.2136 486.7306 337.7431 492.8733 331.8307 496.9685 332.1837 501.7462 326.889 502.3528 327.5949 503.0354 327.6832 503.1112 328.9186 504.3246 340.7434 501.7462 342.0671 505.0829 335.0958 508.5714 337.8314 512.7424 342.3319 508.6472 348.3325 509.3298 350.0092 512.9699 345.0675 517.2167 353.2742 521.5394 357.2453 521.0844 367.8347 528.5163 369.4231 525.7104 375.6002 527.758 378.8653 531.3981 377.1887 536.0241 387.7781 540.6501 385.3954 542.546 387.1603 547.3995 386.8074 547.7029 383.6305 551.4188 383.4541 551.5705 379.836 551.343 379.7478 551.4188 377.5416 554.4523 379.3948 556.8032 372.2469 561.05 373.2176 563.3251 368.9819 565.3727 365.3638 561.9601 356.2746 563.2493 353.9802 567.4203 350.0092 568.1028 348.9502 577.0515 335.8017 586.0001 334.9193 586.6068 335.0958 587.2135 335.0075 587.441 333.7721 583.27 329.7128 582.2083 333.7721 579.8574 332.0954 572.653 330.0658 573.7147 322.0355 569.2403 316.0348 571.1362 318.0645 563.401 314.6229 557.7132 310.1224 555.6657 310.0342 551.6464 299.0035 558.0924 293.0911 554.3006 292.2969 553.7698 287.9729 545.1244 277.2953 550.8122 277.207 550.7363 275.7951 549.4471 270.3239 544.0627 268.1178 542.546 266.9706 543.001 267.5883 541.3326 261.6759 535.5691 261.5876 535.4932 253.1161 535.7208 241.7325 528.7438 242.7914 522.9803 238.5557 517.7476 241.2913 515.5483 240.1441 510.164 244.9976 503.187 244.3799 501.2153 236.4378 499.5469 238.8204 493.7834 236.3496 492.6458 238.1145 487.944 235.9966 486.7306 246.586 479.602 257.1754 478.0094 266.9706 472.1701 277.7365 478.0853 281.0898 475.5827 291.7674 474.4451 291.9439 474.4451 299.533 477.0236 300.3272 476.9477 298.1211 471.0325 299.6213 467.1649 304.8277 466.4065 304.1218 464.3589 309.1517 462.2355 312.5933 457.382 300.7684 451.9218 301.0332 451.5426 302.0921 450.0259 299.886 446.9166 300.5919 446.6891 300.5037 446.4616 Z" />
        <path
            d="M 387.1603 547.3995 387.2486 547.7029 391.7491 542.2427 399.1617 539.4367 399.8676 536.0241 408.0744 528.8197 415.84 527.1513 418.1344 523.587 432.1653 533.294 433.0478 541.3326 427.1354 545.0486 431.8123 554.3006 431.1946 557.6374 434.9892 560.4433 441.3428 560.0642 444.3431 565.221 444.5196 576.2931 451.2263 578.4924 453.2559 575.2314 457.6681 575.0797 457.2269 581.2225 469.7577 580.0091 475.3172 572.8805 483.4357 573.563 493.9369 583.5734 493.6721 587.8202 494.6428 588.1235 497.1137 589.0336 499.2316 589.7161 503.1143 593.2046 505.7617 596.5414 506.1147 596.9964 504.1733 603.2908 514.4097 608.0685 512.0271 611.0261 515.4686 618.5338 509.6445 618.0788 509.821 622.629 503.8203 621.0364 503.2026 623.4632 503.1143 623.539 510.3504 631.8052 520.5869 631.0468 522.7047 638.7063 521.9988 640.223 520.2339 643.939 497.9961 651.5984 490.76 657.4378 481.9355 657.4378 479.8176 661.2296 468.787 662.2913 468.5223 662.443 467.1104 663.353 463.4041 665.7798 463.4041 665.9314 463.6688 667.5998 463.757 668.5099 463.8453 668.5099 465.169 673.5151 465.2572 673.8942 462.5216 672.3017 458.7271 670.1783 458.1094 669.8749 451.7557 658.4995 447.8729 662.2155 446.9022 667.5998 443.8137 666.2348 433.0478 669.7233 428.1943 666.3865 436.7541 661.0021 436.1363 655.6936 424.0468 666.6898 422.4584 664.8697 424.6645 662.3671 419.8993 659.3337 414.6046 661.0779 412.2219 655.0869 404.4564 657.9686 398.544 653.1151 394.2199 653.646 394.1317 653.646 394.0435 653.4185 391.1314 649.7025 382.3951 649.8542 378.9536 653.3426 378.6888 653.5701 378.1593 648.1099 377.8064 643.939 374.5413 639.313 362.2752 635.142 361.0398 634.6869 358.4807 630.971 358.1277 630.516 358.216 630.516 369.6878 621.6431 370.7468 613.4528 367.6582 610.0402 368.5406 602.3049 357.5983 593.8113 352.2153 589.6403 345.7734 589.7919 341.2729 587.2135 340.6552 589.6403 336.4194 590.702 335.89 589.3369 335.0958 587.2135 334.9193 586.6068 335.8017 586.0001 348.9502 577.0515 350.0092 568.1028 353.9802 567.4203 356.2746 563.2493 365.3638 561.9601 368.9819 565.3727 373.2176 563.3251 372.2469 561.05 379.3948 556.8032 377.5416 554.4523 379.7478 551.4188 379.836 551.343 383.4541 551.5705 383.6305 551.4188 386.8074 547.7029 387.1603 547.3995 Z" />
        <path
            d="M 168.8421 359.6292 169.3716 358.8708 170.254 357.5058 167.3419 350.0738 165.8418 346.282 165.7535 346.1304 171.6659 346.5854 178.6373 343.3244 182.3436 347.8746 188.3442 342.7177 192.1388 345.372 192.227 345.4478 192.1388 344.6895 192.227 342.8694 197.4335 342.8694 197.4335 342.7177 198.7572 338.7743 199.5514 341.5044 204.1401 340.3668 202.5517 337.3334 206.7875 339.3051 204.8461 334.6791 217.2004 331.494 225.9366 321.2561 227.4368 320.9528 235.0259 319.891 245.0858 324.2895 244.9976 324.6687 244.8211 324.6687 240.7618 341.8077 241.2913 343.6278 244.9093 353.9415 252.8514 356.7474 252.4984 360.16 256.7342 364.9377 256.9989 365.9994 256.2929 368.047 257.6166 368.8054 264.235 372.673 264.9409 373.0522 263.6173 378.0574 262.7348 381.3183 262.7348 381.47 266.5294 392.5421 263.7938 390.9495 260.8817 389.2811 260.7934 389.357 250.3805 393.4521 246.939 391.9354 240.5853 394.1346 237.6732 416.8097 241.9972 425 238.8204 427.9576 239.1734 429.8535 238.5557 430.9152 227.0838 428.2609 219.8477 420.1465 218.0828 419.9189 216.0532 419.6914 207.8464 418.7814 203.6106 414.6104 203.9636 414.4587 200.9633 410.9703 191.0798 390.1153 189.4032 386.2477 189.0502 385.8685 180.9317 378.3607 170.1658 361.6768 168.8421 359.6292 Z" />
        <path
            d="M 266.5294 392.5421 266.5294 392.7696 265.6469 396.9406 266.6176 397.1681 266.7058 401.7941 264.588 402.0216 264.7645 402.0974 264.588 402.0974 268.0295 405.9651 266.5294 407.7093 274.7361 407.406 275.6186 408.1643 278.8837 411.2736 278.5307 416.2788 281.7075 417.4163 282.237 422.5732 280.9133 423.1041 282.5017 424.6966 283.1194 429.9293 283.2077 430.0052 283.2077 430.081 300.4155 431.8252 301.7391 438.6505 297.5916 440.0914 300.3272 446.4616 300.5037 446.4616 300.5919 446.6891 299.886 446.9166 302.0921 450.0259 301.0332 451.5426 300.7684 451.9218 312.5933 457.382 309.1517 462.2355 304.1218 464.3589 304.8277 466.4065 299.6213 467.1649 298.1211 471.0325 300.3272 476.9477 299.533 477.0236 291.9439 474.4451 291.7674 474.4451 281.0898 475.5827 277.7365 478.0853 266.9706 472.1701 257.1754 478.0094 246.586 479.602 244.0269 477.5544 245.7035 476.4169 242.4385 475.5068 234.4082 478.9953 233.261 476.341 238.8204 470.5017 233.0845 464.3589 232.7315 464.5106 224.0835 469.3641 224.613 463.2972 222.5833 462.3872 221.7891 467.3924 218.1711 468.0749 218.9653 463.6764 211.9939 465.1931 207.8464 456.3961 198.4924 463.2214 204.1401 457.9887 196.6393 452.0735 187.4618 437.3613 190.0209 435.6929 187.3735 431.9769 188.1678 429.7776 188.3442 429.2468 195.1391 433.1144 206.1697 430.2327 205.552 426.1375 207.7582 425.1516 203.7871 424.6966 205.9933 422.0424 201.0515 415.8238 203.6106 414.6104 207.8464 418.7814 216.0532 419.6914 218.0828 419.9189 219.8477 420.1465 227.0838 428.2609 238.5557 430.9152 239.1734 429.8535 238.8204 427.9576 241.9972 425 237.6732 416.8097 240.5853 394.1346 246.939 391.9354 250.3805 393.4521 260.7934 389.357 260.8817 389.2811 263.7938 390.9495 266.5294 392.5421 Z" />
    </g>
</svg>