<?xml version="1.0"?>
<svg xmlns="http://www.w3.org/2000/svg" version="1.2" baseProfile="tiny" width="800" height="837"
    viewBox="0 0 800 837" stroke-linecap="round" stroke-linejoin="round">
    <g id="haryana_district">
        <path
            d="M 615.2536 541.5474 617.2788 544.3738 617.9019 544.3738 621.8744 544.3049 627.5605 544.236 630.2088 544.236 633.0129 546.0284 633.1687 546.0973 633.7139 552.1639 630.8319 555.5419 634.7265 560.988 631.7666 566.0895 637.7643 569.95 633.0908 577.6022 633.0908 577.6712 628.4173 577.6022 625.8469 582.0832 630.3646 587.3226 630.5982 587.6673 628.9625 589.4597 628.3394 590.0801 628.2615 590.149 624.6006 586.84 621.0176 588.7703 616.4999 586.7021 610.3464 598.4906 604.0372 599.3179 605.5171 607.5216 616.1883 615.1048 614.241 619.1032 615.5652 619.5858 612.7611 620.8267 600.1426 619.1722 596.7154 626.6865 592.1198 629.3062 586.2 625.9282 583.6296 630.616 579.1119 627.9274 569.5312 622.2055 572.9584 636.4758 570.4659 645.7825 577.3982 652.1938 573.4258 657.2952 565.0135 653.3657 562.5988 652.2627 560.4958 651.2976 559.7947 650.9529 555.978 646.1961 549.9804 639.7159 547.6436 638.7507 538.764 636.4068 532.9221 644.6795 530.819 643.9211 533.3116 638.406 520.9268 636.5447 505.7379 641.2325 502.077 639.6469 502.3107 631.5122 492.2627 627.5138 484.3177 627.7895 482.9157 631.7879 470.5309 628.8236 467.4931 628.1342 464.6111 628.2721 464.2996 627.3759 462.6638 626.9622 463.2091 624.7562 464.2217 620.6888 473.335 621.3782 477.2296 604.833 475.1265 599.3179 477.3075 599.9383 480.9684 590.5627 485.0966 594.9058 492.2627 596.0088 492.3406 596.0088 494.3657 607.3148 497.3256 607.3148 500.2855 595.2505 500.2855 594.9747 504.258 595.2505 508.6199 591.2521 501.6097 584.3582 508.8536 581.3938 512.5145 574.3621 500.5971 570.019 497.6372 569.1228 497.5593 568.916 495.8457 563.3319 506.1274 560.0918 510.022 558.8509 523.3414 559.7471 525.1329 556.3002 537.4398 560.4365 540.2439 557.1964 541.5681 555.5419 543.9827 545.8215 549.7467 546.5799 554.4981 542.7882 551.3045 537.1353 550.993 536.6527 553.3297 534.6535 554.1865 533.8952 554.3423 533.6884 554.7318 534.4467 560.7294 540.4443 560.9631 544.8564 570.6996 547.1314 570.5438 551.8192 566.6492 553.129 565.0914 558.2305 568.2849 560.2297 570.6217 560.1608 572.4132 554.3699 578.8003 554.8525 583.0064 551.6813 588.6925 558.3684 602.6351 541.2027 606.6855 541.892 611.6706 537.7557 615.2536 541.5474 Z" />
        <path
            d="M 560.4958 651.2976 562.5988 652.2627 565.0135 653.3657 573.4258 657.2952 577.3982 652.1938 570.4659 645.7825 572.9584 636.4758 569.5312 622.2055 579.1119 627.9274 583.6296 630.616 586.2 625.9282 592.1198 629.3062 596.7154 626.6865 600.1426 619.1722 612.7611 620.8267 615.5652 619.5858 621.4849 616.8283 632.1561 619.1722 639.4 614.898 647.5786 616.6215 649.0586 614.8291 645.0861 612.1405 646.7997 609.8655 656.8477 616.07 665.4937 615.7253 668.2199 617.2419 669.6999 618.0002 675.7754 621.3093 675.3081 623.2396 673.205 627.6516 676.5543 634.2697 686.6023 638.9576 687.3034 639.3022 689.4843 644.6105 685.9013 647.2991 684.1877 648.54 684.8108 666.8087 697.0398 672.8753 701.4796 675.0124 702.4922 675.5639 702.1028 679.976 699.8439 682.1131 694.781 685.3532 693.6905 687.9729 696.183 692.6607 693.6905 694.6599 688.7054 697.0728 680.2931 690.4547 679.8258 690.5925 675.6196 692.2471 671.1798 689.8342 668.9988 691.9024 665.7274 689.2138 663.2348 693.2122 660.6644 692.5918 659.2624 685.629 650.3827 684.526 647.6565 669.911 644.8524 664.8785 639.4779 662.6035 632.7792 667.9807 627.872 665.0853 623.588 671.5655 620.8618 671.014 621.0955 671.4276 624.0553 677.1495 622.887 680.5965 621.5628 681.5616 618.525 683.2851 613.3842 680.8033 608.7107 689.2827 607.1529 687.835 605.9066 686.663 597.1048 686.4562 596.7933 683.0093 593.0545 682.5267 589.0041 690.7304 582.0717 684.457 571.2448 680.3207 562.8325 680.5275 564.7798 667.8428 561.5862 667.0156 559.8726 670.5314 555.9001 669.4284 559.1716 656.6058 560.1063 653.021 560.4958 651.2976 Z" />
        <path
            d="M 702.1028 679.976 702.4922 675.5639 701.4796 675.0124 697.0398 672.8753 684.8108 666.8087 684.1877 648.54 685.9013 647.2991 689.4843 644.6105 689.9517 644.5416 691.9769 643.1628 697.5072 643.3007 702.0249 642.5424 703.8164 641.784 708.412 638.2682 707.8668 632.7531 707.711 632.3395 704.3616 631.0986 706.4647 626.8244 707.01 625.7214 709.6583 624.7562 719.0053 621.2403 725.0808 624.5494 730.9227 618.9654 733.571 615.1048 734.5057 619.8616 734.6615 620.3441 734.8173 620.3441 739.7245 620.7578 741.9833 627.9274 749.0714 628.6857 746.9684 631.6501 755.5365 631.8569 756.0038 637.9235 762.9362 639.6469 763.1698 641.9909 766.7529 640.9568 768.2328 643.6454 765.6624 646.6097 773.6852 653.5036 771.5042 658.8119 765.1171 662.4656 774.3083 669.911 773.3736 676.3912 770.1022 678.6662 770.5695 683.5608 785.369 686.0426 777.8914 690.5925 781.4744 694.2463 779.6829 697.0728 773.0621 695.5561 772.6726 695.4872 772.5947 694.591 765.0392 692.8675 761.3004 695.4872 755.6922 693.2812 751.0187 696.7281 749.0714 693.2122 741.8275 691.4198 740.036 687.6971 732.9479 687.9039 727.1839 681.4927 727.106 681.4927 723.6009 682.7336 710.7488 678.4594 710.5151 678.3904 710.1256 682.0442 704.9848 679.0798 704.7511 679.0109 704.2059 679.3556 702.1028 679.976 Z" />
        <path
            d="M 362.5731 648.54 363.9751 643.4386 365.1435 639.3022 365.6887 637.5098 385.7069 634.4076 393.4182 637.1652 394.4307 649.4362 410.8659 647.7128 417.954 633.4425 418.1877 633.0288 427.8463 632.6841 429.482 631.0986 430.6504 629.9266 432.1303 637.7856 437.4269 636.4758 438.128 634.8212 443.9698 634.8212 445.995 628.5478 452.3042 630.8228 453.0053 636.2 462.5859 638.1992 463.3649 638.3371 461.3397 644.4037 466.87 645.7135 467.571 651.2976 471.3098 653.5036 474.3476 654.9513 480.4231 654.6066 482.5262 661.4315 483.6946 662.3277 483.6946 665.2921 483.6167 665.361 483.6167 665.5678 478.5537 669.4973 479.8779 675.0124 477.3854 678.2525 479.2548 681.3548 477.0738 690.6615 473.335 690.7994 471.6993 695.2114 469.6741 695.6251 468.1941 697.5553 469.4404 702.45 464.4553 702.1742 461.5734 705.6212 461.4955 705.6212 467.6489 707.2067 465.8574 709.8264 471.7772 709.9643 481.7473 715.9619 475.7496 721.6838 468.8173 720.2361 466.7921 722.9247 466.87 722.9247 466.7921 722.9247 480.4231 730.3701 476.9959 740.2283 471.3098 743.8821 464.4553 741.2624 464.7669 735.3337 456.5104 730.6459 451.9148 731.4042 450.6685 735.1958 435.7912 734.0238 439.9195 740.0904 445.2161 738.7806 440.1531 743.8821 435.0902 742.3654 430.8061 748.432 431.663 754.6365 437.5048 756.6357 432.8313 772.4916 441.2436 775.2491 439.3742 783.6596 443.8919 787.3823 443.1909 788.6232 447.3971 790.2777 447.3971 790.3467 445.3719 794.5519 440.8542 793.38 434.9344 799.0329 429.1704 793.7936 423.6401 792.6216 424.4969 788.83 421.3813 785.8657 412.5795 783.4528 411.8006 787.4512 409.3859 788.2096 409.0744 787.6581 405.4135 786.555 402.2199 789.933 386.6416 788.2096 382.6691 785.452 385.9406 777.7998 383.6817 774.9734 386.7195 772.2848 373.8673 768.9068 372.7769 766.1492 372.699 765.6667 376.4378 761.6682 382.9807 765.0462 385.3174 756.7046 389.913 753.6713 381.1892 752.0168 381.4228 747.8116 387.3426 749.1903 388.8225 746.0881 382.5912 743.7442 383.448 741.5382 388.3552 738.1602 388.6668 738.0223 394.1192 740.0904 394.275 734.4375 392.094 732.9898 396.378 734.0238 400.3505 728.9913 395.8328 725.8891 391.8603 732.8519 385.9406 735.8163 383.5259 734.8511 386.9531 730.9216 385.7069 727.13 374.2568 725.4065 376.1262 720.5119 383.9933 716.0309 389.6794 716.5135 391.8603 708.7923 394.275 709.5507 398.0138 705.0696 407.9839 705.759 406.5818 711.7567 410.5543 711.7567 414.1373 711.7567 413.5142 710.3779 412.5795 708.1029 408.2955 698.3137 401.9862 697.3485 404.2451 691.6956 394.0413 687.4214 396.6896 677.701 386.4079 673.0822 382.9028 666.6019 379.2419 667.8428 378.463 662.7414 372.8548 661.983 369.116 652.9521 364.5982 653.021 363.5078 648.4021 362.5731 648.54 Z" />
        <path
            d="M 464.6111 628.2721 467.4931 628.1342 470.5309 628.8236 482.9157 631.7879 484.3177 627.7895 492.2627 627.5138 502.3107 631.5122 502.077 639.6469 505.7379 641.2325 520.9268 636.5447 533.3116 638.406 530.819 643.9211 532.9221 644.6795 538.764 636.4068 547.6436 638.7507 549.9804 639.7159 555.978 646.1961 559.7947 650.9529 560.4958 651.2976 560.1063 653.021 559.1716 656.6058 555.9001 669.4284 559.8726 670.5314 561.5862 667.0156 564.7798 667.8428 562.8325 680.5275 571.2448 680.3207 582.0717 684.457 589.0041 690.7304 593.0545 682.5267 596.7933 683.0093 597.1048 686.4562 605.9066 686.663 607.1529 687.835 608.7107 689.2827 608.9444 689.4895 608.3991 689.9032 607.4644 691.4887 606.7634 691.4198 601.9341 694.522 596.0922 694.0395 597.1048 699.1409 592.0419 700.8644 594.1449 706.4484 592.665 710.0332 584.4085 711.4809 579.5792 716.996 572.4911 715.2726 565.2471 725.4755 557.5359 725.0618 556.8348 738.9874 560.34 744.2957 540.0881 748.3631 534.6357 754.5675 530.5854 756.3599 528.3265 756.1531 527.3139 754.3607 528.6381 739.1253 524.8993 737.5397 519.9921 740.2973 516.7985 736.7814 505.8937 737.0571 507.6073 732.9208 514.7734 734.3685 517.8111 732.5072 504.1801 725.1308 508.1526 720.0293 517.2659 722.4422 517.889 717.5475 514.8512 715.893 515.3965 714.721 512.4366 714.5142 511.1903 713.8938 510.6451 712.2393 509.8662 710.1022 509.6325 709.2749 504.258 710.7226 497.0141 711.4809 491.8732 710.8605 489.6143 712.3082 484.7072 712.7908 480.8905 711.2052 481.202 706.7931 478.0085 704.656 472.7898 703.6909 469.4404 702.45 468.1941 697.5553 469.6741 695.6251 471.6993 695.2114 473.335 690.7994 477.0738 690.6615 479.2548 681.3548 477.3854 678.2525 479.8779 675.0124 478.5537 669.4973 483.6167 665.5678 483.6167 665.361 483.6946 665.2921 483.6946 662.3277 482.5262 661.4315 480.4231 654.6066 474.3476 654.9513 471.3098 653.5036 467.571 651.2976 466.87 645.7135 461.3397 644.4037 463.3649 638.3371 462.5859 638.1992 464.3775 629.6508 464.6111 628.2721 Z" />
        <path
            d="M 608.7107 689.2827 613.3842 680.8033 618.525 683.2851 621.5628 681.5616 622.887 680.5965 624.0553 677.1495 621.0955 671.4276 620.8618 671.014 623.588 671.5655 627.872 665.0853 632.7792 667.9807 639.4779 662.6035 644.8524 664.8785 647.6565 669.911 650.3827 684.526 659.2624 685.629 660.6644 692.5918 663.2348 693.2122 665.7274 689.2138 668.9988 691.9024 671.1798 689.8342 675.6196 692.2471 679.8258 690.5925 680.2931 690.4547 688.7054 697.0728 693.6905 694.6599 693.7684 694.591 693.9242 694.8667 695.5599 697.7622 694.0799 701.0023 688.9391 699.5546 687.3813 704.725 675.8533 718.3748 681.3836 722.3732 678.8911 729.405 682.7078 733.6792 680.371 737.264 683.0193 741.8828 679.4363 747.8116 683.7204 748.9835 681.7731 757.1183 685.3561 760.9788 691.2758 762.8402 692.7558 760.2205 697.5072 763.3227 704.6732 774.3529 712.7739 778.765 717.1359 780.5574 719.5505 776.1453 724.5356 777.4551 730.4553 786.8997 732.7921 786.2103 730.2217 789.7952 729.8322 790.3467 720.5631 792.4148 717.1359 799.0329 713.475 795.0345 707.4773 801.8594 706.231 802.273 704.2837 799.5155 698.6755 798.3435 696.6504 792.8974 696.4946 792.5527 693.7684 796.3443 695.6378 798.964 690.1075 802.342 688.0823 800.9632 693.301 796.3443 685.7455 794.483 685.6676 794.483 685.5898 796.8958 685.1224 801.9973 679.4363 804.9616 676.3206 800.5496 672.6597 802.342 664.0138 795.1724 656.5362 793.38 651.7069 804.1344 659.2624 806.2025 660.1192 808.8222 664.4032 807.4434 666.8179 814.613 660.1971 817.5774 654.2773 811.9244 649.9933 812.6828 647.8902 816.2676 645.0082 814.9577 639.4 836.0529 637.8422 835.2257 630.4425 831.0204 630.3646 831.1583 627.7941 835.5014 622.9649 835.8461 618.9924 830.0553 620.9397 827.8492 617.7461 825.0228 618.8366 824.8849 625.6911 824.4023 617.9798 819.7834 617.5124 816.1297 624.289 797.7231 622.0302 794.9655 622.887 790.6914 628.5731 791.4497 630.2088 787.9338 629.0404 774.215 632.3898 774.4219 632.6234 768.7 627.4826 767.5969 629.1183 752.2236 627.3268 749.4661 637.4527 712.515 631.7666 711.5499 632.4676 709.6196 627.6384 708.7923 617.5124 701.0023 621.1734 696.797 612.5274 695.3493 613.0726 692.316 607.4644 691.4887 608.3991 689.9032 608.9444 689.4895 608.7107 689.2827 Z" />
        <path
            d="M 693.6905 694.6599 696.183 692.6607 693.6905 687.9729 694.781 685.3532 699.8439 682.1131 702.1028 679.976 704.2059 679.3556 704.7511 679.0109 704.9848 679.0798 710.1256 682.0442 710.5151 678.3904 710.7488 678.4594 723.6009 682.7336 727.106 681.4927 727.1839 681.4927 732.9479 687.9039 740.036 687.6971 741.8275 691.4198 749.0714 693.2122 751.0187 696.7281 755.6922 693.2812 761.3004 695.4872 765.0392 692.8675 772.5947 694.591 772.6726 695.4872 771.8158 695.2804 772.0495 700.7955 773.2179 700.5886 774.6978 700.3818 780.9291 699.4856 784.1227 700.0371 784.4343 700.7265 783.0322 704.3803 782.1754 705.3454 772.9842 706.7242 773.5294 710.7226 770.258 712.9976 775.6325 716.0309 772.2832 723.6831 767.9991 720.5808 767.9212 720.5808 767.2981 722.3043 766.0518 725.6823 765.9739 725.8891 766.2076 725.8891 766.4413 726.1649 766.2855 726.1649 772.7505 732.9208 768.3107 737.5397 775.7104 739.6768 774.6199 742.0207 783.2659 750.5691 777.424 754.7744 776.8009 755.188 777.2682 757.463 783.8111 758.4281 783.889 759.1175 781.3186 764.3568 780.0723 766.6318 776.723 764.8394 772.9063 766.8386 770.4917 763.5296 766.1297 765.8735 766.7529 775.0423 763.793 778.0756 761.7678 779.7301 761.612 779.7991 753.5892 776.7658 752.1092 775.8006 751.8755 776.0764 749.383 779.9369 752.265 784.9695 751.3303 784.9695 738.0887 784.6937 733.9605 784.6248 732.7921 786.2103 730.4553 786.8997 724.5356 777.4551 719.5505 776.1453 717.1359 780.5574 712.7739 778.765 704.6732 774.3529 697.5072 763.3227 692.7558 760.2205 691.2758 762.8402 685.3561 760.9788 681.7731 757.1183 683.7204 748.9835 679.4363 747.8116 683.0193 741.8828 680.371 737.264 682.7078 733.6792 678.8911 729.405 681.3836 722.3732 675.8533 718.3748 687.3813 704.725 688.9391 699.5546 694.0799 701.0023 695.5599 697.7622 693.9242 694.8667 693.7684 694.591 693.6905 694.6599 Z" />
        <path
            d="M 497.5593 568.916 497.6372 569.1228 500.5971 570.019 512.5145 574.3621 508.8536 581.3938 501.6097 584.3582 508.6199 591.2521 504.258 595.2505 500.2855 594.9747 500.2855 595.2505 497.3256 607.3148 494.3657 607.3148 492.3406 596.0088 492.2627 596.0088 485.0966 594.9058 480.9684 590.5627 477.3075 599.9383 475.1265 599.3179 477.2296 604.833 473.335 621.3782 464.2217 620.6888 463.2091 624.7562 462.6638 626.9622 464.2996 627.3759 464.6111 628.2721 464.3775 629.6508 462.5859 638.1992 453.0053 636.2 452.3042 630.8228 445.995 628.5478 443.9698 634.8212 438.128 634.8212 437.4269 636.4758 432.1303 637.7856 430.6504 629.9266 429.482 631.0986 427.8463 632.6841 418.1877 633.0288 417.954 633.4425 410.8659 647.7128 394.4307 649.4362 393.4182 637.1652 385.7069 634.4076 365.6887 637.5098 367.2466 631.9948 366.8571 631.5811 359.3795 623.1706 373.0105 625.6524 373.7116 621.585 364.1309 620.1373 364.3646 616.4146 363.5857 616.4836 359.5353 616.7593 358.8343 622.757 343.2559 617.3798 343.957 614.6912 346.4495 607.9352 351.6682 603.3163 351.123 598.1459 352.6029 597.3876 363.2741 592.7687 378.7745 593.6649 408.5291 577.6022 416.8635 580.9113 414.7605 574.2242 420.836 575.9477 421.2255 581.7385 423.7959 582.4969 424.4969 578.0848 421.6149 574.0174 424.0296 572.5697 435.246 577.3954 438.5174 573.7417 449.2665 575.1204 448.7991 570.3637 452.2264 567.8819 450.6685 563.5388 455.1083 558.8509 459.3145 558.5062 460.7944 549.0617 464.4553 547.6139 464.4553 541.961 473.1792 540.7201 488.2902 548.2344 485.3303 558.782 491.328 560.9191 487.1997 567.2614 486.7324 568.0198 489.6143 570.5016 493.5089 573.8106 497.0141 568.7092 497.5593 568.916 Z" />
        <path
            d="M 698.1303 113.3009 698.6755 119.2986 698.9092 119.0918 702.7259 115.3002 712.2287 115.0933 715.4223 119.1607 715.578 119.4365 715.6559 119.4365 720.3294 118.816 726.7944 124.1243 735.2846 120.9531 737.8551 127.5023 743.6969 125.572 748.8378 128.8811 746.4231 131.6386 748.1367 133.5689 761.3783 121.5736 762.0015 127.4333 752.6545 133.2931 758.029 136.9469 769.7906 133.0863 773.14 134.603 774.1526 128.8121 778.3587 124.6758 785.369 137.0847 786.07 137.4294 790.1204 139.7733 793.1581 141.4968 793.0023 141.0832 798.7663 143.7028 799 143.9097 792.4571 153.6989 793.7813 159.4208 782.2533 166.7973 780.306 173.4154 766.675 191.2705 761.2225 196.303 754.1344 196.303 753.9007 197.6128 752.966 204.4377 747.5915 209.3324 747.7473 209.4013 752.7324 211.4005 750.7072 213.0551 741.5939 214.5028 730.2217 224.0852 722.1988 223.6716 715.8117 227.1185 715.3444 238.7002 707.9447 243.7327 702.7259 253.1084 696.2609 253.522 694.2357 252.5569 692.3663 250.2819 688.4717 245.3872 688.4717 245.3183 687.8486 245.4562 679.3584 246.2834 679.3584 243.0433 675.5417 239.8722 675.0744 239.4585 673.4387 235.4601 669.5441 229.6003 666.5842 227.8079 662.5338 218.9148 661.677 217.0535 661.5991 216.9156 661.9886 211.4695 666.74 209.1945 664.8706 207.471 661.5212 205.6097 662.6117 199.3363 662.9233 196.234 663.2348 196.234 669.6999 197.1992 672.5818 191.4773 664.8706 187.4788 665.1042 183.2046 668.6094 180.3782 678.1122 179.413 683.0193 183.894 686.135 178.8615 685.5119 178.1032 678.5795 175.8282 678.8132 168.6586 680.0594 166.1768 680.5268 165.0738 680.9163 164.1776 686.9139 162.2473 687.537 158.9383 693.4568 157.6974 690.3411 155.2156 689.3286 151.2861 686.2908 146.5983 685.9013 146.7361 686.135 146.4604 686.6023 145.9089 688.1602 143.9097 690.419 144.9437 691.9769 140.6695 688.2381 127.7091 687.6928 125.8478 688.8612 121.7804 696.2609 115.0244 698.1303 113.3009 Z" />
        <path
            d="M 661.5212 205.6097 664.8706 207.471 666.74 209.1945 661.9886 211.4695 661.5991 216.9156 661.677 217.0535 662.5338 218.9148 666.5842 227.8079 669.5441 229.6003 673.4387 235.4601 675.0744 239.4585 675.5417 239.8722 675.1523 239.5275 674.9186 240.9752 670.0893 250.0061 669.7777 250.3508 658.6392 251.5917 653.4984 249.2478 650.6943 251.316 640.7242 248.3516 632.0003 255.1765 633.636 259.7265 627.4047 256.6932 624.7564 259.6575 619.4597 258.2098 614.6305 268.2748 608.7107 269.1021 602.4794 262.7598 599.7531 264.8279 596.4817 262.8287 592.8208 268.4127 582.4612 271.7907 577.9435 269.4468 577.4761 269.171 576.7751 270.2741 576.0741 270.7566 567.7397 264.759 564.3903 257.5204 558.3927 260.209 540.0102 258.1409 534.3242 262.484 533.0779 260.8984 523.0299 264.3453 508.7757 260.0022 514.0723 249.041 509.0873 244.56 506.3611 247.0418 501.9212 244.8357 500.2855 239.1138 502.778 236.0116 497.4814 229.945 509.243 212.7104 509.1652 212.5725 513.0597 213.124 518.6679 214.1581 520.4594 219.4663 529.2612 218.4323 537.0504 211.8831 542.7365 216.433 541.5681 219.4663 546.9426 218.777 554.1865 211.6073 551.9277 209.2634 554.3423 205.1961 552.7845 200.5082 553.7192 199.612 553.7192 199.5431 553.875 199.4742 554.8876 198.9226 563.3777 191.753 564.2346 190.1674 565.2471 190.0985 584.6422 188.8576 590.0946 182.9978 598.3511 182.2395 599.831 173.7601 599.9089 173.6911 599.9089 173.6222 600.0647 173.6911 604.894 175.1388 606.9192 172.7949 611.2032 175.6903 609.1001 178.5858 616.9672 183.6872 615.2536 187.0652 620.3165 189.4091 625.8469 185.4107 634.9602 188.5129 629.8972 193.6144 629.8972 194.0969 635.1939 198.9226 642.5936 194.9931 661.5212 205.6097 Z" />
        <path
            d="M 509.1652 212.5725 509.243 212.7104 497.4814 229.945 502.778 236.0116 500.2855 239.1138 501.9212 244.8357 506.3611 247.0418 509.0873 244.56 514.0723 249.041 508.7757 260.0022 523.0299 264.3453 533.0779 260.8984 534.3242 262.484 540.0102 258.1409 558.3927 260.209 564.3903 257.5204 567.7397 264.759 576.0741 270.7566 576.3078 270.8945 569.6091 281.4421 571.9458 286.6814 564.2346 297.3669 567.8176 301.2275 565.7924 313.8432 571.6343 315.5667 569.2975 322.5295 564.2346 320.0477 557.3022 321.6333 543.8269 332.7324 533.6231 332.1809 527.6255 336.3862 523.0299 336.0415 530.118 342.177 525.1329 347.2095 524.1204 355.9647 519.2911 360.17 518.2006 361.204 517.0322 360.4457 513.8387 354.9996 513.605 354.5859 512.5145 354.2412 507.7631 353.0004 507.2958 352.8625 501.9212 357.895 499.6624 353.8276 486.0313 358.1707 485.3303 358.2397 478.9432 351.208 481.3578 347.761 479.4105 344.9345 465.8574 342.3838 464.0659 345.4171 466.7142 350.6564 459.6261 352.3799 458.6914 350.036 458.3798 346.8648 457.1335 345.9686 450.6685 341.5566 449.578 334.8695 439.2963 329.3544 441.5552 323.4257 438.9069 319.4962 432.8313 317.0834 436.7259 309.2933 435.8691 304.8812 440.3868 302.1926 439.9974 297.9874 445.294 289.9905 445.7613 284.1307 444.5151 283.4413 444.2035 280.2702 444.6709 278.8225 444.7488 278.6846 444.7488 278.7535 446.1508 279.1671 446.5403 276.9611 447.3192 276.2028 449.578 275.5134 452.2264 274.824 452.3042 274.7551 452.5379 272.618 452.8495 269.5847 452.8495 269.4468 443.7362 265.5173 439.2963 266.965 437.2712 265.2416 437.8164 258.0719 433.766 256.6242 442.412 244.3532 443.5025 236.4942 449.3444 233.7366 444.2814 232.0132 444.4372 229.7382 454.5631 215.1232 450.6685 210.918 445.2161 209.746 447.2413 205.4029 442.8794 197.8886 449.7338 200.8529 454.641 206.7816 462.7417 210.7111 465.5458 208.643 472.0108 213.5376 477.6969 212.0899 481.8252 207.1263 474.9707 202.5764 479.3327 200.3704 482.2925 207.1953 491.9511 208.0225 489.6922 203.3347 494.5215 200.784 488.6796 194.3038 497.0919 188.8576 497.3256 188.8576 502.3107 195.4757 499.195 199.3363 499.2729 199.4742 499.6624 200.0946 501.7654 203.8862 502.077 203.8862 507.2179 204.7824 507.9189 211.1937 507.9968 212.1588 508.9315 212.2967 509.1652 212.5725 Z" />
        <path
            d="M 212.1643 350.1049 212.398 352.6557 210.1391 356.723 212.0085 359.1359 204.7646 362.9275 208.2697 366.9259 206.5561 372.0274 211.6969 380.7826 207.7245 384.9879 194.8723 386.0219 191.0556 391.3991 193.0029 395.9491 197.1312 396.9832 199.0785 399.396 201.6489 402.5672 202.4278 403.4634 200.3247 406.7724 200.169 406.9103 200.169 406.9793 192.5356 409.7368 196.3523 417.0443 196.4302 417.1132 196.0407 426.6268 195.7291 434.1411 188.4852 432.9691 182.877 424.4207 177.8919 426.8336 179.3719 428.7638 176.412 430.6252 166.5977 431.6593 165.4293 436.0024 155.8486 434.6926 147.67 419.8708 139.9587 419.8018 134.5842 423.8003 125.0035 421.2495 121.7321 415.9413 124.9256 411.1845 119.5511 406.152 119.1616 400.499 96.8067 389.8825 89.0955 391.537 80.7611 400.6369 74.296 402.4293 68.3763 402.4983 63.3912 398.4998 47.735 397.9483 46.8003 407.9444 32.7019 409.3232 33.6366 399.7407 27.2495 393.7431 24.3675 385.6083 16.7341 384.5742 17.2015 376.3705 17.9804 374.6471 28.9631 375.888 33.1693 365.0646 38.4659 359.6185 38.7775 357.4124 26.5485 348.933 28.1842 332.8703 30.6767 329.7681 29.1968 325.9075 36.9859 301.0207 29.6641 297.229 26.7821 301.9858 23.3549 300.1245 16.111 303.985 2.3242 302.8131 1.3116 298.9525 1 295.7813 3.5704 285.0269 9.4123 280.408 17.3572 278.4778 22.9654 271.0324 18.5256 262.9666 9.9575 261.2431 14.1637 252.8326 15.4878 250.7645 32.0788 260.209 46.7224 261.8636 44.853 260.4159 46.0993 256.5553 53.8105 252.2811 59.7303 244.2153 60.1198 243.7327 66.429 247.6622 78.658 244.9736 86.8366 239.7343 86.9924 239.8032 90.1081 241.4577 89.2512 245.2494 93.6911 245.1804 98.053 248.972 106.3874 246.2145 110.282 250.0061 108.9578 252.7637 116.2018 250.4887 122.0436 261.7257 129.5212 264.8279 134.1947 271.6528 140.6597 271.9286 146.8911 267.1029 152.7329 269.171 157.0949 259.3818 158.7306 259.7265 159.5874 259.9333 160.1327 260.0712 160.2884 260.4848 164.183 268.7574 157.8738 275.0308 165.1956 280.6838 165.2735 280.7527 160.8337 283.3035 160.6 287.0261 169.4018 286.9572 173.4521 295.023 177.4246 292.748 175.4773 288.4739 177.113 282.2694 177.1909 282.2004 177.7362 281.7868 183.6559 277.5126 183.5001 277.9262 188.641 280.5459 188.0958 290.542 192.6135 291.5761 196.2744 301.0207 196.4302 301.4343 192.6135 306.9494 188.2515 304.8812 187.4726 305.7774 186.2264 308.3282 187.6284 317.497 177.8919 322.8053 182.7991 326.5969 181.6307 332.5945 194.9502 339.0058 191.4451 344.8656 195.7291 350.3118 194.9502 354.5859 204.6088 352.5867 206.634 349.6224 212.1643 350.1049 Z" />
        <path
            d="M 675.5417 239.8722 679.3584 243.0433 679.3584 246.2834 687.8486 245.4562 688.4717 245.3183 688.4717 245.3872 692.3663 250.2819 694.2357 252.5569 696.2609 253.522 702.7259 253.1084 702.648 253.2462 702.2586 253.9356 692.3663 261.381 696.4946 271.2392 690.419 277.099 689.0949 287.5776 687.8486 289.0943 682.3183 295.9882 676.087 297.229 675.7754 298.8836 675.7754 299.2283 675.5417 300.1934 680.4489 304.5365 678.8132 308.6039 679.3584 309.0865 679.2026 309.638 684.1877 315.291 683.0972 317.2902 683.4867 317.3591 683.0193 317.7727 681.3057 319.2894 678.969 327.3552 678.5016 329.1476 672.0366 331.5605 672.8934 340.4535 667.2073 342.7285 677.3332 350.1739 672.5818 353.1382 669.622 359.7563 678.5795 369.132 678.5795 369.2009 678.5795 369.2699 678.3458 369.4077 675.6196 372.3721 662.3001 380.369 661.7549 380.1622 657.3151 378.3008 657.393 373.8887 654.5889 377.6114 646.9555 379.0591 626.5479 369.7524 623.4322 369.8214 621.3291 373.613 614.6305 367.3396 608.1654 367.8911 598.5848 361.6866 591.964 373.544 591.7303 374.0266 587.6799 371.8206 583.9411 374.7849 584.4085 374.0266 582.3833 373.2683 580.6697 372.5789 577.9435 374.3713 570.3101 368.7183 569.687 368.2358 564.7019 370.7865 556.9127 367.5464 551.3824 373.1304 544.9953 370.3039 544.9174 370.235 538.9198 374.3024 525.3666 374.7849 524.354 373.0615 524.354 370.1661 517.7332 361.5487 518.2006 361.204 519.2911 360.17 524.1204 355.9647 525.1329 347.2095 530.118 342.177 523.0299 336.0415 527.6255 336.3862 533.6231 332.1809 543.8269 332.7324 557.3022 321.6333 564.2346 320.0477 569.2975 322.5295 571.6343 315.5667 565.7924 313.8432 567.8176 301.2275 564.2346 297.3669 571.9458 286.6814 569.6091 281.4421 576.3078 270.8945 576.0741 270.7566 576.7751 270.2741 577.4761 269.171 577.9435 269.4468 582.4612 271.7907 592.8208 268.4127 596.4817 262.8287 599.7531 264.8279 602.4794 262.7598 608.7107 269.1021 614.6305 268.2748 619.4597 258.2098 624.7564 259.6575 627.4047 256.6932 633.636 259.7265 632.0003 255.1765 640.7242 248.3516 650.6943 251.316 653.4984 249.2478 658.6392 251.5917 669.7777 250.3508 670.0893 250.0061 674.9186 240.9752 675.1523 239.5275 675.5417 239.8722 Z" />
        <path
            d="M 444.7488 278.6846 444.6709 278.8225 444.2035 280.2702 444.5151 283.4413 445.7613 284.1307 445.294 289.9905 439.9974 297.9874 440.3868 302.1926 435.8691 304.8812 436.7259 309.2933 432.8313 317.0834 438.9069 319.4962 441.5552 323.4257 439.2963 329.3544 449.578 334.8695 450.6685 341.5566 457.1335 345.9686 458.3798 346.8648 458.6914 350.036 459.6261 352.3799 466.7142 350.6564 464.0659 345.4171 465.8574 342.3838 479.4105 344.9345 481.3578 347.761 478.9432 351.208 485.3303 358.2397 486.0313 358.1707 499.6624 353.8276 501.9212 357.895 507.2958 352.8625 507.7631 353.0004 512.5145 354.2412 513.605 354.5859 513.8387 354.9996 517.0322 360.4457 518.2006 361.204 517.7332 361.5487 524.354 370.1661 524.354 373.0615 525.3666 374.7849 538.9198 374.3024 544.9174 370.235 544.9953 370.3039 551.3824 373.1304 556.9127 367.5464 564.7019 370.7865 569.687 368.2358 570.3101 368.7183 577.9435 374.3713 580.6697 372.5789 582.3833 373.2683 584.4085 374.0266 583.9411 374.7849 576.3857 387.6075 578.8003 389.1242 577.2425 393.812 557.2243 398.6377 555.7444 399.2581 555.277 406.5656 551.0709 412.5633 553.5634 414.9761 552.7066 416.286 553.1739 417.32 562.5988 421.3185 563.0662 425.3169 556.9127 424.9033 556.6012 424.9033 545.6963 419.1124 542.2691 421.3874 533 421.1806 531.2864 427.3851 534.8694 435.1062 532.6884 439.5872 526.1455 438.2774 523.8867 433.7274 510.9567 432.1418 516.3312 447.3773 520.5373 451.2378 514.7734 457.9249 511.7356 469.2997 511.1124 469.9891 510.6451 471.6436 503.0896 478.6754 492.6521 473.505 486.7324 476.0557 479.2548 471.5747 466.7921 470.8853 466.87 470.7474 471.0761 463.1642 470.9982 463.0953 471.0761 462.9574 467.8047 460.4756 466.4805 444.8265 461.4955 439.5872 447.475 437.0365 448.0981 431.935 443.8141 429.5222 437.5827 419.8708 443.3467 411.3913 435.246 405.9452 442.6457 399.8786 441.711 391.8817 438.7511 388.228 438.6732 388.159 430.0272 385.6772 429.8714 385.8841 423.5622 393.3294 418.6551 389.262 418.5772 389.1931 418.2656 389.262 413.2805 388.6416 409.8533 380.9205 409.5417 380.3 409.5417 380.2311 409.3859 380.3 398.3253 383.8848 396.5338 384.5053 394.5086 380.9205 388.9004 378.7834 393.4182 370.235 372.8548 365.5472 379.9429 352.8625 380.6439 351.5526 380.3324 351.208 380.7218 349.3466 380.7997 349.2777 380.0987 341.9702 376.8272 341.4187 378.8524 332.9392 374.9578 329.2165 377.5283 321.9091 373.0105 318.2553 376.5157 306.8115 385.9406 307.432 396.6117 300.0555 399.1042 303.0888 400.2726 302.8131 401.7526 302.4684 402.2978 302.3305 402.9209 301.0896 406.8934 296.126 411.0217 293.6442 411.4111 290.542 414.5268 286.6125 415.072 286.1989 419.5898 289.6458 420.4466 290.7488 420.7581 290.4731 427.0673 283.9239 434.2334 284.2686 435.1681 283.1656 440.3868 277.3747 440.6984 277.5126 444.7488 278.6846 Z" />
        <path
            d="M 196.0407 426.6268 196.4302 417.1132 196.3523 417.0443 192.5356 409.7368 200.169 406.9793 200.169 406.9103 200.3247 406.7724 202.4278 403.4634 201.6489 402.5672 199.0785 399.396 197.1312 396.9832 193.0029 395.9491 191.0556 391.3991 194.8723 386.0219 207.7245 384.9879 211.6969 380.7826 206.5561 372.0274 208.2697 366.9259 204.7646 362.9275 212.0085 359.1359 210.1391 356.723 212.398 352.6557 212.1643 350.1049 212.398 349.7602 216.5262 343.0043 208.8149 337.696 208.737 337.6271 210.1391 333.9044 210.3728 333.4218 215.981 331.2847 218.9408 323.8393 219.8755 321.1507 219.9534 321.2197 226.73 323.8393 223.0691 315.3599 230.0015 310.9478 234.9865 310.9478 233.9739 306.6736 233.9739 306.6047 238.1801 304.3987 240.2832 297.0912 240.5168 296.4707 241.2179 296.2639 250.7206 293.3685 252.3564 287.5776 252.59 286.8193 266.8442 294.8162 267.1558 295.023 267.2337 295.023 268.3242 299.4351 272.1408 295.6435 278.2943 296.4018 282.812 304.2608 289.277 301.0896 294.2621 302.1237 294.5736 301.9858 296.9104 295.8503 298.624 295.3677 299.4808 295.1609 299.7924 295.092 304.1543 294.9541 307.6594 294.8162 307.7373 294.8162 313.735 300.5381 314.3581 300.607 318.7201 285.3716 327.7555 287.5087 327.8334 287.4398 327.9113 287.5087 333.5974 283.1656 333.6753 283.0966 341.8539 287.233 342.9444 287.7155 345.9821 286.1299 347.9294 285.6474 348.3968 290.2663 355.9523 297.3669 356.8091 301.7101 364.1309 302.5373 366.0782 300.5381 374.3347 306.4668 376.2041 306.6047 376.5157 306.8115 373.0105 318.2553 377.5283 321.9091 374.9578 329.2165 378.8524 332.9392 376.8272 341.4187 380.0987 341.9702 380.7997 349.2777 380.7218 349.3466 374.4905 345.555 373.7116 344.7967 373.5558 345.0035 368.6486 351.5526 363.0404 350.5875 362.9625 356.0337 358.5227 355.689 357.2764 351.0701 353.7713 352.4488 352.8366 358.7223 349.0978 362.7896 340.296 359.8253 329.2354 363.6169 326.665 370.3729 334.0647 381.2652 331.728 386.9871 323.1599 391.7438 319.5769 389.5378 321.2905 386.3666 316.0717 383.0576 295.8199 386.5734 292.0032 390.0204 291.8474 398.0862 286.7845 400.8437 289.1991 404.98 285.4603 406.9103 283.3572 401.671 283.0457 401.671 270.0378 400.3612 266.6105 391.3302 261.937 392.0885 261.5476 392.2953 258.6656 393.7431 256.3288 394.9839 255.5499 396.3627 255.1605 397.19 254.1479 399.3271 255.7836 401.3263 249.6302 402.774 246.8261 398.4998 244.022 398.8445 240.9842 404.5664 237.0896 405.6694 236.5444 411.805 226.029 414.1489 225.5616 414.2867 223.147 420.6291 217.3051 418.9746 213.1769 422.7662 208.4255 423.1109 207.335 429.3843 197.4428 429.0396 196.0407 426.6268 Z" />
        <path
            d="M 380.7218 349.3466 380.3324 351.208 380.6439 351.5526 379.9429 352.8625 372.8548 365.5472 393.4182 370.235 388.9004 378.7834 394.5086 380.9205 396.5338 384.5053 398.3253 383.8848 409.3859 380.3 409.5417 380.2311 409.5417 380.3 409.8533 380.9205 413.2805 388.6416 418.2656 389.262 418.5772 389.1931 418.6551 389.262 423.5622 393.3294 429.8714 385.8841 430.0272 385.6772 438.6732 388.159 438.7511 388.228 441.711 391.8817 442.6457 399.8786 435.246 405.9452 443.3467 411.3913 437.5827 419.8708 443.8141 429.5222 448.0981 431.935 447.475 437.0365 461.4955 439.5872 466.4805 444.8265 467.8047 460.4756 471.0761 462.9574 470.9982 463.0953 471.0761 463.1642 466.87 470.7474 466.7921 470.7474 462.1186 476.4693 452.3821 477.2966 452.7716 491.7048 452.3042 492.1184 448.4097 495.5653 448.0202 495.3585 443.4246 492.8078 442.8015 491.9805 439.9974 487.9821 442.6457 485.2245 438.5953 479.8473 424.8864 481.2261 423.4843 483.8458 413.67 481.7087 409.3859 484.742 406.7376 486.6033 406.4261 486.8101 402.9209 484.1905 401.5968 483.1564 401.441 483.0874 401.2073 475.9868 392.9508 477.4345 385.8627 472.1262 381.7344 476.7451 384.6164 493.9797 384.6943 494.0487 380.0208 492.2563 367.0908 487.5684 363.352 496.3926 360.7816 495.8411 352.525 504.941 353.9271 509.0083 353.8492 509.2152 353.1482 510.1803 351.0451 513.0068 349.643 513.834 347.8515 514.9371 347.1505 515.4196 337.5698 512.1795 336.1678 512.6621 331.4164 518.1772 331.0269 518.6597 330.0922 518.5908 311.2425 515.8333 308.9057 515.5575 303.8428 508.5947 300.1818 508.7326 295.742 498.4607 290.2896 496.3926 284.0583 497.1509 274.7113 501.4251 269.4146 500.391 269.3367 500.3221 269.4146 500.2531 268.0126 491.8426 266.6884 491.5669 262.716 490.7396 255.472 489.154 248.6176 490.7396 250.1754 482.8117 247.605 478.1928 234.675 476.814 236.9338 463.4399 238.4138 462.1991 237.2454 461.5097 230.7804 457.5802 229.612 456.8908 229.6899 456.8218 231.4814 456.5461 232.1824 449.7901 238.6474 449.5144 240.5947 445.8606 239.1148 438.4842 236.077 437.3812 239.9716 430.9009 239.1927 428.8328 238.8032 427.6608 238.3359 426.4199 230.7804 427.7298 224.3933 435.3819 218.6293 432.8312 223.147 420.6291 225.5616 414.2867 226.029 414.1489 236.5444 411.805 237.0896 405.6694 240.9842 404.5664 244.022 398.8445 246.8261 398.4998 249.6302 402.774 255.7836 401.3263 254.1479 399.3271 255.1605 397.19 255.5499 396.3627 256.3288 394.9839 258.6656 393.7431 261.5476 392.2953 261.937 392.0885 266.6105 391.3302 270.0378 400.3612 283.0457 401.671 283.3572 401.671 285.4603 406.9103 289.1991 404.98 286.7845 400.8437 291.8474 398.0862 292.0032 390.0204 295.8199 386.5734 316.0717 383.0576 321.2905 386.3666 319.5769 389.5378 323.1599 391.7438 331.728 386.9871 334.0647 381.2652 326.665 370.3729 329.2354 363.6169 340.296 359.8253 349.0978 362.7896 352.8366 358.7223 353.7713 352.4488 357.2764 351.0701 358.5227 355.689 362.9625 356.0337 363.0404 350.5875 368.6486 351.5526 373.5558 345.0035 373.7116 344.7967 374.4905 345.555 380.7218 349.3466 Z" />
        <path
            d="M 583.9411 374.7849 587.6799 371.8206 591.7303 374.0266 591.964 373.544 598.5848 361.6866 608.1654 367.8911 614.6305 367.3396 621.3291 373.613 623.4322 369.8214 626.5479 369.7524 646.9555 379.0591 654.5889 377.6114 657.393 373.8887 657.3151 378.3008 661.7549 380.1622 662.3001 380.369 675.6196 372.3721 678.3458 369.4077 678.5795 369.2699 678.6574 369.2009 678.6574 369.3388 676.3985 376.7152 676.5543 376.7842 677.1775 377.4046 682.2404 381.6788 682.7857 382.0924 681.6952 383.2644 678.969 390.5719 685.1224 394.0188 677.2553 397.9483 676.9438 400.7748 677.5669 403.6702 683.4088 406.7035 685.7455 407.8755 686.0571 408.0823 685.3561 415.5966 684.4993 417.0443 684.4993 417.1132 684.1877 417.0443 681.7731 421.9389 680.4489 424.6965 680.371 424.9033 683.1751 433.4517 678.5016 437.3812 681.3836 444.1371 681.4615 450.2037 681.4615 450.2727 669.7777 451.5825 664.9485 447.0326 660.1971 448.756 657.7824 445.7917 652.33 447.5151 640.4126 444.7576 624.0553 436.8986 613.2284 443.8614 596.7933 437.3122 592.1977 428.9017 592.9766 423.3177 588.6925 420.9048 572.4132 428.8328 570.6996 426.2821 568.8302 426.0752 562.5988 421.3185 553.1739 417.32 552.7066 416.286 553.5634 414.9761 551.0709 412.5633 555.277 406.5656 555.7444 399.2581 557.2243 398.6377 577.2425 393.812 578.8003 389.1242 576.3857 387.6075 583.9411 374.7849 Z" />
        <path
            d="M 630.2088 544.236 627.5605 544.236 621.8744 544.3049 617.9019 544.3738 617.2788 544.3738 615.2536 541.5474 605.9845 528.3111 596.3259 526.5877 600.5321 518.0393 598.8184 510.3871 591.1851 511.8348 586.7452 508.5947 587.602 505.975 583.7075 501.6319 579.2676 502.666 575.0615 500.0463 577.7877 490.9464 572.6469 486.7412 556.3675 478.7443 534.5578 477.8481 527.3918 467.852 519.9921 473.1603 511.7356 469.2997 514.7734 457.9249 520.5373 451.2378 516.3312 447.3773 510.9567 432.1418 523.8867 433.7274 526.1455 438.2774 532.6884 439.5872 534.8694 435.1062 531.2864 427.3851 533 421.1806 542.2691 421.3874 545.6963 419.1124 556.6012 424.9033 556.9127 424.9033 563.0662 425.3169 562.5988 421.3185 568.8302 426.0752 570.6996 426.2821 572.4132 428.8328 588.6925 420.9048 592.9766 423.3177 592.1977 428.9017 596.7933 437.3122 613.2284 443.8614 624.0553 436.8986 640.4126 444.7576 652.33 447.5151 657.7824 445.7917 660.1971 448.756 664.9485 447.0326 669.7777 451.5825 681.4615 450.2727 681.5394 450.2727 679.5921 456.615 682.9414 462.8884 682.9414 463.0263 679.1247 468.5414 682.3962 472.2641 686.7581 472.5398 687.537 484.1905 693.2231 485.776 696.5725 496.1168 695.1704 508.1811 697.9745 509.7667 702.4922 512.3174 704.2059 513.2825 704.0501 514.5234 703.1154 523.1408 695.3262 521.8999 693.2231 526.5187 699.766 529.7589 700.0776 530.3793 689.718 528.9316 685.0445 534.4467 684.4993 534.3777 681.6173 533.9641 681.3057 533.8952 680.7605 528.0354 675.7754 528.9316 666.0389 522.5203 664.0138 526.5877 659.7297 526.5187 655.1341 535.6876 644.2293 533.8262 643.4504 533.9641 639.9452 538.3762 639.8673 538.3072 639.7895 538.4451 636.518 536.9285 636.2843 537.3421 636.7517 540.6512 632.6234 539.2724 630.2088 544.236 Z" />
        <path
            d="M 365.6887 637.5098 365.1435 639.3022 363.9751 643.4386 362.5731 648.54 357.5101 649.2983 353.1482 648.4711 343.8012 643.3007 343.7233 643.3696 334.5321 645.3688 333.0521 645.7135 330.4817 642.1977 336.012 637.303 335.9341 632.2016 322.5367 628.2721 323.4714 624.2047 313.9687 622.4123 305.9458 615.5874 305.4785 614.0018 306.0237 612.3473 304.9332 611.9336 296.443 609.0382 293.5611 594.4232 293.4832 594.3543 278.1385 591.4589 277.9048 585.668 272.9198 579.3946 272.6082 562.9872 270.1936 559.6093 273.3871 556.507 270.1936 557.2653 263.3391 548.3033 267.6231 535.1361 262.0149 531.3444 261.5476 519.2802 255.8615 511.697 256.6404 509.4909 263.8843 509.1462 264.6633 507.7675 265.3643 507.6296 265.2864 506.7334 268.3242 501.2872 269.1031 500.5289 269.3367 500.3221 269.4146 500.391 274.7113 501.4251 284.0583 497.1509 290.2896 496.3926 295.742 498.4607 300.1818 508.7326 303.8428 508.5947 308.9057 515.5575 311.2425 515.8333 330.0922 518.5908 331.0269 518.6597 331.4164 518.1772 336.1678 512.6621 337.5698 512.1795 347.1505 515.4196 347.8515 514.9371 349.643 513.834 351.0451 513.0068 353.1482 510.1803 353.8492 509.2152 353.9271 509.0083 352.525 504.941 360.7816 495.8411 363.352 496.3926 367.0908 487.5684 380.0208 492.2563 384.6943 494.0487 384.6164 493.9797 381.7344 476.7451 385.8627 472.1262 392.9508 477.4345 401.2073 475.9868 401.441 483.0874 401.5968 483.1564 402.9209 484.1905 406.4261 486.8101 406.7376 486.6033 409.3859 484.742 413.67 481.7087 423.4843 483.8458 424.8864 481.2261 438.5953 479.8473 442.6457 485.2245 439.9974 487.9821 442.8015 491.9805 443.4246 492.8078 448.0202 495.3585 448.2539 495.4964 447.7865 496.5994 444.1256 504.2516 452.1485 507.7675 450.0454 515.4196 479.8779 519.5559 483.0714 523.7612 475.1265 540.4443 473.1792 540.7201 464.4553 541.961 464.4553 547.6139 460.7944 549.0617 459.3145 558.5062 455.1083 558.8509 450.6685 563.5388 452.2264 567.8819 448.7991 570.3637 449.2665 575.1204 438.5174 573.7417 435.246 577.3954 424.0296 572.5697 421.6149 574.0174 424.4969 578.0848 423.7959 582.4969 421.2255 581.7385 420.836 575.9477 414.7605 574.2242 416.8635 580.9113 408.5291 577.6022 378.7745 593.6649 363.2741 592.7687 352.6029 597.3876 351.123 598.1459 351.6682 603.3163 346.4495 607.9352 343.957 614.6912 343.2559 617.3798 358.8343 622.757 359.5353 616.7593 363.5857 616.4836 364.3646 616.4146 364.1309 620.1373 373.7116 621.585 373.0105 625.6524 359.3795 623.1706 366.8571 631.5811 367.2466 631.9948 365.6887 637.5098 Z" />
        <path
            d="M 615.2536 541.5474 611.6706 537.7557 606.6855 541.892 602.6351 541.2027 588.6925 558.3684 583.0064 551.6813 578.8003 554.8525 572.4132 554.3699 570.6217 560.1608 568.2849 560.2297 565.0914 558.2305 566.6492 553.129 570.5438 551.8192 570.6996 547.1314 560.9631 544.8564 560.7294 540.4443 554.7318 534.4467 554.3423 533.6884 554.1865 533.8952 553.3297 534.6535 550.993 536.6527 551.3045 537.1353 554.4981 542.7882 549.7467 546.5799 543.9827 545.8215 541.5681 555.5419 540.2439 557.1964 537.4398 560.4365 525.1329 556.3002 523.3414 559.7471 510.022 558.8509 506.1274 560.0918 495.8457 563.3319 497.5593 568.916 497.0141 568.7092 493.5089 573.8106 489.6143 570.5016 486.7324 568.0198 487.1997 567.2614 491.328 560.9191 485.3303 558.782 488.2902 548.2344 473.1792 540.7201 475.1265 540.4443 483.0714 523.7612 479.8779 519.5559 450.0454 515.4196 452.1485 507.7675 444.1256 504.2516 447.7865 496.5994 448.2539 495.4964 448.0202 495.3585 448.4097 495.5653 452.3042 492.1184 452.7716 491.7048 452.3821 477.2966 462.1186 476.4693 466.7921 470.7474 466.87 470.7474 466.7921 470.8853 479.2548 471.5747 486.7324 476.0557 492.6521 473.505 503.0896 478.6754 510.6451 471.6436 511.1124 469.9891 511.7356 469.2997 519.9921 473.1603 527.3918 467.852 534.5578 477.8481 556.3675 478.7443 572.6469 486.7412 577.7877 490.9464 575.0615 500.0463 579.2676 502.666 583.7075 501.6319 587.602 505.975 586.7452 508.5947 591.1851 511.8348 598.8184 510.3871 600.5321 518.0393 596.3259 526.5877 605.9845 528.3111 615.2536 541.5474 Z" />
        <path
            d="M 622.3417 129.3636 621.407 129.2947 619.0703 129.2257 621.0955 126.675 616.0325 128.2606 618.9145 124.1932 620.8618 124.6758 623.5101 125.7788 622.1081 128.1227 621.9523 128.2606 621.9523 128.3295 622.3417 129.3636 Z M 676.3206 94.136 676.0091 93.7913 674.0618 96.4799 667.2073 95.1701 667.1294 95.308 664.3253 99.2375 655.6794 96.6178 655.6015 97.0314 654.6668 100.2715 658.2498 103.9942 648.4354 108.751 648.3575 112.8873 643.1388 116.4721 637.2969 114.7486 633.7139 118.5403 628.9625 117.4373 624.7564 120.4016 625.2237 123.5038 621.3291 120.8152 622.1859 119.5743 622.5754 119.0228 619.9271 114.404 627.4047 110.0608 627.6384 104.6147 616.6556 97.7898 620.706 99.3064 623.588 96.6178 621.7186 93.7913 624.5227 88.552 621.9523 86.8285 624.6006 86.4838 626.0805 82.2096 622.887 81.8649 622.0302 78.1423 618.2914 77.3839 615.643 73.2476 612.1379 74.0749 613.4621 64.2856 607.2307 69.8007 605.595 67.25 602.1678 68.2151 601.0773 64.2856 600.9215 63.872 600.8436 63.9409 600.3763 62.2864 606.0624 55.2547 606.2182 52.2903 606.0624 51.463 602.012 49.1881 603.6477 45.3275 603.6477 45.2586 608.477 35.1246 605.5171 31.9534 605.8287 25.1285 597.4943 22.7846 597.728 20.4407 589.9388 13.9605 587.9915 7.1355 587.9915 7.2045 599.6753 1 604.4266 10.3756 605.2835 10.9961 611.6706 15.1324 623.7438 8.1007 623.8996 12.5127 628.7288 14.7877 632.5455 20.9232 630.3646 29.3338 636.9075 27.3345 645.6313 32.1602 647.8123 31.0572 649.6817 38.8473 645.2419 41.4669 649.6817 42.6389 651.0059 47.1199 651.1616 46.9131 652.0184 49.1881 652.5637 50.7047 657.1593 49.6017 657.8603 46.9131 662.6896 49.6706 669.7777 49.5328 675.6196 54.0827 687.6149 63.3894 686.6023 71.7999 690.0296 75.5226 688.9391 84.4846 676.3206 94.136 Z" />
        <path
            d="M 552.7845 200.5082 554.3423 205.1961 551.9277 209.2634 554.1865 211.6073 546.9426 218.777 541.5681 219.4663 542.7365 216.433 537.0504 211.8831 527.5476 210.2286 529.1054 205.9544 536.8946 209.746 542.8143 209.1256 552.7845 200.5082 Z M 698.1303 113.3009 696.2609 115.0244 688.8612 121.7804 687.6928 125.8478 688.2381 127.7091 691.9769 140.6695 690.419 144.9437 688.1602 143.9097 686.6023 145.9089 686.135 146.4604 685.9013 146.7361 686.2908 146.5983 689.3286 151.2861 690.3411 155.2156 693.4568 157.6974 687.537 158.9383 686.9139 162.2473 680.9163 164.1776 680.5268 165.0738 680.0594 166.1768 678.8132 168.6586 678.5795 175.8282 685.5119 178.1032 686.135 178.8615 683.0193 183.894 678.1122 179.413 668.6094 180.3782 665.1042 183.2046 664.8706 187.4788 672.5818 191.4773 669.6999 197.1992 663.2348 196.234 662.9233 196.234 662.6117 199.3363 661.5212 205.6097 642.5936 194.9931 635.1939 198.9226 629.8972 194.0969 629.8972 193.6144 634.9602 188.5129 625.8469 185.4107 620.3165 189.4091 615.2536 187.0652 616.9672 183.6872 609.1001 178.5858 611.2032 175.6903 606.9192 172.7949 604.894 175.1388 600.0647 173.6911 599.9089 173.6222 599.9089 173.6911 599.831 173.7601 598.3511 182.2395 590.0946 182.9978 584.6422 188.8576 565.2471 190.0985 564.2346 190.1674 563.3777 191.753 554.8876 198.9226 553.875 199.4742 551.4603 195.2 542.8922 190.719 546.5531 185.6864 552.2392 187.6857 554.3423 190.0296 550.2919 192.3045 553.4855 194.5795 557.1464 190.7879 556.5233 186.5137 546.9426 184.5145 549.9025 180.6539 541.9575 177.2759 543.9048 174.2426 543.5154 173.9669 543.048 173.5532 541.9575 172.5881 541.0228 173.2086 539.2313 174.4495 530.819 180.3092 530.2738 180.3092 533.2337 176.2419 532.6884 170.6578 538.8419 168.8654 541.1786 171.0715 546.631 168.3139 548.8899 170.3131 552.0056 163.9708 563.8451 158.4557 565.5587 154.3194 571.2448 154.733 580.9034 147.977 580.0466 143.9786 573.5037 145.1506 576.3857 140.9453 573.27 140.8764 572.8026 140.187 572.1016 135.637 572.1016 135.2923 573.5037 134.8098 578.2551 133.0863 578.5666 132.9484 578.3329 132.5348 578.9561 129.0879 580.7476 128.3295 588.1473 125.2962 590.7956 127.2265 588.1473 129.5015 591.3408 131.9833 599.9089 132.8795 605.9066 126.0546 608.2433 131.2939 615.1757 133.5689 614.5526 137.3605 618.9145 140.3249 616.9672 143.565 620.8618 145.4952 621.0176 145.4263 629.1183 137.4984 622.3417 135.8438 622.9649 131.156 622.3417 129.3636 621.9523 128.3295 621.9523 128.2606 622.1081 128.1227 623.5101 125.7788 620.8618 124.6758 618.9145 124.1932 620.3944 122.0561 621.2512 120.8152 621.3291 120.8152 625.2237 123.5038 624.7564 120.4016 628.9625 117.4373 633.7139 118.5403 637.2969 114.7486 643.1388 116.4721 648.3575 112.8873 648.4354 108.751 658.2498 103.9942 654.6668 100.2715 655.6015 97.0314 655.6794 96.6178 664.3253 99.2375 667.1294 95.308 667.2073 95.1701 674.0618 96.4799 676.0091 93.7913 676.3206 94.136 676.2428 94.136 676.6322 94.6875 679.4363 98.686 680.8384 99.1685 694.1578 103.7874 697.7408 108.8199 698.1303 113.3009 Z" />
    </g>
</svg>