<?xml version="1.0"?>
<svg xmlns="http://www.w3.org/2000/svg" version="1.2" baseProfile="tiny" width="800" height="487"
    viewBox="0 0 800 487" stroke-linecap="round" stroke-linejoin="round">
    <g id="ladakh_district">
        <path
            d="M 491.0595 429.1152 486.8355 418.8727 488.4281 414.5791 490.7133 414.9929 490.921 413.9066 492.9984 413.3893 493.2754 409.6131 495.8376 410.3373 500.3386 409.7165 501.3773 404.5953 499.7846 400.9225 501.5158 398.1808 506.5016 397.9221 513.634 402.3709 511.9028 396.0599 507.3325 390.2661 509.7562 387.6797 509.5484 384.6276 510.5871 383.2309 514.1187 381.5755 513.357 380.0237 508.9944 378.5235 509.6177 376.1957 507.6095 375.3163 503.8702 367.9189 499.1614 368.0741 495.4913 369.7294 493.0677 368.0741 489.2591 368.6948 484.7581 364.4013 482.4729 358.0903 482.9577 356.9005 479.9108 354.8313 479.7723 353.0725 473.8863 348.9858 471.8089 348.3651 468.9006 349.7618 464.1225 345.9855 460.6602 346.3993 456.9901 344.175 454.982 345.4682 452.4198 345.0026 448.4035 342.3644 449.6499 340.6573 447.2263 338.3812 444.1102 339.0537 440.9941 337.0363 433.8617 335.8982 431.7843 333.3117 430.2608 334.1394 428.3219 331.0356 422.2975 325.5005 419.8046 326.4317 417.5194 329.3803 414.8188 329.8458 413.0876 327.6215 410.1793 327.0007 409.0713 324.6211 410.3178 322.6554 408.8636 321.5691 412.8799 315.6719 415.9268 315.258 415.5113 311.3266 418.4196 309.4126 423.8209 309.6712 426.5908 307.809 423.8901 301.0841 425.9675 297.7217 424.9288 293.4281 425.3443 291.6176 426.8678 291.4106 427.9757 289.7553 428.1142 284.7375 430.1916 282.7201 420.1508 277.3402 416.55 273.4604 413.8494 272.4258 414.9573 269.3738 413.1569 266.0114 412.3952 260.3211 413.5724 257.5794 410.387 257.1656 409.9023 255.0964 404.8473 257.0621 402.4929 256.5448 404.5703 251.1132 402.0774 248.5784 401.7312 245.785 399.169 242.2157 384.6965 246.1471 380.2647 248.4232 378.2565 246.7679 369.8084 248.1129 360.5986 245.8885 357.7595 242.3191 353.3969 240.819 349.4498 252.0961 345.295 260.1659 334.631 264.8216 315.1727 264.6147 310.7409 265.3906 305.8244 269.2186 304.3702 273.7708 301.6003 276.7194 293.1522 279.4094 292.4597 276.3056 291.2133 275.7883 291.9058 274.3398 286.5045 271.443 290.3823 261.7178 284.6348 255.6654 279.9953 253.9066 278.2641 251.6822 267.2539 249.7682 261.7834 250.5959 260.0522 251.8374 255.8974 251.8891 246.1336 248.0611 239.9014 248.1129 238.3087 246.9231 236.7161 248.0611 226.4675 247.2335 218.0887 244.5953 213.5184 241.5949 212.2027 238.4911 209.9176 237.3531 184.0885 235.4908 191.9826 233.6803 193.7831 234.1458 198.2149 228.7142 203.1314 227.5762 205.6935 228.2487 209.5713 226.5933 210.4715 222.7653 209.9176 217.1268 211.5102 212.6263 206.2475 210.4019 206.8707 206.7808 202.4389 202.6942 196.4144 201.5044 190.3207 207.712 182.9806 207.4533 181.8726 209.0569 178.9642 209.9881 177.3716 209.7811 176.9561 206.7291 174.6709 206.7291 174.1862 204.7634 166.9846 204.0392 162.6913 200.3146 163.0375 198.0902 155.3511 198.5558 152.3042 196.6418 151.3348 194.7795 147.18 195.8141 142.8867 191.9344 137.5547 192.0896 135.685 190.1756 130.4915 188.5202 123.9131 191.4171 122.3204 190.5377 123.4283 185.1578 120.6585 180.5539 120.6585 176.9845 124.6055 169.8458 130.353 166.5351 129.3143 159.862 124.2593 158.7239 122.7359 157.0168 117.8193 157.2238 114.0108 155.1028 107.4323 156.8616 98.2917 154.5855 90.6053 155.9305 86.589 151.6887 76.8945 149.2056 71.0778 144.55 62.9066 140.0495 62.9066 132.3935 64.7763 127.5309 58.1286 123.2373 56.7437 123.0304 52.8658 126.1859 48.988 125.2548 41.7864 127.1171 39.2242 126.2894 38.9472 123.3925 34.4462 123.8064 31.6071 122.8235 31.1224 124.1167 28.4217 124.8409 28.3525 126.0825 26.2058 127.2722 22.1203 125.7721 17.4115 128.4103 12.7027 124.9961 8.2017 124.4788 4.9471 120.806 1.277 119.7714 1 116.1504 2.8004 115.1158 3.5621 111.6499 5.2933 111.6499 7.6477 108.4944 6.609 106.1148 2.9389 105.494 1 103.6835 1.554 99.5968 5.3625 95.8723 3.0774 92.7685 3.9776 89.5613 6.5397 87.699 7.5784 84.44 11.8025 82.9916 17.6885 85.6816 17.4807 83.0951 26.3443 79.5774 31.5378 74.3527 37.0776 71.6628 37.77 67.8348 36.6621 65.9208 41.0246 63.9033 43.2405 64.3689 45.1795 63.4378 48.1571 64.4206 49.4035 62.5584 48.0186 62.1445 48.5725 58.5752 55.2895 56.2473 60.483 48.85 58.4056 46.3152 57.7131 39.6938 61.9372 41.0388 68.3771 37.4177 71.0085 39.6421 74.8863 38.711 81.1878 38.9696 85.8966 38.0902 87.0738 36.0727 89.9129 36.3831 94.2062 35.0382 104.6624 38.711 110.4099 37.5729 111.1716 39.7973 113.803 40.6767 116.0189 40.0559 120.7277 41.194 123.2206 38.6075 129.1758 39.4352 131.8072 37.935 139.4936 39.7456 141.294 38.9179 141.0863 34.5726 137.3469 30.6411 133.8846 30.4859 131.5302 27.8477 123.0821 25.882 122.5974 23.5542 118.7195 20.6573 119.6198 17.9156 125.298 19.571 127.5831 18.6916 131.8764 19.5192 132.7074 20.6573 135.8927 19.2089 138.9396 19.7779 142.4712 22.1057 144.9641 21.8471 150.7808 26.7097 154.0354 26.7097 157.0823 28.7789 160.8216 25.4682 163.73 26.0889 165.9459 25.313 168.6465 18.8985 178.064 20.5538 189.0743 13.1565 193.9216 11.7081 195.3757 9.9492 205.832 10.3113 208.1171 13.6738 210.5408 14.1911 211.3717 4.3107 218.7812 3.0175 223.9054 1 226.5368 6.8455 228.3372 7.7766 231.0378 5.9143 237.3393 6.6385 237.9625 9.9492 245.7182 18.5364 247.6571 15.6395 255.6204 11.3459 263.5146 14.8118 269.1236 12.3288 275.0788 5.1901 280.8263 3.6382 288.8589 3.5865 289.6899 10.8804 292.1827 13.0013 294.7449 12.2253 296.9608 12.9496 297.3763 15.1739 295.5066 17.4501 296.0606 19.9848 299.1074 20.5021 302.2235 28.3133 316.7654 33.3311 322.7898 40.0559 330.2685 51.0744 332.4151 52.6263 340.5863 55.5749 348.2034 59.8684 363.9224 62.7653 373.7555 71.3524 376.3868 71.6628 382.1343 75.6977 392.1059 74.4562 400.277 79.7326 402.0774 83.7158 400.3462 85.5781 402.8391 86.6644 405.332 89.6647 411.772 91.5787 413.6416 93.5962 417.5887 94.3721 422.0205 92.4581 428.0449 98.0967 429.7069 102.7524 438.0857 106.3734 438.709 109.3738 434.8311 110.3049 429.9839 116.0469 435.8006 121.6854 439.1244 127.1688 443.8332 128.5655 447.6418 131.7727 451.7274 133.3764 460.5217 134.3592 466.6154 132.0314 470.2162 131.9797 473.0554 134.8765 475.202 135.1869 475.479 138.4459 481.0187 139.1184 481.7112 140.722 485.7968 141.0841 486.7662 139.8943 490.644 142.0669 491.8905 140.0495 495.0758 140.2047 499.5076 145.8432 502.4852 146.6709 503.1085 149.9816 502.0698 151.1714 505.1166 152.8785 506.0168 154.9476 505.5321 157.5859 508.1635 159.1895 506.7093 160.3275 504.6319 159.7585 502.97 160.6896 497.084 157.3272 491.198 159.1378 494.1064 163.1209 503.3855 166.3799 510.8641 163.6382 516.6116 164.0003 521.2511 165.5522 524.3672 163.5865 527.2064 165.5005 532.3999 164.9832 532.5384 160.8966 533.4386 159.9654 537.4549 162.9658 542.1637 161.1552 546.8724 164.4142 549.1576 164.0003 550.6118 165.7592 552.7584 163.0175 558.9214 167.0007 559.1291 166.0695 557.1902 164.6211 557.121 162.8623 553.7279 160.8448 557.3287 155.1546 555.8745 151.5335 559.8216 154.0682 565.0151 153.4992 568.6852 157.4307 570.2086 156.7065 574.7789 158.4653 576.7871 157.1203 576.2331 154.4821 577.7565 150.861 577.341 149.2056 579.7647 149.7747 581.1496 145.1707 586.8278 147.5503 588.559 145.1707 588.6975 139.7391 595.4144 139.8943 600.2617 138.3424 604.0703 133.2729 614.1111 135.4455 618.1274 132.5487 619.5816 132.8073 620.1355 130.9451 624.1519 130.0139 628.7914 125.8755 639.3862 124.634 645.0644 126.0307 656.9056 123.5994 659.0522 122.3062 665.2844 126.7549 676.6409 128.0482 682.9424 122.8752 682.5269 116.6677 685.1583 113.4604 701.7775 111.7533 702.6777 112.2706 704.3396 119.6162 706.2785 121.8924 716.1116 123.1856 720.4049 125.41 735.9854 129.7553 738.5476 131.5658 752.2584 133.4798 758.2829 128.9276 762.5762 127.5826 765.3461 127.893 769.3624 131.7727 771.3705 136.894 774.4866 139.4287 776.4948 143.9292 789.7209 147.9124 795.2607 151.4818 799 165.5522 795.8839 166.4834 794.222 168.5008 794.4297 173.9325 793.1833 178.3812 789.5824 185.313 788.5437 191.1067 784.1812 196.5901 784.4582 207.1429 783.281 213.4022 778.0875 224.5241 772.894 231.1973 772.4785 242.8364 759.7371 246.3023 751.1505 245.4747 746.6494 250.1303 742.4946 251.734 744.2258 255.6654 742.0099 256.3896 740.6942 259.2348 746.0262 261.6143 746.4417 264.8216 744.3643 266.3217 730.8612 266.8908 723.798 264.7181 721.5128 266.1665 715.1421 267.4598 717.081 270.4084 717.1503 273.2018 720.5434 274.0295 719.7817 276.3056 720.3356 281.9441 723.6595 287.0654 723.0363 290.9968 721.6513 293.1695 718.8122 294.7731 716.2501 294.2041 715.0036 294.9283 713.2032 299.8943 713.688 302.067 706.0708 308.0159 705.5168 310.3955 707.8712 313.0854 706.7633 314.2235 699.4924 312.206 683.3579 310.7576 680.588 308.5332 678.5798 308.9988 676.9872 313.1889 674.6328 313.9648 669.4393 313.0337 665.3537 310.8093 658.152 313.0337 653.4432 318.4136 657.8058 324.1038 657.3211 325.3453 663.1378 336.1051 665.0767 336.5707 664.7997 338.6399 666.6001 338.1226 667.9158 339.9331 669.2315 338.4847 670.0625 340.916 667.5003 341.5885 665.2152 346.089 668.6083 348.9341 672.4169 348.0547 672.3476 351.1067 674.0095 355.1934 667.9851 354.1071 662.0299 355.8141 655.1052 353.538 654.3435 354.1071 654.4127 359.5387 657.2518 366.2118 656.0746 369.8329 656.2824 374.0747 657.9443 376.5578 658.3598 379.3512 659.8832 379.9202 661.9606 384.2138 664.9382 384.0068 674.425 388.4556 687.7204 387.8866 695.4068 390.3696 700.9465 389.4385 709.6716 391.8698 708.7714 397.3014 701.7083 409.6648 703.3702 414.6308 697.0687 417.1139 702.4007 419.4417 702.5392 421.6144 706.2785 422.2868 721.2359 440.1853 723.1748 441.4786 724.8367 441.1682 727.2603 445.0479 715.8346 458.4459 711.1951 461.7049 708.9792 466.2054 704.7551 466.464 703.4394 462.1187 695.8915 460.0495 693.2602 464.3948 691.1135 466.2054 688.7591 466.0502 687.4434 468.947 683.0809 471.2749 677.1257 471.8956 676.5024 472.982 678.0951 475.3615 677.8874 477.4307 675.9485 478.3619 674.8405 481.3622 666.5309 481.207 664.592 482.0864 661.1989 486.1213 659.1907 483.2244 653.2355 480.4828 648.6652 475.6202 645.4106 475.7754 640.2171 463.5672 640.2171 462.0153 642.2945 459.4805 638.7629 453.635 639.3169 449.2898 634.7466 453.0143 628.5144 453.7385 626.16 458.2907 624.2904 459.6357 619.4431 457.463 615.5653 458.3942 611.8952 461.1876 607.8096 461.3428 605.4552 463.205 604.555 466.2571 601.6467 466.8779 594.3065 472.3612 591.0519 469.1022 593.1293 466.8779 592.9216 461.9635 596.5224 461.1876 602.3391 457.2561 600.5387 455.756 599.7077 452.2901 601.2312 447.4275 600.5387 443.1856 597.3533 443.1339 592.0213 445.5135 592.8523 448.1 586.7586 449.9622 586.0661 451.928 583.3655 452.6522 575.4714 450.8934 575.9561 453.6868 572.2168 452.8591 570.3471 454.3593 570.9703 456.1698 569.7931 456.7906 567.0925 456.5836 565.6383 454.6696 562.5222 457.2561 557.8134 454.4627 557.8827 453.635 555.3898 452.9626 552.5507 449.9622 554.1434 446.3929 553.3124 441.6338 551.0272 441.6855 549.0191 440.0301 549.4346 438.9438 547.4957 436.0469 544.3796 434.4951 543.0639 435.0641 538.4243 432.0638 539.3245 429.529 541.5404 427.8736 534.3388 421.5109 532.1921 421.5109 531.4997 420.1142 528.3835 419.4934 527.4833 422.3386 520.1432 424.1491 519.52 425.7527 513.7032 429.8911 511.0026 430.874 509.8254 430.0463 506.5016 432.788 504.7704 432.2189 504.0087 430.6153 499.9924 430.3049 496.807 433.2018 496.6685 436.4091 493.2062 437.0815 491.6135 433.6156 489.3284 433.7191 486.5585 431.2361 491.0595 429.1152 Z" />
        <path
            d="M 513.634 402.3709 505.0474 397.4566 501.4465 398.2325 499.7846 400.9225 501.3773 404.5953 500.3386 409.7165 495.8376 410.3373 493.2754 409.6131 492.9984 413.3893 490.921 413.9066 490.7133 414.9929 488.4281 414.5791 486.8355 418.8727 491.0595 429.1152 489.6053 430.3049 484.5503 432.2707 482.7499 430.5119 483.4424 429.3221 478.8721 427.615 477.7641 425.5975 475.9637 427.4598 474.5788 427.3564 475.2713 424.7699 474.9943 423.1145 473.7478 422.8041 473.8171 420.5798 470.424 419.8555 469.87 420.8384 467.3079 421.1488 463.4993 418.4071 459.5522 419.4417 457.7518 418.1485 455.6052 418.2519 451.6581 415.4068 448.819 410.2338 449.2345 408.6819 446.7416 405.8885 443.6947 406.6127 442.5868 404.2332 439.7477 401.9571 439.8169 398.4394 441.5481 397.3531 440.6479 396.2668 442.4483 393.0595 441.2018 392.8009 440.0939 394.1459 437.9472 392.1284 433.5847 392.9044 431.6458 391.6111 429.6376 384.6793 427.4217 384.7311 424.7904 383.3344 420.8433 376.4026 420.497 373.8161 419.1814 373.2988 415.6498 374.6955 414.4033 370.6088 412.3952 370.764 408.2404 367.2464 407.5479 365.4876 403.1161 363.6771 403.7393 362.4873 402.2159 360.6767 400.7617 362.7977 398.6151 363.108 395.0142 361.7113 395.1527 359.2283 392.8676 356.5384 387.6741 355.9176 386.8431 357.0557 387.8818 359.7973 382.7575 360.4698 381.3034 362.4873 379.1567 362.2804 377.1486 360.056 379.226 359.2283 379.8492 358.2454 379.0875 356.8487 380.7494 356.3832 379.6414 353.8484 383.8655 352.4517 385.2504 350.6412 383.3808 348.7272 383.3115 341.8989 380.6109 339.3124 376.7331 338.9503 373.5477 336.9328 370.4316 331.4494 366.1383 328.6043 361.0141 323.2244 358.4519 316.2409 354.0201 315.7753 354.1586 318.1032 350.3501 317.2755 342.2482 318.1549 341.4865 319.086 342.0404 314.1717 337.6779 311.3266 335.6697 311.5852 332.8999 310.292 330.3377 306.0502 326.7369 304.1879 324.1055 299.6874 325.352 293.9454 324.5902 292.2901 322.9283 292.6004 320.8509 291.1003 314.688 295.6525 313.1645 293.9971 310.6024 294.3075 304.6472 292.0831 302.362 287.2205 296.1298 287.0136 294.0524 285.7721 294.4679 283.1339 292.3905 280.2888 301.6003 276.7194 304.3702 273.7708 305.8244 269.2186 310.7409 265.3906 315.1727 264.6147 334.631 264.8216 345.295 260.1659 349.4498 252.0961 353.3969 240.819 357.7595 242.3191 360.5986 245.8885 369.8084 248.1129 378.2565 246.7679 380.2647 248.4232 384.6965 246.1471 399.169 242.2157 401.7312 245.785 402.0774 248.5784 404.5703 251.1132 402.4929 256.5448 404.8473 257.0621 409.9023 255.0964 410.387 257.1656 413.5724 257.5794 412.3952 260.3211 413.1569 266.0114 414.9573 269.3738 413.8494 272.4258 416.55 273.4604 420.1508 277.3402 430.1916 282.7201 428.1142 284.7375 427.9757 289.7553 426.8678 291.4106 425.3443 291.6176 424.9288 293.4281 425.9675 297.7217 423.8901 301.0841 426.5908 307.809 423.8209 309.6712 418.4196 309.4126 415.5113 311.3266 415.9268 315.258 412.8799 315.6719 408.8636 321.5691 410.3178 322.6554 409.0713 324.6211 410.1793 327.0007 413.0876 327.6215 414.8188 329.8458 417.5194 329.3803 419.8046 326.4317 422.2975 325.5005 428.3219 331.0356 430.2608 334.1394 431.7843 333.3117 433.8617 335.8982 440.9941 337.0363 444.1102 339.0537 447.2263 338.3812 449.6499 340.6573 448.4035 342.3644 452.4198 345.0026 454.982 345.4682 456.9901 344.175 460.6602 346.3993 464.1225 345.9855 468.9006 349.7618 471.8089 348.3651 473.8863 348.9858 479.7723 353.0725 479.9108 354.8313 482.9577 356.9005 482.4729 358.0903 484.7581 364.4013 489.2591 368.6948 493.0677 368.0741 495.4913 369.7294 499.1614 368.0741 503.8702 367.9189 507.6095 375.3163 509.6177 376.1957 508.9944 378.5235 513.357 380.0237 514.1187 381.5755 510.5871 383.2309 509.5484 384.6276 509.7562 387.6797 507.3325 390.2661 511.9028 396.0599 513.634 402.3709 Z" />
    </g>
</svg>