<?xml version="1.0"?>
<svg xmlns="http://www.w3.org/2000/svg" version="1.2" baseProfile="tiny" width="800" height="1788"
    viewBox="0 0 800 1788" stroke-linecap="round" stroke-linejoin="round">
    <g id="lakshadweep_district">
        <path
            d="M 440.0884 1779.8412 440.8536 1780.2748 440.7359 1780.6218 440.0884 1779.8412 Z M 441.8544 1767.2653 441.7366 1767.0918 441.9132 1767.1785 441.8544 1767.2653 Z M 462.7521 1782.1829 456.8066 1787.0398 443.8559 1781.1421 459.3967 1781.0554 475.3497 1755.7301 462.7521 1782.1829 Z M 762.3259 850.4379 762.1493 850.4379 762.267 850.3511 762.3259 850.4379 Z M 761.9727 850.2644 761.9727 850.4379 761.7961 850.4379 761.9727 850.2644 Z M 762.6791 850.2644 762.5614 850.2644 762.738 850.0909 762.6791 850.2644 Z M 761.855 850.2644 761.6784 850.1777 761.7961 850.0909 761.855 850.2644 Z M 762.2082 850.2644 761.9727 850.0909 762.6202 850.0042 762.2082 850.2644 Z M 762.9734 850.0909 762.7968 850.0909 762.8557 849.9175 762.9734 850.0909 Z M 762.0904 849.9175 761.9138 849.9175 762.0316 849.8307 762.0904 849.9175 Z M 762.738 849.8307 762.4436 849.8307 762.6791 849.744 762.738 849.8307 Z M 763.4444 849.744 762.9734 849.8307 763.3266 849.3971 763.4444 849.744 Z M 764.0919 848.5298 763.621 848.2696 764.1508 848.1829 764.0919 848.5298 Z M 760.7365 847.4023 760.6776 848.0094 759.7946 848.0961 760.7365 847.4023 Z M 761.855 847.1421 761.6195 847.0554 761.9727 846.7952 761.855 847.1421 Z M 770.9793 848.0961 767.5651 855.9886 764.3274 848.7033 772.7454 832.7449 770.9793 848.0961 Z M 773.4518 829.2756 773.2163 829.2756 773.2163 828.842 773.4518 829.2756 Z M 62.9869 864.3147 66.2834 858.0701 65.2827 862.0597 62.9869 864.3147 Z M 777.5136 805.5982 779.515 812.4499 777.337 818.6078 777.5136 805.5982 Z M 90.5955 831.0102 89.006 833.2652 89.8891 829.8827 90.5955 831.0102 Z M 87.9464 818.0874 85.3563 818.2609 85.7684 813.6642 87.9464 818.0874 Z M 249.8893 585.3897 252.715 593.1087 235.879 604.2102 249.8893 585.3897 Z M 781.5165 461.1917 799 462.9263 783.4003 468.3036 777.2192 464.6609 781.5165 461.1917 Z M 3.0015 462.5794 3.0603 463.6201 1 463.6201 3.0015 462.5794 Z M 21.4857 429.5351 3.7079 460.8448 16.482 433.2645 21.4857 429.5351 Z M 65.4004 394.2358 65.7536 399.8733 63.2223 398.9192 65.4004 394.2358 Z M 84.4144 392.241 79.1753 395.7969 80.0583 392.5879 84.4144 392.241 Z M 88.4174 391.4604 87.5344 392.1543 86.9457 391.6339 88.4174 391.4604 Z M 89.3004 389.7258 88.7706 390.8533 88.2996 389.8993 89.3004 389.7258 Z M 89.477 389.1187 89.006 389.1187 88.8883 387.6443 89.477 389.1187 Z M 289.3891 307.3319 288.506 300.3935 296.3353 295.71 289.3891 307.3319 Z M 311.1109 271.5122 320.1176 240.5495 325.7099 231.2693 311.1109 271.5122 Z M 438.911 122.6828 434.3194 107.7652 439.7352 113.4026 438.911 122.6828 Z M 14.2451 55.4667 12.3613 55.6402 11.596 54.079 14.2451 55.4667 Z M 285.1506 9.9332 281.8541 12.1015 287.4464 1 285.1506 9.9332 Z" />
    </g>
</svg>