<?xml version="1.0"?>
<svg xmlns="http://www.w3.org/2000/svg" version="1.2" baseProfile="tiny" width="800" height="293"
    viewBox="0 0 800 293" stroke-linecap="round" stroke-linejoin="round">
    <g id="meghalaya_district">
        <path
            d="M 625.5524 120.7503 625.435 120.9264 626.0218 127.7944 624.7309 125.5931 622.3838 128.0586 621.5624 128.8511 620.1541 128.8511 540.4715 128.0586 538.9459 120.1339 536.0121 111.5929 533.8997 105.1652 533.5476 104.1966 524.3941 101.9072 523.1032 100.7626 528.0321 88.8756 517.8224 79.1019 506.5565 81.039 503.9747 85.0894 493.765 82.5359 489.775 85.2655 474.4018 83.1522 440.0174 89.492 430.5118 88.1712 429.2209 85.5296 415.4906 84.7372 411.6179 81.8315 408.9188 77.9572 407.2759 75.4917 416.7815 73.9949 430.3944 71.7936 436.4968 75.7559 441.3082 71.0891 453.5129 68.5356 444.3594 66.5985 446.8238 61.4915 452.2221 62.0198 452.4568 57.5292 461.0235 51.2775 451.9874 55.9443 451.87 52.5102 456.4468 48.9882 455.9774 43.7051 464.7788 39.1264 472.5241 24.0695 477.2182 28.1199 486.1371 27.0633 484.8462 36.4848 488.7188 42.5604 485.785 48.1077 480.9735 47.5793 480.3868 49.6045 491.6526 57.9694 496.6988 58.4978 508.1994 47.8435 508.7862 46.5227 510.1944 43.0887 510.5465 42.0321 510.6638 38.8622 510.7812 23.6293 512.8935 17.2015 525.2156 9.0127 528.9709 10.1574 538.1244 1 538.4765 1.1761 552.4415 6.7234 549.2729 21.6921 553.4976 25.9186 561.9471 27.4155 560.6562 30.5854 560.8909 30.8495 563.2379 33.315 566.4065 29.6168 580.3715 26.0067 581.7797 22.5727 598.5612 24.1576 610.7659 19.755 620.1541 21.0758 630.0118 12.1826 630.9506 12.7109 631.8894 13.3272 634.0018 14.648 642.3338 15.1763 655.0079 15.3524 657.8244 15.3524 655.4774 17.2896 655.4774 17.4657 655.1253 24.0695 631.6547 38.9503 628.6035 40.8874 625.5524 47.7554 627.7821 52.158 626.0218 56.6487 626.1391 56.6487 631.6547 57.7053 636.7009 54.7115 638.8132 57.9694 645.0329 57.177 632.1241 66.9507 632.2415 72.586 625.2003 81.9195 624.2615 93.6304 628.0168 101.7311 623.3226 108.5111 623.3226 108.5992 623.44 108.6872 626.2565 114.4986 626.4912 119.2534 625.5524 120.7503 Z" />
        <path
            d="M 407.2759 75.4917 408.9188 77.9572 411.6179 81.8315 415.4906 84.7372 429.2209 85.5296 430.5118 88.1712 440.0174 89.492 474.4018 83.1522 489.775 85.2655 493.765 82.5359 503.9747 85.0894 506.5565 81.039 517.8224 79.1019 528.0321 88.8756 523.1032 100.7626 524.3941 101.9072 533.5476 104.1966 533.8997 105.1652 536.0121 111.5929 538.9459 120.1339 538.4765 120.4861 533.5476 124.0963 531.3179 137.304 526.2718 142.5871 513.4803 146.4614 501.6276 159.5811 496.5815 160.6377 493.5303 159.0528 492.2394 152.7131 462.3144 163.5434 464.3094 171.38 463.6053 171.4681 458.9112 172.0844 455.7426 178.4242 437.0835 177.9839 421.945 177.6317 400.1174 181.4179 393.4282 190.047 389.2035 190.7514 379.1112 176.6631 376.9988 180.3613 373.3609 176.9273 368.6668 176.9273 365.6156 180.4494 362.6818 175.6065 345.9003 183.6192 348.3647 189.6948 354.3497 193.481 341.4409 204.4875 343.7879 211.8838 342.8491 212.5882 340.3847 214.7015 330.8791 208.7139 324.0726 209.6825 314.5671 198.8522 313.7456 202.6384 309.7556 204.4875 310.9291 209.4184 297.0815 206.2485 288.6321 212.236 281.9429 211.9719 274.5497 217.9594 274.4324 218.0474 274.4324 217.9594 276.0753 207.7454 274.315 205.2799 266.1003 201.7579 257.7682 202.9906 250.1403 198.7641 254.365 188.8143 252.1353 185.2922 253.7782 181.3299 251.0791 179.6569 253.3088 177.6317 256.9468 179.5688 261.2888 175.2543 256.9468 174.9021 261.2888 170.4115 261.4062 164.7762 253.6609 153.0653 253.8956 152.625 256.4774 145.845 259.1765 144.1721 260.7021 148.0463 264.1053 142.9393 264.2226 142.9393 267.6259 146.2853 270.4424 142.4991 283.9379 137.8323 313.1588 101.6431 301.8929 98.5613 302.245 96.2719 302.7144 93.8065 306.1176 92.4857 312.8068 85.7938 317.8529 79.7182 318.0876 79.7182 319.4959 79.8063 320.6694 79.8943 330.0576 73.4665 330.2924 73.2904 330.4097 73.2024 338.5071 72.2338 336.7468 76.02 330.5271 78.5735 334.0476 80.7748 349.6556 77.605 356.9315 72.8502 365.6156 74.6112 369.8403 69.9445 371.9526 74.7873 367.2585 81.4792 365.1462 92.3977 368.4321 100.3223 376.9988 107.1023 390.8465 99.6179 407.1585 75.4917 407.2759 75.4917 Z" />
        <path
            d="M 736.9203 175.8707 739.8541 174.0216 740.3235 174.1096 740.4409 174.1096 744.7829 175.6065 746.8953 189.6948 752.5282 187.4054 751.9415 183.9714 755.6968 188.5501 759.4521 184.3236 761.5644 191.5439 764.7329 189.5187 776.5856 200.6132 781.9838 198.7641 780.4582 201.5818 785.1524 208.1856 793.7191 211.0913 796.5356 224.6513 790.1985 228.5256 792.6629 231.1671 788.4382 234.2489 791.02 238.7396 799 242.6139 792.1935 246.8403 783.2747 244.9912 770.2485 252.2995 762.0338 253.004 760.0388 258.7273 752.6456 263.306 750.8853 269.4696 724.3635 262.9538 724.3635 263.0418 724.3635 263.5702 724.5982 266.4759 728.9403 273.6961 713.3324 271.1426 710.8679 282.2371 706.8779 285.7592 708.8729 290.1618 703.0053 288.0485 698.5459 292.187 676.9529 286.7277 673.9018 278.1867 664.2788 280.9163 640.6909 270.3501 644.7982 268.501 638.2265 266.74 644.9156 256.526 647.4974 246.7523 643.39 240.0604 639.6347 239.444 638.1091 222.1859 630.5985 210.3869 631.3026 205.6321 656.5335 194.3615 684.5809 191.72 705.1176 187.4935 716.3835 182.2104 727.7668 184.0595 730.5832 177.7198 730.9353 177.8078 736.2162 178.2481 736.3335 178.16 736.5682 177.9839 736.9203 175.8707 Z" />
        <path
            d="M 538.9459 120.1339 540.4715 128.0586 620.1541 128.8511 620.3888 129.3794 620.5062 129.3794 621.6797 133.0775 612.8782 149.8954 615.2253 154.6502 610.1791 168.1221 613.9344 174.2857 610.0618 179.6569 614.9906 190.4872 611.9394 193.6571 614.6385 198.6761 614.4038 210.2989 616.6335 211.6197 614.5212 218.3996 596.8009 214.4373 581.6624 225.0916 580.7235 234.5131 590.4638 246.224 590.1118 249.2177 589.1729 249.658 580.2541 254.3247 570.6312 251.2429 517.1182 254.3247 516.2968 260.4883 505.8524 258.2871 503.0359 262.6896 489.0709 267.0042 482.8512 261.0167 478.1571 260.9286 478.6265 253.7964 449.2882 264.1865 443.4206 263.8343 442.2471 260.2242 434.9712 259.5198 428.1647 254.1486 425.4656 255.8216 419.0112 252.9159 412.2047 237.5949 420.5368 236.1861 425.1135 229.7583 430.5118 230.1986 434.6191 227.2048 445.5329 229.7583 449.9924 224.4752 459.85 226.3243 463.9574 223.5066 464.4268 211.9719 457.6203 206.9529 466.0697 185.5564 463.6053 171.4681 464.3094 171.38 462.3144 163.5434 492.2394 152.7131 493.5303 159.0528 496.5815 160.6377 501.6276 159.5811 513.4803 146.4614 526.2718 142.5871 531.3179 137.304 533.5476 124.0963 538.4765 120.4861 538.9459 120.1339 Z" />
        <path
            d="M 253.8956 152.625 253.6609 153.0653 261.4062 164.7762 261.2888 170.4115 256.9468 174.9021 261.2888 175.2543 256.9468 179.5688 253.3088 177.6317 251.0791 179.6569 253.7782 181.3299 252.1353 185.2922 254.365 188.8143 250.1403 198.7641 257.7682 202.9906 266.1003 201.7579 274.315 205.2799 276.0753 207.7454 274.4324 217.9594 274.4324 218.0474 274.5497 217.9594 275.0191 218.3996 280.6521 221.4814 291.2138 220.777 294.9691 226.1482 299.1938 225.9721 299.1938 225.884 299.5459 226.2362 305.4135 233.1043 306.4697 234.2489 306.1176 235.5697 304.1226 242.79 309.0515 246.4001 309.4035 254.0606 278.6571 257.4946 269.2688 256.526 258.7071 251.0668 253.5435 256.0858 248.38 256.0858 247.3238 259.1676 242.8644 256.1738 235.5885 257.4946 230.6597 255.4694 225.3788 248.6014 220.3326 253.8845 186.6524 255.2052 169.0494 261.8091 151.0944 256.9663 138.8897 248.9536 131.7312 250.2743 112.72 245.6957 111.5465 237.3307 116.3579 232.3999 120.1132 214.3493 132.7874 202.5503 134.0782 197.4433 131.3791 188.374 135.6038 176.1348 135.8385 176.2229 136.5426 176.6631 148.9821 177.7198 168.3453 177.1034 188.8821 184.3236 222.5624 188.9904 231.7159 171.4681 253.8956 152.625 Z" />
        <path
            d="M 135.8385 176.2229 135.6038 176.1348 131.3791 188.374 134.0782 197.4433 132.7874 202.5503 120.1132 214.3493 116.3579 232.3999 111.5465 237.3307 112.72 245.6957 92.8874 240.5006 80.3306 240.2365 66.2482 231.7835 45.1247 223.9469 43.4818 220.1607 48.4106 216.5505 48.6453 214.6134 53.4568 212.8524 59.6765 208.1856 90.775 199.9968 93.5915 196.3867 91.1271 193.5691 95.9385 154.6502 89.8362 154.5622 88.0759 152.1848 87.4891 156.4993 87.3718 156.4993 86.6676 156.4993 84.9074 156.4993 84.9074 156.2351 85.0247 149.8954 84.6726 149.8954 80.5653 150.3357 74.4629 143.0274 55.5691 137.9204 54.9824 137.7443 51.3444 132.6373 45.7115 132.6373 36.91 124.8007 36.6753 124.5365 35.3844 118.6371 27.2871 110.1841 23.2971 106.0457 22.2409 101.555 22.1235 101.2909 22.1235 101.1148 27.4044 102.2594 30.1035 102.7878 33.1547 101.2028 33.5068 101.0267 32.92 98.5613 39.3744 91.6932 36.4406 79.5421 38.905 78.5735 37.9662 80.6868 40.0785 80.9509 40.5479 77.5169 42.5429 79.278 51.2271 75.8439 54.3956 71.4414 56.2732 68.7998 56.2732 68.1834 55.0997 67.0388 52.5179 64.6614 52.4006 64.5733 53.4568 63.6928 55.6865 61.8437 56.9774 60.7871 61.5541 62.9003 66.3656 56.0323 73.2894 54.4474 74.815 49.4284 78.4529 46.6988 81.5041 44.3214 82.9124 43.9692 90.6576 41.856 92.5353 44.3214 97.4641 43.8812 100.1632 47.8435 104.5053 43.3529 106.735 45.5542 137.0121 40.0069 146.7524 30.8495 147.1044 30.5854 147.5738 30.5854 158.1356 30.4973 158.605 30.4973 159.3091 31.73 163.0644 35.1641 165.6462 35.1641 166.2329 35.1641 166.2329 37.8937 161.0694 53.5669 152.5026 68.2715 152.8547 75.4037 141.8235 78.8377 140.8847 85.0894 154.9671 86.6743 157.7835 96.6241 157.7835 96.8002 157.3141 97.4166 153.6762 101.555 158.8397 107.1023 160.7174 124.4485 154.9671 128.4989 156.61 131.6687 152.2679 143.3796 154.3803 154.2099 153.7935 155.2666 152.5026 157.2037 150.625 160.2855 143.7012 162.9271 142.2929 163.8956 135.2518 173.5813 135.8385 176.2229 Z" />
        <path
            d="M 301.8929 98.5613 313.1588 101.6431 283.9379 137.8323 270.4424 142.4991 267.6259 146.2853 264.2226 142.9393 264.1053 142.9393 260.7021 148.0463 259.1765 144.1721 256.4774 145.845 253.8956 152.625 231.7159 171.4681 222.5624 188.9904 188.8821 184.3236 168.3453 177.1034 148.9821 177.7198 136.5426 176.6631 135.8385 176.2229 135.2518 173.5813 142.2929 163.8956 143.7012 162.9271 150.625 160.2855 152.5026 157.2037 153.7935 155.2666 154.3803 154.2099 152.2679 143.3796 156.61 131.6687 154.9671 128.4989 160.7174 124.4485 158.8397 107.1023 153.6762 101.555 157.3141 97.4166 166.2329 101.8192 180.0806 108.5992 183.9532 108.247 187.9432 102.1714 195.2191 91.253 202.3776 92.6618 208.8321 101.467 217.0468 103.4041 231.8332 90.9008 250.375 86.146 258.4724 82.4478 268.4474 81.5673 271.4985 81.3031 272.6721 81.127 288.28 97.4166 299.0765 99.5298 301.8929 98.5613 Z" />
        <path
            d="M 620.1541 128.8511 621.5624 128.8511 622.3838 128.0586 624.7309 125.5931 626.0218 127.7944 625.435 120.9264 625.5524 120.7503 630.2465 121.895 644.7982 108.8633 645.0329 108.8633 647.38 111.0646 655.36 110.6244 667.9168 105.6054 673.9018 106.662 687.5147 98.5613 686.8106 101.8192 693.3824 101.2028 694.7906 105.0771 699.9541 104.4607 703.4747 107.8067 702.5359 115.3792 710.5159 119.6937 719.9041 135.4549 732.8129 135.8952 733.5171 147.6061 738.7979 151.4803 741.0276 153.0653 742.5532 152.4489 746.5432 150.864 751.0026 149.103 754.6406 145.4928 758.8653 142.6752 760.3909 144.5243 761.5644 147.2539 761.3297 147.43 760.9776 147.518 757.3397 151.5684 756.5182 157.2037 738.0938 169.0907 735.6294 173.5813 736.2162 176.3109 736.9203 175.8707 736.5682 177.9839 736.3335 178.16 736.2162 178.2481 730.9353 177.8078 730.5832 177.7198 727.7668 184.0595 716.3835 182.2104 705.1176 187.4935 684.5809 191.72 656.5335 194.3615 631.3026 205.6321 630.5985 210.3869 638.1091 222.1859 639.6347 239.444 643.39 240.0604 647.4974 246.7523 644.9156 256.526 638.2265 266.74 634.9406 263.8343 635.5274 267.5325 631.7721 267.2683 620.9756 261.8972 617.455 255.8216 606.5412 251.0668 589.0556 250.0102 589.1729 249.658 590.1118 249.2177 590.4638 246.224 580.7235 234.5131 581.6624 225.0916 596.8009 214.4373 614.5212 218.3996 616.6335 211.6197 614.4038 210.2989 614.6385 198.6761 611.9394 193.6571 614.9906 190.4872 610.0618 179.6569 613.9344 174.2857 610.1791 168.1221 615.2253 154.6502 612.8782 149.8954 621.6797 133.0775 620.5062 129.3794 620.3888 129.3794 620.1541 128.8511 Z" />
        <path
            d="M 274.5497 217.9594 281.9429 211.9719 288.6321 212.236 297.0815 206.2485 310.9291 209.4184 309.7556 204.4875 313.7456 202.6384 314.5671 198.8522 324.0726 209.6825 330.8791 208.7139 340.3847 214.7015 342.8491 212.5882 343.7879 211.8838 341.4409 204.4875 354.3497 193.481 348.3647 189.6948 345.9003 183.6192 362.6818 175.6065 365.6156 180.4494 368.6668 176.9273 373.3609 176.9273 376.9988 180.3613 379.1112 176.6631 389.2035 190.7514 393.4282 190.047 400.1174 181.4179 421.945 177.6317 437.0835 177.9839 455.7426 178.4242 458.9112 172.0844 463.6053 171.4681 466.0697 185.5564 457.6203 206.9529 464.4268 211.9719 463.9574 223.5066 459.85 226.3243 449.9924 224.4752 445.5329 229.7583 434.6191 227.2048 430.5118 230.1986 425.1135 229.7583 420.5368 236.1861 412.2047 237.5949 419.95 255.3813 396.4794 250.7146 388.2647 244.9032 384.8615 247.3686 353.5282 248.6014 339.3285 246.224 309.4035 254.0606 309.0515 246.4001 304.1226 242.79 306.1176 235.5697 306.4697 234.2489 305.4135 233.1043 299.5459 226.2362 299.1938 225.884 299.1938 225.9721 294.9691 226.1482 291.2138 220.777 280.6521 221.4814 275.0191 218.3996 274.5497 217.9594 Z" />
        <path
            d="M 319.4959 79.8063 318.0876 79.7182 317.8529 79.7182 312.8068 85.7938 306.1176 92.4857 302.7144 93.8065 302.245 96.2719 301.8929 98.5613 299.0765 99.5298 288.28 97.4166 272.6721 81.127 271.4985 81.3031 268.4474 81.5673 258.4724 82.4478 250.375 86.146 231.8332 90.9008 217.0468 103.4041 208.8321 101.467 202.3776 92.6618 195.2191 91.253 187.9432 102.1714 183.9532 108.247 180.0806 108.5992 166.2329 101.8192 157.3141 97.4166 157.7835 96.8002 157.7835 96.6241 154.9671 86.6743 140.8847 85.0894 141.8235 78.8377 152.8547 75.4037 152.5026 68.2715 161.0694 53.5669 166.2329 37.8937 166.2329 35.1641 177.4988 30.3212 193.2241 46.3466 186.1829 59.2022 187.4738 60.611 196.9794 55.504 195.5712 53.3027 204.3726 49.7806 207.3065 44.1453 217.0468 49.1643 212.2353 55.2398 216.46 60.2588 218.9244 54.5354 220.45 53.743 241.9256 45.0258 242.0429 44.9378 243.8032 47.1391 248.6147 45.1139 248.1453 49.0762 249.7882 52.158 251.0791 51.2775 251.4312 51.5417 250.8444 52.6863 249.5535 54.8876 248.6147 56.2965 253.5435 53.831 252.4874 56.7367 256.7121 57.177 258.2376 57.3531 258.5897 56.7367 266.4524 45.6422 273.7282 46.6988 273.4935 49.8687 275.8406 47.3152 285.6982 48.1957 286.6371 46.1705 295.3212 55.8562 295.4385 47.7554 299.7806 48.9882 303.4185 46.7869 308.5821 55.8562 309.1688 63.6048 324.3074 63.4287 324.5421 64.9255 321.6082 73.5546 319.4959 79.8063 Z" />
        <path
            d="M 55.5691 137.9204 74.4629 143.0274 80.5653 150.3357 84.6726 149.8954 85.0247 149.8954 84.9074 156.2351 84.9074 156.4993 86.6676 156.4993 87.3718 156.4993 87.4891 156.4993 88.0759 152.1848 89.8362 154.5622 95.9385 154.6502 91.1271 193.5691 93.5915 196.3867 90.775 199.9968 59.6765 208.1856 53.4568 212.8524 48.6453 214.6134 48.4106 216.5505 43.4818 220.1607 25.6441 217.9594 16.7253 223.4186 6.1635 221.0412 7.4544 215.0537 2.1735 207.3051 1 196.2987 8.0412 180.0091 15.9038 172.6128 16.2559 164.6 19.7765 164.4239 19.0724 161.4302 14.965 160.1094 17.4294 153.4175 17.5468 153.4175 42.7776 146.9017 45.5941 142.2349 45.7115 142.2349 50.9924 143.7318 55.5691 137.9204 Z" />
    </g>
</svg>