<?xml version="1.0"?>
<svg xmlns="http://www.w3.org/2000/svg" version="1.2" baseProfile="tiny" width="800" height="1734"
    viewBox="0 0 800 1734" stroke-linecap="round" stroke-linejoin="round">
    <g id="mizoram_district">
        <path
            d="M 531.1736 746.1988 527.9673 743.5368 525.5322 741.4848 514.0058 730.5594 482.2676 701.2218 465.8709 676.6535 447.242 670.8858 443.0211 671.2741 421.0235 673.5479 401.7858 699.3916 392.9381 734.8297 389.4477 742.2612 380.0317 762.7809 374.6338 774.9819 387.5807 797.2208 402.6381 805.4841 385.105 821.6226 375.0397 838.9812 360.6723 836.9847 353.8944 821.0126 343.5044 818.9052 337.3354 817.5741 323.6173 811.5291 307.4236 822.1218 300.6457 822.7873 293.6244 805.4841 292.1227 801.8239 292.3662 801.2138 292.1633 800.6592 292.4474 794.6142 292.8126 792.6732 292.1227 791.1758 292.6097 785.0753 292.975 783.7998 291.4733 781.3596 290.9051 778.2539 288.957 775.5364 282.4226 774.5936 284.9796 772.7635 285.1825 771.8207 284.7766 767.6613 280.921 765.0547 277.39 759.6198 278.8511 752.3547 276.5783 745.4778 271.9109 738.7673 271.0586 732.2232 271.4239 726.1227 271.018 715.9738 271.3427 708.5423 270.8557 700.5563 270.7339 693.4021 273.0473 687.9671 271.8703 683.6968 270.2063 680.4802 268.664 673.9915 263.3473 673.1042 259.1669 671.4959 255.5954 663.5098 257.5435 659.5168 261.4397 658.4076 262.2109 654.0819 264.4025 650.3107 270.1657 649.6452 271.5456 645.9294 272.6414 638.7752 268.3393 634.4495 267.0406 629.2918 266.8377 625.6315 270.1657 623.3023 275.2795 622.1931 280.3528 618.8101 282.3821 612.7096 281.9762 609.1048 282.6256 603.2817 278.5264 601.0079 271.2615 599.5105 267.2435 598.4568 267.2841 595.1292 262.7385 592.2454 259.4104 590.138 256.9753 586.9213 256.9347 579.5453 264.1184 573.1121 267.3247 567.0117 269.9628 563.6841 272.8038 558.1937 277.5117 546.6029 274.7113 544.1072 270.6933 543.8854 267 542.0552 264.6054 538.2286 261.5209 532.5718 260.0598 528.5788 258.3552 525.5285 257.3811 519.6499 256.0012 512.2185 251.902 509.5564 255.4736 506.0071 259.1669 503.1232 260.5468 494.1389 258.5987 488.9813 252.1456 489.0367 248.9393 486.652 251.8209 482.9917 254.3372 478.9432 257.6247 473.7856 260.8309 476.3367 266.3506 476.7249 269.7598 471.9 263.0632 470.8463 263.3473 465.6886 266.9594 463.5812 273.2096 462.6938 273.9808 459.2554 268.4205 452.1012 266.3506 447.9418 264.0372 441.5086 261.0339 435.63 260.9933 430.0841 259.8163 426.5347 259.7757 422.3199 262.5761 419.6024 271.9109 416.1085 274.3866 411.339 270.9774 403.5748 263.1849 402.022 262.0891 397.1416 256.7724 395.6442 247.4782 393.315 248.9799 389.2665 252.3079 386.7708 250.5221 380.8368 250.441 380.7813 250.4815 380.8368 253.3226 379.5612 255.7171 379.173 255.7577 379.0621 256.0012 378.8402 259.7351 374.459 261.2774 373.5717 261.318 373.5717 262.0485 373.7935 262.982 376.5664 262.982 376.6219 264.1996 378.0084 266.2289 378.8957 269.2322 379.4503 271.6268 378.7293 271.6674 378.7293 271.8297 378.5629 275.1172 375.6791 276.2536 374.3481 276.2536 374.2926 277.1059 371.2979 278.2017 370.1332 279.6222 369.6341 279.6628 369.6341 279.7034 369.6341 282.1385 369.8005 284.939 371.076 286.3189 371.7415 288.4294 372.0188 288.4699 372.0188 289.5658 369.4677 290.7022 366.7502 291.8386 363.1454 291.8386 363.09 291.8792 361.4817 293.5838 361.5926 294.0708 362.2581 294.1926 362.2026 294.3143 362.1472 295.8566 361.4817 297.0742 361.8144 297.5206 361.9253 298.4541 361.7035 299.1034 362.3135 301.8633 361.648 301.9039 361.648 302.5532 362.1472 305.4348 364.3655 305.6378 364.3101 308.357 363.3118 310.4269 363.2563 310.4675 363.3118 312.8215 366.2511 315.2161 366.5284 326.0525 363.8664 329.5023 361.5371 330.314 360.317 330.3952 358.0432 329.2588 357.3223 329.2182 357.3223 329.137 354.8821 329.9487 354.3829 331.491 354.5493 336.3207 356.8786 337.863 356.6013 338.7965 355.8249 339.0806 354.8266 339.2023 354.4384 338.7559 350.6672 338.7559 350.6118 339.2023 349.5026 342.1651 346.7296 347.4007 341.7384 352.4739 339.1318 355.5584 337.9672 356.4513 337.6344 360.2664 337.0798 367.3689 337.6899 370.4535 337.3571 370.6564 337.3571 373.5786 336.0816 374.5932 334.9169 375.4455 334.806 378.3677 334.4178 380.9246 335.3051 381.8987 335.6379 385.4702 338.4663 386.6472 340.4628 388.1895 341.1838 388.5548 340.2964 387.9054 337.1353 387.946 337.0798 388.5954 335.9707 390.8682 334.9169 390.8682 334.9724 392.7351 339.4645 394.115 340.2964 394.3586 339.3536 396.0632 333.0868 398.4171 331.7003 398.4577 331.6449 398.4171 331.5894 397.0372 326.709 397.0778 326.709 398.9042 327.0973 399.7565 326.82 400.3653 325.5444 400.3247 323.6588 400.3247 319.6658 398.823 319.1112 398.7824 319.1112 398.5795 318.1684 398.5795 318.1129 399.5941 315.8391 399.6347 315.7837 399.1071 313.9535 398.7824 312.6225 398.7824 312.5671 400.0406 309.4614 399.2695 307.5758 399.31 307.5758 400.6494 305.912 401.0958 305.6347 401.1364 305.6347 401.664 302.3627 404.6674 301.6972 404.6674 301.6417 404.7891 299.2015 404.8297 298.8133 404.9921 296.3177 406.1285 292.8238 406.7778 290.8827 406.7778 290.8273 404.5862 286.5015 404.6268 286.446 404.9515 285.8914 406.1691 285.5032 406.1691 285.4478 405.8444 282.9521 405.885 283.0076 407.0214 283.3403 407.3055 282.6194 407.4272 281.0665 407.5084 279.7355 407.5896 278.8482 407.5896 278.7927 408.1578 278.1827 410.9988 277.4617 413.1092 275.7979 413.8398 275.1879 414.1645 271.4722 413.4339 269.0874 413.3933 268.9765 413.4339 268.9211 414.9762 267.4791 416.4779 266.0372 416.5185 265.9817 417.736 263.9852 419.6436 263.0424 419.6842 263.0424 419.6436 262.987 419.603 262.8761 416.762 258.7721 416.8026 256.221 416.8837 256.1101 418.2231 253.1153 420.1306 250.7861 423.1745 248.7341 423.2151 248.6232 424.3921 246.7376 424.6356 245.1293 424.6356 245.0738 423.6616 243.521 423.7022 243.4655 424.0674 242.7445 425.5691 242.0236 425.5691 241.9681 426.2185 238.5297 425.8938 237.0878 425.1633 237.1432 424.2704 237.2541 423.9863 236.5886 424.0269 236.5886 425.1227 236.4223 425.4068 236.2559 428.4101 234.6476 430.0742 234.3703 430.2771 233.6493 430.3988 233.0947 430.4394 233.0947 430.3177 226.0515 431.0888 223.2231 431.5352 221.7257 430.4394 215.7916 430.48 215.7916 432.1846 215.6252 432.144 215.5143 431.4135 213.6287 431.4541 213.6287 433.7675 212.7968 433.8486 212.7968 434.1733 212.1313 434.1733 212.0759 434.2139 212.0204 434.0516 210.8003 433.6051 210.4121 433.4834 210.3012 433.524 210.2457 433.524 210.1903 434.4574 208.8038 434.4168 208.7484 434.2951 208.1938 432.8746 208.3047 432.6311 208.3047 432.6717 208.1938 432.7528 208.0274 433.524 206.53 434.7821 204.0898 434.7821 204.0344 434.985 203.0916 435.5532 200.8178 435.5938 200.5959 434.985 194.1627 434.8633 193.9409 433.321 191.057 431.3323 190.0588 431.2917 190.0588 431.2511 189.9478 429.2624 186.8422 427.7202 186.8422 427.6796 186.8422 427.639 186.8422 425.4879 191.1125 422.8904 193.3308 421.0641 192.7208 419.7247 190.2806 419.6842 190.2251 417.8984 188.3395 417.3302 187.785 410.9176 187.5631 409.2536 187.3413 408.9695 186.5649 409.0101 186.5649 409.0101 186.5094 410.0247 185.4557 410.0247 185.4002 409.1318 182.5164 409.1724 182.5164 411.9323 181.2963 411.8917 181.2408 410.5117 179.0225 410.5117 178.967 410.9176 176.8041 409.6594 176.7487 408.5636 176.6378 408.2795 176.2495 408.2795 176.1941 408.9289 174.8631 408.9289 174.8076 411.8917 173.8648 411.8511 173.7539 409.8624 171.7019 409.8218 171.6465 409.8218 168.5962 411.567 166.4334 411.6482 166.267 413.5557 163.9377 414.408 163.7159 415.4226 163.494 416.6808 163.9932 418.0201 163.7159 418.0201 163.6604 417.9796 162.9395 417.9796 162.884 417.1273 161.553 416.072 160.0556 416.1126 160.0001 416.1126 159.9447 417.6143 157.2272 417.5737 157.2272 415.7473 155.0089 415.5038 153.8442 415.0168 151.1267 414.9762 151.0713 414.1239 149.1857 411.8105 148.2984 411.6887 148.2429 411.6482 148.132 410.1059 142.7525 409.0912 142.4752 408.1984 142.9189 406.6155 143.6398 405.2762 142.5306 405.3168 142.4752 407.6707 138.5376 409.6594 137.4839 409.903 137.373 413.1498 136.5411 413.6369 134.2673 411.4452 134.4337 410.39 132.2708 408.8477 131.6053 408.8883 131.4944 409.7812 129.4424 410.6741 130.607 410.7553 130.607 411.8511 130.2743 414.1645 128.4996 416.5185 127.7786 418.7507 125.5603 419.8465 122.8983 421.3076 120.569 425.772 113.5812 425.8126 113.5257 429.5465 110.531 429.506 110.531 427.3955 109.81 426.2185 106.8707 424.9603 105.5397 425.0009 105.4842 426.7867 104.1532 426.7461 104.0978 426.3403 102.2122 428.7754 102.1567 428.9783 102.1567 429.5871 101.4357 430.3988 95.8344 429.3436 94.8361 426.0561 94.5034 425.285 93.7824 425.2038 93.727 428.0449 89.3457 428.5725 86.9056 429.8712 89.3457 430.7641 89.5121 431.4541 89.1794 431.7788 88.4029 431.9005 88.0702 431.9411 87.9593 431.9411 87.9038 431.4135 87.0719 430.9265 86.351 434.011 86.9056 434.8227 86.7392 436.852 86.24 437.2984 85.63 437.2173 83.1344 439.6118 80.3614 441.1541 73.8173 449.1089 78.6977 448.5407 79.7514 449.2713 80.7496 450.4077 81.0269 451.95 83.4671 457.3885 85.5191 458.7278 84.7427 459.2554 83.1898 460.6353 81.8588 463.0299 81.3042 466.7638 79.7514 467.819 79.3077 468.3872 79.3632 469.6048 79.4741 469.686 79.5295 470.1324 79.9732 472.1211 83.3562 472.4458 83.9108 472.6894 84.1326 473.9069 85.3527 480.9689 81.7479 484.2157 77.3667 487.3003 76.0911 490.7907 77.533 492.7388 77.4776 495.1334 78.9195 497.4468 81.3042 499.2731 81.5815 500.8966 80.4169 516.928 89.0684 512.0577 96.1117 515.4263 99.9938 514.087 105.5397 513.5188 110.3646 515.0204 118.4616 521.8795 120.0144 529.672 120.7908 524.1929 137.5948 516.6033 149.463 512.7476 154.5652 507.9585 157.9482 506.0104 163.0504 509.866 168.9845 505.0363 174.974 504.9957 180.9081 512.5853 192.7762 518.3485 195.2719 513.5188 197.823 513.5188 200.3741 516.3598 205.4208 515.4263 210.4676 512.5447 212.1313 511.6112 217.2335 508.7702 218.8973 502.4794 218.8973 502.52 221.0602 507.7556 229.2126 502.6417 234.6476 504.0623 243.7428 500.856 246.2939 495.7827 248.6786 494.4434 250.6197 494.281 252.949 495.6204 257.3302 491.0342 265.039 485.3116 266.7027 482.6735 268.3665 483.4852 273.025 484.4998 274.4669 490.1819 274.4669 493.1852 273.4687 500.856 274.2451 506.9033 277.7945 509.866 281.4547 514.8175 283.5622 518.7543 282.0648 520.7431 283.9504 523.7058 285.0595 525.7351 287.777 536.4498 290.8273 544.2017 288.4425 549.9649 284.2831 553.8206 282.6194 557.6762 291.1045 560.5172 295.3749 564.3729 297.8705 569.162 302.1408 568.188 307.1876 569.1215 309.7387 568.188 313.9535 570.0955 316.5046 567.2139 319.0557 568.188 321.6068 574.8847 318.1684 575.8181 314.7854 580.6073 313.9535 581.5813 311.4024 587.3039 308.8513 591.1596 302.9173 591.1596 298.6469 595.9487 293.6002 599.7638 292.7129 606.8663 295.5967 608.7739 299.8116 614.5371 304.0264 612.589 310.8479 614.4965 315.0627 618.3116 315.8946 630.7309 314.1754 633.6125 316.7265 640.5932 317.6693 632.1919 340.1855 616.5258 390.0429 628.3769 412.1155 609.7885 428.6422 612.2643 457.3698 601.9554 477.224 585.3152 485.2655 551.7507 501.5149 531.0113 507.3935 531.4171 546.4919 531.7824 572.003 531.823 573.9995 531.9448 582.8729 539.4126 648.7024 531.336 702.4973 541.1984 742.3721 531.1736 746.1988 Z" />
        <path
            d="M 531.823 573.9995 531.7824 572.003 531.4171 546.4919 531.0113 507.3935 551.7507 501.5149 585.3152 485.2655 601.9554 477.224 612.2643 457.3698 609.7885 428.6422 628.3769 412.1155 616.5258 390.0429 632.1919 340.1855 640.5932 317.6693 646.0317 318.3902 648.8727 310.7924 649.8468 306.5775 651.7543 302.3627 649.8468 297.2605 652.7284 293.8775 659.4251 295.5967 663.2402 293.8775 667.0552 294.7094 677.6076 303.1945 677.6076 306.5775 679.5557 311.6243 676.6741 313.3435 669.9774 329.3711 671.885 336.137 684.4666 329.3711 686.3741 325.1562 692.1373 320.8859 694.0449 317.5029 700.8227 317.5029 710.401 315.8391 727.0818 316.3383 730.3287 322.2723 726.1483 323.6034 727.2441 329.2601 730.2881 331.6449 726.7571 336.2479 729.0299 343.9012 728.3399 350.7781 728.137 355.0484 725.0525 361.038 727.1224 363.8664 733.7785 365.3083 736.6195 367.1384 737.6341 371.1315 739.4605 378.3966 742.1392 382.8333 745.5484 388.6564 749.6475 392.3167 752.8132 394.2023 756.5066 395.3115 763.0409 396.7534 768.2359 399.3045 768.8447 403.2421 768.5606 406.9023 767.4648 410.9508 766.8966 420.5452 766.1254 428.1985 766.0037 435.3527 766.653 439.2348 766.9777 444.0042 766.7342 447.5536 766.856 452.8222 767.0995 459.4218 769.1288 463.1929 768.4794 470.6799 769.9811 473.8965 773.6744 475.4493 776.4342 481.7716 775.7849 487.7612 774.1208 493.5289 772.0104 503.7333 771.848 507.8372 772.538 512.8285 773.7962 516.8215 776.069 521.5355 778.707 525.0294 779.3564 528.4124 780.8987 532.35 779.6405 536.1766 779.397 542.1107 780.3711 546.1037 784.6326 551.5941 788.8535 553.8125 793.5209 556.8627 796.7678 562.1868 799 566.1243 796.4837 568.9527 793.2368 573.2785 791.4104 576.3842 789.3406 581.0427 787.9606 585.5349 788.1636 591.1917 790.9234 608.9385 791.3699 624.9106 792.2627 629.07 791.1263 633.3957 787.1083 640.6054 785.0384 647.4268 787.1895 653.1945 787.7577 658.4076 787.5142 663.1216 786.0531 667.8356 783.6179 670.5531 779.7623 675.0452 776.3531 679.9256 773.9585 683.0868 773.9179 683.8632 764.2585 688.2999 749.7287 690.5182 740.3128 693.2357 727.8935 700.7226 721.0345 706.8785 712.3897 710.0397 701.9591 707.9877 697.5352 704.7711 686.0088 696.4523 681.6256 700.0017 682.0314 706.3794 682.2749 709.8733 681.098 719.9668 676.5523 720.7987 676.5523 720.1332 676.5929 715.8629 676.39 712.8681 675.903 706.7122 675.0912 705.9358 673.6301 704.5493 672.4937 703.4956 671.9255 702.9964 673.9954 698.7261 674.8477 696.9514 676.1465 695.3431 677.1205 694.123 680.408 689.9636 682.3967 686.9134 683.3302 685.4715 683.7766 684.7505 685.1971 682.5876 685.4406 680.4802 685.5218 679.8147 685.6436 678.8164 685.9683 675.8771 685.7247 673.9915 685.603 673.0487 685.2783 670.1649 687.9976 664.9518 689.0122 661.0696 689.621 658.574 687.2264 650.8652 685.7653 649.146 676.2682 637.6661 677.4858 632.7857 680.3674 628.6818 681.8285 626.6298 683.2896 624.6333 681.7879 620.4184 680.9356 617.9228 684.3448 610.935 686.0494 602.7271 687.5511 592.3008 688.6063 579.6008 686.3741 568.9527 683.4114 557.4173 680.4892 548.6548 678.3787 542.4989 675.9841 531.7954 670.2209 525.0849 664.5389 527.3587 654.5548 532.0172 639.0915 533.0155 633.5313 528.1351 633.4095 519.3172 628.0522 507.8927 618.3927 503.6778 609.3421 507.6708 607.0287 521.591 608.3274 540.0587 611.5743 545.5491 614.4153 550.4295 615.9576 565.0152 611.1684 576.2733 610.5597 577.6043 605.04 579.3235 599.2768 581.1536 598.5462 581.7637 594.1224 585.4794 590.1449 588.8624 579.7144 589.6388 574.2353 590.027 574.1135 590.027 566.1181 586.1449 559.7461 583.0392 553.09 570.8383 546.5151 574.0549 544.4858 575.1086 543.9176 575.1641 541.8477 574.7759 539.0067 574.2768 535.5569 573.944 532.5941 573.8331 531.823 573.9995 Z M 633.4501 985.3922 632.8413 978.9036 631.2585 971.6385 628.1334 956.5537 624.7241 941.0807 612.4672 902.0378 589.1709 891.6115 553.9017 883.57 535.2322 879.1333 526.7092 858.059 518.7543 854.676 509.7443 846.2463 511.1242 838.3157 528.8602 815.3558 530.0372 815.4113 530.9707 815.0785 533.2435 814.413 539.2908 811.6955 554.3888 811.9728 555.8904 812.0283 558.8938 812.0283 564.5352 811.9728 567.2139 811.0855 568.3097 810.7527 571.8001 808.5898 575.8587 806.316 582.0278 805.6505 590.3479 805.0959 591.119 804.7077 595.2182 802.4339 598.668 798.7182 605.5676 792.9505 615.1865 790.2885 630.5685 791.2867 636.8999 793.3941 639.1727 794.6142 640.4309 794.5588 641.2426 794.5033 641.3238 793.616 641.5673 792.3959 641.8108 791.3422 641.9731 790.3439 642.379 789.1238 642.4196 788.6802 644.2865 787.7928 644.6518 788.0147 645.1388 788.181 645.5041 788.1256 646.0723 787.571 646.5188 786.9609 646.5999 786.7391 649.8062 782.9679 650.2933 782.9679 650.4962 782.5797 650.415 782.2469 650.415 782.0806 650.3338 781.5814 649.928 781.0823 649.7251 780.6386 649.1974 780.3613 645.9506 775.3146 646.1129 774.76 646.8029 774.4827 647.8581 774.3718 648.1422 773.9281 648.0204 773.4845 647.8175 772.9853 647.2493 772.5971 646.7623 772.098 646.7217 771.7098 646.7623 771.488 647.3711 771.0997 647.5334 771.0443 648.0204 770.8225 648.0204 770.7115 651.4702 768.6596 651.5108 768.6596 652.9719 768.715 653.6619 768.6596 653.7431 768.105 653.7431 767.8831 654.1083 767.7168 654.6765 767.1067 654.6359 766.3303 653.2966 764.722 653.2154 764.5002 653.8242 763.1137 654.3924 763.2246 654.8389 763.4464 655.0824 763.7237 655.2042 764.5002 655.61 764.4447 655.8941 764.0565 655.9347 763.6128 655.7318 763.1691 655.5288 762.7255 660.4397 761.5608 660.9268 761.6718 661.2514 761.3945 662.7937 761.8936 662.8749 762.2263 663.6054 762.7255 664.3766 762.5036 664.4983 762.5036 665.31 762.7809 665.3912 762.8364 665.5941 763.1137 666.1623 763.5574 666.8117 763.7792 667.0146 763.3355 672.4937 760.729 672.9808 760.618 673.7925 760.7844 674.4419 761.2836 674.726 761.6163 675.6189 761.8381 676.0653 761.4499 675.8218 761.0063 675.2942 760.5626 674.7666 760.2853 674.7666 760.1189 676.7553 759.6198 676.8364 759.6198 677.2829 759.9525 677.6076 760.5626 678.054 760.8399 678.6222 760.4517 678.8657 759.9525 679.1904 758.9543 680.4486 761.4499 680.408 763.8347 682.2344 768.9923 682.3967 769.8242 683.249 774.4273 683.1678 778.4758 686.2118 784.9644 686.8612 786.4063 688.1193 792.6177 689.3775 794.7252 690.7574 796.7771 691.5285 797.1653 692.949 797.9418 696.1553 798.4409 697.2106 798.3854 701.1068 798.2191 703.0549 796.3889 712.4303 788.4583 722.3332 785.9072 727.4876 789.6784 727.6094 789.8448 727.8529 790.0112 733.6567 794.226 734.8337 796.278 737.9182 799.3282 740.6781 800.271 741.7333 800.271 754.7614 800.992 754.8831 801.3247 753.6655 805.3178 753.0973 810.1981 753.3003 814.6903 753.7061 818.9052 755.1672 822.51 756.1007 827.6122 754.112 832.2153 752.2045 834.9882 751.9609 840.4231 753.4626 847.4109 754.1932 852.8459 757.4806 860.4437 760.9304 867.0988 765.1514 874.3084 765.1919 877.4696 760.2405 883.0709 759.6723 889.2823 758.7794 898.7103 756.2225 907.5282 755.6137 912.8522 752.5697 918.2317 751.1492 923.9994 754.6396 928.547 762.3915 925.6632 764.9484 928.0479 764.3802 931.93 756.5471 939.3615 752.5697 941.7462 747.8618 944.02 745.1425 946.6266 744.4525 953.6698 743.8438 957.7738 743.1132 960.9349 739.9881 963.9297 736.7006 968.1446 735.7672 971.0839 740.5563 972.6922 739.9881 976.1306 737.0253 981.5101 731.7492 981.5101 728.7052 987.9433 726.1077 995.7075 723.3479 1001.087 721.278 1003.8045 717.5847 1008.2967 715.6771 1010.3486 711.4562 1010.1268 705.5307 1015.8391 702.6897 1019.3884 699.8486 1021.1076 693.4361 1021.8841 686.9829 1021.1631 683.8578 1018.0574 679.921 1016.6709 673.8737 1019.0557 669.9368 1020.5531 666.2841 1018.5011 661.8602 1015.4509 659.5874 1013.0661 657.1117 1010.1823 655.4883 1006.6329 653.1343 1002.8063 647.7769 994.4875 643.6372 991.6591 638.361 986.6123 634.9924 985.9468 633.4501 985.3922 Z" />
        <path
            d="M 430.9265 86.351 431.4135 87.0719 431.9411 87.9038 431.9411 87.9593 431.9005 88.0702 431.7788 88.4029 431.4541 89.1794 430.7641 89.5121 429.8712 89.3457 428.5725 86.9056 428.0449 89.3457 425.2038 93.727 425.285 93.7824 426.0561 94.5034 429.3436 94.8361 430.3988 95.8344 429.5871 101.4357 428.9783 102.1567 428.7754 102.1567 426.3403 102.2122 426.7461 104.0978 426.7867 104.1532 425.0009 105.4842 424.9603 105.5397 426.2185 106.8707 427.3955 109.81 429.506 110.531 429.5465 110.531 425.8126 113.5257 425.772 113.5812 421.3076 120.569 419.8465 122.8983 418.7507 125.5603 416.5185 127.7786 414.1645 128.4996 411.8511 130.2743 410.7553 130.607 410.6741 130.607 409.7812 129.4424 408.8883 131.4944 408.8477 131.6053 410.39 132.2708 411.4452 134.4337 413.6369 134.2673 413.1498 136.5411 409.903 137.373 409.6594 137.4839 407.6707 138.5376 405.3168 142.4752 405.2762 142.5306 406.6155 143.6398 408.1984 142.9189 409.0912 142.4752 410.1059 142.7525 411.6482 148.132 411.6887 148.2429 411.8105 148.2984 414.1239 149.1857 414.9762 151.0713 415.0168 151.1267 415.5038 153.8442 415.7473 155.0089 417.5737 157.2272 417.6143 157.2272 416.1126 159.9447 416.1126 160.0001 416.072 160.0556 417.1273 161.553 417.9796 162.884 417.9796 162.9395 418.0201 163.6604 418.0201 163.7159 416.6808 163.9932 415.4226 163.494 414.408 163.7159 413.5557 163.9377 411.6482 166.267 411.567 166.4334 409.8218 168.5962 409.8218 171.6465 409.8624 171.7019 411.8511 173.7539 411.8917 173.8648 408.9289 174.8076 408.9289 174.8631 408.2795 176.1941 408.2795 176.2495 408.5636 176.6378 409.6594 176.7487 410.9176 176.8041 410.5117 178.967 410.5117 179.0225 411.8917 181.2408 411.9323 181.2963 409.1724 182.5164 409.1318 182.5164 410.0247 185.4002 410.0247 185.4557 409.0101 186.5094 409.0101 186.5649 408.9695 186.5649 409.2536 187.3413 410.9176 187.5631 417.3302 187.785 417.8984 188.3395 419.6842 190.2251 419.7247 190.2806 421.0641 192.7208 422.8904 193.3308 425.4879 191.1125 427.639 186.8422 427.6796 186.8422 427.7202 186.8422 429.2624 186.8422 431.2511 189.9478 431.2917 190.0588 431.3323 190.0588 433.321 191.057 434.8633 193.9409 434.985 194.1627 435.5938 200.5959 435.5532 200.8178 434.985 203.0916 434.7821 204.0344 434.7821 204.0898 433.524 206.53 432.7528 208.0274 432.6717 208.1938 432.6311 208.3047 432.8746 208.3047 434.2951 208.1938 434.4168 208.7484 434.4574 208.8038 433.524 210.1903 433.524 210.2457 433.4834 210.3012 433.6051 210.4121 434.0516 210.8003 434.2139 212.0204 434.1733 212.0759 434.1733 212.1313 433.8486 212.7968 433.7675 212.7968 431.4541 213.6287 431.4135 213.6287 432.144 215.5143 432.1846 215.6252 430.48 215.7916 430.4394 215.7916 431.5352 221.7257 431.0888 223.2231 430.3177 226.0515 430.4394 233.0947 430.3988 233.0947 430.2771 233.6493 430.0742 234.3703 428.4101 234.6476 425.4068 236.2559 425.1227 236.4223 424.0269 236.5886 423.9863 236.5886 424.2704 237.2541 425.1633 237.1432 425.8938 237.0878 426.2185 238.5297 425.5691 241.9681 425.5691 242.0236 424.0674 242.7445 423.7022 243.4655 423.6616 243.521 424.6356 245.0738 424.6356 245.1293 424.3921 246.7376 423.2151 248.6232 423.1745 248.7341 420.1306 250.7861 418.2231 253.1153 416.8837 256.1101 416.8026 256.221 416.762 258.7721 419.603 262.8761 419.6436 262.987 419.6842 263.0424 419.6436 263.0424 417.736 263.9852 416.5185 265.9817 416.4779 266.0372 414.9762 267.4791 413.4339 268.9211 413.3933 268.9765 413.4339 269.0874 414.1645 271.4722 413.8398 275.1879 413.1092 275.7979 410.9988 277.4617 408.1578 278.1827 407.5896 278.7927 407.5896 278.8482 407.5084 279.7355 407.4272 281.0665 407.3055 282.6194 407.0214 283.3403 405.885 283.0076 405.8444 282.9521 406.1691 285.4478 406.1691 285.5032 404.9515 285.8914 404.6268 286.446 404.5862 286.5015 406.7778 290.8273 406.7778 290.8827 406.1285 292.8238 404.9921 296.3177 404.8297 298.8133 404.7891 299.2015 404.6674 301.6417 404.6674 301.6972 401.664 302.3627 401.1364 305.6347 401.0958 305.6347 400.6494 305.912 399.31 307.5758 399.2695 307.5758 400.0406 309.4614 398.7824 312.5671 398.7824 312.6225 399.1071 313.9535 399.6347 315.7837 399.5941 315.8391 398.5795 318.1129 398.5795 318.1684 398.7824 319.1112 398.823 319.1112 400.3247 319.6658 400.3247 323.6588 400.3653 325.5444 399.7565 326.82 398.9042 327.0973 397.0778 326.709 397.0372 326.709 398.4171 331.5894 398.4577 331.6449 398.4171 331.7003 396.0632 333.0868 394.3586 339.3536 394.115 340.2964 392.7351 339.4645 390.8682 334.9724 390.8682 334.9169 388.5954 335.9707 387.946 337.0798 387.9054 337.1353 388.5548 340.2964 388.1895 341.1838 386.6472 340.4628 385.4702 338.4663 381.8987 335.6379 380.9246 335.3051 378.3677 334.4178 375.4455 334.806 374.5932 334.9169 373.5786 336.0816 370.6564 337.3571 370.4535 337.3571 367.3689 337.6899 360.2664 337.0798 356.4513 337.6344 355.5584 337.9672 352.4739 339.1318 347.4007 341.7384 342.1651 346.7296 339.2023 349.5026 338.7559 350.6118 338.7559 350.6672 339.2023 354.4384 339.0806 354.8266 338.7965 355.8249 337.863 356.6013 336.3207 356.8786 331.491 354.5493 329.9487 354.3829 329.137 354.8821 329.2182 357.3223 329.2588 357.3223 330.3952 358.0432 330.314 360.317 329.5023 361.5371 326.0525 363.8664 315.2161 366.5284 312.8215 366.2511 310.4675 363.3118 310.4269 363.2563 308.357 363.3118 305.6378 364.3101 305.4348 364.3655 302.5532 362.1472 301.9039 361.648 301.8633 361.648 299.1034 362.3135 298.4541 361.7035 297.5206 361.9253 297.0742 361.8144 295.8566 361.4817 294.3143 362.1472 294.1926 362.2026 294.0708 362.2581 293.5838 361.5926 291.8792 361.4817 291.8386 363.09 291.8386 363.1454 290.7022 366.7502 289.5658 369.4677 288.4699 372.0188 288.4294 372.0188 286.3189 371.7415 284.939 371.076 282.1385 369.8005 279.7034 369.6341 279.6628 369.6341 279.6222 369.6341 278.2017 370.1332 277.1059 371.2979 276.2536 374.2926 276.2536 374.3481 275.1172 375.6791 271.8297 378.5629 271.6674 378.7293 271.6268 378.7293 269.2322 379.4503 266.2289 378.8957 264.1996 378.0084 262.982 376.6219 262.982 376.5664 262.0485 373.7935 261.318 373.5717 261.2774 373.5717 259.7351 374.459 256.0012 378.8402 255.7577 379.0621 255.7171 379.173 253.3226 379.5612 250.4815 380.8368 250.441 380.7813 245.6112 378.3966 245.6112 375.9564 245.6112 375.8455 245.6112 375.79 247.4376 369.9114 249.1422 364.5319 249.1422 364.4764 253.6067 359.4297 253.5661 359.3742 252.592 356.2685 252.6326 354.6048 252.6732 354.6048 253.0384 353.1074 253.079 352.8856 254.0125 351.7209 254.0125 351.61 253.769 349.4471 248.4117 345.8978 247.5188 344.4558 247.4782 344.4004 247.5188 344.4004 249.3045 341.5165 249.3045 341.4056 249.3045 341.2947 249.5886 338.2445 250.2786 336.0816 250.3192 335.9152 251.8209 333.6968 252.0238 332.1995 253.4849 330.092 256.6506 329.2047 257.4217 328.7056 257.787 327.6518 257.7464 327.6518 254.4184 326.3208 251.9832 323.8807 250.441 323.437 249.3045 323.8252 248.8987 324.5462 248.8175 324.7125 248.8175 326.4872 249.6698 328.9829 249.6698 329.0938 249.7104 329.0938 247.0723 328.5392 245.8953 327.2636 245.8142 327.1527 244.9213 325.489 243.4602 322.7715 242.7702 318.5012 241.7556 316.5046 239.6451 316.1164 232.9078 316.1164 231.4062 314.3418 226.9011 308.9623 224.1007 308.4077 223.2484 307.7422 222.6802 306.9103 222.6396 306.8548 222.6396 306.7994 222.4773 300.4771 220.935 299.7006 220.8944 299.7006 220.8132 299.7006 220.0421 299.7006 214.6442 299.7561 214.563 300.3662 214.5224 300.3662 214.563 300.4216 216.4706 304.0264 216.3894 305.1911 216.0241 305.6902 215.9023 305.8011 213.6701 308.4631 213.589 310.1823 213.589 310.2933 214.2383 316.6156 212.4525 318.8339 210.3421 323.9361 208.7186 323.1042 205.837 323.2706 204.7412 322.716 204.7818 322.6051 207.1764 316.3383 207.217 316.3383 207.9475 314.4527 207.9069 314.4527 204.0107 314.0645 204.1324 311.347 204.0919 311.2361 203.6454 309.6832 201.9408 308.8513 201.2103 308.9068 201.0885 308.9068 201.0073 308.9068 200.9667 309.0177 200.8044 309.1841 199.2215 310.9033 198.8157 312.1789 198.7751 312.3452 198.6128 312.7889 198.5316 313.5099 198.5316 313.6208 197.8416 319.7767 198.4504 322.5496 198.4504 322.6051 198.491 322.6606 192.809 326.82 191.1449 327.43 190.9826 324.4352 190.8608 323.8807 190.8203 323.7697 189.3998 317.8911 189.4809 317.2256 189.5215 317.0038 189.8462 315.0627 189.968 314.7854 190.6173 313.5099 190.6173 310.7369 190.5767 310.6815 189.3186 307.0767 189.3592 307.0212 191.632 300.8098 191.9973 297.8151 192.0784 296.7613 192.0784 296.7059 192.119 296.3731 190.455 287.8325 191.7943 285.5587 191.8349 285.5032 191.8349 285.3923 192.0784 282.6194 190.4956 275.7979 191.1449 274.2451 191.2667 273.8569 193.5395 268.3665 194.4324 267.3682 194.1889 266.5363 190.2926 266.2036 190.0897 265.3162 190.9826 263.4861 191.2261 261.4341 193.2148 259.4931 193.296 259.3267 194.8383 256.7201 195.163 254.89 195.163 254.8345 194.1889 250.7306 192.4843 248.5123 191.9161 246.8485 184.4889 241.0253 184.4077 239.0288 186.2746 238.1969 186.3558 238.1969 188.9127 234.703 188.9127 234.5921 188.9533 231.3201 186.5587 229.7117 186.5182 229.6563 186.5587 229.6563 186.8834 229.4899 186.6399 229.1572 185.5441 227.7152 189.765 219.0637 189.8056 218.9528 188.8721 216.679 189.4809 215.2925 192.2814 212.4086 192.9307 209.4693 192.809 207.0846 195.163 203.2025 196.2588 200.1523 196.2588 200.0968 196.5429 195.161 195.9747 193.2199 196.0964 191.2234 197.2734 187.5077 197.3546 187.3967 198.491 185.733 203.686 184.4574 204.0513 184.402 207.8258 182.9046 219.4333 186.1212 223.5731 186.5094 225.8459 185.733 227.307 183.9583 227.6723 183.8474 228.9304 183.5146 234.2472 183.5701 235.6677 183.5701 237.007 182.9601 239.4422 180.7972 240.4568 179.1334 242.0803 173.8648 242.0803 173.8094 242.2426 169.2617 242.2832 169.2063 242.9731 166.0451 244.4748 161.9967 244.4748 161.8857 244.7183 158.2809 244.6372 158.1145 244.4748 157.56 244.2313 157.3936 244.1501 157.3381 243.2572 156.7835 242.9731 155.2862 242.9731 155.2307 243.9878 149.6294 243.9878 149.5739 243.7849 146.4682 243.8255 146.4682 244.8807 143.7507 244.7589 141.6988 247.1941 135.7647 247.1941 135.7092 247.397 128.7214 247.4376 128.6105 248.0058 127.4459 249.3045 126.2258 252.1456 126.9467 252.3079 127.0022 255.8389 125.3939 255.92 125.3939 257.0565 125.5603 257.3811 126.2812 256.7318 126.3367 256.6506 126.3367 256.2447 126.3922 256.3665 127.4459 258.1117 128.0559 258.477 129.4424 259.2481 130.1079 261.9673 130.8289 262.0079 130.7179 262.5761 129.7751 262.0891 128.0559 264.4431 129.9415 264.5243 129.997 264.646 130.1079 265.1736 129.7751 265.133 129.7197 264.8895 128.7214 265.5389 128.8323 265.5795 128.8323 266.5536 129.0542 266.6753 127.335 266.9188 125.7267 269.6381 123.1201 270.4092 121.5118 270.3686 120.1808 270.9774 120.2362 271.4644 119.848 272.5197 119.0716 272.6009 119.1825 272.682 119.238 273.5343 120.2362 274.2243 120.0144 274.7925 118.0179 275.5636 119.0716 276.7406 118.7943 281.9762 115.9659 285.2231 117.3524 288.0235 117.5742 288.1858 115.9105 290.8645 114.524 292.6503 112.6384 293.3403 111.5292 293.3403 111.4738 293.3808 107.7026 294.8419 106.7043 295.0449 105.817 294.3955 103.8759 295.5725 102.7113 296.8306 99.7165 297.7641 99.1065 300.5645 98.8846 301.7009 98.2191 301.2545 93.1169 303.9738 91.0095 303.9738 90.8986 303.9332 87.3492 308.5194 78.6977 308.5194 78.5867 308.4788 75.2592 308.5194 75.2592 311.1575 71.3217 314.9725 58.067 319.5182 46.7534 328.3253 32.0569 331.8157 22.7398 333.5203 18.8022 335.6713 14.2546 335.6308 14.1992 335.1031 10.2616 338.7965 7.1005 342.4086 2.3865 342.8551 1 352.2304 24.1263 353.6509 29.6167 354.2597 32.0014 354.5438 32.4451 355.7208 34.4416 356.9789 39.4329 359.4141 44.5906 362.0928 52.743 364.3656 58.2334 364.6903 59.0098 364.8932 59.2317 366.3949 60.84 368.0995 64.0011 368.3836 64.9439 369.033 66.885 368.7489 67.7723 366.1919 67.9387 366.7196 69.547 368.6677 69.7134 368.7489 69.7134 369.033 69.6024 370.3723 69.2142 370.9811 68.9924 371.1434 69.0478 372.5639 69.3806 372.2392 70.5452 372.1175 70.9889 372.5233 72.1535 373.3756 72.0981 373.8221 72.0426 373.7815 72.2645 373.6597 73.2072 375.4455 73.6509 377.2313 74.15 377.8401 73.9837 378.4895 73.8173 379.91 76.8121 380.3564 77.8103 380.6405 78.0322 382.8322 79.585 386.1602 81.0824 386.5661 81.1933 387.2154 82.0806 387.4184 82.8016 384.0497 86.7392 383.6845 87.4047 382.9945 88.7911 383.1569 89.7894 383.238 90.1776 383.6845 90.6767 385.1456 92.1187 385.0644 96.3335 385.4702 96.999 385.6326 97.3318 386.1602 97.5536 388.1489 98.33 388.3924 98.1637 390.5029 96.7772 392.7757 95.3353 393.1004 95.3907 395.9008 95.9453 396.8749 95.058 397.6866 94.337 398.133 93.5606 399.1477 91.7305 400.8929 87.5711 402.7598 86.4619 405.8444 83.5226 408.4419 82.8016 414.408 84.4654 415.7879 84.299 418.7101 83.1898 422.7687 80.4169 425.3256 81.3597 427.1926 80.916 427.8013 81.3042 429.5871 85.63 430.9265 86.351 Z" />
        <path
            d="M 457.1855 1322.3039 459.0931 1328.6817 460.6759 1332.2865 461.4876 1339.1079 458.0784 1360.3486 458.4031 1371.1076 460.7977 1376.0434 464.8969 1381.2011 464.978 1384.4732 462.0558 1387.3015 462.7458 1400.3898 464.2881 1405.9357 465.0592 1410.4278 466.3174 1417.0829 468.6308 1421.7969 469.3613 1425.7344 477.3161 1428.2855 478.7772 1431.1694 476.0986 1441.4293 472.1617 1444.9786 461.2847 1440.431 459.986 1436.9371 462.9893 1433.8869 460.4324 1431.6685 455.4809 1429.8384 449.2307 1433.9978 446.4303 1437.2699 441.0729 1441.4293 437.2984 1445.0341 433.7675 1448.6389 430.2771 1450.5799 425.2444 1453.2974 422.5658 1455.3494 420.8612 1458.2332 417.0461 1464.2228 412.8251 1474.9263 410.7553 1477.6438 401.8264 1478.1429 394.7644 1472.5971 383.9686 1473.2071 383.1569 1476.6455 385.7543 1480.5277 386.1196 1484.2988 385.1861 1487.6264 386.9313 1493.3941 391.5581 1497.6089 393.628 1502.1011 391.7611 1507.536 389.61 1510.6417 390.9899 1513.9138 391.477 1517.7405 389.9753 1523.73 390.6652 1527.6121 391.7205 1530.7732 392.7757 1533.7126 393.5468 1538.9257 393.8715 1543.1405 394.5615 1549.851 393.9527 1556.9498 394.6021 1564.2149 394.318 1569.0398 395.4138 1573.0883 395.982 1583.0154 396.3473 1587.6739 397.5648 1595.1608 397.8084 1600.2076 399.0259 1605.0325 397.2402 1612.0757 396.9966 1618.2316 398.6607 1624.5539 398.5389 1630.7653 399.4318 1636.0339 399.0665 1641.0806 401.5829 1647.7911 403.2469 1652.6715 397.8895 1654.8344 394.9673 1650.9523 392.8163 1648.3457 389.4883 1645.4064 382.1828 1643.1326 378.6112 1635.9784 376.4602 1632.4291 371.9551 1631.0426 367.2066 1627.9369 361.7275 1625.2749 357.4254 1623.4448 353.6509 1623.6111 349.7952 1622.8347 344.3161 1618.7308 344.9249 1613.8504 341.9216 1611.6875 332.2621 1607.3617 326.783 1605.1434 323.2115 1603.0914 319.8023 1595.9927 309.8181 1593.8853 303.162 1593.3307 297.3583 1596.7691 298.2106 1603.4796 297.5612 1614.2386 295.8566 1629.7116 296.1001 1638.5295 293.4214 1644.5745 291.4733 1632.7618 290.7833 1624.4985 286.9277 1625.6631 287.3741 1634.592 287.9017 1638.9732 288.2264 1645.0182 288.9164 1649.4549 289.2005 1654.058 288.5511 1657.1082 288.7946 1662.8759 291.0269 1668.9209 290.7022 1672.4703 289.8093 1675.8533 289.2005 1680.4563 287.2524 1684.4494 284.8172 1686.945 278.6482 1686.5568 273.0067 1686.0022 260.5874 1697.6485 258.1117 1701.6416 250.7251 1706.5219 242.7296 1708.9066 238.7928 1709.6276 237.9811 1706.1892 242.5267 1703.2499 238.874 1694.3765 231.9744 1688.0542 233.7196 1681.1773 235.4648 1677.7388 234.5719 1673.3022 231.3656 1670.0855 231.2438 1666.8135 233.7196 1660.3803 233.7601 1657.2191 232.7455 1653.7252 229.1334 1651.0077 228.484 1642.3562 221.1785 1629.157 217.6475 1621.3373 214.2383 1614.5714 211.5597 1611.2438 206.5676 1609.2473 212.6961 1603.4796 217.2417 1598.7656 221.422 1601.2058 225.4806 1604.5888 229.1739 1607.5281 232.502 1609.6355 235.5053 1612.0203 236.1547 1603.9233 236.7635 1596.7137 237.3723 1588.9494 237.697 1584.5682 234.856 1581.1298 232.502 1578.6341 229.9045 1575.6948 227.8346 1573.421 227.2258 1566.2114 226.7794 1560.2773 226.2923 1555.2305 225.8865 1551.4039 225.44 1546.2462 225.0342 1541.3104 224.4254 1535.5982 223.776 1530.6069 223.1672 1523.2309 222.7614 1517.9623 222.2743 1513.0819 221.8279 1507.2588 221.3814 1501.8793 220.6915 1495.3351 219.6768 1484.9089 219.1492 1478.8639 216.1053 1469.5468 213.8731 1463.28 211.6408 1455.8485 209.2868 1448.3616 206.5676 1440.5974 204.4165 1433.4987 202.2249 1426.8436 200.155 1419.9113 199.2215 1413.4781 198.3287 1405.1593 197.5169 1396.6741 196.4617 1387.5234 195.5282 1378.7054 194.6759 1370.7749 194.1077 1365.2844 198.9374 1360.515 194.1077 1359.4613 199.1404 1350.3106 194.96 1343.6001 188.588 1333.2848 183.4742 1325.1323 180.4709 1320.3629 179.4562 1318.8655 183.0684 1312.4877 184.9759 1309.1048 187.3299 1305.0008 189.4403 1301.1187 190.8203 1298.7894 189.9274 1294.2973 188.1822 1285.2575 186.924 1278.9907 186.1529 1275.6632 185.8282 1273.0011 185.26 1270.2282 184.7324 1267.0671 183.7989 1263.1295 182.3784 1255.6426 181.3232 1250.1521 178.3198 1234.5682 176.2499 1223.6429 174.6671 1216.2114 173.5307 1210.8319 171.7449 1200.8493 170.9332 1196.8563 170.9332 1196.7454 171.4202 1195.3035 171.4608 1195.1926 172.029 1192.4751 174.7888 1190.7004 176.534 1186.9847 180.7955 1183.7126 183.8801 1185.5427 191.632 1184.5445 196.0558 1186.4301 198.5316 1189.5912 205.3906 1194.638 211.9655 1203.7887 216.6329 1201.6812 218.9463 1199.4074 219.1086 1194.4716 223.9384 1192.8633 227.9158 1204.6205 229.5798 1204.8424 230.3103 1206.3398 231.2032 1209.3345 233.2325 1210.7765 233.4355 1216.2669 232.0961 1221.7018 233.5978 1227.8577 235.9112 1231.7953 238.7928 1234.0137 239.9292 1238.284 242.2832 1239.5041 246.9912 1244.2735 250.8468 1246.5473 254.8648 1249.5421 253.4037 1251.4832 253.6472 1253.5906 257.8682 1255.4207 260.6686 1257.8609 262.1703 1260.6893 265.0113 1267.8989 263.9561 1274.0548 263.8749 1280.3771 274.0214 1278.3252 282.4632 1275.2195 288.5917 1275.2749 297.3988 1280.599 295.329 1287.0322 296.6277 1294.7409 298.2106 1298.5676 307.9918 1305.0008 309.1688 1308.3838 312.1315 1313.1532 315.1349 1316.0371 328.7717 1324.4668 331.004 1327.5171 336.6048 1331.0664 337.376 1336.335 337.5383 1345.3748 341.5563 1358.5185 342.8551 1360.4041 346.1019 1360.7368 350.3229 1357.9084 351.1346 1359.6276 352.5957 1360.6259 354.3814 1360.2377 353.0827 1349.8669 351.6622 1346.7058 353.245 1338.3315 354.9902 1333.2293 361.0375 1327.0179 365.4614 1324.1341 365.7861 1321.0284 369.2359 1313.9851 369.3982 1308.9384 367.6936 1304.7235 367.2066 1301.5069 364.4468 1293.4099 364.7309 1290.3043 364.2032 1288.5296 369.033 1286.9213 369.8447 1283.5937 368.5865 1280.9317 368.7083 1277.3824 371.9957 1273.4448 375.4861 1273.1121 381.4928 1274.7204 383.8468 1274.4431 391.3958 1275.6077 396.8343 1277.8815 400.487 1283.0946 404.7891 1287.1986 408.726 1290.0824 410.8364 1292.5781 414.8544 1295.1846 419.0348 1300.6196 422.931 1304.1135 433.6457 1303.6143 436.4867 1308.772 436.852 1312.2659 439.8554 1324.4114 442.6558 1328.8481 445.6186 1328.6817 453.2487 1325.4096 457.1855 1322.3039 Z" />
        <path
            d="M 280.921 765.0547 284.7766 767.6613 285.1825 771.8207 284.9796 772.7635 282.4226 774.5936 288.957 775.5364 290.9051 778.2539 291.4733 781.3596 292.975 783.7998 292.6097 785.0753 292.1227 791.1758 292.8126 792.6732 292.4474 794.6142 292.1633 800.6592 292.3662 801.2138 292.1227 801.8239 291.9603 802.2675 290.8645 802.7667 290.2557 802.4339 288.6323 802.9885 291.2298 809.0335 290.621 812.9711 293.8273 815.7995 292.285 822.6209 290.621 826.9467 291.5951 830.8288 290.2557 833.9345 290.8239 834.4891 293.0561 834.6 292.0821 838.4266 293.5838 841.3659 294.8013 847.1891 294.1926 855.5634 293.5432 859.2791 294.8419 861.2756 294.4767 863.1058 295.7348 873.1438 297.1959 876.915 304.339 882.8491 304.0955 885.1229 301.5386 889.5041 303.7708 889.7814 303.4056 891.1679 305.5972 893.0535 310.3457 893.8853 314.2826 893.4417 316.0278 884.0137 317.7324 880.9635 316.7583 876.4713 317.6918 873.0883 316.5148 868.9844 315.8248 861.8857 316.1495 860.6101 323.6985 861.6084 325.0784 862.9948 326.783 866.2114 329.5429 864.9914 332.3839 865.7678 335.3061 865.4905 336.2801 865.8787 337.4165 866.5997 338.7153 869.9826 344.1538 867.2097 345.4525 866.1005 348.6588 865.5459 352.8392 868.7625 360.307 867.3761 365.7455 869.3726 368.2618 870.3154 377.7589 870.8145 378.9359 870.2045 379.7476 868.818 379.3012 865.1577 380.1129 861.3865 381.0058 860.1664 382.3451 860.1664 383.928 859.3346 390.4217 857.338 392.654 858.059 393.3845 860.2774 398.0113 862.3848 399.6347 863.383 399.6347 864.2704 399.5536 864.4922 399.4724 864.9914 400 865.1023 399.513 866.8215 400.2435 868.4298 399.8377 869.5944 401.177 872.201 403.2063 873.532 403.6527 874.4748 405.2356 875.4176 407.346 877.8023 408.1578 880.7416 406.0473 890.7797 406.4532 892.998 408.4825 897.1574 408.8071 898.8212 410.4712 901.4832 409.7 904.478 409.4565 905.5317 410.2276 912.2976 407.8331 919.8955 407.8331 927.1051 406.9402 928.658 403.8557 933.9265 404.018 934.2593 407.8331 941.5244 408.4825 942.5226 410.6335 945.9611 409.8624 949.9541 406.6561 956.7201 407.0214 957.441 410.2276 963.1533 411.7699 965.9262 415.0574 971.9712 415.4632 980.7337 415.585 981.3437 417.0461 987.9433 417.0461 988.8861 417.0461 993.9883 418.7913 1004.6364 419.4406 1008.7958 421.8352 1022.3832 422.2411 1024.7679 426.8273 1035.4714 427.0708 1036.026 426.8273 1036.6361 425.2444 1040.5182 424.6762 1042.0156 425.2444 1047.4505 425.4474 1049.6134 426.1779 1056.8231 426.2591 1057.5995 425.6097 1058.3759 413.0687 1072.8506 412.054 1073.9598 407.3055 1079.3393 407.1837 1079.8384 408.6854 1082.3895 411.567 1087.2699 411.7699 1087.6581 413.231 1090.0428 413.4339 1090.431 413.1904 1090.7638 411.9728 1092.3166 407.8331 1097.6407 403.2063 1103.3529 401.9481 1105.8486 402.841 1108.9542 403.4092 1108.8433 405.2762 1108.2333 408.2795 1107.235 413.0687 1105.6267 419.0348 1113.28 417.8984 1114.2783 415.0574 1116.8294 414.7733 1117.6613 413.4339 1121.6543 420.2118 1130.0286 420.2524 1130.084 422.2817 1132.2469 425.4474 1135.6853 425.0009 1141.6749 425.0009 1142.0631 426.3403 1146.0007 427.639 1149.6609 430.7641 1152.323 435.1068 1155.4841 438.1507 1157.7579 442.047 1159.4771 443.3457 1162.8047 443.4675 1163.082 445.0909 1165.3003 448.2566 1170.1807 449.4742 1172.1217 452.3964 1175.061 450.6918 1176.392 447.242 1181.217 446.3897 1199.8511 447.2014 1205.5079 448.0537 1209.2791 456.5362 1215.2131 458.7684 1219.9271 456.0897 1235.0674 456.6579 1239.5595 456.7391 1249.0984 461.9747 1261.4103 468.7525 1269.7845 470.9847 1273.2784 468.6713 1278.8798 470.1324 1290.4706 466.8044 1295.1846 467.6973 1299.5104 467.0885 1308.4393 464.1663 1316.0371 461.4065 1319.0873 457.1855 1322.3039 453.2487 1325.4096 445.6186 1328.6817 442.6558 1328.8481 439.8554 1324.4114 436.852 1312.2659 436.4867 1308.772 433.6457 1303.6143 422.931 1304.1135 419.0348 1300.6196 414.8544 1295.1846 410.8364 1292.5781 408.726 1290.0824 404.7891 1287.1986 400.487 1283.0946 396.8343 1277.8815 391.3958 1275.6077 383.8468 1274.4431 381.4928 1274.7204 375.4861 1273.1121 371.9957 1273.4448 368.7083 1277.3824 368.5865 1280.9317 369.8447 1283.5937 369.033 1286.9213 364.2032 1288.5296 364.7309 1290.3043 364.4468 1293.4099 367.2066 1301.5069 367.6936 1304.7235 369.3982 1308.9384 369.2359 1313.9851 365.7861 1321.0284 365.4614 1324.1341 361.0375 1327.0179 354.9902 1333.2293 353.245 1338.3315 351.6622 1346.7058 353.0827 1349.8669 354.3814 1360.2377 352.5957 1360.6259 351.1346 1359.6276 350.3229 1357.9084 346.1019 1360.7368 342.8551 1360.4041 341.5563 1358.5185 337.5383 1345.3748 337.376 1336.335 336.6048 1331.0664 331.004 1327.5171 328.7717 1324.4668 315.1349 1316.0371 312.1315 1313.1532 309.1688 1308.3838 307.9918 1305.0008 298.2106 1298.5676 296.6277 1294.7409 295.329 1287.0322 297.3988 1280.599 288.5917 1275.2749 282.4632 1275.2195 274.0214 1278.3252 263.8749 1280.3771 263.9561 1274.0548 265.0113 1267.8989 262.1703 1260.6893 260.6686 1257.8609 257.8682 1255.4207 253.6472 1253.5906 253.4037 1251.4832 254.8648 1249.5421 250.8468 1246.5473 246.9912 1244.2735 242.2832 1239.5041 239.9292 1238.284 238.7928 1234.0137 235.9112 1231.7953 233.5978 1227.8577 232.0961 1221.7018 233.4355 1216.2669 233.2325 1210.7765 231.2032 1209.3345 230.3103 1206.3398 229.5798 1204.8424 227.9158 1204.6205 223.9384 1192.8633 219.1086 1194.4716 218.9463 1199.4074 216.6329 1201.6812 211.9655 1203.7887 205.3906 1194.638 198.5316 1189.5912 196.0558 1186.4301 191.632 1184.5445 183.8801 1185.5427 180.7955 1183.7126 176.534 1186.9847 174.7888 1190.7004 172.029 1192.4751 171.4608 1195.1926 171.4202 1195.3035 170.9332 1196.7454 170.8926 1196.8563 170.0809 1199.5738 166.2252 1197.7991 162.0854 1195.8026 158.5545 1194.1388 154.0494 1192.3642 149.8691 1190.1458 148.6109 1180.8287 147.2716 1171.0126 146.0134 1164.5793 144.9176 1159.4217 141.8331 1154.4304 139.9255 1151.8238 137.5716 1148.7736 135.4205 1145.6679 134.1623 1144.1705 136.7193 1140.5103 138.8703 1136.7945 135.0958 1131.8032 133.0259 1128.5866 139.5603 1129.0303 135.4611 1122.5416 140.4937 1120.656 134.5682 1116.6076 132.9042 1115.3875 136.8816 1110.7844 137.8557 1109.6198 131.9707 1106.7914 130.0226 1105.904 130.7125 1097.8625 130.9966 1094.535 127.0192 1096.2542 123.61 1097.807 120.1196 1099.3599 115.9393 1089.8764 112.4895 1082.2786 110.4602 1077.4537 107.9439 1078.2856 98.0409 1081.6686 97.0262 1077.8419 96.9045 1075.2908 98.6091 1071.1314 95.7275 1069.9668 90.0049 1068.5803 86.1492 1067.693 77.9509 1065.5301 78.6408 1061.5925 79.3714 1057.1558 80.1831 1052.4973 80.589 1049.9462 80.9948 1047.2842 81.2789 1044.8994 79.9396 1042.2929 82.4965 1039.0763 83.1459 1035.6933 83.8358 1031.312 84.4852 1027.3745 85.094 1023.7697 85.7028 1020.6085 86.1492 1017.1701 86.7986 1013.6762 86.8392 1010.8478 87.3668 1007.9639 88.3409 1004.6919 88.7467 1002.1962 88.8685 998.5359 89.5584 995.7075 90.5325 991.9918 91.466 987.1114 91.9124 983.9503 90.4513 980.5673 88.422 975.4651 87.3668 973.2468 86.4333 971.0839 84.6881 966.869 83.7141 964.3179 82.4153 963.486 80.3454 963.7079 77.3015 959.5485 73.8517 956.9974 71.0919 954.6681 69.022 953.2262 71.2136 947.6803 72.6747 944.1309 74.2981 940.1379 75.5563 937.1986 73.4864 935.6458 69.7525 932.9837 68.4132 932.0964 70.6454 924.9977 71.9036 921.0601 73.3241 916.9007 72.2688 912.9077 71.1324 907.4173 69.8337 901.8159 69.2249 898.433 68.0885 895.7709 67.4391 891.8888 66.9521 888.8386 65.7345 884.3464 65.4098 881.3517 64.3952 877.2477 63.2994 872.1455 61.3512 863.2721 67.8856 863.3276 72.1471 863.2167 76.2463 862.9394 79.6149 862.1075 89.4773 862.1075 92.9677 861.6084 97.0262 861.8857 96.6204 860.6101 95.1999 857.5599 93.7388 853.7887 92.6836 851.3485 91.1819 847.9655 90.4919 845.8581 89.3961 843.6397 94.0229 843.5843 98.4873 843.7507 100.1514 845.0817 103.1953 843.5843 103.7229 844.2498 106.4828 846.5236 115.0058 845.1926 119.6732 839.0921 124.9088 834.6554 122.1489 833.0471 121.9866 831.3279 128.6832 830.8842 133.5941 829.886 135.9075 822.4545 137.9368 818.5169 137.9368 817.2414 140.1691 815.134 141.7519 808.4235 142.3607 808.0907 145.9728 809.089 147.9616 806.2051 146.1352 802.6003 144.877 792.5623 139.5197 787.6819 140.372 786.5173 140.3314 782.7461 141.6707 783.5225 141.346 778.864 138.3021 777.8657 137.7339 776.9229 138.708 775.4255 138.5862 770.8225 137.8962 767.2176 141.4272 763.9456 142.3607 761.0617 143.213 760.7844 149.9908 760.3408 152.7101 762.06 154.9829 764.9438 158.5139 765.9975 161.8419 764.2229 162.7754 760.2298 164.7235 761.5054 165.6164 761.4499 166.144 762.4482 169.9997 764.722 172.4754 767.8277 178.7662 767.9386 183.8801 767.3286 186.8834 768.4932 189.9274 767.6613 190.3332 767.6058 194.0265 767.4395 197.3546 768.1604 198.0446 768.6596 198.004 768.9923 199.3433 769.4914 203.7672 774.0391 208.7998 772.7635 209.8551 769.3251 210.8697 768.5486 217.8099 769.1032 224.3848 764.1674 225.6024 760.0635 223.9384 752.7984 226.6576 750.3582 233.1919 752.7984 234.4095 755.6268 241.2685 757.4014 243.6631 760.6735 246.5041 762.6146 250.0351 762.9473 252.4297 760.1189 257.0159 759.5089 259.9381 761.5608 263.672 765.7202 272.1544 766.3858 276.1724 766.1085 280.921 765.0547 Z" />
        <path
            d="M 250.441 380.7813 250.5221 380.8368 252.3079 386.7708 248.9799 389.2665 247.4782 393.315 256.7724 395.6442 262.0891 397.1416 263.1849 402.022 270.9774 403.5748 274.3866 411.339 271.9109 416.1085 262.5761 419.6024 259.7757 422.3199 259.8163 426.5347 260.9933 430.0841 261.0339 435.63 264.0372 441.5086 266.3506 447.9418 268.4205 452.1012 273.9808 459.2554 273.2096 462.6938 266.9594 463.5812 263.3473 465.6886 263.0632 470.8463 269.7598 471.9 266.3506 476.7249 260.8309 476.3367 257.6247 473.7856 254.3372 478.9432 251.8209 482.9917 248.9393 486.652 252.1456 489.0367 258.5987 488.9813 260.5468 494.1389 259.1669 503.1232 255.4736 506.0071 251.902 509.5564 256.0012 512.2185 257.3811 519.6499 258.3552 525.5285 260.0598 528.5788 261.5209 532.5718 264.6054 538.2286 267 542.0552 270.6933 543.8854 274.7113 544.1072 277.5117 546.6029 272.8038 558.1937 269.9628 563.6841 267.3247 567.0117 264.1184 573.1121 256.9347 579.5453 256.9753 586.9213 259.4104 590.138 262.7385 592.2454 267.2841 595.1292 267.2435 598.4568 271.2615 599.5105 278.5264 601.0079 282.6256 603.2817 281.9762 609.1048 282.3821 612.7096 280.3528 618.8101 275.2795 622.1931 270.1657 623.3023 266.8377 625.6315 267.0406 629.2918 268.3393 634.4495 272.6414 638.7752 271.5456 645.9294 270.1657 649.6452 264.4025 650.3107 262.2109 654.0819 261.4397 658.4076 257.5435 659.5168 255.5954 663.5098 259.1669 671.4959 263.3473 673.1042 268.664 673.9915 270.2063 680.4802 271.8703 683.6968 273.0473 687.9671 270.7339 693.4021 270.8557 700.5563 271.3427 708.5423 271.018 715.9738 271.4239 726.1227 271.0586 732.2232 271.9109 738.7673 276.5783 745.4778 278.8511 752.3547 277.39 759.6198 280.921 765.0547 276.1724 766.1085 272.1544 766.3858 263.672 765.7202 259.9381 761.5608 257.0159 759.5089 252.4297 760.1189 250.0351 762.9473 246.5041 762.6146 243.6631 760.6735 241.2685 757.4014 234.4095 755.6268 233.1919 752.7984 226.6576 750.3582 223.9384 752.7984 225.6024 760.0635 224.3848 764.1674 217.8099 769.1032 210.8697 768.5486 209.8551 769.3251 208.7998 772.7635 203.7672 774.0391 199.3433 769.4914 198.004 768.9923 198.0446 768.6596 197.3546 768.1604 194.0265 767.4395 190.3332 767.6058 189.9274 767.6613 186.8834 768.4932 183.8801 767.3286 178.7662 767.9386 172.4754 767.8277 169.9997 764.722 166.144 762.4482 165.6164 761.4499 164.7235 761.5054 162.7754 760.2298 161.8419 764.2229 158.5139 765.9975 154.9829 764.9438 152.7101 762.06 149.9908 760.3408 143.213 760.7844 142.3607 761.0617 141.4272 763.9456 137.8962 767.2176 138.5862 770.8225 138.708 775.4255 137.7339 776.9229 138.3021 777.8657 141.346 778.864 141.6707 783.5225 140.3314 782.7461 140.372 786.5173 139.5197 787.6819 144.877 792.5623 146.1352 802.6003 147.9616 806.2051 145.9728 809.089 142.3607 808.0907 141.7519 808.4235 140.1691 815.134 137.9368 817.2414 137.9368 818.5169 135.9075 822.4545 133.5941 829.886 128.6832 830.8842 121.9866 831.3279 122.1489 833.0471 124.9088 834.6554 119.6732 839.0921 115.0058 845.1926 106.4828 846.5236 103.7229 844.2498 103.1953 843.5843 100.1514 845.0817 98.4873 843.7507 94.0229 843.5843 93.0082 843.307 90.4107 839.4249 88.4626 836.541 86.7986 833.879 84.5258 830.2742 85.7839 824.6174 86.9609 819.5707 87.7321 816.2986 83.9982 813.3038 81.6036 811.5291 79.1684 809.699 75.7186 807.0925 73.0806 805.0959 75.5969 798.0527 77.1392 793.7269 78.3161 790.3439 79.5337 787.0719 80.5078 784.2989 82.4559 778.753 80.5078 776.0356 78.1132 776.2019 76.6115 772.8744 70.4019 774.6491 70.0772 770.1569 73.4052 766.9403 70.5236 766.5521 65.004 765.8866 66.4651 757.8451 66.8303 755.5158 65.7751 751.0791 67.3579 752.0774 68.0479 748.8608 68.332 746.2542 66.5056 745.6442 61.96 744.4241 61.7571 739.8765 61.5136 736.3826 61.3106 733.6651 61.0671 730.7258 58.632 731.835 54.7763 733.5542 52.0165 733.5542 51.7324 729.4502 51.6106 725.79 51.3265 721.686 51.4483 717.6375 51.6512 714.6428 51.6512 711.4816 51.083 709.1524 48.0796 708.0432 46.2533 707.9323 41.9106 705.5475 45.8068 702.5528 47.7955 700.8335 46.7809 699.3916 44.0616 697.4506 41.1395 695.2322 41.2206 689.7418 41.2612 683.9186 41.5453 676.3208 41.6671 672.1614 41.7888 667.5583 38.2579 664.7854 34.4428 661.9015 34.7269 651.8635 35.3763 641.8255 35.7415 633.7285 33.834 629.7355 32.3729 626.297 26.6097 625.9088 25.798 622.2485 21.8206 621.4721 21.8206 616.259 21.9423 611.6005 21.8612 607.4411 23.931 605.4446 27.4214 604.6127 22.8352 603.0598 15.7733 601.9507 18.249 593.1327 11.9176 590.3598 12.7293 587.9751 14.8398 582.4292 17.0314 576.9388 19.1013 571.0047 20.2377 568.1208 22.267 562.5195 24.0528 557.5837 22.4699 553.757 21.0088 549.9858 19.426 545.9374 16.5038 538.7277 13.9469 537.7295 6.8444 534.6792 5.7486 524.1975 5.0586 515.7124 4.6527 510.6102 4.1251 507.2272 3.8816 503.2341 2.664 490.8668 2.1364 485.1546 1.6494 482.3262 1.487 478.8323 1 475.7266 9.3201 474.562 14.0687 474.1183 15.7327 474.1183 16.7473 474.0074 18.0055 473.6746 17.559 472.9537 17.2344 472.3991 17.0314 472.0109 16.8691 471.7336 16.6256 471.2345 16.4632 470.8463 16.0168 469.7371 14.6774 466.6868 12.6887 462.8602 11.1465 460.0318 8.9548 455.5951 11.7553 451.6021 13.6222 448.8291 16.0574 445.2243 18.3708 441.564 19.913 439.0129 23.3628 439.6785 25.311 440.0667 26.2038 440.344 27.1373 440.5658 29.8972 441.2868 32.3729 441.6195 34.9704 442.285 36.8374 442.6178 38.542 443.0614 39.9219 442.1186 39.6784 441.0649 39.3943 440.0112 39.2319 438.1256 38.8666 436.4618 38.542 435.2972 38.4202 434.299 38.2173 433.4116 37.9332 431.9697 37.6085 430.3059 41.5047 430.9714 41.5453 430.6387 41.3424 430.5832 40.9365 430.4723 40.7336 429.3631 41.3018 428.864 42.8035 429.1413 42.9252 427.4775 42.1135 426.2574 42.56 425.4256 42.4382 425.0928 42.2353 424.5382 42.6817 424.2609 43.2093 424.9819 43.6964 424.0391 44.3052 423.9282 45.2792 415.3321 45.9692 415.0548 47.1462 415.1657 48.4449 413.9456 49.8654 414.4447 50.3119 413.0583 50.7583 410.2299 49.5813 405.4604 50.4336 403.7412 49.7437 402.5766 48.6073 402.022 44.0616 400.5801 41.9918 397.7517 38.8261 394.9233 38.3796 390.3757 38.8261 388.9892 38.3796 388.4901 37.365 387.4363 38.339 379.5057 37.5273 377.3983 38.339 377.2319 38.8261 377.121 38.339 370.9096 40.0842 370.2441 39.9219 369.5786 41.7482 369.6341 43.047 367.4712 44.711 367.5267 45.1575 364.4764 45.9692 364.5319 47.0244 362.1472 48.5261 361.2044 48.4855 360.4834 48.1202 360.1507 47.1868 359.3188 49.3784 357.8214 48.2014 349.6135 48.3232 348.0607 46.4562 346.5078 41.383 339.0209 41.5859 338.2445 42.56 337.9672 43.9399 338.799 44.4675 338.2445 42.1947 335.6934 42.7223 333.7523 41.0989 332.0331 42.8441 330.5357 42.8847 329.8147 39.3943 327.5409 41.4641 325.6553 41.6671 324.2689 40.2466 320.664 40.1654 318.1129 41.2206 316.3383 42.6817 317.1701 43.534 316.4492 42.3976 312.3452 44.5081 311.347 42.7223 309.6278 41.18 305.9675 42.1135 304.4146 42.8035 304.1373 44.1428 304.6919 45.6039 304.0264 45.2792 302.5845 45.8068 301.5862 46.7809 301.2535 48.2826 300.7544 48.0796 299.4788 47.5926 299.4234 45.2792 299.0906 45.2386 298.7579 48.8102 296.6504 49.4596 295.5967 49.0537 293.7666 49.2566 290.9382 48.6884 287.8325 50.2307 286.3351 51.1236 284.4495 48.9725 284.5604 49.906 282.8412 49.7437 281.6766 51.6512 280.0683 51.6918 279.0145 49.6625 276.6298 51.3671 275.687 51.2453 274.7997 49.1349 272.9141 48.9319 267.0909 50.7989 264.8171 49.2972 263.597 49.6219 262.3215 48.8914 259.9367 48.9319 257.6075 49.6219 256.8311 51.6918 256.3874 51.6512 254.0027 52.3006 253.6145 53.6805 254.3354 54.3705 253.7808 54.7357 252.1725 53.0311 249.3996 51.3671 240.859 49.7843 240.1934 49.1755 239.1397 50.0684 233.372 50.1495 229.7672 50.6771 228.3807 50.393 226.5506 48.1608 225.6633 49.906 224.3323 49.3784 223.6667 49.7843 222.2803 46.6186 219.8401 46.4968 218.8418 47.1868 218.01 46.9027 217.0117 46.1315 216.4571 43.5746 214.5715 43.5746 213.4623 45.6851 213.2405 46.6591 213.1851 46.5374 212.4641 42.7629 210.3012 40.8148 207.4173 38.542 208.9147 36.5532 206.3636 36.5127 205.4763 39.1507 202.0933 39.2725 200.9287 32.2917 201.7606 30.5871 201.4833 30.7495 200.2632 30.7901 199.8195 31.2771 199.4313 28.3955 197.9894 29.4507 196.5474 29.6536 195.0501 27.5432 193.5527 27.5026 192.0553 27.8679 190.6688 26.5691 188.8941 26.0415 186.5094 26.8532 184.0138 27.4214 183.5146 28.0708 182.9601 27.7461 181.5181 32.3729 180.8526 37.0809 181.7954 39.4754 180.9635 81.4818 181.9063 94.3476 181.0745 101.8154 181.5181 108.3091 180.5199 112.2865 180.7417 112.3677 184.0692 110.7037 192.7762 109.6485 201.8715 109.4455 209.0811 110.4602 214.7934 109.9326 220.2283 112.0836 224.1659 119.5108 227.7152 120.2008 228.9908 120.3226 233.8712 122.5548 236.3113 122.7983 237.2541 120.8502 241.6354 121.7431 248.4568 122.3518 249.1778 123.2042 249.2887 125.274 248.1795 126.6945 248.0131 131.1996 254.3909 135.6234 254.5018 139.5603 259.3267 140.7373 259.1603 141.5084 260.3804 142.0766 260.214 143.2536 258.2175 144.9988 257.4966 146.4599 256.8865 146.4599 255.5001 147.4339 254.9455 150.6808 256.2765 151.5331 255.9992 151.939 254.89 150.1126 251.0079 151.3708 250.0651 151.3708 248.6232 152.913 248.3459 153.3189 247.514 151.736 245.4066 152.7101 245.4066 153.603 244.6856 154.2118 243.9092 154.2524 242.5227 154.9017 241.9681 156.3628 241.9681 160.8679 243.4655 164.48 243.0773 166.0223 242.0236 166.5905 238.9734 167.6863 238.5297 168.9445 238.8624 170.8114 241.5245 173.0031 241.7463 172.4348 240.2489 170.2026 237.2541 173.6118 237.2541 174.3424 236.5886 173.5307 234.3148 174.5859 233.0393 176.2093 232.5956 179.0098 234.7585 181.4449 234.814 184.3265 233.5384 184.4889 232.4292 185.5847 231.7637 186.5182 229.6563 186.5587 229.7117 188.9533 231.3201 188.9127 234.5921 188.9127 234.703 186.3558 238.1969 186.2746 238.1969 184.4077 239.0288 184.4889 241.0253 191.9161 246.8485 192.4843 248.5123 194.1889 250.7306 195.163 254.8345 195.163 254.89 194.8383 256.7201 193.296 259.3267 193.2148 259.4931 191.2261 261.4341 190.9826 263.4861 190.0897 265.3162 190.2926 266.2036 194.1889 266.5363 194.4324 267.3682 193.5395 268.3665 191.2667 273.8569 191.1449 274.2451 190.4956 275.7979 192.0784 282.6194 191.8349 285.3923 191.8349 285.5032 191.7943 285.5587 190.455 287.8325 192.119 296.3731 192.0784 296.7059 192.0784 296.7613 191.9973 297.8151 191.632 300.8098 189.3592 307.0212 189.3186 307.0767 190.5767 310.6815 190.6173 310.7369 190.6173 313.5099 189.968 314.7854 189.8462 315.0627 189.5215 317.0038 189.4809 317.2256 189.3998 317.8911 190.8203 323.7697 190.8608 323.8807 190.9826 324.4352 191.1449 327.43 192.809 326.82 198.491 322.6606 198.4504 322.6051 198.4504 322.5496 197.8416 319.7767 198.5316 313.6208 198.5316 313.5099 198.6128 312.7889 198.7751 312.3452 198.8157 312.1789 199.2215 310.9033 200.8044 309.1841 200.9667 309.0177 201.0073 308.9068 201.0885 308.9068 201.2103 308.9068 201.9408 308.8513 203.6454 309.6832 204.0919 311.2361 204.1324 311.347 204.0107 314.0645 207.9069 314.4527 207.9475 314.4527 207.217 316.3383 207.1764 316.3383 204.7818 322.6051 204.7412 322.716 205.837 323.2706 208.7186 323.1042 210.3421 323.9361 212.4525 318.8339 214.2383 316.6156 213.589 310.2933 213.589 310.1823 213.6701 308.4631 215.9023 305.8011 216.0241 305.6902 216.3894 305.1911 216.4706 304.0264 214.563 300.4216 214.5224 300.3662 214.563 300.3662 214.6442 299.7561 220.0421 299.7006 220.8132 299.7006 220.8944 299.7006 220.935 299.7006 222.4773 300.4771 222.6396 306.7994 222.6396 306.8548 222.6802 306.9103 223.2484 307.7422 224.1007 308.4077 226.9011 308.9623 231.4062 314.3418 232.9078 316.1164 239.6451 316.1164 241.7556 316.5046 242.7702 318.5012 243.4602 322.7715 244.9213 325.489 245.8142 327.1527 245.8953 327.2636 247.0723 328.5392 249.7104 329.0938 249.6698 329.0938 249.6698 328.9829 248.8175 326.4872 248.8175 324.7125 248.8987 324.5462 249.3045 323.8252 250.441 323.437 251.9832 323.8807 254.4184 326.3208 257.7464 327.6518 257.787 327.6518 257.4217 328.7056 256.6506 329.2047 253.4849 330.092 252.0238 332.1995 251.8209 333.6968 250.3192 335.9152 250.2786 336.0816 249.5886 338.2445 249.3045 341.2947 249.3045 341.4056 249.3045 341.5165 247.5188 344.4004 247.4782 344.4004 247.5188 344.4558 248.4117 345.8978 253.769 349.4471 254.0125 351.61 254.0125 351.7209 253.079 352.8856 253.0384 353.1074 252.6732 354.6048 252.6326 354.6048 252.592 356.2685 253.5661 359.3742 253.6067 359.4297 249.1422 364.4764 249.1422 364.5319 247.4376 369.9114 245.6112 375.79 245.6112 375.8455 245.6112 375.9564 245.6112 378.3966 250.441 380.7813 Z" />
        <path
            d="M 403.2469 1652.6715 401.5829 1647.7911 399.0665 1641.0806 399.4318 1636.0339 398.5389 1630.7653 398.6607 1624.5539 396.9966 1618.2316 397.2402 1612.0757 399.0259 1605.0325 397.8084 1600.2076 397.5648 1595.1608 396.3473 1587.6739 395.982 1583.0154 395.4138 1573.0883 394.318 1569.0398 394.6021 1564.2149 393.9527 1556.9498 394.5615 1549.851 393.8715 1543.1405 393.5468 1538.9257 392.7757 1533.7126 391.7205 1530.7732 390.6652 1527.6121 389.9753 1523.73 391.477 1517.7405 390.9899 1513.9138 389.61 1510.6417 391.7611 1507.536 393.628 1502.1011 391.5581 1497.6089 386.9313 1493.3941 385.1861 1487.6264 386.1196 1484.2988 385.7543 1480.5277 383.1569 1476.6455 383.9686 1473.2071 394.7644 1472.5971 401.8264 1478.1429 410.7553 1477.6438 412.8251 1474.9263 417.0461 1464.2228 420.8612 1458.2332 422.5658 1455.3494 425.2444 1453.2974 430.2771 1450.5799 433.7675 1448.6389 437.2984 1445.0341 441.0729 1441.4293 446.4303 1437.2699 449.2307 1433.9978 455.4809 1429.8384 460.4324 1431.6685 462.9893 1433.8869 459.986 1436.9371 461.2847 1440.431 472.1617 1444.9786 476.0986 1441.4293 478.7772 1431.1694 477.3161 1428.2855 469.3613 1425.7344 468.6308 1421.7969 466.3174 1417.0829 465.0592 1410.4278 464.2881 1405.9357 462.7458 1400.3898 462.0558 1387.3015 464.978 1384.4732 464.8969 1381.2011 460.7977 1376.0434 458.4031 1371.1076 458.0784 1360.3486 461.4876 1339.1079 460.6759 1332.2865 459.0931 1328.6817 457.1855 1322.3039 461.4065 1319.0873 464.1663 1316.0371 467.0885 1308.4393 467.6973 1299.5104 466.8044 1295.1846 470.1324 1290.4706 468.6713 1278.8798 470.9847 1273.2784 468.7525 1269.7845 461.9747 1261.4103 456.7391 1249.0984 456.6579 1239.5595 456.0897 1235.0674 458.7684 1219.9271 456.5362 1215.2131 448.0537 1209.2791 447.2014 1205.5079 446.3897 1199.8511 447.242 1181.217 450.6918 1176.392 452.3964 1175.061 449.4742 1172.1217 448.2566 1170.1807 449.1495 1170.1807 449.1901 1169.0715 449.4742 1167.5741 449.8801 1166.5204 449.2713 1165.5221 448.8654 1164.9676 449.0684 1163.5811 449.8801 1162.6937 451.26 1162.0837 452.2746 1161.9728 454.1416 1162.361 454.9939 1163.0265 455.6839 1163.3592 456.942 1163.1374 457.5102 1162.5274 458.606 1162.5828 459.783 1163.1374 460.7571 1163.6365 461.0818 1163.6365 461.6906 1163.3038 462.1776 1162.7492 462.8676 1163.1929 463.2328 1164.0248 463.4358 1164.7457 467.1697 1166.6313 472.7705 1169.4597 474.4345 1170.2916 474.4751 1170.347 474.7592 1170.7353 479.8325 1177.6676 487.7873 1185.7646 493.3882 1187.7611 495.0522 1188.3157 495.2551 1188.3157 497.2438 1188.2602 501.0995 1188.1493 501.343 1188.1493 505.1581 1188.4266 507.1062 1186.3192 506.9033 1182.3261 509.2572 1178.7768 509.9878 1173.0091 512.9506 1170.7907 514.087 1167.7959 520.459 1168.2951 522.3665 1159.9763 531.6607 1161.4737 538.682 1162.6937 542.1724 1161.6955 543.7147 1161.2518 543.7147 1157.0924 548.098 1155.6505 554.0641 1152.8776 557.1892 1153.8758 559.2997 1154.4859 557.2298 1156.3715 556.4992 1158.6453 556.3369 1159.0889 561.9377 1163.1374 563.4394 1164.0802 566.5645 1166.0213 569.5679 1167.8514 572.206 1179.2204 574.4788 1190.8113 575.3717 1196.6899 573.0177 1201.0157 569.8926 1205.1751 568.1474 1208.0035 567.4168 1213.2721 566.1993 1216.8215 563.7641 1218.9843 565.4687 1225.5839 569.6491 1229.0224 571.4348 1235.6774 568.9591 1240.7796 569.2026 1243.8853 571.8001 1250.5958 573.9512 1253.9788 576.5893 1256.8072 579.2273 1259.1365 576.7516 1267.3998 583.1236 1273.5557 586.6546 1274.1103 591.2408 1278.3806 593.0671 1281.5418 595.6646 1288.6405 596.5981 1294.5746 597.4098 1303.1152 590.9567 1306.2209 589.4144 1308.9938 586.411 1310.9349 583.2048 1315.9262 581.2972 1320.6402 577.198 1324.1895 577.8474 1330.1791 577.5227 1333.7839 574.6005 1339.6071 580.0796 1341.659 584.0977 1341.8254 587.4663 1343.4892 589.3738 1347.5931 587.3445 1351.6416 587.3039 1357.0211 590.4291 1361.7351 592.4989 1370.0539 591.119 1374.7124 589.942 1377.929 592.4178 1381.6448 595.0153 1385.7487 597.491 1388.9653 604.837 1393.2356 608.8956 1392.1819 617.4187 1393.8457 619.2045 1397.0068 621.9643 1402.3309 625.7794 1405.7138 627.7275 1410.0396 626.0229 1415.641 626.4693 1419.3012 630.0409 1422.4069 630.8932 1426.1781 629.3509 1428.951 628.7016 1434.5524 631.502 1439.0445 628.9045 1447.9734 630.2032 1452.9647 631.9484 1456.2367 633.856 1466.3302 633.5313 1470.656 635.6823 1472.9853 638.2798 1475.8137 631.4208 1479.0857 633.5313 1483.6888 634.2618 1486.7945 634.7489 1491.5639 634.9924 1495.7233 634.5865 1501.0474 634.9112 1504.7631 635.1547 1508.5343 636.494 1511.9727 638.7669 1516.0767 639.6192 1521.8444 631.4208 1525.4492 627.3622 1529.4977 622.8572 1529.8305 614.2936 1529.4422 610.9655 1529.9414 607.191 1531.1615 601.2655 1530.496 597.8563 1535.1545 601.5496 1539.4803 604.5935 1543.5288 605.3647 1547.2999 604.4312 1551.1266 606.3387 1556.2288 610.9249 1559.3345 613.5224 1562.8284 611.2496 1567.0987 608.9362 1574.6966 603.173 1577.4695 599.1144 1578.4123 592.6207 1578.4123 587.2634 1576.8594 581.906 1570.1489 579.9985 1563.7712 574.357 1562.2738 568.1068 1563.5494 564.7788 1563.1611 559.0967 1560.9428 554.2264 1557.0607 547.4892 1557.1716 539.5749 1560 535.5975 1560.4437 530.7678 1564.2149 530.6866 1569.3171 535.4757 1578.9114 536.328 1585.8992 534.3393 1591.7778 533.5682 1596.1591 531.6607 1599.0984 530.9301 1603.8678 535.7193 1608.5818 539.2096 1611.3548 541.4825 1615.9024 544.0394 1621.0046 543.4712 1628.547 539.5343 1630.0444 534.3799 1630.3771 530.4837 1628.9906 525.6945 1626.5505 521.0272 1626.5505 514.8175 1626.0513 510.1096 1626.1622 508.2832 1631.0981 509.8255 1634.4811 509.0949 1639.7496 507.2685 1643.6872 504.7928 1650.0095 501.9112 1655.9436 499.8819 1659.6038 499.3543 1663.1532 499.3137 1670.4738 500.4095 1675.4096 505.0363 1683.6729 506.3351 1689.5516 505.7669 1695.2638 506.1727 1699.9223 505.5639 1707.8529 503.7782 1710.5704 498.6643 1711.846 494.1999 1709.9049 489.776 1703.6935 487.0568 1695.7075 485.5957 1692.6572 481.2936 1690.2725 478.8178 1687.4996 477.1132 1683.3402 476.8697 1678.7371 473.0952 1676.6851 469.6454 1676.8515 466.5203 1679.5135 460.4324 1684.6157 455.4403 1683.4511 456.1303 1688.3869 458.4031 1691.1599 453.7763 1695.652 450.773 1699.645 448.7843 1705.5791 447.0796 1709.794 445.2127 1714.508 442.6964 1720.3866 441.8441 1726.0434 442.9399 1730.9238 439.4495 1733.0312 436.0403 1728.0954 435.3097 1709.794 433.0369 1703.3608 429.7089 1694.2101 428.2884 1688.8306 425.0415 1684.6157 422.5658 1682.3419 418.3854 1679.3472 415.1385 1676.5742 413.6369 1672.2484 412.8657 1665.427 412.0946 1660.3248 412.0946 1655.9436 410.4712 1652.8379 407.5084 1651.3405 403.2469 1652.6715 Z" />
        <path
            d="M 292.1227 801.8239 293.6244 805.4841 300.6457 822.7873 307.4236 822.1218 323.6173 811.5291 337.3354 817.5741 343.5044 818.9052 353.8944 821.0126 360.6723 836.9847 375.0397 838.9812 385.105 821.6226 402.6381 805.4841 387.5807 797.2208 374.6338 774.9819 380.0317 762.7809 389.4477 742.2612 392.9381 734.8297 401.7858 699.3916 421.0235 673.5479 443.0211 671.2741 447.242 670.8858 465.8709 676.6535 482.2676 701.2218 514.0058 730.5594 525.5322 741.4848 527.9673 743.5368 531.1736 746.1988 529.0632 767.2176 528.6167 771.9316 529.7531 779.9177 531.5795 792.6177 532.4318 810.6973 531.3766 812.0837 528.8602 815.3558 511.1242 838.3157 509.7443 846.2463 518.7543 854.676 526.7092 858.059 535.2322 879.1333 553.9017 883.57 589.1709 891.6115 612.4672 902.0378 624.7241 941.0807 628.1334 956.5537 631.2585 971.6385 632.8413 978.9036 633.4501 985.3922 630.4873 984.2831 628.0928 985.6695 625.5359 986.3905 622.776 985.8359 618.5551 989.1634 615.4706 990.6053 612.589 991.8254 608.6521 989.8289 604.3906 985.6695 598.8303 983.2293 595.137 983.9503 594.0818 986.7787 591.7684 988.8307 589.1303 992.7682 590.5508 996.7058 591.0784 1001.0316 590.0638 1003.6936 588.2374 1007.2984 589.942 1011.3469 591.0378 1016.0609 587.2634 1020.3867 583.7324 1017.891 581.1349 1016.0609 565.7528 1005.4128 557.4327 1003.4718 556.2963 1001.5307 557.311 999.756 555.4034 998.425 542.4971 992.8237 532.1477 991.6591 529.2661 989.2743 529.7125 975.2987 531.0925 972.5813 530.2807 970.4738 527.8862 968.0891 523.6247 968.1446 519.4037 969.4756 515.8322 969.4756 505.8074 963.9297 501.0183 960.1585 497.8932 959.0493 497.1221 956.9974 495.458 957.1083 494.6057 955.9436 494.0781 955.1672 493.0229 955.2781 490.9124 952.3943 479.386 947.6803 479.1019 945.1847 476.0986 945.4065 474.5157 944.4082 475.0433 934.9248 475.6927 934.0375 475.6927 932.0964 474.2722 931.9855 474.9216 928.3252 474.0287 927.3824 474.881 923.1121 472.7705 920.561 474.2722 916.6234 472.1617 911.2994 470.9442 910.523 468.0626 910.1347 466.7638 908.6928 460.6353 908.5819 459.2148 907.2509 458.2814 904.2007 458.6872 900.9841 459.4178 899.7085 459.6613 896.991 458.119 896.7692 455.5621 897.5456 452.7617 897.3238 451.0165 896.9356 450.3671 895.8819 448.7843 894.8281 446.8767 898.2111 446.6738 898.2666 445.6591 900.1522 442.5746 901.2614 439.4495 903.0915 434.7009 903.3133 432.1846 902.7033 425.285 908.6928 423.2963 909.0256 419.2783 908.5819 417.2084 907.0291 415.9097 905.3653 414.9356 905.2544 412.4193 906.2526 411.6887 905.2544 411.7293 904.7553 409.7 904.478 410.4712 901.4832 408.8071 898.8212 408.4825 897.1574 406.4532 892.998 406.0473 890.7797 408.1578 880.7416 407.346 877.8023 405.2356 875.4176 403.6527 874.4748 403.2063 873.532 401.177 872.201 399.8377 869.5944 400.2435 868.4298 399.513 866.8215 400 865.1023 399.4724 864.9914 399.5536 864.4922 399.6347 864.2704 399.6347 863.383 398.0113 862.3848 393.3845 860.2774 392.654 858.059 390.4217 857.338 383.928 859.3346 382.3451 860.1664 381.0058 860.1664 380.1129 861.3865 379.3012 865.1577 379.7476 868.818 378.9359 870.2045 377.7589 870.8145 368.2618 870.3154 365.7455 869.3726 360.307 867.3761 352.8392 868.7625 348.6588 865.5459 345.4525 866.1005 344.1538 867.2097 338.7153 869.9826 337.4165 866.5997 336.2801 865.8787 335.3061 865.4905 332.3839 865.7678 329.5429 864.9914 326.783 866.2114 325.0784 862.9948 323.6985 861.6084 316.1495 860.6101 315.8248 861.8857 316.5148 868.9844 317.6918 873.0883 316.7583 876.4713 317.7324 880.9635 316.0278 884.0137 314.2826 893.4417 310.3457 893.8853 305.5972 893.0535 303.4056 891.1679 303.7708 889.7814 301.5386 889.5041 304.0955 885.1229 304.339 882.8491 297.1959 876.915 295.7348 873.1438 294.4767 863.1058 294.8419 861.2756 293.5432 859.2791 294.1926 855.5634 294.8013 847.1891 293.5838 841.3659 292.0821 838.4266 293.0561 834.6 290.8239 834.4891 290.2557 833.9345 291.5951 830.8288 290.621 826.9467 292.285 822.6209 293.8273 815.7995 290.621 812.9711 291.2298 809.0335 288.6323 802.9885 290.2557 802.4339 290.8645 802.7667 291.9603 802.2675 292.1227 801.8239 Z" />
        <path
            d="M 531.1736 746.1988 541.1984 742.3721 531.336 702.4973 539.4126 648.7024 531.9448 582.8729 531.823 573.9995 532.5941 573.8331 535.5569 573.944 539.0067 574.2768 541.8477 574.7759 543.9176 575.1641 544.4858 575.1086 546.5151 574.0549 553.09 570.8383 559.7461 583.0392 566.1181 586.1449 574.1135 590.027 574.2353 590.027 579.7144 589.6388 590.1449 588.8624 594.1224 585.4794 598.5462 581.7637 599.2768 581.1536 605.04 579.3235 610.5597 577.6043 611.1684 576.2733 615.9576 565.0152 614.4153 550.4295 611.5743 545.5491 608.3274 540.0587 607.0287 521.591 609.3421 507.6708 618.3927 503.6778 628.0522 507.8927 633.4095 519.3172 633.5313 528.1351 639.0915 533.0155 654.5548 532.0172 664.5389 527.3587 670.2209 525.0849 675.9841 531.7954 678.3787 542.4989 680.4892 548.6548 683.4114 557.4173 686.3741 568.9527 688.6063 579.6008 687.5511 592.3008 686.0494 602.7271 684.3448 610.935 680.9356 617.9228 681.7879 620.4184 683.2896 624.6333 681.8285 626.6298 680.3674 628.6818 677.4858 632.7857 676.2682 637.6661 685.7653 649.146 687.2264 650.8652 689.621 658.574 689.0122 661.0696 687.9976 664.9518 685.2783 670.1649 685.603 673.0487 685.7247 673.9915 685.9683 675.8771 685.6436 678.8164 685.5218 679.8147 685.4406 680.4802 685.1971 682.5876 683.7766 684.7505 683.3302 685.4715 682.3967 686.9134 680.408 689.9636 677.1205 694.123 676.1465 695.3431 674.8477 696.9514 673.9954 698.7261 671.9255 702.9964 672.4937 703.4956 673.6301 704.5493 675.0912 705.9358 675.903 706.7122 676.39 712.8681 676.5929 715.8629 676.5523 720.1332 676.5523 720.7987 681.098 719.9668 682.2749 709.8733 682.0314 706.3794 681.6256 700.0017 686.0088 696.4523 697.5352 704.7711 701.9591 707.9877 712.3897 710.0397 721.0345 706.8785 727.8935 700.7226 740.3128 693.2357 749.7287 690.5182 764.2585 688.2999 766.6936 687.9117 766.8154 688.9654 766.7748 689.52 767.0995 691.4056 767.0589 691.7938 766.2878 693.1248 766.3283 694.4003 766.0442 695.1768 766.2066 695.5095 767.0995 695.3986 767.5053 695.6759 767.5865 695.9532 767.343 696.9514 767.343 698.0606 767.1401 698.5597 766.6125 699.0034 765.5572 699.2252 765.2325 699.5025 765.0296 700.279 765.2731 700.9999 765.8413 701.3327 766.166 701.8318 767.0183 702.8301 767.5459 703.1628 767.9924 702.7746 768.6012 702.8301 769.0882 702.941 769.2099 703.2183 769.0476 703.551 768.52 703.7174 768.52 704.272 768.8041 704.6047 769.6564 704.4938 769.7376 704.882 769.1694 705.6585 768.8853 706.1021 768.7229 706.7676 768.5606 707.4331 768.52 708.6532 768.2359 708.8751 767.83 708.8751 766.856 709.0969 766.2066 709.7069 766.0037 710.0397 765.9631 710.5388 766.2066 711.038 766.4501 711.5925 766.2472 711.9253 765.9631 712.1471 765.8413 712.5908 765.9225 713.0899 766.3283 713.5891 766.4501 713.9218 766.2878 714.1436 765.9225 714.2546 765.4355 713.9773 765.1108 714.0882 764.8267 714.5319 765.0702 715.0864 765.8413 715.2528 766.3689 716.1402 767.3836 716.7502 767.5053 717.083 767.3836 717.5266 767.0183 717.9148 765.8819 718.6358 765.5166 719.1349 765.3949 719.6341 765.679 719.8004 766.0442 719.8004 766.4501 720.1332 766.7748 720.7987 766.8154 721.076 766.6936 721.2978 766.5313 721.2424 766.3283 721.1314 765.7601 721.1314 764.989 720.5769 764.0555 719.1349 763.6091 719.0795 763.2438 719.4677 762.5133 720.6878 762.0668 722.4624 762.2698 723.017 762.6756 723.6825 764.2991 724.8472 764.3802 725.3463 764.2179 725.6236 763.7309 725.8454 763.2438 726.5664 763.2438 726.8437 763.9744 728.3411 763.9744 728.8402 763.6091 730.1158 762.9597 731.114 763.0003 732.1123 763.4468 733.1105 763.8932 734.7743 763.812 735.2734 763.4062 736.1053 763.325 736.7153 763.2844 737.6581 762.2698 738.0463 762.1074 738.7673 762.3509 739.5437 762.7974 739.9874 763.6497 740.3756 763.9744 740.7638 763.8932 740.9857 763.8932 741.4848 763.6497 742.0394 763.6091 742.3721 763.7714 742.8713 763.812 743.5922 764.1773 745.256 764.4208 746.8643 764.502 748.3062 764.989 749.4708 765.5978 752.1329 766.166 753.4084 766.3283 754.1294 766.2066 754.8503 766.4907 755.2386 766.9371 755.294 768.1141 755.0722 768.52 755.1831 768.8041 755.5158 768.9664 756.1259 768.9258 757.0132 768.9258 757.956 769.2505 758.5106 771.361 759.9525 771.8886 760.3408 771.8886 760.729 771.848 760.8953 771.4828 761.6163 771.1175 762.8919 771.2798 764.001 771.2392 764.5002 771.0363 764.9438 770.5493 765.2211 769.9811 765.1657 769.697 764.7775 769.3317 764.3338 768.8041 764.1674 768.1547 764.3338 767.5865 765.1657 767.5459 765.9421 767.0589 766.8294 767.0183 767.6613 766.856 768.715 766.6125 769.2696 765.3949 770.1569 764.8673 770.3233 763.2032 770.1569 761.7016 770.3233 761.3769 770.6006 761.1739 771.8762 761.4986 772.5971 762.3103 772.6526 763.2844 772.5971 763.9744 773.0963 764.4614 773.7063 764.2585 773.9836 762.2698 774.7046 761.9857 775.3701 762.2292 775.5919 762.7162 775.5919 762.9191 775.7583 762.8785 776.1465 762.9597 776.9229 762.9597 777.2557 762.4727 778.4758 762.1886 779.8068 762.2292 780.0286 761.9451 780.5832 761.7016 780.7496 761.4986 780.6941 760.8898 780.3613 760.6057 779.474 760.1999 779.0858 759.4693 778.864 759.0229 778.9194 758.5359 779.474 758.4547 780.4168 758.1706 781.1932 757.4806 781.4151 757.1965 781.2487 756.6283 780.0841 756.3036 779.6958 755.8572 779.6958 755.3702 780.0841 754.3149 780.4168 753.2191 780.9714 752.2856 780.7496 750.8245 780.6941 750.094 780.9159 747.9429 782.3579 746.1977 782.857 744.8584 783.0788 744.9396 782.857 744.9802 782.5797 744.6149 782.4133 744.2496 782.4133 743.5191 782.857 743.032 783.5225 742.0986 784.0771 740.881 784.5762 740.4751 784.8535 740.2722 785.2417 740.5969 785.7963 740.5969 786.5173 740.7592 786.9055 740.9622 787.571 741.368 788.6247 742.1392 789.2902 742.2609 789.9557 742.0986 790.954 741.8551 791.8968 742.1392 792.3404 742.8697 792.6732 743.3973 793.1723 744.6555 795.6125 745.9542 796.888 748.3894 797.8308 748.6735 797.9418 749.8099 798.2745 750.3781 798.8291 750.4998 799.5501 750.5404 799.7164 751.0681 800.7702 747.6588 800.4374 741.7333 800.271 740.6781 800.271 737.9182 799.3282 734.8337 796.278 733.6567 794.226 727.8529 790.0112 727.6094 789.8448 727.4876 789.6784 722.3332 785.9072 712.4303 788.4583 703.0549 796.3889 701.1068 798.2191 697.2106 798.3854 696.1553 798.4409 692.949 797.9418 691.5285 797.1653 690.7574 796.7771 689.3775 794.7252 688.1193 792.6177 686.8612 786.4063 686.2118 784.9644 683.1678 778.4758 683.249 774.4273 682.3967 769.8242 682.2344 768.9923 680.408 763.8347 680.4486 761.4499 679.1904 758.9543 678.8657 759.9525 678.6222 760.4517 678.054 760.8399 677.6076 760.5626 677.2829 759.9525 676.8364 759.6198 676.7553 759.6198 674.7666 760.1189 674.7666 760.2853 675.2942 760.5626 675.8218 761.0063 676.0653 761.4499 675.6189 761.8381 674.726 761.6163 674.4419 761.2836 673.7925 760.7844 672.9808 760.618 672.4937 760.729 667.0146 763.3355 666.8117 763.7792 666.1623 763.5574 665.5941 763.1137 665.3912 762.8364 665.31 762.7809 664.4983 762.5036 664.3766 762.5036 663.6054 762.7255 662.8749 762.2263 662.7937 761.8936 661.2514 761.3945 660.9268 761.6718 660.4397 761.5608 655.5288 762.7255 655.7318 763.1691 655.9347 763.6128 655.8941 764.0565 655.61 764.4447 655.2042 764.5002 655.0824 763.7237 654.8389 763.4464 654.3924 763.2246 653.8242 763.1137 653.2154 764.5002 653.2966 764.722 654.6359 766.3303 654.6765 767.1067 654.1083 767.7168 653.7431 767.8831 653.7431 768.105 653.6619 768.6596 652.9719 768.715 651.5108 768.6596 651.4702 768.6596 648.0204 770.7115 648.0204 770.8225 647.5334 771.0443 647.3711 771.0997 646.7623 771.488 646.7217 771.7098 646.7623 772.098 647.2493 772.5971 647.8175 772.9853 648.0204 773.4845 648.1422 773.9281 647.8581 774.3718 646.8029 774.4827 646.1129 774.76 645.9506 775.3146 649.1974 780.3613 649.7251 780.6386 649.928 781.0823 650.3338 781.5814 650.415 782.0806 650.415 782.2469 650.4962 782.5797 650.2933 782.9679 649.8062 782.9679 646.5999 786.7391 646.5188 786.9609 646.0723 787.571 645.5041 788.1256 645.1388 788.181 644.6518 788.0147 644.2865 787.7928 642.4196 788.6802 642.379 789.1238 641.9731 790.3439 641.8108 791.3422 641.5673 792.3959 641.3238 793.616 641.2426 794.5033 640.4309 794.5588 639.1727 794.6142 636.8999 793.3941 630.5685 791.2867 615.1865 790.2885 605.5676 792.9505 598.668 798.7182 595.2182 802.4339 591.119 804.7077 590.3479 805.0959 582.0278 805.6505 575.8587 806.316 571.8001 808.5898 568.3097 810.7527 567.2139 811.0855 564.5352 811.9728 558.8938 812.0283 555.8904 812.0283 554.3888 811.9728 539.2908 811.6955 533.2435 814.413 530.9707 815.0785 530.0372 815.4113 528.8602 815.3558 531.3766 812.0837 532.4318 810.6973 531.5795 792.6177 529.7531 779.9177 528.6167 771.9316 529.0632 767.2176 531.1736 746.1988 Z" />
        <path
            d="M 448.2566 1170.1807 445.0909 1165.3003 443.4675 1163.082 443.3457 1162.8047 442.047 1159.4771 438.1507 1157.7579 435.1068 1155.4841 430.7641 1152.323 427.639 1149.6609 426.3403 1146.0007 425.0009 1142.0631 425.0009 1141.6749 425.4474 1135.6853 422.2817 1132.2469 420.2524 1130.084 420.2118 1130.0286 413.4339 1121.6543 414.7733 1117.6613 415.0574 1116.8294 417.8984 1114.2783 419.0348 1113.28 413.0687 1105.6267 408.2795 1107.235 405.2762 1108.2333 403.4092 1108.8433 402.841 1108.9542 401.9481 1105.8486 403.2063 1103.3529 407.8331 1097.6407 411.9728 1092.3166 413.1904 1090.7638 413.4339 1090.431 413.231 1090.0428 411.7699 1087.6581 411.567 1087.2699 408.6854 1082.3895 407.1837 1079.8384 407.3055 1079.3393 412.054 1073.9598 413.0687 1072.8506 425.6097 1058.3759 426.2591 1057.5995 426.1779 1056.8231 425.4474 1049.6134 425.2444 1047.4505 424.6762 1042.0156 425.2444 1040.5182 426.8273 1036.6361 427.0708 1036.026 426.8273 1035.4714 422.2411 1024.7679 421.8352 1022.3832 419.4406 1008.7958 418.7913 1004.6364 417.0461 993.9883 417.0461 988.8861 417.0461 987.9433 415.585 981.3437 415.4632 980.7337 415.0574 971.9712 411.7699 965.9262 410.2276 963.1533 407.0214 957.441 406.6561 956.7201 409.8624 949.9541 410.6335 945.9611 408.4825 942.5226 407.8331 941.5244 404.018 934.2593 403.8557 933.9265 406.9402 928.658 407.8331 927.1051 407.8331 919.8955 410.2276 912.2976 409.4565 905.5317 409.7 904.478 411.7293 904.7553 411.6887 905.2544 412.4193 906.2526 414.9356 905.2544 415.9097 905.3653 417.2084 907.0291 419.2783 908.5819 423.2963 909.0256 425.285 908.6928 432.1846 902.7033 434.7009 903.3133 439.4495 903.0915 442.5746 901.2614 445.6591 900.1522 446.6738 898.2666 446.8767 898.2111 448.7843 894.8281 450.3671 895.8819 451.0165 896.9356 452.7617 897.3238 455.5621 897.5456 458.119 896.7692 459.6613 896.991 459.4178 899.7085 458.6872 900.9841 458.2814 904.2007 459.2148 907.2509 460.6353 908.5819 466.7638 908.6928 468.0626 910.1347 470.9442 910.523 472.1617 911.2994 474.2722 916.6234 472.7705 920.561 474.881 923.1121 474.0287 927.3824 474.9216 928.3252 474.2722 931.9855 475.6927 932.0964 475.6927 934.0375 475.0433 934.9248 474.5157 944.4082 476.0986 945.4065 479.1019 945.1847 479.386 947.6803 490.9124 952.3943 493.0229 955.2781 494.0781 955.1672 494.6057 955.9436 495.458 957.1083 497.1221 956.9974 497.8932 959.0493 501.0183 960.1585 505.8074 963.9297 515.8322 969.4756 519.4037 969.4756 523.6247 968.1446 527.8862 968.0891 530.2807 970.4738 531.0925 972.5813 529.7125 975.2987 529.2661 989.2743 532.1477 991.6591 542.4971 992.8237 555.4034 998.425 557.311 999.756 556.2963 1001.5307 557.4327 1003.4718 565.7528 1005.4128 581.1349 1016.0609 583.7324 1017.891 583.0018 1018.8338 581.5002 1019.222 581.5407 1020.4976 582.4742 1021.5513 583.773 1021.3849 585.5993 1020.7749 586.2893 1021.3295 586.1675 1022.9378 586.614 1024.8788 588.6027 1026.9863 589.3738 1028.3727 591.0378 1028.9273 593.6759 1028.2064 596.0299 1028.8164 596.1517 1030.7575 595.0153 1031.5893 594.65 1034.6396 596.1922 1037.1352 597.8157 1037.2461 598.2215 1038.5771 597.4504 1041.3501 595.0558 1041.6828 592.3366 1042.5702 592.2148 1044.1785 594.2035 1048.837 596.1517 1049.6689 596.3952 1052.5527 593.7165 1055.492 595.7458 1056.9894 598.5868 1058.3759 599.7232 1060.9825 598.8303 1064.0881 598.9521 1067.3602 599.3985 1071.2423 602.3207 1073.9043 604.6747 1075.069 604.1471 1076.2891 604.5935 1077.9528 607.191 1077.9528 610.032 1078.8402 612.1831 1083.7205 607.7592 1084.1087 602.2801 1084.3306 600.6567 1082.6668 594.8529 1080.9476 592.2554 1081.8904 588.4403 1087.7136 588.4403 1089.4328 589.8203 1090.4865 591.8901 1095.2559 588.6433 1101.3009 586.9387 1103.963 586.0864 1106.0149 587.1416 1107.2905 585.3152 1111.2835 581.9466 1113.2246 581.8248 1117.994 580.5667 1120.2678 579.6332 1126.5347 580.2014 1128.4757 578.4968 1131.0823 578.1315 1133.1897 575.3717 1133.7443 575.3717 1135.0753 577.2386 1136.1845 578.0098 1137.0718 576.7922 1139.1792 571.5566 1139.7893 571.1913 1141.564 571.6784 1143.1168 575.737 1143.6159 575.737 1145.4461 574.1135 1146.2225 570.7855 1149.3837 567.7821 1150.6592 565.3064 1152.4893 565.3064 1154.6522 566.6863 1156.5933 565.9963 1157.9243 566.1181 1159.2553 567.2951 1160.0317 566.9298 1162.3055 566.5645 1166.0213 563.4394 1164.0802 561.9377 1163.1374 556.3369 1159.0889 556.4992 1158.6453 557.2298 1156.3715 559.2997 1154.4859 557.1892 1153.8758 554.0641 1152.8776 548.098 1155.6505 543.7147 1157.0924 543.7147 1161.2518 542.1724 1161.6955 538.682 1162.6937 531.6607 1161.4737 522.3665 1159.9763 520.459 1168.2951 514.087 1167.7959 512.9506 1170.7907 509.9878 1173.0091 509.2572 1178.7768 506.9033 1182.3261 507.1062 1186.3192 505.1581 1188.4266 501.343 1188.1493 501.0995 1188.1493 497.2438 1188.2602 495.2551 1188.3157 495.0522 1188.3157 493.3882 1187.7611 487.7873 1185.7646 479.8325 1177.6676 474.7592 1170.7353 474.4751 1170.347 474.4345 1170.2916 472.7705 1169.4597 467.1697 1166.6313 463.4358 1164.7457 463.2328 1164.0248 462.8676 1163.1929 462.1776 1162.7492 461.6906 1163.3038 461.0818 1163.6365 460.7571 1163.6365 459.783 1163.1374 458.606 1162.5828 457.5102 1162.5274 456.942 1163.1374 455.6839 1163.3592 454.9939 1163.0265 454.1416 1162.361 452.2746 1161.9728 451.26 1162.0837 449.8801 1162.6937 449.0684 1163.5811 448.8654 1164.9676 449.2713 1165.5221 449.8801 1166.5204 449.4742 1167.5741 449.1901 1169.0715 449.1495 1170.1807 448.2566 1170.1807 Z" />
    </g>
</svg>