<?xml version="1.0"?>
<svg xmlns="http://www.w3.org/2000/svg" version="1.2" baseProfile="tiny" width="800" height="777"
    viewBox="0 0 800 777" stroke-linecap="round" stroke-linejoin="round">
    <g id="punjab_district">
        <path
            d="M 392.2578 86.447 397.8423 84.617 403.0884 91.4443 408.673 90.7405 406.6422 95.3859 418.7421 92.5705 425.3421 96.3712 435.0727 96.2305 437.1881 99.4682 446.5803 97.427 445.3111 106.2251 448.3572 105.1693 449.8803 109.5332 450.0495 109.9555 449.288 112.8413 444.3803 115.164 444.0419 115.2343 443.9573 115.5159 439.1342 125.1586 432.6189 126.144 438.965 134.0974 431.8574 149.5821 441.7573 166.9671 441.9265 172.1756 436.2573 173.724 441.4188 186.1821 437.4419 192.5871 431.4343 191.109 434.9035 199.4144 422.2113 213.0691 417.0498 225.5271 417.3037 225.5975 415.4422 229.1168 415.4422 229.1872 404.3577 231.4395 398.7731 240.3079 390.5655 232.2137 381.6809 227.9202 378.6348 229.3983 372.1195 224.8233 374.9964 221.0929 367.4657 217.2921 367.6349 212.9987 352.6581 216.6587 348.8505 211.0983 343.8582 209.6906 346.4813 206.6641 345.7198 205.6083 344.6198 204.2006 343.0121 202.0187 342.6736 201.9483 333.7891 200.3294 330.9968 197.1621 320.6738 198.2179 319.32 195.7544 322.1969 191.5313 322.3661 191.2498 314.8354 188.5048 312.0432 184.8448 311.7047 184.4929 303.6663 185.7598 299.4356 182.0998 300.6202 180.4809 296.7279 181.1144 296.5587 181.044 293.428 177.8767 290.8895 178.0175 285.2203 178.299 283.3588 172.3867 278.1127 170.6271 278.7896 168.0932 271.5128 165.7706 272.2743 162.2513 268.8897 161.7586 268.8051 161.5475 264.7436 152.8902 269.1436 151.2009 277.2666 149.5821 285.8973 144.6551 285.9819 144.0921 286.4049 140.9248 286.2357 140.9248 277.4358 144.0217 271.682 140.7136 272.6128 133.6047 276.4204 131.2117 276.4204 131.1413 273.1205 124.0324 270.7512 122.9063 269.3974 120.8651 273.6281 116.994 286.4896 120.302 285.8973 123.1878 296.4741 124.9474 298.9279 121.569 303.9202 123.1174 311.197 116.7124 315.1739 118.6128 317.0354 115.5159 320.6738 118.9647 325.3276 112.982 334.3814 112.9117 338.6967 116.642 345.0428 112.6301 346.1428 102.917 349.5274 102.6355 351.6428 108.6182 354.6889 107.2809 353.6735 110.3778 361.6273 107.5624 361.8811 105.0286 366.1965 103.4801 367.8042 94.682 371.4426 94.1893 377.4502 87.362 374.2349 83.4205 375.8425 79.9716 380.4963 79.6901 392.2578 86.447 Z" />
        <path
            d="M 417.3037 225.5975 417.0498 225.5271 422.2113 213.0691 434.9035 199.4144 431.4343 191.109 437.4419 192.5871 441.4188 186.1821 436.2573 173.724 441.9265 172.1756 441.7573 166.9671 431.8574 149.5821 438.965 134.0974 432.6189 126.144 439.1342 125.1586 443.9573 115.5159 444.0419 115.2343 444.3803 115.164 449.288 112.8413 448.4418 115.9382 450.0495 115.7974 462.9955 114.249 464.2648 114.1082 465.9571 114.6009 482.0338 125.6513 489.1414 124.4547 496.7568 133.0417 501.749 135.6459 502.2567 135.9274 504.9644 137.4055 519.8565 141.3471 530.8564 147.2594 543.8025 171.6125 549.2178 180.7625 550.7409 181.7479 550.0639 182.1702 549.5563 182.5221 548.6255 183.0852 545.7486 180.3402 537.7102 182.4517 543.8871 191.3906 556.5793 224.7529 559.0331 225.8791 558.8639 230.2429 566.2253 237.7741 568.5945 237.211 568.8484 242.4195 585.7713 265.3649 584.7559 269.1657 588.3097 272.2626 588.9866 277.2599 598.2096 288.3103 598.2096 291.8295 592.7943 296.4045 592.7097 297.4603 593.1328 302.2465 593.9789 303.3726 600.9173 306.3288 601.1711 315.1269 601.3404 315.2676 606.5019 316.3234 624.4401 313.508 626.1324 316.6753 629.7709 315.1269 629.6016 316.253 629.4324 317.6607 635.1862 319.3499 634.7631 322.7988 640.2631 325.7549 642.7169 329.8373 644.5784 332.9342 645.0015 333.638 640.4323 337.0165 637.2169 339.3392 615.8941 331.5265 616.571 336.1015 612.8479 343.4919 615.9787 341.2396 618.4325 343.9846 615.471 346.7296 608.6172 345.3219 605.3173 347.2927 609.0403 359.3988 598.6327 360.1731 594.9943 358.4838 594.9097 355.3165 590.002 356.865 588.0559 351.023 584.6713 351.5861 584.5867 351.6565 583.6559 350.8119 579.679 347.5038 578.6637 346.5888 578.4098 345.3923 576.5483 336.3126 567.0715 339.48 568.5099 336.1719 561.4869 331.9488 560.81 327.5849 555.8177 331.0338 555.1408 331.4561 552.4331 327.7257 541.9409 328.5703 539.2333 323.7138 536.1871 325.1215 532.1256 321.0392 528.318 322.3765 525.6103 323.2915 525.4411 323.3619 523.4103 319.4907 518.9258 321.6726 516.5566 319.7722 516.8104 319.2796 520.6181 310.4815 522.9873 311.0445 529.6718 305.2026 525.7796 306.3288 522.5642 302.5984 516.895 303.9357 515.0335 297.953 509.7874 298.6568 510.8028 300.6276 507.7567 302.0353 502.5106 298.0234 498.8721 300.0645 498.4491 298.9384 498.3644 299.0088 497.0952 295.4895 507.4182 289.6476 501.9182 276.7672 498.9567 277.1895 498.6183 277.2599 496.4183 272.1218 485.3338 266.0687 484.5723 260.2972 476.6185 257.1299 476.8723 250.1618 474.757 250.5841 471.1185 245.3756 467.9032 236.8591 467.057 236.5775 462.9109 236.7887 460.1187 233.9733 456.311 237.7037 449.5418 237.2814 443.6188 236.9295 442.9419 234.0437 441.2496 235.8033 442.6034 229.3983 437.0189 229.8206 432.2805 225.9495 432.1112 226.3718 430.5036 229.5391 430.2497 230.1022 417.3037 225.5975 Z" />
        <path
            d="M 270.7512 122.9063 273.1205 124.0324 276.4204 131.1413 276.4204 131.2117 272.6128 133.6047 271.682 140.7136 277.4358 144.0217 286.2357 140.9248 286.4049 140.9248 285.9819 144.0921 285.8973 144.6551 277.2666 149.5821 269.1436 151.2009 264.7436 152.8902 268.8051 161.5475 268.8897 161.7586 272.2743 162.2513 271.5128 165.7706 278.7896 168.0932 278.1127 170.6271 283.3588 172.3867 285.2203 178.299 290.8895 178.0175 293.428 177.8767 296.5587 181.044 296.7279 181.1144 300.6202 180.4809 299.4356 182.0998 303.6663 185.7598 311.7047 184.4929 312.0432 184.8448 314.8354 188.5048 322.3661 191.2498 322.1969 191.5313 319.32 195.7544 320.6738 198.2179 330.9968 197.1621 333.7891 200.3294 342.6736 201.9483 343.0121 202.0187 344.6198 204.2006 345.7198 205.6083 346.4813 206.6641 343.8582 209.6906 348.8505 211.0983 352.6581 216.6587 367.6349 212.9987 367.4657 217.2921 374.9964 221.0929 372.1195 224.8233 378.6348 229.3983 381.6809 227.9202 390.5655 232.2137 398.7731 240.3079 396.5731 243.7568 387.7732 246.5722 385.9963 247.9799 381.2579 251.4287 369.0734 267.0541 358.6658 264.098 352.8274 266.9837 344.1967 264.8018 339.7967 256.9891 335.4814 261.916 329.3045 262.5495 325.8353 265.9983 320.5892 258.6783 311.7047 257.2706 305.8663 260.2972 302.6509 257.693 295.5433 258.1153 291.3126 263.6053 288.6049 257.7633 280.905 265.576 276.9281 258.608 267.5359 258.5376 266.9436 251.0064 252.7283 256.6372 247.0592 255.1591 246.0438 250.021 239.6131 246.2906 234.1131 249.2468 222.6902 248.191 216.7672 254.4553 209.8288 251.6399 206.698 256.2149 201.7904 254.1737 193.4135 263.183 192.5674 264.9426 191.8059 264.8722 182.4983 264.5203 185.5444 263.6756 184.7828 259.3118 192.2289 257.6226 193.8366 251.2879 190.6212 248.4726 193.0751 246.7129 186.8136 245.446 182.4983 237.6333 177.2521 236.5775 173.3599 222.9933 170.3138 221.3041 171.9214 218.4183 163.2907 213.7025 159.7369 207.2271 163.5446 205.1156 163.7984 202.0187 178.3521 197.4437 176.2368 191.9537 180.3829 187.3786 177.9291 185.1967 181.9059 182.311 181.6521 176.2579 190.6212 168.5859 190.9597 163.0255 198.4904 164.574 206.2749 154.509 219.9825 154.1571 220.1517 149.5821 229.6286 148.9486 229.4593 145.7813 232.8439 147.9632 242.6592 143.9513 246.0438 145.0775 248.7515 134.3086 255.0129 130.7894 253.7437 128.9594 258.2283 128.1851 257.4668 126.5663 259.0744 128.5371 261.9513 125.9328 259.159 123.1174 264.9128 120.0205 270.7512 122.9063 Z" />
        <path
            d="M 449.5418 237.2814 456.311 237.7037 460.1187 233.9733 462.9109 236.7887 467.057 236.5775 467.9032 236.8591 471.1185 245.3756 474.757 250.5841 476.8723 250.1618 476.6185 257.1299 484.5723 260.2972 485.3338 266.0687 496.4183 272.1218 498.6183 277.2599 498.9567 277.1895 501.9182 276.7672 507.4182 289.6476 497.0952 295.4895 498.3644 299.0088 498.4491 298.9384 498.8721 300.0645 499.0414 300.6276 492.8645 303.443 490.4107 309.5665 486.2646 311.3261 486.0107 310.9742 483.303 305.9768 476.6185 305.4842 476.28 305.6953 481.78 312.6634 471.5416 312.9449 477.0416 320.6872 470.0186 319.1388 468.9186 325.0511 471.457 328.9926 468.2416 329.978 470.5262 331.0338 468.157 333.1453 471.6262 335.0457 475.5185 331.1042 475.6877 330.9634 476.0262 331.5969 479.1569 337.7907 472.4724 343.9846 477.8877 351.938 494.8106 352.0084 495.9952 349.193 495.7414 345.885 501.4952 338.8465 501.5798 338.8465 498.9567 343.4215 515.4566 347.5038 521.0411 352.7827 524.4257 351.8677 524.4257 356.2315 527.6411 354.683 531.4487 369.3231 535.0872 370.6604 537.9641 379.0361 539.9102 379.8808 541.264 388.9604 541.8563 392.55 530.941 391.0015 529.5872 390.8608 527.7257 393.9577 519.6027 393.1131 502.9336 396.4916 501.4106 396.6323 498.1106 395.4358 488.2107 391.9165 453.8572 402.4743 450.811 402.9669 448.3572 403.3893 434.9881 401.4889 433.4651 404.0227 427.6267 401.4185 419.0806 403.6004 416.9652 400.2219 413.9191 401.8408 411.8037 399.6589 407.4038 400.0108 399.9577 400.7146 397.4193 396.2804 397.1654 396.3508 396.9962 396.1396 392.427 396.9842 391.0732 395.6469 387.9424 396.4916 387.0117 396.7731 386.8424 395.4358 386.7578 395.3654 382.4425 398.3919 378.8041 392.6204 370.258 391.3535 366.7888 384.2446 359.5119 383.6112 360.0196 387.4119 353.3351 385.5115 346.4813 389.9458 347.2428 381.0773 339.966 379.8104 338.6967 379.5288 341.1506 374.9538 335.7352 371.8569 331.3353 372.8423 331.843 371.2938 332.1814 370.3084 326.1738 363.6219 313.397 360.1731 313.397 360.0323 313.8201 356.6538 314.4124 356.6538 314.6662 355.8092 320.42 355.8796 322.62 354.1904 326.0892 351.023 326.7661 351.0934 341.4044 352.1492 346.8197 346.9407 351.3889 349.1227 353.4197 355.3869 363.7427 356.5834 365.5196 346.3073 370.258 345.2515 371.9503 341.3803 376.9425 341.1692 383.204 334.6938 388.1963 336.2423 389.2963 332.6526 391.5809 334.9753 394.8808 331.4561 402.3269 330.0484 403.6807 335.3273 408.0807 332.3007 413.5806 333.7788 416.4575 328.9926 414.0883 322.1653 407.4884 319.7019 408.8422 315.2676 406.5576 312.3115 415.5268 310.4815 419.0806 300.1349 413.5806 301.0499 412.2268 298.1641 418.4883 298.0938 421.3652 294.7857 416.4575 291.9703 413.4114 295.7007 407.2345 294.7857 407.3192 284.0872 411.4653 283.1722 410.7884 279.3714 412.8191 281.0607 415.0191 278.6676 412.7345 271.8403 409.3499 271.7699 408.4191 266.1391 417.0498 265.7168 421.1959 272.333 427.119 275.3595 426.019 269.9399 428.8959 264.8018 426.9497 260.2268 433.9727 260.5083 434.3112 257.341 430.1651 253.3291 441.4188 255.2295 441.9265 254.9479 444.465 248.4022 448.7803 250.3729 450.4726 248.2614 447.7649 245.0941 448.5265 242.2787 450.5572 242.8418 450.6418 242.7714 450.5572 242.6306 449.5418 237.2814 Z" />
        <path
            d="M 191.8059 264.8722 192.5674 264.9426 193.4135 263.183 201.7904 254.1737 206.698 256.2149 209.8288 251.6399 216.7672 254.4553 222.6902 248.191 234.1131 249.2468 239.6131 246.2906 246.0438 250.021 247.0592 255.1591 252.7283 256.6372 266.9436 251.0064 267.5359 258.5376 276.9281 258.608 280.905 265.576 288.6049 257.7633 291.3126 263.6053 295.5433 258.1153 302.6509 257.693 305.8663 260.2972 311.7047 257.2706 320.5892 258.6783 325.8353 265.9983 329.3045 262.5495 335.4814 261.916 339.7967 256.9891 344.1967 264.8018 352.8274 266.9837 358.6658 264.098 369.0734 267.0541 365.9426 269.4472 356.7196 276.4153 354.6043 275.3595 351.8966 285.143 349.189 285.143 348.089 281.6941 343.2659 282.1868 341.9121 286.973 344.0275 288.7326 335.9045 295.2784 334.0429 299.9238 336.1583 302.1057 331.4199 307.3142 331.843 311.678 328.3738 314.2119 321.1815 312.5226 317.6277 321.1096 320.42 322.2357 314.7508 323.7842 314.4124 330.0484 308.7432 334.9753 305.6124 345.4627 305.5278 345.6034 303.1586 346.6592 284.1203 355.1757 266.6897 353.2754 252.6437 360.6657 244.8592 359.2581 241.5592 361.44 241.2208 365.2408 238.2593 361.2992 225.9055 364.2554 225.8209 368.1265 220.4056 368.6896 217.021 376.4319 212.621 373.9685 215.6672 371.2938 212.198 361.7919 206.2749 362.7773 204.3288 360.2434 198.4058 364.3961 196.9673 360.5954 189.5213 360.4546 187.9982 362.0031 191.6366 369.3231 189.0982 372.2792 176.6598 372.9127 175.4752 363.3404 165.4907 360.8065 165.5753 347.9965 167.9445 347.1519 169.6368 339.9023 167.2676 335.6088 171.3291 330.0484 168.283 324.2065 173.7829 315.9715 169.7215 313.7192 175.5599 307.8068 176.406 299.9941 184.8675 295.9822 187.9982 286.6211 193.9212 285.6357 194.7674 282.9611 200.0135 286.6211 203.1442 284.0872 198.9981 279.301 202.5519 275.9226 196.1212 270.7845 198.4904 268.7433 194.6827 269.4472 191.7212 265.013 191.8059 264.8722 Z" />
        <path
            d="M 640.4323 337.0165 645.0015 333.638 644.5784 332.9342 642.7169 329.8373 640.2631 325.7549 634.7631 322.7988 635.1862 319.3499 629.4324 317.6607 629.6016 316.253 629.7709 315.1269 629.9401 315.0565 638.4015 311.2557 634.5093 305.8361 646.6938 305.2026 643.563 302.6688 643.3938 296.5453 640.2631 296.4045 640.6015 290.4922 650.2476 289.7884 652.0245 281.5534 656.1706 288.6622 656.5937 287.5361 659.4706 291.6888 656.6783 293.5891 666.9167 309.9184 675.2935 316.5345 668.9474 322.3765 679.355 314.7749 684.0088 324.6288 691.878 322.8692 690.9472 327.8665 695.0087 327.0923 695.9395 321.5319 698.0548 322.4469 697.5471 329.2742 707.1932 323.8546 707.6163 323.6434 713.9624 330.5411 707.7855 337.0869 709.0547 339.9726 718.0239 336.1015 721.6623 337.0869 719.8008 338.3538 722.6777 340.6765 710.8316 348.63 713.2008 349.9673 711.2547 355.2461 714.047 356.5131 711.3393 362.9181 720.2238 364.8888 720.9008 367.0004 715.4854 374.8131 716.67 380.8662 713.6239 383.2592 718.3623 389.1012 717.2623 395.5062 729.8699 403.3189 739.3467 403.1077 739.516 403.1781 746.1159 409.6535 745.439 411.4131 745.0159 412.4689 742.3082 412.6096 733.5929 415.8473 731.7314 417.4662 712.6085 423.7304 709.9855 427.8831 711.5085 432.247 708.6316 433.7954 705.6701 432.7397 706.6009 433.9362 698.5625 437.3851 701.6932 442.6639 700.0856 451.1101 692.8087 455.6147 683.4165 461.4566 676.7319 461.5974 674.8704 460.5416 670.132 458.0078 668.1859 447.802 667.509 447.5908 667.0859 442.3824 660.8244 442.312 660.7398 440.5524 660.4013 435.1327 654.6475 434.6401 650.2476 428.587 645.1707 430.3466 645.1707 428.1647 640.1785 427.5312 638.6554 427.32 637.5554 427.1793 635.8631 414.862 638.74 413.4543 638.5708 412.8912 638.4862 412.2577 635.6939 398.3216 634.2554 397.8289 634.1708 397.7585 634.0862 397.2658 639.4169 396.7027 639.0785 400.6442 644.24 400.2923 647.8784 403.3189 683.078 401.6296 688.4934 398.3216 689.5087 396.4212 676.055 386.9896 665.309 370.1677 666.2397 364.8888 654.6475 355.598 654.5629 355.3869 654.3091 355.1757 643.14 338.9169 640.6015 337.1573 640.4323 337.0165 Z M 704.9086 432.4581 704.1471 432.1766 705.0778 429.2908 702.0317 429.8539 702.8778 434.0066 704.9086 432.4581 Z" />
        <path
            d="M 525.6103 323.2915 528.318 322.3765 532.1256 321.0392 536.1871 325.1215 539.2333 323.7138 541.9409 328.5703 552.4331 327.7257 555.1408 331.4561 555.8177 331.0338 560.81 327.5849 561.4869 331.9488 568.5099 336.1719 567.0715 339.48 576.5483 336.3126 578.4098 345.3923 578.6637 346.5888 579.679 347.5038 583.6559 350.8119 584.5867 351.6565 584.6713 351.5861 588.0559 351.023 590.002 356.865 594.9097 355.3165 594.9943 358.4838 598.6327 360.1731 609.0403 359.3988 605.3173 347.2927 608.6172 345.3219 615.471 346.7296 618.4325 343.9846 615.9787 341.2396 612.8479 343.4919 616.571 336.1015 615.8941 331.5265 637.2169 339.3392 640.4323 337.0165 640.6015 337.1573 643.14 338.9169 654.3091 355.1757 654.5629 355.3869 654.6475 355.598 666.2397 364.8888 665.309 370.1677 676.055 386.9896 689.5087 396.4212 688.4934 398.3216 683.078 401.6296 647.8784 403.3189 644.24 400.2923 639.0785 400.6442 639.4169 396.7027 634.0862 397.2658 634.1708 397.7585 634.0016 397.7585 631.1247 396.7731 626.4709 395.1542 629.7709 394.0281 626.5555 391.2831 626.3017 391.4942 623.0863 394.38 621.1402 392.55 612.8479 394.5208 609.2941 392.0573 607.6018 395.2246 601.6788 393.8169 603.2865 396.2804 601.3404 397.2658 591.6097 398.955 589.7482 395.8581 546.6794 394.1689 543.6332 390.4385 541.8563 392.55 541.264 388.9604 539.9102 379.8808 537.9641 379.0361 535.0872 370.6604 531.4487 369.3231 527.6411 354.683 524.4257 356.2315 524.4257 351.8677 521.0411 352.7827 515.4566 347.5038 498.9567 343.4215 501.5798 338.8465 501.749 338.7057 516.472 333.638 516.9796 333.4973 516.6412 333.0046 512.8335 326.8107 512.9181 325.2622 513.0874 322.9396 514.3566 321.8838 519.9412 323.7138 520.3642 323.9249 520.0258 331.1746 521.2104 330.6819 530.6026 327.3034 530.7718 327.1626 530.2641 327.0219 527.0488 325.8253 525.6103 323.2915 Z" />
        <path
            d="M 149.2447 669.9361 110.1528 667.8245 110.1528 668.1061 109.8143 668.0357 109.8143 667.7541 4.8923 662.968 2.6923 653.0437 7.3461 643.1195 25.8767 624.8195 25.1998 604.4783 23.8459 605.5341 21.8152 585.6856 14.2845 572.6644 1 562.3179 23.0844 545.4959 25.5382 540.3579 13.1845 541.6248 15.9768 540.0763 13.523 534.5863 15.2999 528.2517 18.6844 529.8705 19.3614 536.1348 22.9998 537.0498 22.8306 529.6594 27.6536 524.6621 30.4459 521.9874 37.5535 521.9874 35.4381 516.9197 40.4304 518.6794 42.5458 514.5971 47.2842 520.8613 51.1764 519.7351 56.0841 512.8374 51.5149 511.4297 58.961 505.0247 57.3533 496.649 59.7225 494.6078 63.1071 497.564 65.5609 490.5255 71.2301 491.3701 88.7453 475.8151 141.0371 496.0155 141.9679 496.3674 141.7986 500.3793 128.0911 503.2651 130.2064 512.9782 136.9756 516.4974 129.6988 522.4098 132.3218 525.7178 130.3757 529.6594 122.6758 529.8001 122.0834 535.2198 117.8527 539.9355 96.0222 544.6513 125.6373 551.0563 125.468 552.1121 124.5373 556.4056 114.4681 555.1386 112.6912 559.5729 117.2604 570.201 111.5066 575.5502 109.9836 586.9525 106.0913 584.5594 101.099 591.6683 107.1067 595.2579 116.8373 592.2314 125.8065 593.3575 119.9681 613.5579 130.1218 616.1622 131.8141 622.0041 140.1064 630.6614 131.9834 627.0014 127.7526 633.4064 133.8449 636.7849 140.4448 646.8499 138.2448 648.7503 150.1755 648.3983 152.7139 652.4807 152.3755 654.5218 142.4756 656.7741 149.2447 669.9361 Z" />
        <path
            d="M 331.843 371.2938 331.3353 372.8423 335.7352 371.8569 341.1506 374.9538 338.6967 379.5288 339.966 379.8104 347.2428 381.0773 346.4813 389.9458 353.3351 385.5115 360.0196 387.4119 359.5119 383.6112 366.7888 384.2446 370.258 391.3535 378.8041 392.6204 382.4425 398.3919 386.7578 395.3654 386.8424 395.4358 387.0117 396.7731 386.4194 396.9842 387.3501 399.0958 388.1963 404.3746 387.4347 405.36 388.8732 411.765 389.8039 414.7212 393.1039 414.7916 391.9193 419.5777 395.8962 420.2816 399.2808 425.49 389.127 438.1593 391.4962 443.7901 396.5731 446.1128 390.3962 464.4832 394.0347 468.5655 389.3809 471.6624 389.2116 477.0116 392.9347 481.657 389.8886 487.3582 392.0885 489.329 390.8193 492.7778 397.9269 494.9597 396.9116 501.0832 398.5192 502.4909 399.9577 503.7578 398.7731 508.4032 402.75 512.9782 397.6731 518.3274 387.4347 522.269 387.3501 522.269 387.0117 522.1282 380.6656 520.2278 379.3964 518.4682 376.0964 516.8494 370.9349 521.2836 368.3965 523.3951 361.7119 520.2278 352.6581 523.6767 348.5966 521.4244 345.9736 523.8174 344.0275 523.5359 340.7275 522.9728 340.1352 512.204 336.4122 505.0247 331.5045 504.3209 324.9046 509.5997 326.7661 519.8759 315.4277 517.3421 309.4201 525.2955 301.7202 524.5917 298.6741 528.0405 294.1049 528.6036 293.0895 529.1667 292.9203 528.7444 292.5818 527.3367 290.7203 520.2982 292.1587 516.1455 278.7896 506.9251 281.6665 501.1536 279.3819 497.1417 282.2588 481.3051 281.7511 479.2639 271.1743 477.8562 268.2128 472.3662 268.7205 463.9905 268.7205 463.8497 269.482 463.9905 270.582 455.5443 273.1205 451.1805 275.2358 450.2655 274.8127 448.0835 279.4665 439.9189 278.2819 427.1089 280.8204 423.4489 301.2125 422.1116 303.9202 415.4954 313.7354 409.2312 317.7969 401.6296 320.1662 402.4743 318.3892 397.4066 320.2508 391.2127 307.1355 384.0335 306.7971 378.8954 309.5047 377.5581 312.297 382.9777 317.8816 382.9073 318.4739 379.8808 315.0893 377.2765 320.42 377.91 319.2354 375.0242 324.6507 373.8981 328.2045 375.9392 331.843 371.2938 Z" />
        <path
            d="M 387.0117 396.7731 387.9424 396.4916 391.0732 395.6469 392.427 396.9842 396.9962 396.1396 397.1654 396.3508 397.4193 396.2804 399.9577 400.7146 407.4038 400.0108 411.8037 399.6589 413.9191 401.8408 416.9652 400.2219 419.0806 403.6004 427.6267 401.4185 433.4651 404.0227 434.9881 401.4889 448.3572 403.3893 450.811 402.9669 453.8572 402.4743 488.2107 391.9165 498.1106 395.4358 501.4106 396.6323 502.9336 396.4916 519.6027 393.1131 527.7257 393.9577 529.5872 390.8608 530.941 391.0015 541.8563 392.55 543.6332 390.4385 546.6794 394.1689 589.7482 395.8581 591.6097 398.955 601.3404 397.2658 603.2865 396.2804 601.6788 393.8169 607.6018 395.2246 609.2941 392.0573 612.8479 394.5208 621.1402 392.55 623.0863 394.38 626.3017 391.4942 626.5555 391.2831 629.7709 394.0281 626.4709 395.1542 631.1247 396.7731 634.0016 397.7585 634.1708 397.7585 634.2554 397.8289 635.6939 398.3216 638.4862 412.2577 638.5708 412.8912 638.74 413.4543 635.8631 414.862 637.5554 427.1793 637.64 427.2497 635.8631 428.0943 632.3093 429.7131 635.44 436.3293 627.6555 439.4966 629.6862 445.2681 622.5786 450.8989 625.2863 453.7143 629.8555 451.9547 633.8324 455.7555 635.3554 458.8524 627.5709 461.3862 626.2171 464.6239 633.917 471.2401 637.64 474.4074 638.5708 475.252 637.64 475.9559 633.4093 479.1232 625.9632 479.8974 611.3249 478.912 603.2865 481.9386 599.5635 478.912 598.3789 483.487 593.8943 485.2466 594.0635 489.1882 584.5867 495.734 586.9559 500.3793 582.979 502.9132 582.3021 509.459 579.7637 509.8813 576.6329 509.5294 576.1252 509.459 572.4868 509.0367 572.4022 508.1217 571.8945 504.1801 571.4714 504.1097 563.433 502.4909 561.4869 495.5932 556.8331 495.4524 537.3718 507.9105 533.5641 501.7167 535.7641 500.309 534.241 497.2824 524.9334 497.7751 525.018 494.2559 520.9565 492.074 520.9565 489.329 527.6411 487.2174 526.9642 484.0501 522.7334 479.6863 515.7104 481.3051 510.8874 475.5336 506.3182 476.8709 505.9797 482.8536 498.3644 484.7539 497.2644 481.0236 492.8645 481.2347 492.9491 484.4724 501.2413 491.2293 499.2106 493.4816 491.8491 489.8216 485.9261 491.2997 476.8723 498.6901 476.7877 498.7605 471.457 497.9863 469.9339 500.2386 471.8801 502.0686 465.8724 501.0128 464.1802 501.9278 456.8187 499.394 450.8957 501.0832 444.3803 507.4882 436.5112 504.7432 433.042 507.3474 432.1958 507.9809 431.3497 503.5467 431.2651 503.4763 424.1575 506.5028 420.519 504.0394 422.719 499.957 414.8499 498.127 405.8807 503.6874 399.9577 503.7578 398.5192 502.4909 396.9116 501.0832 397.9269 494.9597 390.8193 492.7778 392.0885 489.329 389.8886 487.3582 392.9347 481.657 389.2116 477.0116 389.3809 471.6624 394.0347 468.5655 390.3962 464.4832 396.5731 446.1128 391.4962 443.7901 389.127 438.1593 399.2808 425.49 395.8962 420.2816 391.9193 419.5777 393.1039 414.7916 389.8039 414.7212 388.8732 411.765 387.4347 405.36 388.1963 404.3746 387.3501 399.0958 386.4194 396.9842 387.0117 396.7731 Z" />
        <path
            d="M 692.8087 455.6147 700.0856 451.1101 701.6932 442.6639 698.5625 437.3851 706.6009 433.9362 705.6701 432.7397 708.6316 433.7954 711.5085 432.247 709.9855 427.8831 712.6085 423.7304 731.7314 417.4662 733.5929 415.8473 742.3082 412.6096 745.0159 412.4689 745.439 411.4131 746.6236 410.9908 749.162 412.6096 755.3389 418.5923 756.8619 420.1408 758.8927 427.1089 766.8465 433.7251 766.6772 436.1885 775.1387 438.5816 774.8002 445.5497 777.8464 448.7874 772.9387 459.1339 772.8541 459.2747 769.8926 456.952 766.9311 459.697 764.308 456.4593 767.2695 453.5735 767.1003 453.3624 766.4234 452.5881 759.8235 454.6293 758.4696 455.0516 758.4696 452.7289 755.5927 448.717 748.4005 455.3331 739.516 457.6558 738.2467 462.3012 745.0159 467.3689 747.1313 475.3224 753.562 477.082 756.8619 481.2347 760.3311 479.827 764.5619 481.9386 764.9849 482.0089 769.9772 478.2082 770.1464 478.1378 770.231 478.6305 771.331 482.6424 774.9695 481.657 776.5771 484.2613 782.9232 478.5601 781.5694 488.6251 785.2078 487.7805 787.9155 492.0036 791.7231 492.7778 792.5693 496.5786 795.8693 496.9305 794.3462 501.3647 791.6385 501.7167 794.2616 503.4763 791.3847 508.7551 793.3308 511.6409 790.3693 514.4563 786.2232 512.9078 797.3923 519.8759 797.2231 525.4363 789.5232 529.8705 792.3154 534.5863 791.8924 535.2198 790.9616 536.4163 790.0309 537.6832 788.5078 539.9355 785.5463 544.0179 790.7924 542.4694 788.7616 545.0736 791.0462 545.144 792.0616 545.2144 792.6539 547.0444 791.977 551.8306 799 553.5198 790.7078 561.6844 790.5385 561.6844 786.5617 559.784 788.5078 556.4759 784.1078 553.379 784.7001 549.5079 777.5925 547.1852 775.2233 541.8359 769.0464 548.7336 760.2465 547.889 757.1158 545.2848 759.7388 543.0325 757.0312 540.9913 749.4159 544.1586 749.2466 542.399 752.1235 538.4575 750.7697 533.6009 753.985 532.1228 754.9158 524.8028 759.5696 520.7205 750.8543 516.1455 750.3466 513.4005 750.4312 512.0632 754.9158 512.204 753.0543 510.2332 759.8235 500.309 756.6927 497.564 755.9312 496.8601 754.1543 498.7605 750.3466 500.5201 745.6928 506.5732 741.8006 502.2094 737.7391 502.9836 736.6391 506.714 735.6237 507.0659 734.4391 506.8547 733.3391 505.799 734.1006 501.224 727.2468 503.969 727.9238 496.7193 723.4392 493.2001 722.2546 492.2851 719.8008 494.5374 719.4623 494.6782 718.5315 491.3701 718.2777 489.329 717.8546 489.0474 713.9624 486.4432 707.5317 482.0793 704.5701 482.572 698.8164 475.9559 698.1394 471.4512 698.0548 471.2401 693.7395 470.8882 691.7933 463.7793 692.9779 462.7939 690.4395 458.5708 692.8087 455.6147 Z M 704.9086 432.4581 702.8778 434.0066 702.0317 429.8539 705.0778 429.2908 704.1471 432.1766 704.9086 432.4581 Z" />
        <path
            d="M 268.7205 463.8497 268.7205 463.9905 268.2128 472.3662 271.1743 477.8562 281.7511 479.2639 282.2588 481.3051 279.3819 497.1417 281.6665 501.1536 278.7896 506.9251 292.1587 516.1455 290.7203 520.2982 292.5818 527.3367 292.9203 528.7444 293.0895 529.1667 294.1049 528.6036 298.6741 528.0405 307.3894 536.4867 302.2279 536.5571 298.7587 540.7802 299.2664 544.8625 306.9663 549.2967 304.7663 556.5463 301.8894 556.6167 298.251 555.8425 292.2433 550.5636 285.6434 550.5636 283.2742 554.7163 272.782 560.5583 260.7667 554.5052 255.0129 558.2356 246.8053 553.6606 242.9977 551.4786 229.967 553.1679 229.7978 549.0856 230.4747 545.8479 229.544 544.7217 222.6902 536.909 231.4055 529.8705 230.8978 527.4071 224.8055 527.5478 218.7133 522.4098 214.9056 521.5651 212.4518 520.0871 217.3595 510.3036 200.775 500.3793 199.8442 499.8867 197.2212 495.1709 193.9212 489.2586 188.0828 486.3728 183.5136 484.0501 181.5675 483.0647 168.0292 481.9386 164.4753 481.657 162.8677 482.2201 163.9677 481.657 159.3139 480.742 157.6216 480.4605 155.4216 460.612 168.283 454.9812 173.8676 449.3505 187.9982 444.9866 195.1904 437.9481 201.0288 442.5935 205.4288 438.5112 233.6055 443.3678 236.8208 448.7874 242.9977 450.1951 244.7746 455.8258 250.3591 455.122 256.2822 462.0901 268.7205 463.8497 Z" />
        <path
            d="M 637.5554 427.1793 638.6554 427.32 640.1785 427.5312 645.1707 428.1647 645.1707 430.3466 650.2476 428.587 654.6475 434.6401 660.4013 435.1327 660.7398 440.5524 660.8244 442.312 667.0859 442.3824 667.509 447.5908 668.1859 447.802 670.132 458.0078 674.8704 460.5416 676.7319 461.5974 683.4165 461.4566 692.8087 455.6147 690.4395 458.5708 692.9779 462.7939 691.7933 463.7793 693.7395 470.8882 698.0548 471.2401 698.1394 471.4512 698.8164 475.9559 704.5701 482.572 707.5317 482.0793 713.9624 486.4432 717.8546 489.0474 718.2777 489.329 718.5315 491.3701 719.4623 494.6782 719.8008 494.5374 718.9546 495.2413 718.2777 495.8747 709.647 501.0128 704.2317 508.2624 693.8241 510.0924 690.0164 516.2863 685.0242 512.4151 685.0242 512.3447 685.0242 512.4151 685.3626 518.5386 682.4011 520.6501 684.3473 534.8678 676.9858 532.5452 676.6473 537.5425 674.1089 536.2755 667.5936 540.3579 666.5782 539.0909 663.109 535.079 660.4013 539.2317 660.3167 539.1613 653.9706 533.1082 646.1861 536.0644 639.84 525.9994 639.9246 515.1601 628.2478 513.9636 621.1402 508.1217 618.0094 512.6967 614.1172 507.4178 602.0173 514.8786 599.3942 513.4005 597.4481 516.4974 594.4866 514.1044 589.7482 519.524 585.5174 513.8228 582.3867 518.0459 582.2175 517.9755 576.6329 516.0047 576.6329 516.0751 574.0099 513.5413 576.6329 509.5294 579.7637 509.8813 582.3021 509.459 582.979 502.9132 586.9559 500.3793 584.5867 495.734 594.0635 489.1882 593.8943 485.2466 598.3789 483.487 599.5635 478.912 603.2865 481.9386 611.3249 478.912 625.9632 479.8974 633.4093 479.1232 637.64 475.9559 638.5708 475.252 637.64 474.4074 633.917 471.2401 626.2171 464.6239 627.5709 461.3862 635.3554 458.8524 633.8324 455.7555 629.8555 451.9547 625.2863 453.7143 622.5786 450.8989 629.6862 445.2681 627.6555 439.4966 635.44 436.3293 632.3093 429.7131 635.8631 428.0943 637.64 427.2497 637.5554 427.1793 Z" />
        <path
            d="M 149.2447 669.9361 142.4756 656.7741 152.3755 654.5218 152.7139 652.4807 150.1755 648.3983 138.2448 648.7503 140.4448 646.8499 133.8449 636.7849 127.7526 633.4064 131.9834 627.0014 140.1064 630.6614 131.8141 622.0041 130.1218 616.1622 119.9681 613.5579 125.8065 593.3575 116.8373 592.2314 107.1067 595.2579 101.099 591.6683 106.0913 584.5594 109.9836 586.9525 111.5066 575.5502 117.2604 570.201 112.6912 559.5729 114.4681 555.1386 124.5373 556.4056 125.468 552.1121 125.6373 551.0563 96.0222 544.6513 117.8527 539.9355 122.0834 535.2198 122.6758 529.8001 130.3757 529.6594 132.3218 525.7178 129.6988 522.4098 136.9756 516.4974 130.2064 512.9782 128.0911 503.2651 141.7986 500.3793 141.9679 496.3674 141.0371 496.0155 147.214 492.7778 147.9755 493.4113 152.8832 497.4232 151.8678 494.2559 161.26 489.892 156.6062 487.4286 157.0293 485.5986 157.2831 484.8947 157.4523 484.0501 162.8677 482.2201 164.4753 481.657 168.0292 481.9386 181.5675 483.0647 183.5136 484.0501 188.0828 486.3728 193.9212 489.2586 197.2212 495.1709 199.8442 499.8867 200.775 500.3793 217.3595 510.3036 212.4518 520.0871 214.9056 521.5651 218.7133 522.4098 224.8055 527.5478 230.8978 527.4071 231.4055 529.8705 222.6902 536.909 229.544 544.7217 230.4747 545.8479 229.7978 549.0856 229.967 553.1679 242.9977 551.4786 246.8053 553.6606 239.0208 568.2302 221.2517 560.6286 214.9902 563.0921 215.6672 563.2329 237.2439 568.3006 221.3363 575.6206 228.6132 581.2514 223.9594 583.4333 219.7287 591.3164 221.6748 596.1729 218.121 604.7598 223.9594 605.9564 224.1286 610.461 215.8364 614.4025 211.4364 612.3614 203.5673 613.6283 196.5443 622.356 201.6211 627.3533 210.5903 627.4941 208.8134 634.8845 216.2595 639.3187 213.5518 647.413 219.4748 652.6918 215.1595 659.5191 216.3441 662.7568 210.3364 670.9214 202.3827 675.3557 201.1135 679.2972 203.0596 680.7753 188.0828 679.0861 171.0753 669.4434 169.7215 671.4845 169.8907 671.0622 149.414 670.0064 149.2447 669.9361 Z" />
        <path
            d="M 471.8801 502.0686 469.9339 500.2386 471.457 497.9863 476.7877 498.7605 476.8723 498.6901 485.9261 491.2997 491.8491 489.8216 499.2106 493.4816 501.2413 491.2293 492.9491 484.4724 492.8645 481.2347 497.2644 481.0236 498.3644 484.7539 505.9797 482.8536 506.3182 476.8709 510.8874 475.5336 515.7104 481.3051 522.7334 479.6863 526.9642 484.0501 527.6411 487.2174 520.9565 489.329 520.9565 492.074 525.018 494.2559 524.9334 497.7751 534.241 497.2824 535.7641 500.309 533.5641 501.7167 537.3718 507.9105 556.8331 495.4524 561.4869 495.5932 563.433 502.4909 571.4714 504.1097 571.8945 504.1801 572.4022 508.1217 572.4868 509.0367 576.1252 509.459 576.6329 509.5294 574.0099 513.5413 576.6329 516.0751 577.4791 516.8494 575.3637 525.1548 570.7945 528.674 577.2252 536.6275 567.1561 542.4694 568.0022 544.5809 562.5023 549.5079 563.6023 551.2675 557.0869 561.1213 551.4178 559.9248 551.0793 567.456 560.3869 570.9752 566.733 567.7375 577.2252 575.2687 583.2328 572.2421 589.0713 574.7056 597.7866 572.4533 597.8712 577.2394 601.1711 575.691 607.4326 582.1664 604.9788 585.0521 601.8481 584.3483 601.9327 589.1344 597.6173 593.5687 594.3174 591.4571 590.2559 595.2579 586.279 594.2021 582.2175 598.4956 582.0482 598.6364 574.5175 597.4398 571.3022 601.7333 567.0715 607.4345 573.4176 616.5141 570.5407 618.4145 574.856 620.6668 572.9945 623.6933 576.0406 624.8899 574.9406 626.931 578.7483 626.016 579.5098 625.8752 579.5944 625.8049 581.5406 629.1129 575.3637 639.5299 577.056 641.8526 569.1022 638.7556 565.633 642.486 567.7484 643.2603 565.0407 643.6122 565.2099 648.9614 555.987 660.4341 561.2331 663.3903 561.1484 666.628 551.587 670.3584 549.8947 680.5641 557.3408 684.7168 559.4562 690.3476 562.8407 686.8284 568.5945 689.9253 571.2176 697.4565 586.279 693.3742 583.0636 703.5799 582.0482 704.2838 580.0175 705.6915 579.4252 706.0434 576.2098 710.1257 575.7868 713.293 571.556 715.8269 567.4945 720.8946 566.9022 722.2319 566.3099 722.3023 564.7869 722.6542 563.6023 722.9357 561.0638 719.8388 550.1486 727.37 540.5025 726.8069 540.164 726.5957 538.2179 726.455 529.7564 720.3315 527.8103 722.3726 520.3642 721.5984 519.4335 717.0938 511.7335 709.8442 511.3105 705.1284 509.2797 705.6211 506.149 707.2399 505.049 706.6769 496.6721 702.5242 496.5875 702.5946 490.8337 707.0288 490.7491 706.9584 490.5799 707.0288 481.3569 704.8469 495.0645 699.2865 495.6568 694.4299 490.9184 692.3184 492.6953 677.4672 484.403 673.1738 478.2262 673.2441 477.38 677.3968 469.5955 679.9307 466.5494 674.1591 460.5417 672.6107 462.234 660.4341 472.8108 652.903 472.8108 651.5657 469.6801 646.4276 469.1724 645.7941 462.5725 650.0876 459.7802 648.4687 460.2879 638.9668 455.7187 634.0399 464.0109 626.1568 458.7648 625.8752 456.4802 618.9072 451.3187 620.6668 443.788 618.6256 443.7034 618.4849 438.2035 609.8979 438.7112 605.1118 438.7112 604.5487 445.988 599.7625 445.6496 596.5952 453.4341 599.481 462.4879 594.0614 470.8647 593.5687 473.657 596.1025 472.7262 593.6391 483.4723 584.841 469.5109 581.0402 469.0878 580.4771 467.2263 578.5064 464.3494 575.2687 464.1802 572.3125 464.0109 569.1452 463.9263 568.1598 465.1955 568.371 471.7955 564.4294 467.057 554.9275 468.0724 546.5517 461.9802 541.1321 468.7493 536.4867 469.5109 532.8267 465.0263 530.7151 465.1955 526.844 470.7801 522.9728 463.5032 514.4563 471.9647 502.139 471.8801 502.0686 Z" />
        <path
            d="M 370.9349 521.2836 376.0964 516.8494 379.3964 518.4682 380.6656 520.2278 387.0117 522.1282 387.3501 522.269 387.4347 522.269 397.6731 518.3274 402.75 512.9782 398.7731 508.4032 399.9577 503.7578 405.8807 503.6874 414.8499 498.127 422.719 499.957 420.519 504.0394 424.1575 506.5028 431.2651 503.4763 431.3497 503.5467 432.1958 507.9809 433.042 507.3474 436.5112 504.7432 444.3803 507.4882 450.8957 501.0832 456.8187 499.394 464.1802 501.9278 465.8724 501.0128 471.8801 502.0686 471.9647 502.139 463.5032 514.4563 470.7801 522.9728 465.1955 526.844 465.0263 530.7151 469.5109 532.8267 468.7493 536.4867 461.9802 541.1321 468.0724 546.5517 467.057 554.9275 471.7955 564.4294 465.1955 568.371 463.9263 568.1598 464.0109 569.1452 464.1802 572.3125 464.3494 575.2687 467.2263 578.5064 469.0878 580.4771 469.5109 581.0402 483.4723 584.841 472.7262 593.6391 473.657 596.1025 470.8647 593.5687 462.4879 594.0614 453.4341 599.481 445.6496 596.5952 445.988 599.7625 438.7112 604.5487 438.7112 605.1118 438.2035 609.8979 443.7034 618.4849 440.5727 617.5699 440.3188 617.781 436.4266 620.2445 432.5343 617.781 428.9805 618.2737 424.2421 617.0772 421.4498 613.8395 414.5114 605.886 414.2576 605.5341 414.0883 605.5341 401.9038 607.5752 395.1347 601.7333 392.0039 603.7745 390.8193 604.4783 389.6347 603.8448 390.1424 603.3521 387.1809 602.5075 391.6655 596.5952 388.1963 593.2167 390.1424 588.0083 387.604 586.3191 388.2809 582.5183 382.5271 581.6737 383.7117 577.8025 380.4963 576.1837 376.2656 576.6763 376.0118 574.9871 375.5887 570.6937 383.3732 568.1598 377.9579 564.6406 380.3271 557.5317 372.9656 557.3206 372.9656 547.0444 367.1272 540.8505 362.4734 542.2582 359.5119 535.1494 370.9349 521.2836 Z" />
        <path
            d="M 298.6741 528.0405 301.7202 524.5917 309.4201 525.2955 315.4277 517.3421 326.7661 519.8759 324.9046 509.5997 331.5045 504.3209 336.4122 505.0247 340.1352 512.204 340.7275 522.9728 344.0275 523.5359 345.9736 523.8174 348.5966 521.4244 352.6581 523.6767 361.7119 520.2278 368.3965 523.3951 370.9349 521.2836 359.5119 535.1494 362.4734 542.2582 367.1272 540.8505 372.9656 547.0444 372.9656 557.3206 380.3271 557.5317 377.9579 564.6406 383.3732 568.1598 375.5887 570.6937 376.0118 574.9871 376.2656 576.6763 380.4963 576.1837 383.7117 577.8025 382.5271 581.6737 388.2809 582.5183 387.604 586.3191 390.1424 588.0083 388.1963 593.2167 391.6655 596.5952 387.1809 602.5075 390.1424 603.3521 389.6347 603.8448 386.7578 607.0825 386.5886 607.2937 386.504 607.3641 386.927 613.2764 386.927 613.6283 386.6732 613.6987 383.204 614.5433 382.9502 617.9922 385.4886 619.0479 383.204 621.9337 374.9118 626.931 367.8042 625.8049 359.2581 628.6906 361.6273 640.3745 365.2657 641.008 358.5812 647.7649 361.2042 651.988 366.7888 653.1845 368.7349 650.2987 371.8657 650.7914 364.8426 657.1964 366.6196 661.5603 358.7504 660.6453 355.112 666.628 345.7198 661.9122 340.9813 663.9534 341.1506 671.4141 338.1891 674.9334 341.489 678.0303 342.3352 684.9984 350.0351 686.6876 350.2043 691.5442 350.0351 691.6849 348.6813 692.6703 343.0967 696.7526 337.0891 701.1869 336.4968 701.5388 336.4968 701.6796 334.8045 708.0142 336.8352 712.378 332.6891 714.7007 328.543 706.4657 319.5739 706.4657 319.7431 702.7353 324.3123 700.1311 324.2277 700.0607 316.7816 694.2892 323.2123 687.8138 319.2354 679.2972 319.0662 678.9453 318.5585 678.8045 317.7123 678.5934 315.9354 678.2415 311.5355 688.2361 305.5278 686.1245 299.1817 691.0515 292.5818 690.7699 287.7588 683.8018 280.1435 680.6345 274.1358 669.1618 266.7744 671.4141 268.0436 668.6691 264.0667 664.7276 255.5206 667.543 251.1207 663.6718 246.5515 663.7422 247.4822 659.871 244.2669 658.2522 244.0977 658.1818 235.7208 663.4607 223.1979 666.2057 216.7672 662.1937 216.3441 662.7568 215.1595 659.5191 219.4748 652.6918 213.5518 647.413 216.2595 639.3187 208.8134 634.8845 210.5903 627.4941 201.6211 627.3533 196.5443 622.356 203.5673 613.6283 211.4364 612.3614 215.8364 614.4025 224.1286 610.461 223.9594 605.9564 218.121 604.7598 221.6748 596.1729 219.7287 591.3164 223.9594 583.4333 228.6132 581.2514 221.3363 575.6206 237.2439 568.3006 215.6672 563.2329 214.9902 563.0921 221.2517 560.6286 239.0208 568.2302 246.8053 553.6606 255.0129 558.2356 260.7667 554.5052 272.782 560.5583 283.2742 554.7163 285.6434 550.5636 292.2433 550.5636 298.251 555.8425 301.8894 556.6167 304.7663 556.5463 306.9663 549.2967 299.2664 544.8625 298.7587 540.7802 302.2279 536.5571 307.3894 536.4867 298.6741 528.0405 Z" />
        <path
            d="M 719.8008 494.5374 722.2546 492.2851 723.4392 493.2001 727.9238 496.7193 727.2468 503.969 734.1006 501.224 733.3391 505.799 734.4391 506.8547 735.6237 507.0659 736.6391 506.714 737.7391 502.9836 741.8006 502.2094 745.6928 506.5732 750.3466 500.5201 754.1543 498.7605 755.9312 496.8601 756.6927 497.564 759.8235 500.309 753.0543 510.2332 754.9158 512.204 750.4312 512.0632 750.3466 513.4005 750.8543 516.1455 759.5696 520.7205 754.9158 524.8028 753.985 532.1228 750.7697 533.6009 752.1235 538.4575 749.2466 542.399 749.4159 544.1586 747.639 544.9329 747.0467 548.3817 747.3005 548.8744 746.8774 549.0152 742.0544 550.7748 740.7006 551.2675 740.6159 551.6194 741.3775 556.2648 741.8006 556.9686 745.0159 557.1094 742.0544 561.3325 748.7389 560.1359 749.5851 564.2886 739.7698 571.116 733.9314 570.764 732.1545 574.9167 720.0546 580.6179 716.9239 587.0933 714.5547 585.0521 708.9701 587.8675 706.6009 585.6152 700.2548 587.4452 700.8471 593.1464 697.801 597.3694 698.3933 597.3694 707.024 591.3164 708.8009 590.1198 709.8162 589.416 710.9162 590.4014 711.4239 590.8237 711.7624 591.1052 709.8162 594.2021 717.9392 597.7214 714.8931 601.5925 724.7084 603.7041 725.3853 608.0679 721.5777 611.8687 718.2777 609.546 722.5084 607.2233 720.3085 604.8302 714.47 602.7891 710.747 607.9271 719.4623 612.5725 721.9161 616.9364 721.7469 617.0068 721.8315 617.0772 720.8161 617.9922 710.6624 626.7902 704.6548 627.4237 696.6164 623.5525 695.0087 627.9164 704.7394 629.676 696.7856 636.3626 687.8165 637.3479 685.9549 631.9987 680.2011 630.8726 676.2243 630.3095 675.9704 630.0983 675.0397 629.8872 674.955 628.9722 674.2781 622.356 668.9474 621.441 668.6936 621.441 666.4936 617.5699 666.1551 616.9364 666.0705 616.7956 669.2013 612.8541 664.1244 606.0268 663.8705 606.0971 655.2398 611.6575 661.2475 618.2737 656.3398 620.9483 658.6244 625.7345 648.7245 624.8195 645.6784 617.8514 641.2784 620.1037 648.2168 624.8195 644.0707 629.8168 638.2323 631.3652 631.6324 626.2976 628.6709 628.4795 620.4633 624.3972 615.471 618.3441 608.448 615.3175 612.8479 622.9895 610.8172 627.4237 616.4018 628.6202 620.3786 632.9841 609.9711 647.9057 609.8864 650.2283 614.9633 651.988 609.0403 654.8034 607.9403 662.8272 599.1404 675.4261 603.2019 676.8338 602.6942 684.2241 604.7249 685.9838 609.2095 684.5057 618.6017 688.5176 618.6017 688.7288 618.2633 691.8257 618.0094 694.0076 617.9248 694.0076 615.3018 694.7819 612.9326 695.4153 612.0864 696.2599 611.748 698.4419 610.3095 698.0195 606.1634 696.7526 605.8249 696.6822 600.4942 702.5946 599.5635 703.6503 592.202 703.3688 585.7713 710.0553 585.4328 710.3369 584.5867 709.2107 580.0175 705.6915 582.0482 704.2838 583.0636 703.5799 586.279 693.3742 571.2176 697.4565 568.5945 689.9253 562.8407 686.8284 559.4562 690.3476 557.3408 684.7168 549.8947 680.5641 551.587 670.3584 561.1484 666.628 561.2331 663.3903 555.987 660.4341 565.2099 648.9614 565.0407 643.6122 567.7484 643.2603 565.633 642.486 569.1022 638.7556 577.056 641.8526 575.3637 639.5299 581.5406 629.1129 579.5944 625.8049 579.5098 625.8752 578.7483 626.016 574.9406 626.931 576.0406 624.8899 572.9945 623.6933 574.856 620.6668 570.5407 618.4145 573.4176 616.5141 567.0715 607.4345 571.3022 601.7333 574.5175 597.4398 582.0482 598.6364 582.2175 598.4956 586.279 594.2021 590.2559 595.2579 594.3174 591.4571 597.6173 593.5687 601.9327 589.1344 601.8481 584.3483 604.9788 585.0521 607.4326 582.1664 601.1711 575.691 597.8712 577.2394 597.7866 572.4533 589.0713 574.7056 583.2328 572.2421 577.2252 575.2687 566.733 567.7375 560.3869 570.9752 551.0793 567.456 551.4178 559.9248 557.0869 561.1213 563.6023 551.2675 562.5023 549.5079 568.0022 544.5809 567.1561 542.4694 577.2252 536.6275 570.7945 528.674 575.3637 525.1548 577.4791 516.8494 576.6329 516.0751 576.6329 516.0047 582.2175 517.9755 582.3867 518.0459 585.5174 513.8228 589.7482 519.524 594.4866 514.1044 597.4481 516.4974 599.3942 513.4005 602.0173 514.8786 614.1172 507.4178 618.0094 512.6967 621.1402 508.1217 628.2478 513.9636 639.9246 515.1601 639.84 525.9994 646.1861 536.0644 653.9706 533.1082 660.3167 539.1613 660.4013 539.2317 663.109 535.079 666.5782 539.0909 667.5936 540.3579 674.1089 536.2755 676.6473 537.5425 676.9858 532.5452 684.3473 534.8678 682.4011 520.6501 685.3626 518.5386 685.0242 512.4151 685.0242 512.3447 685.0242 512.4151 690.0164 516.2863 693.8241 510.0924 704.2317 508.2624 709.647 501.0128 718.2777 495.8747 718.9546 495.2413 719.8008 494.5374 Z" />
        <path
            d="M 443.7034 618.4849 443.788 618.6256 451.3187 620.6668 456.4802 618.9072 458.7648 625.8752 464.0109 626.1568 455.7187 634.0399 460.2879 638.9668 459.7802 648.4687 462.5725 650.0876 469.1724 645.7941 469.6801 646.4276 472.8108 651.5657 472.8108 652.903 462.234 660.4341 460.5417 672.6107 466.5494 674.1591 469.5955 679.9307 477.38 677.3968 478.2262 673.2441 484.403 673.1738 492.6953 677.4672 490.9184 692.3184 495.6568 694.4299 495.0645 699.2865 481.3569 704.8469 476.8723 720.4019 476.28 720.3315 470.1032 714.4896 470.0186 714.4896 466.4647 714.6303 461.9802 714.7711 461.7263 714.8415 460.7956 715.0526 459.0187 715.5453 456.6495 721.8096 456.3956 721.9503 451.2341 720.8946 444.6342 724.1323 439.9804 716.1084 433.6343 715.3342 429.742 719.2053 428.7266 714.7007 428.642 714.7007 428.3036 714.4896 413.6653 706.3249 413.4114 707.0992 411.7191 713.0115 402.0731 715.9676 401.3115 716.1788 401.1423 716.8123 398.9423 724.273 394.627 726.5957 395.6423 730.9596 390.6501 730.9596 383.5425 735.4642 387.2655 744.1919 380.3271 741.5173 380.2425 741.4469 379.2271 744.1919 376.181 751.7934 370.5118 753.9754 370.258 754.4681 368.8195 758.3392 368.9041 758.3392 376.7733 763.8292 372.5426 770.7269 372.3733 771.0789 366.6196 770.5862 364.5888 773.6127 354.6889 775.6539 355.535 771.29 351.1351 765.6592 354.6889 759.7469 341.066 753.1308 342.2506 747.0073 337.2583 743.1361 347.2428 737.7165 345.8044 728.285 347.0736 725.7511 347.8351 724.7657 352.3197 726.8773 356.2966 721.2465 356.1273 720.8242 352.3197 711.1815 347.7505 710.1257 348.2582 699.9199 343.0121 697.2453 343.0967 696.7526 348.6813 692.6703 350.0351 691.6849 350.2043 691.5442 350.0351 686.6876 342.3352 684.9984 341.489 678.0303 338.1891 674.9334 341.1506 671.4141 340.9813 663.9534 345.7198 661.9122 355.112 666.628 358.7504 660.6453 366.6196 661.5603 364.8426 657.1964 371.8657 650.7914 368.7349 650.2987 366.7888 653.1845 361.2042 651.988 358.5812 647.7649 365.2657 641.008 361.6273 640.3745 359.2581 628.6906 367.8042 625.8049 374.9118 626.931 383.204 621.9337 385.4886 619.0479 382.9502 617.9922 383.204 614.5433 386.6732 613.6987 386.927 613.6283 386.927 613.2764 386.504 607.3641 386.5886 607.2937 386.7578 607.0825 389.6347 603.8448 390.8193 604.4783 392.0039 603.7745 395.1347 601.7333 401.9038 607.5752 414.0883 605.5341 414.2576 605.5341 414.5114 605.886 421.4498 613.8395 424.2421 617.0772 428.9805 618.2737 432.5343 617.781 436.4266 620.2445 440.3188 617.781 440.5727 617.5699 443.7034 618.4849 Z" />
        <path
            d="M 313.8201 356.6538 313.397 360.0323 313.397 360.1731 326.1738 363.6219 332.1814 370.3084 331.843 371.2938 328.2045 375.9392 324.6507 373.8981 319.2354 375.0242 320.42 377.91 315.0893 377.2765 318.4739 379.8808 317.8816 382.9073 312.297 382.9777 309.5047 377.5581 306.7971 378.8954 307.1355 384.0335 320.2508 391.2127 318.3892 397.4066 320.1662 402.4743 317.7969 401.6296 313.7354 409.2312 303.9202 415.4954 301.2125 422.1116 280.8204 423.4489 278.2819 427.1089 279.4665 439.9189 274.8127 448.0835 275.2358 450.2655 273.1205 451.1805 270.582 455.5443 269.482 463.9905 268.7205 463.8497 256.2822 462.0901 250.3591 455.122 244.7746 455.8258 242.9977 450.1951 236.8208 448.7874 233.6055 443.3678 205.4288 438.5112 201.0288 442.5935 195.1904 437.9481 187.9982 444.9866 173.8676 449.3505 168.283 454.9812 155.4216 460.612 157.6216 480.4605 159.3139 480.742 163.9677 481.657 162.8677 482.2201 157.4523 484.0501 157.2831 484.8947 157.0293 485.5986 156.6062 487.4286 161.26 489.892 151.8678 494.2559 152.8832 497.4232 147.9755 493.4113 147.214 492.7778 141.0371 496.0155 88.7453 475.8151 93.0607 467.0874 100.4221 467.5097 102.3683 464.5535 107.0221 464.3424 100.1683 454.5589 111.0836 452.7993 112.4374 450.1951 109.3066 448.8578 115.822 440.2708 115.9912 435.2735 123.1834 433.0916 127.1603 435.0624 127.4988 432.4581 132.068 431.6839 126.568 428.1647 127.8372 423.1673 136.0449 418.8739 142.6448 419.2962 139.4294 415.2139 142.8986 415.9177 144.2525 413.1727 140.2756 413.595 141.0371 410.7796 147.0447 410.3573 157.537 401.9112 163.883 404.3746 174.9676 397.1954 173.8676 390.72 180.6367 380.9365 186.3905 382.2035 188.0828 385.3708 206.2749 381.6404 213.8903 375.8688 217.021 376.4319 220.4056 368.6896 225.8209 368.1265 225.9055 364.2554 238.2593 361.2992 241.2208 365.2408 241.5592 361.44 244.8592 359.2581 252.6437 360.6657 266.6897 353.2754 284.1203 355.1757 282.8511 356.7946 295.2049 363.4811 295.7125 362.7069 295.0356 357.3577 299.5202 354.4015 309.1663 357.1465 313.9893 355.3165 313.8201 356.6538 Z" />
        <path
            d="M 450.0495 109.9555 449.8803 109.5332 448.3572 105.1693 445.3111 106.2251 446.5803 97.427 437.1881 99.4682 435.0727 96.2305 425.3421 96.3712 418.7421 92.5705 406.6422 95.3859 408.673 90.7405 403.0884 91.4443 397.8423 84.617 392.2578 86.447 378.6348 78.4232 390.3116 75.6782 389.9732 66.8801 392.8501 64.0647 390.3116 61.2493 383.0348 61.4604 384.6425 58.5747 377.0271 56.6743 380.581 53.0143 382.3579 43.9347 405.7115 51.8177 405.7961 51.8177 415.2729 49.3543 415.5268 45.835 420.9421 44.005 422.3806 45.272 418.5729 47.0316 419.0806 50.6916 426.9497 53.9293 424.6651 58.1524 428.4728 60.827 430.4189 62.2347 432.1112 61.742 432.5343 61.6012 432.8728 61.5308 434.8189 54.4924 434.0574 46.5389 439.3881 41.1193 448.9495 35.6997 472.557 32.3916 478.9031 27.0423 481.8646 28.45 483.3877 21.4116 487.3645 21.5523 483.6415 19.7223 483.3877 16.1327 495.6568 13.1062 495.826 12.9654 496.6721 12.4023 510.5489 2.9004 511.3105 1.1408 511.4797 1 513.5104 2.7596 528.5718 16.1327 536.5256 31.4766 521.3796 30.9839 521.295 31.0543 514.4412 36.7554 513.5951 41.4008 504.9644 43.3012 505.9797 48.0874 501.4952 49.5654 494.3876 58.9266 459.8648 68.4989 454.5341 72.5108 459.4417 73.9185 459.9494 76.382 456.7341 78.0712 456.1418 84.617 464.434 82.8574 465.1955 87.9955 467.3955 87.9251 466.5494 91.937 468.9186 92.852 465.8724 98.5532 456.4802 103.4097 453.6879 109.1109 451.488 109.674 450.0495 109.9555 Z" />
        <path
            d="M 498.8721 300.0645 502.5106 298.0234 507.7567 302.0353 510.8028 300.6276 509.7874 298.6568 515.0335 297.953 516.895 303.9357 522.5642 302.5984 525.7796 306.3288 529.6718 305.2026 522.9873 311.0445 520.6181 310.4815 516.8104 319.2796 516.5566 319.7722 518.9258 321.6726 523.4103 319.4907 525.4411 323.3619 525.6103 323.2915 527.0488 325.8253 530.2641 327.0219 530.7718 327.1626 530.6026 327.3034 521.2104 330.6819 520.0258 331.1746 520.3642 323.9249 519.9412 323.7138 514.3566 321.8838 513.0874 322.9396 512.9181 325.2622 512.8335 326.8107 516.6412 333.0046 516.9796 333.4973 516.472 333.638 501.749 338.7057 501.5798 338.8465 501.4952 338.8465 495.7414 345.885 495.9952 349.193 494.8106 352.0084 477.8877 351.938 472.4724 343.9846 479.1569 337.7907 476.0262 331.5969 475.6877 330.9634 475.5185 331.1042 471.6262 335.0457 468.157 333.1453 470.5262 331.0338 468.2416 329.978 471.457 328.9926 468.9186 325.0511 470.0186 319.1388 477.0416 320.6872 471.5416 312.9449 481.78 312.6634 476.28 305.6953 476.6185 305.4842 483.303 305.9768 486.0107 310.9742 486.2646 311.3261 490.4107 309.5665 492.8645 303.443 499.0414 300.6276 498.8721 300.0645 Z M 398.7731 240.3079 404.3577 231.4395 415.4422 229.1872 415.4422 229.1168 417.3037 225.5975 430.2497 230.1022 430.5036 229.5391 432.1112 226.3718 432.2805 225.9495 437.0189 229.8206 442.6034 229.3983 441.2496 235.8033 442.9419 234.0437 443.6188 236.9295 449.5418 237.2814 450.5572 242.6306 450.6418 242.7714 450.5572 242.8418 448.5265 242.2787 447.7649 245.0941 450.4726 248.2614 448.7803 250.3729 444.465 248.4022 441.9265 254.9479 441.4188 255.2295 430.1651 253.3291 434.3112 257.341 433.9727 260.5083 426.9497 260.2268 428.8959 264.8018 426.019 269.9399 427.119 275.3595 421.1959 272.333 417.0498 265.7168 408.4191 266.1391 409.3499 271.7699 412.7345 271.8403 415.0191 278.6676 412.8191 281.0607 410.7884 279.3714 411.4653 283.1722 407.3192 284.0872 407.2345 294.7857 413.4114 295.7007 416.4575 291.9703 421.3652 294.7857 418.4883 298.0938 412.2268 298.1641 413.5806 301.0499 419.0806 300.1349 415.5268 310.4815 406.5576 312.3115 408.8422 315.2676 407.4884 319.7019 414.0883 322.1653 416.4575 328.9926 413.5806 333.7788 408.0807 332.3007 403.6807 335.3273 402.3269 330.0484 394.8808 331.4561 391.5809 334.9753 389.2963 332.6526 388.1963 336.2423 383.204 334.6938 376.9425 341.1692 371.9503 341.3803 370.258 345.2515 365.5196 346.3073 363.7427 356.5834 353.4197 355.3869 351.3889 349.1227 346.8197 346.9407 341.4044 352.1492 326.7661 351.0934 326.0892 351.023 322.62 354.1904 320.42 355.8796 314.6662 355.8092 314.4124 356.6538 313.8201 356.6538 313.9893 355.3165 309.1663 357.1465 299.5202 354.4015 295.0356 357.3577 295.7125 362.7069 295.2049 363.4811 282.8511 356.7946 284.1203 355.1757 303.1586 346.6592 305.5278 345.6034 305.6124 345.4627 308.7432 334.9753 314.4124 330.0484 314.7508 323.7842 320.42 322.2357 317.6277 321.1096 321.1815 312.5226 328.3738 314.2119 331.843 311.678 331.4199 307.3142 336.1583 302.1057 334.0429 299.9238 335.9045 295.2784 344.0275 288.7326 341.9121 286.973 343.2659 282.1868 348.089 281.6941 349.189 285.143 351.8966 285.143 354.6043 275.3595 356.7196 276.4153 365.9426 269.4472 369.0734 267.0541 381.2579 251.4287 385.9963 247.9799 387.7732 246.5722 396.5731 243.7568 398.7731 240.3079 Z" />
    </g>
</svg>