<?xml version="1.0"?>
<svg xmlns="http://www.w3.org/2000/svg" version="1.2" baseProfile="tiny" width="800" height="934"
    viewBox="0 0 800 934" stroke-linecap="round" stroke-linejoin="round">
    <g id="sikkim_district">
        <path
            d="M 414.4381 664.3381 378.4278 652.289 376.3895 649.7523 354.3078 625.654 347.8531 576.189 324.4125 563.5057 302.3308 536.2365 276.5121 532.1144 257.1481 535.9194 238.4636 542.8953 236.765 543.5294 201.4342 524.1874 173.5773 483.2836 89.6667 450.624 93.7433 428.1111 114.8059 411.6228 123.9783 388.1586 118.5428 376.1095 126.3563 346.6207 145.7203 337.7424 148.7778 311.7416 163.046 299.6924 141.304 272.4233 167.4623 257.2033 161.3474 242.6174 107.3321 218.202 111.4087 211.5433 93.7433 186.8108 110.0498 169.6883 102.2363 158.5904 116.1648 145.59 168.8212 165.5662 171.1992 148.1266 198.037 139.5654 209.9272 164.932 223.1762 151.9316 260.5453 143.0533 269.0383 132.9066 279.9093 137.98 299.2733 123.077 349.212 129.7358 354.6475 114.8329 400.8493 99.2958 425.3091 66.6362 449.7688 83.1246 469.1328 84.3929 475.5875 42.2208 534.6986 27.635 528.9234 1 547.2682 7.6587 581.2401 50.1479 655.2989 46.9771 704.8978 93.2712 725.9604 100.8812 732.7548 120.5404 726.6398 176.6641 747.3627 177.9324 755.8557 188.0791 771.4828 240.7149 765.0281 264.4962 742.9464 276.2283 748.3819 292.3995 741.2478 321.2541 751.4393 341.2303 743.6258 364.0603 727.3193 373.5728 736.4917 407.1836 718.1469 427.794 707.2759 426.2086 698.1034 445.8678 702.1801 464.5757 683.4955 480.1128 686.2133 488.674 662.0932 497.8694 673.9834 526.4069 687.5722 529.2607 673.6437 582.5307 678.3997 599.019 690.6296 600.9215 686.8927 610.1169 701.8404 622.1661 698.1034 629.7761 688.5913 629.1419 672.6245 627.8736 630.8391 625.0198 630.8391 625.3369 598.9055 643.4107 541.8327 654.5086 541.1533 654.5086 507.5211 642.7765 474.2286 649.4352 447.3908 641.8252 422.2516 659.2648 414.4381 664.3381 Z" />
        <path
            d="M 89.6667 450.624 173.5773 483.2836 201.4342 524.1874 236.765 543.5294 221.4777 554.9444 230.9898 638.6544 278.8902 631.9957 284.3257 642.7765 296.8953 636.1177 304.0294 644.9961 301.9911 664.6552 279.5696 670.9969 271.4163 691.6073 250.3538 704.2906 263.6028 722.9985 259.8659 731.8769 231.6692 746.4627 254.0907 767.0731 254.7701 794.0252 280.9285 824.4652 252.3921 844.7585 236.0856 879.9548 235.4061 881.5402 193.281 891.3697 178.6731 879.9548 148.7778 879.0035 123.9783 898.9797 73.3602 878.0523 53.9962 832.0752 57.7331 819.0748 58.0728 818.4406 56.3742 817.4894 28.5172 803.5377 23.7612 801.3181 21.7229 801.9523 16.9668 801.001 1 808.611 16.2874 775.0002 17.3065 744.2431 48.9004 700.4856 25.7995 668.7773 30.5556 638.3373 55.0153 614.239 47.8812 592.3602 28.1775 574.2865 27.4981 558.1153 42.106 544.4807 40.7471 522.919 59.092 498.1865 61.8097 476.6249 89.6667 450.624 Z" />
        <path
            d="M 236.765 543.5294 238.4636 542.8953 257.1481 535.9194 276.5121 532.1144 302.3308 536.2365 324.4125 563.5057 347.8531 576.189 354.3078 625.654 376.3895 649.7523 378.4278 652.289 414.4381 664.3381 414.4381 664.9723 412.7395 665.9236 413.7586 703.6565 384.2031 718.8765 375.0307 762.634 418.5147 786.7323 419.1941 794.0252 416.8161 816.221 421.5722 823.1968 424.2899 827.0018 427.0077 830.8068 457.5824 840.6364 456.9029 850.466 455.8838 865.3689 425.9885 888.1989 407.6437 889.4672 393.0358 916.7364 363.8199 932.9077 369.5951 925.2977 303.0102 911.6631 290.1009 898.9797 289.0817 899.2968 274.4738 902.7847 267.6794 885.0281 254.7701 882.1743 243.8991 883.7597 238.1239 883.4427 236.0856 879.9548 252.3921 844.7585 280.9285 824.4652 254.7701 794.0252 254.0907 767.0731 231.6692 746.4627 259.8659 731.8769 263.6028 722.9985 250.3538 704.2906 271.4163 691.6073 279.5696 670.9969 301.9911 664.6552 304.0294 644.9961 296.8953 636.1177 284.3257 642.7765 278.8902 631.9957 230.9898 638.6544 221.4777 554.9444 236.765 543.5294 Z" />
        <path
            d="M 414.4381 664.3381 422.2516 659.2648 447.3908 641.8252 474.2286 649.4352 507.5211 642.7765 541.1533 654.5086 541.8327 654.5086 598.9055 643.4107 630.8391 625.3369 630.8391 625.0198 672.6245 627.8736 688.5913 629.1419 727.3193 661.4844 747.7024 654.5086 767.7458 693.5098 795.6028 704.2906 799 713.169 785.0715 755.6581 763.6692 765.4877 722.2235 764.5364 696.7446 777.2198 686.2133 832.0752 664.4713 838.7339 659.7152 861.5639 640.0115 875.5156 625.4036 872.9789 619.9681 863.7835 614.8723 854.5881 611.4751 849.1977 595.5083 841.2706 594.8289 841.5877 576.484 849.5148 564.9336 854.5881 564.2542 854.9052 514.9949 829.8556 464.7165 839.051 457.5824 840.3193 457.5824 840.6364 427.0077 830.8068 424.2899 827.0018 421.5722 823.1968 416.8161 816.221 419.1941 794.0252 418.5147 786.7323 375.0307 762.634 384.2031 718.8765 413.7586 703.6565 412.7395 665.9236 414.4381 664.9723 414.4381 664.3381 Z" />
    </g>
</svg>