<?xml version="1.0"?>
<svg xmlns="http://www.w3.org/2000/svg" version="1.2" baseProfile="tiny" width="800" height="630"
    viewBox="0 0 800 630" stroke-linecap="round" stroke-linejoin="round">
    <g id="uttarakhand_district">
        <path
            d="M 422.5964 88.8195 422.3357 89.5453 417.9033 90.4162 412.2542 97.3837 399.3916 102.6093 405.1276 106.8189 403.0418 114.6573 402.9549 114.5847 396.0891 113.1332 389.484 116.1814 394.3509 120.6813 394.0902 125.6166 390.9614 127.2133 393.4818 134.1808 388.4411 135.8501 386.7029 141.8015 383.3134 142.8176 384.2694 146.0836 380.7062 149.1319 395.4807 163.2846 392.0913 169.1635 387.7458 169.5264 385.1385 166.841 374.7963 167.2039 367.8436 161.9057 361.76 163.8653 358.1098 158.8574 350.0272 157.3332 344.5519 152.1802 336.5563 149.5674 335.3396 149.1319 329.6036 138.3178 316.3934 139.4064 311.1788 133.9631 304.9214 135.4872 302.4879 134.2534 301.3581 134.326 294.3184 140.858 297.3603 148.1158 295.3614 150.2206 293.9708 166.1152 284.8453 170.3973 276.1544 169.9618 271.8959 172.3569 264.4217 166.9861 259.9893 171.1956 251.0377 173.0827 249.9079 177.1471 234.2642 177.6551 236.9584 181.1388 236.35 190.7192 225.3995 203.8558 224.878 213.0732 222.966 214.5248 213.2322 213.6538 213.9275 202.1865 217.1431 198.7753 214.4489 195.7996 209.2344 191.953 206.714 194.5658 201.8471 194.4932 199.4136 203.7832 202.7162 206.1057 203.4115 210.9684 200.978 215.2506 196.8933 216.9199 194.1991 227.9517 192.1133 227.2985 189.5929 219.3149 179.3376 213.0006 176.9911 206.3234 174.4707 207.3395 172.2111 203.6381 169.8645 204.0735 171.2551 206.6863 164.9107 208.6459 164.9107 206.1057 168.474 205.9606 165.4321 204.1461 168.5609 200.7349 162.9987 195.0738 156.3936 195.2916 153.178 200.8801 146.3121 202.7671 136.9259 200.372 138.3165 196.6706 135.3616 191.1546 131.1899 189.6305 122.8467 189.7756 114.0688 192.3159 116.4154 196.0174 116.4154 196.0899 115.8939 196.1625 111.2008 197.0335 109.8103 197.2512 109.5496 197.1786 108.8543 197.2512 102.0754 193.9852 101.9885 193.5497 101.0325 193.0417 101.6408 186.0016 106.6816 187.3806 113.4605 182.4453 118.2405 169.9618 117.2845 165.3894 104.4219 154.2124 105.3779 150.8012 98.8597 145.6482 97.9037 143.1805 93.1237 131.2051 94.1666 128.81 98.6859 127.7214 103.2921 124.8908 103.4659 123.8747 102.423 122.2054 94.4274 113.6412 90.6903 111.101 82.347 112.2622 72.5262 118.2862 70.875 117.9233 68.6153 117.2701 65.5735 116.5443 65.4866 116.3992 62.1841 110.23 60.5328 99.1982 60.4459 99.1982 59.9244 99.053 55.7528 92.2307 58.7077 93.029 61.9233 89.1098 64.8782 88.9647 67.8332 80.8359 74.0037 77.8602 75.8288 71.2556 81.8255 71.2556 91.5594 65.9574 95.5572 69.7315 99.2943 68.5702 106.0732 71.1104 108.9412 64.7962 122.9336 63.1994 135.9699 53.982 143.9656 54.853 146.2252 55.1433 149.7885 52.0224 155.7852 52.8208 164.1285 44.6194 169.5169 46.071 170.5598 40.918 170.6467 40.7728 170.6467 40.7002 174.7314 41.8615 177.1649 41.5712 184.2045 39.9744 185.1605 40.8454 187.8547 43.4582 190.2013 42.5147 190.2013 42.5873 192.6347 50.1354 198.8922 47.3048 199.2398 47.5226 202.1078 49.337 203.846 50.4257 204.0198 50.716 210.2773 60.0786 225.9209 59.8608 232.0046 54.0546 239.1311 53.1111 247.822 56.4497 250.3424 63.272 253.558 60.5866 274.9377 63.1269 285.2799 60.2237 286.9312 62.2559 285.4537 66.3203 288.6694 68.2073 290.1468 73.5055 302.5748 83.0858 307.9632 83.0858 310.6574 80.3279 317.6101 83.3036 330.9941 80.5456 326.0403 72.8523 325.6927 65.8848 319.1745 62.9091 316.0457 58.3367 316.9148 56.0142 312.6563 55.9416 312.3956 55.2884 309.6145 48.6838 302.7486 44.1114 302.7486 43.9662 301.8795 41.2083 301.6188 40.4825 305.3559 39.1035 305.0952 36.0552 309.6145 33.2973 315.8719 21.7573 321.3472 24.0073 323.6937 22.4105 328.6476 27.7087 332.3847 26.0394 330.6465 18.8542 332.5585 8.5481 342.4661 7.8223 345.421 1 360.8909 6.153 362.1945 10.7255 368.8865 17.6204 367.3222 22.846 377.5774 25.3862 382.5313 29.0877 378.8811 34.023 385.5731 38.8132 385.3993 40.8454 379.924 46.071 388.2673 51.3692 393.0473 51.2966 397.0451 55.7965 398.088 67.4815 402.0858 74.5942 414.34 79.7472 421.6404 79.6747 423.9869 83.8116 422.5964 88.8195 Z" />
        <path
            d="M 392.0913 169.1635 395.4807 163.2846 380.7062 149.1319 384.2694 146.0836 383.3134 142.8176 386.7029 141.8015 388.4411 135.8501 393.4818 134.1808 390.9614 127.2133 394.0902 125.6166 394.3509 120.6813 389.484 116.1814 396.0891 113.1332 402.9549 114.5847 403.0418 114.6573 405.1276 106.8189 399.3916 102.6093 412.2542 97.3837 417.9033 90.4162 422.3357 89.5453 422.5964 88.8195 423.7262 88.384 426.9418 100.2868 436.9364 97.674 445.4535 98.4724 447.5393 106.456 454.8397 108.1979 452.8408 111.609 455.9695 115.4557 464.9212 118.3588 467.0939 121.1893 481.4339 113.7138 481.8684 109.7946 489.6034 112.5525 497.1645 110.7381 502.0314 104.3512 507.159 108.8511 516.719 112.3348 527.6696 112.1171 531.6674 116.3992 533.2318 124.6005 538.2725 125.7618 543.2263 133.3825 550.179 131.4228 558.0878 136.5759 560.9558 135.9953 566.2572 142.0193 571.1242 141.6564 582.1616 154.5027 578.4245 158.1316 580.2496 163.9378 582.1616 168.3651 581.6402 168.2925 564.6929 166.841 554.09 172.6472 554.8721 177.2196 566.4311 189.4853 565.6489 194.2755 568.6038 198.1221 561.6511 203.3477 557.6532 212.2749 563.3892 225.0486 560.782 227.8066 563.3892 232.4516 567.3871 233.6128 565.6489 240.6529 567.474 242.1045 558.1747 251.6122 557.8271 258.6523 555.8281 262.4263 554.09 265.6923 553.4816 266.9262 550.7005 268.0874 549.5707 268.5229 548.4409 268.9583 543.0525 267.0713 529.6685 273.313 522.9765 269.3938 512.9819 271.0631 517.8488 283.5465 513.1557 286.74 508.8103 294.0704 508.7234 300.6024 504.291 305.0297 508.6365 309.6747 507.5936 313.1584 510.2008 317.1502 515.3285 318.0937 519.5001 322.0855 516.5452 324.6983 515.763 330.432 507.7674 334.2786 494.5572 335.2947 469.1797 331.0126 454.8397 336.6011 440.2389 330.2868 437.3709 340.3752 436.9364 340.7381 426.5073 350.6813 421.988 348.8668 414.8615 352.4232 406.8658 341.8993 403.6502 341.8993 405.9967 348.7217 403.6502 351.9151 393.8294 352.7135 394.3509 346.7621 383.6611 342.0445 381.836 341.2461 380.6193 340.6655 378.968 330.432 372.3629 327.0934 372.4498 326.9483 375.5785 321.142 373.3189 316.2793 373.1451 316.2067 365.7578 314.2471 363.672 309.8924 359.848 308.4408 360.6301 300.8201 360.9778 298.2799 351.3309 290.4415 352.2 287.1029 346.464 284.853 346.377 284.7804 352.7214 276.7968 353.5036 269.2487 360.4563 270.047 368.1043 267.7245 362.1076 266.4907 365.584 260.249 354.2858 248.0559 366.2792 247.0398 369.0603 237.1691 367.2352 233.1048 372.9712 225.9921 379.924 222.9438 381.5753 214.5248 385.3124 212.0571 385.3993 207.1944 389.9185 205.3799 396.7844 206.6863 399.4785 200.2269 399.4785 200.1543 399.8262 200.1543 405.9967 198.7027 407.3873 197.2512 409.1255 193.84 409.9076 188.4692 408.9516 186.2193 398.7833 179.7599 397.0451 170.4699 395.22 170.0344 392.0913 169.1635 Z" />
        <path
            d="M 59.9244 99.053 60.4459 99.1982 60.5328 99.1982 62.1841 110.23 65.4866 116.3992 65.5735 116.5443 68.6153 117.2701 70.875 117.9233 72.5262 118.2862 82.347 112.2622 90.6903 111.101 94.4274 113.6412 102.423 122.2054 103.4659 123.8747 103.2921 124.8908 98.6859 127.7214 94.1666 128.81 93.1237 131.2051 97.9037 143.1805 98.8597 145.6482 105.3779 150.8012 104.4219 154.2124 117.2845 165.3894 118.2405 169.9618 113.4605 182.4453 106.6816 187.3806 101.6408 186.0016 101.0325 193.0417 101.9885 193.5497 102.0754 193.9852 101.9885 193.9126 100.1634 205.017 99.8157 205.6702 94.6012 208.0653 95.2095 211.6942 93.2975 212.0571 95.9048 214.8151 93.4714 215.6134 96.3394 217.2827 91.8201 218.5891 87.4746 216.6295 84.8673 219.5327 84.8673 219.6052 84.9543 219.6778 92.9499 223.8873 96.2525 228.3146 99.1205 227.9517 98.599 225.3389 101.1194 224.468 107.5506 228.6775 108.159 224.8309 117.9797 228.242 123.3681 225.7018 136.839 233.1773 144.5739 232.9596 153.9601 238.2578 150.3969 242.3948 136.3176 247.7655 129.7994 256.6201 131.8852 260.8296 145.0954 268.0874 147.1812 268.2326 148.398 264.5311 153.6125 266.8536 153.5256 269.539 158.4794 270.047 160.7391 266.2004 163.0856 267.6519 162.738 273.1679 167.7787 279.1919 166.6489 282.4579 166.1274 282.8933 154.047 292.1108 152.8303 292.9817 152.9172 293.1269 154.6554 297.5541 159.1747 298.6428 157.6103 303.8684 168.3871 310.0376 168.6478 309.8198 169.8645 310.473 169.7776 311.0536 166.0405 312.6504 163.694 321.6501 155.9591 327.8192 155.4376 331.5933 151.3529 332.0287 152.3089 337.3269 145.5299 343.4235 142.1405 344.367 144.5739 338.4156 142.575 336.2382 138.5772 343.9315 133.2758 343.0606 128.9303 335.3673 121.1954 333.0448 121.8907 329.1982 115.0248 326.0047 115.1117 318.3115 107.2899 311.852 100.1634 295.159 88.9521 282.6756 89.9081 280.2805 90.1688 280.0628 90.3426 279.9176 90.1688 279.9176 89.995 279.9902 85.6495 280.4983 74.7859 274.6194 63.8353 273.2405 35.1553 259.7409 27.9418 249.2171 25.1607 249.2897 24.8131 246.5317 20.4677 243.9915 20.2938 243.556 19.5986 243.4834 12.9935 242.9028 5.3455 242.2496 3.1727 243.4834 1.4345 243.556 1.3476 243.556 1.2607 242.6851 1 241.0158 1 240.8706 4.6502 238.5481 6.0407 237.6046 6.3015 237.4595 17.0782 236.3708 19.2509 232.6693 27.9418 232.6693 34.9815 226.9356 56.8826 219.3875 58.6208 215.686 59.2291 214.2345 57.2302 206.6863 47.1488 207.4121 40.1091 199.356 40.1091 199.2834 40.7175 196.8157 46.6273 198.485 46.5404 193.9852 52.1895 194.4206 48.8 187.0177 51.1466 184.1145 41.0651 179.397 42.9771 173.2278 42.7164 172.7924 40.0222 169.5264 36.1982 166.1152 34.1124 165.3894 31.6789 164.5185 30.7229 164.2281 30.9837 160.0186 31.0706 160.0186 44.2808 145.7933 40.2829 141.0757 43.4986 134.1082 47.0619 133.9631 48.3655 137.8823 54.4491 139.5516 53.4931 130.3342 56.6219 127.7939 56.1873 123.7296 44.6284 124.6005 41.4997 116.6895 43.7593 114.4396 46.7142 111.8268 49.9299 113.2783 56.3611 116.3992 57.0564 116.4718 61.7495 116.5443 56.4481 114.5847 60.4459 107.1818 58.8815 103.5529 54.8837 102.1013 56.8826 98.6901 60.0113 99.1982 59.9244 99.053 Z" />
        <path
            d="M 102.0754 193.9852 108.8543 197.2512 109.5496 197.1786 109.8103 197.2512 111.2008 197.0335 115.8939 196.1625 116.4154 196.0899 116.4154 196.0174 114.0688 192.3159 122.8467 189.7756 131.1899 189.6305 135.3616 191.1546 138.3165 196.6706 136.9259 200.372 146.3121 202.7671 153.178 200.8801 156.3936 195.2916 162.9987 195.0738 168.5609 200.7349 165.4321 204.1461 168.474 205.9606 164.9107 206.1057 164.9107 208.6459 171.2551 206.6863 169.8645 204.0735 172.2111 203.6381 174.4707 207.3395 176.9911 206.3234 179.3376 213.0006 189.5929 219.3149 192.1133 227.2985 194.1991 227.9517 196.8933 216.9199 200.978 215.2506 203.4115 210.9684 202.7162 206.1057 199.4136 203.7832 201.8471 194.4932 206.714 194.5658 209.2344 191.953 214.4489 195.7996 217.1431 198.7753 213.9275 202.1865 213.2322 213.6538 222.966 214.5248 224.878 213.0732 225.3995 203.8558 236.35 190.7192 236.9584 181.1388 234.2642 177.6551 249.9079 177.1471 251.0377 173.0827 259.9893 171.1956 264.4217 166.9861 271.8959 172.3569 276.1544 169.9618 284.8453 170.3973 293.9708 166.1152 295.3614 150.2206 297.3603 148.1158 294.3184 140.858 301.3581 134.326 302.4879 134.2534 304.9214 135.4872 311.1788 133.9631 316.3934 139.4064 329.6036 138.3178 335.3396 149.1319 336.5563 149.5674 337.0778 150.3657 334.905 152.3253 335.4265 159.2203 333.1668 163.3572 328.9952 163.5024 327.0832 167.4942 319.7828 166.7684 311.4396 171.486 308.3977 176.9293 308.137 190.9369 302.8355 196.9609 303.4439 200.9527 297.4472 205.3799 298.2294 218.6617 288.4086 225.7018 294.5792 230.7823 293.1017 236.8063 286.8443 243.4834 291.0159 245.6608 291.0159 253.4992 296.3174 255.8943 295.6221 259.1603 298.8377 261.628 296.4043 266.2004 299.8806 272.2969 310.049 275.4178 310.5705 275.563 306.3119 279.8451 305.7905 279.4822 305.0083 278.9015 305.3559 277.958 301.445 275.8533 301.1843 275.9984 300.9235 275.8533 295.7959 279.4822 293.8839 278.9741 293.1886 281.2966 289.1039 279.6999 284.4977 285.1433 280.0653 283.1111 271.1137 286.6674 263.7264 281.224 256.0784 280.7886 255.4701 287.3206 247.822 287.9738 247.3006 290.9495 241.7384 294.651 240.9562 300.9653 236.4369 302.3443 237.306 306.4812 234.0035 307.5699 234.2642 310.8359 232.1784 311.7794 235.2202 315.6261 232.9606 319.0372 237.4799 319.9808 234.9595 320.4162 234.2642 323.3919 221.4886 318.2389 216.6217 323.029 213.406 318.3115 209.4082 322.7387 208.7129 320.2711 199.066 317.1502 199.9351 310.1101 196.8933 309.6747 193.33 304.5216 192.4609 304.5216 191.418 304.5216 189.1584 304.5216 189.0714 306.1183 185.2474 308.6586 185.0736 308.7311 185.0736 308.8037 175.7743 304.8119 175.6005 304.7394 170.2991 308.0779 170.2122 308.6586 168.6478 309.8198 168.3871 310.0376 157.6103 303.8684 159.1747 298.6428 154.6554 297.5541 152.9172 293.1269 152.8303 292.9817 154.047 292.1108 166.1274 282.8933 166.6489 282.4579 167.7787 279.1919 162.738 273.1679 163.0856 267.6519 160.7391 266.2004 158.4794 270.047 153.5256 269.539 153.6125 266.8536 148.398 264.5311 147.1812 268.2326 145.0954 268.0874 131.8852 260.8296 129.7994 256.6201 136.3176 247.7655 150.3969 242.3948 153.9601 238.2578 144.5739 232.9596 136.839 233.1773 123.3681 225.7018 117.9797 228.242 108.159 224.8309 107.5506 228.6775 101.1194 224.468 98.599 225.3389 99.1205 227.9517 96.2525 228.3146 92.9499 223.8873 84.9543 219.6778 84.8673 219.6052 84.8673 219.5327 87.4746 216.6295 91.8201 218.5891 96.3394 217.2827 93.4714 215.6134 95.9048 214.8151 93.2975 212.0571 95.2095 211.6942 94.6012 208.0653 99.8157 205.6702 100.1634 205.017 101.9885 193.9126 102.0754 193.9852 Z" />
        <path
            d="M 336.5563 149.5674 344.5519 152.1802 350.0272 157.3332 358.1098 158.8574 361.76 163.8653 367.8436 161.9057 374.7963 167.2039 385.1385 166.841 387.7458 169.5264 392.0913 169.1635 395.22 170.0344 397.0451 170.4699 398.7833 179.7599 408.9516 186.2193 409.9076 188.4692 409.1255 193.84 407.3873 197.2512 405.9967 198.7027 399.8262 200.1543 399.4785 200.1543 399.4785 200.2269 396.7844 206.6863 389.9185 205.3799 385.3993 207.1944 385.3124 212.0571 381.5753 214.5248 379.924 222.9438 372.9712 225.9921 367.2352 233.1048 369.0603 237.1691 366.2792 247.0398 354.2858 248.0559 365.584 260.249 362.1076 266.4907 368.1043 267.7245 360.4563 270.047 353.5036 269.2487 352.7214 276.7968 346.377 284.7804 346.464 284.853 346.377 284.9981 337.8599 285.9416 334.0359 292.1833 329.6905 293.7801 324.9105 294.5058 305.7036 294.2881 306.4857 287.4658 309.3537 288.6996 309.4406 282.7482 303.8785 281.4418 303.8785 281.3692 305.7905 279.4822 306.3119 279.8451 310.5705 275.563 310.049 275.4178 299.8806 272.2969 296.4043 266.2004 298.8377 261.628 295.6221 259.1603 296.3174 255.8943 291.0159 253.4992 291.0159 245.6608 286.8443 243.4834 293.1017 236.8063 294.5792 230.7823 288.4086 225.7018 298.2294 218.6617 297.4472 205.3799 303.4439 200.9527 302.8355 196.9609 308.137 190.9369 308.3977 176.9293 311.4396 171.486 319.7828 166.7684 327.0832 167.4942 328.9952 163.5024 333.1668 163.3572 335.4265 159.2203 334.905 152.3253 337.0778 150.3657 336.5563 149.5674 Z" />
        <path
            d="M 555.8281 262.4263 557.8271 258.6523 558.1747 251.6122 567.474 242.1045 565.6489 240.6529 567.3871 233.6128 563.3892 232.4516 560.782 227.8066 563.3892 225.0486 557.6532 212.2749 561.6511 203.3477 568.6038 198.1221 565.6489 194.2755 566.4311 189.4853 554.8721 177.2196 554.09 172.6472 564.6929 166.841 581.6402 168.2925 582.1616 168.3651 580.2496 163.9378 578.4245 158.1316 582.1616 154.5027 585.9856 156.3897 593.6336 154.2849 594.5027 150.656 598.5005 149.8577 604.5842 156.6074 604.2365 160.5992 607.7129 162.9943 612.7536 161.0347 616.0562 164.591 615.9693 170.1796 612.406 172.6472 612.2322 176.7842 604.3235 177.8728 603.1936 182.2275 609.2773 187.9612 607.626 201.3881 612.8406 202.0413 617.2729 205.888 631.2653 205.8154 638.4788 215.9763 642.8242 214.2345 647.4304 216.557 654.8177 215.1054 660.9882 221.3471 673.3293 223.6696 683.0632 232.5967 698.3592 227.2259 699.6628 230.2742 702.1832 229.3307 717.3054 240.4352 721.5639 239.7094 727.5607 243.7737 739.5541 254.2976 743.465 261.2651 757.2836 263.4424 762.0636 266.781 767.5389 265.8375 773.7963 275.2001 788.484 274.184 795.9582 278.9015 794.7415 283.4014 799 287.4658 795.176 290.7318 787.3542 292.8365 782.6611 291.385 772.1451 295.4494 769.364 292.4737 770.1462 286.0868 767.2782 284.4901 756.936 296.6832 760.3254 306.1183 752.5036 309.1666 751.0261 313.0858 746.1592 313.3761 733.8181 324.1903 729.7334 334.6415 723.9974 335.5125 714.0028 345.4557 703.3999 343.9315 697.1425 345.5282 690.3635 354.6005 686.0181 370.2774 675.3283 376.4465 672.1995 382.8334 658.8155 380.5109 652.3842 382.906 650.2115 391.0347 642.9111 395.2442 648.4733 412.1549 654.3831 415.5661 655.4261 420.7917 652.1235 424.5658 652.645 428.485 645.953 436.4686 638.0442 438.5734 637.262 441.1136 640.9991 443.3635 637.3489 448.0811 631.1784 450.5488 630.57 454.468 627.0937 453.3067 624.3995 456.2099 627.7889 461.9435 622.0529 460.4194 621.2707 462.379 614.5787 463.5402 600.934 460.3468 595.8064 456.355 593.1991 457.1534 587.7238 450.6939 583.6391 445.7586 583.2045 445.4683 581.2925 445.4683 576.3387 445.5409 575.9911 445.5409 575.8173 445.2506 574.166 441.9845 558.6092 436.8315 556.1758 424.4206 549.31 414.55 549.1361 411.5017 547.7456 408.8889 546.0074 407.8003 538.0118 404.3165 533.3187 403.6633 533.4925 402.4295 533.5794 401.7763 533.6663 401.0505 528.5387 395.6797 520.2823 393.0669 517.5881 387.7687 518.1096 386.6075 518.3703 385.9542 518.4572 385.8091 528.8863 389.0751 536.795 381.9625 537.9249 384.0672 542.9656 383.9221 543.0525 389.2928 555.9151 389.7283 558.87 388.4945 559.5652 386.68 567.3871 384.5027 566.3442 380.2932 566.2572 380.148 563.1285 379.1319 563.3023 374.995 557.3056 371.2209 553.4816 372.0193 553.7423 369.5516 560.2605 369.8419 561.738 361.4954 571.0372 358.0117 578.4245 361.6406 583.4653 357.1407 592.9384 359.1004 595.198 357.5762 590.5918 349.0846 579.6413 342.7703 574.2529 331.3029 578.2507 321.2872 577.7293 309.965 582.6831 301.5459 585.4642 283.5465 576.5994 281.0063 575.5565 275.2001 572.6885 273.3856 574.3398 270.9905 568.3431 268.668 564.5191 263.515 558.0009 263.0795 555.7412 262.9344 555.8281 262.4263 Z" />
        <path
            d="M 437.3709 340.3752 440.2389 330.2868 454.8397 336.6011 469.1797 331.0126 494.5572 335.2947 507.7674 334.2786 515.763 330.432 516.5452 324.6983 519.5001 322.0855 515.3285 318.0937 510.2008 317.1502 507.5936 313.1584 508.6365 309.6747 504.291 305.0297 508.7234 300.6024 508.8103 294.0704 513.1557 286.74 517.8488 283.5465 512.9819 271.0631 522.9765 269.3938 529.6685 273.313 543.0525 267.0713 548.4409 268.9583 549.5707 268.5229 550.7005 268.0874 553.4816 266.9262 554.09 265.6923 555.8281 262.4263 555.7412 262.9344 558.0009 263.0795 564.5191 263.515 568.3431 268.668 574.3398 270.9905 572.6885 273.3856 575.5565 275.2001 576.5994 281.0063 585.4642 283.5465 582.6831 301.5459 577.7293 309.965 578.2507 321.2872 574.2529 331.3029 579.6413 342.7703 590.5918 349.0846 595.198 357.5762 592.9384 359.1004 583.4653 357.1407 578.4245 361.6406 571.0372 358.0117 561.738 361.4954 560.2605 369.8419 553.7423 369.5516 553.4816 372.0193 557.3056 371.2209 563.3023 374.995 563.1285 379.1319 566.2572 380.148 566.3442 380.2932 567.3871 384.5027 559.5652 386.68 558.87 388.4945 555.9151 389.7283 543.0525 389.2928 542.9656 383.9221 537.9249 384.0672 536.795 381.9625 528.8863 389.0751 518.4572 385.8091 518.3703 385.9542 518.1096 386.6075 517.5881 387.7687 520.2823 393.0669 528.5387 395.6797 533.6663 401.0505 533.5794 401.7763 531.7543 401.6311 530.3638 401.0505 513.851 400.9053 503.2481 404.3891 488.995 389.5106 490.6463 382.2528 487.2568 379.2045 491.6023 375.6482 482.9983 371.6564 476.2193 372.237 474.9157 370.2048 469.2666 372.1644 461.0971 366.9388 457.6208 367.9549 445.6273 364.6889 442.4986 359.4632 440.9342 346.254 440.5866 343.4961 440.4128 341.8268 440.3259 341.3913 438.7615 341.101 437.3709 340.3752 Z" />
        <path
            d="M 89.9081 280.2805 88.9521 282.6756 100.1634 295.159 107.2899 311.852 115.1117 318.3115 115.0248 326.0047 121.8907 329.1982 121.1954 333.0448 128.9303 335.3673 133.2758 343.0606 138.5772 343.9315 142.575 336.2382 144.5739 338.4156 142.1405 344.367 145.5299 343.4235 156.5674 351.77 162.3034 353.4393 160.3914 357.6488 171.6027 367.3017 175.3398 381.8173 176.2089 382.1802 176.2958 382.3979 158.8271 395.7523 145.9645 396.0426 144.1394 406.2761 138.5772 406.4939 129.1041 415.4935 117.8059 419.4853 119.0227 421.8078 112.3306 420.5014 110.3317 424.2029 103.2921 427.977 103.8135 431.8236 97.9906 428.5576 91.5594 432.1139 83.7375 427.4689 87.2139 423.6949 93.9928 424.4932 95.2964 417.5257 95.3834 417.308 91.3855 416.0742 92.1677 412.3001 85.3019 405.4778 87.5615 403.5181 88.3437 402.8649 87.3008 402.6472 82.347 401.4134 79.0444 405.5503 72.1786 404.0262 70.3535 407.5099 67.5724 407.0019 61.0542 411.2114 57.9255 410.6308 57.8386 410.6308 52.8848 407.7277 55.579 404.0262 46.8011 400.7602 49.1477 396.2603 46.1059 394.1556 48.6262 389.6557 47.3226 383.6317 42.0211 379.1319 43.7593 377.3175 39.4139 373.616 39.7615 369.6968 34.5469 367.3743 33.8517 366.213 33.6778 363.455 33.8517 362.0761 41.152 356.0521 37.1542 351.3345 41.2389 346.7621 37.8495 345.746 44.3677 333.4803 48.9739 331.3755 46.5404 324.6258 53.4062 313.6665 59.5768 315.9164 61.5757 311.852 67.051 309.6021 78.8706 293.7075 80.435 287.1029 89.9081 280.2805 Z" />
        <path
            d="M 346.464 284.853 352.2 287.1029 351.3309 290.4415 360.9778 298.2799 360.6301 300.8201 359.848 308.4408 363.672 309.8924 365.7578 314.2471 373.1451 316.2067 373.3189 316.2793 375.5785 321.142 372.4498 326.9483 372.3629 327.0934 378.968 330.432 380.6193 340.6655 381.836 341.2461 381.7491 343.2783 382.2705 344.1493 381.5753 346.3992 381.1407 347.8507 381.0538 348.2136 373.1451 348.4314 369.5818 356.8504 365.4102 355.036 351.6785 360.1164 348.376 361.3503 344.8127 366.3582 344.5519 366.9388 344.3781 367.2291 352.7214 373.0353 354.2858 374.124 355.6763 377.9707 357.5014 383.2689 358.1098 385.1559 358.0229 385.3736 357.2407 386.68 356.5454 387.9139 356.024 387.8413 354.025 387.3332 353.8512 395.6797 356.6323 400.2521 356.8061 400.3973 356.7192 400.4699 352.9821 404.8246 355.6763 408.526 353.5905 412.8081 353.156 413.6791 352.8952 413.0985 351.5047 410.6308 351.157 410.9211 350.5487 411.5017 348.0283 415.7838 347.42 417.6709 350.6356 421.2272 347.5069 423.9126 344.3781 422.8239 342.9007 430.2995 330.9941 430.8075 328.5607 436.2509 330.3858 438.0653 322.0425 442.2023 317.9577 460.0565 311.961 464.7741 310.7443 465.645 282.9333 458.6775 270.3315 450.4036 262.5097 450.4762 261.0322 449.3149 260.0762 449.2424 243.2159 437.9202 240.8693 437.0492 238.3489 434.6542 222.01 419.1224 221.5755 418.687 218.9682 414.2597 217.0562 399.3086 216.6217 398.8732 184.6391 385.6639 176.2089 382.1802 175.3398 381.8173 171.6027 367.3017 160.3914 357.6488 162.3034 353.4393 156.5674 351.77 145.5299 343.4235 152.3089 337.3269 151.3529 332.0287 155.4376 331.5933 155.9591 327.8192 163.694 321.6501 166.0405 312.6504 169.7776 311.0536 169.8645 310.473 168.6478 309.8198 170.2122 308.6586 170.2991 308.0779 175.6005 304.7394 175.7743 304.8119 185.0736 308.8037 185.0736 308.7311 185.2474 308.6586 189.0714 306.1183 189.1584 304.5216 191.418 304.5216 192.4609 304.5216 193.33 304.5216 196.8933 309.6747 199.9351 310.1101 199.066 317.1502 208.7129 320.2711 209.4082 322.7387 213.406 318.3115 216.6217 323.029 221.4886 318.2389 234.2642 323.3919 234.9595 320.4162 237.4799 319.9808 232.9606 319.0372 235.2202 315.6261 232.1784 311.7794 234.2642 310.8359 234.0035 307.5699 237.306 306.4812 236.4369 302.3443 240.9562 300.9653 241.7384 294.651 247.3006 290.9495 247.822 287.9738 255.4701 287.3206 256.0784 280.7886 263.7264 281.224 271.1137 286.6674 280.0653 283.1111 284.4977 285.1433 289.1039 279.6999 293.1886 281.2966 293.8839 278.9741 295.7959 279.4822 300.9235 275.8533 301.1843 275.9984 301.445 275.8533 305.3559 277.958 305.0083 278.9015 305.7905 279.4822 303.8785 281.3692 303.8785 281.4418 309.4406 282.7482 309.3537 288.6996 306.4857 287.4658 305.7036 294.2881 324.9105 294.5058 329.6905 293.7801 334.0359 292.1833 337.8599 285.9416 346.377 284.9981 346.464 284.853 Z" />
        <path
            d="M 381.836 341.2461 383.6611 342.0445 394.3509 346.7621 393.8294 352.7135 403.6502 351.9151 405.9967 348.7217 403.6502 341.8993 406.8658 341.8993 414.8615 352.4232 421.988 348.8668 426.5073 350.6813 436.9364 340.7381 437.3709 340.3752 438.7615 341.101 440.3259 341.3913 440.4128 341.8268 440.5866 343.4961 440.9342 346.254 442.4986 359.4632 445.6273 364.6889 457.6208 367.9549 461.0971 366.9388 469.2666 372.1644 474.9157 370.2048 476.2193 372.237 482.9983 371.6564 491.6023 375.6482 487.2568 379.2045 490.6463 382.2528 488.995 389.5106 503.2481 404.3891 513.851 400.9053 530.3638 401.0505 531.7543 401.6311 533.5794 401.7763 533.4925 402.4295 533.3187 403.6633 538.0118 404.3165 546.0074 407.8003 547.7456 408.8889 549.1361 411.5017 549.31 414.55 556.1758 424.4206 558.6092 436.8315 574.166 441.9845 575.8173 445.2506 575.9911 445.5409 576.3387 445.5409 576.6863 445.7586 572.8623 447.2102 564.5191 450.4762 548.8754 456.5002 549.8314 451.8552 548.0063 450.6939 546.355 455.847 542.0096 456.8631 538.0118 452.8713 532.7972 454.3228 526.9743 462.3064 524.4539 461.5081 523.9325 466.1531 520.1085 467.4595 519.5001 467.6772 507.7674 461.7258 504.4648 465.8627 498.0335 466.2982 495.9477 462.8145 497.599 459.4033 492.1237 459.8388 487.4306 456.5727 485.171 444.307 477.8706 439.5895 474.2204 440.8233 471.7001 437.7024 460.4019 441.4765 455.4481 441.2588 455.2742 438.7911 450.1466 439.2992 447.7131 447.7908 444.1499 451.2745 439.7175 451.3471 416.3389 430.2995 409.3862 428.9205 409.0386 426.0174 406.1706 424.8561 406.0836 424.9287 394.9593 429.864 394.7854 432.5494 379.3156 445.2506 363.7589 441.6217 362.716 441.4039 361.3254 438.4282 353.9381 440.3878 354.1989 437.1218 346.6378 431.6785 337.4254 431.0978 342.9007 430.2995 344.3781 422.8239 347.5069 423.9126 350.6356 421.2272 347.42 417.6709 348.0283 415.7838 350.5487 411.5017 351.157 410.9211 351.5047 410.6308 352.8952 413.0985 353.156 413.6791 353.5905 412.8081 355.6763 408.526 352.9821 404.8246 356.7192 400.4699 356.8061 400.3973 356.6323 400.2521 353.8512 395.6797 354.025 387.3332 356.024 387.8413 356.5454 387.9139 357.2407 386.68 358.0229 385.3736 358.1098 385.1559 357.5014 383.2689 355.6763 377.9707 354.2858 374.124 352.7214 373.0353 344.3781 367.2291 344.5519 366.9388 344.8127 366.3582 348.376 361.3503 351.6785 360.1164 365.4102 355.036 369.5818 356.8504 373.1451 348.4314 381.0538 348.2136 381.1407 347.8507 381.5753 346.3992 382.2705 344.1493 381.7491 343.2783 381.836 341.2461 Z" />
        <path
            d="M 311.961 464.7741 317.9577 460.0565 322.0425 442.2023 330.3858 438.0653 328.5607 436.2509 330.9941 430.8075 342.9007 430.2995 337.4254 431.0978 346.6378 431.6785 354.1989 437.1218 353.9381 440.3878 361.3254 438.4282 362.716 441.4039 363.7589 441.6217 379.3156 445.2506 394.7854 432.5494 394.9593 429.864 406.0836 424.9287 406.1706 424.8561 409.0386 426.0174 409.3862 428.9205 416.3389 430.2995 439.7175 451.3471 444.1499 451.2745 447.7131 447.7908 450.1466 439.2992 455.2742 438.7911 455.4481 441.2588 460.4019 441.4765 471.7001 437.7024 474.2204 440.8233 477.8706 439.5895 485.171 444.307 487.4306 456.5727 492.1237 459.8388 497.599 459.4033 495.9477 462.8145 498.0335 466.2982 504.4648 465.8627 507.7674 461.7258 519.5001 467.6772 520.1085 467.4595 523.9325 466.1531 525.7576 466.0079 520.4561 474.0641 526.4528 478.201 526.1052 480.4509 533.927 480.5235 535.7521 485.4588 529.147 486.1846 526.1052 494.023 520.1085 491.1925 520.1954 487.7813 511.3306 488.1442 516.9797 494.6762 515.5892 498.2326 517.1536 503.0953 525.6707 501.8615 528.5387 505.6355 537.3165 508.0306 541.9227 516.2319 535.9259 523.6349 531.3198 525.5945 530.7114 529.1508 538.1856 535.9006 545.2252 534.9571 552.9601 537.7876 552.8732 537.8602 552.6125 538.3683 548.1801 546.6422 550.7005 551.5049 552.178 552.6661 552.4387 552.8839 538.6201 557.8192 534.883 566.964 531.059 566.964 530.2768 570.4478 526.0183 562.4642 515.5023 568.9236 515.6761 567.1818 511.2437 565.8754 514.2856 561.7384 512.895 559.7062 506.7245 559.6336 504.5517 556.9483 500.467 559.5611 492.2106 558.3272 485.8663 550.9969 478.7397 547.6583 473.1775 553.9726 424.5084 553.6097 429.0277 546.2793 417.1211 532.3443 392.6127 510.4257 359.848 502.2244 353.7643 506.7968 346.377 501.5712 338.5552 507.0145 331.7763 498.8858 335.6872 495.2569 333.2538 490.6844 318.9137 492.4263 312.2217 487.0555 311.961 487.0555 301.7057 485.4588 298.7508 485.0234 294.4923 485.604 294.9268 482.6283 299.4461 482.1928 300.8366 479.2897 306.4857 476.9672 311.8741 467.6046 315.8719 465.5724 311.961 464.7741 Z" />
        <path
            d="M 576.3387 445.5409 581.2925 445.4683 583.2045 445.4683 583.6391 445.7586 587.7238 450.6939 593.1991 457.1534 595.8064 456.355 600.934 460.3468 614.5787 463.5402 614.5787 471.0158 621.966 475.5156 621.1838 482.0477 631.9606 496.0552 628.9188 499.4664 625.6162 511.8773 625.8769 520.2237 618.2289 517.9012 617.186 514.7078 614.8395 516.5948 614.2311 519.2802 618.142 522.3285 621.0969 533.2152 612.4929 538.0779 601.1078 534.0862 596.8493 536.5538 591.9824 541.9246 588.506 551.2146 590.5049 551.6501 587.4631 562.8271 589.9834 563.7706 585.8987 569.722 581.9009 568.4882 575.6434 579.5926 575.7303 579.0846 576.5125 577.7056 575.7303 577.0524 572.8623 574.8025 572.4278 574.4396 572.3409 574.2218 570.6896 568.5608 572.1671 564.4238 562.2594 544.1745 562.1725 544.1019 560.4343 548.4566 552.178 552.6661 550.7005 551.5049 548.1801 546.6422 552.6125 538.3683 552.8732 537.8602 552.9601 537.7876 545.2252 534.9571 538.1856 535.9006 530.7114 529.1508 531.3198 525.5945 535.9259 523.6349 541.9227 516.2319 537.3165 508.0306 528.5387 505.6355 525.6707 501.8615 517.1536 503.0953 515.5892 498.2326 516.9797 494.6762 511.3306 488.1442 520.1954 487.7813 520.1085 491.1925 526.1052 494.023 529.147 486.1846 535.7521 485.4588 533.927 480.5235 526.1052 480.4509 526.4528 478.201 520.4561 474.0641 525.7576 466.0079 523.9325 466.1531 524.4539 461.5081 526.9743 462.3064 532.7972 454.3228 538.0118 452.8713 542.0096 456.8631 546.355 455.847 548.0063 450.6939 549.8314 451.8552 548.8754 456.5002 564.5191 450.4762 572.8623 447.2102 576.6863 445.7586 576.3387 445.5409 Z" />
        <path
            d="M 294.4923 485.604 298.7508 485.0234 301.7057 485.4588 311.961 487.0555 312.2217 487.0555 318.9137 492.4263 333.2538 490.6844 335.6872 495.2569 331.7763 498.8858 338.5552 507.0145 346.377 501.5712 353.7643 506.7968 359.848 502.2244 392.6127 510.4257 417.1211 532.3443 429.0277 546.2793 424.5084 553.6097 473.1775 553.9726 478.7397 547.6583 485.8663 550.9969 492.2106 558.3272 500.467 559.5611 504.5517 556.9483 506.7245 559.6336 512.895 559.7062 514.2856 561.7384 511.2437 565.8754 515.6761 567.1818 515.5023 568.9236 526.0183 562.4642 530.2768 570.4478 531.059 566.964 534.883 566.964 538.6201 557.8192 552.4387 552.8839 552.178 552.6661 560.4343 548.4566 562.1725 544.1019 562.2594 544.1745 572.1671 564.4238 570.6896 568.5608 572.3409 574.2218 572.4278 574.4396 572.8623 574.8025 575.7303 577.0524 576.5125 577.7056 575.7303 579.0846 572.3409 584.8182 573.7314 603.0353 570.6896 606.7368 574.4267 610.8012 572.9492 615.301 565.6489 623.2121 548.267 629.1635 544.7038 622.8492 545.7467 620.6718 541.3143 617.6235 544.9645 614.285 536.0998 615.5914 529.5816 612.035 528.7994 609.4948 530.7983 608.0432 539.3154 610.4383 539.1416 607.1723 534.4485 606.7368 533.0579 603.0353 530.7983 604.4869 527.3219 602.1644 523.411 606.0836 524.1063 611.527 514.807 611.4544 516.5452 607.5352 518.3703 609.7851 521.3252 603.9789 518.2834 602.4547 521.2383 602.237 519.8477 598.7532 522.1074 600.4951 524.1932 597.8097 523.0634 594.1808 520.3692 595.1969 517.3274 591.4229 517.0667 591.3503 515.8499 591.3503 512.7212 591.3503 512.2866 591.7857 508.9841 595.0518 501.0754 594.9066 500.2932 597.6646 495.8608 597.4468 491.3415 602.0193 485.8663 598.8984 486.0401 598.6807 479.6957 595.4146 463.2699 600.7854 460.7495 598.8984 463.183 593.2373 456.8386 588.5923 448.843 596.5759 436.1542 595.3421 432.7648 594.9792 431.8957 595.705 426.768 596.1404 426.768 595.9953 427.9848 591.4954 427.0288 590.3342 425.8989 589.1004 427.2026 585.544 422.6833 576.5443 417.4687 576.5443 414.5138 568.343 412.1673 569.722 412.7756 572.7703 400.6084 570.7381 399.5655 573.2057 388.528 567.1818 386.616 563.1174 377.5774 559.1256 368.2782 562.7545 366.2792 558.7627 369.1472 554.8435 361.6731 550.0533 364.1934 539.0215 356.5454 535.4651 354.6334 536.0458 337.3385 526.6106 335.6003 527.7719 337.9469 529.0783 337.5992 531.9814 337.5123 532.1991 333.2538 530.1669 332.993 531.4733 332.8192 534.8119 338.2076 536.1183 338.2945 536.1183 338.1207 536.2635 336.0349 538.586 335.0788 539.6021 330.8203 539.7472 326.0403 534.0136 324.4759 532.9975 324.1283 533.2152 323.1723 535.3926 323.0854 535.32 318.9137 537.9328 313.9599 535.6829 312.1348 538.3683 307.5286 536.7715 307.4417 536.7715 310.3097 534.3039 306.3119 526.4655 307.9632 524.4333 300.2283 518.3367 302.1403 516.8851 300.0545 512.5305 296.4043 511.9498 296.4043 509.9176 294.3184 511.9498 291.7112 509.6999 287.5395 512.1676 287.3657 512.095 287.2788 512.0224 284.7584 511.0789 283.8024 510.1354 273.8079 504.7646 276.4152 504.6194 274.9377 501.2809 265.7253 495.7649 267.8981 495.8375 267.7242 491.4828 271.5482 492.4989 275.2853 487.9265 277.8057 490.6119 281.4559 490.0312 282.0643 493.8053 284.0632 492.0634 282.9333 488.5797 288.9301 481.9025 289.2777 483.8621 289.2777 484.0073 289.2777 484.0798 289.5384 484.1524 293.3624 485.7491 294.4054 486.1846 294.4923 485.604 Z" />
    </g>
</svg>