<?xml version="1.0"?>
<svg xmlns="http://www.w3.org/2000/svg" version="1.2" baseProfile="tiny" width="800" height="828"
    viewBox="0 0 800 828" stroke-linecap="round" stroke-linejoin="round">
    <g id="Andaman and Nicobar Islands">
        <path
            d="M 672.7917 679.4525 672.7917 679.5274 672.2083 681.9997 673.5 682.9736 671.4583 684.9964 673.75 687.3938 672.75 692.4132 670.2083 693.7243 672.6667 694.923 670.3333 697.7698 667.2083 691.9263 666.7917 686.6821 668.5833 688.4052 669.1667 681.5128 670.2083 678.4411 672.7917 679.4525 Z M 675.7917 677.8793 675.5 679.9395 673.1667 679.3027 672.375 677.5796 674.2917 675.7441 674.875 676.0812 675.9583 676.0438 675.7917 677.8793 Z M 676 675.2571 674.8333 676.0438 674.25 675.6692 673.4167 675.7441 671.7917 676.1187 671.25 675.3321 671.625 669.451 672.5 664.5814 672.0833 661.5098 673.8333 660.7981 673.6667 656.4903 674.5833 653.9806 675.125 646.3765 675.9167 644.1664 677.625 643.4547 679.125 641.3945 680.625 642.6306 680.2917 647.6501 681.2083 649.5979 680.2917 652.1826 680.375 654.8047 678.3333 656.6027 677.0417 655.5539 675.5833 659.7118 677.375 660.1987 678.5833 664.1319 678.25 667.2784 678.75 669.4885 676 675.2571 Z M 666.375 714.3266 668.1667 717.3233 668.4583 720.2076 666.6667 724.5903 664 723.7662 662.6667 720.5073 662.5 717.4731 666.375 714.3266 Z M 669.625 697.62 671 701.3284 668.5 702.0776 668.1667 700.6167 669.625 697.62 Z M 702.25 813.9668 703.125 814.9407 704.375 821.9081 703.375 826.1409 701.25 826.8901 699 820.7469 697.625 819.8853 697.0417 817.0759 697.8333 815.3153 702.25 813.9668 Z M 698.5417 808.3855 699.7083 810.2584 698.875 812.019 696.7917 813.8544 696.0417 812.019 698.5417 808.3855 Z M 673.7917 759.5393 674.7083 762.1989 672.0417 762.5734 671.8333 760.0637 673.7917 759.5393 Z" />
    </g>
</svg>