<?xml version="1.0"?>
<svg xmlns="http://www.w3.org/2000/svg" version="1.2" baseProfile="tiny" width="800" height="828"
    viewBox="0 0 800 828" stroke-linecap="round" stroke-linejoin="round">
    <g id="Andhra Pradesh">
        <path
            d="M 332.5417 641.6567 331.0833 643.6794 327.375 643.7169 326.25 642.3684 323.75 647.1256 320.0417 648.3992 319.625 650.4969 317.125 650.9839 316.5833 648.9611 312.5417 649.523 312.625 647.7999 309.0417 647.9123 309.9167 651.9204 305.7083 653.6809 304.2083 652.7444 304.375 654.1679 302.4167 656.4903 297.8333 654.6923 295.0417 654.4301 291.2083 655.5539 287.6667 657.277 287.1667 661.285 286.875 662.9707 281.9583 667.2035 278.9583 666.1547 277.0417 663.57 277.625 660.8355 279.25 660.873 280.4167 658.6629 283.4583 657.7265 284.75 655.3666 286.7083 649.523 282.8333 648.624 280.6667 647.1631 280.9167 643.155 281.6667 641.0199 279.625 640.8326 276.0833 641.5443 276.2917 639.8961 274.0417 637.5362 274.1667 635.5883 273.875 633.5281 270.75 633.2659 269.9167 630.906 265.6667 632.1047 264.7917 634.7268 260.4167 636.1128 255.9167 638.4352 256.2917 636.375 255.2917 634.0525 252.375 634.3148 248.4167 633.3408 247.7917 635.0639 245.25 636.787 242.875 634.502 244.625 631.6177 241.625 628.9582 242.0833 627.1976 240.625 625.2123 243.5833 624.3882 244.25 628.0966 248.2083 629.4451 252.25 628.9582 254.3333 632.3294 255.3333 631.2057 254.125 629.3327 254.2083 625.025 257.2083 625.512 256.5417 621.841 254.625 620.6049 253.4167 622.2905 247.25 620.6049 246.6667 623.639 243.625 623.3768 240.3333 620.3052 240.7917 616.4469 238.2083 615.3232 237.0833 613.3753 237.375 611.2402 239.0417 608.2435 239.875 603.3738 236.9583 602.8494 238.0417 599.9276 243.0833 602.1377 246.5833 601.6133 247.75 598.729 246.9167 596.3691 247.625 594.571 245.2083 593.5971 244.375 590.6753 244.3333 585.2438 245.75 584.5696 244.2083 579.7374 245.4583 577.7521 250.25 576.2537 257.5 577.2651 261.4583 578.4263 265.375 578.726 267.6667 577.8644 273 579.625 275.5 579.1755 277.5 576.0664 277.7083 575.055 281.9167 573.257 285.75 574.1186 287.125 572.9948 290.9167 575.055 295.875 571.946 295.375 570.2978 298.7917 568.7245 302.2917 569.5861 303.8333 569.1366 303.7083 565.578 303.9583 561.3451 305 559.8843 309.375 559.4722 310.1667 558.4234 312.75 558.0488 316.5 556.4006 319.5833 555.539 321.875 556.2882 323.8333 557.9739 326.75 555.0146 327.2083 553.0293 326.2917 550.2948 326.75 548.8339 330.3333 547.4854 333.5833 548.759 334 551.3437 340.75 554.3778 340.5833 552.6173 341.625 550.2574 339.7917 549.0961 335.125 548.6841 339 546.1744 341.0417 543.8894 344.2917 545.7623 348.25 546.961 349.125 546.1369 349.2083 543.6646 350.875 542.0914 352.3333 542.8405 357.2083 541.7542 357.6667 539.207 359.9583 539.3943 360.9167 536.8846 353.0417 533.8879 350.0417 530.6664 349.375 528.0069 351.75 526.8082 354.0833 528.0818 354.7917 526.3212 357 524.673 359.7083 525.9466 363.2917 525.7594 369.2917 525.6095 372 524.1861 374.5417 521.976 379.1667 520.4402 380.5833 518.9044 384.2917 519.3539 386.5417 521.0021 388.4167 519.5787 389.2917 516.095 388.2917 515.7579 390.1667 510.7759 389.5833 509.315 391.375 507.5544 392.9583 506.3932 396.25 510.8133 395.7083 513.2481 400.7917 511.4876 401.7083 508.4909 404.0833 510.4013 406.125 510.9632 409.0833 509.8019 407.5 508.341 408.1667 505.9437 406.9583 504.2206 410.6667 499.3884 412.5417 500.2874 418.2083 496.991 415.625 494.2566 416.4583 493.0579 419.5 494.7435 420.0833 492.6084 423.5417 490.9227 425.0417 490.8478 427.5833 495.9797 427.3333 493.7321 428.5833 493.0579 431.25 498.5643 435.2083 498.5269 436.6667 500.1376 440.3333 499.0138 442.9167 499.3135 446.0833 495.6051 445.75 494.9308 448.25 492.1963 450.3333 492.908 451.2083 491.2224 453.3333 490.3234 455.0417 491.5221 450.6667 496.5415 449.25 499.276 447.6667 500.6245 443.875 505.6815 438.25 510.626 437.7083 512.2742 432.4583 515.1211 425.0417 518.6422 421.125 522.1633 418.4167 524.7105 416.4167 528.2691 411.375 532.8016 407.5417 534.225 406.75 535.1615 398.875 538.6826 394.5 541.2673 388.4167 546.474 386.5 549.8079 386.5 551.4186 389.5833 551.9805 388.375 557.2621 388.2917 560.0715 386.0833 560.5211 378.5417 564.4917 375.625 565.1285 371.9583 566.8141 367.5417 565.8402 363.1667 565.9526 359.7083 567.7131 358.2917 569.6235 356.5 575.9915 352.875 579.3628 352.7083 581.9849 350.7917 583.0338 347.875 583.296 346.3333 578.9133 343.75 578.4263 339.8333 579.3253 336.625 580.7862 333.8333 582.8465 332.0833 585.2813 330.8333 589.6265 328.5833 592.5108 326.3333 602.2875 328.2083 609.6669 330.5833 613.8248 329.8333 620.2303 328.7917 623.5641 329.2083 628.6585 332.1667 635.7007 331.5833 639.1469 332.5417 641.6567 Z M 384.7917 555.2019 385.1667 555.6514 386.25 555.7638 387 556.3631 387.0833 555.614 384.7917 555.2019 Z" />
    </g>
</svg>