<?xml version="1.0"?>
<svg xmlns="http://www.w3.org/2000/svg" version="1.2" baseProfile="tiny" width="800" height="828"
    viewBox="0 0 800 828" stroke-linecap="round" stroke-linejoin="round">
    <g id="Arunachal Pradesh">
        <path
            d="M 712.5 259.0532 713.9583 261.4131 712.6667 261.8251 706.4583 266.6199 701.4167 271.5269 702.0417 273.737 698.4583 275.7223 697.5833 276.434 692.2917 277.2956 690.2917 276.7337 681.125 277.7076 680.0417 277.9324 676.375 275.5725 670.5417 274.7109 670.0833 275.3477 667.5417 276.7337 664.375 276.6963 662 277.5953 657.5 278.5692 655.2917 278.4943 655.0417 275.3852 653.125 273.8119 652.875 271.1524 654.125 268.0433 653.7083 264.672 652.5833 262.2372 650.5833 263.0238 642.7917 262.4245 640.3333 259.6525 640.2083 258.304 642 256.3562 642.125 253.7341 647.4583 253.5093 648.9583 255.9067 651.8333 254.5956 653.75 254.8953 656.5 252.7601 659.2083 252.0859 660.625 254.3334 664.9583 253.3595 667.5 253.2096 670.4583 251.0745 672.2083 248.9768 670.25 246.5045 670.9583 244.8938 674.0417 242.8336 676.625 242.7586 680.125 240.0616 685.5417 239.0128 684.4167 236.5405 687.0417 234.5926 688.7083 230.8842 692.875 229.6855 696.4167 230.4347 702.5 229.0487 705.6667 228.8989 706.625 225.4153 711 222.3062 711.7917 220.0212 714.625 217.062 716.5 216.9121 718.5 214.8893 721.9583 214.8519 722.5 213.4285 725.2083 212.1549 728.2917 214.9268 730.5 216.088 740.8333 218.1108 741.2917 219.7215 746.3333 220.1336 748.625 215.3014 749.9583 215.189 753.125 212.9415 758 210.4692 760.0417 210.694 763.625 208.5588 766 211.2184 767.8333 214.7395 771.9167 214.1776 770.625 216.5001 767.125 217.3991 765.2917 219.7215 767.9583 222.7182 770.625 220.2834 773.0833 220.1336 775.3333 221.969 775.8333 224.3289 777.75 226.6888 777.125 228.7865 774.0417 229.6855 774.625 231.0715 770.0833 234.4053 771.3333 235.192 769.75 237.889 775.0417 237.0649 776.9583 235.8662 779.25 235.7913 782.4583 238.4134 785.625 237.9639 788.2917 239.8743 790.875 238.4509 793.0833 240.3613 794.4583 240.3613 798.5417 242.3841 797.375 244.1072 797.375 246.7667 799 248.2276 798.6667 250.8123 795.3333 251.037 792.7083 253.3969 789.2917 255.1575 785.7917 258.8659 784.6667 258.3789 786.6667 261.7128 785.7917 263.2486 787.4167 264.6345 790.9167 269.7664 792.9167 271.7142 790.1667 273.0628 788 271.3771 784.625 270.4032 785.2917 268.4928 782.9167 266.1329 777.7083 265.6085 775.0417 267.4439 769.5417 267.5563 763.625 269.5042 761.7917 270.6654 759.7083 274.1865 755.7917 275.1604 754.25 278.4194 752.5833 278.1946 750.5 280.6669 747.4583 280.5545 745.5833 283.8134 742.2083 285.087 740.3333 284.2255 739.4583 279.7679 740.2083 277.6702 739.2917 274.636 741 274.7484 744 272.5758 744.2083 272.9504 746.1667 271.9765 747.125 268.9798 748.5 268.3804 751.2083 269.2794 754.1667 268.3055 757.2917 268.1931 760.0833 267.1068 761.625 265.5336 759.5833 263.6606 758 263.6981 757.75 260.7388 755.2083 258.6411 755.0417 255.607 760.375 249.4263 756.25 249.0892 750.4583 249.5387 748.0833 251.4865 747.9583 251.5989 744.2917 252.7227 742.375 251.936 737.6667 253.3595 729.9167 255.7568 719.2917 260.4392 716.625 259.9147 713.1667 258.3415 712.5 259.0532 Z" />
    </g>
</svg>