<?xml version="1.0"?>
<svg xmlns="http://www.w3.org/2000/svg" version="1.2" baseProfile="tiny" width="800" height="828"
    viewBox="0 0 800 828" stroke-linecap="round" stroke-linejoin="round">
    <g id="Assam">
        <path
            d="M 744 272.5758 741 274.7484 739.2917 274.636 736.7083 276.6213 733.4583 277.9324 731.875 276.9585 730.2917 278.0448 728.25 281.1164 726.75 282.39 722.6667 283.0642 717.6667 286.1733 717.625 288.271 715.25 290.2563 714.4583 287.5218 711.7083 290.4061 711.1667 293.253 709.5417 294.1146 706.7083 298.1226 705.4583 303.6665 706.125 305.09 703.4583 307.0753 700.625 306.9254 700.5833 303.6665 698 305.4271 698.5833 306.8505 694.25 310.1469 693.4167 311.6827 691.0833 312.8439 688.4167 315.2787 691.875 318.238 692.25 321.7216 689.8333 323.5197 688.8333 326.7037 686.1667 330.8241 686.2083 332.3974 684.2083 335.5814 682.4167 335.2068 681.7917 337.9787 681.8333 341.7246 680.7917 342.4738 679.7083 346.0698 676.625 346.6692 674 345.8825 672.9583 343.3353 671 347.6805 669.25 348.2799 668.875 350.3401 667.2083 350.5649 666.7083 352.4753 664.0833 353.1121 663.7083 350.49 660.25 350.6398 658.1667 349.516 659.2917 347.5307 658.0417 343.4477 659.125 338.8403 660.25 337.2296 658.5833 332.8094 660.3333 332.3599 662.7083 334.1205 666.25 333.3339 663.7917 329.2509 665.2917 327.1157 666.9167 327.3779 669.125 326.9284 670.2917 325.2428 672.4583 324.4187 673.7917 322.3584 670 318.238 667.7083 317.3764 670.2083 314.4921 668.125 315.054 665.9583 313.256 664.2917 310.4466 658.3333 310.5589 656.3333 311.7576 656.3333 307.8245 657.7083 305.3522 656.6667 303.6291 659.6667 301.0444 656.9167 300.7448 655.8333 301.6063 648.5833 301.6812 647.4583 299.5835 644.6667 301.8685 644.625 303.7415 640.75 301.906 637.0833 307.1877 634.0833 307.1502 631 310.3717 628.9583 306.888 625.1667 307.5997 625.6667 305.9141 623.5417 304.2284 617.25 304.0411 614.9167 305.0151 609.5417 303.0672 602.7917 304.3408 601.0417 303.9288 599.3333 305.1649 594.9583 310.2593 598.25 313.5182 594.375 315.0915 594.2083 317.0768 593.6667 317.3764 594.5 313.256 593 310.1094 593.4167 306.0264 594.625 304.3033 590.3333 298.1601 589.5417 296.8865 591.75 293.2156 593.4167 292.3915 593.2083 291.5299 594.1667 286.0984 593.6667 283.8134 593.875 282.802 599.0417 282.9144 603 281.7532 604 279.4307 606.875 279.3184 609.0833 278.1571 612.5833 280.5545 617.25 281.8656 623.625 281.6408 626.4167 281.5284 627.625 280.4047 631.4167 280.7043 634.125 281.5659 636.0833 279.9177 638.4583 281.2662 642 280.4421 644.125 280.6669 649.2917 277.7826 651.75 279.4307 653.75 279.7679 655.2917 278.4943 657.5 278.5692 662 277.5953 664.375 276.6963 667.5417 276.7337 670.0833 275.3477 670.5417 274.7109 676.375 275.5725 680.0417 277.9324 681.125 277.7076 690.2917 276.7337 692.2917 277.2956 697.5833 276.434 698.4583 275.7223 702.0417 273.737 701.4167 271.5269 706.4583 266.6199 712.6667 261.8251 713.9583 261.4131 712.5 259.0532 713.1667 258.3415 716.625 259.9147 719.2917 260.4392 729.9167 255.7568 737.6667 253.3595 742.375 251.936 744.2917 252.7227 747.9583 251.5989 748.0833 251.4865 750.4583 249.5387 756.25 249.0892 760.375 249.4263 755.0417 255.607 755.2083 258.6411 757.75 260.7388 758 263.6981 759.5833 263.6606 761.625 265.5336 760.0833 267.1068 757.2917 268.1931 754.1667 268.3055 751.2083 269.2794 748.5 268.3804 747.125 268.9798 746.1667 271.9765 744.2083 272.9504 744 272.5758 Z" />
    </g>
</svg>