<?xml version="1.0"?>
<svg xmlns="http://www.w3.org/2000/svg" version="1.2" baseProfile="tiny" width="800" height="828"
    viewBox="0 0 800 828" stroke-linecap="round" stroke-linejoin="round">
    <g id="Bihar">
        <path
            d="M 445.625 285.6114 443.2083 284.188 441.2917 280.8916 435.875 278.6441 435.5833 274.3738 433.25 273.2875 434.0417 270.8152 431.7083 268.0807 430.4583 266.4326 429.625 263.9228 434.6667 263.6606 436.875 261.488 441.25 263.286 441.8333 264.8218 451.125 266.3202 453 269.5416 451.7083 274.2614 454.875 275.4976 456.6667 275.0106 460.4167 276.6588 462.2917 278.9812 466.7083 279.1311 466.3333 281.0789 468.4167 282.2776 470.5833 282.6147 476.2917 279.9926 479 279.5806 481.3333 280.7793 481.1667 284.4502 483.7083 286.473 484.875 287.3345 487.625 285.087 489.5 284.675 493.9167 286.0609 498 286.2857 503.5 288.1586 504.25 289.2824 508.4167 291.2302 511.7917 290.7807 517.125 287.5593 518.4583 290.556 520.375 291.7921 526 291.7172 528.5833 290.8182 532 292.4289 533.9167 292.4664 539.0833 290.9306 544.125 292.1293 545.9167 290.4061 546.2083 287.8964 549.75 290.3312 550.8333 293.8149 547.2083 295.9875 545.2083 298.0477 542.5417 298.9093 539.125 301.7561 539.2083 302.0184 538.875 302.9174 539.0417 303.0297 538.375 304.5655 538.5 305.8017 540.2917 306.4759 542.3333 310.2967 544.5833 310.971 543.7917 313.8179 545.0417 316.8895 542.125 315.3911 539.5833 316.5149 536.875 318.7249 537.3333 320.7852 539.0417 321.9464 538.25 323.4822 536.75 322.8454 535.3333 323.0327 534.8333 321.5718 531 321.0474 529 324.7558 524.875 323.9692 524 327.6401 520.75 328.5017 519.9167 329.5505 520.25 333.2964 518.9583 334.1205 517.375 340.2263 514.6667 340.1139 513.5833 342.3989 509.25 340.4885 506.5 341.7621 505.375 340.7507 502.3333 343.4103 501.0417 347.1561 498.25 345.1334 496.25 344.6089 496.9167 342.0243 492.3333 340.8631 492.2083 338.2784 490.2083 336.0683 486.875 337.1921 486.0417 336.4429 481.5833 334.982 479.625 339.2898 479.9167 341.2002 476.25 342.8109 471.6667 342.2116 470.5 343.4103 469.3333 343.0731 463.875 347.231 462.25 345.9949 458.8333 347.1561 458.4167 344.6839 456.0833 342.8484 450.1667 346.407 447.75 349.4786 446.75 348.1301 443.5417 346.5942 443.125 343.9721 441.2083 342.9607 436.75 342.7735 434.4583 339.8142 432.5 342.3614 430.75 342.8109 426.5417 343.5975 420.6667 342.9982 421.25 342.324 421.4167 339.7768 420.2917 337.267 417.75 336.0309 416.5417 329.8127 416.5 325.0555 421.625 321.6467 424.6667 320.8226 427.1667 318.8748 428.2083 319.2119 430.0417 318.238 432.3333 314.8667 436.4167 312.7316 436.25 311.1208 438.0417 310.1469 439.8333 311.8325 442.9167 311.87 443.375 309.8098 449.4167 311.5329 450.5833 310.1094 451.25 308.4987 447.0833 306.0264 443.875 303.9288 442.2917 304.3033 435.75 300.108 436.5833 296.8491 439.0417 295.6129 438.5 292.5788 431.7083 290.6309 431.9167 289.1326 435.625 287.784 437.2917 285.6489 441.875 286.473 445.625 285.6114 Z" />
    </g>
</svg>