<?xml version="1.0"?>
<svg xmlns="http://www.w3.org/2000/svg" version="1.2" baseProfile="tiny" width="800" height="828"
    viewBox="0 0 800 828" stroke-linecap="round" stroke-linejoin="round">
    <g id="Chhattisgarh">
        <path
            d="M 380.2083 464.9638 378.25 463.428 376.3333 464.8889 376.3333 464.9264 375.5 467.6234 376.1667 468.9719 378.875 470.1331 379.3333 471.7064 381.5 472.0061 381.3333 476.4262 380.5 479.7226 382.4583 479.4604 383.1667 481.8577 384.875 481.8952 384.125 488.0384 385.3333 490.2485 386.4167 495.7549 384.5417 496.2044 384.0417 499.3135 382.2083 500.6995 377 502.7972 377.2917 505.2694 373.4583 509.3899 372.9167 511.1504 370.4167 511.3377 366.9167 514.2595 366.7917 516.6194 365.5833 519.3914 365.625 521.4141 363.375 523.6991 363.2917 525.7594 359.7083 525.9466 357 524.673 354.7917 526.3212 352.9167 526.3962 351.6667 519.5037 351.9167 516.2823 348.8333 516.994 348.4583 515.196 345.8333 516.1699 345.625 512.3866 344.4583 508.828 342.5833 506.543 337.625 503.6212 335.375 504.1457 332.75 501.1864 332.7083 499.9503 334.75 497.7028 332.625 495.1181 334.2083 491.6344 334.2917 489.6117 335.9583 488.4505 338.375 484.3675 340.9583 482.7193 341.9167 485.1166 345.7083 485.716 348.4583 483.6183 349.625 479.3854 344.7083 476.7633 343.5417 474.4034 340.5833 472.8676 340.125 471.2569 338 471.0321 339.6667 467.9605 340.0833 463.5779 339 462.3792 337 462.6039 336 459.6447 342.2917 457.2473 341.3333 455.5992 342.0417 450.3549 339.4167 450.5048 341.0417 447.9576 340.5417 443.8746 340.125 440.8404 337.875 440.9902 337.2083 436.4203 337.875 434.2851 341.9583 432.8992 343.25 429.9774 345.3333 426.1566 344.7083 421.0247 345.8333 418.2903 347.5 418.2903 348.2917 416.3049 347.9167 414.6193 349.9583 408.8132 352.5833 410.1992 353.7083 405.2546 355.7083 403.8686 355.5 399.9355 357.75 398.4371 359.25 399.2987 361.4167 397.5007 365.4167 398.4746 369.4167 397.1635 370.1667 395.0658 372.3333 393.5675 372.4167 393.3802 374.125 390.9454 373.625 387.9861 375.9583 387.5741 378.375 385.0269 378.1667 382.4048 383.0833 381.7305 385.1667 375.9993 382.5417 373.7144 379.3333 373.2649 377.4583 370.006 374.8333 370.5304 373.125 369.5939 369.125 370.6053 369.2083 366.4848 371.4583 364.9116 369.125 361.765 368.9167 360.454 370.6667 359.3677 372.25 361.6901 374.5417 362.5517 377.5833 360.8286 379.9167 361.0908 381.9583 362.3269 385.4167 361.3155 386.8333 362.1771 393.2917 363.1885 397.0417 361.7276 398.625 359.5175 401.875 358.3563 405.5417 360.8286 409.4583 360.8286 412.625 359.4426 415.9583 354.5355 418.75 354.985 421 357.8319 422.5417 361.0533 426.2083 362.2145 428.0833 367.9457 432.5417 369.0695 434.6667 367.2715 434.625 370.83 433.2083 374.0515 436.25 375.4749 435.25 379.8951 435.9583 381.4683 439.0833 385.1018 444.4167 385.1393 445.0417 386.5253 443.0417 388.6229 442.2083 390.7581 440.7083 392.9682 438.375 394.4665 436.5 394.429 434.5 396.1896 434.5417 397.4257 435.5 399.0365 434.5 401.696 430.5 402.4452 428.8333 403.7937 424.0833 406.266 421.625 410.5738 421.6667 412.7464 423.0833 416.5672 419.5417 420.0508 420.25 421.5117 417.4167 422.1485 416.1667 425.4074 417.8333 428.0295 417.6667 429.7152 414.4583 428.7787 414.375 428.7787 414.2917 428.7787 412.2083 435.2591 409.0833 436.0082 406.0417 434.2851 397.1667 434.847 397.125 436.645 395 440.5033 393.0417 441.5521 392.25 443.7997 388.9583 442.4886 389.3333 447.2084 390 449.0813 388.7917 450.9917 391.6667 454.4754 390.625 457.0226 391.2083 460.731 390.25 462.3417 390.5833 464.7765 399.2917 466.612 398.7083 470.9198 395.9167 472.4181 394.2083 469.6087 391.875 468.7472 389.125 470.7699 387.0417 466.9866 384.75 466.7244 381.625 464.7391 380.2083 464.9638 Z" />
    </g>
</svg>