<?xml version="1.0"?>
<svg xmlns="http://www.w3.org/2000/svg" version="1.2" baseProfile="tiny" width="800" height="828"
    viewBox="0 0 800 828" stroke-linecap="round" stroke-linejoin="round">
    <g id="Gujarat">
        <path
            d="M 127.2917 426.1191 126.5 424.6957 123.875 423.2348 126.3333 421.4742 122.0417 419.0769 124.2083 417.0167 121.125 413.3457 122.7083 406.8653 124.9167 405.9289 127.75 407.0901 130.875 405.9663 133.0417 403.8312 125.2083 404.2058 121.2917 403.0446 119.7917 404.8051 117.5 403.2318 116.4583 406.9777 113.9167 411.9597 112.8333 414.7691 113.8333 416.6046 112.5417 418.6274 115.6667 422.0361 113.6667 426.6436 110.2083 430.8389 110.3333 433.6483 102.4167 436.8698 98.4583 439.1548 93.9167 440.5782 91.9167 442.6384 88.75 443.2378 85.625 444.6237 81.375 446.3843 80 446.0846 77.8333 446.0846 75.2917 447.5081 64.9583 443.2003 59.2917 439.2671 55.25 435.9333 52.25 432.8617 44.7917 424.4709 35.625 416.4548 36.2917 414.8441 35.0833 416.1926 31.4167 412.9711 24.5833 405.4419 23.7917 403.3442 25.6667 399.8231 29.9583 402.3328 30.375 406.0038 34.7917 403.3068 38.875 402.6325 40.25 401.5462 42.4167 401.696 46.0417 400.4224 49.0417 399.1863 52.0833 397.0137 56.1667 396.7515 58.8333 393.7922 58.7083 392.2564 60.7083 390.9454 63.625 387.1621 65 388.8102 66.2917 386.3754 68.0417 383.7533 71.5417 381.3559 72.3333 379.4081 66.5 379.7452 64.3333 378.6589 61.25 378.6964 57.25 382.7419 54.9583 386.75 50.75 387.3868 46.4583 389.2972 43.1667 390.1213 36.875 389.7092 29.0833 387.9861 15.5 379.9325 12.75 376.9358 13.25 374.8756 9.1667 373.115 9.5833 371.317 7.1667 371.0548 6.7083 368.8073 2.125 368.1705 1 366.0728 2.9583 365.5858 3.9583 360.7162 7.5 358.2439 18.7917 358.0941 19.0833 349.2538 21.375 350.7896 24.0417 349.0665 25.5833 351.2391 28.0833 349.8532 30.7917 350.8645 34.0417 349.6659 38.9167 350.0404 41.7083 349.3287 45.4583 352.6626 53.4583 352.6626 55.75 349.2913 68.375 345.8076 68.3333 350.4525 70.9583 351.3515 74.7083 351.314 76.5833 349.2913 79.625 347.3434 81.3333 347.6056 82.7917 345.433 79.9583 345.2083 79.625 341.0878 83.0417 338.9152 85.125 339.5895 87.8333 340.5259 90.2917 340.2637 93.0417 338.8028 96.5833 338.8777 97.875 339.8891 101.5833 338.8777 105.0417 338.9901 108.8333 337.9038 111.75 340.3761 116.375 340.0764 116.875 341.9494 120.875 345.9574 121.4167 343.6725 125.875 344.6839 127.0833 347.306 133.375 347.4933 134.5417 344.2343 136.875 343.7474 136.5833 346.5193 138.625 347.6431 136.3333 352.0258 137.9167 353.8987 140.3333 355.2098 141.125 357.27 143.125 355.8466 145.5417 356.1837 145.8333 359.3677 144.7917 359.9296 144.5417 362.3644 147.4167 365.3611 148.75 368.0206 150.0833 366.747 152.375 367.6461 151.5833 372.3284 155.0833 372.1786 157.125 372.9652 158.7917 375.4375 160.625 374.2013 161.25 375.3626 165.5417 377.3104 165.2083 379.7827 168.5 379.5579 170.4583 382.9292 172.4583 387.3868 174.2917 387.0871 174.4167 389.5594 172.7083 391.8819 172.0833 394.504 168.9167 394.2792 165.8333 397.613 163.3333 396.8264 165 400.385 167.625 399.7856 166.9167 403.082 163.625 402.1081 163.2083 403.6814 165.0833 406.0413 165.125 409.1503 164.3333 411.3604 165.75 413.1584 160.0833 415.2561 156.75 416.1551 156.9583 418.3277 158.5 419.6013 156.6667 421.5117 157.25 424.883 161.25 424.8455 161.25 424.8081 166.2083 423.5719 169.25 423.7592 170.5 425.4823 167.4583 426.4563 163 426.9058 160.625 428.2917 160.1667 430.8764 156.9167 431.7005 156.7083 434.3226 152.6667 434.847 154.5833 436.9072 156.3333 438.2558 156.5 438.8176 157.625 439.0799 157.625 439.1173 158.7083 440.8779 160.1667 443.4251 159.5 446.5716 158.3333 446.4218 157.3333 449.381 154.7917 450.9168 152.2917 450.9168 151.25 449.2686 147.4167 446.684 145.5833 449.3061 147.375 450.3924 147.25 452.7897 145.5 455.7864 145.8333 460.731 142.6667 460.5812 141.2917 462.9785 140.25 463.016 138.1667 460.8808 139.0417 458.446 135.6667 457.4346 132.6667 458.2587 133.4583 460.6186 131.0417 460.1317 128.375 462.7163 127.4167 459.6822 128.4583 457.135 129.8333 456.2734 131.4167 453.7262 131.875 450.6171 130.5417 445.8599 126.9167 437.7313 127.7083 437.3567 124.1667 436.3454 124.625 433.3112 123.5417 430.4269 125.0833 429.6403 126.125 426.4937 127.2917 426.1191 Z M 116.9583 417.3163 115.7083 416.1551 115.2083 412.7089 117.4583 411.0233 119.1667 413.7952 116.9583 417.3163 Z" />
    </g>
</svg>