<?xml version="1.0"?>
<svg xmlns="http://www.w3.org/2000/svg" version="1.2" baseProfile="tiny" width="800" height="828"
    viewBox="0 0 800 828" stroke-linecap="round" stroke-linejoin="round">
    <g id="Himachal Pradesh">
        <path
            d="M 279.2083 158.8511 277.4583 160.312 273.5417 161.5107 269.8333 161.8478 267.0417 163.6083 266.0833 165.781 265.4583 170.5757 262.6667 173.0105 265.7917 178.5544 265.7083 180.0527 259.1667 182.8996 259.2917 183.4989 257.75 181.7384 254.5833 182.1879 249.1667 180.5397 246.8333 178.4795 248.1667 177.4306 248.0417 175.1831 244.1667 173.4225 241.2083 169.3021 239.9167 170.0512 237.4167 169.1897 236.2083 168.2907 233.25 166.605 233.8333 160.8739 232.25 159.1133 229.7917 159.2257 228 157.6899 226.9167 155.33 224.125 158.2143 221.7083 158.3267 219.5417 153.0075 216.7083 149.374 215.1667 145.291 215.1667 143.2308 213.7917 140.6836 206.8333 137.2374 205.2917 137.0876 205.375 136.7879 207 135.5892 206.375 132.4801 210 131.4688 212.7917 128.547 214.375 128.5844 211.7917 125.4004 214 122.0666 214.1667 118.9575 210.8333 115.2117 212.1667 114.013 215 115.5488 218.625 113.2638 219.2917 111.9153 222.2917 111.5033 224.2083 109.2557 227.4167 107.0082 231.75 106.3714 233.8333 107.6825 236.625 107.1955 237.2917 105.2476 238.5 107.7199 240.375 108.7688 241.6667 111.316 243.75 112.4023 247.5833 112.7019 250.9583 115.5113 252.7083 117.0846 254.5417 115.2866 256.25 115.9608 259.9167 113.6384 263.6667 112.9267 265.5833 114.6123 268.9583 119.5569 268.5 120.5308 271.1667 122.4412 273.4167 122.1415 274.625 120.7556 276.7083 121.2425 281.2917 118.6953 281.7917 122.4412 279.25 123.7148 281.5833 125.0259 283.125 127.0112 285.2917 128.06 283.8333 129.858 283.875 131.731 287.3333 133.4915 286.8333 135.1397 289.0833 137.1999 292.0417 139.5224 289.9583 145.4783 291.5417 148.2128 293.7917 150.0108 290.75 151.9587 292.4583 154.5059 291.1667 156.6036 292.2917 158.2892 294.75 158.8511 297.5833 161.8478 298.2083 163.5709 294.875 163.908 292.7917 161.1735 289.0417 161.211 287.3333 160.3494 283.9167 161.1735 280.8333 158.7762 279.2083 158.8511 Z" />
    </g>
</svg>