<?xml version="1.0"?>
<svg xmlns="http://www.w3.org/2000/svg" version="1.2" baseProfile="tiny" width="800" height="828"
    viewBox="0 0 800 828" stroke-linecap="round" stroke-linejoin="round">
    <g id="Haryana">
        <path
            d="M 249.375 225.0781 246.7917 224.9283 242.625 226.2019 241.9167 226.5765 242.7083 229.311 242.2083 230.1351 240.4583 231.109 239.2917 233.319 240.3333 234.6301 243.6667 233.5813 246.125 234.4428 246.75 235.0047 248.25 237.2897 250.4167 235.1545 252.9583 234.1431 257.25 238.2261 257.125 242.7212 256.4583 246.0176 258.25 248.6022 257.9167 250.3253 254.9583 252.2732 252.875 252.423 251.2083 253.809 244.7083 253.2096 242.875 257.7421 240.5417 255.607 241.9167 252.6103 241.5833 248.4898 242.6667 244.5567 239.5 242.3091 237.9167 244.2945 234.9583 245.9426 234.4583 247.9654 230.9167 249.0143 231.0417 247.4035 224.75 243.4704 226.0417 244.9313 224.9167 247.8905 223.3333 246.5045 220.5833 248.3775 220.8333 250.9621 222.375 252.8725 221.0417 253.809 218.3333 252.6477 215.4583 252.3481 214.4167 250.2878 215.5 250.1755 216.4583 246.7293 216.2083 244.9687 217.75 242.3091 213.3333 237.7017 207.25 234.1806 205.9583 231.9331 204.2917 231.6334 203.1667 225.6025 201.9167 223.0928 203.375 221.8567 201.0417 219.4968 199.6667 219.3844 200.0417 213.9903 198.4167 213.3535 195.5417 213.9903 191.2083 214.8519 190.375 213.2786 187.9167 213.4285 187.2917 211.2184 184.9167 210.0946 183.2083 211.2184 178.1667 211.1435 177.6667 208.5963 178.7083 206.611 177.4167 205.712 178.5417 200.5801 174.8333 200.7674 174.9583 198.8945 177.0417 197.3961 176.0833 195.4483 179.375 196.2349 180.9583 194.5118 183.875 194.0248 187 195.1861 188.9167 197.4336 192.2083 198.4075 194.2083 198.0704 195.5833 200.6176 193.5833 202.9026 197.25 205.8243 198.4167 202.1159 201.5417 199.0818 204.7917 200.9172 208.625 198.8945 210.2083 198.6697 214.7917 201.2169 217.5833 200.7299 218.9167 199.0068 222.0833 198.1828 220.9167 195.8229 223.1667 191.4027 227.4167 189.8669 228.9583 191.1405 231.9583 191.0656 233.625 189.8295 233.75 189.7545 231.5417 187.2448 235.625 184.9598 236.625 182.1504 241.0833 182.2253 240.7083 181.7009 240.9583 181.3263 241.4583 177.2059 238.7917 175.258 239.0833 173.2727 239.2917 171.1001 237.4167 169.1897 239.9167 170.0512 241.2083 169.3021 244.1667 173.4225 248.0417 175.1831 248.1667 177.4306 246.8333 178.4795 249.1667 180.5397 254.5833 182.1879 257.75 181.7384 259.2917 183.4989 259.375 185.4468 255.9167 189.38 249.6667 195.4857 248.2083 199.1567 246.75 200.5052 247.625 202.3407 246.375 203.839 247.0833 207.8846 246.9583 211.5555 247.7083 212.979 247.375 216.5375 248.0417 220.171 249.8333 223.2801 249.375 225.0781 Z" />
    </g>
</svg>