<?xml version="1.0"?>
<svg xmlns="http://www.w3.org/2000/svg" version="1.2" baseProfile="tiny" width="800" height="828"
    viewBox="0 0 800 828" stroke-linecap="round" stroke-linejoin="round">
    <g id="Jharkhand">
        <path
            d="M 533.375 350.3776 533.1667 352.8499 527.9583 357.7944 525.125 356.371 522.3333 356.6332 524 360.0045 522.3333 361.2406 519.5 361.3155 518.2917 362.4393 513.6667 360.5289 510.5417 361.8399 511.25 363.7129 510.5417 365.5109 508.125 365.5109 501.9583 367.234 498.6667 370.0809 497.1667 373.3398 493.5417 371.7665 493.0417 369.3317 490.9583 369.1444 489.7917 370.9799 485.5833 371.3919 484.875 372.8528 485.5417 375.0254 483.7917 377.2355 485.5833 380.0074 489.9167 380.6068 495.2917 384.6523 502.375 384.7272 500.5833 386.5627 500.125 390.2711 503.9583 392.3688 506.2083 393.9046 506.6667 396.1147 509.5833 396.1147 510.5417 398.512 509.5417 400.1977 511.75 400.9094 511.4167 402.9322 508.5417 405.9289 503.8333 403.6814 502.25 402.3703 500.4167 403.1944 498.5 402.2954 496.4167 399.5983 491.9583 398.5495 490.5417 396.6391 487.7083 398.587 489.2083 400.1977 489.5 402.7074 488 405.0673 489.5833 406.6406 488.9583 408.6634 485.9167 412.2594 482.8333 412.2219 481.875 409.7871 480.0833 410.2366 472.2917 407.3523 468.9583 409.5624 467.9583 411.5477 466.375 409.8246 462.25 408.4761 463.5833 404.8051 463.375 398.4371 460.3333 399.6733 456.2917 399.4485 454.6667 400.385 448.7917 400.1602 445.9167 402.2205 442.1667 402.4827 439.5833 401.5087 437.25 398.8117 434.5417 397.4257 434.5 396.1896 436.5 394.429 438.375 394.4665 440.7083 392.9682 442.2083 390.7581 443.0417 388.6229 445.0417 386.5253 444.4167 385.1393 439.0833 385.1018 435.9583 381.4683 435.25 379.8951 436.25 375.4749 433.2083 374.0515 434.625 370.83 434.6667 367.2715 432.5417 369.0695 428.0833 367.9457 426.2083 362.2145 422.5417 361.0533 421 357.8319 418.75 354.985 415.9583 354.5355 418.125 350.0404 417.3333 348.7669 417.875 343.7474 420.6667 342.9982 426.5417 343.5975 430.75 342.8109 432.5 342.3614 434.4583 339.8142 436.75 342.7735 441.2083 342.9607 443.125 343.9721 443.5417 346.5942 446.75 348.1301 447.75 349.4786 450.1667 346.407 456.0833 342.8484 458.4167 344.6839 458.8333 347.1561 462.25 345.9949 463.875 347.231 469.3333 343.0731 470.5 343.4103 471.6667 342.2116 476.25 342.8109 479.9167 341.2002 479.625 339.2898 481.5833 334.982 486.0417 336.4429 486.875 337.1921 490.2083 336.0683 492.2083 338.2784 492.3333 340.8631 496.9167 342.0243 496.25 344.6089 498.25 345.1334 501.0417 347.1561 502.3333 343.4103 505.375 340.7507 506.5 341.7621 509.25 340.4885 513.5833 342.3989 514.6667 340.1139 517.375 340.2263 518.9583 334.1205 520.25 333.2964 519.9167 329.5505 520.75 328.5017 524 327.6401 524.875 323.9692 529 324.7558 531 321.0474 534.8333 321.5718 535.3333 323.0327 537.1667 323.2575 537.2083 326.1418 537.625 327.6776 541.9583 330.7867 542.125 332.2101 540.25 334.0081 538.8333 337.0048 540.7083 337.6416 540.2083 341.9119 537.5833 341.4249 537.7917 346.8939 535.2083 350.2277 533.375 350.3776 Z" />
    </g>
</svg>