<?xml version="1.0"?>
<svg xmlns="http://www.w3.org/2000/svg" version="1.2" baseProfile="tiny" width="800" height="828"
    viewBox="0 0 800 828" stroke-linecap="round" stroke-linejoin="round">
    <g id="Jammu and Kashmir">
        <path
            d="M 199.2083 74.2693 199.4583 74.981 200.25 77.1161 202.5417 78.4647 205.2083 79.4386 207.7083 80.4874 212.5417 85.432 216.8333 84.9076 217.5417 86.7805 220.875 90.414 223.4583 91.8749 223.625 94.5719 224.6667 96.5198 229.9167 98.0181 237.2917 105.2476 236.625 107.1955 233.8333 107.6825 231.75 106.3714 227.4167 107.0082 224.2083 109.2557 222.2917 111.5033 219.2917 111.9153 218.625 113.2638 215 115.5488 212.1667 114.013 210.8333 115.2117 214.1667 118.9575 214 122.0666 211.7917 125.4004 208.8333 127.0112 207.7083 128.6968 205.25 129.0339 202.9583 130.9443 198.2917 129.8955 194.5833 127.9476 191.9167 126.7864 187.5417 127.161 185.9583 125.1382 185.4167 126.0747 180.2917 125.9249 179.125 122.6285 179.7083 117.8712 175.75 119.0699 173.9167 117.8338 172.1667 118.6953 166.5833 115.2866 163.375 114.5749 160.5833 112.4397 157.0833 111.8778 153.25 109.7052 151.5833 109.6303 152.375 106.4089 149.875 102.7754 151.4167 96.4448 149.7917 95.1712 150.7917 92.6615 149.75 90.9384 150.5417 88.0166 148.7083 85.2447 147.7917 80.8995 147.9167 78.8392 145.125 74.6439 146.6667 69.2123 151.3333 68.8752 154.9167 63.4062 160.75 61.9079 163.75 59.2483 163.5417 56.2891 165.75 54.9406 168.625 56.5888 172.125 56.0269 175 54.6034 177.75 57.3379 177.2083 61.0463 174.2083 61.6082 173 63.0691 170.4583 63.4062 177.0833 63.8932 178.125 64.7548 181.7083 66.5528 186.9583 66.7775 189.5417 67.7889 192.5833 67.227 195.5 67.714 198.7083 70.411 197.7083 72.9957 199.2083 74.2693 Z" />
    </g>
</svg>