<?xml version="1.0"?>
<svg xmlns="http://www.w3.org/2000/svg" version="1.2" baseProfile="tiny" width="800" height="828"
    viewBox="0 0 800 828" stroke-linecap="round" stroke-linejoin="round">
    <g id="Karnataka">
        <path
            d="M 251.3333 564.1546 254.7917 565.2783 256.8333 564.7913 259.6667 565.9526 257.125 569.2489 257.5 577.2651 250.25 576.2537 245.4583 577.7521 244.2083 579.7374 245.75 584.5696 244.3333 585.2438 244.375 590.6753 245.2083 593.5971 247.625 594.571 246.9167 596.3691 247.75 598.729 246.5833 601.6133 243.0833 602.1377 238.0417 599.9276 236.9583 602.8494 239.875 603.3738 239.0417 608.2435 237.375 611.2402 237.0833 613.3753 238.2083 615.3232 240.7917 616.4469 240.3333 620.3052 243.625 623.3768 246.6667 623.639 247.25 620.6049 253.4167 622.2905 254.625 620.6049 256.5417 621.841 257.2083 625.512 254.2083 625.025 254.125 629.3327 255.3333 631.2057 254.3333 632.3294 252.25 628.9582 248.2083 629.4451 244.25 628.0966 243.5833 624.3882 240.625 625.2123 242.0833 627.1976 241.625 628.9582 244.625 631.6177 242.875 634.502 245.25 636.787 247.7917 635.0639 248.4167 633.3408 252.375 634.3148 255.2917 634.0525 256.2917 636.375 255.9167 638.4352 260.4167 636.1128 264.7917 634.7268 265.6667 632.1047 269.9167 630.906 270.75 633.2659 273.875 633.5281 274.1667 635.5883 274.0417 637.5362 276.2917 639.8961 276.0833 641.5443 279.625 640.8326 281.6667 641.0199 280.9167 643.155 280.6667 647.1631 282.8333 648.624 286.7083 649.523 284.75 655.3666 283.4583 657.7265 280.4167 658.6629 279.25 660.873 277.625 660.8355 277.0417 663.57 274.375 662.9707 272.2917 661.0603 270.1667 661.5098 268.7917 660.0114 267.0833 660.5733 266.125 660.6857 265.0833 663.8697 263.625 665.9674 259.875 666.0798 259.5 670.2751 260.7917 670.9868 260.25 674.2832 258.5 676.3434 256.3333 677.6545 257.25 678.8906 260.125 678.6659 263.8333 680.0519 264.625 681.2131 262.7917 683.3108 261.9167 685.5958 256.9583 685.8205 255.1667 690.6152 251.4583 689.4915 246.5 690.4654 243.8333 689.3416 241 689.866 239 693.6868 239.3333 695.335 236.875 694.6982 231.5 694.5858 230.1667 692.3383 227.625 693.2373 227.5 690.8774 224.9167 691.0647 221.875 688.068 219.3333 688.1429 219.3333 684.8466 216.3333 686.1576 214.5 685.8954 212.7083 685.5958 210.625 682.7489 206.3333 680.2392 204.7083 680.0144 202.2083 676.3809 200.2917 676.3809 200.5 674.1334 198.9583 673.0471 200.3333 670.6872 196.625 670.0129 192.0417 665.7426 188.5 664.1694 185.4167 663.6075 184.1667 661.2101 182.9167 655.1043 181.2917 648.4742 180 639.7463 177.625 631.805 175.7917 630.1568 174.5417 624.6504 173.7917 623.6765 172.5 618.3948 171.4167 615.9225 169.0833 612.7011 168.9167 610.1913 164.9583 608.3933 164.0833 605.2468 167.25 604.5725 169.8333 601.426 169.1667 599.8902 170.375 597.4554 168.8333 595.957 170.625 594.8333 170.5417 592.5108 169.25 591.874 168.5833 589.1395 169.3333 588.3154 168.2083 584.3448 164.9583 584.7943 165.0833 582.9214 167.4583 581.2732 168.25 582.2471 171.1667 581.7227 172.2917 577.9019 174.375 574.2309 171.875 573.1446 174.8333 571.2717 174.8333 568.4998 171.9167 568.1626 170.375 566.4021 170.7917 562.9184 170.3333 560.1839 176.5833 557.9739 177.2917 560.1839 178.9167 559.3973 180.7083 555.8013 184.9167 554.228 186.7917 554.228 186.3333 551.7932 191.4167 549.3584 193.9583 552.3176 196.2083 551.7932 196.625 549.246 198.2917 549.246 201.6667 548.347 203.4167 548.8714 207.125 548.6092 207.3333 544.9008 206.0417 543.3275 206.8333 540.593 205.4583 539.7315 204.625 537.5963 206.25 535.0491 211.1667 537.896 213.375 537.1093 214.375 539.2445 218.2917 538.8699 222.5 538.0833 226.6667 539.4692 226.375 536.1729 225.25 535.2364 225.2917 531.7902 227.9167 530.5166 229.5833 530.0671 230.5 527.3326 234.125 528.4938 234.9167 529.4678 235.7083 526.7707 237.7917 525.5346 236.4167 523.5493 237.375 524.1486 241.2917 523.0998 240.9167 520.5526 242.2083 519.691 241.3333 517.5933 242.1667 515.683 245.25 516.6943 250.2083 510.7009 250.7083 509.2775 252.125 508.7531 254.75 510.1016 254.625 512.5739 256.1667 513.6602 258.5 512.8361 259.875 513.2856 258.8333 515.4582 259.7917 518.2676 258.4167 519.279 261.375 521.6389 259.4583 523.3245 258.125 526.8082 255.8333 529.1306 255.5833 532.1273 256.2083 532.3146 256.9583 532.6143 262.1667 534.1126 257.4583 536.3227 256.6667 538.3829 253.8333 541.979 253.4167 543.7395 256.125 545.0506 257.0417 546.8861 256.2083 549.2834 256 551.1938 256.4583 553.8159 255.0833 555.6514 255.8333 558.4983 254.8333 561.1953 250.0833 562.394 251.3333 564.1546 Z" />
    </g>
</svg>