<?xml version="1.0"?>
<svg xmlns="http://www.w3.org/2000/svg" version="1.2" baseProfile="tiny" width="800" height="828"
    viewBox="0 0 800 828" stroke-linecap="round" stroke-linejoin="round">
    <g id="Kerala">
        <path
            d="M 227.625 693.2373 226.5417 695.1477 222.625 697.1705 228.7917 700.9538 231.1667 701.7405 230.4583 704.1753 228.2917 706.0482 233.375 706.2355 235.5 704.9994 235.1667 706.9847 236.7917 709.382 234.125 713.2028 238.875 715.0758 240.9583 717.4731 239.0833 722.5301 238.4583 727.2499 238.9583 729.5348 240.5417 731.7075 240.7083 731.8573 240.75 731.8947 243 732.7938 244.875 731.6325 245.9583 730.2091 248.4167 729.0479 251.3333 732.4566 250.7917 735.4533 250.6667 738.0005 249.2917 742.121 250.2083 744.2561 248.0417 749.3505 250.8333 750.4368 252.1667 749.6127 254.4583 751.7104 252.75 754.5947 251.1667 757.8911 250.7917 761.8617 249.0417 764.1093 247.5417 765.7574 248.75 768.0424 250.4583 769.316 248.9167 772.2753 248.125 773.0619 250.8333 777.5195 250.625 779.4673 246.1667 785.3109 242.375 781.7898 235.2917 773.1368 234.8333 772.1254 231.1667 768.6792 229.2917 762.6858 225.75 755.4937 224.9583 752.8716 223.875 744.5183 220.7917 733.8426 222.0833 733.5055 220.6667 733.7677 219 728.3736 215.0833 720.0952 213.7917 717.1735 211.5 708.1834 208 699.9424 205.8333 698.519 204.0833 692.4132 203.625 692.3009 203.5 692.3009 199.5 688.1804 198.7083 688.1055 195.8333 684.0599 194.4583 684.0974 193.5 681.8499 190.125 673.6839 189.4167 672.8972 185.4167 663.6075 188.5 664.1694 192.0417 665.7426 196.625 670.0129 200.3333 670.6872 198.9583 673.0471 200.5 674.1334 200.2917 676.3809 202.2083 676.3809 204.7083 680.0144 206.3333 680.2392 210.625 682.7489 212.7083 685.5958 214.5 685.8954 216.3333 686.1576 219.3333 684.8466 219.3333 688.1429 221.875 688.068 224.9167 691.0647 227.5 690.8774 227.625 693.2373 Z M 204.125 691.8514 203.75 691.4019 203.625 691.9263 204.125 691.8514 Z" />
    </g>
</svg>