<?xml version="1.0"?>
<svg xmlns="http://www.w3.org/2000/svg" version="1.2" baseProfile="tiny" width="800" height="828"
    viewBox="0 0 800 828" stroke-linecap="round" stroke-linejoin="round">
    <g id="Ladakh">
        <path
            d="M 199.4583 74.981 199.2083 74.2693 197.7083 72.9957 198.7083 70.411 195.5 67.714 192.5833 67.227 189.5417 67.7889 186.9583 66.7775 181.7083 66.5528 178.125 64.7548 177.0833 63.8932 170.4583 63.4062 173 63.0691 174.2083 61.6082 177.2083 61.0463 177.75 57.3379 175 54.6034 172.125 56.0269 168.625 56.5888 165.75 54.9406 156.1667 50.9325 154.4167 51.6817 153.5833 47.8609 156.125 45.0515 155.875 43.2909 151.7917 42.0173 145.5833 42.2421 138.2083 38.0092 138.6667 34.6754 136.9167 33.5516 132.5417 34.563 131.7917 33.5891 126.0417 34.9002 121.7917 32.6152 123.4583 29.6185 121.7083 28.3449 123.4583 23.213 128.4583 21.902 131.2917 19.8043 131.2083 18.2685 134.25 17.8939 137.5417 13.736 137.9167 11.6383 143.0417 11.1139 146.5 10.065 153.5833 11.7132 156.5 10.8516 158 8.9038 154.2083 7.6302 153.2917 5.495 158.4167 5.982 163.25 8.3794 165.625 7.4804 166.3333 5.7573 168.8333 6.2068 173.4167 3.3974 176.2083 3.4723 177.7083 1.899 181.0417 1 181.75 2.5358 184.625 2.4983 186.8333 5.6823 189.4583 3.7719 191.5833 4.671 194.6667 2.1238 198.3333 1.6743 198.5417 3.6221 200.5 4.184 201.875 8.267 205.75 9.6155 209.375 14.3353 214.125 16.6577 218.3333 17.4444 223.1667 20.8906 225.7917 20.5535 228 21.9769 229.3333 24.599 232.5833 25.8351 233.75 25.3482 235.8333 28.0827 238.0417 29.0566 235.9167 31.6412 238.3333 34.6005 241.7083 36.2487 246.625 35.8741 248 37.5972 255.2083 39.7698 256.125 41.9799 255.3333 43.5157 260.1667 44.8267 263.1667 44.6394 265.75 43.628 268 44.8642 269.7917 42.0173 271.8333 41.6053 274.4583 42.9163 276.125 39.3577 278.125 37.9343 281.2083 37.5597 282.25 36.2112 284.9167 36.8105 288.8333 34.2259 293.125 34.3008 296.875 33.2894 298.5417 34.4881 301.5417 34.8252 303.25 33.4393 303.8333 30.9295 308.25 30.48 309.4583 33.177 321.6667 36.2861 325.1667 34.7878 328.125 39.0581 333.125 41.0434 334.125 44.7893 331.3333 51.6067 330.1667 53.0676 329.9583 57.5252 327.1667 62.2825 327.0833 65.3916 323.6667 66.2906 321.375 66.0658 319.0833 67.7515 319.5833 71.6472 314.125 71.1977 311.7917 71.9094 314.0833 77.1536 311.75 79.2513 311.4167 81.1617 307.625 83.8587 303.3333 83.4467 301.625 84.1209 298.5417 83.4467 295.375 85.5069 297.9583 90.1892 299.2083 91.2381 300.875 95.2836 297.6667 95.4335 295.625 96.4448 296.125 100.3031 297.6667 103.0001 300.9583 104.1239 304.5 103.974 310.3333 105.0604 308.2083 109.7802 309.4583 113.1514 313.4167 117.9087 315.0417 119.1823 310.1667 124.8386 306.6667 123.1904 303.25 126.1871 301.6667 126.3369 301.0833 128.8841 298.875 128.8092 297.4583 130.1202 294.0833 127.3483 291.875 124.1268 291.4583 121.5047 288.75 121.5047 283.2083 123.5275 281.5833 125.0259 279.25 123.7148 281.7917 122.4412 281.2917 118.6953 276.7083 121.2425 274.625 120.7556 273.4167 122.1415 271.1667 122.4412 268.5 120.5308 268.9583 119.5569 265.5833 114.6123 263.6667 112.9267 259.9167 113.6384 256.25 115.9608 254.5417 115.2866 252.7083 117.0846 250.9583 115.5113 247.5833 112.7019 243.75 112.4023 241.6667 111.316 240.375 108.7688 238.5 107.7199 237.2917 105.2476 229.9167 98.0181 224.6667 96.5198 223.625 94.5719 223.4583 91.8749 220.875 90.414 217.5417 86.7805 216.8333 84.9076 212.5417 85.432 207.7083 80.4874 205.2083 79.4386 202.5417 78.4647 200.25 77.1161 199.4583 74.981 Z" />
    </g>
</svg>