<?xml version="1.0"?>
<svg xmlns="http://www.w3.org/2000/svg" version="1.2" baseProfile="tiny" width="800" height="828"
    viewBox="0 0 800 828" stroke-linecap="round" stroke-linejoin="round">
    <g id="Maharashtra">
        <path
            d="M 319.9583 477.7747 318.25 476.9506 310.8333 479.9099 307.9583 477.8496 304.875 477.4001 303.1667 481.0336 300.625 479.0483 296.25 478.5614 296.7917 475.677 294.1667 474.778 293.6667 472.7927 286.4167 471.2569 282.5 471.3693 281.125 469.5713 279.0833 468.7097 280.6667 472.2683 280.0833 474.1038 278.25 474.7031 279.0833 477.0255 279.1667 480.4343 276.5 481.8952 276 484.9293 275.5 487.0645 271.875 486.1655 269.2083 484.2176 267 485.2665 266.9167 488.6378 265.2083 491.5595 266.4583 496.0546 269.3333 497.8151 266.375 498.864 264.9583 502.1978 263.375 502.6473 263.625 505.644 259.75 505.8313 259.4167 508.6407 257.7917 510.6635 258.5 512.8361 256.1667 513.6602 254.625 512.5739 254.75 510.1016 252.125 508.7531 250.7083 509.2775 250.2083 510.7009 245.25 516.6943 242.1667 515.683 241.3333 517.5933 242.2083 519.691 240.9167 520.5526 241.2917 523.0998 237.375 524.1486 236.4167 523.5493 237.7917 525.5346 235.7083 526.7707 234.9167 529.4678 234.125 528.4938 230.5 527.3326 229.5833 530.0671 227.9167 530.5166 225.2917 531.7902 225.25 535.2364 226.375 536.1729 226.6667 539.4692 222.5 538.0833 218.2917 538.8699 214.375 539.2445 213.375 537.1093 211.1667 537.896 206.25 535.0491 204.625 537.5963 205.4583 539.7315 206.8333 540.593 206.0417 543.3275 207.3333 544.9008 207.125 548.6092 203.4167 548.8714 201.6667 548.347 198.2917 549.246 196.625 549.246 196.2083 551.7932 193.9583 552.3176 191.4167 549.3584 186.3333 551.7932 186.7917 554.228 184.9167 554.228 180.7083 555.8013 178.9167 559.3973 177.2917 560.1839 176.5833 557.9739 170.3333 560.1839 170.7917 562.9184 170.375 566.4021 171.9167 568.1626 174.8333 568.4998 174.8333 571.2717 171.875 573.1446 174.375 574.2309 172.2917 577.9019 171.1667 581.7227 168.25 582.2471 167.4583 581.2732 165.0833 582.9214 164.9583 584.7943 161.5 585.8806 160.0833 582.322 158.3333 582.0973 153.1667 582.6966 150.5417 577.7521 148.4167 577.0029 145.7083 567.863 144.5417 565.3907 143.9583 560.8582 144.0833 558.5357 142.8333 555.3892 143.1667 553.3664 142.0417 551.0065 142.5833 548.4593 142.375 544.9008 140.5833 540.8178 141.1667 539.282 139.5 537.5589 139.3333 532.1648 135.7083 521.3018 133.75 517.4061 133.6667 514.1846 135.2917 513.5853 132.1667 511.1504 131.625 508.1912 132.7083 506.0561 130.5833 501.7483 130.9167 499.0138 130.0417 497.2533 129.125 496.1295 130.125 492.2338 128.6667 490.0237 128.625 486.3528 129 485.2665 126.8333 478.861 126.75 475.9392 125.0833 470.7699 125.3333 468.1104 127.2083 467.0615 126.5417 464.2896 128.375 462.7163 131.0417 460.1317 133.4583 460.6186 133.5417 462.8287 138.25 463.9524 140.25 463.016 141.2917 462.9785 142.6667 460.5812 145.8333 460.731 145.5 455.7864 147.25 452.7897 147.375 450.3924 145.5833 449.3061 147.4167 446.684 151.25 449.2686 152.2917 450.9168 154.7917 450.9168 157.3333 449.381 158.3333 446.4218 159.5 446.5716 160.1667 443.4251 158.7083 440.8779 157.625 439.1173 157.625 439.0799 156.5 438.8176 156.3333 438.2558 154.5833 436.9072 152.6667 434.847 156.7083 434.3226 156.9167 431.7005 160.1667 430.8764 160.625 428.2917 163 426.9058 167.4583 426.4563 170.5 425.4823 169.25 423.7592 166.2083 423.5719 161.25 424.8081 161.25 424.8455 157.25 424.883 156.6667 421.5117 158.5 419.6013 156.9583 418.3277 156.75 416.1551 160.0833 415.2561 165.75 413.1584 169.4167 413.6079 173.5417 410.9858 174.0833 412.8587 176.0417 414.2073 175.5 419.2642 177.625 420.9498 182.875 422.2983 185.25 421.7739 190.4167 423.6094 191.9167 426.4563 194.75 427.8422 199.4167 428.7038 205.5833 428.4416 215.875 429.0035 218.8333 428.9285 220.5833 432.1125 220.7917 436.9072 226.6667 436.9822 229.25 435.0343 229.5833 433.8356 233.2083 434.0229 234.2917 431.4008 233.1667 430.0148 237.5833 426.4188 237.5417 423.8341 239.5417 422.3358 240.8333 422.7853 243.4583 420.2007 243.6667 420.5752 244.125 420.313 244.5833 420.0508 245.1667 419.6388 249.2083 420.2756 251.125 418.4026 256.5417 418.0655 258.2917 419.8635 259.1667 424.6957 255.875 423.984 256.7917 428.8536 258.7917 428.2543 265.3333 427.9171 267.5833 428.5914 271.5417 427.58 275.5417 425.4449 276.8333 424.0214 280.0833 423.0101 282.1667 423.497 282.5417 425.5198 284.6667 424.6582 286.6667 425.782 295.25 425.4074 295.7083 422.9726 297.2917 422.2234 300.0833 422.5606 304.0833 421.3993 304.375 419.4889 308.6667 420.6876 311.5 420.6876 311.875 422.8228 312.6667 424.3211 318.125 422.6355 323 424.7706 327.0417 423.9465 328.5417 422.4107 332.5417 422.2234 335.4583 424.7706 336.75 427.0556 339.625 428.2917 342.1667 430.3145 343.25 429.9774 341.9583 432.8992 337.875 434.2851 337.2083 436.4203 337.875 440.9902 340.125 440.8404 340.5417 443.8746 341.0417 447.9576 339.4167 450.5048 342.0417 450.3549 341.3333 455.5992 342.2917 457.2473 336 459.6447 337 462.6039 339 462.3792 340.0833 463.5779 339.6667 467.9605 338 471.0321 340.125 471.2569 340.5833 472.8676 343.5417 474.4034 344.7083 476.7633 349.625 479.3854 348.4583 483.6183 345.7083 485.716 341.9167 485.1166 340.9583 482.7193 338.375 484.3675 335.9583 488.4505 334.2917 489.6117 334.2083 491.6344 332.625 495.1181 334.75 497.7028 332.7083 499.9503 332.75 501.1864 328.4583 502.2727 325.75 499.8005 322.875 498.3021 324.1667 497.2158 323.5833 492.6084 321.375 490.7729 323.2917 489.2371 324.625 482.6818 323.7083 480.734 321.5417 479.6477 319.9583 477.7747 Z" />
    </g>
</svg>