<?xml version="1.0"?>
<svg xmlns="http://www.w3.org/2000/svg" version="1.2" baseProfile="tiny" width="800" height="828"
    viewBox="0 0 800 828" stroke-linecap="round" stroke-linejoin="round">
    <g id="Meghalaya">
        <path
            d="M 657.625 326.6662 654.4167 325.0555 652.6667 324.9056 645.2917 325.3926 642.4583 326.6662 641.375 325.3177 638.375 326.404 635.2917 325.2428 634.625 323.707 631.8333 324.6809 627.1667 324.5685 624.125 325.3551 621 325.7297 618.9583 325.0555 616.5833 325.7297 611.625 325.4675 609.8333 326.1418 606.75 324.8307 604.0833 324.5311 600.75 323.9692 597 321.9089 593.2083 321.9839 592.6667 319.4741 594.2083 317.0768 594.375 315.0915 598.25 313.5182 594.9583 310.2593 599.3333 305.1649 601.0417 303.9288 602.7917 304.3408 609.5417 303.0672 614.9167 305.0151 617.25 304.0411 623.5417 304.2284 625.6667 305.9141 625.1667 307.5997 628.9583 306.888 631 310.3717 634.0833 307.1502 637.0833 307.1877 640.75 301.906 644.625 303.7415 644.6667 301.8685 647.4583 299.5835 648.5833 301.6812 655.8333 301.6063 656.9167 300.7448 659.6667 301.0444 656.6667 303.6291 657.7083 305.3522 656.3333 307.8245 656.3333 311.7576 658.3333 310.5589 664.2917 310.4466 665.9583 313.256 668.125 315.054 670.2083 314.4921 667.7083 317.3764 670 318.238 673.7917 322.3584 672.4583 324.4187 670.2917 325.2428 669.125 326.9284 666.9167 327.3779 665.2917 327.1157 663.7917 329.2509 657.625 326.6662 Z" />
    </g>
</svg>