<?xml version="1.0"?>
<svg xmlns="http://www.w3.org/2000/svg" version="1.2" baseProfile="tiny" width="800" height="828"
    viewBox="0 0 800 828" stroke-linecap="round" stroke-linejoin="round">
    <g id="Manipur">
        <path
            d="M 724.5 326.9284 726.75 326.9659 726.9583 329.0636 725.4167 333.0716 723.9167 334.4576 723.8333 336.7051 721.5417 337.9413 721.25 339.8142 716.9167 343.8598 717.7917 345.3956 714.625 350.9769 713.5833 354.1984 713.1667 356.3335 711.3333 359.2553 710.9583 361.4654 707.1667 359.2928 703.7917 358.581 701.4583 359.3302 699.625 357.1576 696.4583 357.0078 693.2083 358.8807 690.7917 355.3596 689.75 354.9101 686.3333 356.7456 685.0833 356.0338 678.7917 354.1609 680.0833 350.9395 679.7083 346.0698 680.7917 342.4738 681.8333 341.7246 681.7917 337.9787 682.4167 335.2068 684.2083 335.5814 686.2083 332.3974 686.1667 330.8241 688.8333 326.7037 689.8333 323.5197 692.25 321.7216 693.125 323.4447 695.9583 324.6434 697.625 321.6093 701.375 317.4514 700.2917 315.3911 704.9583 314.8292 706.875 314.6045 709.625 315.8406 711.875 315.1289 712.375 316.5523 715.4583 316.365 718.0417 315.466 720 313.5931 721.7083 314.2674 721.7917 316.3276 725.0833 317.9383 722.375 324.2314 724.5 326.9284 Z" />
    </g>
</svg>