<?xml version="1.0"?>
<svg xmlns="http://www.w3.org/2000/svg" version="1.2" baseProfile="tiny" width="800" height="828"
    viewBox="0 0 800 828" stroke-linecap="round" stroke-linejoin="round">
    <g id="Madhya Pradesh">
        <path
            d="M 205.5833 428.4416 199.4167 428.7038 194.75 427.8422 191.9167 426.4563 190.4167 423.6094 185.25 421.7739 182.875 422.2983 177.625 420.9498 175.5 419.2642 176.0417 414.2073 174.0833 412.8587 173.5417 410.9858 169.4167 413.6079 165.75 413.1584 164.3333 411.3604 165.125 409.1503 165.0833 406.0413 163.2083 403.6814 163.625 402.1081 166.9167 403.082 167.625 399.7856 165 400.385 163.3333 396.8264 165.8333 397.613 168.9167 394.2792 172.0833 394.504 172.7083 391.8819 174.4167 389.5594 174.2917 387.0871 172.4583 387.3868 170.4583 382.9292 172.25 381.5058 175.5417 382.255 181.75 378.5465 176.1667 375.8121 177.3333 373.115 182.7917 369.7812 184.8333 369.519 186.875 366.4099 187.375 363.7129 186.3333 360.7536 188.2917 356.2211 185.7083 352.5876 186.5 351.5388 185.375 350.6772 182.2917 350.7147 183.0417 348.0926 185.0417 345.7702 183.9583 344.534 180.75 344.1594 183.1667 341.35 182.7917 339.2898 183.6667 337.267 185.9583 340.039 188.7917 338.4282 188.375 336.4804 185.2083 335.5439 184.25 332.8094 186.3333 331.9853 187.875 333.9332 190.0417 334.2703 192.1667 333.4088 192.0833 330.974 194.2083 329.0636 198.5833 329.5505 198.1667 331.3485 194 336.9299 201.4167 338.7654 203.9583 338.166 205.5833 338.7279 210.375 336.5553 211.4583 339.14 214.0833 342.5112 213.5417 345.2457 210.4167 344.9835 208.8333 346.5193 211.1667 350.6398 209.4583 353.4117 211.7917 355.7716 208.125 358.2439 203.2083 356.6332 201.5833 359.555 204.375 361.2406 204.875 362.8888 207.7917 364.1998 210.625 360.9409 214.5417 360.1168 217.375 355.5094 219.7083 354.9101 219.4583 352.0258 222.0417 351.6137 225 350.6398 230 351.7636 231.7917 351.6137 233.7917 349.9655 234.6667 352.1007 238.0833 354.1235 240.25 353.7489 241.375 351.5388 239.75 349.8906 238.9167 347.5682 239.25 345.433 238.5 342.7735 239.7083 342.3614 242.875 344.7588 245.375 342.1367 244.4167 338.0162 242.0417 336.6302 239.5417 337.0423 238.1667 335.3192 242.125 333.6335 239.7083 331.1238 240.125 328.9512 243.5 328.0147 245.8333 328.5766 248.25 327.0408 250.8333 326.9284 252 327.8649 254.2083 326.816 254.7083 323.9692 253.5 318.8748 252.0417 318.3129 249.875 319.7363 249.5833 321.3845 245.75 320.8976 242 322.321 239.5833 321.0099 237 321.3471 234.5 320.5604 232.4167 318.9497 230.2917 315.6908 229.9583 311.7951 231.125 307.2251 233.75 305.3147 235.75 305.502 237.7083 304.3408 239.4583 301.9434 240.7917 300.2953 243.4583 299.2839 246.75 296.9989 250.875 295.538 253.7083 292.8784 255.4167 291.8296 258.1667 291.6048 263.7917 288.1586 265.9167 287.8215 268.125 284.8623 270.75 283.8883 273.1667 284.4128 273.7917 281.1538 276.7917 280.1425 280.5 279.1311 281.5 280.5545 285.5833 282.0154 292 281.8656 294.5 283.8134 298.1667 284.5251 297.7083 287.0349 301.6667 290.8182 301.75 293.5901 297.8333 297.4484 298.2917 300.5575 296.5833 302.0558 296.2917 304.116 294.875 305.2023 291.5417 310.4466 292.8333 313.1811 290.2917 313.5931 288.6667 314.8292 283.0417 314.4921 282.1667 315.5784 282.0833 317.0768 281.5 317.9758 280.4167 317.751 280 318.2754 280 318.7249 280.125 321.1223 281.375 324.4561 282.9167 326.7411 280.9167 327.3779 279.9167 327.7525 279.875 328.202 280.1667 329.7378 275.4167 333.4462 275.9167 334.3827 278.25 339.2523 278.0417 345.0584 280.7917 347.1187 279.7083 348.3923 281.3333 350.1528 284.4167 346.6692 286.7083 347.6805 289.875 351.1268 292.7083 352.4378 297.2083 347.8304 297.75 345.9574 297.5833 345.2832 295.6667 344.7962 296.7083 342.3989 294.7917 339.8517 291.2083 340.9754 292 338.0911 291.7083 333.8957 289.1667 332.8469 287.9583 331.2362 288.1667 328.1271 285.9583 324.2688 284.7083 322.5457 288.7083 319.624 291.8333 320.4481 290.6667 317.6012 294.8333 316.0279 296.4167 316.6647 294.7083 319.549 296.9167 320.6728 294.4583 324.9806 294.7083 325.7672 296.0833 324.4187 299.7083 324.0066 301.5417 327.0782 304.6667 326.9659 306.7917 325.9919 306.2917 325.1679 305.9583 325.0555 305.5833 323.4447 305.1667 322.6207 305.625 321.2347 307.5833 321.0848 309.875 323.1451 308.625 325.4301 309.0417 327.1532 311.375 327.9023 313.5 325.3926 316.3333 326.7786 318.375 326.2542 320.875 327.3779 321.2917 324.7933 326.125 320.7477 328.0833 320.523 331.25 319.2494 333.8333 319.4741 333.7083 322.2835 336.25 323.4447 336.9583 325.3177 334.8333 326.7037 333.1667 328.4642 332.4167 329.4007 334.5417 329.7004 336.1667 328.1645 338.25 330.7117 338.875 328.9512 341.375 327.6027 344.7083 328.2769 344.9583 326.8535 348.25 324.9806 349.1667 328.2769 347.875 329.1759 348.6667 332.0228 351 330.974 353.4167 331.3485 355.75 332.6971 356.8333 332.4348 359.6667 328.6141 360.0417 325.5424 363.1667 326.4789 366.0833 326.0294 367.2083 324.9431 369.5417 325.6923 370.6667 328.3893 374.0833 329.9626 376.7917 330.3746 378.1667 334.2703 382.2917 335.057 385.625 335.6938 387.8333 340.7881 391.125 341.1253 391.125 339.552 394 338.8777 398 338.3159 399 339.9641 400.7917 339.8142 401.4583 341.6122 400 343.7848 399.1667 346.9688 400.7083 347.231 400 352.8124 397.8333 353.8238 401.875 358.3563 398.625 359.5175 397.0417 361.7276 393.2917 363.1885 386.8333 362.1771 385.4167 361.3155 381.9583 362.3269 379.9167 361.0908 377.5833 360.8286 374.5417 362.5517 372.25 361.6901 370.6667 359.3677 368.9167 360.454 369.125 361.765 371.4583 364.9116 369.2083 366.4848 369.125 370.6053 373.125 369.5939 374.8333 370.5304 377.4583 370.006 379.3333 373.2649 382.5417 373.7144 385.1667 375.9993 383.0833 381.7305 378.1667 382.4048 378.375 385.0269 375.9583 387.5741 373.625 387.9861 374.125 390.9454 372.4167 393.3802 372.3333 393.5675 370.1667 395.0658 369.4167 397.1635 365.4167 398.4746 361.4167 397.5007 359.25 399.2987 357.75 398.4371 355.5 399.9355 355.7083 403.8686 353.7083 405.2546 352.5833 410.1992 349.9583 408.8132 347.9167 414.6193 348.2917 416.3049 347.5 418.2903 345.8333 418.2903 344.7083 421.0247 345.3333 426.1566 343.25 429.9774 342.1667 430.3145 339.625 428.2917 336.75 427.0556 335.4583 424.7706 332.5417 422.2234 328.5417 422.4107 327.0417 423.9465 323 424.7706 318.125 422.6355 312.6667 424.3211 311.875 422.8228 311.5 420.6876 308.6667 420.6876 304.375 419.4889 304.0833 421.3993 300.0833 422.5606 297.2917 422.2234 295.7083 422.9726 295.25 425.4074 286.6667 425.782 284.6667 424.6582 282.5417 425.5198 282.1667 423.497 280.0833 423.0101 276.8333 424.0214 275.5417 425.4449 271.5417 427.58 267.5833 428.5914 265.3333 427.9171 258.7917 428.2543 256.7917 428.8536 255.875 423.984 259.1667 424.6957 258.2917 419.8635 256.5417 418.0655 251.125 418.4026 249.2083 420.2756 245.1667 419.6388 244.5833 420.0508 244.125 420.313 243.6667 420.5752 243.4583 420.2007 240.8333 422.7853 239.5417 422.3358 237.5417 423.8341 237.5833 426.4188 233.1667 430.0148 234.2917 431.4008 233.2083 434.0229 229.5833 433.8356 229.25 435.0343 226.6667 436.9822 220.7917 436.9072 220.5833 432.1125 218.8333 428.9285 215.875 429.0035 205.5833 428.4416 Z" />
    </g>
</svg>