<?xml version="1.0"?>
<svg xmlns="http://www.w3.org/2000/svg" version="1.2" baseProfile="tiny" width="800" height="828"
    viewBox="0 0 800 828" stroke-linecap="round" stroke-linejoin="round">
    <g id="Mizoram">
        <path
            d="M 682.7917 384.3901 683.4167 386.5253 682.0833 390.3835 682 392.5186 683.3333 395.9274 683.0417 398.9616 684.5833 400.2351 684.875 404.2432 683.8333 406.9028 680.8333 406.3409 679.4167 410.349 677.7917 411.3604 675.5 410.0868 671.4167 407.6894 670.9583 410.7236 668.5417 411.5102 668.7083 408.4386 668.0417 403.0446 666.0833 391.6196 664.4167 387.9487 662.3333 386.3005 662.875 383.0041 661.625 378.097 663.1667 377.3104 662.125 375.7746 659.625 367.0467 659.4167 364.7617 659.2083 362.4018 661.0417 359.6673 660.7083 355.884 661.2083 352.3254 660.25 350.6398 663.7083 350.49 664.0833 353.1121 666.7083 352.4753 667.2083 350.5649 668.875 350.3401 669.25 348.2799 671 347.6805 672.9583 343.3353 674 345.8825 676.625 346.6692 679.7083 346.0698 680.0833 350.9395 678.7917 354.1609 685.0833 356.0338 686.3333 356.7456 690.25 359.3302 691.0833 366.8594 691 370.1932 690.0833 371.0173 690.4167 373.9766 689.2083 375.5498 690.125 378.5465 689.125 382.5546 687.625 384.4276 684.7917 383.0416 682.7917 384.3901 Z" />
    </g>
</svg>