<?xml version="1.0"?>
<svg xmlns="http://www.w3.org/2000/svg" version="1.2" baseProfile="tiny" width="800" height="828"
    viewBox="0 0 800 828" stroke-linecap="round" stroke-linejoin="round">
    <g id="Nagaland">
        <path
            d="M 734.3333 305.8017 735.0417 309.8472 732.2083 311.87 730.75 314.0801 728.7083 316.6273 725.0833 317.9383 721.7917 316.3276 721.7083 314.2674 720 313.5931 718.0417 315.466 715.4583 316.365 712.375 316.5523 711.875 315.1289 709.625 315.8406 706.875 314.6045 704.9583 314.8292 700.2917 315.3911 701.375 317.4514 697.625 321.6093 695.9583 324.6434 693.125 323.4447 692.25 321.7216 691.875 318.238 688.4167 315.2787 691.0833 312.8439 693.4167 311.6827 694.25 310.1469 698.5833 306.8505 698 305.4271 700.5833 303.6665 700.625 306.9254 703.4583 307.0753 706.125 305.09 705.4583 303.6665 706.7083 298.1226 709.5417 294.1146 711.1667 293.253 711.7083 290.4061 714.4583 287.5218 715.25 290.2563 717.625 288.271 717.6667 286.1733 722.6667 283.0642 726.75 282.39 728.25 281.1164 730.2917 278.0448 731.875 276.9585 733.4583 277.9324 736.7083 276.6213 739.2917 274.636 740.2083 277.6702 739.4583 279.7679 740.3333 284.2255 735.625 290.556 737.2917 293.3279 737.125 299.8832 739 300.8197 737.375 303.1796 734.3333 305.8017 Z" />
    </g>
</svg>