<?xml version="1.0"?>
<svg xmlns="http://www.w3.org/2000/svg" version="1.2" baseProfile="tiny" width="800" height="828"
    viewBox="0 0 800 828" stroke-linecap="round" stroke-linejoin="round">
    <g id="Odisha">
        <path
            d="M 480.0833 410.2366 481.875 409.7871 482.8333 412.2219 485.9167 412.2594 488.9583 408.6634 489.5833 406.6406 488 405.0673 489.5 402.7074 489.2083 400.1977 487.7083 398.587 490.5417 396.6391 491.9583 398.5495 496.4167 399.5983 498.5 402.2954 500.4167 403.1944 502.25 402.3703 503.8333 403.6814 508.5417 405.9289 511.5417 409.1503 515 409.4875 516.75 410.7611 516 414.1698 518.7083 415.5183 518.9167 413.8701 522.5833 412.7838 522.75 415.7805 523.6667 417.1665 528 418.1404 529.1667 422.2983 527.0833 424.2087 521.9583 424.4709 520 425.1827 514.5833 429.3031 512.125 433.2363 511.9583 436.4952 515.3333 442.8632 515.0833 444.7361 512.2917 444.9609 510.6667 446.2719 512.1667 445.1856 516.5833 445.298 517.5 446.8338 510.2083 451.7409 508.7917 453.7262 509.875 457.1724 507.25 459.1203 503.25 461.3678 498.7917 466.7993 494.9167 469.0094 485.5833 471.4067 479.9583 473.2422 471.0833 477.5125 466.1667 480.8089 463.625 483.3186 460.9583 484.9293 456.3333 489.2745 455.0833 491.4472 453.3333 490.3234 451.2083 491.2224 450.3333 492.908 448.25 492.1963 445.75 494.9308 446.0833 495.6051 442.9167 499.3135 440.3333 499.0138 436.6667 500.1376 435.2083 498.5269 431.25 498.5643 428.5833 493.0579 427.3333 493.7321 427.5833 495.9797 425.0417 490.8478 423.5417 490.9227 420.0833 492.6084 419.5 494.7435 416.4583 493.0579 415.625 494.2566 418.2083 496.991 412.5417 500.2874 410.6667 499.3884 406.9583 504.2206 408.1667 505.9437 407.5 508.341 409.0833 509.8019 406.125 510.9632 404.0833 510.4013 401.7083 508.4909 400.7917 511.4876 395.7083 513.2481 396.25 510.8133 392.9583 506.3932 391.375 507.5544 389.5833 509.315 390.1667 510.7759 388.2917 515.7579 389.2917 516.095 388.4167 519.5787 386.5417 521.0021 384.2917 519.3539 380.5833 518.9044 379.1667 520.4402 374.5417 521.976 372 524.1861 369.2917 525.6095 363.2917 525.7594 363.375 523.6991 365.625 521.4141 365.5833 519.3914 366.7917 516.6194 366.9167 514.2595 370.4167 511.3377 372.9167 511.1504 373.4583 509.3899 377.2917 505.2694 377 502.7972 382.2083 500.6995 384.0417 499.3135 384.5417 496.2044 386.4167 495.7549 385.3333 490.2485 384.125 488.0384 384.875 481.8952 383.1667 481.8577 382.4583 479.4604 380.5 479.7226 381.3333 476.4262 381.5 472.0061 379.3333 471.7064 378.875 470.1331 376.1667 468.9719 375.5 467.6234 376.3333 464.9264 376.3333 464.8889 378.25 463.428 380.2083 464.9638 381.625 464.7391 384.75 466.7244 387.0417 466.9866 389.125 470.7699 391.875 468.7472 394.2083 469.6087 395.9167 472.4181 398.7083 470.9198 399.2917 466.612 390.5833 464.7765 390.25 462.3417 391.2083 460.731 390.625 457.0226 391.6667 454.4754 388.7917 450.9917 390 449.0813 389.3333 447.2084 388.9583 442.4886 392.25 443.7997 393.0417 441.5521 395 440.5033 397.125 436.645 397.1667 434.847 406.0417 434.2851 409.0833 436.0082 412.2083 435.2591 414.2917 428.7787 414.375 428.7787 414.4583 428.7787 417.6667 429.7152 417.8333 428.0295 416.1667 425.4074 417.4167 422.1485 420.25 421.5117 419.5417 420.0508 423.0833 416.5672 421.6667 412.7464 421.625 410.5738 424.0833 406.266 428.8333 403.7937 430.5 402.4452 434.5 401.696 435.5 399.0365 434.5417 397.4257 437.25 398.8117 439.5833 401.5087 442.1667 402.4827 445.9167 402.2205 448.7917 400.1602 454.6667 400.385 456.2917 399.4485 460.3333 399.6733 463.375 398.4371 463.5833 404.8051 462.25 408.4761 466.375 409.8246 467.9583 411.5477 468.9583 409.5624 472.2917 407.3523 480.0833 410.2366 Z" />
    </g>
</svg>