<?xml version="1.0"?>
<svg xmlns="http://www.w3.org/2000/svg" version="1.2" baseProfile="tiny" width="800" height="828"
    viewBox="0 0 800 828" stroke-linecap="round" stroke-linejoin="round">
    <g id="Punjab">
        <path
            d="M 211.7917 125.4004 214.375 128.5844 212.7917 128.547 210 131.4688 206.375 132.4801 207 135.5892 205.375 136.7879 205.2917 137.0876 206.8333 137.2374 213.7917 140.6836 215.1667 143.2308 215.1667 145.291 216.7083 149.374 219.5417 153.0075 221.7083 158.3267 224.125 158.2143 226.9167 155.33 228 157.6899 229.7917 159.2257 232.25 159.1133 233.8333 160.8739 233.25 166.605 236.2083 168.2907 237.4167 169.1897 239.2917 171.1001 239.0833 173.2727 235.5833 173.0854 236.375 174.9583 238.7917 175.258 241.4583 177.2059 240.9583 181.3263 240.7083 181.7009 241.0833 182.2253 236.625 182.1504 235.625 184.9598 231.5417 187.2448 233.75 189.7545 233.625 189.8295 231.9583 191.0656 228.9583 191.1405 227.4167 189.8669 223.1667 191.4027 220.9167 195.8229 222.0833 198.1828 218.9167 199.0068 217.5833 200.7299 214.7917 201.2169 210.2083 198.6697 208.625 198.8945 204.7917 200.9172 201.5417 199.0818 198.4167 202.1159 197.25 205.8243 193.5833 202.9026 195.5833 200.6176 194.2083 198.0704 192.2083 198.4075 188.9167 197.4336 187 195.1861 183.875 194.0248 180.9583 194.5118 179.375 196.2349 176.0833 195.4483 173.9583 195.261 169.875 195.0737 158.875 194.5493 159.125 192.4516 161.0833 190.5786 160.875 188.5559 160.6667 186.4582 158.4583 184.0234 160.7917 182.2628 160.75 180.6146 167.625 174.9958 171.7083 169.4894 178 165.5562 181.0417 164.6197 180.5417 163.0839 175.6667 162.9715 176.7917 156.641 179.5 154.1313 178.4167 152.9701 175.4583 146.4148 177 145.9278 177.3333 143.7178 179.9167 141.4328 183.7083 140.3465 186.625 138.1364 189.3333 138.3612 192.3333 137.125 193.75 137.4996 199.3333 134.3531 199.375 131.9932 198.2917 129.8955 202.9583 130.9443 205.25 129.0339 207.7083 128.6968 208.8333 127.0112 211.7917 125.4004 Z" />
    </g>
</svg>