<?xml version="1.0"?>
<svg xmlns="http://www.w3.org/2000/svg" version="1.2" baseProfile="tiny" width="800" height="828"
    viewBox="0 0 800 828" stroke-linecap="round" stroke-linejoin="round">
    <g id="Rajasthan">
        <path
            d="M 214.4167 250.2878 215.4583 252.3481 218.3333 252.6477 221.0417 253.809 222.375 252.8725 220.8333 250.9621 220.5833 248.3775 223.3333 246.5045 224.9167 247.8905 226.0417 244.9313 224.75 243.4704 231.0417 247.4035 230.9167 249.0143 234.4583 247.9654 234.9583 245.9426 237.9167 244.2945 239.5 242.3091 242.6667 244.5567 241.5833 248.4898 241.9167 252.6103 240.5417 255.607 242.875 257.7421 244.7083 253.2096 251.2083 253.809 253.0833 257.8171 252.75 261.2258 255.4167 263.1362 261.0833 268.9798 261.4167 270.9276 258.5 272.5383 261.5 276.3591 256.8333 278.2695 254.3333 280.1799 255.875 282.5773 257.7917 280.517 263.1667 278.9812 264.2083 277.408 270.375 278.6066 273.75 278.4194 274.7917 276.9585 278.125 277.7451 276.7917 280.1425 273.7917 281.1538 273.1667 284.4128 270.75 283.8883 268.125 284.8623 265.9167 287.8215 263.7917 288.1586 258.1667 291.6048 255.4167 291.8296 253.7083 292.8784 250.875 295.538 246.75 296.9989 243.4583 299.2839 240.7917 300.2953 239.4583 301.9434 237.7083 304.3408 235.75 305.502 233.75 305.3147 231.125 307.2251 229.9583 311.7951 230.2917 315.6908 232.4167 318.9497 234.5 320.5604 237 321.3471 239.5833 321.0099 242 322.321 245.75 320.8976 249.5833 321.3845 249.875 319.7363 252.0417 318.3129 253.5 318.8748 254.7083 323.9692 254.2083 326.816 252 327.8649 250.8333 326.9284 248.25 327.0408 245.8333 328.5766 243.5 328.0147 240.125 328.9512 239.7083 331.1238 242.125 333.6335 238.1667 335.3192 239.5417 337.0423 242.0417 336.6302 244.4167 338.0162 245.375 342.1367 242.875 344.7588 239.7083 342.3614 238.5 342.7735 239.25 345.433 238.9167 347.5682 239.75 349.8906 241.375 351.5388 240.25 353.7489 238.0833 354.1235 234.6667 352.1007 233.7917 349.9655 231.7917 351.6137 230 351.7636 225 350.6398 222.0417 351.6137 219.4583 352.0258 219.7083 354.9101 217.375 355.5094 214.5417 360.1168 210.625 360.9409 207.7917 364.1998 204.875 362.8888 204.375 361.2406 201.5833 359.555 203.2083 356.6332 208.125 358.2439 211.7917 355.7716 209.4583 353.4117 211.1667 350.6398 208.8333 346.5193 210.4167 344.9835 213.5417 345.2457 214.0833 342.5112 211.4583 339.14 210.375 336.5553 205.5833 338.7279 203.9583 338.166 201.4167 338.7654 194 336.9299 198.1667 331.3485 198.5833 329.5505 194.2083 329.0636 192.0833 330.974 192.1667 333.4088 190.0417 334.2703 187.875 333.9332 186.3333 331.9853 184.25 332.8094 185.2083 335.5439 188.375 336.4804 188.7917 338.4282 185.9583 340.039 183.6667 337.267 182.7917 339.2898 183.1667 341.35 180.75 344.1594 183.9583 344.534 185.0417 345.7702 183.0417 348.0926 182.2917 350.7147 185.375 350.6772 186.5 351.5388 185.7083 352.5876 188.2917 356.2211 186.3333 360.7536 187.375 363.7129 186.875 366.4099 184.8333 369.519 182.7917 369.7812 177.3333 373.115 176.1667 375.8121 181.75 378.5465 175.5417 382.255 172.25 381.5058 170.4583 382.9292 168.5 379.5579 165.2083 379.7827 165.5417 377.3104 161.25 375.3626 160.625 374.2013 158.7917 375.4375 157.125 372.9652 155.0833 372.1786 151.5833 372.3284 152.375 367.6461 150.0833 366.747 148.75 368.0206 147.4167 365.3611 144.5417 362.3644 144.7917 359.9296 145.8333 359.3677 145.5417 356.1837 143.125 355.8466 141.125 357.27 140.3333 355.2098 137.9167 353.8987 136.3333 352.0258 138.625 347.6431 136.5833 346.5193 136.875 343.7474 134.5417 344.2343 133.375 347.4933 127.0833 347.306 125.875 344.6839 121.4167 343.6725 120.875 345.9574 116.875 341.9494 116.375 340.0764 111.75 340.3761 108.8333 337.9038 105.0417 338.9901 101.5833 338.8777 97.875 339.8891 96.5833 338.8777 93.0417 338.8028 90.2917 340.2637 87.8333 340.5259 85.125 339.5895 83.0417 338.9152 78.2917 331.7231 76.9583 326.0294 73.2083 322.5083 70.875 319.2494 71.125 311.6452 69.3333 310.5964 67.2083 311.458 63.2917 311.7202 60.0833 310.6339 55.4583 304.4906 55.0417 300.5575 56.5833 298.5722 57.5 295.9875 57.7917 292.6162 57.5 287.784 54.2917 286.473 49.6667 287.0349 47.0833 286.5104 45.125 284.9746 39.4167 282.5773 38.7083 280.8916 39.5 275.3103 41.5 270.553 49.0417 264.5971 50.9583 262.0124 53.4583 260.2519 56.375 253.6217 58.9167 251.037 62.875 248.0029 66.5833 247.3286 68.7917 248.0403 71.2083 250.4751 71.375 253.0223 73.4167 255.9067 77.4583 256.2438 85.5833 252.7976 90.4167 251.7862 98.1667 251.6364 103.8333 249.5387 104 250.6624 105.2917 245.0062 107.125 242.6463 110.8333 239.7994 112.875 237.5893 115.4167 230.0976 118.25 226.9885 125.2917 223.9918 127.2083 222.4935 133 220.3209 134.625 216.9121 136.7917 214.6646 142.2083 205.4872 145.3333 195.2984 150.75 193.3131 156.4583 192.0021 160.875 188.5559 161.0833 190.5786 159.125 192.4516 158.875 194.5493 169.875 195.0737 173.9583 195.261 176.0833 195.4483 177.0417 197.3961 174.9583 198.8945 174.8333 200.7674 178.5417 200.5801 177.4167 205.712 178.7083 206.611 177.6667 208.5963 178.1667 211.1435 183.2083 211.2184 184.9167 210.0946 187.2917 211.2184 187.9167 213.4285 190.375 213.2786 191.2083 214.8519 195.5417 213.9903 198.4167 213.3535 200.0417 213.9903 199.6667 219.3844 201.0417 219.4968 203.375 221.8567 201.9167 223.0928 203.1667 225.6025 204.2917 231.6334 205.9583 231.9331 207.25 234.1806 213.3333 237.7017 217.75 242.3091 216.2083 244.9687 216.4583 246.7293 215.5 250.1755 214.4167 250.2878 Z" />
    </g>
</svg>