<?xml version="1.0"?>
<svg xmlns="http://www.w3.org/2000/svg" version="1.2" baseProfile="tiny" width="800" height="828"
    viewBox="0 0 800 828" stroke-linecap="round" stroke-linejoin="round">
    <g id="Telangana">
        <path
            d="M 319.9583 477.7747 321.5417 479.6477 323.7083 480.734 324.625 482.6818 323.2917 489.2371 321.375 490.7729 323.5833 492.6084 324.1667 497.2158 322.875 498.3021 325.75 499.8005 328.4583 502.2727 332.75 501.1864 335.375 504.1457 337.625 503.6212 342.5833 506.543 344.4583 508.828 345.625 512.3866 345.8333 516.1699 348.4583 515.196 348.8333 516.994 351.9167 516.2823 351.6667 519.5037 352.9167 526.3962 354.7917 526.3212 354.0833 528.0818 351.75 526.8082 349.375 528.0069 350.0417 530.6664 353.0417 533.8879 360.9167 536.8846 359.9583 539.3943 357.6667 539.207 357.2083 541.7542 352.3333 542.8405 350.875 542.0914 349.2083 543.6646 349.125 546.1369 348.25 546.961 344.2917 545.7623 341.0417 543.8894 339 546.1744 335.125 548.6841 339.7917 549.0961 341.625 550.2574 340.5833 552.6173 340.75 554.3778 334 551.3437 333.5833 548.759 330.3333 547.4854 326.75 548.8339 326.2917 550.2948 327.2083 553.0293 326.75 555.0146 323.8333 557.9739 321.875 556.2882 319.5833 555.539 316.5 556.4006 312.75 558.0488 310.1667 558.4234 309.375 559.4722 305 559.8843 303.9583 561.3451 303.7083 565.578 303.8333 569.1366 302.2917 569.5861 298.7917 568.7245 295.375 570.2978 295.875 571.946 290.9167 575.055 287.125 572.9948 285.75 574.1186 281.9167 573.257 277.7083 575.055 277.5 576.0664 275.5 579.1755 273 579.625 267.6667 577.8644 265.375 578.726 261.4583 578.4263 257.5 577.2651 257.125 569.2489 259.6667 565.9526 256.8333 564.7913 254.7917 565.2783 251.3333 564.1546 250.0833 562.394 254.8333 561.1953 255.8333 558.4983 255.0833 555.6514 256.4583 553.8159 256 551.1938 256.2083 549.2834 257.0417 546.8861 256.125 545.0506 253.4167 543.7395 253.8333 541.979 256.6667 538.3829 257.4583 536.3227 262.1667 534.1126 256.9583 532.6143 256.2083 532.3146 255.5833 532.1273 255.8333 529.1306 258.125 526.8082 259.4583 523.3245 261.375 521.6389 258.4167 519.279 259.7917 518.2676 258.8333 515.4582 259.875 513.2856 258.5 512.8361 257.7917 510.6635 259.4167 508.6407 259.75 505.8313 263.625 505.644 263.375 502.6473 264.9583 502.1978 266.375 498.864 269.3333 497.8151 266.4583 496.0546 265.2083 491.5595 266.9167 488.6378 267 485.2665 269.2083 484.2176 271.875 486.1655 275.5 487.0645 276 484.9293 276.5 481.8952 279.1667 480.4343 279.0833 477.0255 278.25 474.7031 280.0833 474.1038 280.6667 472.2683 279.0833 468.7097 281.125 469.5713 282.5 471.3693 286.4167 471.2569 293.6667 472.7927 294.1667 474.778 296.7917 475.677 296.25 478.5614 300.625 479.0483 303.1667 481.0336 304.875 477.4001 307.9583 477.8496 310.8333 479.9099 318.25 476.9506 319.9583 477.7747 Z" />
    </g>
</svg>