<?xml version="1.0"?>
<svg xmlns="http://www.w3.org/2000/svg" version="1.2" baseProfile="tiny" width="800" height="828"
    viewBox="0 0 800 828" stroke-linecap="round" stroke-linejoin="round">
    <g id="Tamil Nadu">
        <path
            d="M 325.4583 677.3548 322.0833 682.5241 321.3333 682.9362 321.3333 684.0974 320.875 685.4834 319.375 685.371 316.6667 687.5436 320 688.5175 319.9583 688.8172 319.6667 690.1283 318.7083 694.5484 318.875 697.3203 320.125 699.9799 321.3333 706.7225 321.1667 711.9292 318.375 711.6296 317.7083 713.465 320.2917 714.8136 321.125 716.237 321.75 728.973 321.4167 731.0707 318.9167 731.3703 310.8333 730.1716 308.5417 730.1342 305.25 732.5315 304.1667 735.0413 304.8333 737.4012 301.375 741.9711 301.2917 742.0461 301.25 742.7952 301.1667 742.8702 297.4583 747.2528 296.0833 749.8 295.25 753.2462 297.5417 756.2429 299.75 757.8911 302.2917 758.2657 307.125 757.554 306.25 759.352 303.5417 758.453 300.4167 758.9399 297.5 758.5654 294.5 759.0149 286.5 762.4611 282.2917 762.8357 281.2083 763.4725 276.9583 766.7314 275.4167 769.2036 275.125 771.3388 276.0417 772.7997 274.5 774.7475 274.625 779.6172 272.2917 782.951 269.9167 784.1497 266.4167 786.4347 265.125 788.832 259.5417 789.4688 258.625 791.1919 255.625 790.705 249.8333 788.3451 246.1667 785.3109 250.625 779.4673 250.8333 777.5195 248.125 773.0619 248.9167 772.2753 250.4583 769.316 248.75 768.0424 247.5417 765.7574 249.0417 764.1093 250.7917 761.8617 251.1667 757.8911 252.75 754.5947 254.4583 751.7104 252.1667 749.6127 250.8333 750.4368 248.0417 749.3505 250.2083 744.2561 249.2917 742.121 250.6667 738.0005 250.7917 735.4533 251.3333 732.4566 248.4167 729.0479 245.9583 730.2091 244.875 731.6325 243 732.7938 240.75 731.8947 240.7083 731.8573 240.5417 731.7075 238.9583 729.5348 238.4583 727.2499 239.0833 722.5301 240.9583 717.4731 238.875 715.0758 234.125 713.2028 236.7917 709.382 235.1667 706.9847 235.5 704.9994 233.375 706.2355 228.2917 706.0482 230.4583 704.1753 231.1667 701.7405 228.7917 700.9538 222.625 697.1705 226.5417 695.1477 227.625 693.2373 230.1667 692.3383 231.5 694.5858 236.875 694.6982 239.3333 695.335 239 693.6868 241 689.866 243.8333 689.3416 246.5 690.4654 251.4583 689.4915 255.1667 690.6152 256.9583 685.8205 261.9167 685.5958 262.7917 683.3108 264.625 681.2131 263.8333 680.0519 260.125 678.6659 257.25 678.8906 256.3333 677.6545 258.5 676.3434 260.25 674.2832 260.7917 670.9868 259.5 670.2751 259.875 666.0798 263.625 665.9674 265.0833 663.8697 266.125 660.6857 267.0833 660.5733 268.7917 660.0114 270.1667 661.5098 272.2917 661.0603 274.375 662.9707 277.0417 663.57 278.9583 666.1547 281.9583 667.2035 286.875 662.9707 287.1667 661.285 287.6667 657.277 291.2083 655.5539 295.0417 654.4301 297.8333 654.6923 302.4167 656.4903 304.375 654.1679 304.2083 652.7444 305.7083 653.6809 309.9167 651.9204 309.0417 647.9123 312.625 647.7999 312.5417 649.523 316.5833 648.9611 317.125 650.9839 319.625 650.4969 320.0417 648.3992 323.75 647.1256 326.25 642.3684 327.375 643.7169 331.0833 643.6794 332.5417 641.6567 334.125 644.9156 334.625 649.523 333.4167 653.1565 332.0417 660.9105 332.1667 663.0456 329.75 669.8631 329 673.0845 325.4583 677.3548 Z" />
    </g>
</svg>