<?xml version="1.0"?>
<svg xmlns="http://www.w3.org/2000/svg" version="1.2" baseProfile="tiny" width="800" height="828"
    viewBox="0 0 800 828" stroke-linecap="round" stroke-linejoin="round">
    <g id="Tripura">
        <path
            d="M 645.625 377.3104 647.1667 380.6068 646.9167 382.8543 644.5833 384.9145 640.6667 385.5139 639.75 384.5774 638.7917 379.5579 637.3333 377.4602 633.6667 377.0107 631.9167 371.317 629.3333 368.3578 629.2083 364.3497 631.125 364.6119 631.7083 361.9523 630.9167 360.6038 633.125 357.3824 635.125 357.27 637.75 355.6218 642.125 354.498 642.8333 352.2505 645.5417 353.4492 645.2917 350.6398 648.375 352.3254 650.125 354.3482 650.625 350.1528 650.0833 348.0926 651.4167 346.8939 654.125 347.0438 656 345.7327 656.4583 342.9982 658.0417 343.4477 659.2917 347.5307 658.1667 349.516 660.25 350.6398 661.2083 352.3254 660.7083 355.884 661.0417 359.6673 659.2083 362.4018 659.4167 364.7617 657 365.2862 655.4583 364.6119 653.8333 367.0467 650.5 365.7731 651.5 371.4668 650.625 372.9277 648.5417 372.4033 646.875 370.5304 647.7917 374.4635 645.625 377.3104 Z" />
    </g>
</svg>