<?xml version="1.0"?>
<svg xmlns="http://www.w3.org/2000/svg" version="1.2" baseProfile="tiny" width="800" height="828"
    viewBox="0 0 800 828" stroke-linecap="round" stroke-linejoin="round">
    <g id="Uttar Pradesh">
        <path
            d="M 291.4583 213.878 294.5833 215.4887 296 217.8486 297.2917 217.5115 298.9583 216.4626 302.1667 217.9235 301.875 219.2346 305.0417 221.2948 309.0833 222.3811 309.5 223.8794 313.9167 225.2654 316.5833 225.0407 320.3333 224.1417 324 228.6367 326.0417 227.925 327 225.5276 328.5 225.7898 332.7917 228.9364 333.7917 231.1839 337.75 231.2963 340.2917 229.4983 343.4167 230.8093 344.7083 232.8321 353.9167 237.2897 358.2917 238.5633 358.8333 240.4362 361.2083 242.9459 364.0833 243.6577 365.5 246.055 372.7083 249.6136 376.5833 252.2357 378.6667 250.4002 381.625 250.4002 383.0417 251.9735 385.375 252.5728 391.9583 257.0679 397.8333 255.8692 398.9583 256.3936 400.25 259.5776 399.6667 262.3121 405.0417 261.9375 407.9167 263.3609 412.125 263.2111 414.9167 266.4326 416.3333 266.4326 418.125 264.2974 417.75 262.4994 423.7083 262.7991 429.625 265.4961 430.4583 266.4326 431.7083 268.0807 434.0417 270.8152 433.25 273.2875 435.5833 274.3738 435.875 278.6441 441.2917 280.8916 443.2083 284.188 445.625 285.6114 441.875 286.473 437.2917 285.6489 435.625 287.784 431.9167 289.1326 431.7083 290.6309 438.5 292.5788 439.0417 295.6129 436.5833 296.8491 435.75 300.108 442.2917 304.3033 443.875 303.9288 447.0833 306.0264 451.25 308.4987 450.5833 310.1094 449.4167 311.5329 443.375 309.8098 442.9167 311.87 439.8333 311.8325 438.0417 310.1469 436.25 311.1208 436.4167 312.7316 432.3333 314.8667 430.0417 318.238 428.2083 319.2119 427.1667 318.8748 424.6667 320.8226 421.625 321.6467 416.5 325.0555 416.5417 329.8127 417.75 336.0309 420.2917 337.267 421.4167 339.7768 421.25 342.324 420.6667 342.9982 417.875 343.7474 417.3333 348.7669 418.125 350.0404 415.9583 354.5355 412.625 359.4426 409.4583 360.8286 405.5417 360.8286 401.875 358.3563 397.8333 353.8238 400 352.8124 400.7083 347.231 399.1667 346.9688 400 343.7848 401.4583 341.6122 400.7917 339.8142 399 339.9641 398 338.3159 394 338.8777 391.125 339.552 391.125 341.1253 387.8333 340.7881 385.625 335.6938 382.2917 335.057 378.1667 334.2703 376.7917 330.3746 374.0833 329.9626 370.6667 328.3893 369.5417 325.6923 367.2083 324.9431 366.0833 326.0294 363.1667 326.4789 360.0417 325.5424 359.6667 328.6141 356.8333 332.4348 355.75 332.6971 353.4167 331.3485 351 330.974 348.6667 332.0228 347.875 329.1759 349.1667 328.2769 348.25 324.9806 344.9583 326.8535 344.7083 328.2769 341.375 327.6027 338.875 328.9512 338.25 330.7117 336.1667 328.1645 334.5417 329.7004 332.4167 329.4007 333.1667 328.4642 334.8333 326.7037 336.9583 325.3177 336.25 323.4447 333.7083 322.2835 333.8333 319.4741 331.25 319.2494 328.0833 320.523 326.125 320.7477 321.2917 324.7933 320.875 327.3779 318.375 326.2542 316.3333 326.7786 313.5 325.3926 311.375 327.9023 309.0417 327.1532 308.625 325.4301 309.875 323.1451 307.5833 321.0848 305.625 321.2347 305.1667 322.6207 305.5833 323.4447 305.9583 325.0555 306.2917 325.1679 306.7917 325.9919 304.6667 326.9659 301.5417 327.0782 299.7083 324.0066 296.0833 324.4187 294.7083 325.7672 294.4583 324.9806 296.9167 320.6728 294.7083 319.549 296.4167 316.6647 294.8333 316.0279 290.6667 317.6012 291.8333 320.4481 288.7083 319.624 284.7083 322.5457 285.9583 324.2688 288.1667 328.1271 287.9583 331.2362 289.1667 332.8469 291.7083 333.8957 292 338.0911 291.2083 340.9754 294.7917 339.8517 296.7083 342.3989 295.6667 344.7962 297.5833 345.2832 297.75 345.9574 297.2083 347.8304 292.7083 352.4378 289.875 351.1268 286.7083 347.6805 284.4167 346.6692 281.3333 350.1528 279.7083 348.3923 280.7917 347.1187 278.0417 345.0584 278.25 339.2523 275.9167 334.3827 275.4167 333.4462 280.1667 329.7378 279.875 328.202 279.9167 327.7525 280.9167 327.3779 282.9167 326.7411 281.375 324.4561 280.125 321.1223 280 318.7249 280 318.2754 280.4167 317.751 281.5 317.9758 282.0833 317.0768 282.1667 315.5784 283.0417 314.4921 288.6667 314.8292 290.2917 313.5931 292.8333 313.1811 291.5417 310.4466 294.875 305.2023 296.2917 304.116 296.5833 302.0558 298.2917 300.5575 297.8333 297.4484 301.75 293.5901 301.6667 290.8182 297.7083 287.0349 298.1667 284.5251 294.5 283.8134 292 281.8656 285.5833 282.0154 281.5 280.5545 280.5 279.1311 276.7917 280.1425 278.125 277.7451 274.7917 276.9585 273.75 278.4194 270.375 278.6066 264.2083 277.408 263.1667 278.9812 257.7917 280.517 255.875 282.5773 254.3333 280.1799 256.8333 278.2695 261.5 276.3591 258.5 272.5383 261.4167 270.9276 261.0833 268.9798 255.4167 263.1362 252.75 261.2258 253.0833 257.8171 251.2083 253.809 252.875 252.423 254.9583 252.2732 257.9167 250.3253 258.25 248.6022 256.4583 246.0176 257.125 242.7212 257.25 238.2261 252.9583 234.1431 251.5833 232.8695 252.7917 231.7083 252.125 230.8468 251.625 229.0113 249.7083 227.3631 249.1667 226.7638 249.5417 225.6775 249.375 225.0781 249.8333 223.2801 248.0417 220.171 247.375 216.5375 247.7083 212.979 246.9583 211.5555 247.0833 207.8846 246.375 203.839 247.625 202.3407 246.75 200.5052 248.2083 199.1567 249.6667 195.4857 255.9167 189.38 259.375 185.4468 259.2917 183.4989 259.1667 182.8996 261.4167 182.8996 263.1667 184.8474 269.625 187.2448 266.9167 190.7285 265.3333 191.2154 263 196.9466 265.8333 202.7153 268.75 201.629 271.2917 205.225 274.2917 203.3146 276.2917 200.9922 279.875 199.344 284.6667 201.3293 285.25 203.6517 287.5417 205.8618 292.5417 208.409 295.9583 209.1207 293.9167 211.593 291.4583 213.878 Z" />
    </g>
</svg>