<?xml version="1.0"?>
<svg xmlns="http://www.w3.org/2000/svg" version="1.2" baseProfile="tiny" width="800" height="828"
    viewBox="0 0 800 828" stroke-linecap="round" stroke-linejoin="round">
    <g id="Uttarakhand">
        <path
            d="M 328 172.3362 329.9583 171.8118 332.0417 173.5349 331.0417 177.9176 336.625 179.5283 339.9583 181.626 341.7917 180.9892 344.5417 182.4501 347.125 184.9973 352.4583 186.5331 353.7083 188.1064 350.5417 189.0803 346 192.489 343.625 194.9988 341.625 194.9988 340.3333 197.9205 337.0833 199.1567 335.2083 200.9172 336.375 204.8504 334.5417 207.1729 331.8333 208.9709 333.9167 212.8666 332.2917 215.9757 329.1667 218.2981 328.4583 221.5945 327.25 222.6808 327 225.5276 326.0417 227.925 324 228.6367 320.3333 224.1417 316.5833 225.0407 313.9167 225.2654 309.5 223.8794 309.0833 222.3811 305.0417 221.2948 301.875 219.2346 302.1667 217.9235 298.9583 216.4626 297.2917 217.5115 296 217.8486 294.5833 215.4887 291.4583 213.878 293.9167 211.593 295.9583 209.1207 292.5417 208.409 287.5417 205.8618 285.25 203.6517 284.6667 201.3293 279.875 199.344 276.2917 200.9922 274.2917 203.3146 271.2917 205.225 268.75 201.629 265.8333 202.7153 263 196.9466 265.3333 191.2154 266.9167 190.7285 269.625 187.2448 263.1667 184.8474 261.4167 182.8996 259.1667 182.8996 265.7083 180.0527 265.7917 178.5544 262.6667 173.0105 265.4583 170.5757 266.0833 165.781 267.0417 163.6083 269.8333 161.8478 273.5417 161.5107 277.4583 160.312 279.2083 158.8511 280.8333 158.7762 283.9167 161.1735 287.3333 160.3494 289.0417 161.211 292.7917 161.1735 294.875 163.908 298.2083 163.5709 297.5833 161.8478 294.75 158.8511 296.4583 156.6036 298.1667 156.2664 299.9583 154.1687 301.75 154.7681 302.5417 156.7534 304.3333 157.5026 304.0417 159.4879 306.0417 160.6491 306.6667 162.8966 309.0833 164.5823 311.7917 165.706 314.375 168.4031 317.9167 167.1669 321.5417 167.3168 322.2083 168.8151 326.7083 170.8379 328 172.3362 Z" />
    </g>
</svg>