<?xml version="1.0"?>
<svg xmlns="http://www.w3.org/2000/svg" version="1.2" baseProfile="tiny" width="800" height="828"
    viewBox="0 0 800 828" stroke-linecap="round" stroke-linejoin="round">
    <g id="West Bengal">
        <path
            d="M 546.625 420.6876 544.0833 420.313 546.0417 416.1176 547.75 416.6421 547.875 418.9645 546.625 420.6876 Z M 570.875 417.8408 573 421.287 571.5 422.4107 570.875 417.8408 Z M 543.1667 405.1422 543.625 406.3035 546.9167 406.753 548.2917 408.963 544.9583 411.3229 542 416.4173 537.4583 420.0134 534.3333 421.3244 529.1667 422.2983 528 418.1404 523.6667 417.1665 522.75 415.7805 522.5833 412.7838 518.9167 413.8701 518.7083 415.5183 516 414.1698 516.75 410.7611 515 409.4875 511.5417 409.1503 508.5417 405.9289 511.4167 402.9322 511.75 400.9094 509.5417 400.1977 510.5417 398.512 509.5833 396.1147 506.6667 396.1147 506.2083 393.9046 503.9583 392.3688 500.125 390.2711 500.5833 386.5627 502.375 384.7272 495.2917 384.6523 489.9167 380.6068 485.5833 380.0074 483.7917 377.2355 485.5417 375.0254 484.875 372.8528 485.5833 371.3919 489.7917 370.9799 490.9583 369.1444 493.0417 369.3317 493.5417 371.7665 497.1667 373.3398 498.6667 370.0809 501.9583 367.234 508.125 365.5109 510.5417 365.5109 511.25 363.7129 510.5417 361.8399 513.6667 360.5289 518.2917 362.4393 519.5 361.3155 522.3333 361.2406 524 360.0045 522.3333 356.6332 525.125 356.371 527.9583 357.7944 533.1667 352.8499 533.375 350.3776 535.2083 350.2277 537.7917 346.8939 537.5833 341.4249 540.2083 341.9119 540.7083 337.6416 538.8333 337.0048 540.25 334.0081 542.125 332.2101 541.9583 330.7867 537.625 327.6776 537.2083 326.1418 537.1667 323.2575 535.3333 323.0327 536.75 322.8454 538.25 323.4822 539.0417 321.9464 537.3333 320.7852 536.875 318.7249 539.5833 316.5149 542.125 315.3911 545.0417 316.8895 543.7917 313.8179 544.5833 310.971 542.3333 310.2967 540.2917 306.4759 538.5 305.8017 538.375 304.5655 539.0417 303.0297 538.875 302.9174 539.2083 302.0184 539.125 301.7561 542.5417 298.9093 545.2083 298.0477 547.2083 295.9875 550.8333 293.8149 549.75 290.3312 546.2083 287.8964 547.5833 285.4616 548.2917 281.7906 546.5 276.921 543 272.6133 544.25 269.5791 545.8333 271.939 547.4167 272.5758 550.875 271.9765 554.7917 273.6246 557.7083 270.7778 559.5 270.4406 562.875 271.7892 566.7917 272.6133 566.875 276.509 568.2917 275.7223 572.875 278.6066 572.9167 279.9177 573.9583 280.8542 577.4167 280.8167 580.6667 279.5431 582.8333 281.0789 585.375 280.6669 587.7917 282.3525 591.25 283.776 593.6667 283.8134 594.1667 286.0984 593.2083 291.5299 593.4167 292.3915 591.75 293.2156 589.5417 296.8865 590.3333 298.1601 587.75 296.5868 587.0417 298.6471 588.1667 301.0819 585.2083 302.6552 579.9583 302.5428 576.7083 299.4337 574.6667 299.0217 573.0833 292.1667 570 290.6309 568 292.4664 570.0833 293.2905 568.4583 295.0885 563.9167 293.8524 562.3333 292.2791 557.6667 289.7694 554.6667 287.4844 554.125 285.2743 552.2917 289.2824 556.4167 290.2563 557.25 292.8784 554.1667 293.8149 552.7917 296.7741 548.0833 298.7594 545.75 304.7154 545.9583 307.4499 547.125 308.4238 550.5 308.7609 555.5833 311.9824 555.375 313.8553 560.8333 317.0393 565.3333 315.8032 566.0833 320.1484 570.125 322.6207 568 325.1679 565.1667 325.4301 563.2083 324.6434 555.0833 324.606 555.5417 327.9023 553.9583 330.899 550.7917 333.0716 549.375 331.1612 547.0417 332.3974 547.9583 333.8583 545.0833 336.3306 543.9583 338.5032 546.8333 343.4103 552.3333 345.2457 553.625 346.5193 558.4583 348.9167 561.8333 348.4672 563.4167 350.3776 563.5417 353.2994 562.2917 354.6853 563.4583 356.371 563.1667 359.7423 559.75 361.0908 558.5833 365.1363 559.375 367.7584 562.9167 370.6053 564 372.4033 562.5417 378.2469 565.2917 377.6101 568.875 378.9586 566.5833 385.4389 569.625 388.8102 568.0833 391.1701 569.4583 392.9307 568.4583 394.0919 570.4583 400.1228 570.3333 403.981 572.25 406.1536 571.9583 408.3262 572.3333 413.1959 570.6667 414.4695 568.625 413.3832 566.4583 413.9076 564 413.046 564 411.3978 560.4583 413.046 557.7083 415.818 555.3333 414.0574 553.875 414.6193 553 417.129 550.5 419.2267 551.4583 420.8 550.2917 423.9091 549 417.7284 547.1667 413.046 548.875 411.0982 549.1667 409.0005 548.2083 406.7155 545.4583 404.6927 543.1667 405.1422 Z M 564.375 415.4059 565.25 420.8374 563.5417 421.0247 562.0417 418.5899 562.7083 414.3945 564.375 415.4059 Z M 568.9167 414.1323 569.0417 418.103 565.5833 413.7952 567.25 414.1698 568.9167 414.1323 Z" />
    </g>
</svg>