<?xml version="1.0"?>
<svg xmlns="http://www.w3.org/2000/svg" version="1.2" baseProfile="tiny" width="800" height="3176" viewBox="0 0 800 3176" stroke-linecap="round" stroke-linejoin="round">
<g id="AN" fill="none" stroke="black" stroke-width="1">
<path d="M 241.8992 683.1255 239.6845 682.8807 242.0696 680.9227 241.8992 683.1255 M 336.453 665.0138 335.1753 677.7409 331.4272 669.0522 336.453 665.0138 M 244.5399 657.7936 242.1548 669.297 246.5843 665.3809 248.0325 673.8249 246.414 659.3845 253.3138 662.0768 252.7175 667.8285 256.5508 662.811 257.4878 683.8598 255.8693 679.3318 249.9065 685.0835 243.5177 683.1255 241.6437 677.0067 238.8326 681.2899 238.1512 660.7306 244.5399 657.7936 M 227.7588 655.958 226.2254 654.6118 226.9921 652.8986 227.7588 655.958 M 239.0882 650.9405 238.4067 650.0839 239.5993 650.2063 239.0882 650.9405 M 304.7647 659.7516 302.2944 656.4475 303.3166 653.9999 300.9315 655.4685 310.3868 672.1116 306.4684 655.1013 309.8757 653.3881 311.835 656.937 311.9202 656.8146 311.9202 657.0593 312.6868 658.4055 314.3053 651.9195 320.2681 650.3286 326.9977 666.8494 315.7534 663.0558 310.5572 672.3564 313.1127 676.8843 308.7684 679.8213 298.7167 673.8249 287.1317 674.5592 289.602 669.0522 286.5354 674.5592 294.7982 675.5382 292.9242 682.7584 300.6759 681.9017 299.8241 694.996 294.7131 700.1358 290.965 691.4471 284.917 691.3247 287.4725 695.975 282.4466 710.0483 275.7171 709.0693 282.7874 715.4328 281.2541 719.1041 267.1136 718.9818 275.3764 725.2229 267.8802 734.7683 265.8358 730.8523 257.6582 738.562 255.8693 731.8313 252.462 733.6669 256.3804 724.7334 249.5658 733.5445 245.9029 722.5307 254.9323 696.954 259.0211 698.1778 255.4434 694.5065 260.7248 683.615 258.4249 669.5417 262.9396 656.4475 259.873 652.5314 256.8915 660.7306 256.1249 657.1817 252.1213 660.9754 247.4362 655.1013 251.1842 642.0071 257.573 647.2692 262.5137 639.07 264.3877 642.7413 264.7284 637.7239 268.8173 639.1924 263.1099 629.5247 259.2767 631.3603 261.0655 624.1401 272.1394 628.4233 279.2096 624.1401 289.4317 629.7694 289.1761 633.6855 295.9908 628.4233 299.1426 638.7029 296.9278 629.1575 307.5758 629.2799 303.5722 636.133 306.724 632.4617 312.0905 647.2692 316.3497 645.4336 308.7684 652.7762 302.8907 646.7797 306.1277 652.2867 303.9981 653.6328 304.7647 659.7516 M 311.4091 655.2237 310.5572 652.7762 311.7498 653.8776 311.4091 655.2237 M 320.2681 649.1049 319.6719 648.7378 320.0978 647.2692 320.2681 649.1049 M 250.4176 637.8463 243.6029 654.6118 246.5843 637.7239 250.4176 637.8463 M 244.7103 638.9477 244.114 635.5211 245.2214 633.3183 244.7103 638.9477 M 253.2287 633.196 252.1213 633.4407 252.8027 632.5841 253.2287 633.196 M 259.0211 642.7413 257.8286 646.0455 252.5472 640.2938 256.636 632.8288 259.0211 642.7413 M 259.9582 635.2764 258.8508 634.9092 260.6396 632.3393 259.9582 635.2764 M 233.0401 631.2379 239.1734 634.175 233.1253 662.3215 228.0995 641.8847 230.2291 630.1366 233.0401 631.2379 M 257.9137 631.6051 257.3175 631.2379 258.3397 630.3813 257.9137 631.6051 M 309.6202 632.8288 309.6202 631.6051 310.6424 630.9932 309.6202 632.8288 M 304.424 627.3219 304.5092 628.3009 303.5722 628.668 304.424 627.3219 M 336.1975 628.9128 339.2641 640.9057 330.405 662.5663 329.468 644.2098 325.5495 647.0245 326.6569 642.2518 320.5237 643.1084 320.7792 635.5211 326.0606 633.4407 332.9605 640.1714 335.6864 625.1191 336.1975 628.9128 M 325.6347 615.329 325.0384 614.7171 325.294 613.7381 325.6347 615.329 M 308.1721 616.0633 320.3533 619.2451 301.187 623.6506 301.1018 621.815 288.8354 628.7904 278.9541 622.9164 271.8839 627.1995 264.6433 624.1401 260.8952 614.5948 257.8286 629.2799 258.3397 619.8569 253.4842 631.7275 237.4697 630.0142 232.6142 616.4304 228.2699 617.287 231.1661 561.6058 227.8439 552.9171 232.3587 541.7809 225.4588 531.0118 228.781 531.0118 230.5698 518.0399 234.4031 517.9175 231.9327 495.1555 221.1996 488.3024 229.4624 486.4668 229.718 490.2604 236.7882 472.3935 238.066 480.348 244.7955 474.5963 243.6029 466.2747 252.5472 459.2992 262.1729 460.0335 264.5581 473.4949 256.9767 481.0822 264.5581 474.9634 264.8136 501.6414 265.4099 467.4985 274.0986 464.3167 268.4765 461.7468 273.0764 457.9531 263.7914 438.6176 265.1544 433.3555 263.0248 438.6176 266.6877 449.8763 259.9582 458.9321 243.2622 458.0755 241.3029 448.6525 249.0547 446.9392 246.3288 438.4953 249.5658 436.0477 242.1548 426.2576 237.7252 405.0865 242.8363 401.7824 245.8177 410.2263 246.414 404.8418 242.8363 399.8244 237.8104 401.7824 238.7474 388.8105 242.5807 384.0378 245.8177 398.6006 246.4991 383.6707 248.1176 391.1356 248.288 382.6917 254.2509 379.0204 257.4878 384.5273 257.0619 382.5693 257.8286 380.856 256.0397 373.2687 257.3175 376.6952 257.9137 380.6113 258.936 378.2861 261.9174 381.1008 266.6877 417.5689 267.7099 411.8172 266.9432 411.8172 265.7506 397.1321 269.5839 393.9503 270.7765 403.618 270.6061 395.6636 273.5875 394.6846 268.6469 393.7055 269.3284 387.4644 266.0062 396.2754 266.0062 387.9539 259.5322 376.94 260.2989 371.6778 265.2395 373.5135 266.0062 380.7337 266.0062 373.2687 269.4987 378.0414 271.5431 372.5344 271.032 371.5554 276.569 372.7792 270.7765 371.0659 269.9246 360.0521 268.9876 362.3772 266.4321 357.9717 270.4357 358.8283 270.095 359.5626 284.5762 356.6255 287.9836 361.8877 293.1798 359.0731 293.1798 358.2164 287.6428 361.0311 287.5576 355.2794 276.4838 354.6675 278.8689 350.6291 274.8653 354.7899 270.8617 340.839 274.8653 330.9265 270.9468 331.5384 269.7543 326.3986 274.0986 312.6924 279.7208 321.8707 281.5096 314.8952 277.6763 309.3883 288.0687 308.2869 285.1725 304.0037 291.4761 298.252 283.8947 303.2695 280.317 298.8639 280.9985 305.4722 268.9024 299.9653 270.9468 286.9934 274.0986 288.9514 271.1172 267.2908 280.9985 275.7348 277.5912 263.2524 283.8947 267.0461 284.2355 257.6231 287.8984 258.9692 278.8689 250.6477 285.0021 247.3435 296.1612 254.6861 292.2427 246.9764 294.2871 243.6722 278.443 238.5324 281.1689 228.987 285.5984 231.3122 287.2169 229.1094 297.0982 234.9835 282.7022 224.3367 289.3465 210.5082 285.1725 209.4068 288.5798 197.5363 297.6093 200.4734 298.2056 189.0924 291.902 188.97 284.4058 180.6484 285.3429 176.61 292.0724 176.8547 293.6057 170.6136 284.8318 166.0856 288.4095 164.4947 292.0724 137.0824 298.0352 138.7957 297.95 136.7153 306.3832 129.4951 293.5205 129.2504 293.776 123.9882 296.7575 120.0721 305.361 124.9672 307.0647 119.5826 308.8535 124.1106 312.0053 124.2329 306.4684 114.1981 314.3905 112.9743 307.8313 103.7961 306.9795 92.1703 317.7126 91.6808 322.4829 80.9117 328.531 79.0761 334.9197 88.1319 329.9791 92.5375 334.7494 92.5375 335.6864 79.9327 327.2532 64.1462 341.3937 65.0028 350.7639 59.2511 353.5749 65.9818 359.1971 66.9608 360.56 45.6673 372.2301 61.4539 373.3375 47.0135 378.5337 43.3422 379.9819 48.1149 386.2003 66.1042 384.4114 83.1145 380.7485 95.5969 374.7857 94.985 374.019 96.6983 374.1894 96.4535 380.5781 99.1458 381.6855 109.0583 362.434 107.8345 361.1563 112.7296 365.9266 108.8135 369.9302 112.1177 369.845 110.1597 383.8151 112.7296 381.7707 117.2575 386.7114 123.8658 394.0371 115.789 392.6742 126.9252 397.7 122.1525 397.2741 126.6805 387.1373 135.8587 382.1966 133.6559 383.5596 136.5929 377.6819 137.6943 365.7562 127.2923 372.6561 138.7957 384.5818 139.6523 377.4263 144.7922 384.4114 144.9145 380.8337 150.5438 367.545 146.2607 359.1971 158.3759 354.9379 147.6068 352.4675 149.4425 353.7453 143.9355 343.1825 142.9565 348.7195 145.8935 345.5677 150.911 341.1381 147.7292 347.8676 159.4773 349.912 158.1312 362.1785 167.0646 361.1563 163.3934 364.8192 164.3724 363.3711 170.7359 358.3452 171.7149 362.0081 174.8967 354.2564 179.547 363.1155 175.0191 367.0339 187.2567 366.3525 176.61 359.9637 171.5926 365.1599 173.673 366.6932 170.7359 364.6488 171.1031 369.845 161.6801 368.4821 168.2884 372.0598 169.8793 367.8858 170.6136 369.6746 174.8967 370.6117 170.9807 375.5523 172.3268 371.719 173.3058 371.2931 181.8722 379.3004 179.9142 382.7929 188.2357 381.2596 182.3617 387.0521 179.547 386.2003 192.1518 395.9112 183.9526 380.493 227.1514 381.6003 271.3292 374.2746 275.49 379.4708 278.1823 367.2895 295.6821 363.6266 292.5003 358.0045 297.3954 349.8269 291.2766 354.6823 302.2905 347.6973 301.6786 335.6012 287.6053 342.5863 285.2801 338.753 282.2207 341.8196 277.2033 346.4195 278.7942 346.0788 275.49 337.4752 276.8362 340.9678 252.728 338.3271 261.0496 335.7716 258.7245 336.1123 280.3851 331.9383 280.3851 333.5568 275.6124 330.405 282.8326 319.757 264.9657 314.4757 266.0671 315.0719 260.5601 313.709 266.5566 319.5867 265.9447 325.8903 278.1823 320.6089 282.5879 326.0606 283.8116 318.2237 300.5772 321.3755 298.8639 323.2496 306.9408 317.7126 303.759 324.1866 310.612 326.4865 308.2869 326.5717 316.2413 334.0679 313.6714 331.5124 319.7903 337.3049 320.5245 324.8681 333.1293 324.8681 319.1784 318.3941 310.8568 313.7942 317.098 313.2831 312.3253 306.6388 338.881 299.313 336.4334 300.25 338.5138 294.1168 339.4928 300.1648 339.3705 301.4426 346.713 296.2464 349.1606 301.187 348.9158 301.1018 354.178 309.0239 352.0976 308.0017 360.5416 318.4793 355.7689 318.9052 342.4299 320.9496 349.8948 330.5754 347.6921 323.0792 360.9087 331.5124 362.2548 332.279 373.8806 338.6678 375.3491 329.9791 386.7301 337.1345 391.3804 335.1753 385.2616 341.6492 383.6707 344.3751 397.0097 332.4494 412.3067 342.4159 414.3871 351.4453 428.2157 350.5083 438.2505 356.8119 442.1666 350.338 441.0652 346.3343 447.9182 350.1676 449.3868 346.2491 481.0822 339.2641 480.348 344.7158 492.4632 346.4195 483.285 345.2269 505.3127 348.8898 504.9456 354.2564 518.7741 349.4009 532.1131 343.0974 535.6621 351.8713 539.9452 347.6973 544.4731 341.3937 538.4767 337.0493 546.7983 332.7901 542.7599 335.2605 553.1619 329.9791 553.8961 328.3606 549.1234 327.4236 549.0011 330.2346 554.3856 346.7602 550.7143 337.7308 562.0953 328.1902 564.6652 326.0606 560.9939 325.294 563.8086 330.6605 568.0918 325.2088 581.4308 318.9904 566.5009 313.1979 565.0324 317.5423 561.8506 309.8757 563.5639 314.0497 558.3017 311.2387 551.4486 313.6238 558.3017 309.1943 562.8296 307.4054 557.5674 306.0425 563.0743 299.9944 558.1793 299.9944 554.8751 303.7425 557.0779 299.4833 551.3262 298.9722 557.8122 290.7946 537.7425 291.7316 541.4137 284.7466 538.232 289.9428 543.6165 290.028 543.6165 290.1132 543.7389 290.7946 544.4731 290.3687 544.4731 293.0094 551.4486 290.5391 547.8997 292.4983 554.6304 312.772 570.7841 308.4276 578.0043 301.7833 567.3575 301.6981 573.1092 295.3945 573.4763 292.6687 567.7246 290.7094 570.0498 284.3207 568.5813 279.38 564.5429 281.68 559.1583 279.1245 564.5429 283.3836 568.0918 272.5653 566.7456 274.269 554.508 268.3061 545.6969 270.2654 552.55 261.4915 551.571 265.8358 552.7947 266.0062 552.4276 273.5875 554.7528 268.5617 567.2351 288.0687 571.2736 286.7058 575.4344 281.3392 572.7421 290.028 579.3504 281.68 576.4134 274.0986 583.8783 281.68 576.6581 292.0724 580.207 291.6465 584.8573 289.7724 584.3678 291.9872 586.9377 287.9836 587.9167 293.5205 588.1615 285.0021 595.9936 293.8612 587.9167 301.6981 597.8292 294.8834 601.1334 312.6868 603.948 319.8422 614.5948 310.898 609.455 308.0869 613.9829 314.2201 614.1053 308.1721 616.0633 M 322.7385 612.392 322.1422 611.2906 322.8237 611.7801 322.7385 612.392 M 327.0828 604.5599 324.7829 612.6367 324.5273 606.8851 327.0828 604.5599 M 314.646 580.4518 317.2867 584.3678 312.9424 595.0146 294.6279 586.3258 297.8649 580.3294 311.5794 584.9797 314.646 580.4518 M 319.6719 579.8399 318.9052 579.8399 319.2459 578.7385 319.6719 579.8399 M 294.9686 577.3924 294.3723 575.9239 295.3945 576.5357 294.9686 577.3924 M 302.9759 578.3714 301.0167 576.4134 305.4462 574.8225 302.9759 578.3714 M 291.0502 574.0882 293.6909 576.9029 287.8132 572.2526 291.0502 574.0882 M 321.7163 574.333 319.5867 574.2106 319.6719 572.4973 321.7163 574.333 M 345.3973 568.4589 347.0158 576.0462 340.2863 582.2874 334.1531 603.2138 328.531 596.1159 333.1309 590.609 331.7679 582.2874 337.1345 574.333 341.99 577.1476 345.3973 568.4589 M 217.8775 519.6308 221.37 520.2426 218.133 528.3195 213.959 522.9349 217.8775 519.6308 M 229.2921 474.7187 228.781 474.3515 229.2921 473.7396 229.2921 474.7187 M 240.6215 467.3761 239.94 467.6208 240.1104 467.009 240.6215 467.3761 M 234.5734 449.7539 233.4661 455.628 232.4439 450.2434 234.5734 449.7539 M 238.9178 449.8763 236.1919 453.0581 237.5549 448.163 238.9178 449.8763 M 239.6845 430.0513 241.814 432.4988 241.0474 434.0897 239.6845 430.0513 M 207.6554 414.2648 207.3999 413.6529 208.1665 412.5515 207.6554 414.2648 M 238.1512 410.3487 239.5141 418.0584 236.1067 406.0656 238.1512 410.3487 M 232.0179 386.8525 233.7216 411.083 239.94 424.2996 236.4475 420.7507 236.1919 437.761 231.9327 432.0093 232.4439 412.3067 225.6292 401.7824 232.0179 386.8525 M 240.5363 384.7721 239.5141 385.8735 240.7067 382.8141 240.5363 384.7721 M 242.1548 374.6148 242.6659 374.8596 241.7289 375.4715 242.1548 374.6148 M 240.6215 370.6988 233.7216 385.9958 234.7438 375.1043 240.6215 370.6988 M 258.51 368.496 257.6582 375.1043 256.1249 369.2303 258.51 368.496 M 251.6953 358.9507 251.2694 356.0136 252.6324 357.7269 251.6953 358.9507 M 316.7756 356.136 316.0942 356.0136 316.4349 355.157 316.7756 356.136 M 254.4212 353.8109 252.5472 359.5626 253.399 348.0592 254.4212 353.8109 M 259.3619 347.3249 259.0211 346.8354 259.3619 346.5907 259.3619 347.3249 M 270.4357 347.6921 274.6097 355.8913 270.6061 358.4612 262.3433 349.5277 270.4357 347.6921 M 303.8277 348.7934 303.3166 348.4263 303.3166 348.1816 303.8277 348.7934 M 258.0841 346.4683 256.7212 344.755 258.6804 342.6746 258.0841 346.4683 M 324.8681 348.3039 324.1866 348.1816 325.294 347.2026 324.8681 348.3039 M 337.816 346.5907 335.9419 349.7725 333.642 347.0802 337.816 346.5907 M 261.747 339.86 263.2803 342.1851 261.5766 346.713 261.747 339.86 M 258.2545 338.881 257.573 343.0418 255.699 338.6362 258.2545 338.881 M 304.1684 340.5942 307.661 341.818 307.661 347.0802 303.9129 346.5907 304.1684 340.5942 M 214.896 332.8845 214.896 332.7621 215.2368 332.6398 214.896 332.8845 M 215.0664 332.0279 215.6627 332.5174 214.5553 332.395 215.0664 332.0279 M 217.3664 332.2726 215.7479 332.395 216.9404 331.9055 217.3664 332.2726 M 213.5331 331.2936 214.0442 332.0279 213.1072 331.7831 213.5331 331.2936 M 213.7035 330.8041 213.959 331.1713 213.4479 331.0489 213.7035 330.8041 M 215.1516 331.0489 215.2368 331.7831 214.2997 331.6608 215.1516 331.0489 M 214.4701 330.8041 214.2997 330.5594 214.5553 330.3146 214.4701 330.8041 M 316.2645 337.4124 314.8164 339.0033 315.3275 337.4124 316.2645 337.4124 M 214.4701 329.9475 213.2775 330.437 214.2146 329.0909 214.4701 329.9475 M 349.0602 332.8845 352.212 333.9859 343.3529 336.1887 349.0602 332.8845 M 226.1403 312.8148 237.3845 317.5875 233.0401 333.6188 238.4067 334.353 234.9994 344.2655 238.066 359.5626 232.7846 362.8667 237.1289 366.0485 228.5254 381.9574 215.3219 383.4259 216.8553 390.279 221.0292 386.9749 223.0737 392.8489 216.8553 397.0097 213.6183 408.5131 204.2481 372.2897 212.085 363.1115 218.8997 335.4544 214.9812 324.5629 226.1403 312.8148 M 368.7376 310.3673 352.2972 326.1538 360.0489 328.8461 356.3008 339.6152 352.9787 329.458 345.3121 327.7447 344.801 323.8287 349.9972 323.0944 343.7788 317.8322 347.8676 314.0386 353.3194 324.3182 360.9007 315.8742 359.1971 311.591 368.7376 310.3673 M 360.1341 309.3883 359.7082 308.7764 360.6452 308.4093 360.1341 309.3883 M 333.4716 298.0073 338.2419 297.3954 339.7752 310.2449 328.0199 305.3499 330.1494 295.6821 333.4716 298.0073 M 328.2754 290.5423 326.4865 289.0738 327.7643 286.7487 328.2754 290.5423 M 334.9197 286.1368 334.6642 284.4235 335.2605 285.1578 334.9197 286.1368 M 327.7643 282.3431 326.5717 280.8746 327.168 279.8956 327.7643 282.3431 M 326.8273 280.1403 326.1458 279.6508 326.3162 277.9376 326.8273 280.1403 M 241.4733 267.1685 241.4733 266.0671 242.4955 265.0881 241.4733 267.1685 M 237.2141 263.7419 228.6106 276.3467 226.481 264.7209 237.2141 263.7419 M 272.1394 231.5569 271.3728 230.4556 272.4801 230.7003 272.1394 231.5569 M 393.3557 206.8369 392.589 206.2251 392.4187 205.0013 393.3557 206.8369 M 393.952 205.7356 393.6112 204.1447 394.2075 204.3894 393.952 205.7356 M 400.2556 170.2464 401.7889 170.8583 398.7222 172.0821 400.2556 170.2464 M 376.6597 158.0088 375.893 169.3898 372.5709 167.187 376.6597 158.0088 M 350.5935 156.2955 349.9972 154.827 351.3602 153.9704 350.5935 156.2955 M 369.4191 154.9494 369.4191 154.3375 370.0154 154.3375 369.4191 154.9494 M 372.9116 153.3585 372.0598 154.0928 372.3153 153.3585 372.9116 153.3585 M 374.7005 150.4215 374.1894 154.4599 373.3375 151.6452 374.7005 150.4215 M 401.3629 141.8551 399.7444 141.3656 400.4259 140.9985 401.3629 141.8551 M 403.3222 140.1419 402.8962 139.7747 403.4073 139.4076 403.3222 140.1419 M 402.2148 135.7363 402.6407 136.1034 402.3 136.1034 402.2148 135.7363 M 391.5668 135.1244 398.2111 149.3201 406.9851 154.7046 400.3407 157.6417 395.6556 169.2674 393.4409 157.5193 384.0707 160.7011 387.2225 149.0753 383.8151 142.8341 389.0113 141.2432 382.8781 138.1838 391.5668 135.1244 M 394.2927 132.7993 393.8668 132.1874 394.9742 131.5755 394.2927 132.7993 M 280.4874 116.8904 282.617 117.747 280.6578 123.6211 280.4874 116.8904 M 407.411 120.684 405.7925 117.9917 408.5184 116.2785 407.411 120.684 M 408.2628 120.0721 409.285 116.2785 409.5406 117.9917 408.2628 120.0721 M 294.1168 108.9359 290.1983 115.9113 284.491 115.5442 285.854 107.4674 294.1168 108.9359 M 399.063 111.261 397.8704 119.3379 396.6778 114.9323 399.063 111.261 M 401.3629 110.0373 401.7037 110.1597 401.1074 110.282 401.3629 110.0373 M 410.1368 107.9569 413.1183 111.3834 410.7331 110.7715 410.1368 107.9569 M 306.4684 73.5691 307.0647 78.4642 304.5944 77.1181 306.4684 73.5691 M 328.6161 74.181 326.4865 76.139 328.3606 72.3454 328.6161 74.181 M 322.8237 65.3699 323.2496 62.4329 325.7199 63.779 322.8237 65.3699 M 308.598 60.842 309.7906 62.0658 308.8535 63.1672 308.598 60.842 M 390.4594 51.9085 389.778 49.9505 391.7372 49.0939 390.4594 51.9085 M 366.608 47.8701 365.2451 47.2582 366.2673 46.1569 366.608 47.8701 M 321.2052 33.3073 312.9424 45.0555 315.6682 34.5311 321.2052 33.3073 M 396.5927 9.6887 387.3076 23.762 385.7743 16.1747 392.0779 8.8321 396.5927 9.6887 M 374.956 1 379.0448 20.4578 371.8894 11.0349 366.3525 9.1992 359.7082 14.0943 355.3638 8.9545 358.7711 10.7901 358.686 4.5489 363.9673 3.8147 371.6339 7.4859 374.7005 1.8566 369.6746 2.4685 374.956 1 M 146.3232 1273.5911 163.9562 1289.6224 164.1266 1311.4054 176.5634 1324.1326 174.7746 1343.8351 181.4189 1372.9607 173.0709 1372.8383 174.6042 1383.4851 160.8044 1391.6843 154.9268 1405.268 155.949 1412.6106 168.3006 1420.198 156.6304 1432.558 151.1787 1446.7536 142.9159 1449.6906 128.605 1447.1207 106.2869 1432.8027 85.7577 1441.0019 83.2022 1436.5964 100.4093 1403.0653 89.5909 1379.0795 83.3725 1377.611 81.0726 1326.4577 84.1392 1322.1745 88.9947 1327.6815 95.1279 1325.1116 103.5611 1307.4894 120.257 1300.8811 117.6164 1289.8672 121.4496 1292.1923 133.5457 1277.1401 146.3232 1273.5911 M 188.915 1259.885 184.9114 1255.3571 191.1298 1257.927 188.915 1259.885 M 9.348 1233.8188 5.3444 1237.8573 4.237 1235.2874 9.348 1233.8188 M 210.8072 1234.9202 209.6146 1231.3713 213.022 1230.3923 210.8072 1234.9202 M 239.1734 1161.984 238.5771 1160.8826 239.6845 1160.6378 239.1734 1161.984 M 243.7733 1159.9036 240.3659 1160.0259 242.7511 1158.1903 243.7733 1159.9036 M 217.7923 1142.6485 217.3664 1145.2184 216.7701 1139.4667 217.7923 1142.6485 M 224.6921 1114.9915 225.0329 1097.8588 230.7402 1093.698 230.8254 1105.5685 224.6921 1114.9915 M 239.1734 1080.4813 232.1031 1089.1701 226.5662 1084.5198 233.7216 1082.6841 238.3215 1073.6283 239.1734 1080.4813 M 158.4193 1045.9712 157.3971 1044.9922 159.6971 1044.3803 158.4193 1045.9712 M 165.4895 1045.1146 162.1674 1046.9502 163.0192 1044.5027 165.4895 1045.1146 M 186.9558 995.1851 186.6151 993.8389 189.3409 992.3704 186.9558 995.1851 M 202.7148 991.1466 202.5444 990.6571 203.1407 990.29 202.7148 991.1466 M 200.6704 992.4928 202.2889 998.4892 213.8738 1002.1605 221.5404 1026.5134 216.1738 1034.835 203.737 1040.0972 222.8181 1047.3174 224.2662 1054.5376 211.9998 1064.3277 182.0152 1067.5095 173.7523 1057.4746 178.8634 1052.7019 176.4782 1042.7894 193.0038 1040.709 195.4742 1027.1253 187.3817 1016.1114 190.7891 1000.8144 197.263 990.5348 200.6704 992.4928 M 183.9744 981.846 184.9114 987.2306 183.3781 979.888 183.9744 981.846 M 163.4451 978.4195 166.8525 989.1886 160.5489 982.8251 163.4451 978.4195 M 195.2186 977.4405 194.7927 976.5839 195.4742 975.1153 195.2186 977.4405 M 189.0002 972.7902 190.6187 969.7308 186.9558 982.8251 184.4003 974.2587 188.0632 978.7866 187.8076 969.3637 189.0002 972.7902 M 5.7703 953.6995 30.4735 957.8603 30.3883 986.6187 4.4925 983.4369 1 957.2484 5.7703 953.6995 M 166.6821 966.0595 166.2562 965.4476 167.3636 964.8357 166.6821 966.0595 M 171.282 966.4266 169.8339 968.507 171.6228 964.7134 171.282 966.4266 M 179.4596 974.1363 180.2263 981.9684 175.0301 974.8706 179.4596 974.1363 M 172.3894 959.3288 171.7931 958.5945 172.5598 958.2274 172.3894 959.3288 M 188.915 958.9617 189.0854 968.2623 184.741 963.1225 182.6114 966.1819 183.1225 957.8603 188.915 958.9617 M 179.7152 956.2694 179.1189 956.0246 179.2041 955.6575 179.7152 956.2694 M 155.949 950.1506 159.4415 956.8813 168.1302 956.0246 164.1266 958.4722 166.4266 963.4896 150.1565 971.9336 151.1787 953.3324 153.3083 948.3149 155.949 950.1506 M 227.418 921.8817 228.5254 924.0844 225.0329 923.4726 227.418 921.8817 M 258.5952 916.0076 256.636 919.5565 256.0397 916.0076 258.5952 916.0076 M 239.94 911.8468 238.9178 910.9902 240.6215 911.3573 239.94 911.8468 M 403.0666 869.2598 402.2148 865.8333 405.2814 864.8543 403.0666 869.2598 M 374.1894 839.1553 382.7929 842.9489 394.8038 839.1553 398.5519 843.1937 388.1595 853.5957 372.9968 845.6412 371.4635 836.7078 374.1894 839.1553 M 181.93 807.3374 180.567 810.764 182.4411 805.257 181.93 807.3374 M 184.3151 800.2396 183.5485 797.9145 181.6744 800.7291 176.9893 779.8028 180.6522 778.7014 186.3595 793.7537 184.1447 797.0578 184.2299 797.0578 184.3151 800.2396 M 237.2993 797.7921 239.5141 809.1731 236.7882 812.4772 237.2993 797.7921 M 238.7474 790.0824 238.9178 788.7362 239.8548 788.8586 238.7474 790.0824 M 241.4733 792.2852 239.8548 794.4879 243.3474 786.1663 241.4733 792.2852 M 247.4362 783.7188 247.8621 782.6174 248.7991 782.9846 247.4362 783.7188 M 256.8915 783.3517 255.8693 791.0614 244.7955 789.7153 256.8915 783.3517 M 174.6894 775.8867 174.9449 777.8448 174.0079 778.2119 174.6894 775.8867 M 239.94 772.2154 240.7918 773.3168 238.5771 775.642 239.94 772.2154 M 240.2807 769.8903 240.0252 769.7679 240.3659 769.5232 240.2807 769.8903 M 263.1951 760.3449 261.0655 761.5687 260.81 759.9778 263.1951 760.3449 M 350.9342 748.8416 353.9157 745.5374 363.5414 750.0653 369.845 758.7541 368.7376 766.7085 390.4594 812.1101 386.3706 820.7988 377.256 818.3513 363.7118 789.8376 353.8305 791.3061 347.7825 776.4986 335.516 774.663 331.9383 769.8903 333.2161 764.9952 342.8418 761.4463 349.6565 744.436 350.9342 748.8416 M 365.9266 718.9818 368.4821 745.5374 364.1377 748.5968 348.5491 738.4396 345.2269 731.097 347.0158 717.0237 355.5342 717.8804 346.5899 713.2301 344.2899 700.2582 360.4748 694.3841 364.8192 695.4855 367.545 716.2895 356.5564 718.0027 365.9266 718.9818 M 343.5233 728.8942 341.9048 714.2091 345.9936 721.0622 343.5233 728.8942 M 391.9927 712.7406 390.715 717.6356 388.6706 714.2091 391.9927 712.7406 M 411.0739 706.1322 410.8183 704.9085 411.4146 705.0309 411.0739 706.1322 M 421.2107 699.5239 419.2515 707.9679 416.3553 702.8281 421.2107 699.5239 M 378.1078 700.9924 381.6003 710.1707 376.9152 715.5552 381.3448 721.3069 376.6597 722.5307 381.0041 721.674 389.2669 731.2194 385.6892 732.8103 390.1187 736.1144 386.4558 746.7612 369.0784 731.3418 367.971 703.6847 378.2782 691.3247 378.1078 700.9924 M 220.1774 669.297 218.8997 667.2166 220.1774 665.0138 220.1774 669.297 M 254.2509 687.4087 254.0805 686.552 253.6546 684.7164 257.2323 685.6954 255.4434 692.1813 254.2509 687.4087 244.2844 729.5061 254.5064 737.8277 250.2472 742.3556 266.4321 745.6598 264.2173 756.6737 256.3804 758.7541 240.9622 747.2507 245.6473 753.9814 238.7474 755.817 245.3066 758.3869 242.4955 760.9568 251.1842 758.9988 252.2064 766.5861 259.1915 762.5477 260.0433 769.0337 247.9473 769.8903 253.2287 775.7644 244.4547 778.3343 246.2436 769.0337 238.4067 765.1176 240.4511 768.9113 234.7438 770.6246 237.3845 773.1945 233.6364 775.642 242.8363 781.7608 232.0179 779.6804 235.5105 794.1208 227.6736 799.383 232.6994 800.4844 234.5734 812.3549 230.5698 812.1101 230.0587 805.9913 225.1181 813.2115 237.7252 823.8582 229.9735 824.5925 227.6736 829.3652 229.718 836.463 236.3623 828.019 239.2585 832.3022 232.6994 842.9489 233.8068 850.0468 247.7769 822.145 244.9658 818.9632 242.4103 822.2674 242.24 815.0471 248.0325 815.5367 243.6029 811.8654 245.6473 805.257 248.288 809.1731 251.525 803.7885 249.4806 798.8935 252.2064 802.1976 255.1879 797.9145 258.4249 803.4214 255.2731 796.9355 266.7728 797.0578 268.4765 812.9668 263.6211 814.68 270.4357 820.187 253.4842 904.8714 249.0547 898.9973 248.5436 909.644 236.1919 902.9133 233.8068 907.686 231.3365 904.9937 227.8439 914.2943 231.4216 919.3118 224.9477 919.5565 220.6033 928.1228 219.5811 922.983 210.8072 926.6543 216.4293 940.2381 223.0737 941.7066 213.8738 946.3569 216.259 948.3149 220.1774 943.5423 229.5476 943.6646 225.7995 927.1438 231.3365 932.0389 241.9844 925.1858 235.766 921.5145 237.0438 913.6824 249.9917 916.2523 254.0805 921.7593 249.4806 931.6718 252.1213 947.0912 246.6695 954.4338 233.2957 1007.3003 228.355 992.7375 212.8516 995.0627 203.9073 987.2306 202.8 978.6643 207.3999 974.1363 197.9445 955.9023 190.3632 968.507 186.4447 941.829 200.5 945.745 204.5888 930.448 198.7963 933.0179 197.3482 923.1054 196.8371 937.7906 192.4076 933.8745 186.1892 935.5878 178.4374 919.5565 182.1003 910.0112 179.2893 889.2072 171.0265 889.8191 169.6635 905.728 164.6377 907.9308 160.3785 896.305 160.4637 876.4801 165.5747 872.4416 160.4637 866.6899 163.7859 853.8404 158.1637 850.2915 160.8044 836.9525 153.4787 831.8127 156.5453 843.1937 151.2639 840.7462 147.601 847.2321 143.5122 837.3196 147.8565 827.04 152.2861 827.4072 150.9231 819.8198 148.4528 825.3268 149.475 815.659 155.949 812.3549 152.9675 808.3165 159.6971 801.5858 162.5933 805.7465 165.1488 792.1628 164.8081 796.9355 172.645 801.2186 167.5339 805.9913 168.9821 809.785 173.582 806.9703 169.1524 817.9842 174.1783 815.7814 175.3708 832.0575 180.4819 829.8547 178.0115 824.103 182.5263 815.1695 183.1225 837.1973 189.1706 845.3965 186.6151 815.4143 187.5521 806.8479 188.2336 811.4982 192.7483 803.9109 190.7891 792.2852 186.0188 802.5648 188.4891 767.6875 195.5594 747.9849 191.3002 736.3592 192.8335 721.1845 210.3813 669.0522 212.3405 665.8704 208.0813 685.0835 216.5997 667.8285 217.1108 681.9017 219.9219 679.699 218.5589 670.3984 220.6885 673.213 226.8217 658.1607 232.6994 668.5627 230.2291 679.3318 233.9772 680.678 229.0365 681.9017 232.6994 681.1675 228.6958 696.8316 233.892 688.6324 230.2291 704.5413 237.4697 685.3283 254.0805 686.552 M 399.2333 671.255 397.0186 677.2514 403.1518 676.7619 405.5369 683.1255 396.3371 688.2653 406.8147 684.9611 401.9592 699.4015 409.4554 702.0938 403.4073 712.0063 404.0888 715.1881 408.0924 712.7406 403.4925 718.6146 407.5813 722.2859 400.3407 729.3837 392.2483 717.758 395.4853 711.7616 398.8074 713.5972 396.8482 707.356 393.0149 711.5168 387.9891 709.1916 388.5002 712.9853 382.7077 706.9889 391.9927 678.8423 399.2333 671.255 M 375.0412 665.2586 374.7857 664.8914 375.4671 664.8914 375.0412 665.2586 M 408.6887 667.4613 408.8591 666.1152 408.2628 664.5243 407.5813 664.0348 408.1776 664.2795 407.3258 661.832 413.2886 654.9789 403.0666 664.2795 394.8038 662.3215 399.6593 647.8811 403.9184 648.1259 403.9184 658.5279 408.8591 658.0384 412.6924 648.0035 414.0553 652.8986 411.7553 673.8249 409.0295 666.7271 408.6887 667.4613 M 405.6221 662.811 403.8333 664.4019 404.7703 662.811 405.6221 662.811 M 377.9374 641.8847 375.9782 641.2728 379.2152 639.4372 377.9374 641.8847 M 399.3185 617.4094 400 618.5108 395.6556 618.3884 399.3185 617.4094 M 779.1522 3024.796 778.5559 3024.3065 779.3226 3024.4289 779.1522 3024.796 M 689.7946 2960.6708 690.902 2966.6673 686.728 2955.7758 689.7946 2960.6708 M 750.5305 2951.9821 749.7639 2961.7722 758.9637 2961.8946 765.3525 2968.2581 770.2931 3020.88 778.2152 3025.2855 784.4336 3050.6174 790.652 3050.0055 799 3062.7327 796.9556 3065.6697 789.8002 3057.1033 783.4966 3061.9984 797.8926 3083.1695 785.7965 3085.617 780.6855 3095.4071 783.241 3102.2602 773.7857 3106.6657 777.193 3119.0258 773.6153 3132.9766 781.1966 3137.8717 777.8745 3147.4171 769.1857 3156.9624 762.2007 3146.9275 753.8527 3146.5604 752.2342 3163.4483 744.3973 3174.9517 733.3234 3169.4448 739.1159 3145.9485 734.6012 3144.3576 732.1309 3149.1303 724.3792 3140.4416 732.4716 3130.7739 717.5645 3124.1656 717.0534 3118.9034 727.1902 3117.6796 719.5237 3115.2321 723.0162 3110.337 715.1793 3109.6028 713.9868 3100.5469 707.8535 3104.5853 703.424 3096.998 707.9387 3090.1449 705.0425 3079.0087 700.3574 3080.2325 695.4167 3065.7921 686.1317 3065.4249 684.4281 3055.7572 675.3134 3053.7992 671.9912 3060.4075 667.4765 3059.1837 672.5875 3051.5964 666.1988 3030.5477 669.5209 3024.0617 663.3025 3015.8625 671.395 3009.499 663.6433 3009.8661 662.3655 3003.8697 671.8209 2997.0166 670.2876 2980.7405 675.9949 2974.4993 697.8871 2975.356 705.724 2968.1358 708.1943 2970.4609 706.0647 2966.4225 710.1535 2963.3631 719.0126 2965.5659 723.2718 2972.2966 724.294 2966.5449 717.4793 2964.2197 725.1458 2963.6079 730.0013 2969.1148 729.8309 2963.7302 734.3456 2963.6079 731.5346 2954.1849 750.5305 2951.9821 M 749.2528 2929.9544 748.912 2928.9754 750.6157 2928.3635 749.2528 2929.9544 M 650.7805 2910.1294 652.0583 2911.4755 650.525 2912.6993 650.7805 2910.1294 M 679.4874 2878.0668 674.206 2874.2732 677.6985 2873.2941 679.4874 2878.0668 M 713.3053 2876.9654 713.5608 2880.2696 710.6646 2878.4339 713.3053 2876.9654 M 687.5798 2857.7524 691.5835 2876.4759 707.3424 2889.0807 707.3424 2895.9338 693.5427 2918.9405 675.7393 2927.7516 667.7321 2943.171 658.1915 2950.0241 649.6731 2939.9892 652.1435 2929.5872 645.6695 2919.3076 655.9767 2908.7833 651.2916 2906.8252 651.1213 2890.9163 659.0433 2892.1401 665.9432 2886.1437 667.3913 2893.9757 681.1059 2880.2696 690.7316 2885.7765 689.2835 2877.2102 683.4058 2876.4759 684.0873 2857.7524 687.5798 2857.7524 M 651.8027 2842.7001 651.7175 2842.3329 651.9731 2842.4553 651.8027 2842.7001 M 658.4471 2842.5777 660.0655 2845.27 656.573 2844.9028 658.4471 2842.5777 M 651.5472 2842.3329 650.6953 2840.4973 651.7175 2840.9868 651.5472 2842.3329 M 609.8924 2820.6723 609.2109 2826.0569 605.2073 2820.3052 609.8924 2820.6723 M 536.7197 2593.2972 549.9231 2599.0489 546.0047 2606.3914 550.6046 2620.3423 559.123 2617.65 573.8597 2632.4576 579.3115 2651.9154 574.456 2660.6041 569.6006 2660.4818 565.4266 2650.2021 556.9934 2645.5518 543.7047 2648.1217 535.1864 2656.6881 523.0903 2652.4049 518.7459 2640.412 528.4569 2633.6813 526.8384 2621.0766 515.8497 2625.8493 517.7237 2629.8877 520.62 2627.8073 519.257 2633.6813 514.3164 2632.4576 513.3794 2637.475 508.6091 2634.1709 504.5203 2620.7095 512.4424 2601.374 536.7197 2593.2972 M 612.6183 2590.3601 620.37 2591.4615 629.0587 2606.0243 626.6736 2634.7827 608.9554 2621.8108 610.0628 2617.1605 606.0591 2618.8738 595.0705 2609.5732 594.3038 2603.9439 601.4592 2606.5138 605.7184 2599.9055 605.8036 2591.0944 615.7701 2607.8599 612.6183 2590.3601 M 593.3668 2580.8148 592.7705 2581.6714 592.5149 2580.9372 593.3668 2580.8148 M 602.0555 2573.5946 601.8851 2573.4722 601.9703 2573.3498 602.0555 2573.5946 M 602.3962 2571.5142 602.3111 2571.2694 602.4814 2571.3918 602.3962 2571.5142 M 601.8851 2568.8219 601.6296 2568.5772 601.9703 2568.4548 601.8851 2568.8219 M 632.0401 2559.5213 631.7846 2559.5213 637.2363 2580.0805 634.0845 2584.9756 625.1403 2574.3288 626.2477 2568.9443 632.2105 2573.717 623.4366 2558.787 629.2291 2549.8536 631.529 2558.5423 631.7846 2558.5423 631.7846 2558.6647 631.6142 2558.6647 631.7846 2559.3989 631.7846 2559.2766 632.0401 2559.5213 M 632.2957 2559.2766 632.1253 2558.787 632.2957 2558.1752 632.2957 2559.2766 M 575.0523 2543.6124 574.9671 2543.49 575.0523 2543.3676 575.0523 2543.6124 M 574.7116 2543.0005 574.5412 2542.8781 574.8819 2542.8781 574.7116 2543.0005 M 575.819 2542.8781 576.1597 2542.8781 576.1597 2543.0005 575.819 2542.8781 M 575.819 2542.8781 575.6486 2542.8781 575.819 2542.7558 575.819 2542.8781 M 574.456 2542.511 574.2857 2542.3886 574.5412 2542.0215 574.456 2542.511 M 575.6486 2542.3886 575.5634 2542.1439 575.7338 2542.1439 575.6486 2542.3886 M 627.9513 2544.8362 628.8883 2548.5074 624.0329 2546.7942 623.5218 2553.1577 620.1144 2548.2627 627.9513 2544.8362 M 574.456 2539.6963 573.9449 2539.6963 574.6264 2539.3292 574.456 2539.6963 M 575.1375 2539.2068 574.7968 2539.3292 575.4782 2538.8397 575.1375 2539.2068 M 471.5542 2500.9031 471.2135 2500.5359 471.3839 2500.2912 471.5542 2500.9031 M 601.2037 2495.5185 611.3405 2498.4555 612.1924 2510.0813 607.0813 2521.0951 604.0999 2521.707 607.3369 2517.3015 598.7333 2521.3399 604.4406 2516.2001 597.3704 2521.0951 590.215 2536.7593 596.6889 2539.3292 602.4814 2554.0144 613.7257 2565.1506 610.3183 2580.2029 613.9812 2586.077 605.1221 2579.3463 602.3111 2587.7902 601.374 2583.6294 594.6445 2586.5665 596.263 2595.1328 591.5779 2603.5768 585.4447 2595.8671 584.7632 2581.9162 596.0927 2585.4651 592.7705 2576.7764 596.5186 2571.3918 596.4334 2580.9372 603.5888 2578.7344 602.8222 2574.3288 608.6146 2571.8813 602.3111 2568.9443 607.3369 2565.8849 596.8593 2563.315 596.8593 2568.4548 584.5077 2578.8568 582.2929 2562.8255 586.6373 2560.8674 580.5892 2560.7451 575.9041 2554.0144 572.2412 2541.1649 576.1597 2544.469 579.1411 2538.7173 571.3894 2536.7593 570.5376 2526.3573 586.5521 2512.7736 587.8298 2501.3926 601.2037 2495.5185 M 471.469 2483.2809 476.7504 2497.4765 471.2987 2500.1688 462.9507 2488.9102 466.5284 2482.4242 471.469 2483.2809 M 419.933 2439.7149 427.2588 2444.61 419.7626 2476.6726 433.8179 2492.092 454.8582 2503.2282 453.7509 2512.7736 436.203 2509.8365 417.7182 2499.924 401.5333 2477.5292 405.4518 2447.3022 419.933 2439.7149 M 656.2323 2421.9703 656.6582 2422.2151 655.8064 2421.9703 656.2323 2421.9703 M 661.2581 2422.2151 661.5137 2424.5402 656.9989 2422.0927 661.2581 2422.2151 M 652.9101 2420.5018 653.2509 2420.869 652.9101 2421.1137 652.9101 2420.5018 M 388.3298 2400.6769 378.4485 2396.3937 381.43 2386.726 387.9891 2392.1105 388.3298 2400.6769 M 645.1584 2340.8349 647.1176 2358.5794 653.5064 2362.7402 656.2323 2388.4392 649.2472 2388.3169 647.288 2408.7537 646.0102 2382.8099 650.7805 2379.0163 642.177 2352.9501 643.0288 2338.1426 645.1584 2340.8349 M 641.1548 2335.4503 640.8992 2336.7964 640.1326 2335.6951 641.1548 2335.4503 M 271.1172 2034.8941 282.9577 2049.2121 286.6206 2080.1733 271.5431 2088.4949 241.5585 2086.2922 236.0216 2073.0755 237.9808 2044.1947 257.8286 2045.1737 262.0877 2025.7159 271.1172 2034.8941"/>
</g>
</svg>