<?xml version="1.0"?>
<svg xmlns="http://www.w3.org/2000/svg" version="1.2" baseProfile="tiny" width="800" height="654" viewBox="0 0 800 654" stroke-linecap="round" stroke-linejoin="round">
<g id="AP" fill="none" stroke="black" stroke-width="1">
<path d="M 703.8032 31.5124 704.2574 34.0149 703.1219 35.1124 697.5809 35.2441 698.1259 38.8442 M 686.5442 95.5226 683.3195 96.8836 684.3641 99.0348 684.1371 100.9226 683.2287 101.0104 683.7283 103.1178 685.3633 104.5227 M 687.4526 106.8056 685.3179 106.191 685.3633 104.5227 683.2287 101.4495 684.3641 99.5616 683.3195 96.8397 686.5442 95.5226 688.2247 96.7519 689.6781 94.2055 690.3594 89.2006 693.9474 87.9274 688.6789 85.2493 685.7721 85.3372 685.4088 84.1518 683.592 84.6786 684.1371 83.8884 681.5482 82.1323 683.7283 78.5761 682.6382 76.7322 680.4582 76.0737 680.4582 74.8883 682.5474 74.0981 681.2757 72.8249 681.7753 71.5956 684.5458 72.1663 681.094 67.6004 682.0024 66.6785 685.7267 66.5029 686.1355 62.0248 680.6398 60.7077 679.0502 61.4541 678.8231 63.8248 678.0964 63.9126 675.6438 62.3321 677.4151 59.2589 680.0494 58.337 677.9147 58.0297 678.0056 52.7613 679.141 50.9174 677.1426 49.0735 676.8247 46.571 679.8223 43.9369 681.957 43.7613 681.5936 42.2686 683.6829 42.2686 684.6367 40.9515 688.5426 39.8539 689.2239 38.3612 691.8127 37.0002 696.8088 40.4686 698.1259 38.8442 697.5809 35.2441 700.306 35.5954 704.1665 34.3222 703.8032 31.5124 702.4861 31.6441 700.3968 27.8685 698.5801 26.6392 698.1259 25.1026 700.5331 26.4636 701.4869 25.7172 699.7155 22.1172 698.6255 22.5562 697.5355 17.9904 700.9418 16.805 700.5331 15.883 702.2135 15.8391 705.1203 21.7221 705.5745 26.0685 707.4821 26.3758 707.5275 30.81 712.0239 36.1222 714.2494 34.7612 717.7012 37.0441 719.2454 36.1222 723.2422 36.6929 726.5124 35.9466 731.7809 41.7856 734.8693 40.7759 736.3681 41.3905 736.6406 39.8539 738.5482 38.8003 741.5912 39.81 742.1363 38.4051 744.4072 38.5368 745.2247 37.7027 748.6311 39.2393 751.2199 38.3173 751.4924 37.1759 754.6717 38.8442 755.3076 37.6588 756.988 37.3515 755.6709 35.771 757.5331 35.5076 759.0319 33.6636 756.0797 31.6441 755.8526 29.3612 756.443 28.7465 758.7594 31.4685 759.9857 31.4246 760.9849 30.1514 758.5777 28.1319 761.757 29.9319 762.302 28.4831 760.4398 27.166 764.3458 27.8246 764.4367 25.805 765.345 26.6831 766.3442 25.4977 764.9817 22.8636 765.6175 20.7123 767.7522 19.8343 765.7084 18.166 764.6637 15.444 770.1139 18.6928 770.7952 15.9708 774.1562 12.8098 778.153 11.9757 779.788 10.2635 780.7873 10.3952 780.651 14.6098 782.5586 15.1367 784.2845 11.0537 788.5538 11.361 789.553 10.0001 788.3721 8.2 785.0112 9.1659 785.0112 7.761 783.4215 7.5854 782.0135 4.4244 789.1896 4.6878 789.3259 1.3951 790.2343 1 793.6406 1.8342 793.5044 3.0195 792.4598 3.239 792.7323 5.8732 799 10.2635 790.2797 20.9318 791.0972 20.9757 783.0582 28.7026 778.4709 35.9027 777.8351 38.6246 772.0669 43.5418 768.0701 48.3271 766.7076 51.6638 759.5769 58.2931 758.2143 62.1126 737.6398 80.1566 735.6869 83.0981 735.6869 86.1713 716.4749 96.5763 697.8988 104.5666 689.3602 109.7471 687.4526 106.8056 689.5418 109.308 679.8677 116.4642 676.1434 122.3033 671.2837 122.5228 669.6032 120.8545 668.1498 121.3813 668.1044 122.9179 666.7418 122.6984 668.059 124.8935 667.3323 125.1569 663.6534 121.074 665.4701 117.913 665.1522 116.0691 662.2908 115.7178 663.3809 111.6788 660.7012 112.2934 658.839 110.9764 658.3849 112.5569 656.4773 112.8642 654.8422 114.8398 653.5705 114.313 654.5697 116.9032 651.9355 116.5959 652.3896 117.7813 650.3912 116.6837 647.3482 122.3033 645.4861 122.7862 646.7124 124.9374 647.757 124.5423 649.1649 125.8594 646.9849 127.0009 645.9402 130.0301 644.2143 129.196 643.6239 132.6643 637.6741 132.8838 637.6287 130.3814 635.8574 129.6789 635.6303 126.6496 633.9044 125.0691 634.1769 123.4886 630.0892 123.0057 628.3633 120.9862 623.7761 119.6691 623.7761 115.1032 624.6845 113.9617 623.9124 113.8739 625.5474 111.4593 628.2271 111.1081 627.8183 110.23 635.8574 107.5958 635.9936 106.5861 633.5865 106.4544 635.3578 105.9275 633.3139 103.9958 634.949 102.0641 633.859 101.6251 634.949 100.4836 633.541 98.5958 636.357 99.869 638.4008 98.4202 637.4924 97.4982 638.9004 97.4543 640.5355 94.6006 642.1251 97.7616 645.2135 98.5958 644.8956 95.0836 645.9402 96.9714 647.212 97.2348 646.3036 93.7665 649.7554 95.8299 649.2104 90.2543 646.0311 88.6738 644.1235 88.8933 644.8502 84.064 639.8996 86.1713 639.2183 84.6347 637.9466 84.8103 638.2191 83.4054 636.4024 82.5713 634.3131 82.6591 633.5865 81.781 632.2693 83.2737 631.043 82.8347 630.6343 80.42 633.4956 76.2493 630.9068 77.2151 629.3625 76.5127 628.6813 75.5029 629.6805 74.4493 628.9992 73.8785 627.1825 75.02 627.0462 73.3956 625.0478 71.859 628.4542 68.9175 632.451 62.8151 631.7243 62.1565 629.3171 63.3858 627.455 63.0785 625.9562 60.137 628.2725 58.6882 628.2271 57.5906 625.502 58.6443 624.3211 58.0736 624.5028 57.0199 623.0494 56.7565 623.0494 55.4833 624.9116 53.9906 624.639 52.5418 628.7267 51.0052 630.2255 46.9662 635.1307 41.7856 634.4494 40.732 636.7203 39.0637 638.5825 40.732 640.7171 40.4686 643.5785 42.4003 644.1235 44.5076 645.6677 42.0491 645.3498 40.0734 650.0279 41.1271 651.345 37.7905 653.7522 36.649 655.9323 36.9563 655.7052 35.771 659.4295 33.2685 660.792 34.4978 663.4263 33.3563 664.3347 30.2392 660.7012 27.9124 662.2 26.8587 659.702 26.7709 658.2032 24.6197 658.1124 23.2587 659.9745 23.3465 659.6566 21.4148 658.1578 21.0196 657.8853 25.0587 656.2502 25.0587 655.3418 23.8294 656.7044 22.9075 656.341 20.7562 654.7968 20.3611 653.9339 17.7269 656.7498 17.9465 657.1586 15.8391 659.6112 16.0147 660.1108 17.4196 662.9267 16.6733 665.0159 17.7269 664.6072 18.7367 666.9235 20.0977 667.6048 21.8977 669.0127 22.1172 669.6032 18.5172 668.3315 18.5172 667.8319 16.6294 670.7841 16.805 671.1474 14.3025 669.0582 11.2732 669.4669 9.6488 670.6478 9.7366 669.6032 8.3318 671.3745 8.5513 671.102 9.9123 672.8733 11.4489 674.1904 10.7464 674.9625 13.8635 674.5084 14.9172 672.6462 14.2147 673.1004 15.6635 676.5068 16.5416 676.961 13.5123 678.5506 12.0196 677.6876 9.6049 679.0048 9.0342 679.141 11.6684 681.2303 11.844 681.3665 8.9903 683.8645 8.0683 682.6837 4.6439 684.8637 3.5025 685.4542 1.4829 686.7259 2.4488 686.6351 4.4683 688.4518 4.8195 687.6797 5.9171 689.2693 7.8488 689.0876 9.6488 691.4948 11.8879 692.9936 15.1806 695.9458 15.5318 693.902 17.5074 696.2637 18.9562 698.5801 26.6392 M 668.1498 121.3813 669.6486 120.8106 671.2837 122.5228 674.0542 121.9081 675.4622 122.6545 670.1482 126.1667 667.5139 130.074 665.0614 131.6984 664.153 136.396 658.4757 141.7961 657.749 144.7376 653.1163 147.679 653.8884 147.5912 653.6614 148.5132 652.753 147.9864 652.5259 149.8742 647.0303 154.1766 646.894 156.1084 644.396 158.2157 639.3092 161.2889 625.1841 166.6011 622.3681 170.0255 593.5275 182.8451 577.5402 192.3281 575.1331 187.3671 576.7681 186.6647 576.8135 184.5134 579.039 184.6451 579.8566 182.2744 577.6311 179.8158 583.7171 171.2548 579.4024 168.1816 578.5394 164.5816 576.9952 166.645 573.3163 166.4694 572.0446 167.3475 569.9554 163.7035 569.8645 166.0743 568.2749 166.1621 568.4566 169.2353 564.3689 170.5963 560.6446 169.3231 560.8717 166.206 557.8287 167.8304 556.4661 166.9523 557.102 164.8889 556.239 161.5962 557.6924 159.0938 553.741 158.3035 550.8343 156.1084 551.0159 154.923 548.2454 155.362 545.9291 153.4303 541.5235 156.4596 539.7068 156.284 537.0271 152.4644 532.6215 151.6303 529.2151 153.7376 528.5793 152.9913 525.7633 154.0888 525.0367 155.4937 523.6287 153.4303 524.4462 152.64 524.0375 151.4108 525.6725 150.401 526.7625 145.9229 524.5825 143.5522 525.0367 142.0156 521.5394 140.3473 519.4048 141.4449 520.6765 142.6741 516.9976 143.5083 511.1841 143.201 509.4127 142.0156 515.953 137.2302 515.7713 136.5277 519.4956 135.6058 521.2215 132.5765 524.2191 132.8838 524.4462 134.596 525.4 133.4107 523.5378 128.8009 526.3992 123.4886 524.1737 120.8984 524.4008 119.4057 521.2215 115.9374 524.31 114.2252 524.1283 111.591 526.5355 110.4495 527.3076 111.6349 529.7602 111.7666 530.8956 109.8788 533.439 111.3715 536.5729 111.3715 536.9363 112.9959 540.1155 112.1617 541.6598 114.4886 541.0693 115.3227 543.7944 115.4983 548.2908 118.1325 550.1076 117.5179 550.5163 115.1032 549.3355 113.1715 550.4709 111.6349 553.3777 110.4495 553.0598 111.8544 555.149 112.9081 555.4215 111.3715 556.6024 112.2495 557.5562 111.591 558.3283 109.7032 556.7386 106.8056 557.0566 102.7226 559.5092 103.908 560.4175 102.5909 558.51 100.2202 554.7402 98.9909 554.2861 97.0153 556.8749 94.9958 555.6032 94.2933 556.8295 93.3714 557.647 89.3762 560.8263 89.3762 562.3705 87.664 562.0526 84.5908 558.7371 85.864 557.0112 84.7664 561.6892 80.7274 561.0988 77.0834 559.6 75.3273 566.3219 68.7858 567.094 65.976 571.9538 62.5516 571.8175 64.7468 573.5888 66.1517 576.4956 66.459 575.9506 67.9517 576.6773 69.7956 575.2239 71.0249 577.1315 73.1322 577.3586 71.7273 579.4024 72.6932 576.8135 76.9517 582.7633 78.62 583.8534 80.9469 585.3976 81.5615 583.4446 82.3079 583.9896 84.7225 582.5817 84.5469 581.2191 85.9518 582.945 87.0494 581.855 89.8152 586.851 93.7665 588.3498 92.4494 587.3052 91.0445 588.3044 89.3323 587.3506 87.225 589.7578 87.664 600.4765 83.4054 602.1116 81.1664 601.294 79.2786 602.4295 78.8835 602.9745 76.82 601.7482 76.4249 601.2486 74.4054 603.8829 72.4298 607.7888 74.1859 608.2884 75.459 612.694 75.1517 612.6032 79.3664 616.9633 81.3859 620.0518 81.4737 622.6406 78.9274 625.1386 78.3127 628.4088 79.4542 631.7697 76.3371 633.2231 76.2054 630.6343 80.42 631.043 82.8347 632.2693 83.2737 M 639.8996 86.1713 642.1251 84.5469 644.941 84.1079 644.1235 88.8933 648.9378 89.8591 649.7554 95.8299 M 645.9402 96.9714 644.9865 95.0397 644.5777 97.3665 645.6223 98.0689 643.9873 98.5519 642.0343 97.6738 640.5355 94.6006 M 416.6231 345.2853 416.6231 345.1096 416.8502 344.9779 416.6231 345.2853 M 405.0414 343.7487 404.9052 343.4852 405.0869 343.6169 405.0414 343.7487 M 403.1793 341.4218 403.1793 341.334 403.361 341.2462 403.1793 341.4218 M 403.043 341.1584 403.1339 340.9828 403.1339 341.0706 403.043 341.1584 M 403.1793 339.7535 403.043 339.8852 403.043 339.7535 403.1793 339.7535 M 424.4351 337.6901 424.2988 337.6462 424.5259 337.2071 424.4351 337.6901 M 425.3888 336.1535 425.6614 337.4706 424.2534 335.1876 425.3888 336.1535 M 402.8614 334.0022 402.7251 333.5632 403.043 333.7827 402.8614 334.0022 M 402.6343 333.1242 402.5434 332.5096 402.6797 332.8608 402.6343 333.1242 M 402.4072 331.3242 402.5434 332.3339 402.1347 331.3681 402.4072 331.3242 M 401.5442 330.4461 402.1801 331.0169 401.3171 330.49 401.5442 330.4461 M 406.9036 346.0755 405.3594 345.417 402.5888 340.7633 403.7243 339.095 402.9068 341.3779 405.9952 345.6804 401.7259 332.6852 403.8606 336.1974 404.0422 335.1437 405.3594 335.6706 405.0414 333.651 401.2263 330.051 391.7793 328.251 377.5179 331.5437 365.7092 337.0315 365.6183 336.0657 369.2518 334.7925 368.6159 332.0705 371.3865 331.5437 368.9793 331.1047 367.5713 329.0412 364.5737 331.1047 361.7124 327.1534 361.894 319.4704 365.6637 320.5241 366.5267 316.9241 361.0765 315.5631 359.7594 314.2021 356.4438 314.9924 355.3084 313.9826 355.7625 312.4021 354.1275 311.3484 350.1761 311.524 350.0398 312.3143 347.9506 311.6558 346.9514 313.6753 342.9546 313.0167 342.6821 314.3338 339.5028 312.3143 337.6861 312.3143 337.9586 315.2997 333.1442 315.5631 332.2359 310.6021 331.055 309.3728 331.4183 307.7045 328.7386 308.3631 328.0574 307.6606 329.1928 303.9289 325.2869 305.2021 324.0606 302.9191 321.4263 302.3045 319.2916 300.4606 318.9737 302.3923 317.2932 303.6655 311.8884 301.4264 310.6622 303.4459 311.5705 304.0167 310.8892 307.2655 315.9761 309.8996 315.7944 312.1826 311.0255 313.8509 310.3442 317.5387 312.0247 316.9241 314.2956 318.5046 313.8869 319.7778 315.2494 320.1729 314.341 322.5875 312.0701 322.8071 311.0255 325.2217 303.1681 322.7631 302.396 325.3534 299.6255 326.89 298.7625 330.8852 301.3514 332.5974 301.1697 334.3096 295.1745 333.0803 296.0829 330.9291 292.949 329.2169 293.4032 327.0217 289.6335 324.7827 287.6805 326.1437 285.2733 324.651 285.6821 323.5973 281.3673 323.1583 280.0502 322.0607 281.4127 316.3533 278.8693 310.1192 279.6869 306.8265 277.961 303.5777 277.8247 300.5923 280.0502 297.4752 280.8223 289.3532 277.7793 286.3678 274.0096 287.9044 268.9227 286.6751 261.2924 293.6556 253.8438 295.4556 246.4406 300.5923 245.7594 294.3142 247.6669 283.4702 245.4869 281.758 245.0327 278.5092 245.396 272.2311 247.5761 271.0896 245.6685 268.5433 246.2135 265.7335 248.7116 263.8457 249.8924 260.4213 253.2988 260.8603 258.204 258.753 266.0614 259.0164 268.8773 255.0651 272.5108 254.7139 274.5546 253.4407 278.3697 253.792 284.0016 249.709 287.408 250.9822 292.2677 247.6017 296.4008 248.0407 298.5355 245.1431 301.4876 244.0016 303.3044 244.5285 305.8024 247.8651 309.1633 246.4602 311.7976 247.3382 314.7044 253.3968 318.792 253.5285 320.6088 252.431 323.7426 246.8553 327.0127 245.626 329.5108 242.5968 331.2367 235.4406 334.4614 234.8699 336.7777 236.8894 338.7307 244.6602 338.004 251.8602 347.9506 255.6798 357.0343 255.8993 360.8494 258.3139 371.0685 258.1822 376.7458 260.7725 379.3801 263.714 390.2805 269.7725 391.2343 274.514 M 398.6375 283.997 403.7243 288.7385 404.0422 292.8654 405.4956 292.8654 M 410.9004 310.0314 411.8542 310.0314 413.2622 324.5632 M 515.953 137.2302 509.5036 142.0595 511.1841 143.201 M 529.2151 153.7376 532.5307 151.6303 537.0271 152.4644 M 541.5235 156.4596 542.4773 155.0547 546.2016 153.4303 548.2454 155.362 M 553.741 158.3035 557.4199 158.5669 556.239 161.7279 557.102 164.8889 M 564.3689 170.5963 567.094 170.1572 568.7291 168.2694 568.2749 166.1621 570.1371 165.4157 569.9554 163.7035 M 579.4024 168.1816 583.6717 171.7816 579.357 176.4353 577.6311 179.8158 M 577.5402 192.3281 567.7753 199.5721 555.2853 211.4258 552.106 215.86 550.1984 221.6551 551.1522 222.0503 548.2908 223.6308 548.2 229.5137 549.2446 228.1967 549.9259 230.0845 551.6518 229.382 551.6972 230.6552 552.1968 229.4259 552.5602 230.6991 553.6956 229.7333 554.7857 232.4991 556.6024 230.743 558.6916 232.0162 559.1458 230.8308 559.4637 231.5772 559.4183 224.1576 555.9665 218.0112 558.0104 218.9771 559.3729 221.26 559.9633 229.2503 557.7378 242.2894 558.192 245.4504 559.9179 246.3724 555.0582 250.8505 556.3299 255.7676 554.7402 261.1237 546.6558 262.8359 519.0869 277.3677 508.459 279.6507 495.3331 286.28 494.6064 285.2702 495.2422 281.0995 493.5163 274.6897 495.3785 272.2311 497.1498 274.7336 499.0574 274.6458 504.1896 268.6311 508.141 267.4018 509.3219 257.1286 507.6869 252.3432 502.055 246.2407 502.6 242.5089 500.0112 240.9284 497.9673 237.7675 498.6486 231.9723 495.9235 225.6942 496.4231 222.7088 498.0127 220.6454 497.6948 216.1673 495.3785 211.2063 491.6088 207.738 487.612 196.455 489.5649 189.5183 491.5633 188.1135 491.4725 187.0598 485.0231 184.1183 484.0239 179.6841 484.9323 176.567 482.2072 176.6987 479.9363 173.2743 476.6661 173.2304 473.7139 169.2353 468.0367 171.0792 464.3124 170.7719 459.9522 167.3475 455.0016 168.5328 453.1849 167.6548 452.4582 164.8889 449.506 160.8938 437.3339 159.1816 435.1992 155.4059 425.4343 157.5133 424.4805 156.8986 424.6622 152.9474 423.6629 152.1571 420.7562 152.3766 417.6223 154.0449 414.8518 153.5181 414.988 151.5425 413.5347 150.4449 414.2614 149.6108 412.3538 149.2156 413.2167 147.0644 412.3084 143.7717 421.0741 139.3375 422.8454 142.3668 427.7506 142.5863 429.5219 144.0351 434.1092 140.1717 432.247 137.5814 433.11 136.4399 440.2861 131.6106 450.1873 136.2643 459.0892 136.0448 462.9044 137.8887 463.3586 135.2546 465.3116 135.957 467.1737 134.1131 468.1729 134.8155 471.2159 133.5424 472.8056 136.0887 479.9363 134.6399 480.9809 133.4985 485.2502 135.079 487.7482 133.1911 489.7466 129.2399 492.29 128.757 493.5163 127.1326 494.6972 130.1179 502.2821 124.8057 504.3713 121.7325 513.8183 119.274 515.4534 117.7813 519.1323 117.5618 521.1761 115.9374 521.7211 116.9471 523.0837 117.474 524.4462 119.4057 524.1737 120.8984 M 545.9745 241.2358 543.9307 243.6065 542.0231 243.3431 542.7044 244.8797 547.2916 245.4504 550.0167 247.6017 554.3769 245.187 553.8773 242.2455 552.3331 244.3968 550.3347 244.8797 545.1116 243.7821 546.5649 241.587 545.9745 241.2358 M 557.102 256.5578 556.4207 256.3383 556.4207 255.2407 557.102 256.5578 M 557.7833 256.3383 556.9203 258.0944 556.4661 257.831 557.7833 256.3383 M 555.2853 259.7188 555.0582 260.2457 554.8765 259.8066 555.2853 259.7188 M 555.4215 260.2018 555.3307 260.1578 555.3761 260.1578 555.4215 260.2018 M 555.2853 260.2896 555.2398 260.3774 555.149 260.2896 555.2853 260.2896 M 555.3761 260.4652 555.2853 260.4213 555.3307 260.3335 555.3761 260.4652 M 295.1745 333.0803 298.0813 334.1779 301.1697 334.3096 M 312.0701 322.8071 314.3865 322.5875 315.2494 320.1729 M 315.7944 312.1826 316.0669 310.8216 315.6127 309.4167 310.8892 307.2655 M 324.0606 302.9191 326.059 305.4216 329.0112 303.8411 328.0574 307.6606 M 331.4183 307.7045 332.5992 314.7729 333.6892 315.7387 336.051 314.8168 337.9586 315.2997 M 365.7092 337.0315 355.49 344.4511 349.0406 353.4512 344.5896 369.3879 336.2781 379.8367 332.9171 387.9587 332.8717 395.51 328.6932 408.1979 329.4199 416.1004 328.012 415.6613 326.8311 418.515 320.2 414.3004 317.4295 414.3004 313.3873 416.1443 312.8876 417.637 311.3888 417.8126 310.6167 420.1833 302.0327 418.4711 303.4406 414.5199 302.2598 413.6418 303.804 411.0515 301.8964 409.9101 297.4908 413.5101 295.5833 411.2711 291.3139 413.3345 280.459 412.2369 280.141 414.3882 279.1418 414.3443 271.0574 409.7345 268.1052 411.0515 265.8797 410.7003 266.1068 409.2515 263.2454 409.032 263.4725 407.4954 260.9745 408.0662 259.3394 404.9491 258.6127 408.0662 257.0231 407.5393 257.7952 404.9491 254.9339 407.8906 254.5705 407.0564 250.8008 406.9247 250.3012 405.9588 245.7139 408.0662 237.1299 406.6174 237.2661 408.0662 234.3139 408.2418 233.1785 411.754 231.498 402.3149 232.588 399.2856 226.3203 398.671 225.3211 399.8564 221.506 399.7685 220.0526 399.0222 219.0988 393.7978 217.0096 393.7978 216.2375 397.9246 202.1124 396.6515 198.5697 398.4515 198.0247 384.0514 201.4765 374.7001 201.5219 350.3341 205.3371 330.0949 207.9713 326.2754 215.4199 320.0851 217.4183 307.6167 214.8295 298.6166 220.3251 296.0264 222.8685 295.8508 225.1849 292.9093 227.2287 292.7337 234.1323 294.6215 236.6303 293.8312 239.9458 295.9825 245.7594 294.3142 M 268.9227 286.6751 271.4661 287.9044 278.0518 286.8507 280.8223 289.3532 M 198.0247 384.0514 198.0701 396.6515 198.5697 398.4515 200.2048 398.1441 199.3873 403.193 200.5227 411.1394 195.9355 416.4516 196.1625 419.7004 193.5737 419.7443 192.847 422.6858 190.5761 423.5199 187.3968 424.0029 187.4422 422.115 184.5355 421.1053 183.5817 422.6419 182.6279 421.9833 179.7211 423.5199 179.5849 420.4467 178.4494 420.0516 176.4056 421.1931 172.9538 426.5053 172.1817 426.3297 176.0876 416.8906 175.2701 416.0565 175.9968 410.5247 173.1355 409.3832 171.8183 410.3052 173.1809 411.5784 172.9538 412.9394 166.4135 413.4223 165.4143 419.3053 163.1888 419.6126 158.7378 416.276 159.7825 413.4662 161.4175 413.993 164.4606 411.7101 162.2805 410.9637 162.7347 409.6467 161.5992 409.4271 160.8271 411.4028 157.012 409.2515 153.7873 409.2515 152.0159 410.7881 152.8789 413.4662 150.5171 413.9052 148.8821 416.6711 148.11 416.2321 146.5657 421.0614 141.2972 420.1833 138.2542 421.7638 137.9363 420.4467 133.3036 419.3492 133.3944 418.3394 130.5785 416.276 130.0335 417.3735 127.9896 416.6272 125.7187 413.8613 125.6279 411.4906 124.0837 410.1735 125.9912 405.432 123.902 403.2808 122.0398 402.71 120.7227 405.7393 115.2271 404.3344 116.09 403.7198 115.545 402.6661 117.0438 401.7881 116.5442 399.1978 113.0924 398.7588 112.1841 403.1052 108.9139 403.632 108.5052 402.1393 106.1888 402.3149 103.5092 405.9149 101.7378 405.2125 102.0558 404.2027 99.4669 403.5881 97.6502 401.4369 98.0135 399.7685 96.3331 399.3734 95.8335 397.9685 93.9713 398.232 94.4709 396.0368 91.0645 393.227 88.4757 394.4563 88.2032 395.949 86.2502 395.9929 85.8414 398.2759 82.9347 397.8368 77.439 394.2368 72.8518 395.8612 69.8542 394.4563 69.7633 396.1246 67.3562 394.3246 61.0884 394.3246 59.9076 398.8905 56.4104 398.8905 53.9578 403.5003 44.8287 400.6466 42.4669 402.4027 38.6518 402.271 38.9243 400.7783 41.1044 400.8661 41.7402 399.4173 40.3323 395.1588 37.3347 393.9295 37.4709 392.6563 39.1968 390.9002 41.604 390.8124 41.5131 389.8026 39.5602 389.3636 39.9689 387.4319 36.6988 387.1685 36.1538 383.305 31.2486 383.8758 31.3394 382.2953 29.0231 380.4952 29.5681 377.6855 27.7968 376.2367 28.0693 373.1196 22.4375 367.4561 22.3466 365.6561 27.8876 366.4464 27.8876 353.3195 33.1562 350.8609 36.9713 353.6268 37.7434 350.1585 32.702 347.2609 33.6104 345.2413 32.7474 345.1535 32.8382 344.0121 29.7498 343.7487 29.4773 342.7389 31.5665 338.0413 31.3849 334.0022 27.388 333.0803 32.1116 325.7924 40.0598 321.929 49.6884 320.3924 62.7235 322.851 67.7195 321.929 79.6191 324.9144 85.8414 325.0461 90.6104 328.2949 93.9713 328.5144 97.0598 327.2412 105.008 329.3925 110.4582 328.4705 113.4104 326.2315 118.3155 328.4705 122.1307 328.4705 125.4916 330.6217 127.7625 326.0998 129.0797 326.4071 129.2614 329.3486 131.7139 330.6217 132.9402 332.7291 137.9363 333.1681 138.1179 331.3242 142.0693 331.0169 143.5227 327.5924 142.4781 326.6266 142.9777 325.8363 149.6996 323.3339 150.7442 314.2021 155.7402 315.6948 157.1482 313.1924 161.0088 312.1826 165.4598 309.3728 172.0908 310.0753 179.5849 312.5777 184.5809 308.4948 186.4884 308.0557 189.4406 308.9777 192.5291 313.368 198.4789 316.0021 203.3386 314.5533 206.3817 311.9192 208.5618 308.3631 207.6534 302.6118 209.8335 301.9972 211.741 302.7435 213.2853 308.407 216.4645 306.6069 216.6008 304.2362 217.1004 309.6801 215.4199 320.0851 M 137.9363 420.4467 138.0725 422.5541 135.847 423.3882 133.9849 428.1297 133.4853 430.7639 135.8924 431.4663 134.6661 434.8029 132.1681 433.7932 129.1705 439.3249 132.2135 441.2566 131.1689 444.9006 133.9394 445.1201 135.4837 447.2713 138.0271 446.964 136.8462 453.9006 133.3944 453.4177 131.0327 459.2129 128.4892 459.8275 128.9434 462.286 127.8988 463.3836 123.3116 462.3738 122.9028 459.7397 121.1769 457.6324 118.9968 459.4324 122.2669 462.6812 124.6287 467.5544 133.0765 474.2715 135.2112 477.1252 143.3865 481.3837 147.4287 484.852 152.243 485.9057 153.0151 487.1789 160.1912 487.0911 164.0518 488.6716 166.5044 488.0569 165.051 496.2229 167.4127 496.7058 166.6406 501.4912 168.8207 502.5449 170.592 505.618 169.9108 507.901 168.6845 508.2522 169.3203 511.1059 168.5028 514.4425 171.3641 515.584 171.1371 516.7693 167.1857 518.3498 163.2343 522.3889 161.7355 521.8182 161.5084 520.5889 159.192 522.784 158.2382 522.6084 157.6478 524.4523 156.3307 524.1889 154.4231 525.6377 154.3323 526.867 151.7888 526.7792 151.0167 530.467 148.6096 531.7402 150.1538 532.7938 150.6534 537.0963 148.2008 538.3256 137.4367 537.667 135.9378 535.4719 137.0733 533.0133 136.0287 529.9402 132.7586 530.1158 132.4406 528.1401 129.5339 526.6475 129.1705 530.028 124.6287 528.9304 122.2215 533.2768 119.9052 533.4963 119.4964 527.6133 123.2661 525.945 122.6303 523.4865 123.357 520.7206 121.404 520.2377 117.2709 525.7255 114.1825 524.2328 114.1825 522.1694 108.5052 522.6523 107.2789 521.7742 106.0072 524.8035 107.8239 526.6914 108.1873 528.1401 107.3697 528.7987 108.3235 529.2816 105.8255 531.345 102.8733 531.828 103.5546 533.189 102.7825 534.4182 96.6056 536.2182 96.4239 542.1012 95.5155 542.1012 95.0159 539.2475 91.8367 540.1695 92.6996 537.5353 86.7952 539.3792 86.5681 540.6963 88.9299 541.5305 87.4765 542.7598 86.0685 541.0036 84.706 541.1354 80.7546 543.9451 79.4375 540.9158 77.439 540.828 76.9394 541.75 78.3928 543.1549 77.2574 547.1061 75.9402 546.4476 76.1219 544.8671 73.2151 544.7354 73.9418 547.1939 70.2629 547.9842 69.7633 545.0866 71.2622 545.1305 71.8072 540.389 70.3992 537.3597 71.2167 535.6036 69.2637 535.1207 68.4462 536.5695 66.9928 536.3061 67.6287 535.5597 66.4024 535.3402 67.992 531.9158 62.9506 532.3109 60.9976 530.8182 57.3187 532.9255 55.9108 529.5889 53.6398 531.4768 50.4606 531.5646 50.6876 529.9402 49.4159 529.4572 49.643 526.1206 48.3713 525.8572 46.7817 529.4572 46.1458 527.6133 44.8741 529.9402 42.9665 529.2377 43.9203 525.067 43.2845 523.7499 41.0135 525.5938 41.6948 529.8084 39.6056 529.4133 37.6526 530.5987 41.6948 533.2768 40.5594 535.6036 42.694 537.9305 42.149 539.9939 33.8829 539.511 33.4287 541.9695 31.3394 541.8378 29.2048 538.4573 27.2972 538.2817 26.5251 542.3646 24.7084 541.6622 23.3912 537.1402 23.8454 534.9451 22.5283 534.506 22.6645 533.5402 24.1179 531.345 26.298 530.2036 27.161 525.9889 29.5681 525.5938 29.0231 522.9157 24.2542 520.0181 24.8446 517.2523 17.9865 513.2571 18.1227 510.8864 22.0741 510.4912 22.6191 509.1742 22.2104 507.9449 19.7124 507.1107 19.4398 504.4766 17.396 502.5888 16.1697 503.4229 13.49 502.5009 14.353 499.5595 19.1219 498.9887 19.6669 496.5302 20.9386 498.1546 27.2064 498.6814 27.4789 503.818 26.3434 506.3205 27.8422 507.5059 27.6606 510.0961 32.4749 510.9742 32.7474 512.0278 37.5618 511.5888 39.7418 516.1547 42.1036 516.1547 42.2398 514.9693 49.3251 515.101 51.8231 512.862 52.6861 513.0376 52.2773 515.1449 55.4566 513.0815 57.0008 513.301 58.4088 516.7254 60.8614 517.2084 59.7259 520.4572 61.906 520.984 59.5442 524.6718 60.5434 525.9011 64.5402 525.5938 64.6311 527.4377 68.2645 524.7596 66.357 523.8377 65.9482 521.7303 68.2645 521.5108 68.5371 518.7011 67.3562 517.6474 62.9052 518.6572 63.7681 514.6181 58 513.2132 58.8175 510.2717 60.8159 510.0522 64.8582 504.4327 63.8135 503.6424 59.4988 505.9693 59.953 503.2034 62.6781 502.7205 64.1315 498.9009 71.4438 499.1204 75.0773 500.6131 76.4398 497.7155 75.2135 496.9253 73.9873 493.2375 75.0773 490.3838 74.5777 488.496 72.6247 487.135 69.7633 488.2765 69.3546 484.6325 67.8558 485.0716 67.5833 483.4911 65.4032 482.613 63.6773 483.052 62.451 485.5984 63.4956 489.2862 65.6303 490.3838 66.5386 493.7643 66.5841 495.4326 64.0406 496.4424 62.6781 493.6765 60.7251 492.9302 61.1339 488.7594 53.1402 488.1009 53.4582 482.3496 48.6438 484.6325 44.5562 484.2374 41.5131 482.174 38.7426 482.3935 35.8813 489.5496 36.8805 490.0765 36.5171 493.7204 34.9275 494.6424 32.9745 494.9058 30.1131 491.7887 25.4351 492.7545 23.4367 491.6131 18.8494 491.8765 17.396 488.9789 20.5753 486.9155 19.4398 485.0716 15.2614 484.1057 13.3992 481.6471 13.3992 476.8178 14.7618 476.5983 16.4876 474.3154 19.1673 476.4227 19.349 471.33 20.8932 471.33 22.3466 467.9056 14.9888 467.5105 11.7187 469.0032 10.4924 465.447 8.0398 463.3836 5.5418 463.3397 3.1347 456.7982 1.4542 456.2275 2.4534 448.3689 5.2239 442.3103 3.2255 437.92 8.5849 437.4371 8.6757 435.4615 10.3108 435.5493 9.0845 432.8712 10.3108 432.2127 10.6287 429.6224 9.4478 427.6029 11.31 426.9882 11.855 422.7736 11.6733 419.5687 7.7673 420.9297 6.7681 419.6126 1.5904 418.9979 1 417.5931 2.4534 417.2418 3.9522 414.5199 2.3171 410.6564 2.5896 408.7686 4.9514 407.0125 8.5394 408.6808 11.4916 410.6125 12.6271 413.554 16.7147 413.0272 23.3912 415.0467 23.4821 413.9491 25.2988 413.2028 29.7952 413.2906 29.2956 415.5735 33.1108 415.9687 33.3378 413.5101 36.1538 413.1589 36.7896 412.0174 37.8343 406.5296 39.8327 405.432 40.6502 402.0076 42.8303 402.3149 43.6024 400.91 45.0558 400.6466 47.7809 402.2271 53.9578 403.5003 M 257.0231 407.5393 258.7944 408.0223 259.4757 404.9491 260.9745 408.0662 M 271.0574 409.7345 279.1873 414.3443 280.141 414.3882 M 302.0327 418.4711 307.2558 419.876 310.6167 420.1833 M 311.3888 417.8126 317.4295 414.3004 320.4271 414.3443 326.7402 418.515 328.012 415.6613 329.4653 416.1443 334.961 442.5737 337.7769 445.0323 341.047 455.0421 342.7275 455.964 343.545 457.808 342.0462 464.9202 340.7745 481.2959 337.0956 493.457 336.6869 501.3156 338.6398 512.2035 349.4494 537.9305 347.7235 544.0329 347.3147 550.4866 350.7665 559.7062 348.1323 569.0575 345.4072 567.1258 338.5036 566.9941 337.8677 565.7209 335.2335 565.5453 334.7793 567.2575 331.8271 567.2575 331.6908 563.5258 332.8263 562.6477 332.0996 561.1989 329.6924 562.4721 327.7849 562.2526 327.9211 560.5843 329.102 560.3209 328.7386 558.916 326.1952 558.5647 324.0151 551.8476 320.5179 551.1452 319.7458 549.5208 321.2446 547.2817 319.7004 545.4378 311.0255 545.5695 309.1633 539.2914 306.0749 539.028 305.4845 537.3597 302.396 537.9305 301.7147 535.9109 300.0797 536.4378 297.1729 534.3743 297.9904 530.467 296.7641 529.9841 296.9458 525.7694 291.9952 523.8377 290.996 532.6182 284.8645 530.906 286.4996 528.184 283.6382 527.3499 283.4112 523.9694 271.9657 524.9352 271.557 526.2962 268.4685 527.2182 270.0582 521.6425 269.1498 519.1401 269.6494 517.5157 267.8327 513.9157 269.604 506.2327 266.4247 495.7399 267.6964 492.0521 263.1546 482.3057 260.7928 481.252 260.6112 478.5301 257.2048 473.8325 255.8876 468.8275 253.5259 467.9495 252.0271 463.1641 248.3936 457.1494 247.1673 456.2275 246.2135 457.6763 243.1251 454.8226 242.9888 450.6079 241.6717 448.2372 242.6255 447.6225 242.898 445.4274 239.31 437.1737 237.6295 429.8419 234.4956 426.2419 232.4064 418.3394 234.3139 408.2418 M 495.2422 281.0995 495.2422 286.0166 492.5625 284.1726 478.8462 282.197 478.1195 279.1238 472.8056 279.9141 470.5801 277.1482 468.8542 276.4897 467.3554 277.1482 466.1291 274.997 462.0414 272.6701 460.4972 269.4652 460.6789 267.0506 456.8637 265.9091 457.9992 263.9774 M 431.5657 259.5432 425.7522 261.2993 421.0287 254.4066 M 425.4343 239.3919 427.9777 238.5577 427.8414 237.5479 427.3873 236.3187 M 419.5753 212.0404 417.9857 210.416 413.3984 210.7234 416.5777 210.0648 419.5753 212.0404 419.7116 215.9917 418.9394 218.0112 417.3952 218.8015 417.259 221.26 419.3482 223.543 423.345 234.343 427.3873 236.3187 427.9777 238.5577 425.4343 239.3919 423.0725 244.3529 421.8916 244.748 422.7092 248.9187 424.4351 249.8407 423.6175 250.5871 425.5705 252.0358 424.8438 253.3968 423.2542 253.4846 421.3466 250.5431 419.1665 249.9285 421.0287 254.4066 424.3442 258.4017 424.8892 260.992 431.5657 259.5432 433.2008 258.3139 432.6104 256.5139 435.2446 257.7871 437.3793 256.3822 438.8327 257.5676 440.4223 255.0651 442.557 254.8895 447.3259 260.0261 447.4167 257.7871 450.1873 256.3822 451.5952 251.3773 454.3657 247.8212 456.5458 248.1724 456.4096 255.109 458.1355 256.6456 459.0892 255.9871 459.3618 257.2164 458.2263 257.9188 457.9992 263.9774 456.9092 265.9969 460.6789 267.0506 460.9514 271.0896 464.812 274.9531 466.1745 275.0848 467.31 277.1043 470.5801 277.1482 473.0781 279.958 475.894 278.9043 478.2558 279.1677 478.7554 280.1775 478.8462 282.197 472.306 281.4068 462.859 282.68 450.1418 289.0898 445.055 296.1581 442.7841 306.563 438.2422 315.5192 438.4693 319.4265 425.2072 331.7193 424.0717 333.3437 424.3896 334.7047 423.7992 333.5632 423.2542 336.4608 425.1618 339.5779 424.5713 341.334 417.6223 345.1096 406.9036 346.0755 407.6303 340.3681 411.0367 332.2022 412.3992 331.1925 414.0797 325.1339 413.2622 324.5632 411.8542 310.1192 410.9004 310.0314 410.5371 306.3435 409.2653 306.5191 410.1283 303.6216 406.5857 297.0361 407.9028 295.3678 405.8135 295.1044 405.4956 292.8654 404.0422 292.8215 403.6789 288.6507 398.6375 283.997 396.3665 278.9043 391.2343 274.514 391.2797 272.7579 390.0988 272.0116 390.7801 270.3433 371.9315 258.4017 360.6677 258.27 357.0343 255.8993 349.2223 255.9871 338.1402 251.948 337.5498 250.3675 338.9124 248.2163 338.0494 246.2407 338.7307 244.6602 335.6876 235.1333 331.1912 235.3967 328.7841 233.7284 328.6932 231.7528 323.8789 230.5674 325.741 225.6064 327.9665 225.4308 329.0566 223.543 329.5562 219.9868 333.1442 220.2942 333.5076 218.0551 338.004 218.099 339.3211 216.4307 342.6821 215.1575 343.5904 212.7429 345.0892 216.1234 346.5426 215.5966 350.4032 217.3966 352.1745 216.3868 353.2645 217.5283 352.9466 219.021 354.5817 219.7673 354.4454 221.743 355.5809 222.2698 355.0813 225.4308 356.3076 226.4844 356.0805 229.1625 358.306 229.6893 357.988 231.1381 361.3036 231.8406 361.9394 235.3528 364.3012 233.904 364.6645 232.2796 361.7578 231.8845 362.3028 230.5674 366.6629 232.104 366.7538 233.2894 370.2964 235.0894 370.3418 237.5479 380.8789 240.2699 383.5586 237.8553 385.1482 237.7236 380.1522 233.8162 380.6972 230.1723 383.4677 228.5918 382.5594 226.704 384.0127 225.2552 383.5586 224.7283 377.3363 220.9966 376.4733 222.3576 373.7936 221.4795 373.2032 224.3771 368.843 221.6551 360.259 219.46 362.6661 216.2112 364.6191 215.5527 362.4845 210.3721 364.8462 208.0014 365.8 207.9575 365.6183 209.8014 367.753 213.4014 370.3418 214.1478 371.0231 212.1283 372.9761 212.0404 374.3841 210.3282 375.2924 204.9721 380.1522 203.8745 381.8327 201.8989 385.1936 203.9184 387.51 204.3575 390.8709 207.0355 389.5538 208.2209 389.4175 210.3721 393.1418 209.8014 393.7777 208.7916 398.4558 209.4063 408.3116 213.138 411.3092 210.0648 413.3984 210.7234 410.5825 209.3185 411.4 206.5965 410.5371 204.7965 411.5817 203.655 411.7179 201.1087 416.1235 201.416 415.6239 195.2257 417.8494 195.2696 423.1633 198.0794 426.8422 198.1672 429.1586 194.6989 431.6566 195.6647 441.0582 194.172 442.4207 191.7574 441.3307 188.4647 442.6932 184.7329 451.0502 185.5232 455.91 179.8158 454.8653 176.3914 450.5052 175.4256 444.192 172.3085 443.9195 173.889 443.0112 173.7134 440.9219 172.3524 441.2398 170.9036 438.5147 170.9036 439.6502 168.8402 437.8789 168.4011 437.5155 165.6792 436.4255 164.6694 433.4733 166.8645 431.702 165.767 425.7068 165.284 420.6653 157.5133 411.6725 157.645 409.3108 157.1181 408.7203 155.2303 410.31 153.7815 417.6223 154.0449 422.4367 151.9815 424.3896 152.5522 424.5713 154.001 425.2072 157.4693 434.745 155.2742 437.4701 159.2255 445.8725 160.8938 448.8247 160.5425 451.9586 164.0548 453.1849 167.6548 M 220.0526 399.0222 222.4598 400.1637 225.3211 399.8564 225.957 398.671 232.588 399.2856 231.498 402.0954 233.1785 411.754 232.4518 418.4711 234.4956 426.2419 M 270.0582 521.6425 267.5602 528.9743 269.8311 536.0426 271.0574 536.4378 268.7865 537.9305 266.0159 537.7987 265.9705 539.7305 261.4287 540.5646 254.7976 543.7695 253.5259 540.2573 246.7131 540.4329 243.3522 536.8768 245.8502 534.9012 239.1283 529.7206 236.9482 531.2133 234.2231 531.2133 233.3602 528.184 226.6382 527.0865 224.0948 525.2426 223.2319 525.067 222.6869 527.0426 219.9163 527.745 218.4629 527.7889 217.8725 526.5157 216.1466 526.5596 216.0558 527.3499 212.7857 526.2962 210.2876 527.5694 204.1562 528.184 202.3849 529.8084 203.2024 530.8621 202.7482 533.2768 201.5219 533.4963 197.298 527.7011 195.4813 527.4377 194.2096 529.106 188.6685 529.4572 189.8494 525.2865 188.2143 526.1206 185.898 524.9791 183.1275 525.1548 184.3084 520.2816 181.6287 519.9742 182.9004 517.7791 178.8582 517.2084 174.8159 520.3694 173.7713 522.4767 171.2733 520.4133 172 517.9108 171.0462 516.8571 171.3641 515.584 M 169.9108 507.901 170.592 505.6619 168.8207 502.5449 M 133.3944 453.4177 136.7554 454.0762 138.0271 446.964 M 133.9394 445.1201 130.8964 444.6371 132.2135 441.2566 129.2159 439.1054 132.1681 433.7932 M 135.8924 431.4663 133.4853 430.4127 135.847 423.3882 137.6637 423.1248 140.3888 420.315 146.5657 421.0614 M 152.8789 413.4662 151.9705 411.1394 152.9697 409.515 157.012 409.2515 160.8271 411.4028 M 158.7378 416.276 163.6884 419.7443 165.4143 419.3053 M 171.8183 410.3052 172.5904 409.4711 175.0884 409.6467 175.9968 410.5247 M 187.3968 424.0029 190.4398 423.5638 192.847 422.6858 M 195.9355 416.4516 200.5227 411.2272 199.3873 403.193 M 200.2048 398.1441 202.1124 396.6515 M 217.0096 393.7978 218.0542 393.71 219.0988 393.7978 M 190.0765 525.4621 190.0311 525.6377 190.2127 525.4182 190.0765 525.4621 190.2582 525.4182 190.0311 525.6377 190.0765 525.4621 M 197.298 527.7011 201.4765 533.4963 202.7482 533.2768 M 223.2319 525.067 226.6382 527.0865 M 261.4287 540.5646 266.0159 539.6866 266.1068 537.7548 268.741 537.9744 270.9211 536.7012 269.8311 536.0426 267.5602 528.5353 269.059 526.7353 271.557 526.2962 M 290.996 532.6182 292.3131 523.6621 296.9458 525.7694 M 297.1729 534.3743 299.0805 535.2085 298.5809 535.867 301.7147 535.9109 M 319.7004 545.4378 320.9721 546.9305 319.7458 549.5208 M 326.1952 558.5647 328.6478 558.8282 329.102 560.3209 M 327.7849 562.2526 323.9697 561.9013 324.0606 563.5697 325.7865 563.1745 326.7402 564.755 328.7841 564.8867 328.6478 566.7746 325.6048 566.3355 324.7873 568.3111 322.4255 568.1794 321.2446 569.2331 321.3355 573.1404 317.4749 574.4575 318.4741 576.4332 320.2908 576.96 319.8367 578.1893 318.5195 577.9258 318.5649 579.7259 317.3386 580.9112 315.6127 580.121 315.5219 581.2625 312.388 582.7991 312.3426 583.7649 310.8438 582.9747 310.3442 584.3795 304.9394 584.3795 303.259 586.7064 300.1251 584.2478 299.7618 586.5308 297.1275 587.804 303.5315 592.0625 303.5315 593.4235 300.4884 594.126 300.0797 595.3113 299.0805 595.2674 297.8088 592.4138 295.9466 594.3894 294.357 593.8186 295.3562 591.5796 294.1753 590.7454 293.6757 592.1942 292.5402 591.6235 291.9498 589.9113 293.6757 589.3406 292.3586 586.4869 290.6327 588.1991 290.4964 587.1015 288.3618 587.0576 287.2717 589.121 284.7283 588.1113 285.0008 587.321 283.7291 587.5844 283.2749 589.9113 282.0486 590.3064 277.5976 588.5503 278.5514 584.4235 277.8701 582.2283 276.7347 581.6576 275.1904 582.6234 273.6916 581.5698 269.7857 582.2283 267.6964 580.9112 267.3331 582.4039 264.6988 582.5795 264.3809 584.3356 262.9729 584.2917 262.3825 585.3454 263.0637 585.1259 263.1546 586.3552 265.7434 586.1357 266.1976 587.1454 268.6956 585.96 267.5602 588.5942 265.0167 589.5601 266.4247 590.9211 266.0159 591.7552 267.9235 591.7552 267.2876 593.0723 269.4677 592.2381 269.5586 594.3455 267.9235 594.0821 268.0143 597.2431 261.6104 597.1113 262.9729 598.2967 261.1562 598.7357 262.2008 599.7455 259.7936 599.5699 260.2478 603.6968 258.7036 603.8724 258.2948 602.3358 254.9339 605.4529 253.6622 605.0577 255.4335 603.4333 252.6175 603.7407 252.2542 600.7553 250.4375 601.1504 249.9833 599.965 248.757 602.2041 248.4845 598.9553 247.7124 598.9553 245.2598 601.1943 247.5307 602.1163 247.6669 605.4968 244.0789 607.8675 242.3076 607.6041 243.443 609.2724 242.0805 610.1066 243.443 610.4139 242.3076 611.1163 243.5339 611.3358 242.7163 613.0041 240.5817 613.97 235.7219 612.0822 232.361 613.4432 230.5442 611.9505 230.6351 610.6773 223.7769 607.3407 221.5514 607.648 221.3243 608.5261 216.6916 607.9553 214.6932 611.248 217.2367 611.4236 218.0088 612.9602 213.5124 612.6968 213.4669 606.3309 211.8319 606.3309 211.4231 607.8236 208.5618 608.1748 205.655 607.1212 203.7928 609.3602 199.5235 610.5017 195.8446 609.1407 194.8908 614.4529 190.0311 612.8724 189.9402 614.4529 186.4884 616.8676 189.1227 619.37 188.2143 619.5017 190.0765 622.7505 187.7602 622.7944 184.5809 630.8725 185.1713 633.7701 183.6725 637.6775 179.9936 640.3555 180.7203 640.7946 179.9482 641.9799 180.8112 642.1555 179.9936 645.8873 177.9044 646.8092 177.4048 644.8775 178.8582 644.8336 176.9506 644.3507 176.5418 642.2873 175.8151 643.3848 173.7713 641.1897 173.7259 642.3751 176.451 644.7019 174.7251 644.219 174.4072 648.3019 171.2279 648.3019 171.9092 651.1117 170.9554 653.4825 167.1857 652.3849 161.8717 653.2629 154.6048 649.3117 151.698 645.4483 148.9729 645.2726 148.2916 647.3361 144.4765 646.6336 148.6096 642.9019 147.6104 639.8726 149.0637 637.1067 149.745 629.9067 151.3347 629.2042 155.7402 630.0823 155.8765 628.3262 158.1928 627.7115 156.5124 627.2286 156.8303 625.7798 158.4653 625.6481 160.055 621.9164 163.3251 625.2969 164.3243 624.2432 165.6869 625.6481 169.0024 624.7701 170.91 629.292 171.1371 625.4286 168.2757 623.0579 166.3227 623.8042 165.596 621.4335 168.2757 619.5895 168.0032 617.8773 171.1825 618.492 171.9092 616.8676 170.8191 615.4627 170.6829 611.6871 175.8606 609.8431 175.361 606.8578 178.2677 605.4529 176.1331 602.8626 178.9036 601.8528 179.4486 599.6138 182.4008 599.3065 182.0375 597.3748 179.4032 597.0674 179.4486 596.0138 182.2645 594.7406 181.0382 593.9503 183.1729 588.0235 182.2645 588.0235 180.9928 584.8625 180.5841 587.2332 178.3586 587.2771 177.6319 589.3845 175.8151 587.0137 172.3633 585.96 172.7721 583.9844 168.8661 585.2576 168.5028 583.2381 167.2765 582.9747 164.5968 584.5552 162.1896 582.8869 162.7801 581.7454 163.7793 582.7112 165.3235 581.7893 160.9633 579.9015 162.6438 576.3893 161.9171 565.238 165.1418 558.4769 164.5968 557.3794 157.1028 556.6769 150.4717 557.9062 148.11 556.2379 147.792 557.4672 146.4749 556.8525 143.8406 559.6623 143.5681 557.1599 144.8398 555.5355 144.9307 553.3403 141.3426 552.9013 141.4335 550.794 140.1618 550.311 135.9833 550.4427 133.2582 551.8915 133.5307 550.2671 131.1235 548.5549 131.6685 546.3598 135.8924 546.9305 136.6191 544.6476 133.7124 541.9695 137.2096 537.4036 148.2008 538.3256 M 167.1857 518.3498 171.0008 516.901 172 517.9108"/>
</g>
</svg>