<?xml version="1.0"?>
<svg xmlns="http://www.w3.org/2000/svg" version="1.2" baseProfile="tiny" width="800" height="384" viewBox="0 0 800 384" stroke-linecap="round" stroke-linejoin="round">
<g id="AR" fill="none" stroke="black" stroke-width="1">
<path d="M 400.8542 145.7793 395.506 144.7402 393.9461 148.8388 389.4892 153.5724 389.7121 155.0156 386.2209 157.6133 385.8495 159.5183 388.4493 163.7901 391.5691 165.0601 386.9637 164.5405 385.0324 166.3878 384.8838 170.8328 383.3239 172.6223 388.0779 180.3 388.1522 188.3818 398.403 192.9999 400.7057 196.6945 400.7799 196.6945 404.6426 197.5604 407.2424 201.5435 406.351 205.0649 407.3167 207.0853 410.8079 212.9157 415.4876 214.5898 415.5619 214.5898 415.7847 217.2453 415.0419 217.8225 414.9676 218.4575 414.0762 218.6884 395.2832 222.9602 394.4661 225.0961 386.8151 227.232 380.427 232.2543 380.3527 232.2543 378.1243 230.5225 378.1243 230.4647 371.7361 225.558 361.1139 225.2693 360.9654 221.8634 356.5828 220.8821 355.0972 217.8803 344.9207 220.1316 341.2809 211.6458 344.1036 207.8935 338.0126 205.5844 336.3041 205.5844 334.6699 204.3144 330.4359 202.6403 329.6188 202.5249 327.9104 202.294 326.7961 199.5808 322.9335 197.9067 322.5621 195.6554 317.6596 192.3649 317.8082 189.7095 315.0598 188.555 318.6252 184.9759 318.031 183.1864 320.1851 182.1473 313.9455 171.3523 313.0542 167.4269 302.952 163.8478 294.2611 157.7288 291.2899 155.8238 288.6157 158.1906 284.1589 157.9019 282.0047 162.6355 282.0047 162.6933 280.8163 162.9819 275.0966 164.1942 274.2795 164.3674 264.0288 161.3656 260.909 162.5778 260.6861 162.6933 260.4633 162.4046 257.1206 161.1346 256.6007 161.1924 256.3778 160.846 254.3722 157.9019 251.3267 157.9597 251.0296 157.3824 250.2868 157.2669 249.1726 155.2465 247.8355 154.7847 247.8355 152.8797 244.5672 151.552 238.7732 153.3415 237.2133 149.9933 233.2765 150.3974 229.1167 154.1497 229.2653 153.0529 230.5281 145.202 223.6942 140.8147 231.048 134.003 236.6191 131.0012 240.6303 122.6307 239.8875 118.128 243.6758 116.9158 244.9386 112.5863 255.1151 110.8544 259.7205 107.6795 262.5431 110.9699 265.8858 106.6404 271.6797 110.0463 283.4161 110.2194 298.5694 105.9477 304.5119 108.7763 313.8713 103.4654 324.122 108.5454 329.6931 102.7149 333.4071 106.0631 338.0126 111.0276 335.6356 115.0685 335.0413 121.0144 344.5493 126.2675 348.0405 126.6716 349.6004 128.6921 350.4175 134.9266 355.0229 139.8334 356.2857 140.4684 357.7713 140.757 364.6794 140.2952 366.3136 141.392 367.7249 138.852 374.6331 141.2766 376.7872 142.8929 375.8958 145.7793 376.7872 148.5502 379.6842 150.9747 384.8838 151.6097 385.0324 151.7251 387.3351 153.9188 389.415 153.3415 389.4892 153.5724 M 724.1248 249.861 722.4164 250.7846 713.4284 248.3024 711.1257 251.5928 710.9771 251.766 704.5889 247.4365 702.9548 247.1478 702.212 245.8201 695.2295 244.0306 693.9668 242.9338 692.5554 242.5297 691.8869 241.202 691.2184 239.9897 690.7727 239.1815 691.2927 238.5465 694.041 235.3138 690.6984 230.9266 690.327 230.407 692.9268 225.4425 690.4756 219.0348 686.6872 219.6121 678.8877 213.1467 663.5859 210.0871 660.2432 203.0444 646.1299 191.2104 645.387 189.825 644.1243 187.2272 651.4781 181.8009 652.5923 176.2014 647.1698 165.7528 647.9869 161.0192 652.8151 153.457 649.3239 149.9356 648.5068 149.3583 648.6554 149.1274 648.284 148.7811 649.6211 147.4534 657.1977 146.7029 658.3862 150.8015 660.0947 151.0324 661.0603 153.457 662.8431 153.1683 664.2544 152.5911 665.5172 147.0493 669.0827 143.297 676.1393 143.4702 685.573 137.3511 697.1608 137.0048 708.8972 143.0661 713.1312 150.0511 722.5649 150.3974 728.9531 147.9729 732.5929 153.5724 742.1751 157.5556 745.7406 156.1701 749.7517 151.8406 755.2485 150.282 763.3452 155.131 766.3164 159.9224 773.1502 159.8647 775.4529 163.2128 781.024 163.0974 785.1837 166.4455 793.5775 170.0246 797.0687 174.4119 793.2061 173.4882 787.5607 178.5682 786.7436 180.5886 788.675 184.5141 784.7381 188.0931 784.4409 190.2868 787.635 191.9031 793.3546 191.2104 792.6118 193.6349 793.8003 195.4822 799 197.5604 795.7316 199.1767 793.9489 202.6981 793.5775 208.413 795.2117 210.8376 794.0232 211.9921 795.4345 214.9362 792.0919 216.4948 789.1949 215.2826 786.1494 215.8598 786.5951 212.8003 784.5152 210.3758 777.3843 213.0889 764.3108 224.923 756.437 228.9061 754.9514 235.8334 751.3859 233.8706 749.4546 235.1406 747.3005 233.7552 741.0609 242.3565 740.6895 245.0119 734.1528 245.7047 729.9187 252.1701 724.1248 249.861 728.9531 251.8815 728.0617 256.846 730.513 256.846 730.2901 261.6373 734.227 266.5441 730.8101 269.4882 729.8445 274.1063 733.7813 276.9927 734.1528 279.1863 737.8668 281.0336 737.8668 284.959 741.6551 288.8845 742.7693 292.3481 746.8548 293.7335 750.4946 299.6217 755.0257 303.2007 755.3228 306.6644 765.2765 316.3625 764.9793 318.9602 761.7853 323.232 756.6599 320.8652 756.2142 322.5393 751.6088 323.232 747.1519 317.8057 742.0265 316.6511 740.838 314.6884 729.6216 312.7834 723.9763 309.8971 723.2335 307.0107 727.4675 304.8171 727.3932 300.4299 722.1935 298.7558 722.3421 296.2158 715.3597 288.6535 702.7319 285.0745 701.9148 287.0372 689.3614 285.9404 687.3558 288.3649 688.0986 290.3276 681.9333 292.4058 678.2192 296.7353 675.9908 295.0035 669.2312 293.9644 659.5004 296.9662 648.5811 295.6962 644.2728 297.1394 643.9014 298.7558 638.0332 297.7744 632.165 301.8153 628.0796 301.9308 619.1659 305.3366 609.955 311.2825 608.3209 316.3625 602.5269 322.3084 599.5557 328.7161 593.9104 330.3902 589.3049 333.9115 583.9567 334.662 580.0198 333.6806 573.6317 341.9933 574.3002 344.3024 572.666 345.7455 572.2203 349.8441 568.3577 352.1532 563.3066 349.8441 564.0494 348.8051 565.3122 346.9001 563.5295 337.7215 558.3298 336.971 556.7699 334.2001 556.4728 332.0642 559.2954 327.0997 557.8098 322.0775 561.1525 318.6716 561.7467 312.3216 558.0327 309.4353 557.1413 304.3553 563.6037 301.4112 568.8777 301.7576 571.8489 299.3908 576.9743 298.9867 579.8713 297.024 580.3912 298.5249 587.8193 296.6199 587.3736 298.8135 592.2762 300.9494 593.9104 298.4094 592.9447 297.3126 601.487 293.3872 600.8185 292.4635 603.6412 291.5399 602.2298 291.0781 605.4982 287.2104 608.9894 285.594 604.6811 279.6481 602.8984 279.244 602.7498 277.4545 600.7442 278.6091 598.9615 276.1845 594.4303 276.5886 591.3848 281.4954 591.0134 276.4732 587.5222 278.5513 587.8936 280.1677 585.8137 278.3204 587.0022 273.5291 589.3792 272.2014 589.8249 268.5646 591.5334 268.045 590.0478 265.9668 589.8249 261.6373 589.8249 261.291 607.2066 259.9632 615.3033 253.2092 624.0684 251.4196 625.0341 253.2092 637.5133 258.4046 646.9469 259.6746 648.804 258.5778 649.3239 258.1737 657.6434 247.956 659.129 248.7642 660.5404 247.4365 666.7799 246.9169 668.4884 248.4756 672.2767 247.7828 677.5507 249.0528 686.1673 246.4551 694.1153 250.2651 699.7607 246.6283 702.212 245.8201 M 172.7375 311.5134 166.4979 309.7239 165.0866 309.3775 156.6185 312.3216 146.4421 316.247 144.5108 319.7107 143.6194 322.7702 144.0651 328.4852 152.0874 334.6042 150.4532 337.4906 144.4365 340.2037 144.0651 340.3192 140.2767 341.1851 139.3111 341.416 123.5635 341.3006 120.6666 343.7251 118.7353 343.4942 116.8782 345.9187 111.6786 345.8033 112.3471 344.9374 103.8791 346.2073 103.9534 348.3432 100.2393 349.036 97.4166 347.9969 89.1715 350.6523 78.1779 350.306 77.4351 350.2482 78.6978 341.2428 76.6923 338.1256 76.8408 334.7197 73.6467 332.9879 71.4926 328.7161 68.8928 328.7161 67.4071 326.9843 65.8472 320.1725 67.7786 316.9398 65.9958 313.7071 70.4527 310.0125 72.3097 305.3366 71.7897 302.4503 68.2242 299.5062 72.384 298.063 76.6923 299.1599 78.995 298.2362 79.2178 296.6776 70.8241 291.2513 71.0469 288.769 69.1899 285.6517 70.3041 281.3222 68.15 276.3577 65.4758 274.8568 64.5845 269.0264 60.0533 272.49 54.6308 273.0673 42.3745 270.0655 39.5518 271.9127 24.8442 271.7395 23.5814 268.9109 20.7587 267.3523 15.7819 270.0077 11.325 265.9091 9.8394 262.0414 7.7596 262.33 3.377 256.211 5.3083 252.9205 2.857 249.5147 8.0567 241.4906 11.845 239.6433 13.9992 231.6193 12.4393 226.7702 8.4281 223.9993 3.897 224.7498 1 219.2657 17.0447 218.9194 23.5071 225.0384 30.1181 226.7125 39.1061 225.4425 44.0087 235.4293 46.4599 237.5074 50.4711 236.9302 51.8824 238.4311 55.5222 236.5838 56.9335 233.582 60.7961 230.9843 70.5269 232.4275 84.1946 221.8634 90.2114 219.1503 97.6395 218.4575 104.7705 229.7143 114.5755 227.5784 115.0212 224.8075 118.2896 223.8839 123.2664 226.8279 126.4605 224.8652 125.4948 228.9061 125.4206 229.3102 125.272 229.3679 118.8838 232.8893 118.9581 239.2393 116.2097 244.2038 109.3759 244.2038 99.4222 247.4942 96.0053 247.1478 92.9598 250.3806 92.9598 253.671 91.177 256.7305 83.3775 257.1346 77.955 264.235 69.4127 265.3896 64.5845 268.8532 64.5845 269.0264 M 272.6454 251.131 277.325 251.7083 290.8442 242.5297 295.2268 242.3565 303.2491 236.3529 303.3234 228.2711 316.3968 224.5189 319.888 224.1148 322.265 227.232 319.9623 234.6211 323.8992 237.2765 324.7163 245.9933 326.8704 248.9951 342.098 252.9783 341.5038 256.4419 349.3033 260.3096 349.3033 261.695 344.6236 265.5628 326.9447 266.14 340.9838 267.7564 344.1779 270.0655 349.229 268.5646 355.32 263.5423 360.8168 262.7919 362.7481 263.4269 364.7537 267.0059 356.1371 271.1045 356.5085 272.8941 347.0006 280.2831 342.9894 286.5176 333.63 291.0204 308.4488 315.4389 308.3745 317.0552 307.3345 317.1129 311.0486 319.8261 312.7571 324.0979 311.5686 326.5802 309.043 326.5224 308.0774 327.7924 306.7403 325.8297 307.6317 327.7924 305.4032 328.7161 305.0318 326.7534 304.6604 329.0047 303.6205 327.2729 303.1748 330.3324 297.1581 332.8724 293.6669 336.5092 290.8442 338.5297 289.21 339.9728 288.7643 340.0306 263.286 344.2446 262.766 344.3024 262.6174 344.1869 259.7948 342.3974 252.9609 341.5315 251.9953 341.3583 251.4753 340.146 250.5839 337.7792 245.0128 336.6824 245.3843 330.7365 241.2988 324.9061 238.6247 325.0793 235.802 321.6157 227.6311 319.7107 227.9282 316.9398 241.1502 312.2062 236.0249 307.0107 229.4881 308.3384 228.671 308.5116 228.8196 306.8953 229.2653 303.778 229.2653 303.7203 230.6023 303.3162 229.4881 301.4112 238.7732 296.2735 237.9562 291.1358 240.036 289.2885 242.2645 288.3649 243.6758 287.4413 249.6183 285.3631 249.1726 279.244 249.0983 279.244 243.6758 275.4918 241.5959 275.665 243.3044 273.0095 242.413 269.4305 238.7732 264.7546 243.7501 260.021 239.5903 256.9614 237.1391 257.1923 237.4362 255.6914 235.7277 254.7678 229.8595 253.7287 229.9338 253.6133 238.4018 246.2242 243.6015 244.6079 268.7827 247.2633 272.6454 251.131 272.8682 251.3619 275.3195 253.7864 282.8218 263.3114 281.4105 268.5068 276.0623 271.5086 274.5767 276.1268 277.4736 276.5309 280.4448 285.7095 282.1533 287.0949 284.6046 286.6908 289.3586 289.9813 299.535 287.7299 305.5518 288.0185 308.523 285.1899 311.2714 286.9795 312.4599 286.229 311.3457 277.9163 314.3912 275.7804 314.7626 272.4323 319.6652 268.8532 326.9447 266.14 M 564.0494 348.8051 561.6724 348.9205 556.8442 352.9037 556.1756 357.1177 553.6501 361.1009 548.3762 360.6968 544.8107 358.0991 539.6853 362.9482 538.4225 360.4659 539.611 352.4996 530.8459 353.7696 524.6063 349.1514 522.4521 347.5928 520.9665 344.4755 522.2293 334.4888 519.9266 331.2561 523.7892 329.6397 523.5663 324.2134 521.8579 323.0588 522.155 322.6547 522.0807 322.5393 522.4521 322.3084 524.9777 320.6343 529.9545 318.5561 530.6973 318.5561 530.9201 318.152 531.9601 317.6902 532.5543 318.0943 532.8514 317.3439 533.7428 315.3234 532.5543 314.2843 534.3371 310.9939 533.2971 307.4725 534.7085 305.6253 536.7883 302.8544 537.754 302.508 539.3882 301.873 540.131 300.0835 543.6965 299.7371 549.7132 303.6048 552.0902 305.1635 552.3873 305.3366 553.7244 304.8748 557.1413 304.3553 M 602.7498 205.0649 603.1212 204.7185 586.2594 203.7949 582.4711 203.564 582.3968 203.564 553.4273 205.7576 553.4273 205.8153 550.6046 208.2399 548.5247 208.1244 548.4504 208.3553 547.5591 210.6067 541.5423 215.5135 540.9481 215.9753 522.5264 221.5171 512.8699 217.5916 504.7732 220.0162 499.3507 221.6902 489.4714 224.6921 486.5744 219.1503 487.3172 212.8003 480.6319 211.0685 483.0089 204.0258 480.0377 196.4636 486.5744 196.3481 498.8308 192.4804 503.5848 193.2308 510.1958 187.3427 511.0871 183.1864 504.9961 179.2032 501.8763 178.4527 507.5959 172.7955 512.1271 172.1028 512.4242 169.1587 517.401 166.3301 517.9953 161.0192 523.0464 157.1515 523.1949 157.1515 523.8634 157.7865 530.3259 156.9206 532.8514 161.8851 534.1885 164.5983 535.6741 164.021 543.6965 160.9037 543.9936 161.0769 547.4848 164.7714 547.6333 164.9446 547.4848 190.6331 547.1134 192.6536 543.0279 199.6385 539.3139 206.0462 539.0168 206.4503 539.1653 206.9699 541.5423 215.5135 M 649.3239 258.1737 645.7584 254.7101 646.6498 250.2651 643.6786 247.0324 642.4158 237.7961 644.1243 228.502 635.2106 216.3216 610.1036 220.0162 580.3912 235.5447 575.7858 236.4106 576.2315 236.122 576.9 235.8911 576.9 235.7179 576.4543 233.1779 581.5054 227.0589 584.8481 225.5002 584.8481 225.4425 584.9224 225.4425 584.8481 223.5375 589.3049 222.383 589.3792 222.3252 595.4703 215.4557 596.733 215.7444 595.4703 214.7053 598.4415 213.493 597.4016 212.858 600.5214 210.4912 600.5214 210.4335 600.0014 208.0667 600.7442 207.2585 602.7498 205.0649 602.8241 205.0649 605.1268 205.2958 608.8408 200.2735 609.6579 194.0968 614.709 187.9777 614.9319 187.7468 614.9319 187.6891 615.0804 187.1695 616.566 183.1864 616.566 182.84 616.3432 176.8364 616.1946 173.7191 619.1659 173.6037 620.6515 173.7769 626.2968 176.49 636.2505 168.2351 643.3815 167.1383 639.3703 158.8833 646.427 152.7642 648.5068 149.3583 M 260.909 162.5778 260.9832 162.6355 259.5719 172.3914 261.3546 184.2832 264.9201 185.5532 267.5942 190.229 276.3594 191.8454 278.7364 202.6981 282.8961 205.9308 278.2907 212.4539 280.6677 212.223 279.3306 222.3252 268.1142 234.6211 271.234 237.4497 271.9025 244.0306 268.7827 247.2633 M 229.9338 253.6133 231.2709 252.1701 230.0081 247.7828 225.3284 243.9151 229.191 239.0083 226.1455 236.122 229.4139 232.2543 231.2709 226.7702 226.3683 221.4593 225.8484 220.8243 225.6255 220.9975 222.7286 223.9416 216.5633 223.8261 211.8093 225.6157 208.9123 223.1911 195.8389 223.5952 191.1592 219.9584 189.4507 216.2062 189.4507 209.8562 180.4627 207.0276 179.7199 205.3535 179.7199 205.2958 165.6808 205.4112 162.6353 202.8135 163.5267 201.1394 159.4412 195.1936 152.9045 190.46 156.47 182.5514 171.7719 172.1605 174.0003 172.276 175.6345 176.3746 184.771 171.8719 187.148 167.7155 194.2047 164.0787 199.033 168.2928 203.6384 163.9055 202.227 158.4215 211.9578 157.9019 215.969 155.2465 225.4027 156.4588 229.2653 153.0529 M 126.4605 224.8652 131.1402 221.2862 136.9341 224.5766 139.1625 224.0571 145.2536 216.3794 153.9444 213.3198 162.6353 202.8135 M 243.6758 287.4413 239.5161 281.3222 225.3284 284.2663 221.2429 293.3294 199.1072 301.7576 196.656 305.7985 200.0729 308.3962 208.6152 308.0498 209.7294 310.3012 208.1695 312.4371 200.37 316.3048 193.0905 314.1689 184.5482 317.4593 179.3485 316.6511 176.8972 317.7479 175.4116 313.7071 172.7375 311.6289 172.7375 311.5134 173.5546 311.7443 172.8118 308.3962 176.1544 306.5489 175.4116 305.1635 176.5258 304.0667 176.5258 304.0089 174.8174 302.7967 171.4747 300.3144 172.3661 295.5231 174.446 296.6199 177.64 295.8117 172.1433 290.8472 171.6233 288.0763 173.5546 287.4413 173.1832 284.1508 174.6688 284.2086 174.6688 281.2645 174.1488 279.3018 172.069 278.9554 173.0346 277.8009 172.069 274.6836 158.0299 274.4527 155.8757 271.3932 152.5331 270.0655 151.3446 267.5832 152.236 264.235 150.3047 260.5982 145.2536 259.1551 147.1106 255.8069 145.3278 254.3637 145.7735 251.4774 143.6194 249.9187 137.1569 251.1887 134.9285 250.1497 134.8542 243.1647 132.1801 238.4888 132.9229 235.7756 126.609 229.9452 125.4206 229.3102 M 329.6188 202.5249 327.3161 204.4876 324.8648 210.5489 318.8481 211.9344 318.9966 213.1467 324.9391 215.2826 322.7107 222.6716 319.888 224.1148 M 589.8249 261.6373 588.4136 261.7528 587.9679 261.8105 581.654 257.5387 581.8769 254.4792 581.8769 254.2483 578.5342 254.1328 578.1628 253.4978 576.9743 251.1887 579.1285 248.3601 575.7115 246.1665 576.3801 243.9151 578.4599 243.1647 575.3401 242.1833 575.043 238.4311 573.6317 237.0456 574.523 236.757 576.2315 236.122 M 538.4225 360.4659 539.5367 363.9295 536.4912 370.2218 533.3714 370.6836 528.9888 376.8026 521.7836 378.7076 519.9266 380.4972 516.5096 380.0931 512.2013 383.2103 506.1846 382.5753 505.8875 379.7467 502.6934 378.8231 502.5448 375.7058 499.4993 372.5886 500.3164 368.9518 503.8819 365.315 503.8076 365.2573 499.2022 363.5832 497.7166 359.8309 498.5336 356.5982 495.4881 355.2705 499.2765 351.6914 501.9506 351.9223 502.4705 348.9205 502.1734 346.2073 498.9793 343.6096 498.3851 341.416 499.6479 340.3192 496.9738 337.7792 497.4937 330.9674 499.5736 331.8333 502.4705 329.8706 504.4018 332.4683 506.1103 331.5447 506.4074 331.2561 510.5672 326.6379 521.0408 320.7497 521.1151 321.3847 521.4122 323.0011 522.0807 322.5393 M 501.8763 178.4527 501.3563 178.9723 497.048 177.2405 494.2254 172.9109 489.5457 171.9296 488.6543 170.1401 489.7685 168.5237 485.3859 163.7901 486.8715 148.4347 482.1176 145.8947 481.969 143.1816 485.0888 139.1984 485.9802 136.6584 484.7174 133.8298 485.9059 131.5207 482.3404 127.9994 476.1008 129.5003 469.3412 127.653 467.1128 122.6885 465.1815 121.7071 457.5306 124.9398 446.3884 122.3421 443.0458 125.3439 438.069 126.9603 440.5945 123.5544 438.2175 123.4389 436.4348 119.6289 436.2862 106.2363 421.0586 95.3259 420.9844 92.9591 419.2016 91.6314 415.4133 91.92 411.2536 89.38 406.2767 89.2068 404.9397 87.9368 405.1625 85.8009 400.1114 82.8569 396.026 79.0469 394.9118 78.2964 388.6722 72.8124 381.4669 65.7697 360.2968 58.3229 364.3823 52.2038 374.3359 43.4293 383.6953 42.8521 385.8495 37.7144 393.8718 32.7498 402.4141 34.1353 411.105 32.4612 413.7791 25.4185 419.4245 21.0313 420.6872 16.1822 427.2982 19.0108 435.3949 25.2453 442.7487 32.8653 443.4915 37.0794 443.64 41.2934 453.7423 38.5803 460.1304 41.6398 466.7414 41.9862 474.2438 45.9693 469.3412 40.0812 470.8269 40.1389 476.5465 42.9675 484.4946 44.1798 487.6886 47.932 505.2189 48.7979 505.0704 54.4552 507.5959 56.822 508.413 59.6506 504.3276 63.4029 506.7046 68.2519 505.8875 70.1569 505.8875 70.2147 509.1558 70.9651 511.9042 69.2333 515.4697 73.3319 514.2812 75.641 515.544 77.8346 514.0584 78.9892 514.9497 84.7618 519.3323 87.3018 520.0008 92.0354 522.3035 93.6518 521.635 95.4991 524.3091 98.6741 519.0352 103.4654 521.635 115.1262 523.0464 121.7071 525.7205 122.1112 526.6861 124.1894 524.8291 127.1912 524.6805 127.3644 524.6063 127.5375 524.6805 127.5375 524.6063 129.8466 516.9553 134.7534 517.1039 139.6602 514.4298 141.6229 517.0296 144.2784 516.881 149.8779 521.1151 150.917 522.9721 156.9783 523.0464 157.1515 M 415.7847 217.2453 420.7615 217.7648 422.6928 220.0162 432.4236 223.4221 433.315 227.5784 436.3605 230.5225 444.9028 228.7907 457.3077 223.7107 457.9763 221.0553 461.1703 219.0925 458.5705 218.7462 458.5705 218.6884 458.4962 218.6884 458.0505 215.9176 460.5761 214.7053 465.033 202.2363 460.279 199.9849 460.2047 199.9849 454.6336 199.5808 456.4906 197.5604 456.4906 197.5026 460.9475 192.7113 461.0961 192.5381 480.0377 196.4636 M 489.4714 224.6921 465.7015 232.0811 450.771 236.6993 449.2111 240.3938 442.823 241.0865 437.4747 245.8201 433.4636 244.6656 431.3094 246.3397 428.4125 245.1851 427.6696 247.7828 424.9955 247.8983 420.9844 250.7846 414.7448 251.5351 412.962 253.5555 408.9509 253.9019 402.7113 257.8273 399.8143 257.3078 397.6602 260.1364 393.5747 254.0174 384.4381 257.5387 384.2153 257.481 375.3759 253.7864 372.5532 255.4605 369.4334 252.1124 369.8791 251.6506 371.1419 250.3228 371.0676 250.2074 370.8447 249.861 370.3991 249.1683 369.7305 249.2837 368.3192 249.4569 367.1307 249.6301 365.2737 251.5928 363.7138 253.1515 363.3424 252.8628 368.0963 247.3788 382.9525 237.3343 382.9525 236.757 382.4326 236.4106 380.5013 237.1034 380.5013 237.0456 377.53 235.0252 377.3815 234.9097 377.9757 231.0997 378.1243 230.5225 M 507.5959 56.822 507.2988 55.9561 509.9729 55.3211 525.4233 59.0156 532.8514 58.7847 537.1597 53.4738 538.5711 44.6993 545.4049 46.3157 544.2164 34.6548 550.7531 34.1353 552.5359 28.1317 557.8841 29.8058 566.575 22.9363 569.9919 22.6476 576.9 15.3163 579.4256 18.0295 586.4823 14.9699 590.9391 10.525 601.3385 11.7372 614.709 1.4041 619.0173 1 630.9765 14.2772 632.3879 16.9904 632.0165 21.7817 640.1874 31.9417 646.8727 31.8839 649.5468 28.709 654.0036 27.5544 656.4549 25.0722 658.0891 25.3608 660.4661 29.0553 654.1522 40.7162 642.4158 42.1593 636.6219 45.1611 632.2393 51.107 622.5828 53.4161 627.4853 56.7643 632.0908 65.5965 631.4965 68.3097 628.0796 70.0415 626.7425 72.5237 629.5652 76.8533 640.7073 71.831 646.8727 64.211 654.1522 59.6506 666.26 58.9579 678.3678 53.2429 671.9053 64.9038 673.2424 68.8292 677.4764 68.021 680.1505 74.8905 680.002 79.9128 689.5842 91.6891 690.5498 96.1918 686.5387 102.0799 671.1625 106.6404 673.9852 113.4522 664.9972 120.3794 661.3574 119.398 662.1003 123.5544 655.0436 124.0162 651.1067 127.5953 651.2552 130.1353 644.4957 130.6548 641.8216 126.4985 637.439 127.3644 630.9765 129.6157 630.308 132.0402 621.0229 133.1371 608.9151 130.5971 606.5381 133.1371 599.9271 134.0607 599.3329 140.9879 601.487 143.4125 599.63 144.9134 594.5046 145.3175 586.5565 149.8202 585.8137 153.5724 591.0877 158.0174 584.2538 162.2892 579.2027 156.6897 574.8944 156.4588 564.1237 152.187 562.8609 150.3397 548.8961 149.1852 549.8618 136.6584 547.0391 133.6566 542.6565 134.2916 540.9481 131.2898 524.6805 127.5375 M 651.2552 130.1353 651.3295 128.3457 656.6777 131.6362 657.4948 134.0607 642.6386 144.0475 648.2097 145.2597 649.6211 147.4534 M 461.0961 192.5381 457.3077 189.19 461.0961 186.4768 463.9187 182.0895 458.4219 178.0487 459.239 172.9687 456.5649 169.5628 448.6911 169.7937 443.7143 174.3541 440.2231 174.2387 433.7607 169.4473 428.8581 170.1978 424.6984 171.4678 422.0986 177.0673 418.4588 179.2609 418.6817 174.7005 417.1218 172.1028 418.6817 168.2351 418.3102 164.5983 413.7791 161.1924 411.2536 155.1888 406.7224 154.496 402.7855 150.1088 401.3742 148.5502 401.597 147.3379 400.8542 145.7793 401.9684 144.1629 402.9341 136.947 408.9509 135.8502 408.728 134.1761 410.8079 132.3289 408.0595 127.018 407.7624 119.5135 400.26 117.9549 397.0659 119.1671 396.1003 115.8767 398.4772 114.4912 400.7799 105.6013 393.8718 96.9422 395.0603 93.8827 394.1689 89.4377 392.4605 89.0336 388.5236 83.4341 387.5579 81.1828 386.2952 78.2964 388.6722 72.8124 M 329.6931 102.7149 330.8073 97.5195 335.2642 94.2291 333.11 91.1118 335.1156 88.1677 334.4471 85.2237 339.2011 83.6073 344.1779 77.7769 356.2114 69.8106 360.2968 58.3229 M 252.9609 341.5315 253.0352 341.5315 249.3954 341.5892 237.8076 341.9355 213.3692 345.8033 210.7693 347.3619 207.1296 346.3228 201.7071 347.4773 187.5194 340.7233 187.668 338.1256 183.3597 335.701 173.0346 333.5651 169.0977 332.6992 168.5778 332.5838 161.0754 333.2188 154.7615 331.5447 154.1673 331.3715 152.6074 333.9692 152.0874 334.6042 M 456.4906 197.5604 446.3884 201.6013 442.4515 201.4281 442.4515 201.3704 437.2519 198.1376 437.1776 198.0799 430.0466 197.0408 425.8869 194.039 422.0243 193.7504 421.95 193.7504 416.9732 191.2104 412.0707 192.9422 403.7512 192.0763 403.3798 192.5381 400.8542 196.4636 400.7799 196.6945 M 363.7138 253.1515 363.4166 253.4978 365.6451 254.3637 365.4222 257.5964 370.0276 260.1364 369.9534 262.9073 370.9933 264.9278 368.2449 265.8514 367.6507 265.9091 366.3879 266.4287 364.7537 267.0059"/>
</g>
</svg>