<?xml version="1.0"?>
<svg xmlns="http://www.w3.org/2000/svg" version="1.2" baseProfile="tiny" width="800" height="486" viewBox="0 0 800 486" stroke-linecap="round" stroke-linejoin="round">
<g id="AS" fill="none" stroke="black" stroke-width="1">
<path d="M 704.8707 37.6967 701.8898 40.7518 696.6417 40.5782 694.6265 38.2521 695.5501 34.8151 695.5501 34.7109 695.5081 34.7456 685.6418 37.0717 682.4929 40.3005 675.3136 39.259 672.8785 40.7865 670.3174 40.4394 665.1533 46.1331 657.4282 50.5769 644.6229 62.7282 641.8519 62.7629 638.7031 68.4219 636.8557 67.7275 635.2183 69.7064 631.9855 70.4355 631.6916 74.0114 628.3749 76.0945 628.6268 79.1844 625.1001 80.9897 625.0581 83.1075 623.0008 81.6493 623.5047 81.0591 623.8825 80.9202 623.8405 80.7467 622.7909 77.8998 619.3482 78.4206 619.2642 75.9903 612.2108 79.7746 609.2299 79.601 607.3406 82.0312 602.5964 81.7535 600.4132 84.6698 600.2032 84.5309 598.3139 81.0244 595.7109 81.9271 593.6956 79.4274 587.314 81.1633 586.5583 82.309 583.7453 83.4199 583.5354 83.4199 582.1919 79.4274 575.6423 74.185 577.8675 73.2129 578.3293 73.4559 581.1003 75.296 581.4362 74.9835 582.9896 73.5601 583.1995 68.769 583.1995 68.6302 579.5049 64.7765 578.4972 58.9786 578.4553 58.562 578.3293 58.5967 577.9934 58.0065 577.0278 56.1318 577.0698 53.5279 572.8293 51.1671 573.0392 48.1814 570.94 47.4176 571.2759 47.0357 572.6614 45.6123 574.4247 43.7723 575.5163 43.6334 576.7759 43.4598 577.4476 43.3556 577.8675 44.0153 578.0774 44.3277 578.1614 44.4319 576.9438 45.647 576.5659 46.0984 579.4629 49.2229 582.0659 47.6606 590.2529 51.063 590.4628 51.0977 598.9437 47.869 598.9857 47.869 602.7643 53.5279 604.7796 50.9241 607.4246 51.4102 613.2184 47.7648 616.9131 47.4176 618.6345 45.5776 624.3863 44.8485 628.123 42.1752 630.642 42.1058 631.3138 39.6756 633.9588 40.7518 636.016 39.1895 639.7107 40.2311 644.6649 35.8566 650.6267 35.197 652.0961 31.7599 665.909 27.4896 687.9509 20.6502 697.1455 17.8728 702.1837 16.3105 709.7409 14.0192 718.6836 17.6645 735.8133 12.561 M 731.9087 93.2103 729.7255 90.5371 727.7103 94.4949 726.5767 91.3009 726.4087 90.8148 728.9278 89.5302 727.0805 86.5098 731.4889 83.1769 729.8095 83.6977 727.3744 81.3369 729.5996 80.4342 730.6072 77.3443 728.0881 76.3375 726.2408 77.6915 722.7141 74.8099 720.0271 74.3239 716.5844 75.3654 714.779 73.942 709.8249 74.5669 708.0615 71.2687 702.0997 72.588 702.5615 68.8732 698.531 67.6581 699.6646 60.7145 704.4508 59.3605 704.2829 54.9861 706.4661 54.5695 705.2485 51.1671 706.718 52.0004 708.6913 49.8479 710.9584 49.5007 706.0043 38.7035 705.4585 38.1827 704.8707 37.6967 704.8287 37.6272 705.3325 36.6551 706.0043 36.5163 714.5271 35.1275 720.237 31.8988 721.9164 26.4828 729.7255 20.3725 733.0423 15.3037 735.8553 15.1301 735.7713 12.5957 735.8133 12.561 736.3591 12.075 741.943 7.5617 742.7827 5.4439 742.8667 5.2356 744.798 5.3397 747.401 3.0831 747.401 3.0483 774.2291 1 774.3131 1 777.8398 1.2083 793.5 2.111 793.2061 2.4234 791.3588 4.4371 790.6451 5.2008 791.1069 7.4228 791.1069 7.4575 788.21 9.6447 789.2176 10.2349 786.4046 11.3459 787.6222 12.318 786.4046 12.0402 780.7787 18.4283 780.6947 18.4977 776.5803 19.574 776.6222 21.3446 776.5803 21.3446 776.5803 21.3793 773.4314 22.8375 768.7711 28.4965 769.191 30.8573 769.191 30.9961 768.6032 31.2392 766.9658 31.8294 766.1261 32.1418 767.4276 33.4264 767.7215 36.8634 770.5765 37.7661 768.6452 38.4952 768.0574 40.5782 771.2482 42.6266 769.275 45.2651 770.3665 47.4176 770.7024 47.9384 773.8093 48.0773 773.7673 48.2509 773.5994 51.1324 779.4772 55.0902 779.897 55.0555 781.1986 54.9514 781.3665 58.9439 782.794 60.8881 781.1986 61.3742 780.7367 64.7418 778.5535 65.9569 777.42 70.4355 779.3932 72.1367 779.0154 70.6438 782.3321 68.6996 782.626 73.3865 785.439 68.8385 789.6374 68.4566 791.3588 70.6785 793.2061 69.637 793.2901 71.2687 794.9695 71.6506 799 77.1707 795.6832 78.6636 792.7023 82.2742 793.9619 82.6909 791.4008 83.5588 792.0306 84.4267 784.0955 88.0374 784.9772 89.0789 783.4657 91.4397 778.9314 89.4608 779.3093 87.4125 772.4658 89.2178 771.92 87.7944 769.233 89.5997 764.4887 90.0163 761.7177 92.1688 756.8475 91.8911 750.8018 94.599 747.6949 95.0851 746.4354 95.5364 746.1415 95.3281 743.9583 93.9047 738.3324 90.294 735.0156 90.6065 734.3858 92.3077 732.7904 92.8979 731.9087 93.2103 729.9774 95.7794 728.7179 97.4806 729.6835 100.7441 728.0042 103.834 729.1377 104.7713 728.298 106.6461 728.0042 107.3405 727.4584 106.9933 726.4507 107.4099 726.2828 107.7918 725.5691 107.7918 720.9508 109.736 718.5996 111.2636 718.3057 111.4719 717.634 111.8885 717.3821 110.4303 717.2981 109.8401 715.9966 102.7577 715.7447 102.4453 713.3516 100.5011 712.176 100.1886 710.4126 100.5011 706.9279 98.904 706.634 98.7652 704.7867 99.7025 703.3173 100.4663 702.8974 99.3207 700.7142 99.7373 700.6722 99.7373 700.7562 102.2369 700.7562 102.2717 698.531 102.8619 697.3974 101.7162 697.6493 102.7577 695.3822 104.1117 695.3402 104.1117 693.9127 103.1049 693.4929 105.7782 692.2753 105.3963 691.2257 107.5488 690.2181 106.5072 690.0921 108.0348 687.9089 106.1948 686.3975 107.271 685.4318 106.5072 685.3059 107.6529 684.97 106.4725 678.9662 106.5767 676.909 104.077 668.0083 105.0144 668.764 102.4105 666.7907 95.3628 657.0503 103.209 650.1648 111.4024 649.9549 112.0621 649.661 112.0273 649.5351 112.1662 646.5542 111.5066 647.6877 109.2499 640.5084 107.3057 639.5847 105.9517 642.7756 102.0981 641.474 100.3622 643.0694 98.4874 641.1801 95.8836 641.684 93.6617 638.0733 92.4813 639.1649 89.8427 637.5695 89.0095 635.0924 90.4676 635.4702 92.6896 632.1955 89.3567 630.0962 92.9673 625.5199 92.5507 619.3902 105.2227 619.3482 105.3268 619.3482 105.2921 619.3062 105.2921 615.6535 100.8135 616.4932 100.3969 616.9971 99.4942 618.5085 89.9469 621.9512 84.9822 621.0276 82.1701 623.5047 81.0591 M 615.6535 100.8135 611.4551 102.9313 610.9513 103.2438 611.791 105.0491 608.936 105.7434 608.4742 108.3473 604.9895 106.16 603.52 109.3541 599.2376 108.6597 597.3063 111.9579 591.1346 111.2288 587.314 113.3466 585.1728 112.6176 583.8293 114.7353 579.6308 111.7149 576.6079 112.5481 574.0049 114.6659 572.7034 119.6653 568.0851 119.2486 568.295 123.137 567.8752 123.2759 561.3256 125.1854 561.3675 127.6156 554.9019 128.7266 554.5241 128.7613 552.005 125.8797 551.963 125.8797 547.6806 129.0738 547.4707 129.2821 547.4707 129.8723 547.3027 132.2331 547.3027 132.3025 547.1768 132.2678 543.986 131.018 541.3409 133.2746 541.089 133.4829 539.7455 133.2746 539.6615 132.9621 536.5547 132.5108 535.8829 132.6497 534.9593 132.8233 534.3715 132.9621 534.0356 134.9758 533.9097 135.2882 530.7608 137.2671 530.7608 137.3019 530.6769 140.7736 523.6235 142.5095 523.5815 142.5442 522.154 145.8077 518.8792 146.016 515.3525 143.308 517.7876 141.5027 517.7456 141.3638 516.9059 138.7253 516.696 138.1351 511.4899 136.5381 512.7075 134.5939 512.0777 129.0043 506.2419 124.4563 506.1999 124.4216 509.4747 121.054 515.0166 118.7279 515.4365 115.8463 516.4021 117.5128 516.738 115.4297 517.0739 117.2003 519.1731 116.4018 518.3334 114.5617 519.551 116.3671 520.4746 115.1867 522.8257 115.2561 523.9173 112.8953 522.3219 108.9722 518.8372 106.4725 519.8029 106.3684 519.8868 104.9102 543.3142 82.2048 551.963 78.004 555.7416 72.2755 564.5584 65.3667 564.1805 63.7002 572.1576 59.916 573.753 59.3952 574.8866 58.8745 575.4744 58.8398 577.9934 58.0065 M 649.9549 112.0621 650.1228 112.0968 648.6114 116.5059 649.2412 121.6442 646.2183 124.005 646.6801 124.7688 643.8672 124.1091 637.1076 132.2331 640.0046 133.4829 651.5503 132.6497 659.3594 127.5462 658.1839 125.7756 661.4587 124.5605 663.0541 125.3242 663.39 128.8307 661.1648 130.2194 658.8556 131.6082 656.7564 132.6844 655.9167 133.4135 654.4892 134.6633 653.8175 135.2188 651.8022 139.5238 647.6877 142.9261 647.6877 142.9609 647.3099 146.5021 644.8748 147.1617 644.8328 147.1964 645.7984 148.7934 644.0351 149.3142 644.329 149.3489 641.684 150.3557 640.2145 153.272 637.9054 151.9875 637.4435 155.3551 637.5275 153.7234 631.8596 157.577 622.7489 160.042 621.4054 156.9174 621.3634 156.9521 621.2375 156.9521 619.81 157.2299 619.5581 157.8201 618.4245 158.445 618.1306 158.1672 616.7451 155.0079 614.6879 154.4872 613.8482 155.4592 609.104 152.543 610.6574 150.3905 609.5238 149.6267 610.8673 149.0017 608.0543 145.6688 605.7872 145.0786 607.1307 140.5306 606.6689 138.5864 604.3177 137.3019 605.3254 135.6701 604.2757 131.8859 597.2223 130.8791 595.6689 132.1636 594.6193 129.8723 594.5773 129.907 594.3674 129.4209 594.3674 129.3862 602.5544 124.2827 604.4857 119.8041 607.8024 118.6584 613.1765 114.0063 619.3062 105.2921 M 618.4245 158.445 619.0963 158.9657 619.5581 159.3129 620.3978 159.9726 620.5657 160.1461 619.6421 159.799 619.3902 159.6948 619.4322 161.9515 617.3329 161.5001 616.0314 163.6874 615.0658 163.3055 615.4436 160.9447 610.1956 161.7084 609.7757 163.8609 608.6001 163.4443 606.6269 165.9093 602.5544 166.4301 601.6307 167.5757 603.2261 170.0407 601.4208 169.6588 595.2911 172.8876 596.6346 177.1231 595.0391 182.5391 591.9323 184.1014 591.4285 186.115 588.3216 186.2886 588.9934 188.0939 588.9934 188.1286 588.9514 188.1286 585.5087 189.1355 584.3751 192.1212 584.0392 191.8434 581.0163 189.4132 580.3026 179.2062 580.0927 179.3451 575.1805 184.4833 574.2988 186.0803 567.5393 192.5031 566.1118 195.7318 566.0278 203.0573 566.0278 204.203 565.0622 205.6958 564.7683 206.1124 561.7874 205.9736 559.7721 201.3908 558.9744 196.8775 558.9324 196.3915 560.4439 193.128 557.505 191.5657 556.7073 188.8577 559.1004 181.2198 557.7569 180.5949 558.8905 179.9353 557.9248 178.0605 556.7073 178.2688 557.0012 177.1926 554.2722 177.4703 554.818 176.151 553.0966 174.9706 555.1538 173.3389 554.1882 172.4015 556.7912 168.9645 554.818 166.4648 551.5852 166.2912 551.2073 164.2428 549.9058 163.9998 550.5775 163.1319 548.9401 160.3892 549.9897 159.9378 550.2416 156.7438 544.9936 156.0147 544.1119 153.2373 540.9211 152.9943 540.9211 151.6056 542.8524 150.6682 541.047 149.4531 541.8867 147.613 545.4554 144.662 545.4554 144.6273 544.3638 140.5653 544.3638 140.5306 560.6538 137.3019 568.7568 134.8022 570.8561 132.9969 576.44 135.2882 582.9056 135.1494 583.8293 139.0725 585.0048 138.8294 590.7987 134.698 591.5124 134.0731 592.3941 132.858 594.5773 129.907 M 539.7455 133.2746 540.2913 135.4618 538.9478 137.3366 541.047 139.6974 544.1959 139.9057 544.3638 140.5306 M 565.0622 205.6958 565.65 206.2166 566.8675 206.3207 566.1118 206.6679 564.6843 207.3276 562.7111 208.2649 559.0584 208.3691 559.7721 209.8967 557.6729 209.6189 555.0279 214.2364 553.8523 214.2017 553.8103 216.6319 550.4096 218.5414 548.4363 225.0683 544.5318 228.2624 543.6921 231.2828 544.6577 233.0534 543.0203 233.5047 544.1119 233.7478 542.7264 235.6225 544.1539 236.178 542.0547 239.7539 542.8104 241.594 539.6615 245.4129 538.444 249.6485 538.6119 253.9188 540.4593 255.4116 541.7188 260.5499 536.5547 263.119 536.0509 264.5424 533.7837 264.716 529.4593 269.8195 524.1693 268.153 518.5433 274.1592 516.2762 268.9863 518.5433 261.9733 515.8983 254.3701 516.0662 254.0229 516.0662 253.9882 516.1922 253.9882 516.696 252.3912 519.6769 252.5648 519.5929 252.4606 518.9212 251.5232 518.5013 250.9678 519.2571 249.7874 516.78 249.0583 519.0891 246.0726 516.612 245.031 518.5013 244.788 517.4937 243.191 518.7952 243.434 518.4594 242.2883 519.8029 241.8717 518.7113 241.0385 519.8868 241.0385 519.7609 238.2264 520.9364 238.5735 519.9708 237.0807 522.6998 233.9214 521.4403 232.7409 523.0777 232.7409 521.8601 228.2624 523.5815 227.811 522.8257 225.2419 523.9593 225.4849 524.2532 222.5339 525.6387 222.8117 527.3181 220.312 525.1769 219.5482 527.3181 218.9927 528.0738 215.2432 529.3753 215.4862 527.8219 212.8477 529.8791 211.8061 529.5433 211.5978 528.4517 210.9035 529.8791 210.7993 529.9211 209.7925 531.0127 210.1744 529.4593 206.4596 529.5013 206.3902 530.383 206.3207 530.0051 205.2792 531.0547 203.0573 529.3753 202.9878 529.7532 200.5229 527.444 200.9048 522.5319 197.2594 518.3754 202.5712 515.9823 201.5297 519.0471 198.4051 516.8639 197.433 518.3754 195.9054 516.9899 194.6209 518.4594 194.4473 513.0014 184.5527 513.5892 183.1987 510.5243 182.0878 511.8258 179.102 513.1273 176.151 513.0853 176.151 513.0853 176.1163 509.3487 174.4846 507.5434 173.7208 506.6617 173.3042 499.8182 174.4499 498.0549 174.7276 497.9289 174.7623 497.8869 174.8317 495.9976 178.5465 495.2419 177.0884 492.5969 177.9563 492.1351 173.7902 487.9786 172.6445 484.242 175.0401 482.4366 175.0748 480.6733 172.8528 478.4481 173.8597 477.4405 175.3178 480.1695 175.8733 476.6428 178.1299 475.5931 177.7828 476.7687 176.0122 475.8031 177.262 469.7153 178.1299 468.2878 177.8522 468.9596 176.7412 459.2612 176.151 455.6505 177.4356 456.1963 176.7412 456.2383 176.7065 454.8948 175.422 455.5245 172.7487 454.349 169.5547 454.349 169.5199 456.5742 169.5894 458.2116 167.8535 456.8261 165.701 457.8757 163.3055 456.7001 161.8126 456.4902 161.5696 459.8909 160.4933 462.452 157.1951 462.6199 157.0215 463.1237 156.848 466.6924 155.7023 468.1619 155.2162 481.7649 154.4177 486.0053 155.2162 490.7076 159.174 500.322 160.8405 502.7991 160.0767 500.1121 154.3483 500.0281 150.4946 502.7571 148.8629 505.1503 149.2795 508.0892 146.9534 512.9594 148.5157 515.3525 143.308 M 337.2121 176.3593 333.0976 175.8386 333.0557 175.5955 332.8457 174.6582 335.2389 174.5193 333.6434 173.443 334.0633 171.4641 331.1664 173.3389 331.4603 171.1864 328.8992 171.4641 328.3534 167.8188 326.59 166.9855 326.2542 172.1932 322.3496 173.8249 323.6511 177.5397 325.2046 177.9563 320.8801 180.699 320.4183 175.0053 321.384 174.6234 319.5786 170.6656 316.2199 169.8324 317.6473 169.1033 317.2695 167.7493 315.0443 168.5826 314.0787 167.7493 314.5825 165.5621 306.7314 167.6105 307.1092 168.7214 300.9375 168.3048 300.6436 171.1517 296.4452 171.6724 296.6131 173.0959 294.9757 173.0611 295.9413 175.1789 292.9604 175.5261 292.4986 179.3451 295.3536 181.0809 298.9222 180.9421 299.636 175.8386 301.7772 175.5955 302.7008 177.2967 304.4642 176.8454 305.4718 177.9911 305.2619 180.2824 300.3917 181.1851 300.3917 185.5943 298.9222 185.7331 298.1245 189.9687 296.6131 188.6841 296.907 185.629 294.9337 185.7678 296.1093 183.7889 294.178 184.1014 295.3116 181.5323 292.2047 181.3934 293.4223 182.2613 292.3727 182.5044 290.5253 179.9353 287.9643 179.7964 286.5368 180.3519 287.3345 181.8447 282.6322 182.1572 281.8765 178.3382 278.6857 178.0952 277.1323 182.0183 275.3269 182.8515 273.3117 182.0183 272.7659 177.6439 271.2544 177.4703 271.2124 176.6718 270.7506 176.3593 269.1132 177.7828 270.4567 177.8869 270.2468 179.5186 268.1056 179.3798 267.7277 181.324 269.9529 181.1851 270.6666 184.9346 268.6514 186.1845 263.6972 185.2818 264.6209 184.4833 263.4033 183.9972 264.4949 183.407 263.4033 183.2334 264.6209 182.3655 263.9911 180.6296 262.2697 177.6092 260.1285 176.6371 261.7659 175.0401 260.2125 175.908 259.3308 175.1095 260.3804 173.6166 258.6171 173.6166 259.7087 170.8392 258.0293 170.4226 260.2125 169.6588 258.785 169.4158 260.0026 168.3395 258.1972 166.6036 259.5827 163.1319 254.3767 147.37 256.4759 147.4742 269.5331 140.9125 273.9834 134.6633 278.2239 133.969 287.2505 138.5864 289.6856 141.6763 298.8383 143.065 304.6741 140.4612 306.1016 137.2324 316.3458 137.5796 323.987 135.1146 326.632 136.0867 329.9908 135.4271 329.9908 133.4829 337.8419 132.3025 337.2541 133.101 M 263.6972 185.2818 264.0331 185.8373 264.8728 187.1218 264.1171 187.3301 264.1171 187.3649 266.6781 188.1634 266.6781 188.1981 266.4682 189.7604 263.8652 189.5174 263.8652 189.4479 263.9491 189.1702 260.4644 189.2049 260.7163 187.5732 256.9797 186.4969 256.3919 189.7951 255.0904 189.5521 250.8919 193.4057 244.3843 193.5446 244.8881 191.3227 243.5027 190.8366 244.5523 190.5589 244.7622 189.309 243.7965 189.4479 244.8042 187.712 243.2507 188.6841 243.6706 185.2471 239.892 185.0388 239.5141 183.4418 239.4721 183.3029 239.0103 183.3376 238.4645 183.2334 238.4225 183.1987 237.9187 179.8658 239.3042 179.8311 238.3805 177.7828 232.1668 179.4492 229.3959 182.7821 227.8844 182.6085 227.4646 179.1367 225.5333 177.9216 224.4837 178.9632 220.2852 178.859 219.6135 180.6296 223.518 181.4976 209.957 183.8584 210.2929 185.5248 208.5295 186.9135 206.8502 187.469 203.5754 188.5453 202.9036 188.7883 203.0296 188.4411 203.6174 186.8788 203.4494 186.8441 201.3082 186.5316 201.98 184.9346 204.7509 184.7263 202.9036 181.0462 199.041 182.4697 198.7471 184.1361 196.9418 183.9278 196.7319 183.9278 196.2281 183.8584 196.7319 182.0183 202.0639 178.7549 198.0754 177.9563 199.4189 176.2205 195.4304 177.1231 194.8846 173.3042 196.6899 173.2695 196.8159 171.7766 190.3922 171.3253 190.4762 173.7555 188.7128 173.6861 188.7128 173.6166 189.0067 171.4641 187.7052 171.36 188.9647 170.7351 184.5144 169.3116 185.3121 167.7493 183.8007 166.3259 183.0449 167.8535 181.5335 167.9229 181.4915 166.812 177.7129 165.9787 177.461 167.6452 179.6442 167.7493 179.6442 169.4852 177.419 169.2769 177.7549 170.5962 180.106 170.1796 180.9457 172.7487 183.1709 172.7834 183.3388 173.6861 183.3388 173.8249 183.3808 174.1374 182.961 174.0332 181.3655 173.6513 179.7282 176.2552 180.7778 176.4288 180.3579 177.6786 178.6366 178.3382 179.3083 179.1367 175.6137 179.7617 174.4801 184.8305 172.8847 184.8305 172.003 183.164 164.2778 183.8584 164.9916 190.663 167.1748 193.7182 167.2168 193.7182 166.671 195.0722 165.0336 195.0375 165.8733 196.7386 163.1023 197.433 163.1862 195.593 161.5908 195.8707 162.3046 194.4126 160.6252 193.9612 160.4992 193.8918 160.6252 192.1906 162.0107 191.774 159.3657 192.2948 158.526 191.7046 159.4916 190.5242 156.9306 189.6909 162.5145 186.9135 162.4725 181.8447 163.5641 177.3314 164.9076 177.8522 164.7817 174.1374 164.0259 175.422 160.7931 174.4151 160.7931 176.3593 157.1825 176.2552 156.8046 179.9353 155.4611 179.3451 156.0489 177.3314 153.9497 177.5397 151.6825 180.2824 149.9611 179.6228 149.9191 179.5186 149.6672 178.8937 148.6176 178.9284 147.4001 178.373 143.0757 179.1715 144.1673 181.9142 146.9382 183.1987 146.8962 183.1987 146.1825 183.3376 138.5833 184.6569 138.4993 183.3723 136.9459 183.0251 134.7627 185.004 137.2818 186.2539 135.8963 188.6841 131.4459 189.0313 131.4459 190.42 133.1673 191.2185 132.0337 194.2043 128.8009 192.9891 129.6826 189.4826 125.6941 189.1702 125.2742 186.983 117.5071 187.6773 117.843 185.9067 115.03 184.7957 113.4766 185.4207 115.114 187.9551 113.6025 188.1634 104.7438 185.6984 102.0148 191.9823 103.4842 193.3363 102.7705 196.1832 99.8316 196.9122 99.2858 201.3214 96.7247 195.3847 99.3698 191.6004 97.6064 191.3227 97.1866 192.8155 94.3316 191.8087 93.282 193.3363 89.5034 194.239 90.2591 190.0034 87.866 188.7536 88.7897 187.6426 90.7629 188.1634 90.595 186.4622 88.7477 186.4622 90.0492 185.3859 87.3622 183.2334 88.2019 181.567 85.9767 181.2545 83.9195 178.0258 85.3469 176.4982 83.7935 172.9917 84.2133 170.2837 82.9118 168.9992 86.7324 159.3824 82.7019 148.238 81.5263 141.0514 84.0034 136.2256 91.8545 135.7743 108.1025 146.8492 119.1865 149.7308 120.7399 151.918 124.4345 150.9459 129.6826 152.9596 159.9534 150.4946 159.1977 151.7444 158.316 152.0569 152.6481 163.0277 152.8581 174.3457 152.2283 174.797 149.0794 176.9842 148.9115 177.0884 149.6672 178.8937 M 159.1977 151.7444 164.3618 150.1474 172.2549 151.3973 177.7549 146.1896 183.8846 147.5783 195.3044 147.4742 208.0257 151.432 212.9379 149.5572 216.9684 143.933 227.9684 150.078 240.3118 148.3074 244.4683 146.3285 252.6133 148.0991 254.3767 147.37 M 436.2956 174.9359 437.3872 174.4151 445.8681 170.3184 448.5971 163.6526 455.6085 162.2639 456.7001 161.8126 M 455.6505 177.4356 453.6352 178.1647 449.7727 178.0605 449.3948 178.4424 447.8834 180.1088 447.7994 180.213 450.4864 180.4213 449.3108 181.1851 451.2841 182.0878 450.4864 182.8515 452.6276 181.1851 452.8795 182.6085 451.4101 183.407 454.4329 184.275 454.8108 185.9067 454.307 185.1082 453.9711 184.3791 453.9291 184.4138 451.3681 185.7678 451.3681 184.2055 447.5475 182.3655 444.9864 183.1293 445.5322 185.9414 443.8948 186.7052 444.5666 185.004 443.2651 182.6432 438.3949 183.8584 444.5666 179.7964 442.2574 178.4077 437.1353 181.0115 435.9598 179.8658 432.601 182.9557 432.2231 182.7474 430.8796 181.4628 429.6621 181.4281 428.6964 181.3587 425.6316 181.2198 423.5743 182.4349 423.5323 182.4349 424.1621 183.6153 419.7117 185.9414 419.6698 186.0109 419.1659 189.2743 429.4941 186.8788 426.2193 189.4826 431.0056 191.9129 431.7613 191.0449 430.5018 190.2811 433.8185 189.0313 433.9025 187.3996 434.8682 188.1981 434.1544 189.3785 435.288 188.8577 432.0132 190.5242 434.2804 191.4268 431.2155 193.3363 432.9369 194.239 430.6277 194.5514 430.6277 193.7182 426.7651 195.0375 429.6621 195.2805 425.7995 197.5024 424.33 197.4677 425.1697 195.9401 423.5743 194.7945 420.5094 196.9122 415.3873 196.9122 411.7347 199.8285 410.2652 199.03 408.04 200.5576 405.6889 199.3425 403.6317 201.5297 403.1698 202.0505 404.9752 201.2867 405.2271 201.252 404.1775 202.7795 404.8912 202.1546 405.8568 201.3561 408.7118 202.1546 406.6126 205.4528 406.6545 205.4528 410.4332 205.4528 410.853 208.2997 405.2691 211.0076 404.4714 213.6115 402.8759 214.2017 398.3836 211.4937 398.0477 214.2017 394.563 216.8749 394.7309 220.6245 396.2424 221.5966 394.7309 223.02 392.0019 222.3256 392.9676 224.5476 393.0516 224.5476 389.8188 224.8253 390.0707 226.4223 387.2577 227.3944 387.9714 230.2066 386.7119 232.0813 386.6699 232.116 383.0173 230.9703 380.918 232.0813 380.6661 234.2338 384.2348 235.4837 383.1012 237.289 385.3684 237.289 383.9409 238.7471 385.1165 239.1984 384.2768 241.0385 386.5859 240.5177 386.6279 240.5177 386.8378 240.9343 387.4256 242.08 387.5096 242.2536 387.3417 242.2536 386.9218 243.1216 385.7882 242.3925 385.6203 242.2883 384.9485 242.4619 381.9676 243.2604 381.9676 243.2951 381.9257 243.3299 381.8417 247.7737 376.0058 246.4545 374.4104 247.5654 374.5784 250.0304 367.0631 252.8078 366.1395 254.5784 361.4792 254.3354 360.7235 253.641 363.2845 248.6764 366.7692 247.3224 366.5593 247.1835 364.9639 245.8295 367.0212 239.8581 364.3341 238.0528 363.8723 235.4489 363.8303 235.3101 360.9334 236.0739 359.5059 237.8445 357.4067 237.1154 358.5823 230.9703 357.7426 230.4496 357.7006 230.4496 356.0212 232.1855 353.2082 231.1786 352.2426 233.7478 349.0938 235.4489 347.4983 237.9833 343.9716 235.4489 343.9297 235.4489 341.9144 235.6572 341.7045 235.692 343.3419 234.1644 342.1243 232.6715 344.4335 230.7968 346.1968 225.9363 345.4831 220.7286 343.2579 219.201 344.7274 215.9028 355.4334 215.5557 361.5632 211.0771 363.5364 207.3623 363.3685 203.0226 361.3952 201.7727 355.7273 203.0573 355.2655 201.7727 353.1243 204.1335 351.109 202.7448 347.4144 203.2656 346.5747 197.8843 345.3571 197.7802 347.5823 194.9333 347.4564 192.9544 344.7693 189.5521 344.6854 185.0388 M 89.5034 194.239 89.5034 194.3084 89.9232 195.2805 91.5606 195.6277 90.0492 198.6481 91.7706 198.544 91.6866 200.6965 92.8622 200.0021 93.156 201.2867 93.0721 201.3561 92.7362 201.6338 92.6102 201.7727 93.7438 201.9116 93.5339 202.3976 93.8698 202.4671 92.9461 203.6128 94.3316 203.9599 92.7782 204.1682 92.7362 204.1335 89.2935 204.6196 89.0835 204.932 90.2171 209.5148 90.0072 209.6189 86.9843 210.9729 87.2362 216.1111 83.9614 217.4304 83.7515 215.9376 84.9271 215.5209 83.5416 213.7503 82.534 215.8334 79.595 214.8266 77.4118 217.4999 77.7897 218.9927 75.3546 220.0343 75.4806 218.1942 70.8623 216.6319 71.7439 215.5557 73.4653 216.2847 74.5989 213.1254 72.4997 210.4869 72.8355 208.2649 66.3699 208.508 67.8394 205.9041 66.202 205.6264 68.6791 203.8558 67.7554 201.5297 65.1943 202.6754 65.2363 204.1682 62.8012 206.3902 57.8471 205.4875 53.8165 207.2234 53.9845 210.0008 52.683 210.5563 54.7822 211.6673 54.9921 214.2711 56.8814 212.9866 56.8394 215.1391 53.9425 217.361 52.1372 216.2153 51.3814 216.9097 52.2211 218.2984 54.2784 218.4025 56.2936 222.8117 57.6791 222.2562 58.3089 223.6449 47.141 228.2276 42.2288 234.0255 36.8128 232.7757 34.8815 233.9908 31.2708 233.2617 30.935 235.2753 28.4579 235.3101 27.5342 233.2964 24.2594 232.9145 22.5381 231.1786 22.4541 231.1092 23.3358 226.1446 21.4045 226.2834 23.0419 224.5128 21.4045 222.2562 22.622 220.4509 21.2365 219.9301 23.1678 218.7844 22.1602 217.4651 24.5113 212.3269 23.8816 211.2507 27.1564 208.8204 26.8205 207.4664 22.5381 205.8694 23.3778 204.203 19.4732 202.9531 19.3892 202.2935 19.2633 201.6338 20.9427 201.495 19.7671 199.1342 19.6411 198.8911 18.5915 200.5923 17.332 200.1757 18.1717 197.676 18.2556 197.7455 20.9427 197.8496 19.8511 196.6345 22.2442 192.1212 20.3549 188.5105 20.1869 188.1634 20.103 188.0245 20.1869 187.6079 21.6984 180.0741 21.0686 177.262 23.1678 176.2552 22.0762 175.2484 22.58 172.4709 20.103 171.3253 22.2022 168.4784 21.8243 163.9651 20.3549 161.9515 22.0343 161.0141 21.2365 157.1951 34.8815 158.6533 45.2937 157.7506 55.244 155.2509 63.6829 152.2999 62.8012 148.0644 64.4806 144.4884 68.2172 141.5374 76.95 142.8567 81.5263 141.0514 M 334.777 186.5663 334.861 186.6705 327.2618 192.642 322.6435 193.6835 319.3687 197.5372 319.2008 197.5024 314.7084 196.4262 311.6016 197.9538 304.3382 206.9457 302.365 207.2234 296.991 215.2432 296.823 215.5557 296.3612 215.5904 295.5635 215.6945 294.8078 215.7987 293.6742 214.2711 290.7353 215.9723 289.2238 215.3821 288.9719 215.3126 276.5865 222.6728 262.8155 224.9642 260.0026 223.6102 259.7507 222.6728 259.7927 222.0826 264.1171 219.201 264.4529 218.3331 264.6629 217.7429 265.2506 216.1806 265.2087 215.9028 264.201 211.459 265.6285 209.4453 265.9224 209.5495 268.0216 210.3133 268.4415 210.4522 267.6018 209.4453 267.5598 209.3412 269.2392 208.1261 269.2812 203.2309 269.1132 203.0226 268.7354 202.5712 266.1743 199.4466 265.1667 198.2315 263.4033 196.079 262.5216 193.4405 262.2278 191.6351 262.8155 190.8366 263.6132 190.663 263.8652 189.5174 M 196.9418 183.9278 196.7319 185.5248 198.9991 187.9898 194.6327 194.6556 195.9762 198.9606 194.9266 199.5508 195.9762 201.0089 195.3464 202.2935 195.4304 202.3629 196.2701 201.9116 196.6479 203.092 198.9151 204.446 198.8731 203.1961 201.0983 202.6407 199.6288 203.9947 200.4265 206.9804 199.167 207.0151 199.5029 208.4732 197.7395 210.2786 198.4533 211.5978 197.0258 211.9103 198.4113 213.4726 194.0869 214.3405 192.7014 216.2847 195.8502 217.0485 195.7662 217.118 193.2052 219.3746 192.6594 219.8607 192.6594 220.312 192.7853 222.3256 195.0945 223.6796 196.7739 224.617 196.7739 224.6517 195.3884 227.2555 193.625 227.4291 192.9533 227.4986 192.2815 227.2903 190.896 227.6722 180.19 230.4843 178.1327 229.165 177.0411 229.3733 176.5373 229.4428 175.6557 229.6164 169.1481 234.9976 165.1595 233.7825 166.587 235.4489 164.8656 234.9629 164.8236 234.9282 158.9458 237.775 158.2741 238.0875 157.3084 237.3237 157.1825 237.289 155.587 238.2264 154.9153 238.7124 154.7893 238.6777 149.1634 237.9486 147.652 235.8308 145.1329 236.2474 137.8696 233.713 129.3467 233.6089 126.7437 230.9703 123.9307 224.9989 123.7208 224.5128 121.6216 220.069 124.0986 218.4025 125.4841 217.4651 127.2055 217.4651 131.6978 217.4651 131.4459 216.1459 130.0605 216.1111 130.1024 214.3405 134.007 210.9382 140.4726 211.2507 138.7932 208.4385 142.4039 203.6822 145.3008 204.8626 147.694 204.203 147.8619 202.3629 145.8047 199.273 147.9459 195.593 147.1901 194.5861 141.7741 195.9401 139.7589 195.0028 143.6215 193.3363 142.4879 189.934 140.6406 189.6562 140.7665 187.2954 143.0337 188.0592 143.5795 186.6011 145.4688 186.9135 146.4764 184.3791 146.1825 183.3376 M 238.4225 183.1987 235.6935 183.6501 236.4073 188.9272 234.8958 190.663 234.8538 190.7325 236.7012 195.6971 232.2088 200.4187 233.1745 202.4671 231.0333 205.2098 231.747 207.5011 222.8883 209.5842 222.4264 215.9723 220.5791 217.1527 217.5562 216.493 217.5562 216.5625 218.7738 220.6939 218.4379 224.0268 217.3463 224.617 218.5219 227.9846 217.7661 232.8451 214.7433 232.4632 210.083 228.922 202.6517 230.1718 193.625 227.4291 M 341.7045 235.692 337.59 240.24 337.1701 238.4694 333.4335 240.3441 332.5938 239.129 329.1511 239.6151 328.8572 239.6498 328.5213 239.9275 326.2962 241.7328 324.9526 241.7328 318.9489 241.6634 315.0443 241.3857 313.9947 240.7607 313.5748 240.483 313.8687 240.2747 312.3993 234.6504 312.8611 229.3386 311.3077 228.4707 310.6779 229.6511 308.1169 227.2208 305.2199 228.2971 301.8612 227.6374 303.5825 226.214 299.3421 225.2419 298.7543 222.1868 295.2696 220.6592 293.4643 221.2494 293.0444 219.3746 289.6017 219.9301 289.4337 219.7912 288.2162 218.6803 289.2238 215.3821 M 260.0026 223.6102 260.0026 223.6449 257.8194 223.4019 255.3423 225.8668 253.2011 224.2698 250.3042 224.5476 251.6057 222.777 249.3805 222.2909 246.6935 225.3461 247.7431 227.4986 248.4568 227.0125 247.4072 229.1303 247.3232 229.1303 237.2889 231.0398 237.247 231.0745 236.7431 231.7341 236.7012 236.8724 239.5981 238.643 237.247 242.4619 238.5065 242.5661 238.5905 241.4204 239.5141 242.7397 240.9836 242.3578 241.2355 240.483 244.9301 240.5872 256.7698 245.6212 256.6858 252.8425 256.6858 254.3701 256.4759 254.8214 255.8041 256.4532 255.5522 257.1128 250.1362 262.1469 247.7011 261.8691 242.4111 257.946 242.705 256.9739 244.9721 257.1822 246.3576 254.6131 244.5103 251.6968 245.1401 247.253 240.8996 247.739 238.6744 245.8295 235.0218 252.9814 230.8653 255.0992 231.0752 257.6336 228.934 259.3 228.976 260.9318 233.2164 258.7098 229.1859 261.6955 229.06 263.7786 226.5409 263.5356 225.3653 265.9311 229.6897 266.8685 223.8959 268.0836 221.6287 270.2708 218.7738 268.4308 212.3501 269.4376 207.8158 270.1667 200.0907 281.5541 193.4991 285.0953 189.4686 281.9013 187.9151 278.1518 188.9228 272.9788 191.1479 269.8195 190.1403 267.5281 188.167 269.7501 184.0526 268.9168 180.6098 271.1388 173.2625 272.6664 171.5832 271.5901 174.4801 270.4097 175.3198 268.6391 171.4992 269.0904 171.4152 269.0904 171.3312 269.1946 166.8809 272.215 166.3351 272.1803 167.3847 269.2293 168.7702 265.1673 168.6442 264.473 169.0221 264.4382 171.4152 257.4253 175.5717 253.5369 177.9648 248.7805 176.6633 246.0031 173.6404 244.0242 168.7282 244.1284 163.0603 242.1147 158.8199 238.5735 157.8542 238.2958 158.2741 238.0875 M 230.3615 266.7296 231.9149 263.7786 233.0065 264.716 232.4187 266.2783 230.3615 266.7296 M 123.7208 224.5128 122.5872 223.8532 121.9574 223.3672 121.8315 223.4019 117.717 224.5128 117.1712 223.6102 114.904 222.8464 112.0071 224.3393 104.9117 224.8253 104.7018 224.9642 98.3621 228.7831 98.4461 227.5333 95.2553 229.0956 95.0454 227.4639 95.7171 226.8042 94.9194 226.7001 88.4958 225.8668 88.3698 224.3393 90.9309 223.263 94.9194 220.1731 93.6599 217.0832 95.969 218.3678 95.2973 216.25 98.8659 215.8334 97.0186 215.6598 96.5988 213.9934 97.9423 215.1391 97.6904 213.4379 100.1675 212.6394 97.9423 208.9593 98.9919 208.0219 97.4805 208.5774 96.4308 206.9804 96.8087 204.8973 95.3392 206.3207 95.1713 204.5154 94.2057 204.6543 94.1637 206.5638 94.0377 206.5291 92.7782 204.1682 M 88.3698 224.3393 88.3698 224.2698 88.2858 224.3045 84.2553 226.0404 77.5798 225.6932 72.5416 226.9084 72.0798 230.519 70.4004 232.2896 63.7669 233.9561 63.6409 234.0949 63.2211 234.581 61.0379 237.0112 60.4921 239.6845 60.4501 239.9622 60.4081 240.24 60.9539 241.1426 62.0455 243.7118 61.8356 243.8506 61.6257 243.9548 56.9654 243.3299 55.7058 243.191 49.4921 244.9269 46.1754 249.9609 41.5151 249.7526 35.5533 253.155 32.1525 256.349 32.6144 259.5083 31.1449 259.543 30.2632 261.8691 26.1907 262.6329 23.4617 265.3062 19.2633 264.8201 24.8472 256.9739 16.9961 256.8698 17.5419 255.7241 20.061 256.4532 19.0953 253.7799 22.9999 252.912 18.3816 248.4334 18.3396 252.287 16.4083 251.6274 16.2404 246.8016 14.8969 244.5103 12.2938 247.6349 14.0572 244.9269 10.4885 245.1699 12.4198 243.8506 11.958 242.8438 13.6373 242.5314 13.1335 238.8166 11.4961 239.5456 11.832 236.7335 8.3473 236.3516 9.6068 233.713 7.1297 230.1024 3.771 230.033 4.8206 228.4707 5.8282 228.2971 4.9465 228.2971 2.4275 228.3318 2.0076 227.6374 1 225.9363 2.8473 226.3876 3.771 225.3808 2.6374 224.4781 5.4923 223.506 1.2519 222.4992 5.2404 220.1384 3.3091 217.604 1.4618 217.2916 2.0496 215.8681 3.687 217.5346 6.0381 215.9376 3.3931 212.7088 3.729 211.3201 4.5687 212.8477 8.3893 213.542 7.6336 209.4801 9.145 210.0355 9.5648 209.6884 11.6221 208.0219 11.4122 205.4528 16.4083 202.9184 15.2328 204.5154 15.3587 204.6196 15.7786 205.0015 16.3663 205.4875 16.4083 205.1751 16.9541 201.8422 17.416 201.8074 18.1717 201.738 19.2633 201.6338 M 313.5748 240.483 313.155 240.2053 308.4947 244.4408 304.0444 243.8159 298.2505 245.899 290.3574 245.1699 289.6437 246.7669 283.0521 248.4681 281.5826 250.204 280.449 249.0236 280.3231 248.9194 280.9529 247.4266 276.9643 246.7322 274.9911 244.7186 276.4605 237.6362 269.8689 235.0323 269.659 234.9282 265.3766 239.2679 263.6132 238.7471 257.7774 242.6008 256.7698 245.6212 M 168.6442 264.473 161.4649 264.5424 161.171 260.897 158.7779 256.592 157.0565 257.6336 154.9573 257.0434 154.9153 260.897 150.8008 256.3143 150.381 257.2517 145.7207 256.8698 144.6291 258.0502 144.7131 256.5573 141.2703 256.0366 137.5757 261.2789 137.3658 261.5914 136.694 261.4872 134.6787 261.2789 135.1406 259.8902 132.8734 261.1053 133.2513 260.411 133.881 259.3695 134.1749 258.814 134.007 258.7098 133.4192 259.1264 132.6215 257.703 132.8314 255.7935 130.6063 256.7656 129.7246 255.7241 129.6826 255.7241 119.5223 259.8902 118.8086 260.2721 117.633 262.9454 115.6598 260.5499 117.9269 257.703 113.3506 255.3422 111.9231 258.0155 107.7667 259.6819 108.4384 260.7235 103.9461 263.119 103.3163 262.4593 106.6751 256.3837 99.2018 248.8153 93.9118 251.1066 93.6179 251.1066 92.4423 251.1066 90.637 249.4402 90.3011 248.8847 90.0492 248.8847 85.095 248.9194 84.8431 248.9194 84.7172 249.0583 80.0989 253.398 65.7821 256.0018 64.6905 254.9603 62.6753 257.0781 61.4157 255.2033 59.1066 255.4464 58.1829 254.2312 54.5303 255.238 53.8165 255.1686 54.1944 253.9535 54.1944 253.8841 55.37 254.266 57.0494 252.2523 62.7592 249.8568 62.2554 248.9194 64.0188 246.7669 60.66 244.4755 61.6257 243.9548 M 449.1429 379.84 450.3185 380.1178 451.2001 380.3261 450.8223 380.708 449.1009 382.548 449.0589 382.5827 449.8146 383.8673 447.9673 384.2839 449.5208 387.1308 447.7994 387.5474 448.4711 388.5889 446.6238 390.0123 447.4635 390.9497 446.036 391.3316 446.6658 392.4426 443.8528 395.1853 442.6773 394.8381 443.517 396.331 442.7612 396.331 442.7612 396.5393 443.391 396.817 442.8032 397.0948 442.9292 400.1846 442.2154 400.8096 442.2154 401.122 441.4597 401.4345 440.2002 401.9205 436.9674 403.2398 436.9254 403.1704 435.5819 400.3582 433.0628 400.6707 433.1048 400.6012 433.3147 399.6291 433.3987 399.2473 431.8873 400.1846 430.5857 406.781 430.5437 407.4754 431.6773 409.0377 431.6353 409.0724 428.9903 413.0649 427.3529 413.2732 429.4521 417.1616 431.1735 417.5088 431.2155 417.5435 430.1239 420.2168 428.5705 420.5987 429.0743 423.1331 427.6468 423.7927 428.6964 425.1814 427.101 426.8479 427.9407 427.2992 430.9636 428.9656 431.2575 429.1045 429.6201 430.0419 429.1583 430.3891 429.0323 430.3891 428.7384 430.5279 425.5056 430.2155 426.2613 431.2223 427.017 432.0902 426.9751 432.1597 424.372 433.9303 424.414 437.0896 422.1888 440.11 423.8262 443.2346 423.9942 443.5471 423.6583 443.7901 422.2308 448.4423 422.2308 448.5465 422.5247 448.8589 423.5323 449.8657 423.4064 449.9699 423.1545 450.2823 422.5247 450.942 421.685 451.0461 420.7194 451.1503 420.3835 451.185 420.2575 450.9767 419.2079 450.5948 418.872 450.942 417.7385 452.2265 417.4866 452.1571 414.8415 451.0808 414.7995 451.1503 413.0362 453.1986 412.9102 453.025 411.9026 451.7752 409.7194 453.1292 409.5095 452.9556 409.3835 453.0598 406.5706 450.699 406.0248 452.5043 405.8149 453.2333 405.8149 453.3028 405.2271 452.9556 403.9675 452.3654 403.9675 452.6084 403.3798 451.8446 400.4828 452.3654 398.2157 455.004 396.1164 455.1428 396.5783 452.1224 392.7157 449.7616 387.8035 437.7145 387.6356 437.2285 387.4256 436.7424 390.2386 430.9098 389.5668 430.9098 388.3073 431.0834 388.0974 430.9098 384.6547 428.1324 382.3455 431.7431 376.1738 428.063 376.1318 428.0283 375.9219 425.6675 379.7425 424.9731 375.7959 423.4108 375.7539 417.6129 373.9066 416.2242 374.5784 407.5101 378.1051 399.8027 373.3608 399.7333 371.2616 394.6992 373.4028 394.977 369.1204 393.9702 367.1891 391.6441 365.0059 392.1301 365.0479 392.4773 365.0059 392.3384 362.025 391.8524 358.2044 393.9354 358.1624 393.9007 356.8189 391.6093 353.7121 392.269 354.5098 388.7278 352.8724 385.3949 353.2922 383.0688 348.506 384.1103 350.7731 380.9163 344.6014 380.6038 345.4411 372.6187 345.5251 372.584 347.6243 370.6398 350.3953 371.6466 349.4716 369.5289 351.3609 367.8624 352.4945 362.6548 359.8838 363.8352 M 365.0479 392.4773 365.8036 393.9007 365.3838 395.9144 365.3418 396.0532 365.3418 396.0879 360.5555 400.6707 360.5975 405.9825 358.0784 407.7531 357.7006 410.5305 354.0899 416.3978 355.7273 418.8281 355.4754 428.2366 357.0708 430.1808 355.6014 435.1454 356.0212 445.2483 355.6853 446.88 355.0556 450.074 353.838 456.0802 352.5365 459.309 351.067 462.8849 350.3113 464.7249 346.6587 470.002 346.4067 470.3492 346.3648 470.4533 345.3151 470.4881 325.4145 471.0088 319.3687 473.0572 319.2008 473.0919 316.0519 471.9809 318.2351 471.356 319.4107 466.5997 324.5748 457.3995 322.9374 446.9842 322.8954 446.88 320.7962 445.6302 320.8382 439.381 320.7962 439.3115 320.5863 439.2074 318.487 438.9644 318.7389 438.4436 320.9641 433.6178 323.8611 417.0227 329.1091 409.6626 326.9679 408.5169 328.2274 403.5523 326.2962 401.7122 326.2542 398.171 323.1893 397.8933 323.7351 396.817 322.2237 396.331 321.384 393.866 322.8114 393.1022 322.9374 390.915 321.258 389.0402 329.487 387.0266 334.6511 391.7829 335.7847 390.1512 337.632 392.512 339.1014 392.3384 340.4869 395.0811 342.2503 395.4977 343.09 394.1785 347.1205 394.5604 347.9182 392.5467 351.8647 393.1022 356.8189 391.6093 M 387.8035 437.7145 378.8608 458.0244 378.6089 458.0591 375.3341 458.7188 375.2921 458.7188 375.2501 458.7188 375.2081 458.7882 373.4448 461.1143 370.6738 460.4894 369.1204 470.3839 361.941 471.3907 361.3113 471.4949 358.6662 480.3479 356.9029 480.0702 356.8609 480.1049 355.0975 482.431 352.8724 482.0838 352.2426 484.7223 350.4792 485.4514 349.8495 485.139 347.1625 483.5419 346.8686 483.3336 346.8266 483.2989 346.5747 479.8619 346.5327 479.5494 344.6854 478.369 344.6854 477.9871 345.1052 471.0436 345.0632 471.0436 345.1052 470.4881 345.3151 470.4881 M 717.2981 109.8401 707.5997 115.2908 703.7371 119.5611 703.4432 119.8736 701.8478 120.6721 700.0425 118.3113 697.3554 120.0819 695.4242 119.2834 695.1723 119.1792 684.886 126.1228 683.5845 128.5183 672.8365 133.6565 668.5541 134.698 665.8251 131.6429 665.5312 131.6776 662.0045 132.1984 661.1648 130.2194 M 425.8835 133.5524 425.7995 139.8363 423.5323 142.5442 426.1774 146.1549 425.3796 148.5851 427.4789 152.9943 426.6812 155.7023 429.1163 160.042 428.6964 161.396 431.1735 162.1945 433.6506 166.7078 436.2956 174.9359 436.4216 175.2831 434.1124 175.9774 430.5857 177.0537 430.2918 177.1578 430.1659 177.0537 427.059 174.5193 419.8377 174.554 417.1927 172.5057 411.9026 171.6724 407.5782 174.9012 398.1317 176.2205 392.1279 179.6575 389.189 179.8311 386.376 185.3859 386.2921 185.4901 383.815 184.6222 382.8913 182.2961 378.7348 185.629 375.502 184.0667 364.5021 186.9135 357.7846 185.872 350.8151 187.3649 347.7502 184.6569 344.6854 184.7263 344.6854 185.0388 338.3457 185.629 337.1701 186.1845 336.1625 185.8373 335.6167 185.9067 334.777 186.5663 333.6854 184.9693 333.6434 184.9693 333.6854 184.9346 336.4984 182.4697 339.8152 183.3723 337.3381 179.4492 338.0098 178.5118 336.2465 178.0258 337.2121 176.3593 337.3381 176.394 337.506 176.1163 337.2961 174.9359 336.4144 173.8249 337.0442 173.5472 339.2274 172.5057 339.2274 170.5267 341.7045 170.8392 342.1663 169.3811 341.6625 168.895 337.632 168.7909 337.7579 161.8473 335.2808 162.507 336.3305 163.2707 335.8266 166.1523 333.6015 166.3259 333.7274 162.2986 335.4908 160.9794 333.6854 158.8269 334.945 157.9242 333.6854 158.445 334.3572 157.4382 332.6358 156.6744 332.7198 156.6397 333.9793 156.2925 333.1816 154.4177 334.2312 153.3067 333.2656 152.543 334.735 152.6124 333.2656 147.6478 333.1816 147.37 333.4335 146.3979 334.2732 143.2039 335.5328 138.4476 336.7503 133.7259 336.9182 133.0663 337.2541 133.101 342.0404 133.2052 343.8037 130.9138 345.5251 131.1568 348.2541 128.9002 362.8647 129.039 363.7464 128.8307 367.315 127.9975 367.6509 127.8934 373.1929 125.3937 374.7043 122.651 375.2081 122.0955 376.6776 119.7 377.2234 119.8388 383.0592 121.4011 390.0707 120.8109 390.4905 120.9151 394.2271 121.6789 403.7576 123.7272 407.7461 125.9144 407.6202 128.3794 420.8033 134.6286 425.8835 133.5524 429.2002 134.5244 431.6353 133.0663 454.307 129.4904 465.097 129.1779 468.4138 129.1085 474.7535 129.907 477.3565 131.6082 477.5244 131.7123 477.9443 131.6429 501.6236 127.7545 502.0854 127.6851 503.5548 126.3658 506.1999 124.4216 M 393.0516 224.5476 393.3874 224.5476 410.4332 224.4434 412.5324 228.0193 409.3835 230.9356 409.7614 232.7757 412.3644 232.2549 422.6087 236.3169 423.1125 238.9901 425.1277 238.886 425.5896 239.9622 431.7613 240.1705 429.872 245.8643 434.1544 246.1073 438.059 250.6206 438.101 254.8909 439.9903 256.0366 441.2078 262.251 448.4292 269.3682 448.5971 270.0625 449.1429 274.6453 449.2688 276.9714 446.7498 279.6793 446.7078 284.5745 436.0857 285.6161 M 426.2193 278.4295 426.6812 279.4016 426.6812 279.4363 430.5018 278.2212 430.5437 278.2212 434.4483 280.2348 433.9865 281.7971 436.5475 283.0817 436.4636 283.3941 436.8414 283.6372 436.0857 285.6161 435.0781 288.4976 434.7002 289.6433 435.204 290.8585 436.0017 292.7679 436.0857 292.8721 436.1277 292.8721 439.6544 292.7679 440.5781 295.5453 442.2994 296.5522 440.746 298.1145 440.3681 301.4821 444.3986 307.6271 444.4406 307.6966 450.7383 307.0369 452.2078 309.2589 452.2498 309.2589 455.0207 307.5924 456.1543 309.363 456.1963 309.363 456.2803 309.363 458.7154 309.0158 459.4711 307.9743 459.639 307.766 459.765 307.8701 459.807 307.8354 462.2841 309.12 463.4596 311.3072 466.7764 314.3971 466.8604 314.9873 467.5321 315.4386 467.3642 318.216 471.7306 319.9519 475.3412 321.4101 475.6771 321.5837 475.7191 321.7225 475.971 321.9308 477.5664 327.3121 477.8603 327.694 477.7344 327.9023 474.7115 333.3183 477.4405 337.7274 477.5244 337.8316 477.3985 337.901 472.0664 340.5743 466.2306 346.0944 466.3146 348.2122 461.7802 354.9127 461.6963 360.78 460.0589 364.5642 457.8337 365.6752 455.9444 370.5357 451.452 370.1191 450.1505 373.7644 448.891 374.0422 448.933 376.6113 450.8643 376.2294 450.9062 376.2294 450.4864 377.0279 449.1429 379.84 449.0169 380.1178 448.5131 379.6664 446.7918 378 443.7689 378.6943 443.7269 378.6943 440.788 376.2988 425.8835 376.0905 424.7919 372.4799 419.8797 368.5568 423.5323 365.1891 424.0361 363.8352 422.7346 363.1755 415.2194 365.571 412.9102 364.9808 411.9866 367.6541 405.1431 366.3695 397.334 369.7372 394.3951 366.0918 390.0287 365.2239 386.8798 358.9052 384.9066 358.4886 384.0249 358.315 384.5707 360.4675 383.0173 362.134 375.7539 362.5853 372.983 361.5091 370.0021 363.4533 367.357 362.377 359.8838 363.8352 357.8265 360.4328 357.7426 359.0788 357.7426 358.8358 357.7426 358.7664 370.254 361.8215 371.0936 358.9052 374.5784 356.7875 375.544 354.0447 379.4066 353.7323 385.5783 350.2605 389.7768 351.1285 393.0096 349.1495 389.231 347.3095 387.9714 345.2264 389.9867 343.7336 388.8531 342.4837 391.834 340.6784 390.4905 334.2556 386.46 332.9016 384.2348 329.7423 384.9905 328.4231 382.4295 329.291 376.8035 324.0486 375.3341 325.0207 374.3265 321.5837 372.5211 323.5973 370.7578 321.4101 371.0097 323.0418 368.3647 324.1528 367.399 317.487 365.2998 316.7926 365.2998 316.7579 365.0479 316.7232 363.6624 317.6258 363.3265 317.8341 363.0326 316.5149 364.2082 314.3971 372.941 308.8075 373.2768 306.1343 373.3188 306.0995 374.9982 304.1901 375.2081 304.1553 375.7539 304.0512 377.9791 303.5304 379.3646 300.996 379.4486 300.8224 379.5325 300.8572 380.3722 300.9266 384.4447 301.4126 385.2844 301.1002 387.0478 298.7047 387.0478 298.6699 387.2577 298.6352 388.6852 298.3228 387.5516 296.9688 387.5936 296.8993 388.0134 296.5174 391.3302 293.2193 390.8264 292.4208 389.6088 291.2056 389.9447 290.9279 394.563 287.6644 395.4447 282.7345 395.4447 282.6998 408.3339 278.8114 409.0477 274.437 411.0209 274.923 413.456 273.0483 413.3301 273.3607 412.5744 274.8189 412.6164 274.923 413.7499 277.1449 413.9599 277.5963 415.6392 276.52 415.9751 277.4574 415.6812 274.2287 418.8301 272.0067 418.872 271.972 418.8301 272.0762 418.4942 277.0061 420.4255 275.166 425.3796 278.5337 425.6316 278.7072 426.2193 278.4295 427.3949 277.9435 427.101 277.7351 421.9789 273.9162 421.685 273.7079 415.8492 265.7922 401.4065 266.6602 398.8454 262.1816 399.6011 259.6819 399.6431 259.543 397.1241 260.9665 395.0668 259.6472 394.8989 259.7166 393.8493 260.0291 392.9676 260.3068 391.5401 257.8419 392.0859 255.5505 392.8416 255.4811 393.6813 255.5158 393.4714 255.3769 392.0859 254.509 389.7348 256.5573 388.0974 255.0297 388.9791 253.1203 388.0134 252.044 389.105 251.4191 387.6775 251.1414 390.1546 250.5512 387.3836 249.7179 390.6165 248.7805 390.5325 248.7805 387.6356 248.2598 387.6356 248.2251 388.4333 246.4197 388.3913 246.385 388.3913 246.3503 386.0401 245.0657 387.1317 243.2257 386.9218 243.1216 M 54.5303 255.238 53.8165 255.4464 52.4311 256.5226 50.7097 257.8419 49.954 260.2027 46.7212 260.9665 44.454 264.2299 42.2708 263.2231 41.683 263.7092 40.6334 264.5424 40.0876 264.9937 40.1296 265.0285 41.3891 266.1741 41.9349 266.6949 41.9349 267.0074 41.0113 268.2572 39.5418 270.3403 35.4273 271.972 34.5037 271.1041 34.2517 272.7358 33.2861 272.5969 33.706 271.6248 32.5304 272.0762 33.9159 277.8393 30.893 281.0333 31.1449 282.2137 30.977 282.3179 29.5495 283.047 28.248 282.8039 25.7709 282.2485 25.8129 282.3526 25.8129 282.4568 26.3167 284.6093 28.206 286.5535 32.0266 290.546 32.6563 293.3581 32.7823 293.4623 36.9388 297.1771 39.5838 297.1771 41.3052 299.5726 41.599 299.642 39.4578 302.4195 36.9388 301.7251 36.8968 301.7251 35.5533 303.9123 23.6297 306.9675 23.5457 307.0022 22.3701 310.1268 24.3434 310.7864 24.6793 312.2099 22.9999 312.2446 22.8739 316.0635 20.2709 317.4522 21.4045 310.9947 20.3129 308.2868 22.1602 307.3841 24.2174 298.3922 22.748 292.6638 19.6831 288.4629 20.061 286.0327 18.2137 285.9285 17.206 283.776 19.0114 280.2695 17.29 274.2981 15.9465 273.4301 18.2556 270.2014 18.0037 266.313 19.2633 264.8201 M 516.0662 254.0229 515.7723 253.9882 514.7647 253.9535 515.1006 256.2101 515.0166 256.2449 515.0166 256.2796 513.6311 256.7656 512.2456 257.2864 513.0014 258.5015 504.1846 262.1122 506.7457 268.778 508.2991 269.6806 505.0243 269.507 502.5052 272.5275 499.6923 272.458 497.0053 274.9577 496.0816 278.3253 491.0435 281.0333 489.8259 280.5473 488.9862 283.1511 486.5931 284.0191 486.4252 288.081 484.7038 289.0531 484.074 288.2199 482.8565 291.1015 481.5969 292.3513 480.7992 293.6706 480.0015 293.9483 475.8451 295.3718 476.2649 296.448 476.3069 296.4827 474.2077 295.5453 471.9405 296.5174 463.3757 306.3079 461.1505 305.8565 460.6886 306.2731 459.639 307.766 M 375.2081 304.1553 375.2921 304.0859 374.7463 302.8014 374.0326 301.9334 372.0593 303.218 370.3379 304.9539 368.1967 305.7871 366.3494 306.5509 365.5937 306.8286 364.5441 306.0648 362.067 304.2248 361.7311 298.7047 355.6014 298.4964 351.151 291.0668 347.4144 288.9837 347.8762 285.4425 346.1968 283.8802 343.7197 284.1232 343.09 282.2832 339.9831 282.6303 340.277 281.0333 333.8534 284.887 331.0824 284.401 325.1206 286.7965 321.342 286.9701 320.2084 285.9285 320.1244 285.9285 313.239 292.0736 310.9718 291.5528 311.4336 290.8585 311.3497 288.5671 310.0062 285.8591 309.9642 285.7897 309.9642 285.7549 312.1894 282.5609 310.426 278.7072 310.8039 273.1871 314.1626 268.778 314.1206 266.1047 320.2504 261.4872 317.2695 261.8691 316.3038 260.3416 313.9107 261.7303 311.3077 261.2442 311.2657 261.2442 312.0634 259.0917 310.9718 257.0781 312.4832 253.7799 313.9107 252.8772 325.0366 245.8295 325.1626 242.7397 325.1626 242.6702 326.2962 241.7328"/>
</g>
</svg>