<?xml version="1.0"?>
<svg xmlns="http://www.w3.org/2000/svg" version="1.2" baseProfile="tiny" width="800" height="1217" viewBox="0 0 800 1217" stroke-linecap="round" stroke-linejoin="round">
<g id="CT" fill="none" stroke="black" stroke-width="1">
<path d="M 582.7862 525.6684 583.1857 525.7315 583.1857 525.7946 582.7862 525.6684 582.1869 525.4793 582.2535 525.6054 582.8528 527.0556 579.9895 536.6398 580.1227 536.8289 580.0561 537.0181 584.0514 542.6298 582.5864 545.9086 578.7243 544.017 573.1974 547.1066 571.7991 560.8523 567.4708 571.5084 562.6098 571.5714 555.7512 577.9398 545.4965 576.7418 533.5771 570.1842 528.6495 571.3823 527.7839 569.2384 531.1133 565.8966 526.785 565.5813 528.1834 563.1222 523.8551 564.5725 523.7886 561.1045 519.7266 564.068 520.4591 567.1577 518.528 565.6444 511.6694 566.1488 507.8738 569.7429 506.7418 566.8424 502.2138 567.599 501.8143 565.8335 492.0923 568.2926 490.8271 570.8148 483.5689 566.1488 461.3283 568.6079 461.2617 568.6079 460.729 570.4365 463.7255 573.4 461.3283 575.5438 461.528 575.7329 463.1928 577.8137 460.4626 580.8403 460.729 581.0925 460.8621 581.2186 459.4638 583.3624 455.868 584.1191 459.1974 590.8658 445.8797 608.5208 432.0292 615.835 431.9626 625.1039 427.7009 630.3373 426.8353 631.3462 426.6355 631.6614 419.111 630.9048 416.3143 623.4645 408.4568 623.4014 408.3236 619.9335 405.66 619.4921 403.4626 622.3926 402.9299 622.2665 398.3353 621.1945 395.4054 617.2222 391.0105 615.3936 389.2792 608.773 386.1495 609.8449 381.222 607.5119 380.4229 610.8538 376.361 609.971 374.0304 604.6115 371.2336 603.1612 369.3692 595.1534 356.0514 593.3249 349.9252 586.452 343.0666 587.3348 335.9416 582.2275 339.4708 569.0493 341.2687 562.4287 343.3329 554.7361 343.6659 553.6012 344.5315 552.7184 346.5292 550.7007 349.5257 547.6111 355.3855 545.152 366.2395 538.4053 375.3621 525.3532 383.0199 514.8232 386.6822 515.1385 385.4171 517.7237 390.7442 520.9394 391.0771 521.1286 391.0771 521.8222 391.0771 523.0832 391.0771 524.1552 389.5456 524.3443 384.9509 528.1275 387.4147 530.3344 386.6822 537.1442 384.8843 537.5856 391.5432 540.3599 391.41 545.8456 395.4054 546.5392 395.6717 544.2062 400.6659 541.9993 405.1273 543.6387 404.528 547.548 407.7909 545.0889 413.118 547.8002 414.25 541.3688 418.5117 538.5944 418.7114 538.6575 420.8423 539.0988 423.7722 539.7924 423.7056 539.9185 422.2407 542.4407 422.1075 542.6929 422.1741 542.6929 424.9708 544.2062 425.8364 541.684 425.8364 541.621 429.632 541.1166 426.6355 539.0988 428.8995 535.1895 436.8902 537.3964 440.0864 534.4959 442.5502 537.0181 446.6121 537.5225 453.0047 532.9196 459.0643 533.8023 463.5257 531.7216 463.3925 534.622 471.9825 534.8112 473.3143 526.4881 471.0502 504.9869 479.9731 503.0953 486.632 497.4835 490.0946 500.1318 496.8867 501.2667 496.021 496.0963 506.6086 491.4304 506.875 491.3043 515.1986 503.7258 517.8621 502.9692 517.7956 502.717 521.4579 502.6539 523.9217 507.5721 526.1857 506.3741 530.2477 509.842 533.3107 507.509 533.5105 503.978 539.4369 505.4913 541.9007 514.4449 554.0864 516.9671 552.4883 519.1109 555.4848 521.6961 557.9486 528.5059 565.007 520.8764 566.6717 524.9118 569.2021 521.4439 572.3984 522.2636 573.1308 524.5965 582.2535 525.6054 M 217.6799 833.0544 219.3446 837.7204 217.2138 840.0534 217.7465 842.4494 217.7465 842.5124 228.3341 844.5302 239.1881 850.5202 237.59 855.1232 245.2477 855.3754 243.7827 857.5822 233.3949 860.3566 235.1928 864.392 234.5935 873.4087 230.465 879.8401 232.2629 883.6233 226.9357 887.911 227.9346 890.4962 237.4568 892.0725 235.2593 899.0084 236.3914 910.358 223.8061 912.3127 220.6098 909.2861 220.5432 909.16 221.1425 904.1788 221.2091 903.9896 220.1437 903.6113 219.0117 903.233 218.9451 903.1699 217.5467 904.1157 218.479 908.4034 216.1484 910.8625 220.9428 912.8171 222.5409 918.6181 215.882 918.8703 211.8867 921.5185 211.8201 921.5185 203.097 918.1767 198.1028 920.6358 192.243 920.5727 190.3785 921.2033 188.847 927.3194 183.3201 927.3825 182.521 929.5894 178.6589 930.7243 176.861 926.0584 173.0654 925.3648 173.9977 932.9312 170.8014 933.4987 170.8014 933.5617 170.7348 933.4987 166.9393 929.9046 160.4136 930.1569 160.014 930.2199 160.0806 930.6613 161.0794 937.408 157.8832 939.0474 152.7558 938.9213 150.625 936.8405 137.3072 937.408 136.7079 923.1579 117.597 912.7541 117.5304 912.8171 112.8026 909.7906 109.7395 904.5571 110.0058 899.4498 115.5327 896.9276 121.7921 897.2429 126.3867 890.1809 125.7874 882.9298 118.3294 882.2992 114.3341 873.9762 114.2675 873.9762 102.7477 874.7328 101.6157 870.0668 96.0888 866.2836 91.028 864.2659 82.1717 865.1487 81.639 864.2659 82.1051 860.861 83.6367 848.7547 83.7033 848.3764 82.7044 847.8089 82.3049 847.6198 71.3178 841.7558 61.9953 836.7746 58.9322 834.3155 58.1998 833.2436 58.6659 825.551 58.6659 825.488 53.6051 822.9028 46.014 823.7225 43.8166 827.0013 43.75 827.0643 46.8797 828.5776 47.6787 834.7569 42.8843 829.8387 30.965 829.7756 30.8984 825.8033 38.3563 827.0643 43.8166 823.8486 47.146 816.8497 50.875 815.4625 48.0783 809.4093 43.75 808.3374 40.0876 810.4812 33.1624 808.4005 32.6963 802.4735 40.5537 798.7533 45.9474 801.7799 47.6121 803.9237 49.1437 803.6084 52.9393 802.7887 55.5362 802.2212 56.2021 800.5188 57.6005 797.24 59.2652 793.2676 58.5993 790.8085 60.6636 776.7476 58.2664 772.0186 58.4661 771.4511 62.2617 763.9477 62.3283 762.3714 62.9942 760.8581 62.6612 754.1744 65.9241 756.4444 71.7839 754.9311 79.4416 746.9863 85.9007 753.7961 90.9614 753.9853 91.028 753.7961 95.2231 744.5273 93.4918 738.9155 97.2208 737.5914 97.8867 734.5017 102.8143 733.9973 105.4112 736.2672 113.2021 731.286 112.5362 724.9176 109.8061 722.3324 116.5981 723.5935 118.9953 715.964 124.1227 716.1532 132.646 706.506 139.4381 706.569 143.8995 703.4794 143.7664 702.7228 144.3657 702.2183 152.3563 708.3976 160.7465 710.037 174.597 718.0448 179.1916 712.433 188.5806 710.037 191.0444 705.2449 194.7734 704.5513 193.7745 702.8489 196.6379 698.1199 194.5736 694.6519 201.8984 691.247 208.2909 682.3565 214.6168 683.8067 220.2103 687.9682 224.8049 683.9328 224.8715 689.4815 233.7278 691.7514 234.1939 691.7514 242.5841 690.5534 244.8481 694.9672 245.847 695.5347 249.4428 694.2736 249.9755 691.4992 260.8294 690.8056 261.8283 691.184 269.153 694.0844 271.4836 695.0302 279.0082 697.9937 287.2652 697.8676 287.465 709.9739 293.7909 717.0359 292.6589 722.3955 296.1881 721.9541 298.785 727.8181 293.6577 730.8446 292.2593 732.8624 292.1262 736.1411 294.7897 736.8978 297.3867 735.3845 297.5864 735.1953 297.653 735.2584 299.7173 739.6091 299.7839 739.6091 299.5841 741.3746 296.7208 740.3657 294.9229 745.9144 296.9206 750.3282 299.9171 749.3824 302.4474 758.336 294.9895 760.4167 289.4626 759.0926 286.1998 760.2276 284.1355 763.6955 276.6776 765.5871 263.6262 760.1645 258.3657 752.9764 232.5958 762.3714 226.5362 760.3537 223.0736 768.1093 223.8061 774.9821 220.5432 781.2244 214.9498 781.4136 214.2839 783.6835 201.965 786.4579 203.9626 795.1592 209.4895 797.3031 208.6904 802.2843 212.0864 803.8606 212.9521 807.2655 217.9463 808.2744 223.9393 813.5078 223.2734 816.03 218.479 818.6782 222.0748 822.0831 217.2138 829.2712 217.347 830.5323 217.6799 833.0544 206.8925 833.3066 201.4322 831.2259 198.1028 835.2613 194.1741 835.4504 187.5818 829.3973 181.1227 827.1904 176.2617 837.7204 185.3178 845.0346 181.7886 847.5567 162.278 847.0523 157.1507 838.477 150.7582 835.8288 147.6285 826.5599 140.5701 826.5599 136.1752 823.155 133.9112 814.7689 127.9182 805.5 124.4556 802.3473 115.6659 800.708 111.2044 807.4547 110.8715 807.5177 100.8166 811.5532 97.5537 818.8043 92.4264 819.9393 93.4252 825.1097 97.354 825.9294 103.0806 819.7501 103.8131 822.4614 109.2068 823.9117 109.7395 826.623 103.5467 830.9736 103.2804 830.9106 99.285 830.7214 100.8832 826.8752 92.493 830.9106 90.3621 832.613 89.3633 834.4416 90.7617 842.8908 91.2944 844.8454 91.1612 845.1607 90.6285 846.2326 90.229 846.9892 82.7044 847.8089 M 211.8867 921.5185 214.75 920.6988 217.9463 924.0407 218.2792 924.8604 214.4836 926.5628 214.5502 926.6259 214.4836 926.6259 216.4147 933.814 212.0199 938.3538 221.4755 942.8937 223.0736 945.9833 223.1402 946.0463 232.5292 946.4877 237.59 941.7587 242.4509 943.6503 240.5864 952.2886 242.4509 957.0177 239.2547 960.6117 240.1869 966.4757 245.2477 970.0067 241.9182 971.583 242.5841 974.2943 247.7114 975.6815 245.2477 980.2844 236.5245 982.4913 235.9252 982.6804 236.3914 983.4371 238.9883 987.9139 233.7944 989.3641 235.1262 992.5799 235.3259 993.2104 243.1168 996.1739 244.9813 999.3896 246.7792 997.5611 252.7722 999.768 251.3072 1005.1275 256.1682 1008.2802 257.8329 1012.6939 261.6951 1010.8654 265.0245 1013.3875 263.4264 1015.2791 266.4895 1018.684 269.4194 1017.0446 274.347 1020.6387 282.8703 1014.0181 290.9942 1019.2515 293.3248 1024.2327 292.0596 1026.5657 295.389 1026.5027 294.5234 1031.673 291.4603 1033.1233 289.7956 1038.1045 286.1332 1040.8158 291.66 1042.7074 294.59 1046.2384 291.5269 1047.8778 284.0689 1042.9596 275.9451 1047.8147 275.8785 1048.067 275.3458 1049.7064 272.3493 1048.3192 272.2827 1048.2561 273.215 1042.7705 273.5479 1041.068 265.8236 1038.8611 266.7558 1033.8799 266.6227 1033.7538 264.2921 1031.1686 263.9591 1030.7903 260.8294 1033.943 255.3026 1032.8711 255.3026 1032.9341 255.4357 1038.0414 250.8411 1041.5094 250.7745 1041.7616 250.1752 1045.5448 252.8388 1048.6344 250.1752 1053.4896 250.375 1054.2462 250.9743 1056.8314 251.1075 1056.8945 256.5678 1059.3535 257.3668 1059.7319 257.3002 1059.858 253.5713 1066.4155 252.7056 1067.4244 249.7757 1065.9742 252.1063 1062.9476 250.4416 1058.5338 246.2465 1058.9122 239.7874 1055.192 239.6542 1055.2551 235.2593 1057.0836 231.7967 1058.4708 231.7967 1058.5969 231.6636 1063.452 229.3995 1061.1821 226.8026 1063.6412 226.3364 1064.1456 226.403 1064.3348 226.8692 1066.1633 227.4019 1068.3702 228.6671 1068.4963 230.7979 1071.2076 225.604 1076.1888 225.5374 1076.2519 231.1308 1079.3415 227.3353 1082.8725 221.6752 1080.2243 218.4124 1081.1701 219.5444 1085.4577 217.014 1092.0783 221.5421 1094.2221 228.4673 1094.1591 228.2009 1097.8162 224.6717 1099.6447 217.0806 1094.9157 210.0222 1094.7896 208.8902 1090.7542 204.6285 1091.1325 203.5631 1087.3493 195.5724 1082.9986 195.0397 1074.4233 188.7138 1073.6667 187.9147 1076.1258 181.0561 1071.0815 183.5199 1069.316 183.5199 1069.1899 183.1203 1060.8668 183.1203 1060.5516 178.8586 1061.3082 174.0643 1065.785 174.5304 1059.7949 177.1939 1057.7142 177.1273 1053.7418 180.257 1049.7694 177.2605 1047.0581 176.7944 1042.3291 183.986 1031.2947 182.0549 1018.1165 185.118 1014.3333 187.1157 1002.4162 189.1799 1000.1463 188.3808 997.8763 181.722 999.3896 178.6589 998.2547 178.6589 996.4892 184.4521 994.6606 187.9813 995.9847 187.6484 991.9493 191.3773 989.0489 184.9848 983.8785 188.7804 979.9691 186.5829 979.1494 186.5164 976.8795 189.3131 973.0963 186.0502 965.2146 186.1834 947.5596 173.7979 947.8118 170.6016 942.7676 170.8014 938.606 167.9381 937.4711 171.3341 935.5795 170.8014 933.4987 M 217.9463 924.0407 217.5467 922.7796 219.6776 921.2033 228.2675 925.8062 237.257 933.2465 237.6565 935.3903 238.722 936.4622 241.9182 938.1647 249.0432 939.9932 249.1098 940.0563 250.1752 933.3095 255.3026 928.3914 262.8937 930.346 265.1577 939.0474 275.5456 934.8859 275.8119 931.9224 270.6846 931.3549 266.6893 927.2564 266.6893 927.1303 267.7547 916.9156 273.5479 914.961 274.0806 912.5019 281.139 913.9521 286 910.295 291.0607 914.4565 298.6519 915.024 301.7815 904.4941 299.2512 903.6113 298.1192 895.6666 301.3154 892.64 304.3785 884.6953 310.7044 891.7573 310.771 884.2539 308.5736 879.5249 308.507 879.3357 309.1729 878.8943 311.9696 876.6875 318.6285 877.1288 320.2932 881.2904 329.0164 878.7682 329.1495 878.7682 329.882 878.8943 335.7418 879.9662 336.4077 880.0923 337.9393 881.0382 338.139 887.974 339.8037 887.5957 343.6659 885.2627 343.7991 885.1997 350.7909 884.6322 352.7886 882.1731 357.4498 883.4972 357.0502 886.9021 358.9813 887.7849 357.9825 893.2075 362.4439 900.3325 371.1671 898.7562 374.6297 900.6478 372.5654 909.9797 367.6379 910.358 366.5058 912.628 366.7722 915.024 372.5654 916.8526 375.4953 920.1944 373.0315 920.6988 368.6367 931.8593 368.5701 939.1105 370.6343 941.8848 369.3026 943.9656 372.8984 946.1094 372.0327 949.7665 373.9638 950.8384 372.4322 952.8561 370.8341 951.9103 372.965 953.865 371.6332 955.2522 371.9661 956.198 370.2348 957.2699 370.5012 958.0265 371.3668 959.5398 373.0981 957.9004 373.2979 957.5851 373.3645 957.6482 373.764 957.7743 377.7593 958.9723 377.7593 959.6029 377.5596 964.2058 380.0234 964.458 377.0935 970.0697 382.9533 979.4017 385.4836 998.3808 380.1565 997.7502 372.8984 1001.1551 372.0327 1001.5965 372.1659 1004.56 369.1028 1006.0733 369.0362 1006.1364 370.7009 1014.3964 368.7699 1023.6022 363.8423 1025.0524 363.8423 1027.9529 355.6519 1028.8987 355.2523 1028.9617 355.4521 1030.475 355.785 1033.1233 355.8516 1033.1863 354.5199 1036.9695 344.132 1035.9607 332.4124 1040.8789 330.6145 1042.7074 332.2792 1045.6709 328.3505 1051.3457 323.1565 1051.5349 319.1612 1047.9409 318.8283 1048.13 318.8283 1048.067 313.9673 1048.8867 313.7009 1050.6522 307.1752 1054.6876 297.1869 1059.2905 293.6577 1060.8668 293.3914 1060.9929 293.0584 1060.8668 281.8049 1057.0836 272.8154 1058.3447 271.2839 1057.2097 271.8832 1049.328 272.0829 1049.328 275.2792 1049.7064 275.3458 1049.7064 M 302.4474 758.336 303.7792 758.0207 308.6402 758.9665 308.4404 768.8659 312.7687 773.5319 314.3668 780.5308 314.2336 780.9722 308.7734 798.6902 308.3738 799.8252 310.6379 800.6449 309.7722 805.6261 309.972 805.8783 310.9042 806.8872 313.1016 809.2832 317.0304 810.9857 332.0794 817.4802 331.5467 821.8939 335.4755 828.8298 350.7909 830.8475 346.7956 846.5479 346.8621 846.9262 349.5257 862.059 345.8633 867.923 347.5946 875.8047 347.4614 878.2007 343.9322 884.8844 343.7991 885.1997 M 403.4626 622.3926 404.7278 622.7078 404.5946 623.4014 403.6624 630.2112 404.0619 635.823 406.1928 649.0642 405.0607 649.6317 405.2605 652.406 406.1262 655.8109 410.1215 662.2424 409.0561 665.6473 410.5876 668.9261 404.9276 674.727 405.66 678.7624 402.0643 682.4826 407.125 689.0401 413.118 691.184 414.5164 702.4705 418.7114 698.1829 420.0432 704.9296 422.4404 707.0735 418.3119 712.1808 419.1776 715.0182 415.1822 725.0437 421.1752 730.4033 422.3738 734.1234 417.3131 739.7352 419.3773 742.9509 417.1799 743.9598 419.3107 751.274 412.5853 762.6867 414.8493 767.0374 414.9825 779.6481 430.4311 783.5574 436.2909 787.4037 444.1484 787.4667 454.1367 792.4479 455.4685 792.4479 461.7278 789.5475 476.1776 792.7002 476.7103 800.5188 474.2465 809.4093 475.5117 814.0753 477.5093 814.5167 474.979 821.3265 472.1822 823.155 463.5923 822.8397 458.7313 830.2801 453.0713 832.9914 452.6717 833.1805 452.7383 833.4327 452.5386 833.748 450.0748 832.2347 448.9428 822.5875 453.8703 816.5974 454.2033 816.1561 453.604 816.03 443.6157 814.4536 441.0187 812.3098 440.2862 813.9492 433.8271 808.968 427.4346 809.5985 423.972 807.833 414.1168 812.1206 410.1215 817.4171 407.5911 816.9758 404.5946 822.1462 396.6706 811.8684 389.9451 795.3484 383.8855 789.8627 378.5584 793.2046 373.6308 793.5829 371.1005 789.4844 362.5771 787.7189 351.7231 779.585 344.465 787.5298 342.3341 786.0165 341.6016 781.1614 341.6016 781.0983 344.9977 771.4511 357.4498 770.2531 358.8481 769.3703 360.1799 764.6413 364.5748 761.93 363.8423 755.3725 366.639 748.6257 366.7056 748.4366 372.8318 741.1224 369.0362 739.546 366.1063 735.3214 359.0479 734.6279 354.653 727.1245 354.5864 711.6133 349.9918 706.4429 347.3949 694.2736 342.2009 689.1663 341.6016 679.7713 337.1402 668.4216 340.6028 661.1074 334.9428 655.6218 334.6098 651.3341 323.3563 646.0376 320.7593 639.2909 323.6227 634.1836 319.7605 630.022 317.6963 624.4733 317.2967 623.3384 316.6974 621.8251 317.4965 617.8527 314.5 613.8173 314.4334 613.6912 314.4334 612.8715 313.8341 605.0528 312.4357 605.5573 314.6998 602.9721 314.6998 602.7199 315.3657 602.2154 329.2827 591.2441 335.9416 582.2275 M 312.4357 605.5573 311.104 606.0617 310.6379 607.575 309.0397 609.4035 307.9743 609.5296 302.6472 608.6469 302.5806 608.5838 301.7815 605.3681 301.7815 605.3051 295.7886 604.1701 289.7956 596.0362 281.9381 594.7751 277.0771 599.0628 276.9439 598.9997 266.2897 594.586 264.0257 593.6402 263.6262 593.9554 263.4264 593.2618 260.2967 590.8027 258.6986 589.7308 258.8984 589.6047 258.4988 589.3525 262.4942 586.7673 258.4988 584.8127 257.0339 584.1191 256.9007 584.056 256.9673 583.6146 257.5666 575.2285 257.5666 574.9133 257.6332 574.8502 262.2944 569.7429 261.8949 567.7882 261.8949 567.7251 266.1565 567.2207 261.6951 558.5193 250.3084 550.7637 250.3084 550.6376 250.9077 546.4131 248.6437 541.3688 248.8435 541.2427 251.6402 539.6033 252.3727 534.4329 252.4393 534.1807 257.5666 534.4329 260.4965 532.3521 259.764 529.6408 263.3598 528.0014 263.2266 523.7768 265.9568 523.6507 267.1554 522.3897 268.5537 520.6242 265.6238 508.707 267.222 507.0046 266.6893 500.5731 269.8189 497.9879 269.6192 493.2589 274.2138 492.6284 274.0806 489.0343 276.8773 487.6472 277.2103 486.9536 279.4077 482.729 279.5409 484.3684 279.6075 484.4314 280.0736 484.6206 281.0058 484.9989 290.3949 486.1339 288.5304 482.6659 289.729 480.333 293.9907 481.2157 296.9206 477.9369 298.5187 483.5487 308.3072 483.7378 310.9042 481.0896 311.6367 484.0531 316.8306 487.6472 319.0946 482.9181 322.9568 483.927 325.9533 488.4038 323.6227 491.7456 325.6869 497.2313 324.7547 503.5997 329.0164 504.2933 329.3493 507.446 336.2745 507.1307 337.0736 509.842 342.0012 512.0489 344.7313 510.6617 348.66 514.3188 353.3213 514.508 360.9124 518.9217 360.7792 524.5335 360.7792 524.7226 360.979 524.9118 365.7068 529.0733 365.9065 529.1994 365.9731 529.1364 370.9007 524.8487 375.3621 525.3532 M 263.6262 593.9554 262.6273 594.7751 265.3575 599.9455 263.9591 601.2696 263.0935 601.9002 263.0935 602.0263 263.0935 602.1524 262.6939 605.6203 259.4311 607.575 259.0981 609.6557 257.4334 610.0341 249.9089 611.6735 249.8423 611.7365 246.5794 618.1049 241.7185 618.6094 239.1881 623.1492 236.6577 623.1492 234.3271 623.4645 235.5923 626.3019 232.729 627.3107 226.0035 627.2477 220.5432 623.5275 221.1425 621.1945 222.7407 621.9512 225.3376 619.429 223.7395 609.7819 228.2009 605.3051 223.4731 601.5849 226.8026 600.6391 226.6694 597.045 221.6752 595.2165 220.9428 587.524 220.743 587.524 217.347 587.7762 216.215 590.9288 209.1565 591.2441 204.4287 590.4875 203.8294 586.3259 198.236 588.785 197.9696 591.118 189.0467 589.2264 188.1145 592.8205 186.0502 592.8205 182.7874 590.6766 182.7208 584.4974 176.3949 584.8757 176.528 583.2363 175.8621 583.5516 175.5292 582.4166 175.2629 580.9033 177.8598 578.4443 182.5876 580.525 182.7874 580.5881 183.5864 580.0206 185.2512 578.8226 185.7173 578.4443 183.5199 574.9763 185.9836 574.2197 187.5818 565.8966 183.5864 560.474 184.1192 555.5558 174.4638 557.5105 174.7967 554.61 177.4603 552.9706 174.4638 552.3401 177.2605 550.0702 177.1273 541.7471 179.3914 541.3057 181.722 534.0546 183.653 533.6762 182.0549 532.163 182.9206 523.7138 179.6577 521.3808 181.389 519.8675 178.7921 514.8232 180.8563 505.4913 176.528 504.7977 176.2617 501.7081 181.9883 502.8431 184.6519 498.1771 185.2512 498.6815 186.25 500.7623 188.1145 500.7623 188.4474 500.7623 188.6472 500.7623 188.1145 495.718 193.6414 495.655 197.5701 495.5919 198.1028 495.718 198.6355 499.5012 203.8294 499.6904 206.2266 494.8983 209.0234 495.8441 209.4895 494.2047 214.3505 493.6372 214.9498 494.1417 218.2126 499.0599 220.743 497.6096 222.1414 497.8618 235.1262 500.447 235.1928 502.9692 231.7967 502.2125 230.8645 504.6086 236.1916 507.5721 232.396 511.4814 232.7956 516.0843 230.1986 519.8675 235.9918 519.6784 235.9918 517.2823 236.0584 517.2823 240.0537 517.9759 241.5853 518.7956 241.9848 519.6784 240.8528 521.0025 238.8551 521.6961 237.9229 524.4074 241.9182 526.7404 241.2523 530.2083 241.3189 530.2083 248.8435 531.4063 251.84 534.4329 252.3727 534.4329 M 231.3972 677.4383 233.9942 670.6916 234.1939 670.2502 234.2605 671.0699 234.3271 672.7093 234.3937 672.8354 231.3972 677.4383 M 224.8049 683.9328 233.3949 681.5368 231.9299 678.0058 232.396 678.0058 245.0479 677.1861 236.5245 676.1142 244.5152 672.5832 244.1157 670.6285 241.5187 673.1507 239.854 669.998 242.118 668.1694 240.986 663.2513 244.0491 662.999 245.1145 653.2888 240.3201 653.2257 237.8563 650.7036 239.7208 644.6505 237.9229 641.3086 244.1157 637.084 245.3143 631.4092 240.7862 630.2743 241.7185 627.6891 237.3236 625.9236 236.7243 623.3384 236.6577 623.1492 M 341.6016 781.1614 337.2734 780.2786 327.8843 770.3161 327.8178 770.4423 318.0292 781.2875 314.3668 780.5308 M 144.3657 702.2183 142.7009 694.2736 138.3727 693.0125 137.1075 686.5811 143.8995 685.9505 143.0339 683.1762 147.1624 680.2127 147.1624 675.4836 137.9065 669.3674 136.8411 666.9084 138.5724 662.8729 131.9801 662.1793 130.2488 665.8995 128.5175 662.5577 123.1904 664.4493 117.9965 661.5488 118.7956 658.0178 110.6051 658.1439 108.0748 651.6494 111.2044 647.2987 110.9381 644.2721 119.2617 640.552 123.5234 636.0121 126.7196 635.1924 126.7862 639.354 130.7815 640.1106 131.514 642.1283 137.5736 632.2289 141.7687 634.6249 141.1028 631.157 139.9708 631.9767 136.1752 628.4457 144.965 620.6901 139.3049 616.0242 138.7722 607.9533 134.7103 608.5208 136.9077 604.107 134.1776 602.6568 137.4404 601.5218 136.9743 597.6756 143.5 596.7928 150.625 599.6933 157.6168 599.6933 169.0701 597.4234 174.9965 587.3348 173.6647 584.7496 174.9965 583.993 175.8621 583.5516 M 185.2512 498.6815 185.118 498.2402 177.3271 497.0421 176.1951 493.1959 172.5993 491.6826 176.1951 484.8098 179.9241 483.4226 179.5911 478.4413 183.2535 476.2345 180.1238 474.2168 180.9895 469.9291 178.9918 462.678 M 242.2512 405.2993 251.1741 404.984 255.9019 406.6234 257.3668 409.3977 259.6308 407.2539 259.5643 403.9121 256.1682 402.7771 257.6998 401.2638 258.0993 401.453 263.4264 403.4076 264.2921 408.1997 270.4848 407.4431 273.4147 408.9564 272.4159 411.9829 274.2804 413.1809 281.6051 413.7484 285.8002 416.838 290.6612 413.6854 292.6589 416.0814 294.5234 414.8203 299.7839 416.0814 298.9182 419.6124 304.4451 422.639 302.9136 428.3138 306.6425 429.3857 307.0421 426.6113 309.9054 425.6655 313.1016 428.6291 316.2313 426.5483 319.0946 428.3768 317.896 436.6999 323.09 438.024 326.0864 441.7442 318.3621 448.1757 312.9019 450.5717 308.84 452.2741 302.6472 452.0219 300.6495 449.752 296.6542 451.5805 294.1904 450.3825 288.9965 454.2918 287.1986 451.1392 287.132 451.1392 286 451.2653 280.6063 451.8958 280.5397 452.085 280.0736 454.3549 285.6005 462.1735 285.4673 462.8671 284.7348 466.1459 276.9439 468.5419 274.4801 470.6227 272.8154 472.0099 272.3493 472.3882 275.146 474.7212 279.3411 479.6394 279.4077 482.2246 279.4077 482.729 M 58.4661 771.4511 59.7979 767.8571 50.8084 762.8128 42.9509 761.6778 42.0853 761.5517 41.153 764.0108 36.5584 764.3891 30.965 762.2453 29.9661 761.0473 28.368 758.8404 28.4346 758.7143 32.7629 753.4178 34.6939 751.0848 34.7605 750.9587 31.4311 748.4996 29.6998 743.4553 46.0806 737.7175 53.4054 739.4199 59.2652 731.1599 70.9848 729.3314 73.9147 726.7462 74.0479 726.6201 71.0514 718.4231 67.3224 715.0182 71.5841 706.9473 69.3867 704.0469 72.7827 693.5169 71.9171 684.8156 74.1145 682.1673 72.3166 677.9427 75.1133 675.4836 65.2582 673.592 53.8049 678.9516 50.6086 678.3841 46.0806 671.6374 53.6051 664.3232 65.1916 661.1705 66.59 659.0267 66.59 658.9636 62.2617 653.9193 61.7956 646.8573 59.6647 643.6416 59.1986 637.5254 61.5958 632.355 61.5292 632.292 61.5958 632.2289 58.5993 610.7907 42.7512 611.9257 38.9556 599.4411 35.16 596.6667 40.6203 590.8027 38.0234 579.7053 41.6857 576.1743 39.1554 574.8502 42.8843 564.6355 52.6063 563.1222 55.4696 558.8346 61.1963 559.4021 66.59 555.5558 71.6507 554.7361 77.4439 549.9441 80.7734 542.3146 84.3026 540.8013 84.7021 537.9639 80.6402 534.1176 80.507 534.0546 80.5736 533.9915 82.6379 533.2349 83.5701 531.4694 85.1682 528.4428 88.0315 523.0832 88.2979 521.6961 89.3633 515.9582 89.4965 515.2016 95.4895 507.2568 93.4918 502.8431 96.0222 494.5831 92.0269 491.5565 93.7582 488.1516 91.1612 485.7556 94.1577 479.5763 90.9614 471.0641 94.757 464.6957 93.2255 461.0386 99.0187 451.7067 103.2138 453.1569 104.6121 455.9312 111.2044 454.418 110.6717 451.7697 116.0654 438.8437 115.9322 438.5285 116.2652 437.8349 M 326.0864 441.7442 329.1495 435.9433 342.4007 433.295 344.3318 429.0074 345.0643 428.8182 345.3306 428.4399 345.7967 428.6291 356.9171 433.6103 357.3166 433.7994 361.8446 438.3393 368.7033 435.3758 372.632 436.1955 372.8984 437.5196 373.2979 445.5274 375.229 449.0584 376.361 451.2022 376.7605 451.8958 393.7407 453.5352 398.0023 459.7144 398.4685 460.4711 399.4673 460.4711 413.5841 461.2908 424.0386 455.0485 M 520.6589 459.0209 520.9252 465.2001 524.7208 465.1371 527.7839 473.5862 517.8621 489.4127 516.3306 491.8087 515.6647 492.8176 517.6624 502.78 517.7956 502.717 M 237.3236 311.917 236.2582 312.9258 237.3902 318.3484 240.3867 319.8617 239.7874 324.6538 242.3843 329.0675 245.1811 330.0764 245.1811 330.1394 244.382 332.6616 252.7056 339.8497 252.5058 340.2911 249.9089 345.3984 246.646 346.7856 249.5093 351.1363 248.111 353.217 251.9731 354.6673 252.1063 359.6485 248.4439 365.0711 247.5783 374.8444 245.0479 376.3577 246.0467 389.7881 243.3166 398.6156 244.3154 402.2727 242.2512 405.2993 242.5175 403.4707 237.3902 403.0924 236.7909 403.3446 237.1904 404.5426 239.3213 406.6234 235.7921 410.0283 237.7231 412.8657 232.6624 415.5139 232.4626 418.0991 234.8598 419.108 232.7956 420.0538 233.3283 422.5129 230.2652 423.7109 232.396 424.7197 227.7348 425.3503 225.8703 422.1976 224.2722 427.4941 221.2091 428.7552 222.1414 434.8714 222.6741 438.4654 222.6741 438.5285 215.882 438.3393 209.8224 434.9975 207.4252 438.4024 211.8867 450.5717 205.5607 452.5263 202.5643 450.3195 194.9065 454.7332 188.7804 452.9047 190.1121 459.4622 190.778 460.1558 190.3119 460.5341 188.9136 461.7322 187.7815 462.741 183.8528 462.2366 178.9918 462.678 178.8586 462.2366 171.0012 460.5341 170.2021 462.8041 165.6075 457.0662 157.4171 459.0839 151.1577 455.679 145.764 458.3273 140.5035 452.148 136.8411 450.6978 137.1075 447.0407 132.4463 439.7265 122.3248 439.8526 116.3318 437.5827 116.2652 437.8349 115.6659 437.6457 115 435.1866 117.5304 433.9886 115.5993 431.9709 115.7325 431.8448 117.5304 430.3946 117.597 430.3315 114.0012 427.3049 113.8014 425.8547 115 421.5671 115.9322 418.2883 116.2652 417.0272 112.3364 414.0006 116.5981 414.5051 118.3294 412.7396 123.3236 394.6432 126.0537 393.5713 128.1846 384.933 130.9147 382.9152 137.6402 384.7438 140.5035 389.5989 140.104 394.9585 142.9007 396.5979 143.7664 396.1565 146.2967 394.8324 146.4965 394.7063 146.6297 394.454 146.896 393.9496 147.6285 392.3102 146.1636 389.9142 148.0946 387.5812 144.0327 384.1133 142.2348 384.8069 141.6355 382.4108 144.8318 379.8887 150.0923 380.4562 151.0245 373.9616 149.0935 370.3045 151.8236 369.9262 151.9568 367.5932 149.6262 363.4317 154.5537 359.7115 159.8808 358.1983 161.2126 359.9638 168.7371 349.9382 167.7383 343.6329 169.2033 340.1019 165.8738 332.2833 166.007 330.9591 167.2056 322.1316 175.729 318.4745 179.125 312.1692 179.3914 312.1061 183.1203 311.4756 183.1869 311.6648 183.7196 313.0519 185.5175 317.3396 185.8505 318.1593 187.6484 318.0962 192.3096 317.844 193.6414 317.7809 196.2383 315.1958 196.3049 311.0973 199.9673 309.2687 204.9614 313.3041 206.0269 312.9889 206.8925 312.7367 207.625 312.4845 207.5584 312.2953 206.9591 307.0618 209.0234 304.918 209.2897 304.9811 219.3446 307.9446 220.8762 318.979 221.7418 319.6095 223.6063 320.8706 224.0724 321.1858 225.3376 320.3031 227.535 318.6637 228.3341 318.0962 228.1343 313.6825 230.3318 313.2411 231.9299 316.3938 234.1273 315.7002 231.7967 315.6371 232.6624 312.4214 230.9977 310.9081 237.3236 311.917 238.5222 312.1061 239.1215 312.1692 239.2547 311.7909 241.3855 306.053 241.4521 306.053 245.5806 305.9899 246.3131 302.3328 250.9077 304.5397 255.5023 303.5939 254.104 301.7023 255.4357 300.0629 261.2956 303.0264 265.4907 302.522 266.8224 297.6669 272.8154 296.4689 272.4159 293.5684 270.0187 293.5684 270.6846 287.7044 277.5432 281.3991 283.2033 281.2099 286 277.1114 287.5981 279.8858 285.9334 283.9843 288.3972 289.2177 290.2617 289.2808 289.5292 292.2443 297.5199 291.1724 296.521 292.8117 299.5175 297.7299 304.7114 294.8925 306.8423 296.2797 305.91 303.3417 307.5748 308.2599 319.361 313.3672 321.0923 317.2135 318.5619 318.4115 319.2944 320.8706 323.7558 326.6715 328.0841 328.1848 333.6776 336.7601 329.7488 340.4172 323.8224 336.8231 325.7535 340.7955 324.6881 345.3353 326.4194 346.4703 323.9556 349.4338 321.8914 349.623 321.625 346.0289 318.4287 347.4161 313.8341 344.0743 309.9054 347.1008 309.7056 349.1186 311.7699 350.0013 306.4428 350.821 304.1121 354.0367 302.1145 352.5865 304.3785 349.623 296.9206 350.6949 294.8563 346.9117 292.7921 350.1274 288.9299 345.8398 288.597 354.4781 286.9988 354.1628 286.8657 355.1717 286.5327 357.2525 286.4661 357.883 286.5993 357.883 293.1916 359.3963 298.5853 365.8277 299.1846 366.5844 300.25 363.2425 304.0456 372.5745 310.1051 377.1143 312.9019 382.663 314.8329 381.7172 317.097 386.5724 319.6273 385.3743 320.4264 390.6708 325.9533 394.7693 326.8855 396.8501 328.2839 396.5348 328.5502 396.787 328.6168 402.3988 331.2804 403.9121 329.4825 405.2993 335.9416 406.9386 339.1379 409.1455 340.2699 411.9199 340.403 412.4874 336.4743 411.9829 335.6086 416.5858 338.7383 422.0084 342.4007 422.702 345.3306 428.4399 M 181.0561 1071.0815 177.7266 1068.8746 178.7255 1070.8923 176.1951 1072.9731 162.6776 1069.6313 152.3563 1072.4056 150.1589 1085.5208 141.5023 1094.5374 129.6495 1101.7255 129.25 1102.1038 129.7161 1102.4822 131.7138 1102.6713 133.5783 1105.5718 137.9065 1104.2477 142.1682 1108.2831 153.6881 1109.418 157.2839 1114.8407 158.2161 1117.4889 158.3493 1118.0564 158.4159 1118.2455 154.4871 1126.0642 160.0806 1130.604 160.1472 1137.4138 160.5467 1138.1705 160.1472 1138.4857 152.3563 1145.1063 147.4953 1144.0975 147.6285 1142.5212 141.8353 1143.3408 141.8353 1140.7557 137.7734 1141.134 129.3832 1147.3763 120.2605 1148.196 117.597 1135.6483 121.3925 1134.0089 120.1273 1130.2257 115.7991 1129.7843 112.0035 1129.0907 112.0701 1137.7921 107.2757 1142.1428 98.9521 1142.332 96.8213 1142.395 95.2897 1141.0709 95.3563 1132.4326 106.2103 1125.1814 97.6203 1115.8495 91.9603 1099.96 94.8902 1095.7354 91.7605 1096.366 88.0315 1094.096 88.0315 1093.9699 89.2301 1090.6281 79.6414 1083.6292 76.1121 1078.0804 76.2453 1074.6756 56.4019 1062.0018 52.6063 1056.0748 47.2792 1053.6157 41.0199 1053.9309 28.2348 1060.6146 25.5047 1057.588 25.2383 1057.7142 19.9112 1060.4885 11.1215 1041.8877 8.5911 1038.9873 6.66 1036.7173 5.9276 1035.8346 1 1028.3312 1.1332 1027.9529 6.4603 1027.9529 6.5269 1027.8268 11.2547 1022.4042 18.7792 1019.1884 21.1764 1018.1796 21.1764 1017.4229 21.0432 1015.5944 20.8435 1012.0634 18.7126 1009.6674 18.1133 1008.091 5.7278 993.967 6.0607 985.7701 6.2605 984.1307 11.9206 978.645 11.7874 978.2036 11.0549 974.7988 10.7886 973.6007 16.9813 969.4392 16.6484 964.5841 18.9124 963.6383 16.5818 956.8916 17.7138 954.9369 29.1671 946.866 29.3668 946.803 27.8353 942.5153 27.5023 941.4434 27.5689 941.0021 28.9673 936.9036 37.2243 932.8682 39.5549 931.7332 39.8213 931.6071 46.2804 918.0506 53.6717 916.0329 60.3972 907.8359 63.1273 906.2596 64.7255 906.3226 66.6565 911.2408 69.653 918.8703 71.4509 923.3471 73.1157 923.5993 74.3808 923.7254 75.0467 923.8515 79.375 921.7707 84.6355 919.69 86.9661 922.3382 86.2336 927.6978 96.2886 927.6978 98.0199 927.6978 98.3528 927.3194 102.6811 922.4013 117.597 912.8802 117.5304 912.8171 M 518.3949 382.3478 533.4439 391.3014 533.4439 395.4629 536.7068 395.2737 531.5794 400.4441 533.7103 401.2008 532.9112 403.849 534.6425 405.6145 532.7114 408.578 529.5818 408.1367 531.1133 412.6765 547.9603 410.7219 553.021 419.2341 556.3505 419.2971 559.014 422.2607 566.4054 419.9277 571.5993 423.7739 571.7325 428.3138 564.8072 434.6822 572.9311 437.3304 570.1343 442.1225 576.0607 446.284 577.7255 453.8505 581.7208 455.8051 581.2547 460.6603 589.8446 462.6149 591.243 466.9656 563.3423 460.1558 546.0958 460.6603 536.84 455.3638 520.6589 459.0209 520.5923 459.0209 516.597 460.5972 505.743 464.9479 490.1612 459.0839 471.9159 458.3273 465.4568 461.8583 458.3984 458.2012 458.2652 458.0751 457.3995 458.5164 451.2734 460.5341 442.6168 456.5618 442.2839 456.6248 428.8329 458.4534 424.3715 455.1115 424.2383 454.9854 424.0386 455.0485 420.9089 454.7332 417.2465 451.3283 412.0526 451.8958 411.8528 451.9589 405.7266 434.2408 398.8014 430.5207 397.4696 425.6025 398.868 424.5306 396.7371 423.6478 401.6647 412.9918 399.8668 405.6145 402.1308 402.2727 400.9322 396.3456 402.9299 391.6166 402.4638 385.5635 407.0584 379.7626 413.9171 381.3389 419.3773 379.5104 419.3773 379.4473 422.2407 374.2769 428.6332 369.7371 429.0993 369.3587 426.0362 367.8455 426.236 365.4494 426.3026 364.7558 426.6355 364.945 432.5619 358.6396 437.6227 357.6938 438.4883 358.0091 443.2161 365.9538 450.2079 361.6662 452.3388 355.4239 452.8049 355.55 462.1939 360.0899 461.7278 365.1972 466.1227 369.8632 460.9287 380.5823 461.1951 383.9241 466.9883 390.3556 472.5152 388.8423 477.0432 398.3634 480.5724 398.3003 478.8411 389.5359 483.7687 387.0768 484.035 383.3566 491.8925 380.8975 491.3598 378.8168 496.354 376.3577 502.1472 375.4749 503.8119 373.0158 509.7383 374.7183 511.6028 379.3842 518.3283 382.4739 518.3949 382.3478 518.3283 382.2847 519.66 377.6187 522.9229 378.3123 524.1881 374.4661 524.7208 374.403 536.3072 373.5203 540.236 368.6651 539.7033 364.2514 537.3727 360.8465 536.2407 360.0268 536.6402 359.7115 542.2336 355.6131 539.9696 352.019 545.9626 346.3442 547.0946 338.9669 551.4895 335.562 549.7582 332.4724 552.2886 324.906 548.6928 323.8341 548.7593 317.4026 547.0946 315.6371 547.028 315.6371 551.1565 306.2422 548.2932 295.2708 548.6928 284.1104 553.7535 280.3902 553.354 278.94 551.889 277.1114 551.6893 276.9223 550.0245 274.7154 554.486 270.743 552.6215 266.4554 559.7465 264.5638 561.0783 257.2496 572.465 254.4752 572.8645 254.3491 572.465 255.8624 575.3283 255.3579 577.7255 259.9609 585.5829 258.0062 591.1764 260.15 591.9755 258.6367 598.1682 265.6987 602.097 263.3657 606.2255 264.6899 605.8925 272.1302 605.0935 273.7065 604.0946 273.3282 603.0292 274.0848 603.1624 275.3459 604.2278 279.6336 604.4276 280.3271 604.9603 280.7055 609.1554 282.8493 609.9544 283.2907 608.4895 285.4975 608.09 286.065 603.4953 287.0108 612.618 289.2808 608.4229 293.3162 607.4907 299.3693 624.6706 311.3495 629.0654 307.6924 634.9252 306.6835 639.653 301.7653 643.4486 302.2067 645.0467 303.5939 641.1846 317.5918 652.1051 325.0952 655.2348 330.7069 663.2255 333.6704 672.3481 333.4182 676.4766 343.3176 683.4685 346.5334 685 349.3708 684.9334 349.4969 683.7348 350.9471 683.3353 351.0102 677.7418 357.946 676.1437 359.7746 665.889 358.5766 664.5572 359.1441 660.3621 360.9096 655.4346 363.0534 652.3715 365.7016 651.639 366.3952 651.1063 366.7735 647.3773 376.3577 647.0444 376.7991 638.7208 386.194 638.9871 386.4462 647.111 393.1299 647.111 393.193 643.9147 396.1565 643.3154 396.5348 635.8575 394.5801 635.8575 394.6432 634.8586 395.9043 633.7932 397.3545 633.7932 397.4176 633.7932 397.7959 634.1928 401.516 634.2593 401.9574 637.3224 404.6057 634.9918 407.0647 634.1928 412.5504 638.521 415.9553 637.5888 418.4144 644.0479 419.4863 646.9112 422.5759 641.5841 427.2419 640.9182 430.0162 644.1145 434.6191 641.9171 438.5915 644.1811 439.6634 635.3914 437.1413 633.7932 437.8979 632.9276 438.7176 633.1273 439.4743 634.6589 444.7077 634.6589 444.7708 625.0701 441.1767 623.7383 445.7166 620.6752 446.8515 623.139 451.0131 622.0736 453.7244 624.8703 455.1115 619.0771 464.1282 613.6168 463.6868 610.8867 467.5331 624.0713 474.5951 624.5374 477.0542 624.4708 476.9911 621.5409 476.6758 620.0759 481.0896 618.2114 480.9635 615.8808 478.3152 617.2126 473.1449 615.6811 472.199 604.0946 479.0088 601.5643 482.8551 602.1636 490.989 595.5047 501.8973 598.5678 512.1119 602.2301 513.1208 607.1577 520.3719 606.7582 527.6862 608.9556 529.3255 608.2897 529.9561 607.2909 530.9649 605.8259 532.4152 604.1612 531.7846 603.3621 532.0369 583.1857 525.7946 M 286 277.1114 286.0666 277.0484 286.5327 276.3548 286.7325 276.0395 288.5304 276.3548 290.528 280.138 289.396 281.2099 290.9942 281.6513 293.8575 276.607 290.528 266.2032 298.6519 258.5737 296.5876 256.1146 296.2547 250.0615 292.3259 246.3413 295.1893 242.1798 295.0561 237.8291 311.5701 234.9917 313.1016 233.9828 312.4357 229.8843 314.7664 231.0193 322.6238 223.9573 327.8843 222.0026 328.6834 216.9583 323.09 205.7979 324.6215 201.8255 327.9509 200.3753 327.0853 198.4837 336.4743 197.0334 344.8645 198.2314 352.2558 191.2325 361.8446 193.7546 361.9112 193.8177 371.6332 205.4826 372.8318 207.122 372.2325 219.4174 376.6273 223.0745 378.5584 223.5159 379.6904 224.2726 378.2255 227.9297 363.9755 241.8645 368.0374 244.7019 368.7699 254.5383 366.8388 263.3657 370.1682 266.6445 371.5666 277.0484 376.0946 276.2287 377.0269 278.94 384.285 280.3902 383.0864 292.3073 378.2255 291.2985 368.2371 301.324 369.9019 305.1072 364.7079 318.6006 370.5012 320.9967 373.2313 327.1129 369.9019 329.1306 370.3014 332.2202 366.9054 332.0941 367.7044 338.2103 365.5736 341.7413 365.507 341.9305 366.5724 342.1196 377.2932 346.0289 379.6904 340.6694 383.0864 342.8132 389.7453 341.6152 390.5444 344.8309 388.6133 348.6141 393.6075 350.821 398.0023 348.488 400.7991 343.759 405.7932 343.0024 411.0537 348.1727 415.1157 347.29 417.979 351.956 414.4498 355.9283 420.7091 358.5766 422.1075 362.2967 426.3026 364.7558 M 318.8283 1048.13 317.7629 1048.6975 317.9626 1054.1832 324.2886 1055.9487 331.2138 1061.6235 328.6834 1065.5328 321.0257 1065.4067 319.2278 1069.6313 320.7593 1071.712 312.8353 1074.2342 310.2383 1080.8548 293.8575 1094.6005 290.1951 1107.1481 272.6157 1108.5353 270.8178 1110.3639 273.215 1113.3904 260.8294 1115.7234 254.4369 1122.2179 246.9124 1125.4967 247.9112 1128.9646 243.3832 1139.3685 246.979 1145.6738 244.5818 1148.3221 244.5818 1155.8885 238.3224 1165.2835 238.7886 1179.5966 232.2629 1188.235 231.3972 1197.1255 222.8738 1195.6122 222.7407 1195.9275 221.7418 1200.2782 223.5397 1203.4309 220.743 1207.8446 220.743 1208.0338 221.2091 1210.619 222.2745 1210.0515 221.5421 1214.5283 221.4755 1214.5913 214.0841 1211.0603 196.9042 1211.5017 177.8598 1202.5481 163.9428 1211.817 162.3446 1213.9608 157.4171 1215.9785 151.0245 1215.411 149.0269 1214.5913 145.2313 1204.1875 145.5643 1191.1354 141.9685 1173.8588 139.3049 1166.8598 140.0374 1165.9771 136.1086 1158.5998 137.3738 1149.7093 141.8353 1145.4847 141.8353 1143.3408 M 361.9112 193.8177 362.1776 193.6285 364.5748 192.1783 365.0409 188.269 369.236 186.1252 369.0362 182.5942 365.9065 181.9006 367.771 173.4514 366.0397 169.9835 370.368 166.3264 371.6998 161.9757 375.2956 160.2732 376.4942 153.3373 375.0958 150.8152 369.7021 149.3019 366.2395 144.1946 360.7126 145.3295 358.0491 137.0695 350.5245 138.1414 348.9264 141.2311 342.6671 139.2764 342.4007 139.2133 342.8002 135.1149 344.465 134.8626 343.0666 131.9622 340.0035 134.4843 338.139 132.5927 335.4755 134.043 335.4089 133.9799 335.3423 133.9799 333.7442 132.2144 334.41 127.7376 329.5491 123.8283 330.0818 117.4599 324.0888 112.2264 322.9568 111.1545 322.0911 111.0284 314.3002 115.0638 306.7091 115.4422 303.7126 114.6225 301.5152 108.0649 291.7266 107.9388 289.5292 104.1556 280.4065 113.2983 272.6157 111.9742 273.2815 114.8747 269.7523 120.9909 266.4895 120.9909 263.493 115.1269 263.2266 106.9299 258.2325 107.2452 256.7675 101.129 259.2979 99.0482 263.5596 99.2374 264.0923 86.1853 271.8832 86.1853 271.9498 82.5282 277.41 80.8258 279.7407 74.9618 276.3446 71.4938 277.0105 68.8456 269.8855 65.5668 271.0841 59.892 270.0853 57.559 268.0876 53.2083 263.4264 52.7039 262.028 48.3532 265.4241 46.2094 261.9614 43.5611 262.028 43.4981 263.16 39.841 274.347 35.7425 278.0759 39.3365 278.6752 43.5611 281.9381 44.0025 281.9381 48.101 286.6659 48.9207 285.4007 52.1995 301.715 58.2526 303.4463 58.3157 305.91 57.3068 312.7687 53.2714 316.2313 53.0192 316.8972 52.767 323.09 46.2094 330.0818 49.8034 339.6706 47.9749 346.6624 51.8211 345.7301 54.7847 353.9206 56.6763 371.1671 56.361 372.965 52.8931 378.4918 49.6773 378.8914 50.497 379.6238 51.9473 377.9591 54.4063 381.5549 55.9827 382.6869 58.5679 388.2804 55.7305 402.5304 59.3245 410.1215 57.559 413.8505 59.8289 427.7675 57.559 433.8271 62.7294 433.9603 62.7294 433.9603 63.2338 434.6928 66.5757 436.4241 67.7106 440.0199 68.2151 443.5491 68.6564 443.7488 68.7195 444.7477 70.2328 453.4042 83.1588 453.8703 83.7893 454.2033 86.4375 448.6764 93.2473 450.0748 108.8846 451.9393 110.7131 461.5946 117.3968 463.9252 125.5307 463.1928 139.6547 468.1203 142.4921 482.104 145.4556 483.7021 155.4812 481.771 156.8683 481.3049 162.0387 486.6986 163.9934 472.1157 166.6416 465.9229 173.9558 460.5958 186.5665 455.4019 185.873 449.0759 189.0887 451.007 194.7005 450.4077 197.5379 447.611 199.1773 450.9404 201.6994 449.2757 203.7802 452.6717 206.7437 452.6051 207.6264 454.0035 209.1397 454.736 209.0767 454.4696 209.7072 453.6706 212.1663 453.2044 213.5535 453.0047 213.6165 450.0082 214.3732 451.007 217.1475 448.41 221.1199 447.5444 219.3544 446.6121 218.5347 425.7699 220.048 418.1787 218.5977 417.1799 215.7603 412.1192 213.6796 404.528 215.2559 400.9322 220.048 392.6752 221.3721 387.9474 225.5967 379.6904 224.2726 M 609.1554 282.8493 610.6203 282.3449 610.6203 282.2818 609.222 279.4444 612.9509 278.6878 614.0164 276.2287 614.0829 276.2287 627.8002 279.2552 627.7336 276.8592 636.3902 272.1302 653.2371 279.1291 654.0362 279.4444 655.7009 281.7774 659.3633 285.6236 660.5619 284.4887 663.2921 277.4897 663.2255 277.4267 651.4393 269.0406 651.7056 266.014 656.7664 262.0416 654.9685 259.7717 657.0993 256.619 654.7021 247.0349 651.3727 247.161 650.3738 244.0714 644.9136 242.7472 644.9801 238.8379 641.7173 238.6488 639.986 234.7394 633.0607 230.1365 627.4007 222.9484 627.4007 222.8854 628.9322 216.6431 635.9907 207.6264 631.396 202.3299 626.6016 201.258 626.6682 201.195 631.5958 193.4394 633.4603 190.5389 635.3248 190.0975 637.9883 187.7646 638.4544 186.0621 637.8551 183.6661 636.59 181.27 637.1893 181.0809 639.986 180.072 641.118 176.3519 641.118 176.2888 646.2453 176.9194 646.3785 176.9194 650.6402 171.4968 653.5701 170.4879 657.4322 169.6682 665.2231 170.4248 664.8236 172.8209 667.2208 173.1992 667.5537 173.2623 669.5514 172.5056 670.1507 168.7224 674.3458 166.8308 680.4054 170.3618 682.5362 165.3806 689.4614 166.8938 699.3832 172.8839 700.715 177.4868 708.639 181.3962 708.5724 184.738 712.035 184.0444 712.035 182.9094 716.4965 180.5134 716.5631 177.0455 721.757 177.2977 722.6227 177.9282 725.0199 177.4238 726.6846 177.5499 730.1472 180.7656 730.1472 181.4592 730.014 184.9272 734.9416 191.863 740.7348 192.0522 748.4591 197.664 746.861 206.5545 751.5222 220.3002 757.0491 217.5889 756.5164 211.788 758.514 208.4461 761.5771 209.6441 761.3107 212.4815 764.9065 217.778 769.4346 216.8953 771.4988 219.0391 776.0935 215.0037 777.3586 220.4263 785.882 217.1475 794.8049 217.715 795.1379 218.5977 799 227.6774 795.271 231.7129 796.4696 234.172 795.7371 236.0636 794.5386 239.2793 794.4054 239.5946 794.2722 239.5946 787.4136 240.162 785.1495 242.3059 783.3516 252.0161 780.0888 253.2141 778.8236 257.2496 779.2897 257.3757 778.5572 258.1954 778.4241 258.6367 778.1577 258.6367 772.764 258.3845 767.4369 263.681 768.5689 272.9499 765.1063 277.6789 761.2442 277.805 752.1215 283.5429 738.9369 283.2907 732.9439 291.4246 727.4836 292.1812 724.6203 295.7753 724.4871 303.3417 725.0864 304.5397 724.4871 304.3505 722.2231 303.8461 718.1612 306.9988 718.2944 307.251 718.4942 307.8815 718.9603 309.3948 731.8785 315.7632 731.8785 321.6903 725.3528 329.572 724.8201 334.5532 708.0397 337.0753 701.7138 341.2999 696.653 339.9758 691.6589 343.5698 688.5292 345.7767 688.4626 345.8398 688.7956 346.9747 689.3949 349.5599 686.5981 350.3166 686.132 350.3796 684.9334 349.4969 M 448.41 221.1199 445.8797 221.8765 448.3435 223.5159 448.3435 230.0735 452.2056 233.2892 448.6764 233.4784 447.4112 239.2162 446.3458 239.6576 445.7465 241.3601 448.0105 246.4043 453.271 245.8999 463.3925 250.3767 475.2453 245.6477 483.9019 252.5836 485.8995 254.1599 485.8329 254.1599 485.2336 255.7993 485.3668 255.9254 485.5 256.0515 498.0853 262.8613 498.1519 262.8613 506.4089 262.4199 519.1273 275.5351 528.5829 277.9942 533.111 283.1646 542.9661 277.3006 551.6893 276.9223 M 433.9603 62.7294 439.021 62.9816 440.2862 62.0358 444.215 61.6575 440.6857 55.6044 451.4065 55.7305 460.3294 52.5778 462.5935 48.4793 465.1904 49.236 466.722 46.0202 463.5923 42.237 465.3902 39.1474 469.785 38.643 471.4498 36.9405 471.9159 38.0124 471.3832 39.6518 473.7138 42.3631 479.4404 42.174 481.1051 44.2547 486.4988 45.0114 488.5631 56.4241 495.3551 56.8024 500.6822 66.1343 504.1449 60.2073 514.3329 59.5767 514.7991 61.027 511.736 62.7294 512.9346 64.8732 529.382 66.0712 530.3143 61.4053 532.9778 59.1984 535.6414 60.0181 537.3061 63.9274 544.6308 63.2338 542.8995 65.6299 543.632 68.5303 546.1624 69.35 548.3598 73.4485 555.9509 77.2317 561.9439 78.5558 570.1343 74.7096 570.9334 79.1864 568.5362 81.8977 570.8002 87.8878 569.3353 95.9586 571.1998 96.5261 569.0023 99.2374 571 100.8768 569.1355 106.6147 574.4626 105.6689 574.1963 102.5162 584.1846 102.6423 582.2535 107.7496 576.0607 109.5151 576.3937 114.5594 588.8458 115.3161 594.5058 112.9831 596.3037 114.6225 594.7056 117.3968 589.1121 116.7663 588.646 119.982 590.2442 123.6391 597.5689 123.3239 601.0981 132.8449 600.5654 134.9888 597.8353 134.7365 596.2371 132.1513 589.0456 131.0794 589.3785 136.439 594.2395 137.2587 593.3072 141.7355 589.4451 138.835 588.4463 141.168 575.9276 136.439 575.0619 136.1237 570.6005 140.8527 570.4007 141.1049 570.2675 141.168 569.6016 151.761 571.7325 155.9856 570.8668 162.2279 568.5362 161.7865 570.6005 166.4525 577.7921 169.1638 577.9252 169.2268 577.1928 171.3706 571.8657 170.9293 567.4708 174.2711 564.4743 171.812 564.7407 169.1638 562.0105 172.3164 557.0164 172.5056 556.0841 179.6307 561.1449 181.7745 559.1472 183.2247 561.278 184.8641 559.6799 192.7458 555.1519 192.8088 552.8213 187.1971 549.8914 188.8995 535.7745 189.3409 536.5736 194.4482 532.8446 195.6463 530.2477 199.9969 525.4533 200.6905 522.1238 195.2679 519.1939 196.6551 515.6647 191.4847 504.278 192.6827 502.014 200.8166 510.2044 200.5644 515.0654 198.0423 515.9977 204.5999 511.0035 206.6176 511.0701 208.7614 508.0736 207.8156 497.9521 210.716 498.4848 213.049 502.0806 213.3012 502.0806 215.9495 502.0806 216.0756 496.2208 225.0923 491.7593 224.84 490.6273 226.6055 491.16 235.5591 489.8283 238.5857 485.6998 237.766 486.6986 239.9729 483.5023 243.7561 485.2336 245.8999 483.9019 252.5836 M 577.7921 169.1638 577.9918 168.281 581.2547 168.7854 593.9065 179.1893 598.5678 180.4504 601.2979 172.2534 598.368 171.3076 604.5607 165.948 600.632 163.3628 606.0257 161.7865 612.4182 164.75 622.2068 163.9934 622.7395 165.885 630.597 166.6416 629.7979 168.5332 633.1939 171.0554 632.6612 174.9647 635.3914 174.2711 637.1893 181.0809 M 471.4498 36.9405 472.5818 35.8055 482.8364 36.8144 483.236 34.0401 488.8294 32.842 489.8949 32.0223 492.3586 28.7436 493.8902 28.7436 494.3563 28.6805 494.4229 29.1219 498.1519 29.5633 508.34 38.8952 516.4638 42.1109 520.4591 46.0833 538.5047 44.6961 543.3657 45.3897 547.4276 46.0202 548.0269 46.0833 557.6822 43.4981 561.1449 39.2104 570.4673 36.4991 573.4638 23.9515 577.1262 21.9338 577.1262 19.1594 584.1846 17.8983 584.7173 11.8452 592.3084 1 593.3738 1.6936 593.9731 1.7566 605.0269 2.135 608.6893 5.9182 613.4836 4.8463 617.2792 13.1693 629.6647 16.1328 631.1963 19.2225 629.5981 25.0864 635.7243 33.4095 636.9229 40.9759 643.1157 43.2459 640.3189 47.9118 657.2991 50.3709 658.2313 54.5324 666.0888 55.8566 669.2185 65.3146 672.3481 67.4584 673.9463 75.3401 669.4848 81.7716 676.8096 88.3922 675.0783 90.8513 679.5397 94.067 679.5397 96.4 684.4673 97.9133 685.7325 100.6876 687.264 99.0482 710.7699 104.2817 709.7044 94.3823 725.9521 91.671 725.6857 92.0493 724.6869 93.3734 728.5491 98.2916 728.1495 108.7585 725.6192 116.8293 717.229 123.8913 719.2266 132.4666 715.5643 139.5917 717.6285 143.3749 724.0876 145.3926 727.2173 140.9788 732.1449 141.6094 732.611 141.6724 733.1437 145.897 737.0724 149.5541 737.139 149.6172 737.0058 149.8063 735.4743 156.427 735.7407 157.1205 733.0771 166.1372 734.9416 174.0819 730.1472 180.7656"/>
</g>
</svg>