<?xml version="1.0"?>
<svg xmlns="http://www.w3.org/2000/svg" version="1.2" baseProfile="tiny" width="800" height="576" viewBox="0 0 800 576" stroke-linecap="round" stroke-linejoin="round">
<g id="GJ" fill="none" stroke="black" stroke-width="1">
<path d="M 610.8132 553.1499 612.267 549.9156 609.594 548.7546 608.4685 550.9937 610.8132 553.1499 M 430.5985 477.2687 430.8799 477.3931 430.0358 477.3102 430.5985 477.2687 M 429.051 476.2321 429.8951 477.1858 428.0662 477.3102 429.051 476.2321 M 446.0736 453.0116 444.1979 454.2141 443.6351 453.4262 444.8075 452.9701 443.6351 452.3067 445.3702 450.731 445.9798 451.4774 446.0736 453.0116 M 347.7832 416.5637 345.0633 414.1587 349.1432 412.7489 349.1432 413.7441 349.1432 413.9514 347.7832 416.5637 M 338.4981 381.9403 336.4817 382.4379 335.5438 384.8014 332.1674 385.1331 332.1674 385.0502 331.3233 381.9818 333.8556 380.6964 336.4817 382.4379 M 339.3891 368.4641 335.028 371.4911 335.028 367.6348 336.0596 365.2299 336.2941 365.1055 336.9506 365.8518 339.3891 368.4641 M 413.3883 342.6314 413.2007 343.7095 413.7166 344.7461 414.842 346.3632 420.3287 346.2803 422.6734 349.1829 421.8762 353.1635 417.4212 351.2976 416.3427 354.8636 421.0321 356.3563 420.2818 358.7613 421.7355 359.5077 421.2666 361.9541 423.0954 365.2299 426.7532 364.8152 428.8634 367.7592 431.8178 368.4227 433.6466 371.8228 438.9926 374.0205 439.5553 374.2693 439.0864 375.0571 438.0547 376.923 438.0547 379.2451 438.0547 382.8526 441.9938 384.2624 442.1814 386.1698 433.9749 386.7503 434.1156 392.3066 432.5681 395.375 427.0346 397.1166 424.0802 405.0779 425.8153 407.5658 429.8951 407.4829 430.9737 409.8464 441.1497 410.0952 440.7746 414.6978 441.3842 416.6052 443.0724 416.6466 443.0255 423.1152 442.5097 424.3177 437.6796 425.8934 435.0066 429.4179 430.833 429.0447 430.2703 436.7572 429.051 438.0841 430.0358 442.0233 429.0979 443.4331 432.5681 443.2673 433.6466 445.382 438.1016 447.0821 439.6022 448.5748 440.3994 449.3627 442.1814 451.1457 442.4628 453.0116 442.8848 455.6654 442.9317 456.1629 442.7441 456.2044 440.3525 456.5776 440.587 458.4021 444.0103 457.9045 444.3854 461.6778 447.5742 461.3461 448.9811 465.7414 445.5109 465.6999 442.9786 467.2756 443.0255 469.1001 440.6808 468.3122 440.7746 469.3489 436.7886 471.0075 430.5047 472.4173 433.928 469.0171 428.2538 472.2099 424.3147 476.8955 423.9395 479.0517 418.9687 481.6225 414.0448 482.0372 411.9815 480.8762 411.0436 481.7055 412.3566 483.1153 404.3846 484.4007 389.9881 490.8278 389.7536 490.9107 389.9412 490.7449 392.2859 488.174 392.239 488.0496 389.8943 481.042 386.7055 480.1713 388.4875 477.5175 386.5179 475.4028 389.9881 474.4076 391.7701 470.6343 388.4875 467.8976 387.7371 469.3074 382.2036 471.505 379.6713 469.8464 380.703 464.456 382.8601 461.3046 381.1251 456.8264 376.2949 454.4214 373.8095 450.6895 367.1037 447.165 364.9934 444.4698 357.9593 444.138 350.8782 442.0648 346.0481 444.3039 346.0012 444.3454 345.7199 444.0136 344.0317 441.7331 340.5146 437.0475 339.7643 436.0523 339.905 435.845 342.3904 432.5693 350.5969 431.6985 352.8009 427.8008 357.2559 426.2666 354.4891 421.6639 351.863 424.4421 347.7832 425.3543 348.6273 423.0323 347.5487 418.1394 352.4258 415.1539 352.4726 416.9369 353.9733 417.3101 357.6779 415.7759 357.7248 412.8733 355.7084 411.8367 354.7236 407.3999 351.863 407.6902 349.9404 409.8049 347.5956 406.9438 343.2345 408.1463 343.4689 403.4193 340.5146 403.8754 339.8581 400.8899 344.1724 401.4704 345.3916 398.8581 350.2217 399.2728 351.1127 398.3605 347.3143 390.3577 342.8124 385.8795 340.5615 385.3405 338.4981 381.9403 338.4981 381.733 338.8733 381.6086 338.7326 378.0841 340.327 376.2181 336.2003 377.7109 335.1687 376.4255 337.4196 375.223 336.5286 373.8546 339.3422 372.4448 341.5463 373.7302 341.1242 372.196 343.7034 372.0716 349.2369 373.7302 351.441 368.9203 354.3953 369.7496 355.5208 371.8228 359.835 371.4082 361.5701 374.4766 367.1506 373.2741 367.5726 372.9424 370.1987 370.7447 369.4953 369.1276 370.8083 366.308 369.2139 364.3591 370.1987 362.12 374.935 362.4517 377.9831 358.8028 377.4204 356.2734 371.4648 359.093 368.0884 355.9417 372.2151 354.5319 371.2773 352.1269 378.6865 350.3439 380.3278 346.7779 382.7195 347.0267 384.689 344.7875 386.6586 345.2022 389.3784 343.7509 389.144 339.9361 388.0654 338.9824 388.3468 338.7336 395.7092 338.8166 395.8968 343.668 396.694 344.7461 397.116 345.3681 397.2098 345.4925 401.0551 344.9119 400.3986 343.9168 401.7116 343.2533 398.9918 337.7799 402.1806 335.0018 405.6508 336.2872 407.339 342.424 412.0284 341.5947 413.3883 342.6314 M 715.3406 464.1657 715.7158 461.7607 720.5928 465.3267 720.5459 465.4926 720.2176 465.2853 719.9362 466.7365 717.6853 466.6122 715.3406 464.1657 M 725.2353 473.7442 725.5167 473.6198 730.1592 479.2176 729.8778 483.8617 732.1288 485.23 732.457 487.2618 730.9564 489.2107 730.9564 495.2231 732.1288 495.4719 732.2225 497.4622 729.0806 499.6599 723.7347 499.0794 721.3431 503.7649 718.9046 502.521 715.9502 503.7649 716.6067 506.2943 718.2949 505.8796 719.3266 507.9114 719.2328 512.7214 714.262 515.4581 711.4953 515.1678 707.5093 519.6875 701.3661 517.9875 698.1304 519.8949 695.9733 519.729 692.8782 517.2826 692.2217 513.5092 689.3612 510.6896 685.6096 508.8237 683.3118 509.2383 679.5134 505.4235 676.3715 508.5749 674.4019 506.2528 675.7149 504.4698 672.8544 498.2501 672.8544 497.6281 674.9646 496.2183 675.6211 495.928 675.5742 495.7622 674.6833 490.7034 676.4652 487.8838 677.5438 484.8154 675.9025 482.5762 676.8404 480.5859 675.4336 478.8444 675.6211 476.0247 678.4817 473.3295 680.6857 473.4539 679.4196 471.8782 681.6236 471.3806 682.796 464.456 685.0469 463.9584 688.3295 465.3267 687.5792 469.0171 688.9391 470.3855 691.0963 467.6073 690.768 466.1975 694.1913 468.3537 696.958 464.2901 708.5409 464.4974 713.1835 467.2756 714.1213 470.4269 722.8437 472.2514 723.9223 474.2832 725.1884 474.0759 725.2353 473.7442 M 706.5714 455.2922 711.9642 457.1996 715.3875 454.6702 715.622 456.08 715.7626 457.9874 713.8869 459.7289 714.5434 461.5949 709.854 463.834 709.7133 463.8755 709.9009 463.3364 710.4636 461.5119 710.4636 461.3875 706.7121 460.1021 706.5714 455.2922 M 684.8593 298.9686 684.8124 299.1344 682.4677 298.8027 682.3739 306.2664 682.3739 306.4323 674.5426 312.8179 677.5907 315.2644 676.4652 319.3279 677.6845 322.1061 679.2789 322.1061 677.0749 326.1697 674.2612 327.6624 674.1674 328.0771 675.1053 330.9382 675.3867 331.3114 678.7162 328.6991 681.9988 328.782 680.9671 331.2699 682.327 332.0992 681.905 332.1821 680.5919 332.4724 680.7326 333.592 680.7795 333.8822 679.6541 333.1358 678.7162 335.4579 678.6693 335.4994 676.9342 335.2506 676.3246 338.0287 678.7162 341.4289 677.4031 344.8705 672.151 342.7143 670.5566 343.3363 669.2435 349.3902 666.9926 351.0488 666.4768 351.422 666.0078 351.2146 661.4591 349.017 659.7709 349.1414 659.1613 349.1414 657.4731 350.9244 657.0979 355.4856 657.0979 355.7758 653.8622 354.6563 652.4085 354.2831 652.174 354.0757 646.5467 348.2706 642.9358 350.3024 642.1855 350.7171 642.2324 351.5049 642.3262 352.3757 642.42 353.4123 645.4212 357.6003 645.3743 358.3052 645.0461 359.176 643.2641 360.959 641.0601 362.1614 640.4035 362.2858 630.0868 355.527 625.8194 356.1905 621.8334 354.9465 622.2555 351.2561 625.3036 350.5097 625.7256 349.017 621.0362 349.9292 620.3328 348.3121 618.8791 350.2609 614.4241 351.3805 613.6269 349.3487 614.6586 348.2706 620.4266 347.773 620.5204 343.2119 622.912 342.2167 622.3023 338.1531 617.6598 340.7654 613.0642 336.7433 611.798 333.6334 609.4533 334.4213 606.9679 333.509 605.8893 335.0018 603.5915 334.3383 604.6701 332.6383 602.513 331.6846 601.622 328.3259 599.9807 328.5332 598.3863 326.1697 599.371 325.3404 597.2608 320.8207 600.1213 318.706 600.6841 320.1987 605.2328 319.0792 605.2328 316.9644 603.7791 316.1351 599.7931 318.3328 599.0428 314.4765 597.8704 313.3984 597.5422 312.5277 603.5446 310.1227 606.03 303.9029 607.812 303.6127 607.9996 303.6127 608.3747 307.3031 611.2353 308.4226 615.5496 306.7225 621.8334 301.0004 620.239 294.8635 623.5216 290.5511 622.5368 286.6534 626.1008 283.2533 625.8663 276.4115 631.3529 274.6285 633.9321 266.5843 641.9042 262.3134 641.7166 261.6085 641.9042 261.9402 648.0942 256.8814 645.8902 250.247 646.6405 244.1102 646.6874 243.9443 648.4225 242.6589 648.7976 242.3272 648.8445 242.3272 657.2386 241.2491 658.2234 241.1247 662.0218 245.4371 661.5998 240.0051 662.3501 240.8344 662.4907 238.7197 665.023 238.5538 665.023 238.5124 664.9292 240.9588 667.274 241.954 667.3677 242.6174 667.7898 244.8565 662.4907 247.4274 662.3032 250.2055 663.3348 254.2277 664.7886 253.8959 666.5237 257.5449 664.4603 258.0839 664.0852 259.7425 660.4274 259.2035 659.724 261.7329 662.4439 261.8158 662.9597 263.2671 663.0535 263.4744 660.9432 270.6479 667.0864 271.8504 665.0699 276.8262 667.8367 279.4799 666.8988 286.6534 670.1345 287.0266 669.1497 290.1779 671.682 292.5415 673.464 292.4585 672.4792 295.1538 677.1687 296.2733 678.5286 296.605 681.2016 297.1856 685.2345 298.1393 684.8593 298.9686 M 652.4085 354.2831 652.9712 358.8028 651.8457 361.7883 653.0181 362.4517 655.5504 360.876 656.4414 363.9444 658.9268 363.9444 661.2246 367.6763 663.8507 368.2568 663.71 370.2057 665.6327 371.5326 663.8507 375.5962 665.3044 376.5499 668.3994 375.4718 669.3842 376.5499 673.0889 375.0986 675.3867 377.2133 676.8404 379.9915 676.8873 380.0744 676.9342 380.1159 673.7923 382.8526 675.1522 385.3819 674.7302 388.865 673.2764 389.1138 673.6047 391.0212 670.0407 395.2921 669.8531 396.5775 671.0255 399.2313 670.8379 399.3142 664.3196 401.6363 657.6606 399.9777 654.9877 404.5388 653.065 401.7607 648.5162 401.3875 645.7026 403.5022 638.0119 401.8851 635.8548 403.3363 632.1032 402.9632 629.3365 404.7876 627.32 401.7607 624.1312 402.0509 623.8499 396.2873 621.3645 394.1311 620.3797 395.997 620.4735 397.4898 618.9729 398.5678 621.4582 402.3826 621.2707 404.7047 617.6598 404.912 616.4875 402.8802 617.0033 400.1021 612.689 397.5727 612.3608 399.8947 607.0617 401.1801 608.5154 404.7462 604.8108 406.5706 602.7474 411.505 600.3558 409.639 597.9173 411.0489 599.1366 409.4317 598.2925 408.2292 597.8704 409.722 595.7602 408.5609 592.29 411.9611 588.0695 412.5001 587.835 412.5416 587.7882 410.261 587.5068 408.0634 584.5524 409.1415 581.3167 405.9072 576.1115 406.8609 574.4233 408.7268 570.7655 408.5609 577.6121 399.3557 581.4574 397.8629 576.5804 398.5264 574.9391 397.1995 572.4537 397.78 571.7503 396.619 568.796 398.3191 566.5919 396.3702 565.7009 392.5554 568.4208 388.326 576.9087 384.5526 580.754 385.5478 587.6944 384.8843 590.3204 382.9769 580.332 379.4939 567.3422 379.95 558.4792 382.5208 555.3373 380.4476 557.26 373.5229 564.0128 371.5326 561.668 368.4227 565.6541 366.5982 563.8252 364.6908 567.1547 364.0274 568.3739 350.6756 569.7339 347.4828 572.7351 345.7827 569.1242 345.1193 563.7314 348.7682 562.1839 350.4268 562.2308 353.9099 560.5895 354.7806 553.7429 354.5319 552.9926 347.1925 557.3538 324.055 560.2143 317.4205 565.0444 313.5643 570.3904 313.2326 577.19 317.2132 583.427 318.5401 590.508 312.2374 595.7133 311.4081 597.8704 313.3984 M 216.0572 362.4932 215.3069 369.9984 216.5261 372.4448 218.4488 372.2375 220.2777 373.6888 222.6224 372.9424 222.5286 367.6763 224.4981 369.2105 238.2382 364.2347 240.5829 364.6079 240.2077 370.9106 241.7084 371.9887 241.7084 376.0523 242.2242 376.3011 244.1937 377.2962 245.2723 377.8353 245.7413 377.2962 249.0708 373.6473 248.508 372.9424 249.6804 373.1082 250.3369 377.3377 253.9478 376.8816 256.9959 379.3695 257.6993 381.6915 257.84 382.2306 256.1049 382.272 254.3698 380.1573 254.276 380.2402 252.1189 382.355 252.8692 384.5941 250.5714 384.055 246.304 385.5893 246.4916 386.8332 244.0531 388.6577 247.8046 388.9479 248.086 392.0993 245.1785 391.892 245.1316 390.5236 243.5372 391.1041 243.0683 389.9846 238.0506 392.8042 237.4879 389.9431 234.768 391.27 239.5512 397.2824 236.972 398.8996 238.754 405.9486 244.3344 405.8242 245.6944 409.5976 243.0214 410.9245 241.849 409.6805 236.9251 410.8415 237.6285 412.2928 234.2522 413.4538 233.9708 413.5368 234.3459 413.7856 234.4866 414.4905 232.2357 415.5686 232.4702 417.8077 231.9074 418.637 232.7515 420.2541 233.0798 420.8346 233.877 422.3274 236.55 423.2396 236.2686 428.3398 238.754 427.9252 240.8174 430.496 242.6931 430.2058 236.972 436.7572 202.6923 398.3605 204.4743 397.8215 202.4578 398.1117 189.5619 385.5893 185.0132 383.8063 160.675 361.5395 163.7232 354.2001 164.1921 353.7026 167.9436 355.2368 170.1477 358.5125 175.0716 358.2637 175.2592 358.2223 175.0247 353.0391 176.666 353.2879 177.2287 352.1269 180.9803 353.3708 181.0271 353.2879 181.1209 353.2879 183.1374 348.5194 184.216 347.6901 190.6405 346.612 192.6569 350.1366 196.0333 349.6804 196.2678 349.6804 195.4237 345.6998 199.8787 345.2437 200.4883 342.7558 204.1929 343.5021 204.8494 347.9804 202.5985 348.395 200.2538 351.1732 199.4566 349.1414 197.5339 349.4316 198.2374 352.2098 196.2209 356.5222 193.4541 355.7758 190.3591 357.1856 191.2501 364.8152 193.1728 364.5664 192.9852 361.5395 195.0485 360.2955 196.2678 360.4614 197.2995 363.6957 199.7849 362.3688 203.1613 365.9348 206.6314 360.876 209.492 362.3688 215.2131 362.1614 216.0103 362.4517 216.0572 362.4932 M 680.7795 333.8822 682.5615 334.2554 684.8124 332.5553 685.0938 332.7212 686.4068 333.4676 686.4537 333.509 688.3295 331.8919 690.5804 329.9845 691.2838 331.4358 693.3003 330.2747 693.2534 331.8504 695.5043 331.187 697.0049 334.8359 700.0062 333.7993 698.1773 338.3604 699.3965 340.102 700.7096 338.7751 700.5689 341.8021 702.9136 339.2312 702.5385 343.1289 705.5397 342.507 707.9782 344.9119 710.7919 344.2485 713.1835 348.8097 714.3558 346.6535 715.4813 347.6901 715.0123 348.8097 714.9186 349.017 721.3431 346.1559 722.9844 349.6804 725.6104 349.4316 729.2682 353.3708 731.9881 356.3149 730.6281 357.1442 723.3595 360.0882 716.513 360.1297 713.8869 362.1614 715.4344 363.9859 717.826 363.9444 717.8729 366.1421 719.1859 366.5568 718.0605 366.9714 718.717 368.3398 717.4508 370.0813 724.8132 376.1767 726.267 380.7378 725.4698 383.5989 723.6878 384.3038 720.9679 384.4697 719.2797 386.0868 716.2316 384.7185 711.9642 386.7088 714.1682 389.6528 716.1847 390.1504 718.8108 400.185 720.9679 403.0046 723.1251 402.6314 722.5154 401.2216 726.0325 401.5948 727.6269 399.6459 733.4418 401.1387 734.0983 397.6141 735.2238 400.0191 737.2402 399.9362 737.2402 399.9777 736.021 404.0412 736.0679 404.0827 736.0679 404.1656 738.1312 405.0779 735.8803 407.5243 724.6726 408.8927 716.7943 415.071 714.7779 413.7856 713.0428 413.8685 710.4167 413.9514 705.7742 414.1587 701.7882 415.3612 700.6627 409.4317 698.9745 406.156 698.8338 406.1145 695.9733 405.2023 695.8326 405.2437 690.2991 406.1974 689.455 404.6632 689.1736 404.7462 683.8276 405.9072 676.2308 404.5388 675.4336 400.807 672.9951 401.7192 671.0255 399.2313 M 701.7882 415.3612 701.835 415.693 697.5677 417.4345 694.1444 417.6833 688.1419 419.5492 681.3422 419.176 681.2485 419.176 680.0292 421.4566 678.3879 420.5858 678.2003 417.8906 671.26 417.2686 668.4463 426.0178 670.369 426.8056 669.7125 431.7814 665.9609 430.496 660.0522 431.6156 661.3184 437.089 650.4858 440.6964 650.0169 445.7137 646.1715 449.9846 642.3262 448.5333 642.7951 450.6066 645.3274 450.9383 646.0777 453.675 639.2312 455.5824 640.9663 460.4338 639.9815 462.8803 644.4833 466.3634 640.638 470.5928 646.3122 471.8368 646.9687 474.9466 650.4858 473.7027 653.8622 477.476 654.0029 480.2957 653.6746 480.3371 653.3464 480.3786 652.2678 483.6129 653.5339 485.1056 652.2678 485.6447 651.9395 488.0082 651.9395 488.174 646.1246 487.8008 644.9054 486.2252 645.3743 484.1934 638.856 482.7836 635.9486 477.9736 635.6672 477.7663 634.4949 477.5175 630.1337 478.098 630.1337 474.9466 625.9601 473.1636 625.4443 469.3903 622.5368 468.4366 617.566 462.7144 615.4558 462.4656 616.7219 458.0289 613.6269 455.3336 613.8145 457.7801 609.9691 457.9874 610.6257 456.6605 609.6409 455.9971 609.7347 457.0337 608.4216 456.5776 605.1859 458.7752 605.4204 459.9363 605.2328 459.9777 603.4039 460.0192 602.8881 460.0607 600.9186 457.4898 600.4027 459.2728 598.2925 458.2362 596.5105 459.024 597.0263 460.5997 595.0568 459.3972 593.8844 461.0144 593.3217 458.3191 591.1645 458.3191 588.4916 456.08 586.2875 457.4898 583.1925 457.5313 576.768 457.5728 575.9239 455.458 577.1432 453.3018 572.5006 452.8043 570.3904 455.8727 566.9671 452.8457 569.1242 438.872 571.5627 437.1719 567.1547 434.9328 564.1534 425.6031 567.0609 424.6909 567.8112 422.5762 571.1407 421.9542 570.9062 417.2272 576.0646 407.5243 581.3167 405.9072 M 720.5459 465.4926 723.0782 467.1097 727.1111 467.4829 727.9083 470.3026 725.9856 470.8001 725.2353 473.7442 M 676.4652 487.8838 675.9963 487.9667 669.7125 489.2107 663.9445 486.8471 662.0687 487.2203 661.9749 487.2618 658.2234 484.1934 658.1296 482.825 656.0193 482.7836 654.0029 480.2957 M 737.2402 399.9362 736.2086 397.4068 739.2098 397.9044 740.1008 396.0385 744.1806 396.4117 744.8371 397.4483 746.2908 395.4165 748.4949 396.7434 752.3402 395.7067 753.6063 396.7019 754.3566 395.7067 756.5607 396.9507 760.0777 394.1311 761.4377 394.1311 763.8762 398.7337 768.0967 395.9555 768.9877 397.8215 772.4109 397.7385 774.0053 395.0018 776.9128 394.1725 777.3348 396.2043 780.7581 396.1214 779.5389 402.9217 777.4755 402.7973 777.4755 404.2486 771.4262 405.6584 771.1448 406.7779 768.9408 406.7779 768.7532 404.9535 766.2209 405.0364 765.6113 407.4829 762.9383 407.9804 762.2349 406.6121 759.6088 406.6535 756.4669 408.2292 755.107 406.9023 752.0588 409.2659 748.4949 408.1048 747.3694 405.9072 745.1654 409.4732 745.0247 412.8319 739.7725 412.5831 734.3797 415.8173 731.8005 414.6149 733.0666 421.3737 732.2225 427.8422 724.3912 432.0302 717.2633 431.4082 717.9667 435.2645 715.9033 436.3841 715.7626 439.3281 716.3723 440.6135 717.6853 440.2403 717.6853 441.8989 716.4192 443.5161 712.5269 442.2721 710.9794 444.6771 706.9465 443.8893 705.4928 445.0503 706.0555 447.4967 704.2735 447.787 702.1164 446.0454 697.8959 445.921 693.7223 447.6626 693.0658 445.921 690.3928 445.382 690.2522 442.8941 686.5944 443.9307 686.7351 446.4601 689.2674 445.7137 691.6121 447.4553 691.7059 450.4822 695.223 450.109 695.8795 451.8091 700.522 452.6799 702.304 450.4822 702.5854 451.7262 705.6335 452.8043 707.3686 450.8969 705.6804 454.9604 706.5714 455.2922 M 714.5434 461.5949 715.2468 461.2631 715.3406 464.1657 M 413.3883 342.6314 422.1575 339.9361 421.97 335.6652 426.8939 333.4676 426.847 327.2893 427.9724 326.2112 426.0967 323.2671 423.7988 322.811 425.0181 316.84 420.4225 313.896 418.4529 314.1033 418.6405 312.735 421.97 311.3252 421.8293 308.1324 418.9687 307.5518 420.0473 304.0273 426.2374 302.2028 430.7392 297.31 434.9597 297.4343 435.4755 299.8808 436.6948 300.171 438.3361 295.8587 439.5553 297.7246 443.0724 297.1856 442.6035 292.3341 443.7758 292.6244 445.6047 289.9292 448.559 292.1268 453.2954 290.3023 454.4677 292.4171 456.2497 292.3756 457 294.7391 458.6882 295.0708 463.4714 294.7391 463.8935 290.6755 468.958 290.6341 468.3015 295.1123 469.9428 295.444 470.0366 295.4026 470.5524 295.0294 472.1469 293.8269 472.1937 293.7854 474.8667 294.3245 476.6956 297.0197 474.7729 299.1759 469.5208 299.632 471.7248 301.7467 468.7705 306.8884 471.7248 308.008 473.1785 306.9299 475.3357 308.547 481.1037 306.3079 482.276 308.5885 491.0921 310.0398 496.7195 309.169 498.3608 311.574 500.049 311.574 500.2365 312.9838 505.8169 315.3473 505.6294 318.1255 503.2847 318.9962 504.035 321.1939 510.5533 321.7744 507.9272 325.755 500.1427 328.0356 496.907 327.4136 496.8601 327.2893 493.39 325.0501 491.9362 327.1649 479.4624 323.9306 478.8058 326.6258 475.9922 327.0819 475.8515 329.5284 473.5537 330.026 472.2406 333.0114 469.2863 331.8919 468.0202 332.97 472.7096 334.5457 474.1164 337.2409 472.8034 339.0239 464.972 337.4482 463.5652 337.4897 462.9556 339.2727 456.2028 338.8995 456.2966 340.4337 453.2485 342.6314 451.8416 346.1559 448.8404 347.234 450.6224 351.5464 449.8252 356.4393 447.2929 357.0198 447.3867 359.4247 444.4792 361.0419 441.478 361.0004 441.5249 362.8664 439.5553 363.6957 439.274 365.1055 439.2271 367.0543 439.2271 367.5519 439.2271 367.5934 443.7289 368.2983 443.4007 371.1594 440.8215 372.1131 441.478 373.8546 442.3221 374.1449 444.0103 376.4669 444.1041 376.8816 441.7125 378.1255 439.9774 378.6231 438.0547 379.2451 M 684.8593 298.9686 691.9404 299.4247 693.1127 298.8027 691.0025 297.9319 691.4714 295.1123 693.6285 292.9146 693.1596 291.4634 694.9416 291.7951 694.9885 291.8366 701.3192 294.7806 702.5854 295.3611 702.3978 296.605 700.6158 296.9368 701.1785 297.8075 700.6158 297.849 696.3484 298.1393 695.1292 300.793 693.0658 301.0833 693.7692 302.3687 696.1139 304.1517 701.6006 304.4005 701.7882 302.7419 703.6639 302.2858 704.0391 303.9444 705.7742 304.1932 705.1645 298.0149 708.1189 297.227 710.6981 292.2512 706.3369 291.6292 705.6335 288.3949 705.6804 288.3949 707.0403 285.368 706.5245 283.3362 704.7894 282.6728 705.5397 275.7481 707.0872 273.0943 708.8692 271.7674 714.8248 271.5601 714.8717 271.6016 719.9362 274.7529 723.5471 276.992 723.9691 277.2823 724.2974 277.2408 725.798 277.0335 727.6738 276.7432 727.8145 276.5774 731.4722 272.887 735.0831 273.1772 741.3669 270.2747 741.7421 268.4502 746.9005 270.8967 747.088 271.3528 744.6026 272.4723 743.6647 278.8994 744.5557 279.3555 746.2908 276.5359 749.8079 276.8676 750.4644 279.8531 749.0576 279.7287 748.9169 282.1752 752.5278 282.0922 751.7775 284.9119 754.4035 287.8144 758.1551 283.2118 759.515 286.2802 762.4694 284.9948 761.9535 282.341 763.3135 280.6824 764.8141 281.7191 764.6734 285.8656 766.1271 286.2388 766.3616 284.9948 769.9724 285.9485 769.1752 287.4412 770.4414 288.3535 771.4262 286.5705 772.9268 289.5145 775.8342 290.9658 771.5668 290.2609 769.8787 293.2049 767.4401 292.7073 767.487 295.6099 764.9548 294.3659 763.2197 300.171 755.4821 298.5539 755.1538 295.6513 752.6216 293.7025 747.557 295.8587 748.448 298.0978 746.0095 303.4468 746.8067 305.8518 748.7762 307.0128 748.8231 309.2519 750.3706 309.8324 748.1197 311.1178 748.4949 312.8179 754.7787 313.6472 754.638 319.245 756.2324 320.1158 754.8256 323.2257 755.0132 327.9942 758.5302 326.9575 761.8128 329.5284 760.0309 329.8186 759.4681 332.8456 755.9042 334.2139 756.9827 335.1262 750.9803 338.319 751.7306 340.4337 758.2958 341.885 756.9358 344.2485 757.8268 346.6535 745.8219 349.3902 731.9881 356.3149 M 389.9881 490.8278 390.2694 491.2425 383.9856 492.8596 382.907 495.5134 375.7791 495.6378 374.0909 496.5085 374.2785 498.0427 370.5269 498.9135 364.2431 497.5037 361.8515 499.9501 359.3661 498.2086 356.5993 498.7476 354.2546 497.4208 349.0494 499.2452 348.4866 502.2307 344.9696 501.899 343.4689 503.06 340.9367 500.4477 339.905 501.9819 344.2193 503.9308 342.6717 503.9723 320.3032 494.9329 321.5224 492.1962 318.5681 494.2279 315.9889 493.8548 307.6886 489.6253 312.5187 490.7449 312.5187 488.5887 308.2982 489.2936 307.501 488.2155 307.0321 490.04 298.4504 484.8154 295.2147 484.2348 288.3682 478.4712 284.8042 477.6004 270.7359 467.939 269.1415 466.1975 269.1884 466.156 269.2822 466.1975 273.6434 463.0047 275.9412 462.8388 277.1604 464.4974 283.1629 461.0558 285.8828 464.2901 288.3682 462.9218 289.3529 458.6094 291.979 460.1436 293.2921 459.1899 294.8865 460.7656 294.9334 460.7241 296.5278 459.4387 296.8091 459.2314 296.5747 458.5264 295.2616 453.8824 297.5125 453.2189 298.2629 451.0627 297.325 449.487 300.5607 447.2894 302.1551 441.8575 307.97 443.3502 311.1588 440.7794 311.2057 440.7794 310.8774 440.4476 306.7507 435.6792 305.2501 428.9203 305.8128 429.7496 306.0942 430.1643 306.9852 429.7911 313.3628 430.1228 323.3044 433.3986 327.1028 432.8181 328.0876 434.6011 332.7302 435.4304 334.137 438.4159 332.0736 442.1892 332.1205 442.6868 332.5895 448.3675 332.5895 448.6163 333.0115 448.7407 333.4805 448.9065 333.8556 448.9895 338.0761 444.843 338.4513 446.9991 340.8898 447.2894 340.9367 450.0676 345.673 450.2334 346.0481 444.3039 M 332.1674 385.0502 331.3233 385.0917 330.573 385.6722 329.7758 388.865 326.9622 389.6943 324.9457 385.838 321.2879 384.0965 319.5529 383.7233 318.5681 385.8795 315.2855 387.621 314.3476 386.5015 308.1107 385.8795 307.3603 384.5526 308.4858 384.2624 308.2982 381.111 302.5302 381.8574 302.5302 383.2257 300.3262 384.138 300.1855 383.3087 296.5747 383.9721 295.5899 381.0696 294.3706 380.9866 293.8079 382.894 285.2731 385.299 284.9918 390.6895 277.2073 391.5188 275.6598 393.9652 276.2225 396.9507 271.7676 399.3557 271.6738 399.3971 271.6269 399.3142 270.0325 394.2969 273.2213 393.2603 272.4241 388.5747 269.8449 388.5747 267.7347 385.4234 259.9502 388.6577 256.6207 388.6991 256.5738 388.6991 255.1201 384.8014 258.2151 383.5989 257.84 382.2306 M 248.508 372.9424 248.086 372.8595 242.9745 366.0592 250.9934 364.8981 249.3052 362.742 252.9161 362.1614 250.5245 360.7931 251.181 359.0101 255.2139 357.0198 254.4636 355.8173 256.8083 353.8684 257.3241 347.5242 260.6067 348.8097 261.3102 353.3294 263.7956 353.6196 266.4216 351.961 266.5154 348.3536 264.5928 344.7461 270.1732 344.7875 272.471 339.9776 275.3316 339.48 276.6915 340.9313 275.9881 338.5678 280.021 338.2775 280.5837 333.7578 291.0411 335.7067 290.8536 337.0336 295.8244 335.8311 296.9029 333.3846 305.5315 334.6701 304.3122 337.8214 301.8268 337.4897 301.8737 340.5581 310.4554 336.7848 310.6429 335.5823 307.97 334.4213 307.5948 332.5968 309.4706 331.0626 308.1575 330.0674 308.4858 328.782 312.0498 327.7454 312.8939 325.4648 310.5023 324.8843 309.5644 322.0232 310.2678 320.1158 312.7063 319.3279 311.7684 317.1303 316.1296 316.5083 312.7063 314.1448 311.6277 310.2056 307.8762 311.5325 306.3287 309.0031 304.1715 309.5836 302.4364 304.7737 298.4504 301.5394 297.8877 299.5076 301.733 299.8393 305.5315 297.2685 303.9371 295.0294 300.1386 294.905 298.4504 292.8732 300.9358 288.6437 302.7178 288.5193 302.4833 286.6534 296.5747 287.773 294.9334 285.9485 296.9967 285.3265 296.2464 283.9996 297.4657 281.4703 300.2324 283.9582 301.5923 283.7094 301.6861 278.9409 305.9535 282.8801 308.3451 282.3825 306.7976 280.2678 312.6125 278.858 311.1119 276.0383 306.188 278.3189 305.3439 275.831 305.3439 275.7895 307.079 273.4675 309.9864 273.4675 310.6898 275.1676 314.4883 273.7992 311.8153 271.1454 309.3768 272.2235 309.1892 272.0162 308.5796 271.2698 308.0169 270.5235 308.0638 270.3161 309.8457 264.7598 311.9091 264.6769 312.378 263.4329 314.7696 264.3452 314.8634 267.1233 319.2246 267.6624 319.3653 267.6624 316.6923 273.5919 317.4426 276.3286 319.7404 275.4993 319.6935 276.6188 321.6631 277.2408 321.1473 278.6921 322.7417 280.2263 321.4286 280.8068 324.2892 282.4654 326.0712 285.5753 329.8227 286.9022 331.6985 286.1558 333.0115 288.3535 335.8721 285.8656 338.2168 287.4827 339.9988 285.907 338.2637 285.907 337.4665 283.3362 338.7326 280.8068 340.9835 279.9361 341.9214 281.3873 348.2053 282.7557 350.6438 284.8289 355.2863 285.0363 356.5056 286.8193 361.8515 288.2705 361.8984 288.312 363.2114 289.9706 365.8844 288.6852 368.745 291.0902 369.2139 291.6292 366.5878 292.9561 366.6347 297.8905 366.6347 298.471 366.8223 298.5539 372.3558 301.7053 371.4179 305.3542 374.513 308.2153 378.6865 308.2982 377.7487 309.4178 379.2962 312.4862 382.1098 316.1766 384.6421 317.0059 384.1732 319.5767 380.1872 321.5256 379.0617 323.3501 379.8589 324.594 382.2974 324.6355 386.4241 322.189 386.1896 320.3231 388.8626 319.6597 388.2999 318.2913 391.4418 316.7986 393.4582 319.7011 395.4747 318.9962 398.9449 320.2402 401.3834 319.1621 402.1806 317.1303 399.5076 312.9838 391.4887 312.735 390.9729 309.8324 393.3645 308.6299 393.7865 305.603 400.0234 306.5567 400.2579 308.3397 402.2275 308.7958 403.0716 305.1469 407.5734 307.8006 410.7153 303.8614 411.4657 306.0176 413.2945 305.4786 413.2007 311.9471 413.9042 312.0301 414.5138 312.113 415.2172 312.1959 417.9371 310.7447 418.9687 307.5518 M 303.3274 282.9215 306.0473 285.7412 304.4998 282.963 303.6557 282.7972 303.3274 282.9215 M 406.448 313.8131 406.87 313.5643 407.9017 312.9423 409.3085 311.574 409.6837 311.2008 409.7306 311.1593 409.3085 310.7861 407.4327 309.2934 404.7129 309.5422 402.6495 311.7813 403.306 312.8594 406.3542 313.896 406.448 313.8131 M 534.0004 365.5201 530.202 363.4469 528.2324 360.0882 525.9346 344.29 530.4833 338.5263 536.2513 336.6189 542.3476 339.3971 544.9268 344.8705 544.1296 349.2658 539.3933 354.6977 538.0333 362.8249 534.0004 365.5201 M 496.907 327.4136 496.8132 327.4136 496.8601 327.538 497.0008 329.6528 499.3924 333.3017 504.7853 333.0529 510.5064 340.8898 511.0222 341.0557 516.6495 342.507 518.3846 341.3874 517.7281 339.6044 519.8852 340.8898 519.6039 343.2533 515.8054 344.9534 514.7269 351.1317 514.8675 353.8269 519.557 362.2444 518.8067 363.7371 513.32 361.8712 509.6623 364.2762 511.4912 364.7737 513.6483 371.4496 517.2592 372.9838 518.2908 376.8401 517.5874 378.4158 521.0576 379.4109 524.3871 378.3743 526.4035 382.3964 527.4821 381.8574 526.638 382.8111 527.951 387.082 518.8067 408.2292 502.8626 427.4276 503.2847 428.6301 499.6738 434.6011 503.3784 440.4062 491.5142 446.0454 490.5763 448.409 487.9502 447.787 492.6397 442.8941 490.5294 441.9819 488.513 445.382 486.6841 445.6308 488.1847 447.4553 486.1682 449.9017 475.8046 451.3115 474.2102 454.0067 470.4587 455.5824 469.2394 455.2922 471.3965 453.136 469.6146 454.1311 467.2698 453.1774 467.0823 455.2092 469.0049 455.9141 465.8161 456.7849 463.8466 459.2314 462.5804 458.3606 464.9251 460.3095 461.3143 460.4753 460.8453 458.3191 458.3599 457.8215 459.0633 459.646 457.6565 459.5216 458.5006 459.9777 457.3752 461.2631 462.1115 461.3046 453.3422 462.8388 448.9811 465.7414 M 269.1884 466.156 266.9375 464.9121 250.6183 450.9383 236.972 436.7572 M 217.6516 278.236 215.4476 280.4751 212.3994 279.1068 216.4323 277.1164 217.6516 278.236 M 235.7059 266.8331 235.5652 268.9478 235.8466 267.9941 236.6438 268.8649 235.8466 267.455 239.3167 270.8552 238.4258 271.5601 236.1748 271.8918 236.1748 271.643 234.6742 271.8918 235.0963 270.9796 234.3459 271.6016 232.4702 269.4039 235.7059 266.8331 M 241.2394 265.0501 243.9124 266.6257 244.0531 268.4502 239.4574 270.8552 237.3941 266.6257 239.223 268.699 238.0037 265.5891 241.2394 265.0501 M 216.0572 362.4932 216.1041 362.2029 218.9646 363.281 227.9683 360.1297 228.2028 355.527 231.2509 353.5782 229.1407 352.7489 228.6248 349.2658 230.9227 345.1193 227.1242 344.5388 223.8416 338.8995 220.9342 337.7385 223.0444 335.4579 221.4031 334.7115 221.5438 329.1967 224.6388 327.1234 225.905 324.1379 221.0749 323.3915 217.7923 325.2989 215.7758 324.2208 215.8696 318.1669 214.5566 316.5498 215.3069 314.3521 213.1497 312.6106 210.4299 312.6935 208.6479 310.5373 209.4451 308.7958 205.7873 301.7053 208.4603 300.0881 204.8963 291.8366 206.4439 290.1779 205.9749 289.4316 208.4603 287.9803 208.5541 287.8974 208.132 282.5898 209.7733 280.7654 211.8836 281.7605 212.2118 284.2899 209.914 284.3728 211.6491 285.0363 210.9926 285.99 212.7746 285.8241 211.9774 288.2705 213.2435 286.3217 214.9317 287.2339 216.8544 286.0729 214.9317 284.1655 214.791 282.0093 219.8087 281.18 222.341 282.6728 222.2941 282.2166 223.1382 281.3044 224.545 280.641 228.0621 283.585 224.6388 280.5995 226.3739 280.3092 228.4373 283.7508 228.3904 282.1337 230.0317 282.1337 228.2966 281.7605 225.436 278.2774 230.8758 279.3141 227.4056 277.9043 230.782 275.831 231.1102 277.5725 232.0481 276.1627 232.2357 277.6969 232.8453 276.7432 235.6121 277.6969 233.7363 276.8262 236.2686 277.2408 234.2522 276.4944 235.659 275.0432 233.455 276.5359 232.564 274.1724 234.1584 274.8358 233.3612 274.4627 234.5335 274.3797 234.2991 273.3016 236.1279 273.7163 235.7528 272.6797 237.3003 272.5138 236.1748 272.3479 241.6146 271.8918 244.1469 269.3624 246.6791 270.6479 254.9794 271.0625 256.0111 268.4087 258.2151 268.8649 259.7158 267.2477 258.4965 267.0819 258.9186 265.8794 261.9198 265.8794 261.3102 264.6354 265.2962 260.2816 263.4673 259.784 267.1719 257.5449 265.812 255.4302 267.0313 254.435 266.6092 250.4129 270.3608 246.8054 275.8005 244.4004 276.926 240.3783 286.1172 226.7777 288.884 225.3679 289.0716 226.9851 289.0716 227.068 290.6191 224.3313 291.088 226.0314 289.2592 229.0169 291.1349 225.9899 290.666 224.2898 291.6508 225.3265 291.2756 226.7777 291.7914 225.3679 292.5886 227.1095 291.2756 230.4267 287.8054 233.9512 290.8067 231.1316 289.8219 232.7487 291.2287 233.1219 289.8688 233.6609 290.9942 234.4073 288.884 234.4488 292.6355 234.9049 291.088 235.8586 288.1806 235.2366 290.9942 235.9001 288.8371 235.983 290.4784 236.4391 288.8371 237.4343 289.7281 238.1392 291.088 236.7294 292.1197 236.5635 291.9321 237.8075 295.4492 234.739 296.2933 235.6927 297.3719 232.5829 297.5125 234.5732 297.8408 231.7121 298.8725 232.2511 298.3097 229.8462 299.6228 230.3023 298.3566 229.7218 298.9194 226.9021 300.6076 230.1364 299.2476 226.6948 299.8573 226.0314 301.0296 228.1046 301.733 227.1924 299.7166 225.907 299.6697 223.6264 300.5607 224.2898 299.6228 223.2117 300.7014 224.2484 301.5455 225.907 300.2793 223.3776 301.6392 224.8289 301.3579 223.3776 302.9992 223.0459 307.6886 224.3313 311.6277 225.4508 314.9572 230.012 317.0206 229.9291 319.928 232.2097 322.132 236.1074 322.1789 236.1489 319.4591 237.227 320.3032 241.7881 317.2081 242.7418 315.9889 244.6907 316.8799 248.4225 319.037 249.3348 319.9749 251.8641 315.8013 253.274 316.2234 258.7474 315.2855 260.0742 311.065 260.9036 309.8926 264.7183 311.9091 264.6769 M 297.5594 298.5954 296.9967 296.3977 296.1995 295.9001 291.979 293.4537 292.1197 293.3293 295.5899 290.9243 294.1831 288.3949 289.8219 289.7633 290.2908 293.8269 290.4784 295.0294 294.2768 295.5684 295.3554 299.2173 297.5594 298.5954 M 289.0716 226.9851 288.9309 225.3265 290.4315 224.4142 289.0716 226.9851 M 156.6421 291.9609 155.798 293.6196 154.6257 292.5415 156.6421 291.9609 M 192.8445 282.8386 196.3147 286.8193 193.7824 289.473 188.0144 286.3632 188.6709 284.6631 192.8445 282.8386 M 131.0847 280.5995 132.9605 281.5947 132.304 283.9167 131.9757 282.2996 128.5993 281.8435 127.7552 285.5753 124.754 287.4412 126.2546 285.0363 125.9264 282.5898 131.0847 280.5995 M 163.7232 354.2001 162.3163 355.527 160.675 361.498 158.1896 360.337 141.3546 345.4925 109.9354 310.9105 114.0152 314.0204 114.5311 312.0301 113.1242 313.0667 113.1242 310.8276 111.905 311.7398 108.3879 309.5836 109.0913 308.0494 106.2308 301.2491 109.0913 295.9831 110.6388 296.9782 108.9975 294.2001 115 285.2436 122.8313 280.3922 124.6602 280.8483 123.4879 283.4191 120.3928 285.4924 120.0646 284.207 118.9391 284.8289 120.0646 287.3169 118.6109 291.4219 120.2991 290.4682 121.7997 292.2927 124.4258 291.6707 127.9897 288.9755 130.1937 290.7999 129.3497 293.2464 130.4751 290.7999 134.2267 288.6852 133.8046 289.5145 135.3052 289.2657 136.9934 287.7315 136.1962 287.3169 138.5409 287.4827 137.6499 288.5608 138.1189 289.0584 137.6499 289.8877 139.3381 290.0536 138.8692 291.7122 135.1645 293.5366 136.8058 293.8683 135.3521 295.9416 136.3838 295.6928 136.1024 296.7294 134.6018 296.6465 135.3521 298.5124 133.8046 300.7101 133.4295 309.1275 130.8972 312.4033 131.2254 315.7619 132.726 315.8449 135.0708 314.7253 135.3521 313.3155 136.5245 313.6058 137.9782 309.7495 140.7919 313.9375 143.8869 312.3618 144.262 307.925 154.4381 303.6956 156.689 301.1247 155.798 299.2173 159.6903 300.5442 167.0995 300.6686 169.6318 298.8856 175.5405 298.0978 176.666 294.4074 181.7775 293.039 184.2629 294.3245 184.4035 295.7343 186.6545 294.283 188.9054 296.9368 190.406 296.1489 191.3908 297.0197 191.8597 293.7439 193.6417 295.444 196.1271 295.2782 196.8305 290.6755 201.9889 290.3853 201.1917 288.6023 202.4109 285.99 201.2855 283.5021 203.3957 280.8068 206.3032 279.6043 207.1942 283.7923 205.8342 284.8289 207.1004 284.9533 207.6631 286.0729 206.6783 286.1973 208.5541 287.8974 208.4603 287.9803 M 596.2291 496.55 599.4179 498.5818 605.5142 498.4989 609.1719 500.4063 610.907 497.1305 614.0021 498.4159 613.6269 499.4526 616.4406 499.0379 616.7219 501.4014 620.3328 502.8942 617.9881 505.7138 618.5039 507.1651 623.5216 508.6993 622.6306 511.9336 623.5216 515.2922 628.8206 516.0386 633.4632 514.5873 637.7775 516.3289 641.7635 515.002 646.7812 517.8216 665.3044 512.2238 666.7581 511.7677 668.3056 515.9971 673.6985 517.407 673.8392 522.3413 676.0432 523.3365 673.1357 525.3268 672.9013 528.2294 668.3056 533.4954 666.8988 538.6786 661.8342 541.5397 662.5376 543.9032 665.1168 542.1202 666.0078 545.1886 667.8836 555.3061 666.0547 556.4257 666.5237 565.5065 663.0066 566.2114 662.3032 563.8479 660.0991 565.8797 658.5516 565.1333 659.0206 563.6821 657.3324 565.3821 651.8457 564.1382 649.8293 565.548 649.3135 571.5604 646.1715 573.0947 645.5619 574.9606 642.5138 574.8777 642.6076 572.8044 640.7318 575.2508 637.9181 574.2557 638.1526 569.7774 640.1691 569.9848 641.6697 567.0822 638.3871 565.6309 636.6989 566.2529 635.4796 564.304 634.0728 565.5065 631.0716 564.5943 632.197 568.1603 629.3365 569.2799 628.9144 571.3117 624.3657 568.6579 623.6154 570.8555 622.4899 570.4824 621.8803 566.087 620.5204 565.2992 621.9272 562.3966 623.2402 561.3186 626.6635 561.8576 626.6635 560.4063 632.2439 556.0525 632.6191 554.4768 634.1666 555.2646 635.2921 554.228 635.1983 551.6157 633.3225 550.662 627.0856 552.445 628.3986 548.1741 626.4759 545.2301 624.0843 549.9156 619.7232 549.6668 618.7384 553.8963 616.4406 553.606 616.5343 551.6986 615.362 551.2425 615.6903 553.8963 612.0794 554.0622 610.8601 556.5086 605.8425 553.4402 603.4039 556.011 605.1859 558.9136 609.1719 561.0698 609.7816 564.2211 601.8095 561.8576 600.5903 562.8113 596.745 562.2308 597.0263 564.387 594.2596 564.1796 593.2748 565.7553 594.0251 566.792 591.399 567.2895 592.4307 572.5971 590.1329 571.0214 587.5537 572.1824 588.6323 574.9191 586.2406 573.7996 581.5981 574.3386 583.0987 564.5943 581.8795 559.9087 583.4739 557.6282 583.9897 553.3987 586.0062 552.4035 586.5689 548.1741 593.8844 543.6544 600.731 543.7373 601.4813 542.8251 599.7462 540.586 602.2785 539.4664 601.4344 537.642 596.5574 537.9322 598.7614 534.615 601.3406 534.7809 600.2151 532.5003 596.3229 531.8368 599.9338 527.483 599.7931 523.8755 602.3723 518.2777 596.1822 500.9453 596.2291 496.55 595.5726 498.0013 594.3534 489.7912 592.9934 489.0033 587.6006 475.776 584.0366 473.7027 579.5817 459.1899 583.7084 458.8996 582.5829 457.6971 583.1925 457.5313 M 672.8544 498.2501 672.8544 499.8672 670.6035 500.655 669.5249 502.8112 670.4628 503.7649 668.3056 507.1651 663.4286 509.1554 665.3044 512.2238 M 550.1789 98.2358 549.71 98.3187 547.9749 102.6311 547.7873 103.5433 547.6466 103.4604 544.9737 101.6359 544.7392 103.1287 542.2538 102.4652 539.7684 105.741 536.9548 106.6947 533.9535 104.6629 530.3896 105.0361 530.1082 108.5606 525.9815 108.9338 529.1234 113.6193 527.0132 114.7389 526.216 117.6 529.4986 119.2171 525.2312 123.6954 524.9029 129.3761 527.3883 129.2102 528.1855 130.8274 525.7001 137.5033 525.6532 137.6691 521.9017 136.2178 521.2921 134.269 517.8688 137.9179 512.2884 134.9324 511.4912 138.7887 507.7396 138.5399 505.5356 140.0326 504.5039 138.9131 502.3468 140.8619 502.8157 143.723 497.0008 144.4279 498.3608 142.1059 496.5788 140.4473 497.0946 138.4155 493.4838 138.2911 491.0921 136.3837 486.9654 137.835 487.1061 139.9912 481.2443 142.4791 483.4484 143.2255 485.0428 148.0769 485.4648 149.2794 482.2291 150.3575 482.1353 152.638 482.0884 152.6795 479.6968 153.5503 472.2875 156.2041 472.1469 156.2455 468.958 162.8385 463.5652 166.1557 459.4854 164.6629 459.3447 161.8018 461.5487 158.3188 460.7984 156.6602 460.7515 156.6187 455.1242 156.6187 455.6401 153.7991 452.123 155.0016 451.7478 154.9186 439.7429 152.9698 436.5541 153.0942 434.9128 153.1771 431.4895 155.043 431.0675 155.2504 431.0206 155.2918 427.8318 158.1114 429.3793 149.155 419.9535 156.4528 420.3287 148.1183 423.5175 145.6304 416.624 144.2206 417.4681 136.5081 413.529 139.7839 411.2781 133.8958 408.1831 133.0665 402.3682 134.4348 392.0514 133.0665 390.9729 130.3298 392.2859 129.1273 391.6294 124.7735 391.5356 123.9442 390.8322 123.6954 389.0502 123.0734 386.1427 122.0782 386.471 124.0271 382.3443 123.8612 383.3291 126.0174 384.5952 124.9393 386.893 125.6442 382.907 129.6664 383.0008 131.6152 381.4064 132.1128 381.2657 136.6325 376.3887 138.2911 375.4977 137.0472 375.8729 139.2863 374.4192 140.2814 373.8564 139.7424 369.167 134.7666 369.2139 129.9981 372.9654 129.0444 371.4179 122.949 373.3875 123.8198 370.9959 122.1612 371.2773 116.7707 369.8704 116.3146 369.6828 114.5316 371.9338 114.4486 372.9654 112.9974 372.2151 112.0022 373.5751 111.3802 372.262 110.3021 376.8108 102.2994 386.3303 100.1017 386.5179 98.7748 388.4875 99.9773 391.5825 98.1114 394.1617 100.2676 396.0843 99.9358 395.9436 98.4431 397.4443 99.9773 398.5697 98.3187 401.7585 99.148 400.3986 96.5772 404.197 92.1404 M 597.7297 86.9987 597.3077 87.4134 596.6512 88.0353 595.854 93.4673 591.7273 96.5772 593.181 98.6504 589.9922 100.7237 589.8984 105.658 588.2571 110.2192 588.0695 111.09 591.2114 115.2779 591.1645 115.3609 588.726 120.2123 593.603 130.9932 593.6968 131.0762 591.3521 135.0983 594.494 139.4107 594.6347 139.5765 594.4471 139.7009 590.6956 141.4425 590.2267 143.5157 593.2748 146.8744 592.3369 149.777 593.603 150.316 592.3369 152.5137 592.2431 152.638 589.195 152.3893 587.9757 152.2649 587.6006 152.2649 585.8655 150.4404 585.9124 147.8281 582.3015 148.1183 580.9416 150.3575 577.8935 148.9477 575.7363 149.777 573.8606 148.8233 574.2357 145.6304 571.1876 146.2524 571.2814 144.3036 570.3435 144.2206 567.3891 145.5475 566.8264 151.1868 562.4183 149.9013 561.246 157.0334 557.5882 158.4017 557.5413 161.3872 557.4476 161.4287 555.1497 162.0092 555.2904 164.58 552.4768 167.1509 554.9622 169.7217 554.5401 171.3388 550.601 172.6243 548.3501 172.0852 549.8976 175.1122 546.7557 175.9415 548.7721 177.3098 545.724 177.8903 544.0358 176.3146 540.8939 180.0465 542.2538 182.9491 543.52 182.1612 545.1144 183.2393 545.2081 184.5662 542.6759 184.6491 545.3957 190.6616 542.2069 189.003 541.269 191.7811 539.6746 191.6982 537.3768 194.6837 539.065 196.674 541.5973 195.7203 542.8165 197.2131 541.5504 198.8302 539.487 198.4156 539.7215 199.4522 535.6886 203.1426 534.0004 199.7839 532.9218 199.4937 532.3591 199.4522 531.4212 201.7742 531.3274 201.7742 531.2336 201.6499 530.2958 201.9816 528.0448 202.8109 527.6697 202.9353 527.8573 203.3914 529.733 208.2013 526.3097 210.3161 524.434 207.7452 524.7153 205.1329 521.4327 204.2207 522.0424 202.4377 519.1349 200.1156 519.088 200.1156 516.8371 199.5351 513.6483 200.323 513.2731 201.8157 509.334 201.1523 509.6154 197.6277 512.8511 197.1302 510.3188 190.4543 512.4759 188.381 511.2098 181.0417 512.2415 179.8807 514.3986 180.2124 515.4772 175.9415 520.4011 173.6609 520.7293 173.5365 522.4644 171.3803 522.6989 171.09 522.7458 171.0486 521.9017 168.3119 525.4188 165.9898 526.6849 163.2117 524.2464 161.2213 525.325 159.3969 522.7458 157.8212 522.2299 156.9919 521.8548 157.2821 521.4327 157.5309 520.448 158.1114 519.2756 161.3043 515.8054 160.3091 515.8054 162.1336 513.2262 163.0873 510.8346 161.7189 510.8346 159.6042 508.4899 158.7334 503.0033 158.8993 500.3303 157.6968 495.8285 159.7286 492.6865 155.5406 492.7803 154.6698 493.1086 151.7258 489.1695 152.8039 488.044 153.9235 489.1695 152.7624 486.8248 152.3063 486.7779 150.1501 485.4648 149.2794 M 589.195 152.3893 590.6018 154.5869 591.4459 155.8309 591.6804 156.6187 588.5854 161.8018 589.6639 164.4142 585.8655 163.2531 581.1761 164.7044 579.8161 166.4045 583.4739 166.7362 582.7236 168.3119 584.9745 169.2241 585.0214 170.7998 590.3673 170.6754 589.0074 173.7023 589.5232 175.1951 589.5701 175.2366 589.5701 175.278 593.603 173.7023 597.4484 175.9415 597.4953 175.9415 599.0428 175.6927 603.826 174.8634 603.6853 178.0562 599.84 179.0928 601.7626 180.005 604.4356 178.7611 604.2949 182.1612 606.4052 185.2711 607.9058 183.571 609.3595 184.9809 609.3595 182.7417 611.7042 182.1612 609.5002 180.005 613.7676 178.844 616.5343 180.3782 615.9716 180.9173 614.3772 181.3734 613.6738 183.2393 612.8766 185.3541 612.0794 187.3444 612.3139 188.4639 611.6104 192.8592 612.4545 193.2739 610.8132 194.7252 616.0185 195.0984 616.0654 197.1302 617.6129 197.8351 617.7067 198.2497 617.2378 198.7058 614.7524 198.7888 615.3151 202.2718 612.1263 204.1792 614.0021 207.9111 609.5002 207.7038 609.5002 205.9208 605.0921 205.0915 604.8108 206.4183 602.6067 206.9574 603.5446 208.4916 600.9654 213.343 595.1506 213.8406 594.7754 213.8821 595.4319 215.2504 594.1658 215.5821 590.2735 211.8917 591.3052 210.4819 588.726 209.6112 588.1164 207.8282 585.1621 207.7038 586.6627 205.4646 585.1621 203.2255 578.9251 203.3085 578.1748 201.3181 576.8618 201.1523 574.8453 202.4377 573.3916 201.6499 572.5475 203.3085 570.2028 202.5206 565.7009 203.7231 566.7326 200.7791 565.4665 199.0375 562.2308 198.9132 561.668 200.3644 559.7454 200.6547 559.6985 198.0009 556.9317 198.6229 557.9634 194.6422 556.5566 194.6008 555.7125 196.5911 553.3677 195.1813 552.5237 197.1302 549.7569 197.0887 551.6327 202.6865 546.8494 204.6768 548.3501 207.2062 545.4895 207.6208 545.3019 209.1965 543.7544 209.7356 542.7227 209.155 542.8165 207.0403 540.2842 206.6671 537.7988 208.6989 537.4237 205.2159 535.5479 203.4743 532.9687 203.8475 531.4212 201.7742 M 472.1937 293.7854 471.9124 290.6755 477.1176 287.2339 479.5093 292.6244 481.4319 292.2927 481.9947 292.5829 481.9478 292.1683 481.1037 283.5021 485.8869 281.0971 485.2773 278.6092 481.4319 280.2263 478.9465 279.8531 479.2748 277.4896 480.7754 277.3238 478.5245 274.3797 481.7602 271.8089 485.6055 272.804 485.6993 272.8455 485.2304 275.7481 493.5306 276.8262 494.2341 279.7702 495.7347 280.7239 495.9691 284.7875 499.8614 285.7412 509.8499 280.2263 507.8803 278.236 507.5051 275.5407 513.0387 272.3894 508.1148 267.1648 502.3468 264.8013 497.7042 266.294 497.0477 258.4571 492.2176 255.1399 496.5319 253.3984 497.798 255.8033 501.1275 255.7204 502.8626 250.0397 498.0794 248.4225 496.1098 246.3493 497.1884 245.5614 496.2974 243.8614 495.2657 244.1102 496.485 240.5856 493.812 238.927 494.5623 236.8538 493.6713 232.6658 492.8272 236.605 491.0452 237.8904 488.044 232.2926 490.0136 224.6215 488.7943 221.1799 491.9362 216.1212 490.4356 214.9602 492.0769 212.8454 491.5611 208.7819 491.2797 207.9111 486.0276 207.8282 484.4332 209.2794 484.6207 211.6015 483.4015 211.56 482.5574 207.2891 479.181 206.9159 476.7894 202.3133 477.5866 193.108 480.3534 192.6105 483.0732 189.625 487.9033 188.9615 488.7943 184.1101 485.6055 183.8613 482.2291 185.5199 481.0568 182.4515 479.3217 182.1198 477.1645 183.1564 476.4611 187.759 473.0847 187.842 474.304 183.4467 473.413 180.2124 474.8667 177.3513 473.8819 176.439 476.1329 173.9926 473.1316 167.3996 475.3357 166.2801 477.2114 167.524 483.8704 166.6947 485.4179 163.9995 484.8083 157.3651 488.044 153.9235 M 594.1658 215.5821 594.2127 215.6236 593.2748 217.0749 593.2279 217.1993 593.2748 217.3237 594.7285 219.2725 594.3534 219.5213 589.9453 222.5068 588.304 226.6533 582.1608 226.9436 579.9099 225.824 575.455 230.1364 573.5792 230.0949 572.7351 228.1875 569.7807 227.9388 568.4677 229.8876 565.3258 229.3486 564.2003 231.1316 565.4665 232.3341 565.3727 238.4709 564.0128 237.0611 562.0432 237.8075 560.6833 236.8123 554.6339 240.71 553.6491 242.8247 555.6187 244.276 554.4932 246.1005 556.7441 246.1834 554.7746 248.464 556.9786 251.2422 554.6808 251.1178 554.1181 252.6105 557.4007 253.5642 555.2435 255.4302 558.1041 256.0521 557.9165 257.0473 560.5426 258.4571 556.5566 258.6644 556.3221 261.8987 553.3677 261.0694 553.1802 261.567 552.6174 263.5159 552.9457 263.8476 552.4299 264.1793 552.3361 264.4281 547.5998 267.9941 544.5047 269.4868 542.7227 268.7405 542.6759 268.8649 543.1448 271.104 544.2234 276.5359 540.378 280.6824 536.3451 281.0141 536.4858 283.6265 534.8445 283.5021 533.8597 285.1192 536.0169 284.3314 535.3603 289.3072 532.0777 291.878 535.3135 293.2464 537.5175 293.6196 538.174 294.4074 539.065 295.4855 539.5808 296.066 536.3451 300.8345 534.6569 303.2809 534.1411 309.2519 531.7495 313.4814 531.7026 318.084 529.7799 322.2305 527.8104 321.9817 523.0271 332.7627 520.6355 331.726 517.4467 333.0114 520.3542 339.2312 519.8852 340.8898 M 658.2234 241.1247 659.6771 240.3783 659.8178 240.2954 659.8647 240.2954 662.4439 232.8316 662.5376 232.6243 661.3184 230.012 660.3805 227.8144 666.8519 222.6312 666.7112 222.3824 667.1333 222.0092 669.6656 219.8945 670.4628 219.0238 669.0559 215.2919 668.8684 214.7528 668.8215 214.7114 669.0559 211.0624 671.4007 214.7943 673.3702 215.0846 673.9329 217.3237 676.3246 215.748 679.9354 217.531 681.3422 215.9553 687.4854 216.7432 691.8466 212.0991 693.3941 213.7162 696.4891 212.5967 693.3941 211.8917 693.0189 210.1917 698.74 202.3133 702.304 204.8427 704.0391 208.4501 698.1773 211.021 698.0366 212.5552 703.9922 212.2235 704.9301 210.6063 707.0872 213.7162 710.5574 209.6526 710.3698 208.2013 707.5561 206.5013 711.167 205.7134 715.622 201.5669 715.622 201.5255 719.7487 204.3036 721.9996 207.6208 727.2986 208.8648 727.4862 208.9063 728.7055 213.426 727.3924 217.0334 730.4875 218.0286 724.6726 221.9263 727.9083 224.2069 724.5319 227.4412 721.2024 234.9464 719.4673 234.6146 720.6865 241.0832 718.3418 239.8393 717.6384 241.5393 715.8564 241.8296 718.6232 242.3272 721.2962 247.0127 718.7639 248.1738 717.6853 252.7349 715.3406 252.652 715.2937 255.8448 717.4039 256.1351 718.1543 257.8766 717.7791 260.1157 715.9971 260.4889 714.1213 263.5988 719.7018 263.9305 722.5154 268.6575 715.8564 269.238 714.8248 271.5601 M 727.2986 208.8648 727.9552 208.5745 727.7676 205.0085 732.5039 202.0645 733.9576 201.1523 734.3328 200.9035 734.5673 201.0693 739.2098 204.428 742.0234 203.5573 739.9132 200.4888 736.3961 199.6181 736.7244 198.0009 738.8346 198.1253 738.8815 197.0058 735.9272 192.6519 737.6623 189.1688 735.5051 189.3347 735.5051 189.2932 735.3645 188.8371 735.0831 188.0078 735.0362 187.0541 737.6154 187.842 738.5533 186.6395 738.7408 184.0686 737.3809 182.4515 739.116 179.0099 737.5216 176.3976 739.2098 173.1633 743.0551 173.6609 743.6179 176.8952 745.0716 176.522 744.2275 178.4708 750.9803 177.8903 756.7951 181.871 757.0765 187.2614 754.8256 192.0714 757.8737 193.5227 758.8585 195.5545 762.0942 196.1765 764.8141 191.3665 770.3476 192.1129 773.1144 194.6837 776.1156 200.4888 774.9432 203.3499 779.3044 206.0037 779.7265 210.0258 782.5401 211.56 785.0255 217.4895 781.8836 219.5628 781.9305 221.0555 788.6364 228.0632 791.7783 225.4923 793.7009 226.0728 795.3422 224.9947 797.0773 226.6533 799 233.6195 797.5932 238.0977 793.7009 239.1758 793.8885 242.3686 789.7149 248.7128 786.8544 260.8621 772.4109 259.6596 771.1448 262.4792 768.378 263.6817 765.752 269.6112 762.3756 269.321 763.1259 270.9796 760.8281 271.7674 758.2958 275.0432 756.0917 275.1676 753.4657 272.7211 752.1526 273.3846 746.9005 270.8967 M 616.5343 180.3782 617.0033 180.627 617.2378 180.7514 621.13 179.5075 621.1769 181.5807 621.1769 182.0368 622.7713 182.9076 624.3657 182.1198 625.4912 181.0417 625.6787 180.8343 625.7725 180.7514 624.5533 177.6415 624.6471 177.3098 627.32 174.5731 627.2731 171.5876 623.5685 168.5192 626.007 167.1094 625.9132 168.1875 628.7269 168.7265 630.7902 167.7728 631.306 165.6581 629.993 163.3361 632.4315 163.3775 632.0095 162.258 629.7585 163.0458 629.4303 156.826 631.7281 154.9186 633.8383 155.665 635.9486 149.8184 634.5886 146.9573 638.9029 145.8378 638.5278 143.2669 639.7001 142.8108 639.8877 141.8571 640.3566 139.5765 640.5442 138.7887 640.4035 138.6643 637.6837 135.6373 639.1843 133.8958 634.3542 133.8543 634.0728 130.6615 632.2908 130.2054 632.666 128.5883 629.993 126.6809 628.3986 127.9248 630.3682 124.4832 632.9473 123.1978 630.9309 122.0368 631.9626 118.0146 634.3542 117.4341 636.6051 112.5412 639.747 112.1681 642.6076 108.063 642.7951 104.5385 643.7799 104.3312 644.5302 104.2897 645.6088 107.8557 650.5327 111.007 652.5961 107.7313 650.2982 106.1142 651.0954 104.3312 657.1917 104.6629 657.2855 102.5896 659.255 101.3871 659.5833 101.4701 661.6935 102.175 658.6454 108.5191 660.4743 111.1314 658.4109 116.1902 660.7088 119.4245 664.4603 116.978 666.0547 117.6829 667.4615 119.922 670.4159 121.0001 670.6035 123.2807 673.3702 125.1467 673.6047 126.9711 677.8721 127.2199 676.5121 133.9787 678.0128 134.5592 676.137 136.0935 679.8416 139.2448 686.0317 133.3982 691.3776 133.6055 696.3953 137.4618 694.8478 140.8205 695.645 144.0962 694.0037 144.5523 693.5817 149.0306 696.4891 151.6844 694.5195 153.0942 691.9872 160.5579 692.081 160.8067 692.3155 161.3872 693.1127 163.2117 693.2065 163.419 692.8782 163.7922 690.6273 166.0728 684.9531 171.8779 684.109 175.4439 680.0761 179.466 680.0292 179.5075 673.6985 181.4978 673.464 179.0513 670.8379 179.8807 662.8659 184.3174 661.6466 185.0638 662.4439 187.5932 657.051 190.0811 657.1448 192.4031 661.2246 193.6885 661.0839 197.8351 656.629 198.7888 657.1917 202.1889 655.1752 204.8841 651.7988 204.6768 648.61 207.8696 648.5162 207.8282 644.5771 206.294 642.5607 201.9816 640.0753 201.3596 639.6532 196.8814 638.0119 196.3838 635.761 198.2912 633.2287 194.1861 633.8383 191.0348 631.1654 189.4591 629.5241 191.7811 623.1464 195.1813 616.8626 194.0203 616.7688 194.0203 616.5343 195.1398 616.0185 195.0984 M 667.1333 222.0092 665.6796 220.7238 662.5376 220.3921 658.0827 224.5801 653.3933 222.2995 648.4694 223.8752 646.9687 223.9996 645.7026 219.6043 648.7976 217.8627 644.624 212.8454 644.9054 210.3575 648.7976 208.8648 648.5162 207.8696 648.5162 207.8282 M 692.081 160.8067 692.8313 159.0651 695.3636 160.5579 700.991 157.8212 702.4916 158.692 702.9605 162.3409 704.5549 163.8751 708.9161 158.3602 712.7145 161.3457 718.0605 159.1895 718.248 161.8433 723.594 167.6899 725.9387 173.3706 731.4253 172.6657 731.7067 169.1412 734.3328 167.4826 736.3023 168.6021 737.1933 172.9145 739.1629 173.1633 737.5216 176.3976 M 643.1703 204.428 643.0765 204.5524 643.0765 204.5109 643.0296 204.5109 643.1234 204.4695 643.1703 204.428 M 609.3126 44.9531 610.2974 50.924 614.0021 51.5875 614.5648 53.951 617.8943 55.8584 616.1592 60.7513 613.3455 62.1611 613.3924 67.0954 608.9844 70.2053 608.5154 72.7762 607.2493 73.1908 607.7182 76.4666 605.3266 79.0374 604.8108 85.0084 601.7158 86.9158 597.7297 86.9987 596.4167 84.4279 594.2596 85.1328 591.9617 84.1376 591.868 84.0132 587.2254 77.3373 585.6779 77.6691 584.2711 80.074 581.223 80.5302 580.6133 78.3325 578.6907 77.7935 575.1267 80.9863 573.1571 81.1936 570.9062 79.6179 569.0304 80.6131 566.8733 83.3498 568.9835 84.8011 569.3587 87.1231 570.4373 86.7499 570.7186 90.855 563.2624 92.9282 562.4183 98.1114 556.2283 98.2358 554.9622 97.1162 550.2727 98.609 550.1789 98.2358 549.4286 95.9552 549.3817 95.8308 547.506 93.8819 547.1777 93.799 544.1296 94.2137 543.0979 92.1404 541.1283 93.5502 535.6417 93.6331 534.5162 88.8646 532.406 88.3671 531.8433 85.3816 528.0448 85.2986 526.7787 83.4327 523.1678 83.1425 521.339 79.9082 517.5874 81.0692 517.3529 80.5716 515.1489 75.8446 517.306 73.7299 516.1806 72.0298 514.8206 71.4493 511.4912 75.3055 507.9741 73.8957 508.0679 71.0346 505.5825 70.7029 503.3784 73.1079 500.5648 72.7762 500.9868 74.6006 507.8803 74.6006 507.7396 77.0471 509.0058 78.291 505.9107 83.5156 502.0185 83.3083 501.9716 85.7962 500.6117 84.9255 496.9539 86.045 493.2962 83.4742 492.921 81.6912 490.9984 81.5253 492.7803 87.7036 495.6409 90.1501 495.6409 90.1915 495.1719 91.0208 494.3278 92.555 494.2341 92.5136 494.1872 92.5965 490.8577 91.9745 490.7639 92.1404 489.6853 93.7161 489.3571 94.2137 488.7943 92.3892 487.9033 90.9379 484.48 91.2282 482.9794 89.1134 480.0251 88.9476 480.4471 92.6794 482.9325 93.4673 480.494 96.0796 481.6195 99.148 486.1213 101.9262 486.5434 103.958 475.5232 105.3263 472.7565 106.4044 472.0062 109.224 467.8326 109.5558 466.2382 108.2289 461.6894 109.5143 460.1419 111.7534 459.5323 109.9289 453.6236 106.3629 453.9988 99.148 451.5603 98.8163 450.3879 93.7575 447.4805 93.5502 439.9774 97.2821 437.6796 94.6698 438.2892 93.0526 434.397 92.6794 435.0535 90.6062 433.6466 89.9842 432.5681 92.3892 426.5656 93.8819 425.2526 93.177 425.7215 88.2427 424.2209 86.9573 419.6253 92.4721 421.1259 94.5039 419.9066 97.4479 416.3427 99.4797 413.7166 94.3795 411.0905 95.7064 410.0588 93.799 406.2604 93.8405 404.197 92.1404 402.9778 90.9379 399.9297 91.1452 400.7738 87.6207 404.5253 83.5571 402.4619 82.3132 403.775 81.1107 403.8688 78.1252 405.088 77.5447 406.3542 76.9642 406.3542 76.9227 406.3073 76.8398 406.0259 75.5543 405.8852 75.5543 402.0399 74.9324 398.429 72.4445 399.9766 71.4078 396.5533 70.1639 398.3821 68.0491 402.0868 70.1224 405.4163 68.5882 406.4949 69.6248 407.2452 67.9247 409.1209 68.4638 409.4023 66.8881 405.0411 67.3442 405.5101 65.6442 402.1806 64.1514 403.0716 62.327 400.6331 61.9538 399.2731 60.544 400.7738 59.0927 399.9766 59.839 398.5697 57.8902 399.789 56.8536 402.1337 57.6414 401.1489 52.4582 403.5874 49.8459 411.1843 48.3532 412.0753 46.6117 410.7153 46.2385 412.3097 46.2385 410.9967 42.7554 409.543 42.092 410.0588 41.1383 407.5734 41.7602 404.197 39.7699 407.1983 36.9088 404.3846 34.3794 405.6977 32.472 407.9486 32.8867 405.7445 30.15 407.8548 25.3815 400.8675 25.1742 396.4595 26.5425 396.8346 23.3912 401.4772 19.5349 402.6026 16.508 402.6495 16.3836 400.3048 15.9275 399.9297 15.8445 400.3048 13.0664 403.5405 9.0442 407.8079 7.4271 409.1209 11.2004 411.4657 11.8224 424.0333 5.105 430.6454 4.6489 432.0522 5.5612 435.9914 4.566 438.1016 6.6393 440.3056 5.4368 446.2612 10.1638 452.8264 7.3442 456.3904 7.51 463.2838 5.3953 465.6285 8.0491 465.0658 11.7395 470.8807 13.8957 472.522 11.2419 471.5372 6.7637 473.3192 4.8563 479.181 6.0587 478.7589 8.8784 481.8071 10.8272 487.8564 7.8832 487.3406 4.3172 488.5599 3.1977 490.9046 3.7367 496.6257 1 499.9552 1.7049 500.5648 7.7174 504.926 10.2467 508.1617 9.6248 509.9436 12.4029 513.9297 13.2322 513.6952 12.1956 518.1501 9.9979 521.1983 11.9468 523.2147 10.3711 527.4821 12.859 529.4048 12.859 531.2805 10.9102 532.7812 11.4907 531.3743 15.2225 528.5607 15.8445 526.5442 13.9371 523.8712 14.1445 520.1666 16.8812 522.4644 20.0325 525.0905 19.4105 526.216 21.7326 530.4833 21.0277 530.7178 18.9129 533.5784 19.6179 537.9395 26.6255 541.4097 24.9254 544.5516 25.7132 543.1448 30.0671 546.5212 38.2357 551.914 37.9454 551.023 32.6794 552.4299 32.8038 554.3994 27.5377 556.0876 27.0816 556.7441 25.1327 561.3867 30.2329 574.7984 32.0989 575.5487 38.6089 580.0037 44.1652 590.1329 44.7043 596.0884 43.6676 600.7779 45.4506 603.2164 47.9385 609.3126 44.9531 611.5636 42.8798 608.0934 40.1846 612.0325 35.8307 610.3912 33.7575 613.58 30.1085 614.9399 29.9012 614.8462 31.7671 618.7384 32.0574 625.1629 27.745 626.3821 28.8231 625.8194 30.689 627.1325 31.2281 627.2731 35.9551 623.9905 40.5163 633.4163 45.7824 635.761 45.6165 639.2312 42.9627 641.8104 44.5799 639.2312 48.602 637.1209 47.1507 636.4644 47.8556 635.5734 52.5412 631.3529 51.546 630.0868 55.8999 626.3353 58.9268 625.3974 60.8757 626.5697 61.2074 624.225 62.6587 624.3188 64.4417 622.8182 65.7686 630.0399 74.4762 633.6039 76.0105 634.2604 77.7935 641.1538 80.4058 638.5747 84.9669 643.0765 87.3304 644.7647 89.8183 647.5784 87.5792 649.7355 87.7036 651.5175 84.5937 654.0029 83.3913 655.2221 76.3836 656.7227 77.752 659.6302 77.0056 659.5364 79.9496 665.023 84.9669 665.4451 89.072 664.2727 91.3526 666.2892 91.8916 666.9926 99.2724 663.2411 100.3505 661.7404 102.175 661.6935 102.175 M 56.6166 171.712 58.211 171.5047 58.4455 173.9926 56.1008 175.0292 54.1781 179.0513 53.5216 178.0147 54.694 176.2732 51.6458 174.9048 51.3645 173.5365 54.225 171.2559 56.6166 171.712 M 431.0206 155.2918 430.833 157.4895 434.4907 160.1018 435.5693 163.6678 439.696 162.175 434.819 168.5192 439.4146 168.2704 435.0066 170.7998 437.2575 169.7632 444.5261 172.873 445.7454 175.3195 442.9786 178.7196 445.1826 180.2953 448.6528 178.5123 448.7935 180.7929 446.8708 180.8343 446.777 182.6174 451.4665 184.1101 446.0267 185.5614 448.1839 186.8468 446.5426 189.2103 448.9342 189.9152 450.4817 192.4031 452.9671 190.0396 454.4208 190.3299 454.3739 190.3299 453.9988 190.9518 452.2168 193.5227 452.3575 193.6471 454.8429 194.5178 455.8745 193.0251 457.891 192.9007 459.6261 195.4301 459.5792 195.6374 459.5323 195.9277 459.2509 197.3375 457.4689 198.1668 459.4854 200.5303 456.3435 200.24 454.327 203.806 453.1078 203.267 452.8733 200.6962 448.0432 197.2545 440.6339 197.0472 440.0712 198.2912 439.5084 197.1716 438.6174 198.5814 436.0383 198.54 435.4755 197.3789 433.1777 197.6277 431.6771 195.7618 428.7696 195.3472 420.5162 198.6229 419.9066 196.8814 412.638 196.7984 412.9663 195.9277 409.965 195.2228 409.4023 193.5227 405.8383 195.0154 404.2908 191.8641 403.306 194.352 402.8371 193.7715 401.9461 192.7348 401.8992 192.6934 401.8523 192.7348 400.211 194.6837 399.4138 194.2691 399.32 194.3105 400.0703 196.4252 397.9132 195.6789 395.1464 196.674 394.3961 195.6789 393.6458 197.4619 392.0983 196.7984 390.3632 197.918 392.3328 195.2642 390.1288 192.3202 386.3303 191.5324 384.7359 192.9836 383.2353 189.7908 379.5775 189.4176 377.9831 187.3858 375.4039 190.9518 369.9173 193.9788 370.1518 194.9325 369.8704 193.9373 365.0872 193.0251 359.8819 195.7203 359.7882 193.3154 358.522 193.7715 359.2723 196.9643 358.4282 197.0058 360.4447 197.7107 358.4282 197.3789 359.0847 198.1253 358.0062 198.6644 357.4903 197.5863 355.5208 197.8765 357.3497 196.3423 356.4118 194.8081 350.9251 194.8081 350.5031 197.5033 352.3789 198.2082 349.3776 198.2082 348.7211 199.8669 348.5804 197.918 342.9531 195.3886 342.6717 196.3838 346.5171 198.8717 343.7034 201.1108 344.0317 203.5987 343.1876 203.0597 342.7186 205.1329 342.1559 201.3181 343.5627 199.0375 341.1711 198.0009 341.2649 194.5178 337.6541 196.2594 338.123 194.352 337.0444 195.3057 334.7935 194.352 334.9342 196.9228 326.7746 199.7839 325.3677 200.4888 324.805 197.5863 328.369 195.8033 327.2435 193.5642 329.0255 191.4909 328.2283 188.3395 326.3994 188.7127 322.601 186.5151 320.1156 188.4225 318.7557 191.947 312.0967 192.9422 302.3896 193.0666 298.6849 190.5787 292.2604 189.3347 293.2452 188.2566 292.3542 188.0908 278.2859 188.2151 276.035 189.2103 277.8638 192.4861 272.3772 194.9325 269.5636 193.3983 269.5636 194.5593 267.7347 195.1398 269.8918 194.7252 268.9539 197.918 266.2341 197.4204 267.7816 199.1619 266.2341 198.9961 265.39 201.6084 262.3418 204.3866 262.1074 206.833 261.2164 206.3769 260.7943 207.7867 259.8564 206.7501 257.9338 210.5234 259.1061 210.8137 256.6207 211.8503 252.7285 217.9457 249.6804 217.9457 250.5714 218.8579 247.8046 220.4336 247.0543 219.3555 245.9288 221.3458 243.7248 221.0555 246.6323 221.5531 246.2102 222.9215 248.3673 222.258 246.9136 223.5849 249.868 223.5849 249.2583 225.1606 240.2546 226.0314 240.1608 226.9851 238.3789 226.2387 239.1761 226.8192 234.1115 227.7729 234.5335 228.4778 230.1255 228.1875 226.5615 231.256 223.9354 230.9242 214.3221 233.7853 210.2892 236.8952 199.5035 240.171 195.1423 240.6686 195.1423 239.0514 193.501 238.7197 189.9371 239.7978 186.1855 237.9733 186.2324 238.8856 181.0271 239.0929 180.5582 240.2124 176.9942 239.01 177.3225 240.2954 176.0095 240.5856 174.5557 239.4661 173.8992 240.7515 171.3669 238.388 166.3023 238.8441 172.9613 243.115 176.0564 242.7004 173.1958 243.4467 168.5064 241.6637 169.6787 242.6589 161.8474 237.8489 152.281 235.444 147.6853 237.0196 143.1366 235.8171 145.0592 235.361 142.7145 234.0756 141.9642 235.6513 138.6816 235.444 138.494 233.7024 134.9301 232.6658 136.0555 233.7439 130.522 230.8828 128.8807 228.7681 129.8186 228.4778 128.1304 228.7266 127.8021 227.6485 127.6615 228.851 123.863 226.3631 124.0975 225.0362 122.7845 225.3679 122.7845 224.3313 122.081 225.4094 114.7655 221.2214 114.8593 221.719 89.4426 207.1233 84.0967 205.1744 68.1995 193.8544 62.1501 187.1785 61.8688 185.2297 64.9169 185.5614 67.7306 183.2808 66.4175 179.5489 68.4809 177.5586 65.7141 179.1343 64.3073 183.1149 58.211 182.2442 59.8523 184.4004 56.6635 184.1101 55.6787 180.0465 57.1794 177.5171 59.3834 175.9415 61.1654 177.2269 60.3682 175.5683 66.7458 174.0755 59.0551 172.8316 59.7116 169.6388 61.775 168.768 59.993 168.4363 57.8828 170.6754 51.7396 168.9339 50.0514 171.4218 50.0514 169.8461 46.4875 169.2241 46.5812 166.1972 44.471 164.8288 45.362 160.5164 41.5636 164.3312 39.1251 162.6311 40.8132 157.6139 44.5179 156.0382 41.4229 156.0382 49.2073 150.3989 46.2061 151.1868 45.1275 149.8599 45.6434 147.911 43.7207 147.7866 44.3303 151.8917 41.1415 154.2967 29.9338 153.0942 27.9173 142.7693 26.5574 140.9863 23.0403 140.779 22.1962 141.8986 6.8618 139.9497 4.0481 138.1252 1 133.4811 1.7034 130.3298 8.7845 129.542 10.6602 128.0907 14.4587 119.3415 13.849 110.6339 15.209 105.741 20.6487 103.0457 24.1658 98.7748 30.6372 99.6041 31.4813 94.338 33.9198 92.5965 36.499 92.0575 37.9527 94.2966 83.2995 93.7161 84.7532 53.0802 90.1929 50.8826 93.0066 51.0899 95.1168 60.1708 97.274 63.488 99.1966 63.0319 102.5261 55.112 107.3562 52.2509 112.2801 61.622 114.578 62.2026 126.0671 55.8169 138.4002 60.544 153.3126 54.9047 161.0502 56.4389 169.8194 55.0706 175.6343 56.6462 188.4833 53.4534 205.6466 68.7126 242.3649 68.7126 247.617 65.1881 253.0099 53.2461 270.5014 49.5557 278.8017 46.3629 285.32 46.2385 290.7129 43.1701 310.9243 37.3235 314.5821 39.1065 311.8153 44.7043 309.4706 45.8653 312.3311 53.8266 310.6429 58.6366 322.7417 62.6587 340.0457 62.4928 352.6133 57.6829 348.6742 55.0291 348.5335 53.2461 357.6779 46.5287 362.508 44.414 366.7754 46.6117 370.4332 45.5336 374.7943 40.7651 379.5306 39.3553 379.9996 37.5308 377.1859 35.5819 368.9325 36.0381 364.1024 34.5453 364.8527 24.6766 362.6956 22.1472 362.6018 15.6372 365.3686 10.6199 373.5751 7.2612 376.3887 3.8611 378.3114 5.6026 396.9753 11.9883 400.3048 13.0664 M 361.8984 288.312 368.8387 285.1607 369.0263 285.0777 371.5117 285.4509 374.6536 289.8048 375.7322 290.095 376.1074 289.8462 376.8108 286.0729 380.0465 285.4095 378.9679 283.7923 380.703 282.5898 380.5154 280.019 384.7828 279.5629 384.7828 277.1164 381.0782 271.9333 378.7334 271.6845 376.8577 276.0798 371.9807 272.9699 376.1074 269.7771 377.0921 267.2892 375.9198 264.3452 377.0921 264.8013 376.3418 262.5207 377.9831 259.8669 380.3747 260.7377 380.3278 258.623 384.6421 254.6838 384.7828 252.3617 380.0465 247.3444 379.6713 245.5614 380.9375 244.9395 379.9527 240.4198 376.717 237.2684 382.4381 236.7294 381.6878 232.3755 384.4545 232.4585 387.2682 236.9367 392.7548 237.3928 396.0843 235.5269 394.9589 232.3341 397.116 231.1316 398.1477 226.9436 400.8206 225.285 400.5393 223.4191 402.1806 221.6775 401.0082 218.4432 403.8688 216.7432 403.6343 213.426 401.2427 212.8454 402.0868 209.5697 400.7738 206.6671 406.8231 203.6402 407.761 202.8523 407.1514 200.7791 409.1678 200.0742 407.1983 197.1302 403.8688 197.2131 402.4619 194.3105 402.5557 194.1861 402.8371 193.7715 M 641.7166 261.6085 638.7153 256.3839 639.6063 254.7667 634.1666 255.0155 631.8688 250.869 629.9461 249.8324 626.5228 250.3714 626.3821 249.1274 619.9107 250.9934 617.6129 248.3396 617.5191 248.4225 617.144 249.5006 614.7524 249.7909 615.5496 251.9885 614.0958 252.652 612.5014 258.4571 609.7347 260.945 605.608 261.5255 604.0605 265.8379 603.5915 265.9623 597.8235 267.3721 596.7919 266.1696 598.6676 264.6769 598.2925 262.5622 596.0415 262.8524 595.7133 264.9671 593.2279 265.8794 593.0872 265.7135 592.0086 264.3452 593.6968 263.3085 592.7121 261.8573 590.2735 262.6451 588.0695 260.323 584.5056 260.9036 581.9264 259.4523 579.0658 262.106 578.9251 261.9816 578.081 261.1109 577.8935 260.9036 575.0329 261.4841 575.5019 264.4696 578.2217 266.4599 573.7199 266.8745 573.1102 269.7771 569.4525 273.2187 572.782 273.8821 573.2978 276.9506 572.6413 277.1164 572.4068 277.1579 570.9062 277.5725 570.7655 276.8676 570.0152 276.7018 568.8429 277.1994 566.545 276.0383 564.2941 277.614 561.4805 277.1994 561.4336 277.1994 558.6199 269.1551 555.9 268.9478 555.9938 266.6672 552.9457 263.8476 M 607.812 303.6127 607.5775 302.1614 605.4204 301.2077 603.0757 302.9492 603.2164 306.8055 600.9654 306.8055 598.3863 304.5664 594.6816 304.9395 583.849 311.2422 581.5512 305.7688 577.0963 305.1054 575.2674 306.225 574.6578 305.0225 571.7503 305.3127 561.9025 302.5346 558.9482 303.2809 553.8367 300.0467 551.914 305.4786 546.9901 308.1324 542.7696 314.0204 540.378 311.491 539.7684 308.0494 542.0193 305.1469 541.7849 302.7004 536.3451 300.8345 M 301.3579 223.3776 299.2476 222.9629 293.2921 219.2311 299.107 218.2359 306.9383 220.1433 309.4237 211.4771 310.7367 210.4405 314.4883 210.8137 313.8787 207.4964 317.9116 207.2891 319.037 204.9671 325.3677 200.4888"/>
</g>
</svg>