<?xml version="1.0"?>
<svg xmlns="http://www.w3.org/2000/svg" version="1.2" baseProfile="tiny" width="800" height="584" viewBox="0 0 800 584" stroke-linecap="round" stroke-linejoin="round">
<g id="JH" fill="none" stroke="black" stroke-width="1">
<path d="M 721.2698 95.8849 719.2111 98.5731 712.7012 96.9303 709.0845 101.8089 708.4725 102.6552 712.5899 107.3348 714.9268 114.7025 715.0381 121.8214 710.4755 124.5594 710.0304 126.8494 712.8124 127.1481 711.8109 132.0267 713.8696 135.2128 710.8094 136.5569 709.1401 135.4119 703.1866 141.0871 700.8497 139.046 701.0722 144.2731 702.0181 145.3186 706.4694 144.6714 705.913 144.9701 705.7461 145.0199 699.4587 146.7125 698.5684 146.5631 697.1774 144.6714 686.3831 130.3341 680.9303 129.1394 675.4775 132.4748 671.1375 130.2843 668.4667 130.9813 662.0681 127.2476 660.5101 127.5463 655.4468 125.0074 654.6678 124.3603 654.3896 124.41 651.9414 125.2563 644.5412 122.6677 642.9276 123.3148 642.4269 125.4057 642.5938 121.672 647.3232 108.3802 647.2676 108.2308 647.4345 107.8326 645.4871 105.0946 647.9909 103.2028 647.045 99.519 649.9384 95.1381 646.2661 94.1923 646.5443 92.4997 649.215 91.6036 652.3309 86.7249 658.1176 85.1319 658.2845 85.0821 660.4545 81.6969 658.4514 75.0759 660.065 72.8357 658.674 71.1929 660.065 64.9701 658.5627 57.8513 663.8486 51.1307 666.2968 49.5376 669.8578 47.2477 670.136 45.4555 674.309 45.804 675.0324 41.0249 679.9844 44.9577 684.38 45.9035 689.8884 22.6055 697.5669 25.6422 701.0722 22.257 701.7956 22.1574 703.2979 22.705 704.522 24.0989 715.8727 27.6833 M 778.1904 105.1941 778.6355 105.4928 779.3588 109.2265 779.3588 109.326 772.9601 108.1313 770.7901 110.2221 769.1765 104.0989 763.7237 104.5967 761.4425 103.1531 763.2786 101.7094 762.2771 101.0622 760.1071 101.6098 756.6017 107.6832 756.1566 105.6919 751.8166 105.443 749.0902 101.56 747.8105 102.4561 746.3082 100.7635 738.741 99.3696 736.5154 96.7311 734.1785 97.1294 736.4598 94.6901 740.5772 96.6814 737.9064 94.1425 731.7303 94.1425 728.3919 90.8071 725.7211 91.5538 726.3888 95.2875 721.2698 95.8849 721.2142 95.8351 720.0457 95.4866 715.7058 90.2097 716.1509 85.5302 712.0335 84.5345 714.0922 81.7965 711.5327 79.855 714.0365 77.7641 711.7553 71.6409 715.7614 65.1195 712.3673 62.5308 712.3673 62.481 719.545 57.7019 721.4368 54.3665 720.3796 51.977 723.2729 50.8818 714.8711 43.0659 719.545 37.0423 715.8727 27.6833 715.1494 21.4107 715.0937 20.8133 715.7058 19.5688 719.7119 16.3827 717.4863 9.911 718.5434 8.8158 719.9345 10.8071 727.0565 12.7486 728.5588 4.0367 731.8972 3.738 734.1785 1 735.4582 2.2446 734.2898 4.0865 734.2898 4.1861 736.8493 5.9284 738.7967 7.173 738.908 7.2726 739.0192 7.2228 742.1351 6.0778 746.3082 8.1686 752.7069 7.4717 751.5384 8.4175 753.8197 8.766 752.9294 12.1014 756.0453 13.8438 755.9897 16.781 756.0453 16.781 767.6742 17.9757 767.7855 36.3951 771.4578 40.8755 770.6232 46.1027 797.9428 65.7666 799 74.7274 786.9816 86.1275 788.5952 91.6534 783.5875 91.504 783.2537 91.504 785.4237 95.7853 783.1424 97.5277 783.2537 99.967 780.6942 102.2072 777.6339 101.5102 777.3557 97.677 777.3557 97.4779 776.855 98.5233 774.7963 102.6552 774.4624 103.402 778.1904 105.1941 780.5273 106.2395 782.6416 107.2352 783.198 106.9863 785.5906 105.7417 786.8703 108.5793 789.9306 109.1767 786.5921 116.4449 791.4885 118.7847 791.0434 123.7131 789.5411 127.5463 784.3108 127.7455 790.5426 128.3428 790.0975 132.5743 787.3154 133.3211 787.0372 136.0591 786.926 136.1089 780.3047 138.0504 776.1316 137.3036 775.9091 135.3621 774.0729 134.5656 771.5135 133.5202 770.1224 132.9228 766.4501 132.9228 766.2832 135.1132 769.8442 134.9141 772.8488 139.1456 771.2353 139.7927 771.9029 146.364 770.345 147.1107 771.736 148.3055 773.0158 144.8705 773.294 148.7038 776.0204 147.8077 773.1827 151.2924 775.464 154.5283 771.9029 155.2252 769.5104 161.0497 771.3465 162.9912 772.515 161.1991 772.6819 161.3484 773.1827 162.3441 770.8458 164.2358 770.4006 164.5843 770.345 164.6341 771.5135 167.5712 765.226 174.939 766.2832 177.9259 764.7253 180.3652 759.2725 183.8002 756.3792 182.8543 755.1551 188.6291 747.5879 191.2177 746.9759 192.7112 743.5818 189.5749 733.7334 189.1767 734.7905 177.8263 731.619 166.8743 731.1183 147.7081 732.5649 146.0653 730.7288 143.4766 730.5618 143.2277 725.9993 145.9657 716.0952 142.2819 705.913 144.9701 M 743.5818 189.5749 743.6374 189.8238 743.5261 189.7243 744.8059 193.8562 743.4705 196.4947 749.7023 197.7392 750.1474 199.9794 753.8197 201.224 753.2633 207.7952 749.4241 209.0398 749.8692 207.4467 747.9774 206.4013 744.0826 207.148 742.1908 205.2065 732.7318 205.7541 738.6298 210.6826 734.3454 212.1263 732.4536 214.2171 733.5664 218.3988 729.7829 219.494 727.0565 218.7473 725.1647 215.0136 719.2111 213.1717 719.7119 215.9595 717.8201 217.9508 721.548 219.2451 718.3765 220.2408 718.3765 221.0373 718.4322 222.0329 718.4878 224.1736 719.9901 224.7709 721.548 227.4094 715.5388 231.4418 708.9176 231.2924 712.8124 235.1256 712.8124 235.5239 709.5853 236.6191 709.2514 236.6191 695.6194 231.2924 694.0059 233.7815 689.8884 233.433 688.72 232.3876 688.5531 232.0889 691.3907 229.8985 691.5577 227.6583 683.1559 228.6042 675.867 225.7666 675.7557 225.7168 674.1977 228.4548 673.7526 229.3011 673.697 229.3011 673.6413 229.3509 670.5254 229.4505 656.9491 227.1605 652.6091 222.5307 650.1609 215.0634 646.3217 215.1132 641.5922 209.9856 635.1379 208.293 633.1348 211.6284 630.019 212.0765 629.3513 214.9638 629.0174 214.7647 626.9587 213.6695 627.6264 211.6284 622.1736 209.9856 623.8985 204.9576 626.2354 205.3061 627.2926 202.7672 629.9633 202.2694 628.7949 196.7436 628.8505 196.7436 635.5274 196.7933 640.4794 199.6807 642.2043 198.0379 641.2584 195.0012 644.9307 190.1225 638.6433 187.9819 637.0297 180.7137 626.8474 179.5189 627.7377 172.8979 622.7857 171.5538 622.6187 167.8699 620.7826 166.6751 624.121 161 616.8321 162.5432 616.4983 158.9091 614.3839 158.6104 614.217 158.6104 614.2726 156.4698 618.0006 153.5824 616.7765 152.0889 619.2803 147.8077 619.2803 147.4094 618.5013 139.0958 618.5013 138.8967 617.7224 130.8319 624.0654 123.9122 623.3977 121.1244 626.291 121.672 625.3451 124.7087 629.7408 123.1655 632.801 126.6502 636.9184 124.9576 637.4192 127.397 641.7035 128.4922 642.3712 125.6048 642.4269 125.4057 M 539.1576 169.3136 539.8253 169.4131 539.714 171.5538 539.6583 171.7529 541.9396 172.4996 539.7696 175.6857 542.8855 176.532 542.3291 179.5189 545.0555 183.9495 547.8932 184.6963 549.8406 192.064 548.5609 193.6571 550.0075 195.1505 544.4991 207.1978 550.397 206.9489 551.2873 206.1524 553.2347 206.7996 558.5206 208.4922 559.4665 208.7909 559.4108 208.99 559.3552 209.0895 554.6257 221.1368 552.2888 224.1238 544.4435 225.7666 544.1096 225.8164 543.1081 228.405 543.0524 228.6042 543.0524 228.6539 544.3322 228.1561 544.3322 229.5002 544.3322 229.5998 544.3322 229.6496 544.1096 229.6496 538.6568 228.8531 532.425 227.957 530.9784 226.7622 526.5271 223.1779 526.5271 223.2277 524.3015 225.0696 524.1902 225.0696 523.912 225.0696 519.1269 224.9701 518.4592 227.2103 515.8441 228.1561 519.6833 230.3465 519.6277 232.288 515.0095 237.4156 511.5598 247.9197 499.4301 243.6882 484.2958 245.6795 482.7378 250.3092 482.6822 250.4088 480.0671 252.8481 478.8986 252.9477 478.064 253.4953 477.7302 252.9974 473.3902 246.924 460.259 248.7162 455.6408 251.6035 455.5295 251.7031 455.4182 251.3048 451.4121 245.9284 451.8016 244.0864 449.1864 246.3266 448.4631 242.8917 445.9036 242.3938 446.4044 242.0951 449.0195 240.6017 449.0752 237.0174 443.5111 234.8269 442.5652 231.0435 442.3983 230.9439 439.7275 232.3876 439.6719 232.3876 436.4447 230.3465 439.6719 227.7579 439.0598 224.6216 435.9996 225.219 432.8281 221.0871 429.3227 222.7797 426.8189 221.8338 427.4865 219.9421 421.3104 217.5027 422.7571 216.0591 421.4217 215.611 415.2456 217.204 411.2394 216.0093 411.462 211.728 405.0077 208.1437 406.2874 203.2153 425.3166 197.0423 426.9301 194.4536 429.9347 197.3907 434.8311 195.6981 436.8342 196.8929 435.9439 190.6204 432.7724 189.4754 432.7168 189.4256 435.2763 186.3889 435.3875 186.2893 437.335 183.8998 439.338 183.8998 438.6147 177.677 435.4432 176.98 434.4416 174.7896 436.1109 162.1449 432.9393 160.303 431.8265 156.7187 436.3334 152.8357 438.4478 142.7797 428.4881 138.9464 428.4881 138.7971 427.876 134.6652 425.094 131.8276 426.9301 128.4922 424.2594 129.687 422.0894 128.2931 422.0894 128.2433 421.9781 124.2109 421.9225 122.5183 421.9225 122.4685 425.5391 118.4362 426.4294 118.4362 429.434 118.3366 433.774 118.2371 429.6565 108.7784 436.1665 105.9906 441.4524 107.3845 441.2298 104.1487 444.2344 101.56 444.4013 101.4107 449.5759 106.2395 450.967 106.8369 455.9746 107.1854 457.7551 104.4972 470.5525 99.1705 470.6638 99.1207 470.8863 102.4063 467.4923 105.8413 472.5556 103.9496 472.7781 103.9993 473.2789 104.0989 477.3407 105.1443 478.1753 106.2395 483.2942 113.1095 483.7394 117.0921 481.013 122.5681 483.9619 129.4878 492.7532 133.0721 497.9278 131.0809 498.1503 127.6957 505.7731 133.8687 516.7343 132.3752 512.9508 136.8556 514.1749 139.1456 512.3387 141.5849 514.3974 145.4181 508.7221 153.2339 512.6169 154.0802 511.838 155.723 515.7885 157.4156 521.2969 156.5693 522.8548 159.5563 526.1376 159.2576 529.2535 161.9458 529.4761 162.3441 532.3138 167.9695 536.4868 168.766 539.1576 169.3136 541.3832 167.9695 541.6058 167.8699 541.6058 167.5214 541.7727 160.5021 541.7727 160.2532 543.9983 159.7554 543.3863 158.6104 545.7788 159.7554 546.2796 156.3204 546.5022 154.8767 544.4435 152.8855 547.7263 148.5544 547.2255 145.6173 552.0662 139.6932 556.3506 141.1369 557.4634 136.1586 561.1913 135.8599 565.9208 128.7909 565.9764 128.6415 566.4216 128.6415 566.3659 130.1848 568.7028 130.0852 572.0969 133.7691 573.4879 135.2128 574.8233 135.1132 587.7876 133.6198 590.3471 130.8817 590.9591 126.9987 594.4089 127.0485 600.8632 130.2346 599.3609 135.2128 606.4829 134.4163 606.0378 136.5071 608.7642 137.901 612.9929 134.5656 618.5013 139.0958 M 629.0174 214.7647 629.3513 214.9638 628.3497 216.6067 628.3497 216.7062 629.7408 219.8425 629.2956 222.929 625.9572 224.2731 625.4564 226.3142 613.9388 221.5351 605.6483 224.8207 602.4211 222.5805 601.5309 219.1953 597.7473 219.9421 597.2465 222.6303 594.2976 222.0827 591.6825 219.8425 593.4073 218.7971 592.4058 217.5525 581.3889 214.0678 581.6115 210.3341 584.5048 208.8904 584.5605 206.9489 581.2776 205.0074 578.44 211.2302 559.9116 209.4878 559.3552 209.0895 M 119.7374 267.6832 120.2382 270.1225 120.3495 270.7697 117.5674 276.644 117.4005 276.9427 117.4005 276.9925 113.3944 279.5811 113.2831 279.6807 113.45 279.83 120.3495 286.003 127.5828 286.3017 128.0279 286.6502 125.2459 292.0267 119.2923 296.5071 104.7144 298.8966 105.7159 307.7578 84.6281 303.0783 83.2371 304.5718 82.0686 302.0827 77.7286 300.6888 77.673 298.6477 73.6669 295.7603 75.2804 293.5699 68.6592 287.6458 72.6653 281.8213 71.2187 274.7523 68.4366 272.8605 65.6546 264.3976 58.6438 263.2028 57.7536 259.4691 42.5637 257.2787 45.0675 253.097 39.5034 251.0559 38.4462 244.2856 32.8822 236.8182 34.3845 231.5413 32.9934 228.8033 21.9209 226.1151 18.4712 218.6975 14.1869 219.6434 10.9597 216.2582 1 215.9097 1.3895 215.5115 1.7233 215.5612 5.1174 211.9769 10.1251 199.382 9.4018 193.8064 14.632 187.5836 14.2981 183.7504 10.6815 182.008 9.68 179.4691 15.0215 174.939 18.6938 175.2377 18.7494 175.1381 22.9225 170.6577 18.972 164.4349 13.9087 163.738 13.9087 158.3615 12.0169 158.6104 10.7371 156.1711 13.0184 147.7081 29.8776 143.2277 30.8235 142.929 30.9904 142.9788 31.2686 142.929 46.7924 145.1692 62.65 144.9701 67.9359 146.7622 81.9017 142.2321 82.0686 142.2321 82.625 142.1823 92.7516 140.9875 94.4209 141.784 94.4765 141.8338 94.5321 141.784 105.4377 138.7971 105.9385 138.2495 116.0095 125.1568 117.8456 122.7672 117.9013 122.7175 125.4128 128.2931 125.1902 132.3752 127.1376 132.3752 126.5256 134.8643 129.0294 135.7106 129.8084 140.191 132.4792 141.4356 131.1994 146.2644 135.0943 151.1929 137.9319 150.6453 138.0989 148.654 140.714 147.2601 139.6568 143.1779 141.5486 140.888 144.5532 141.5849 143.3847 145.4679 147.1683 146.4138 148.4481 143.5264 146.2224 139.5438 148.8932 138.1499 149.4496 138.1001 150.006 138.0006 150.8962 137.901 153.1219 141.2364 153.8452 140.7884 154.4016 139.2451 157.0724 138.6975 157.0724 140.5893 160.689 142.6801 164.6395 139.1954 163.0816 136.9552 167.5885 136.8556 172.6518 149.0522 168.5344 150.8444 166.6426 153.1344 166.9208 153.8313 167.6998 156.1213 171.8728 156.6191 174.2654 159.158 171.7059 160.9502 174.0428 161.0497 175.3782 165.6795 175.3782 165.7293 180.831 167.4219 183.2792 166.5258 184.3364 169.1642 186.5063 168.9153 185.5048 170.6577 190.6794 172.0516 189.5666 176.6813 195.7427 175.387 196.9112 178.822 199.8045 179.5687 203.1986 176.7809 200.0827 180.6639 201.6963 183.6509 201.8632 183.9993 201.6406 184.0491 200.9173 188.3802 195.3532 187.6334 193.5727 192.2134 198.2465 194.4038 198.2465 197.9881 200.806 199.0833 209.1521 198.6851 208.2062 202.817 211.6003 207.2974 216.7749 209.0895 215.7734 212.7734 211.9898 216.0093 213.7703 220.3403 215.996 221.2364 214.438 224.6216 212.3793 225.1692 212.1567 225.4181 213.8816 228.1063 211.9342 231.9894 216.1072 235.6235 216.7193 236.1213 217.999 237.2165 217.9434 237.316 214.7162 240.5021 214.1042 245.8786 214.1042 245.9782 207.9837 244.9327 205.6468 247.0734 206.9265 250.4585 201.4181 251.4542 200.1383 251.7031 197.4119 247.8699 199.2481 245.5799 197.3007 240.8506 194.2961 240.2532 193.9622 240.2034 190.0117 242.593 186.3394 244.8332 175.6008 241.5475 173.9872 249.0646 167.0877 247.9694 160.7447 249.9607 158.2965 252.649 157.6288 251.3546 160.8559 247.8201 159.7988 245.4305 154.0121 249.2638 148.0029 244.5842 140.8253 242.8917 141.5486 246.924 140.1019 249.9607 127.3602 258.0752 125.0789 262.1076 125.9692 265.1941 125.9135 265.2439 125.3571 265.7915 122.742 268.4299 122.6307 268.4299 120.2938 267.3845 119.7931 267.6334 119.7374 267.6832 117.4561 268.7784 116.5659 269.2264 116.5659 268.9277 116.5102 264.9949 113.0049 258.6228 105.4377 256.1835 106.1054 246.8244 101.4872 244.2358 97.9819 236.7187 93.4193 236.5693 93.308 241.2488 87.4101 242.0454 84.9063 240.6515 85.0176 240.6017 87.8553 238.6602 89.0237 234.9763 86.2973 233.2837 90.1365 227.1107 92.4734 226.7622 93.0855 221.4853 100.9308 217.0547 104.2693 217.0547 107.9416 217.0547 109.3882 214.6154 113.8951 215.4119 114.3959 215.2128 110.8349 207.5463 105.1595 205.2563 95.8675 198.0379 85.0732 183.6509 85.1289 183.5015 86.2417 180.415 87.0206 178.125 85.7965 175.4368 83.9604 172.2009 84.1273 171.7529 85.4627 168.1188 90.8042 164.186 90.9155 150.3963 94.4765 141.8338 M 201.8632 183.9993 201.9745 184.1487 202.0858 183.9993 203.4211 181.9583 208.095 175.1381 207.7611 172.0018 207.4829 169.1145 207.4273 168.8655 211.9342 169.2638 215.1057 167.5214 213.2139 165.1817 214.2711 162.9912 216.9418 162.3441 217.4426 164.5345 227.8474 164.0367 231.1302 166.1275 234.7469 154.7772 241.9802 152.537 246.5984 147.3596 251.9399 146.7125 254.7776 142.0827 261.0093 145.1692 259.9522 152.4872 261.3432 152.6863 261.1763 155.5239 263.5688 153.0846 265.3493 154.7274 267.2968 152.985 269.3555 153.682 268.4652 160.303 272.3044 165.3808 272.2488 169.3634 280.0385 169.0647 280.8731 169.4629 284.2115 168.9651 284.4898 168.9153 284.5454 168.8655 293.6148 161.896 299.4571 163.2899 302.5174 158.8095 302.8512 164.8332 301.2933 167.8699 304.0197 169.0647 303.9084 169.6621 303.352 170.1599 303.6858 170.9564 306.0784 176.8805 313.3117 176.7311 312.2545 172.1014 320.3224 175.9844 323.2157 177.3783 323.2157 177.3285 324.3842 174.9887 327.8339 174.1425 337.4598 176.1835 340.8539 175.1381 342.69 176.3329 346.6961 178.9713 347.3082 179.3198 349.8677 179.967 351.0361 180.2657 351.3143 180.3154 354.152 178.0752 354.2633 179.967 350.1459 183.0535 348.5323 180.6141 344.1923 180.1163 345.0269 182.6054 343.469 183.153 342.8569 189.7741 344.1923 190.7697 340.52 192.7112 340.8539 199.1331 335.6236 196.196 316.4832 193.8562 314.4801 197.3907 312.0876 197.9881 314.4245 201.9707 313.423 206.5507 314.8696 206.3515 318.8201 212.1263 317.3178 212.5743 318.8757 214.3167 318.0968 216.308 329.5588 221.2364 330.616 222.481 331.6731 227.5587 331.5618 231.2426 331.5062 231.3422 328.3903 231.4915 328.3903 231.5413 328.3347 231.8898 327.7783 234.0304 325.5526 234.7274 325.497 234.7772 325.497 234.8269 323.4939 240.7012 323.4383 240.9004 323.2157 241.0497 314.3688 241.9956 310.1401 237.565 305.7445 237.6645 303.352 240.6515 301.6827 240.0541 301.961 236.3702 298.0105 235.9221 296.23 233.0846 293.0584 234.9265 293.6148 239.7056 298.3999 240.6515 295.3953 243.9869 296.7864 248.3677 293.6148 248.069 292.502 253.7442 292.4464 253.9931 292.502 253.9931 294.2269 254.242 294.2269 254.4411 294.0043 257.6272 299.0676 262.1574 296.8976 263.153 296.3412 266.1897 297.0646 276.9925 299.8466 279.6309 296.7307 279.5811 297.7879 283.0161 297.8992 283.265 297.621 283.265 297.2871 283.2152 294.9502 286.8493 290.6659 285.9035 289.4418 288.3926 286.9379 284.4598 284.3785 283.0161 283.6551 282.2196 283.5439 282.5681 279.2039 280.1287 278.1467 279.4816 276.5331 272.9103 272.1375 271.9645 272.527 269.5749 273.8067 267.3845 278.7031 266.7871 279.5934 266.8369 279.5934 266.6875 279.7603 259.9669 276.5888 257.3285 280.5949 254.7896 278.7588 249.4629 276.088 248.1686 277.1452 244.2358 277.3677 243.5886 276.4775 242.8419 275.9211 242.3441 275.0308 241.6471 273.6954 241.9956 269.6893 243.1406 262.9011 239.3571 262.6786 239.4567 259.4514 240.8008 258.8394 235.6235 255.334 238.1623 247.5999 237.9134 249.7143 235.8724 247.9894 233.8811 249.3248 231.5413 245.0404 225.1194 244.9848 225.1692 239.532 226.5631 239.8102 228.9526 235.971 229.1518 231.9649 233.682 228.9046 232.4872 226.1782 235.1754 216.1072 235.6235 M 673.7526 229.3011 676.1452 233.7317 678.7603 232.8854 678.7046 238.9589 678.7046 239.158 683.9349 240.5519 682.4882 246.9738 684.3244 250.5083 679.9287 255.1381 677.0354 250.807 677.87 249.2638 675.9226 249.214 674.9767 255.835 677.5362 260.415 674.9211 263.5015 670.9149 262.8045 673.7526 258.2246 668.9675 258.2246 666.0742 260.6639 667.3539 257.9757 664.6275 258.8717 661.9011 256.7311 655.7806 256.0839 655.8919 258.7224 662.2906 263.6508 659.2304 268.5295 657.6168 267.1356 652.776 268.1312 653.4994 266.7373 649.7158 265.7417 648.8812 265.5426 648.8255 265.5426 648.1579 265.9906 647.6015 266.3391 629.4069 256.3328 628.9618 256.1337 627.0144 259.4691 624.288 260.0167 619.0021 253.7442 612.9929 257.0796 615.2742 261.9582 614.4952 264.5967 611.8801 259.7678 603.367 265.443 603.2001 265.5923 602.8106 265.2936 601.197 263.8002 599.2496 262.1076 596.9683 260.0665 595.5217 258.4735 594.854 258.1748 593.2961 257.4281 591.293 256.532 587.8989 257.6272 584.7274 250.5083 573.8218 246.1275 561.5808 236.42 551.0647 235.6235 541.4945 230.1972 544.1096 229.6496 M 599.2496 262.1076 599.0827 262.1076 600.6406 263.9993 600.7519 264.1486 600.7519 264.1984 599.6947 267.733 603.7565 274.0055 603.8678 274.1549 603.8122 274.4536 603.8122 274.9514 603.7565 276.2955 601.0301 277.4405 599.2496 285.3559 599.0827 286.1026 590.0132 288.8406 588.5666 286.1524 584.2822 285.5052 584.004 285.4554 564.2516 289.6869 560.1342 294.2171 552.1219 297.2538 545.6675 295.9595 544.8886 296.1586 545.2224 296.0093 536.9319 293.2712 528.6415 290.4834 528.252 290.3341 525.1917 283.265 520.8518 282.817 518.8487 284.5593 514.3418 281.6222 503.2136 283.0161 496.1473 282.0205 492.8645 281.0248 492.8088 280.9252 494.0886 276.6938 488.6914 268.2308 488.9696 263.153 485.7424 262.7547 485.1304 257.7267 485.1304 257.677 481.2912 255.9844 481.2355 255.9844 481.6807 252.7983 481.7363 252.7485 480.0671 252.8481 M 283.5439 282.5681 282.3754 285.7043 280.0385 284.7087 275.4759 290.4336 274.9195 294.018 278.9257 295.8599 279.7046 301.087 277.6459 310.9937 275.7541 310.1474 273.2503 312.4374 272.4157 304.97 270.9134 309.5998 268.9103 309.4504 264.3478 313.9806 258.0047 311.6906 257.8935 311.6409 258.2273 307.7578 254.0542 308.5544 254.7219 305.9657 253.1084 306.5133 252.4407 311.8898 252.2181 311.6906 252.1625 311.6409 250.994 310.4959 251.7173 307.2102 249.3804 306.3639 247.2661 301.3857 244.9292 300.9377 243.3712 295.8599 243.2043 295.7106 240.8674 298.9962 233.3002 301.3857 233.8566 299.3447 231.019 297.9508 226.9572 290.583 222.0608 292.3254 219.8352 290.6328 218.1103 291.3297 216.7749 299.494 213.6034 299.6434 209.2634 290.583 203.3099 289.4878 197.3007 292.3752 196.6886 297.7018 184.8371 295.9097 185.0597 301.5849 185.0597 301.9333 183.2792 301.6844 177.9933 300.8879 175.2113 302.5307 175.1556 305.0696 171.2051 305.8163 173.542 314.6278 172.8744 320.751 170.8156 320.8008 170.9269 322.7921 166.3087 320.8008 164.8064 325.331 163.8605 324.5344 159.1311 328.517 158.7416 328.8655 161.0785 339.9669 158.0183 345.6421 151.1188 347.5836 149.4496 349.8238 136.2071 345.443 133.0356 348.7784 129.3633 348.3801 129.3076 348.3801 125.691 345.0945 125.2459 341.311 124.8007 341.2613 120.4051 340.7137 117.6231 344.5967 111.7808 342.8045 109.9446 339.4193 113.2831 333.0472 111.4469 325.3807 118.9584 319.0584 121.2954 311.7902 121.6292 302.4312 118.1795 298.0503 119.0697 296.8058 119.2923 296.5071 M 544.8886 296.1586 544.666 296.2084 540.7155 297.3036 538.4899 299.0957 538.3786 299.1953 538.0448 299.4442 538.2117 302.6801 533.6491 304.2233 532.4807 306.4635 527.9738 306.9115 528.0851 309.3011 524.0789 314.3291 525.8038 318.1125 523.4669 322.1947 526.3602 322.1947 526.4715 324.186 523.8007 324.5842 521.2412 329.9607 518.6818 328.7659 513.7854 330.8568 515.8441 332.3005 514.5644 334.8891 511.1146 333.7939 510.8364 331.8026 506.6634 331.6035 504.6047 332.2507 505.8288 334.5904 503.77 334.8891 500.8211 331.5537 503.5475 326.6253 501.2662 326.1773 500.5429 329.4629 491.6404 324.8829 486.6883 325.6297 488.8027 318.2619 486.6327 316.2706 488.4688 309.4007 483.7394 309.55 482.8491 307.6583 475.3933 308.3552 474.1692 307.957 473.6684 307.7578 474.503 306.0155 468.3825 304.8207 464.0425 311.4915 465.99 312.288 467.8261 320.054 471.2758 320.6017 470.4412 321.9458 452.5805 324.6838 441.6193 322.2942 441.3411 322.5432 441.1742 322.344 436.7229 316.5693 432.6055 316.0715 433.6627 313.5824 430.1573 310.9439 433.3845 308.405 428.7663 306.3639 427.3753 300.191 424.6489 297.4529 425.5391 295.9595 421.1435 293.1717 419.975 287.6956 418.8066 291.5786 414.1328 293.0223 411.5176 296.756 409.292 294.4162 405.5641 294.2669 401.1685 300.9377 394.7141 296.756 394.9923 286.1524 393.7126 285.107 395.8269 281.3235 394.7141 273.906 401.0572 269.2762 401.5023 265.5923 399.3323 264.1984 398.1639 267.3845 394.4916 268.2806 389.2057 258.7224 394.9923 255.1879 394.1021 250.359 394.8254 249.9109 402.3369 244.6838 399.6105 241.1493 400.3895 241.1991 402.1143 241.3484 402.949 240.9004 403.6723 240.4523 404.0061 240.2532 404.7851 237.0671 405.1746 235.7728 405.3972 235.7728 408.3461 236.7684 408.7356 237.1667 408.9582 237.316 406.8438 239.8052 406.7325 239.9047 411.5176 246.5755 411.5176 246.5258 415.8576 241.9956 420.3089 243.041 420.3645 246.1773 426.6519 251.3546 427.0414 257.6272 428.8776 260.1661 432.6611 260.9626 437.168 256.7311 441.3411 249.1642 442.0644 240.9999 445.848 242.4436 446.4044 242.0951 M 441.3411 322.5432 437.5019 326.1275 436.7786 331.6533 434.8868 331.6035 434.1078 332.8979 433.9965 332.8979 430.7137 327.5214 429.7678 327.6707 426.3737 328.1685 426.0955 328.2183 425.9286 328.1685 422.2563 326.227 420.2532 326.5257 417.3599 326.924 414.5222 327.3222 412.9087 329.0148 412.3523 329.2638 411.7958 329.1642 403.5054 326.6751 402.0031 325.2812 394.881 323.1903 392.2103 321.5475 384.0867 313.2837 383.1408 312.3378 382.9739 312.1885 380.025 313.6819 378.0775 312.3876 379.9137 308.9526 378.5783 305.9159 375.6293 307.5089 376.7422 311.2924 376.4083 312.0391 375.3511 311.9396 372.9586 311.3422 371.6788 310.2967 372.736 308.7037 370.2322 307.26 369.8427 309.5998 366.5599 311.0933 360.4394 309.1517 356.9897 310.1972 356.2664 308.8531 355.0423 311.0435 351.6482 308.8531 346.6961 309.4007 334.789 306.115 330.5047 303.5264 329.3919 299.1953 324.0503 297.7516 325.7752 293.7691 327.1106 293.0223 327.0549 290.9315 327.7226 289.438 329.3362 288.0441 328.3903 287.845 329.2806 285.8537 330.7829 283.2152 331.228 283.4144 333.7875 285.7541 341.4659 287.9943 346.6405 284.4598 350.8136 289.7367 355.0423 290.1847 355.0423 292.0267 365.4471 292.9228 361.7748 287.8948 362.3312 283.6633 364.5012 283.6135 364.6681 281.3733 367.2276 280.4274 369.7314 273.906 363.1102 271.8151 362.1643 268.9775 372.3465 263.4019 372.9029 261.2613 377.4098 260.7137 377.9663 258.9215 385.5334 259.718 387.5365 254.3913 385.9785 251.3048 387.9816 247.5214 393.3231 244.3353 393.5457 240.7012 399.6105 241.1493 M 297.8992 283.265 300.2917 283.4641 300.4587 284.0117 300.5699 284.41 301.0151 285.7043 299.5684 286.003 299.0676 286.7995 299.1233 287.7454 302.0166 290.7323 308.8048 291.5786 315.9824 289.6869 317.3734 291.031 321.0457 283.5139 327.3331 285.0074 328.1121 287.7952 328.2234 287.7952 328.3903 287.845 M 436.7786 331.6533 441.2298 331.7529 441.508 336.0341 444.3457 337.1791 438.6703 338.8219 438.726 338.9215 441.0629 345.443 438.0026 346.9862 438.5034 348.9277 433.2732 353.1094 430.046 359.5811 433.2175 363.265 432.9393 367.7952 432.995 367.7952 434.1078 367.8449 437.947 367.8449 439.5606 369.9358 440.896 371.8275 441.0073 372.0764 440.7847 376.6066 440.7847 376.8555 441.2855 377.1542 442.7321 378.8966 439.0598 378.8468 439.0598 378.9464 438.7816 381.6844 437.0011 380.4398 434.2747 382.0329 429.5453 389.7989 426.8745 391.4417 427.0414 391.8897 428.3768 392.5867 430.7137 400.9999 428.8219 403.9868 434.7198 408.4174 435.777 415.5861 437.7801 415.3372 439.7832 417.8263 436.556 423.0036 437.6688 425.7416 432.9393 424.7958 432.9393 422.2071 426.2624 421.5101 414.4666 415.5363 402.0031 416.5817 400.5008 419.9171 395.3818 420.5643 394.8254 417.7267 392.8223 416.98 388.7049 421.8088 389.2057 423.8997 383.3078 417.8263 385.9785 414.1922 389.8177 415.138 390.6523 412.2507 392.7111 412.1511 390.9862 405.4803 397.218 407.372 401.6692 404.9825 398.9428 402.8916 399.7218 401.2986 396.6059 400.5518 395.8826 397.0671 398.7203 396.171 396.8285 393.7815 388.7606 394.7771 395.2705 391.7404 394.6585 385.9657 372.0127 384.4722 368.0066 377.652 369.0081 374.7149 360.495 376.0092 355.0423 372.4747 350.1459 374.0677 346.9743 370.0354 347.0856 373.4703 343.7472 377.204 342.5231 376.3079 343.8585 373.6197 338.1831 370.6328 328.5016 371.6284 326.888 369.9856 329.7257 366.5506 327.667 366.003 327.9452 359.83 321.7134 360.2283 315.9824 356.7933 313.1447 362.12 304.0197 364.0117 296.9533 372.3253 296.2856 373.7192 296.063 375.3123 298.7338 378.1996 298.7338 378.2494 298.7894 378.2992 296.9533 381.6844 298.1774 385.1692 298.0661 385.1692 293.281 385.9657 294.6164 390.2967 287.7169 392.6863 287.9951 397.5151 287.0492 399.0086 285.2687 401.896 285.1574 401.9955 285.1018 402.0453 282.8205 401.7466 282.6536 403.7877 282.4867 403.8873 282.3198 403.937 279.4264 405.3309 279.037 405.5301 279.037 405.4803 278.87 401.7466 277.2564 400.3029 276.8113 399.9047 276.4775 399.606 273.8067 400.8008 272.2488 396.171 266.6291 394.0304 265.6832 388.8033 270.8021 388.853 271.3585 386.9115 269.9119 385.9159 269.1885 383.377 269.6337 377.0547 275.1421 376.9053 275.8654 373.5201 273.4172 372.3253 277.6459 371.1306 280.3167 367.0982 280.0941 366.8991 278.2023 365.7043 273.5285 362.7672 270.969 361.1741 271.2472 356.4448 275.5872 352.5618 275.4759 352.3129 275.2534 351.8649 274.5857 350.5207 272.2488 349.326 271.9149 349.5251 272.8052 346.0403 272.0819 343.153 269.2998 342.1573 269.4667 341.7591 270.5239 339.5189 269.0216 336.3328 269.1329 336.1835 269.2998 335.8848 271.8037 331.8524 278.0354 321.8462 279.2039 319.9047 279.037 318.9588 277.1452 316.1213 272.9721 315.8723 272.9721 315.7728 272.8608 315.8226 273.1947 313.2339 269.6893 312.2382 268.9103 309.4504 M 271.9149 349.5251 271.6924 349.6744 267.0742 352.4125 262.7898 351.5662 261.5101 354.2046 253.0527 357.7392 251.8286 357.4405 253.164 351.9146 252.0512 350.3714 245.5412 350.4212 243.3156 348.629 237.2507 352.6116 233.189 350.471 230.3513 353.0099 224.8985 352.9103 222.0608 350.2718 218.2216 350.9688 213.3808 346.2395 209.2634 346.2893 204.9791 339.5687 202.4752 341.9084 202.5309 345.0945 199.4706 344.2482 198.4691 343.1032 198.803 339.1206 199.1924 337.9259 198.9142 337.4778 198.8586 337.3285 198.1909 336.1835 192.5155 336.0839 190.5125 330.7572 198.3022 322.0453 195.9096 313.6819 197.3563 306.6626 197.5232 305.9159 194.5186 305.0696 194.4073 305.0198 194.8525 302.8792 191.514 304.2233 183.2792 301.6844 M 279.037 405.4803 279.037 406.0777 279.2039 411.5039 284.6567 411.1057 285.4356 411.6533 287.3831 412.9476 290.7772 415.2874 290.7772 416.5319 290.8884 418.8717 290.8884 420.166 290.499 420.0665 290.1095 419.9669 287.1049 419.1704 286.4372 419.2202 286.3259 419.6184 286.3815 423.6508 287.2718 423.9495 286.4928 428.3801 286.4928 429.6246 287.8838 433.8561 289.7756 439.5811 289.8869 439.9296 285.7695 439.5313 285.2687 442.9165 285.2687 443.0161 281.9859 444.6589 276.7557 441.8213 274.0849 447.4965 268.2426 450.9314 264.3478 446.2519 261.677 445.4554 264.1809 454.1175 259.7296 452.3751 257.7265 448.8904 257.9491 454.8642 256.0573 456.0092 251.9399 453.6197 253.3309 447.2973 253.0527 445.1069 251.3278 447.5462 249.9368 446.3515 250.8271 441.1741 249.3248 442.2693 242.8148 440.0789 239.9771 442.9663 242.0358 444.6589 241.2569 446.3017 237.7515 446.451 236.1936 450.3838 230.6851 452.3253 228.1256 450.7821 227.5136 452.1262 221.7826 451.6284 218.6111 455.2127 217.1644 454.6651 212.6575 451.9768 214.438 449.3384 210.6544 446.6999 207.3716 450.6327 206.5927 449.886 206.2032 449.4877 205.0347 448.293 205.8693 447.5462 206.6483 446.7995 207.8168 445.7043 211.4334 445.6545 212.2124 442.4187 202.8647 440.6265 202.8647 436.1461 196.5773 434.0055 193.7953 434.2544 193.5727 438.3365 190.3456 438.5357 191.514 440.5767 188.1756 446.5008 183.9469 444.6091 180.5528 448.2432 176.6579 446.7995 177.4925 448.8406 175.3225 449.5873 172.4292 446.6004 167.0877 445.0073 166.6982 444.9078 167.811 441.2737 170.76 440.1785 172.3179 431.5164 174.3767 429.6246 180.5528 429.077 180.6641 429.077 180.7197 428.7783 181.8325 425.9408 182.5002 424.1984 181.3874 421.9582 184.7815 418.3739 181.3318 410.2594 180.9979 409.4629 172.9856 408.965 165.3629 411.9022 164.25 407.0733 160.1326 410.6078 158.2408 408.7161 154.2347 409.5126 150.9519 404.7833 151.1745 402.1947 148.4481 401.1492 146.6675 404.1362 147.1683 409.3135 142.2163 411.8026 138.0432 399.4566 139.4342 391.5413 132.5348 386.4635 127.3046 386.3141 122.9646 380.0416 123.0202 376.9551 123.0202 376.3577 127.3602 370.3341 125.691 363.2152 128.0835 355.1505 127.8053 354.5033 129.1963 348.629 129.3076 348.3801 M 389.2057 423.8997 392.4329 424.0988 388.0929 429.077 386.2567 429.6744 385.4221 429.774 384.8101 426.4386 380.5814 428.4797 377.1316 435.5985 377.7993 439.0833 376.7978 439.5811 372.0683 440.1287 367.005 439.9793 366.3373 436.2457 364.7237 436.6439 363.4997 433.8561 360.9958 434.7522 358.6033 432.0142 355.6543 433.0098 355.3761 428.629 352.8166 429.3757 347.3638 426.1399 344.8044 426.0403 341.9667 425.9408 337.1259 428.181 331.6731 434.3042 328.7798 433.3085 323.2157 437.8387 321.4352 437.7391 321.9916 435.6981 316.0381 434.8518 315.9268 434.802 312.3101 448.1934 314.2019 449.438 310.9191 450.9812 311.6981 453.9184 309.3612 455.8599 308.5266 463.825 301.7384 471.591 305.0212 475.474 304.0753 478.9588 301.4602 480.2531 301.794 479.2575 300.7925 473.9308 298.0105 472.8356 297.7879 471.4915 297.2871 468.405 299.2346 463.1281 299.1789 463.1281 298.1217 462.3315 295.8961 460.6887 297.1758 456.4572 298.8451 451.0808 298.7894 450.9812 297.1758 448.3427 290.4433 445.5052 289.6087 442.5182 289.5531 442.4684 288.1064 442.6178 285.2687 442.9165 M 441.2855 377.1542 446.7383 380.639 446.7939 380.639 453.6933 378.1001 453.8046 378.1001 468.6607 380.8879 470.5525 384.4722 469.6066 387.5587 481.1799 391.2426 486.2988 392.8854 485.5199 395.9719 488.1906 399.1082 489.1365 400.2532 493.087 404.9327 496.8706 404.4349 496.7593 405.779 501.9895 406.7248 502.0452 406.6751 502.7685 406.4759 502.7685 407.5711 502.7685 410.3092 502.7129 410.4087 495.3683 411.3546 493.4209 414.8393 494.8119 415.8848 493.6991 419.4193 494.8675 423.8997 498.8737 424.8456 495.5352 430.8194 495.3126 437.1418 488.6358 434.0055 486.3545 438.8343 486.1319 439.3322 486.4101 439.4815 487.6342 440.1785 490.7501 442.0204 491.1952 442.4187 491.1952 442.568 488.5245 448.4921 489.7486 462.68 489.4704 463.4268 486.7996 469.3508 472.6669 482.1946 470.3299 481.0994 469.1058 480.502 465.2666 484.3353 466.9359 486.0776 466.0456 487.8698 458.4785 489.4131 454.6949 494.5904 448.7413 492.2506 444.0119 487.5711 445.0134 484.1361 439.2824 481.2488 443.9562 478.3614 446.2375 473.9308 441.1185 470.5456 438.6147 471.9395 440.117 469.0024 439.9501 468.7037 439.6162 468.1063 438.2809 465.7167 438.6703 460.3403 437.7801 457.8014 437.8914 455.362 436.4447 454.1175 436.3334 454.0677 435.8327 453.5699 433.6627 456.059 431.5483 453.8188 426.6519 454.3664 426.4294 454.5655 425.706 455.1131 424.5932 455.9594 422.4789 457.5525 417.805 457.1044 413.5763 460.2407 409.4033 457.8014 406.5656 452.4249 407.7341 449.886 412.1297 449.9358 412.3523 448.0441 408.513 443.9121 409.7371 439.133 400.1669 431.5164 395.66 432.064 393.8239 435.7479 386.4793 434.4535 384.977 436.4946 381.6385 436.7933 381.1378 439.0335 377.7993 439.0833 M 502.7685 406.4759 510.28 404.0366 513.7297 403.1405 517.3464 406.7248 526.082 406.1275 529.031 409.1144 533.3709 405.7292 538.1004 407.8698 547.5037 406.7746 549.618 409.7118 548.6165 410.5083 550.5639 410.9065 555.4047 407.6707 555.0152 411.7031 552.7339 411.9022 551.6768 414.9389 547.7819 414.1922 545.3893 416.5817 543.275 414.1424 536.2086 418.6228 539.1576 422.456 541.6614 422.904 539.2689 425.4927 538.8237 429.5749 536.0417 429.8736 536.7094 434.9513 533.4266 441.8711 540.4373 446.6502 549.1173 456.7062 549.7293 454.3664 549.8406 454.3664 552.567 454.1673 557.519 455.4118 557.6303 455.2625 570.5946 463.4765 571.2623 464.3726 571.5405 464.6713 571.6518 464.8704 570.2608 472.8854 574.2113 476.2706 574.6008 478.9588 583.5033 477.7142 589.7907 478.5108 592.0163 478.8094 593.1291 478.9588 593.1291 479.9047 593.2404 482.344 593.6299 482.4933 595.5773 483.1903 597.1353 483.7877 597.1353 483.8872 599.0827 493.7939 599.1383 494.0428 599.1383 494.0926 597.803 495.8847 590.514 495.0384 590.5697 499.6184 592.684 501.1119 592.9066 504.6464 601.2527 505.9407 606.8724 509.2761 604.7581 522.0702 614.1613 526.9488 613.9944 533.769 613.9388 533.769 603.1445 532.2257 601.9204 534.4659 601.3083 532.0764 599.5278 536.059 599.194 532.4249 597.636 532.2755 598.0255 536.2581 601.1414 536.6066 599.3609 540.6389 595.2435 540.5891 596.3563 538.3987 598.1368 538.8965 595.8555 537.3533 594.854 540.5891 591.5712 541.7839 586.3966 540.9874 586.4522 540.8381 586.4522 540.7385 579.2746 539.7926 577.0489 536.5568 576.8264 536.6066 576.7151 536.4572 574.8233 537.1542 574.0443 537.4031 573.2097 534.3664 572.542 532.0266 566.7554 529.4877 563.8064 530.334 561.5808 526.4012 561.4695 526.2021 556.7401 526.7497 554.2919 525.0571 553.2347 526.3017 552.3444 522.568 549.0616 521.7715 546.7804 518.4361 546.7247 518.3365 546.6134 518.4361 541.0494 522.1697 538.2673 521.7217 538.156 521.7217 537.7666 525.5051 535.7079 525.3558 535.1514 523.6134 523.0774 518.0876 516.79 511.8648 509.9462 501.0123 507.5536 501.9582 500.0421 500.1162 496.9819 496.5817 481.5694 494.2917 481.5137 494.2917 473.0563 482.3938 472.6669 482.1946 M 454.6949 494.5904 453.8046 497.9756 453.749 498.0752 453.749 498.1249 453.8603 498.2245 455.6964 500.1162 457.7551 502.1573 458.8123 503.2027 459.3687 503.4018 464.2651 504.7957 465.7118 510.6203 465.4336 513.7565 460.7597 519.3321 466.1569 520.5767 463.82 524.3601 468.772 525.0073 464.0982 526.9488 459.0905 532.176 459.3687 534.3664 456.6423 535.6109 466.4907 545.4678 460.5372 555.3745 462.7072 558.212 451.4121 574.6899 449.1864 574.1921 447.0165 576.5817 445.5142 582.5555 443.3442 580.9625 431.1032 582.5057 429.7678 580.7136 423.8699 580.8629 420.8096 579.0708 420.0307 576.3328 423.7586 572.7484 422.7571 568.6165 425.9286 564.2855 429.7678 565.53 433.2732 564.4846 432.7168 562.1448 429.267 561.7964 430.6024 559.8549 428.3212 558.2618 428.2099 558.3614 417.9163 565.53 406.51 568.3178 406.0648 567.7702 406.1205 567.6209 401.8918 562.095 401.4467 562.1946 392.099 564.6837 385.756 561.7466 382.7514 562.7422 378.6896 559.1081 377.9106 558.4112 373.5706 556.619 359.1597 550.7945 357.3235 550.0478 353.9851 550.4958 352.5941 550.6949 351.8707 550.7945 351.8707 551.7901 351.9264 557.0173 346.3623 556.4199 344.4705 556.2208 343.0238 557.4653 339.4072 560.7011 337.2372 562.5929 336.959 563.24 336.18 563.9868 329.837 576.4821 326.9993 575.0882 325.7196 569.6619 321.0457 568.1685 319.8773 565.6794 319.8216 565.53 317.6517 566.2768 318.2081 568.4672 317.3734 567.3222 316.1494 565.0322 315.7599 565.082 309.8063 565.9781 305.7445 559.9544 298.3443 558.2618 297.2315 558.5107 294.8946 558.9588 292.9471 559.357 288.8854 563.8872 286.1033 563.3894 286.159 561.7466 293.6705 557.1168 293.9487 550.1971 298.1217 546.5132 297.3428 544.6713 302.2392 533.8685 301.0151 530.8816 308.9161 527.4466 309.1386 523.4641 304.6317 523.713 305.2438 518.7845 301.961 516.7933 303.6858 509.2761 299.0676 500.863 302.0166 498.2743 301.8497 495.6856 301.8497 495.4367 301.3489 495.3869 300.3474 494.7397 300.7925 493.5948 302.1835 489.8611 302.4061 488.9152 300.6256 486.2768 299.9022 485.1816 299.8466 485.1318 300.5699 480.6514 301.4602 480.2531 M 300.7925 493.5948 297.3984 494.9887 295.3953 494.7895 294.9502 495.9843 281.7077 501.5101 280.9287 499.1206 275.2534 501.6595 276.0324 503.2027 273.7511 504.9451 269.7449 505.6918 269.1329 505.7416 268.1314 500.8132 260.6755 503.8499 257.3371 502.8542 256.0573 500.0664 247.2661 501.2114 245.7081 505.9905 231.2972 505.891 224.8428 503.3023 208.707 504.5966 199.1924 506.9364 198.4691 509.077 200.0827 511.1181 190.735 513.9059 190.4568 517.4404 166.6982 519.0832 159.5762 512.8605 150.3955 513.0098 143.3847 507.932 140.7696 504.8455 140.714 496.5319 135.7063 495.9843 126.7482 489.2139 118.5133 487.2724 117.9569 486.1772 118.0682 479.4068 120.6277 476.171 125.5241 475.474 130.9212 468.2058 142.7171 468.4548 150.9519 463.3272 154.4016 463.1778 157.4619 458.9464 156.4603 450.6825 161.2454 445.9034 166.0862 446.1025 166.3087 446.1025 166.42 445.7043 167.0877 445.0073 M 435.3875 186.2893 432.5499 184.9452 430.1017 187.8823 429.8791 182.8046 420.3089 181.1617 418.3058 184.6963 414.1328 181.8089 409.1807 183.6509 406.6213 179.967 400.779 177.8761 401.1685 179.4194 399.2767 179.6683 399.388 176.4822 395.2705 177.2289 393.3787 174.939 390.708 176.1337 388.2042 172.8979 387.0913 175.0883 382.9183 173.6446 377.7437 178.7722 370.7886 176.3329 368.8968 177.4779 366.5599 175.387 363.8335 176.2333 361.8304 171.9023 358.2138 173.6944 357.3235 171.2053 359.9386 163.2402 361.4966 163.6384 362.6094 160.7013 364.8907 161.0497 360.1056 157.0174 358.3807 158.013 355.9325 150.6453 354.4302 152.4374 353.8738 152.4872 349.9789 152.1885 345.1938 149.5998 345.8615 145.667 356.322 142.1823 357.3235 139.5936 353.4287 138.1001 354.3189 137.901 363.6666 142.481 374.127 139.494 374.9617 139.9919 376.297 142.9788 379.0791 143.7255 382.1393 141.8338 382.028 136.6067 385.4221 138.2495 387.3139 136.7062 386.368 132.3254 388.8718 129.9857 394.8254 133.4206 403.8949 133.7193 404.0061 133.57 404.1174 133.4704 405.5641 131.6782 405.3415 127.2476 403.6723 119.5812 400.612 115.5488 406.2318 114.3043 410.683 108.6291 410.683 99.1705 413.2981 98.0255 416.0245 92.3005 422.8684 96.2333 428.3212 96.6316 430.9363 94.1923 438.2252 94.8394 442.1201 96.8805 441.5637 98.4237 444.2344 101.56 M 303.9084 169.6621 304.8543 168.8655 305.8002 169.1145 310.0289 164.2358 318.6532 160.8506 318.987 160.7013 315.2591 156.3204 316.5945 154.13 327.7783 153.682 331.7844 148.9029 337.5154 148.7535 338.4613 143.3771 349.7007 143.4268 345.8615 145.667"/>
</g>
</svg>