<?xml version="1.0"?>
<svg xmlns="http://www.w3.org/2000/svg" version="1.2" baseProfile="tiny" width="800" height="671" viewBox="0 0 800 671" stroke-linecap="round" stroke-linejoin="round">
<g id="JK" fill="none" stroke="black" stroke-width="1">
<path d="M 284.7823 99.291 273.881 118.0986 273.5331 133.2203 257.8769 142.4824 258.9207 145.6012 256.7172 149.2871 250.3388 148.8146 253.586 154.4852 249.295 157.4151 248.0193 161.668 237.8138 161.479 234.3347 165.8265 232.4791 174.616 226.3327 182.0823 216.707 185.8627 214.9674 183.689 205.9217 183.0274 187.7141 188.4145 183.3072 195.9754 179.944 196.9205 177.7406 206.3716 171.826 207.0331 159.649 201.7405 149.9074 206.088 141.9054 202.5911 140.7457 199.4723 132.0478 199.1887 131.236 191.6279 127.177 192.1004 126.2492 190.0212 129.9603 185.3902 122.6541 181.4208 112.2167 187.5639 99.2279 182.0823 95.0529 184.6341 88.2106 180.6647 87.2828 174.0489 99.6918 163.4637 107.3459 163.8418 119.4069 157.6986 118.3632 150.2322 120.4507 144.7506 136.5707 127.6442 135.527 123.2022 131.6999 122.9187 130.1923 119.9889 130.1923 114.7908 139.354 102.2209 145.7325 103.0715 151.8789 100.8032 160.2289 103.733 169.7386 101.9373 170.4344 107.5135 176.8128 110.9158 181.7996 102.8824 211.3723 87.7607 219.8383 78.4987 224.0132 79.5383 274.6928 81.8066 284.3184 85.4925 286.058 90.6906 284.7823 99.291 286.058 89.7455 298.0031 99.4801 317.2543 105.6232 340.7965 107.5135 344.5076 104.8672 348.1027 107.7025 362.4832 107.5135 384.9817 116.3029 394.4914 116.2084 398.4344 113.3731 411.0753 111.4829 436.3571 115.8304 440.3001 121.0285 450.9695 124.9979 464.1902 138.891 455.3764 161.3845 467.6694 168.0002 457.5799 179.5305 453.6368 177.3568 444.707 178.0184 440.764 174.7105 435.8932 176.5062 426.7314 172.6313 425.2238 179.058 415.1343 182.5549 400.058 174.1434 395.1872 168.0948 386.1414 164.8814 383.9379 161.101 370.8332 158.7382 366.0783 154.4852 356.4527 158.1711 354.4812 161.7625 354.7131 166.6771 358.6562 169.2289 354.8291 175.3721 348.7986 176.7897 342.3042 182.1768 330.3591 183.311 325.1404 189.7377 319.8057 189.6432 314.1231 182.2713 299.0468 178.0184 301.4822 187.753 300.0905 198.1491 296.8433 197.4876 296.3795 200.6064 300.0905 202.4966 298.4669 205.8045 299.8586 210.2465 310.296 220.0756 304.2655 222.5329 300.3225 219.8866 294.4079 222.0603 294.4079 217.5238 279.5636 219.5085 278.7518 215.9171 284.8983 209.2069 279.2157 207.9782 274.9247 211.2861 275.5046 208.6398 266.2269 193.7071 272.2574 169.0399 261.472 158.7382 255.6734 163.5582 248.0193 163.8418 249.295 157.4151 M 253.586 154.4852 250.1068 149.0981 256.7172 149.2871 M 279.2157 207.9782 285.0142 209.6794 279.0997 215.3501 279.3316 219.3195 294.4079 217.5238 M 300.3225 219.8866 309.9481 223.478 311.2238 227.4474 308.5565 229.9047 310.6439 232.362 307.0488 230.8498 289.885 236.7095 277.708 247.4837 274.4608 247.7672 272.0254 252.3982 261.0081 250.4135 260.5443 253.5323 265.0671 255.8006 256.4852 262.5109 258.9207 273.2851 252.7742 279.2392 245.236 282.0745 244.6562 285.0989 241.177 285.7605 235.3784 276.782 218.9105 274.2302 215.7792 265.5352 208.3571 267.3309 202.4425 258.6359 196.1801 256.5567 186.3225 257.8798 174.4934 252.8708 167.3032 259.1085 155.0102 259.203 151.0671 263.3614 145.0366 259.203 133.7874 259.77 121.4944 252.1147 119.7548 246.6331 122.6541 238.6942 127.5249 238.4106 128.6846 230.4718 136.5707 227.4474 146.4283 218.7524 145.0366 216.0116 147.0081 211.3806 141.9054 202.5911 150.8352 206.1825 159.649 201.7405 M 234.3347 165.8265 238.1617 161.1955 245.0041 160.8174 248.9471 164.3143 255.6734 163.5582 260.0804 158.5492 264.3713 159.7778 266.9227 163.5582 273.0692 171.3081 266.4588 194.1797 274.1129 205.899 274.9247 211.2861 M 426.7314 172.6313 435.5453 176.5062 441.5758 174.8995 444.707 178.0184 M 453.6368 177.3568 457.116 179.625 465.118 171.6862 468.8291 172.2532 468.2492 175.6556 470.9166 177.2623 468.8291 181.6098 473.5839 188.2255 472.6562 194.1797 477.411 197.1095 491.7915 197.5821 497.1261 208.7343 489.8199 214.594 476.7152 207.7892 474.8596 212.7038 468.5972 215.161 458.9715 213.2708 443.0834 203.2527 435.3133 208.6398 428.8189 209.6794 424.8759 217.3348 416.294 214.972 409.5677 217.6183 412.4669 220.4536 410.2635 223.9505 397.0427 224.8956 392.5198 222.5329 382.6623 225.8407 363.7589 215.9171 360.9756 222.3438 350.1902 220.9262 344.9715 234.6302 337.3174 232.1729 338.2452 228.487 329.1994 223.5725 325.3723 230.7553 330.3591 236.2369 325.9522 236.4259 316.2106 223.5725 314.9349 225.1792 312.6155 223.478 299.8586 210.2465 M 354.8291 175.3721 358.6562 169.6069 354.4812 166.11 356.4527 158.1711 366.3103 154.4852 370.8332 158.7382 M 489.8199 214.594 498.1699 208.4508 510.8108 213.8379 516.6094 213.1763 520.2045 217.0512 514.7538 226.8804 510.115 227.0694 507.0997 231.7949 504.2004 241.3405 505.2442 249.1849 502.8087 252.7763 485.1811 254.3829 482.0498 259.014 483.3255 263.1724 481.238 267.3309 472.8881 272.529 472.8881 286.7056 476.5992 289.0683 480.6582 300.2206 488.6602 312.1289 493.647 314.3972 489.3561 320.8239 502.8087 330.653 500.0254 334.6224 501.765 345.2076 500.2574 350.9728 504.6643 357.494 496.3143 369.1188 501.3011 374.2224 493.1831 375.451 493.531 377.8138 487.9644 381.6887 492.3713 392.2739 491.6755 405.1274 489.0081 403.8042 484.2533 410.0419 478.8026 409.2858 473.236 413.0662 469.8728 413.4443 469.061 409.9474 457.8118 405.6944 432.8779 381.3107 421.2808 375.64 413.1628 375.64 419.6572 360.3293 421.5127 360.3293 418.6134 358.8172 417.8016 360.8019 411.5392 360.5184 412.5829 355.8873 407.4802 355.0367 404.8128 350.2167 405.9725 343.601 410.0315 343.601 403.885 340.8601 404.5809 339.159 406.4364 337.4578 408.8718 340.8601 410.7274 338.4974 409.1038 336.4181 411.8871 335.1895 409.1038 332.7322 410.7274 330.7475 406.0885 327.9122 409.9156 326.211 408.6399 319.0282 401.5656 319.1227 400.4059 315.3423 396.5788 315.3423 399.942 321.2019 401.9135 336.9852 399.2462 332.8267 398.2024 318.7447 393.7955 317.8941 393.5636 315.8148 386.8372 315.3423 386.9532 312.6015 391.5921 310.8058 390.3164 307.3089 393.6796 305.9857 393.2157 303.1504 395.6511 301.5437 390.8962 298.7084 398.8983 298.8029 403.6531 294.4554 408.4079 295.7786 413.5107 293.8884 418.7294 287.6507 425.4557 286.422 433.3418 273.7576 432.0661 260.1481 435.1974 256.1786 431.4863 254.95 428.355 247.4837 416.5259 245.4989 412.6989 238.8832 414.6704 235.1028 412.235 230.6608 402.9573 227.2584 405.1607 226.2188 404.6968 223.3835 410.2635 223.9505 M 435.3133 208.6398 443.5473 203.4417 458.9715 213.2708 M 505.2442 249.1849 505.4761 235.8589 509.3032 227.92 514.7538 226.8804 520.9003 216.2952 535.0488 207.6947 544.0946 210.6245 541.7752 226.2188 547.8057 236.6149 556.1556 240.9624 561.9542 250.6025 568.4486 253.6269 573.0875 253.0598 583.061 259.581 581.7854 270.8278 583.5249 268.654 602.1963 266.6693 611.0102 268.654 610.6623 263.2669 620.7518 264.3066 626.7823 280.3734 638.4954 292.7542 648.353 299.2755 655.5432 311.9399 676.1862 320.7294 679.3174 327.0616 678.2737 339.2535 682.5646 343.3174 679.2014 347.6649 669.4598 350.8783 672.1272 356.7379 668.3001 357.7775 670.0397 360.8964 668.532 363.1646 663.8932 365.1494 668.532 370.1584 673.4028 370.7255 676.6501 366.0945 686.8555 365.5274 688.5951 364.0152 686.0437 358.2501 687.6673 355.6038 691.6104 357.305 694.6256 355.4148 700.0763 357.116 705.179 363.2592 705.0631 369.0243 715.9644 372.6157 721.647 366.6615 724.8942 370.7255 723.6185 373.3718 733.824 377.6248 735.2157 381.5942 744.8413 389.8166 749.5961 389.3441 752.4954 398.7951 760.4975 395.5818 763.5127 396.7159 770.703 415.1455 779.2848 421.8557 784.3876 421.6667 789.0264 437.639 799 442.8371 791.3459 456.9192 783.9237 456.4466 767.6877 460.8886 761.1933 458.0533 757.3662 450.587 749.1322 449.6419 730.1129 456.9192 712.0214 455.218 684.1882 474.8762 685.2319 484.8943 681.057 490.2814 673.7508 494.0618 667.7202 494.1564 665.6328 477.806 660.762 476.2938 651.7162 462.5898 644.294 458.1478 641.8586 457.8643 643.0183 461.0776 638.6114 470.6232 615.0692 478.5621 611.4741 472.4189 608.3428 473.9311 605.9074 469.7726 602.4283 475.3487 594.0783 470.3397 582.3652 469.6781 575.059 465.8977 569.4924 466.8428 569.2604 461.6447 543.2828 442.9316 532.4975 442.3645 522.292 438.7731 507.3316 422.1393 499.9095 409.5694 491.4435 407.3011 492.3713 392.2739 M 472.8881 286.7056 473.5839 279.9008 471.8444 278.3886 473.12 272.1509 481.238 267.3309 M 397.0427 224.8956 404.4649 224.045 405.1607 226.2188 M 402.9573 227.2584 412.351 230.9443 414.6704 235.1028 M 412.6989 238.8832 415.9461 243.7978 397.5066 236.2369 390.6643 240.3954 392.8678 242.4746 391.4761 243.4197 385.7935 243.1362 385.6775 246.1605 379.4151 246.5386 380.2269 249.0903 377.7915 250.6025 362.3672 257.7853 359.352 256.5567 360.1638 258.7304 356.2208 259.9591 356.2208 255.7061 348.3347 253.7214 342.0722 246.8221 334.1862 247.3892 322.3571 239.8283 320.0376 235.6698 318.2981 237.371 313.8911 236.0479 308.5565 229.9047 M 309.9481 223.478 304.9613 222.3438 310.296 220.0756 314.8189 225.1792 316.2106 223.5725 324.6765 235.1973 329.5473 237.182 330.2431 235.2918 325.3723 230.7553 M 360.9756 222.3438 363.9908 218.847 362.2513 216.4842 365.1506 215.9171 369.5575 220.1701 382.6623 225.8407 M 356.2208 259.9591 359.8159 258.9194 356.1048 261.4712 356.8006 265.1571 342.1882 279.9008 337.5493 288.9738 337.0855 295.6841 330.4751 302.9614 331.7508 305.0406 326.9959 306.1748 325.9522 308.9156 319.4578 306.0802 314.8189 309.5771 306.7009 309.4826 291.9725 322.5251 291.8566 324.9824 281.4191 329.8969 278.056 336.3236 271.6775 338.8754 272.4893 336.5127 263.3276 333.3938 262.7477 329.8969 251.1506 321.8635 250.3388 319.6898 255.0936 314.8697 247.7874 308.5375 248.3672 305.5132 241.177 300.8822 239.2055 291.6201 242.1048 290.5805 240.7131 288.5958 244.7721 282.4526 252.7742 279.2392 M 289.885 236.7095 307.3967 230.8498 314.587 236.3314 320.0376 235.6698 M 432.0661 260.1481 433.2258 274.2302 425.4557 286.422 419.3093 287.3671 413.8586 293.6994 408.4079 295.7786 M 398.8983 298.8029 392.056 298.0468 395.6511 301.5437 M 393.6796 305.9857 388.9247 308.443 380.3428 307.8759 379.2991 310.9948 375.472 308.5375 371.9929 312.0344 365.9624 312.7905 362.2513 307.7814 351.002 313.4521 346.0153 311.3728 351.118 307.2144 344.7396 306.2693 338.5931 314.8697 333.6063 311.5619 327.5758 313.5466 323.4008 309.4826 312.3835 312.9795 313.3113 309.1991 318.9939 306.2693 325.9522 308.9156 M 356.1048 261.4712 360.1638 258.7304 359.236 256.6512 362.3672 257.7853 M 385.7935 243.1362 391.1282 243.6087 392.8678 242.4746 M 390.6643 240.3954 397.8545 236.2369 416.5259 245.4989 M 272.4893 336.5127 272.3733 341.0492 266.9227 348.1375 268.6623 354.0916 265.647 358.0611 268.8942 365.6219 265.9949 368.6463 271.3296 374.884 279.4476 377.5303 279.4476 383.5789 271.7935 384.4295 271.6775 389.4386 268.8942 388.777 259.8484 377.4358 243.9603 365.5274 228.1882 362.125 222.8535 365.1494 216.823 364.8658 211.6043 370.7255 206.7335 369.7804 204.1821 371.9541 202.0946 368.8353 193.9766 370.9145 198.0356 384.0515 188.0621 400.3073 184.0031 402.4811 178.6684 390.8563 181.6836 379.4205 179.3642 372.0486 180.9878 370.9145 159.881 369.5914 155.1261 365.5274 153.6185 360.1403 148.1679 356.3599 140.3978 356.7379 133.4395 352.674 125.7854 356.7379 108.7375 359.4787 100.8515 352.674 89.9502 354.0916 83.9196 351.3508 84.4995 358.6281 81.3683 361.0854 73.2503 350.5002 60.4934 345.6802 55.6226 340.2931 50.6358 333.8664 48.2004 321.6745 40.8942 316.2874 47.8525 291.0531 45.3011 284.8154 38.3428 279.9008 31.9644 267.2364 24.0783 229.7157 30.3408 227.1639 34.8637 228.0145 49.2442 244.3648 52.3754 246.444 55.9705 242.5691 59.6816 247.7672 66.8718 249.2794 73.3662 245.0264 105.9542 244.1758 111.057 247.9562 119.8708 248.3343 121.4944 252.1147 M 218.9105 274.2302 235.6104 276.971 242.9166 285.7605 238.9736 293.5103 241.8728 297.3853 241.177 300.8822 M 388.9247 308.443 389.1567 306.6473 391.824 309.5771 386.9532 312.6015 388.9247 317.6105 384.2859 325.2659 379.9949 322.4306 379.763 324.9824 368.5137 325.0769 371.9929 335.7566 370.1373 338.4974 371.9929 338.7809 364.9186 344.6406 363.295 341.8998 358.0763 342.5613 359.352 345.2076 349.7263 352.2959 339.5209 345.0186 329.8952 344.7351 327.9237 347.2869 326.9959 342.8449 329.5473 339.4425 317.9502 342.3723 316.2106 337.6468 304.7294 333.6773 296.9593 336.7962 288.2614 335.6621 286.174 338.8754 277.94 336.1346 281.1872 329.9914 291.8566 324.9824 M 306.7009 309.4826 312.6155 310.1442 312.7314 313.074 323.4008 309.4826 M 333.6063 311.5619 338.3611 314.9642 344.7396 306.2693 M 396.5788 315.3423 398.6663 314.6807 401.5656 319.1227 407.944 317.6105 409.9156 326.211 M 409.1038 332.7322 411.8871 334.906 409.1038 336.4181 M 421.5127 360.3293 415.8301 368.0792 414.9023 366 410.4954 366.567 409.3357 364.3933 412.5829 362.2195 405.9725 359.2897 404.233 364.5823 395.6511 370.631 403.0732 380.1766 399.4781 382.7283 370.0214 378.3809 365.8464 383.5789 360.2798 382.1613 354.3652 385.9417 331.8667 389.4386 329.8952 384.6186 323.0529 384.0515 311.5717 375.3565 304.8454 380.2711 299.0468 380.082 297.4232 378.0028 295.1038 380.9326 287.2177 382.7283 283.2747 379.2315 279.7955 379.704 277.708 375.8291 271.0977 374.7895 265.9949 368.6463 M 266.9227 348.1375 269.2421 347.6649 271.6775 338.8754 276.5483 336.6072 286.174 338.8754 M 379.9949 322.4306 383.9379 325.4549 388.9247 317.6105 387.4171 315.3423 398.2024 318.7447 M 259.8484 377.4358 269.0102 388.777 271.6775 389.4386 M 271.7935 384.4295 279.3316 383.6735 279.7955 379.704 292.0885 382.3503 294.176 384.9966 292.9003 389.1551 286.174 391.3288 290.233 395.3928 301.7141 397.661 301.1343 405.6944 306.0051 414.4839 302.294 417.2247 297.1913 417.0357 297.0753 423.0844 302.178 428.566 298.0031 435.4653 307.5127 442.1755 305.5412 452.4772 300.0905 455.8796 290.6968 451.2485 287.5656 454.0839 278.1719 451.8156 279.5636 455.029 274.9247 457.1082 270.4018 453.9893 267.1546 455.407 267.5025 458.1478 272.7213 460.6996 280.8393 463.3459 285.826 462.3063 292.6684 465.8032 289.1892 469.9616 291.9725 474.5927 293.7121 473.9311 290.9288 475.4433 293.944 477.5225 286.6378 478.1841 283.6226 483.3821 276.7803 483.5712 275.5046 487.4461 280.6073 494.6289 279.3316 499.2599 273.9969 502.9458 267.0387 495.763 249.7589 495.9521 250.1068 499.1654 230.6236 510.6957 223.2014 510.0341 218.7945 497.7478 220.0702 491.9826 183.0753 481.3029 186.0905 476.9554 181.6836 473.7421 179.1322 466.3702 164.056 458.0533 160.2289 453.4223 149.2116 450.8705 144.8047 447.9407 143.9929 443.1206 145.7325 437.9225 177.0448 425.7307 178.4364 418.3588 182.6114 415.429 177.6246 411.176 176.3489 405.6944 188.0621 400.3073 M 216.823 364.8658 231.6673 362.8811 243.9603 365.5274 M 415.8301 368.0792 413.1628 375.64 M 469.061 409.9474 466.3937 426.6758 462.2187 429.1331 468.7131 451.5321 462.7986 463.5349 458.9715 465.9922 462.2187 474.9707 464.6541 476.0103 464.0743 483.0986 450.0417 475.4433 437.6328 477.9005 434.5015 475.1597 434.8494 463.7239 430.7904 462.2118 422.6724 464.0075 414.4385 456.2576 408.7558 456.9192 402.9573 453.4223 401.9135 455.6905 399.4781 452.2882 388.8087 450.4925 391.5921 442.8371 384.4018 441.2304 386.1414 433.5751 384.1699 425.6362 387.649 418.6424 394.1434 414.862 382.1984 401.0634 388.5768 395.1092 383.822 382.9174 388.2289 380.3656 399.4781 382.7283 M 395.6511 370.631 407.8281 359.5732 412.8149 362.9756 409.7996 365.9055 414.9023 366 M 370.0214 378.3809 380.9227 380.4601 383.2421 378.9479 385.9095 381.2162 383.9379 386.0362 388.5768 395.1092 M 391.5921 442.8371 388.5768 450.3034 399.4781 452.2882 M 401.9135 455.6905 398.3184 460.7941 391.94 463.7239 386.9532 475.5378 399.7101 483.5712 396.3469 487.2571 391.4761 486.0284 385.4456 488.2967 389.1567 493.9673 379.9949 497.9368 381.3866 502.3788 377.6755 509.1835 381.6185 514.7597 371.413 515.7048 370.8332 523.9272 368.0498 522.7931 368.7457 524.4943 364.4547 525.4394 359.236 517.3115 355.6409 517.406 353.7854 509.4671 350.3062 510.4122 344.7396 501.7172 338.5931 501.6227 331.6348 491.5101 318.0661 485.1778 311.8037 487.2571 303.6857 484.8943 303.5697 488.1077 298.235 493.4003 294.4079 494.2509 291.9725 491.8881 290.6968 499.1654 297.3072 503.9855 287.4496 509.6561 286.9858 512.0189 287.9135 502.2843 282.2309 498.5038 287.3337 495.8575 284.2024 494.2509 284.2024 491.132 278.8678 492.4552 275.5046 487.4461 M 276.7803 483.5712 285.3622 482.5315 286.6378 478.1841 M 305.5412 452.4772 307.5127 442.3645 298.0031 435.4653 M 290.233 395.3928 286.5219 389.9112 292.4364 389.7221 294.176 384.9966 M 292.0885 382.3503 297.4232 378.0028 M 299.0468 380.082 304.6134 380.2711 312.0356 375.7346 323.0529 384.0515 M 611.4741 472.4189 615.5331 478.6566 638.6114 470.6232 M 643.0183 461.0776 641.8586 457.7698 649.0488 460.3216 660.762 476.2938 665.9807 478.4676 667.7202 494.1564 658.5585 494.2509 654.3835 497.5587 641.9746 497.6532 641.7426 502.0007 636.292 509.4671 625.8545 514.0036 623.0712 518.7291 604.6317 528.9363 597.7894 521.1864 580.1617 515.6103 569.2604 526.0064 559.8667 525.1558 554.648 528.5582 543.1668 528.1802 540.6155 531.5826 535.7447 517.6895 520.0885 511.3573 516.8413 512.0189 512.5504 507.2933 505.5921 511.4518 502.6928 508.9945 486.4568 508.6165 475.9034 496.6136 474.8596 485.2724 464.6541 482.437 464.6541 476.0103 M 466.3937 426.6758 469.5249 413.6333 478.8026 409.2858 M 484.2533 410.0419 486.3408 405.5999 490.0519 404.1823 491.4435 407.3011 M 230.6236 510.6957 240.0173 506.0647 250.1068 499.1654 M 267.0387 495.763 275.1567 502.7568 280.0275 498.3148 278.9837 492.5497 283.7386 491.132 287.3337 496.0466 282.2309 498.5038 M 287.9135 502.2843 287.2177 512.0189 287.4496 509.6561 M 359.236 517.3115 364.8026 525.7229 368.7457 524.3997 368.0498 522.7931 M 371.413 515.7048 373.9644 514.3816 382.3143 524.9668 405.8566 539.805 410.7274 543.8689 410.2635 547.7439 416.7579 549.256 419.0773 554.2651 410.2635 558.4236 410.2635 560.9754 406.2045 560.4083 401.4496 565.4173 392.6358 560.3138 390.0844 563.7162 383.2421 562.8656 380.8067 559.4632 370.2533 567.4966 370.8332 573.7343 356.5687 581.1061 352.1617 592.4474 355.061 594.0541 360.1638 587.3438 364.4547 591.7858 361.4395 594.4321 370.0214 595.6607 366.4262 596.7949 369.5575 600.7643 363.295 600.4808 362.9471 602.749 365.7304 603.2216 362.2513 605.6789 357.6124 604.3557 356.8006 608.4197 360.7436 610.9715 354.0173 611.8221 349.2625 620.139 337.6653 617.2092 335.8098 621.6512 312.9634 622.5018 311.9196 618.6268 304.8454 618.8158 307.2808 609.4593 300.4385 606.0569 300.3225 604.1667 302.9898 604.4502 302.9898 600.7643 298.119 601.993 297.1913 596.7004 299.7426 594.0541 295.5677 593.3925 294.7558 590.1791 298.9308 589.5176 298.5829 584.5085 302.294 584.225 308.3245 579.0269 301.4822 575.53 298.351 570.5209 300.7864 563.7162 298.8149 563.1491 310.528 541.3171 310.528 536.4026 301.4822 540.4665 299.0468 538.5763 293.8281 543.9634 299.7426 549.1615 293.3642 551.9968 294.7558 557.6675 289.885 555.3992 280.9552 558.5181 277.1282 555.5882 273.5331 558.9906 272.2574 557.3839 265.531 559.3687 264.9512 554.6431 258.8047 554.4541 252.7742 548.9725 248.9471 548.7835 246.7436 540.9391 241.9888 536.9697 241.409 523.6437 230.9715 518.3511 220.882 517.8785 216.823 514.4761 223.2014 510.0341 M 408.7558 456.9192 414.9023 456.4466 422.6724 464.0075 M 430.7904 462.2118 435.3133 464.0075 434.5015 475.1597 M 450.0417 475.4433 458.3917 481.681 474.7436 485.1778 475.9034 496.6136 M 505.5921 511.4518 512.2024 507.1043 516.8413 512.0189 534.353 516.5554 543.2828 536.4026 540.4995 541.6007 542.355 547.6494 534.353 552.9419 521.1322 554.0761 516.9573 559.7467 M 468.1333 570.2374 468.5972 576.4751 465.6979 575.341 468.0173 577.6092 464.7701 579.783 463.8423 577.1367 M 457.9278 578.2708 447.2584 583.5634 436.3571 580.539 434.0376 585.5481 424.9919 585.4536 425.8037 582.2402 431.1384 579.783 430.7904 573.0727 422.6724 569.7648 418.6134 564.1887 408.9878 568.7252 401.5656 566.0789 405.5086 560.8808 410.2635 560.9754 M 410.2635 558.4236 418.8454 554.6431 416.7579 549.256 410.6114 548.0274 410.7274 543.8689 387.881 529.5033 374.7762 516.1773 381.6185 514.7597 M 396.3469 487.2571 399.5941 483.7602 386.9532 475.6323 391.94 463.7239 M 398.3184 460.7941 402.9573 453.4223 M 392.6358 560.3138 398.8983 562.204 401.7976 566.3625 408.9878 568.7252 415.4822 564.2832 420.237 564.5668 422.5565 569.5758 431.4863 574.0178 431.1384 579.783 M 424.9919 585.4536 433.6897 585.6426 436.3571 580.539 439.1404 580.7281 445.5188 582.5238 447.9542 586.3042 455.6083 588.3834 460.4791 592.9199 459.2035 598.7796 445.8667 598.9686 440.648 606.5295 446.9105 612.8617 M 433.8057 628.3614 441.1119 620.0445 442.0397 613.0507 446.9105 612.8617 440.4161 607.002 445.7508 599.0631 454.5646 600.1027 460.8271 597.0784 457.5799 589.8956 447.9542 586.3042 446.9105 583.5634 457.9278 578.2708 461.2909 578.1763 461.175 579.972 463.8423 577.1367 465.9298 579.1214 468.1333 577.4202 465.6979 575.341 467.9013 576.7586 469.061 575.0574 468.1333 570.2374 472.5402 577.5147 477.411 574.5849 480.6582 579.0269 484.3693 576.2861 488.3123 578.0818 492.1394 573.9233 491.9074 567.6856 496.5463 554.5486 509.999 552.9419 511.5066 556.6279 516.9573 559.7467 517.885 555.8718 524.9593 552.4694 534.353 552.9419 542.471 547.5548 540.4995 541.6007 543.5148 537.5367 540.6155 531.5826 543.1668 528.1802 553.9522 528.7472 561.1424 525.0613 568.7965 526.1009 573.8993 533.5673 588.1638 543.3964 589.7874 550.2957 598.1373 559.0851 589.5554 581.0116 594.0783 579.4049 596.2818 582.8073 600.5727 582.0512 599.0651 585.9262 596.3978 585.5481 592.4547 594.9992 587.468 596.5113 587.468 600.1973 584.6846 601.8984 586.3082 605.0173 578.1902 611.3495 576.1027 616.075 562.6501 625.3371 551.6328 627.9834 551.8647 631.2912 555.2279 632.8979 551.6328 632.8034 550.1251 639.1356 547.5738 637.8125 541.7752 642.6325 520.5524 645.6569 511.8545 650.4769 507.0997 655.3914 507.7955 662.6688 506.056 668.9065 503.8525 669.568 498.6338 665.9766 500.6053 662.1017 493.531 659.1719 493.0671 655.864 496.5463 654.3518 495.2706 653.1232 490.3998 654.8244 490.1679 657.9432 481.586 660.2115 460.4791 653.1232 458.1597 657.6597 455.9563 653.5012 447.9542 650.8549 448.1862 647.358 440.764 647.0745 440.4161 642.916 437.7487 644.0502 430.0946 639.8917 429.2828 641.6874 425.4557 640.1752 425.2238 637.718 434.8494 633.0869 433.8057 628.3614 433.6897 634.3156 427.1953 636.5838 424.1801 634.1266 416.178 635.3552 411.0753 638.3795 409.9156 634.7881 411.6551 633.843 405.5086 626.2822 405.5086 623.0688 400.174 624.2029 386.3733 617.6817 384.2859 624.8645 376.3998 628.6449 372.8047 626.3767 367.7019 629.3065 365.7304 623.7304 360.9756 625.4316 351.118 622.1237 354.0173 611.8221 M 357.6124 604.3557 362.4832 605.5844 365.7304 603.2216 M 363.295 600.4808 366.5422 601.8039 369.9054 599.4412 366.4262 596.7949 M 352.1617 592.4474 355.177 588.667 355.8728 582.4293 370.8332 573.7343 M 370.2533 567.4966 381.5025 559.7467 383.3581 562.8656 390.0844 563.7162 M 427.5432 576.9476 428.471 579.783 416.7579 576.1916 413.2787 571.466 415.9461 570.8045 427.5432 576.9476 415.2503 570.7099 413.2787 571.466 M 112.2167 187.5639 113.8403 184.8231 117.3194 185.8627 122.6541 181.4208 125.0895 182.3659 129.9603 185.3902 M 131.236 191.6279 130.3082 197.015 132.0478 199.1887 141.7894 200.2284 147.0081 211.3806 145.3845 220.2646 128.6846 230.4718 M 122.6541 238.6942 119.8708 248.3343 95.4008 243.7032 73.3662 245.0264 69.4232 248.6178 62.9288 248.6178 55.9705 242.5691 M 24.0783 229.7157 25.1221 211.9477 19.6714 204.4813 21.6429 195.4083 19.0916 194.0852 15.8444 198.2436 15.7284 193.8016 8.8861 183.7835 9.002 180.5702 3.5514 179.436 1 175.5611 5.2909 172.7258 7.9583 165.4485 8.4222 152.9731 12.0173 145.0342 10.1617 141.0647 14.4527 128.5893 32.0804 128.4948 40.1984 124.0528 54.5788 125.8485 59.5656 130.4795 62.233 130.007 64.4364 120.0834 72.9023 109.7817 65.944 106.9464 66.176 102.5989 85.5432 78.4987 91.1099 76.2304 102.3591 76.4195 109.0855 71.3159 113.1445 72.7336 121.1465 70.2763 125.0895 72.072 129.2645 67.5355 135.9908 65.6453 138.4262 60.0691 151.531 57.1393 154.7782 46.7431 161.8525 42.4902 158.6053 29.8257 169.8545 23.7771 159.9969 16.9723 166.8393 5.442 176.001 2.8902 182.9593 7.9938 196.9919 7.9938 198.0356 12.4358 203.3703 12.4358 204.1821 19.4296 207.8932 19.9966 214.6195 17.7284 217.1709 14.137 234.1027 14.704 245.8159 1.6616 255.9054 1 265.9949 5.9146 271.5615 14.326 270.6338 20.8472 282.9268 25.9508 279.2157 36.2525 280.3754 49.2949 278.2879 58.1789 269.4741 61.9593 263.5595 60.3527 252.3103 62.999 241.9888 75.4744 237.8138 74.4347 219.8383 78.4987 M 178.6684 390.8563 183.4232 401.2524 176.3489 405.6944 M 178.4364 418.3588 178.3204 423.5569 175.4212 426.7703 145.7325 437.9225 144.8047 447.9407 151.1831 452.0046 160.2289 453.4223 M 246.7436 540.9391 250.4547 550.1066 240.1333 550.3902 234.7986 556.2498 227.8403 554.9267 217.1709 548.1219 215.4313 540.8446 195.6002 535.6465 192.1211 529.6923 186.3225 526.7625 158.4893 520.6193 155.822 515.1377 141.6734 514.3816 143.7609 508.6165 137.0346 506.4427 134.5992 502.2843 104.3306 497.4642 99.3438 505.6866 94.1251 507.2933 92.5015 505.2141 94.705 499.638 84.0356 489.9979 82.0641 483.5712 71.0468 478.3731 56.7823 478.0895 56.4344 466.2757 63.5086 459.3764 63.8566 450.2089 59.9135 445.8614 57.0142 448.4132 56.2024 443.4987 51.5636 440.0018 49.824 432.6299 51.2157 429.7001 45.9969 422.3283 48.0844 419.871 42.1699 418.5479 43.4456 415.3345 40.4303 412.4992 41.9379 406.356 48.2004 399.8348 46.1129 398.1336 47.3886 394.8257 56.0865 391.5178 53.3032 386.1307 50.6358 386.6033 49.4761 381.4052 52.4914 381.3107 51.9115 376.7742 58.058 373.6553 54.6948 371.1035 55.1587 364.0152 50.4039 359.5732 51.0997 356.1709 47.7365 356.9269 41.1261 352.9575 42.9817 348.3265 41.59 340.1041 49.708 330.5585 60.4934 345.6802 75.1058 352.674 81.3683 361.0854"/>
</g>
</svg>