<?xml version="1.0"?>
<svg xmlns="http://www.w3.org/2000/svg" version="1.2" baseProfile="tiny" width="800" height="1218" viewBox="0 0 800 1218" stroke-linecap="round" stroke-linejoin="round">
<g id="KA" fill="none" stroke="black" stroke-width="1">
<path d="M 596.3901 155.2734 584.9482 155.3311 585.0656 153.3695 581.545 152.4464 578.1418 154.6387 572.8609 153.3118 570.5725 151.3502 566.4651 147.7155 566.2304 147.6578 552.8522 146.7924 551.2679 149.7348 544.4028 146.7347 540.1194 137.0998 539.826 137.2729 532.9022 142.0038 528.0907 139.523 524.0421 140.1576 523.866 138.196 520.9322 138.6575 516.1794 135.4844 513.715 138.3114 515.534 142.1769 507.2019 150.8886 503.7987 150.6002 503.2119 148.2924 505.2069 145.8116 501.4516 146.2731 499.8674 144.5423 481.0909 143.0423 478.5091 146.1001 477.0422 144.2538 477.629 140.6191 470.4118 140.8499 467.1259 145.5808 464.4268 144.9462 464.6615 144.5423 466.1871 142.1769 466.5391 141.5999 463.84 141.5422 463.6053 141.4845 463.6053 141.3692 462.0797 137.9075 462.9599 138.1383 463.3706 136.0613 463.8987 133.1766 464.5441 129.9458 464.6615 129.8881 469.5903 128.0996 467.1259 120.4263 475.5753 119.3301 480.6215 112.3491 476.5728 107.7913 471.4093 106.9836 471.7026 99.368 476.6901 99.0796 477.9224 103.2335 483.0859 104.5028 483.1446 104.4451 484.1421 101.5604 487.8387 101.8489 489.3643 99.4834 497.2856 100.2911 500.2781 96.2526 503.4466 96.4256 501.0409 79.8098 502.6251 75.3097 509.3143 74.4443 508.0821 66.8287 511.8374 64.1171 503.6813 60.5978 505.735 57.8861 504.3268 55.5784 505.6763 53.2706 507.554 53.8476 509.2556 48.1936 516.1207 47.8474 517.9984 53.0399 521.9297 53.4437 521.871 50.3859 523.69 49.2898 527.0346 50.8475 529.1469 54.8284 537.4203 54.0207 537.4203 53.963 537.9484 52.8091 538.5351 51.4821 538.4178 51.309 535.1319 46.6935 544.6962 43.0588 544.1681 39.1933 547.9234 35.2702 548.8035 31.0585 555.5513 31.8662 553.1456 25.5776 556.6662 23.7891 558.4851 19.8082 556.8422 19.6351 557.8397 16.8081 561.4776 15.8273 561.419 15.6542 559.6 11.6157 560.6562 8.3848 564.8809 6.654 573.9757 3.1347 575.2079 1 579.0219 4.6924 582.6599 1.6346 582.6599 1.8077 583.8921 10.4041 590.9332 11.7888 591.1679 11.9618 587.8234 16.2312 588.7622 19.9236 581.369 25.2314 581.2516 25.3468 582.6599 27.0776 590.3465 28.1161 595.3926 26.5007 595.51 30.77 596.7422 31.9239 599.5587 34.6932 599.7347 34.8663 599.8521 34.8086 600.2628 34.9817 603.7834 33.5393 605.1916 34.174 608.5362 31.5201 608.7122 26.6738 615.5774 29.8469 615.5774 29.7892 617.3963 31.0008 619.3326 29.5585 619.3913 29.5585 625.1416 31.6354 624.3201 32.6739 624.2615 32.6739 619.2153 38.2702 621.621 42.5973 617.7484 46.8666 620.8582 52.7514 623.616 53.9053 623.9681 64.8094 623.9681 64.9825 623.9094 65.0402 619.3913 67.5787 617.631 68.5595 614.9319 71.6173 615.9881 75.1943 620.7409 75.9443 622.1491 79.406 625.259 77.9636 629.1316 82.1176 632.8869 81.7714 634.1191 87.0792 634.0604 87.1369 632.9456 90.4255 630.7746 90.0216 630.0704 87.31 628.5449 88.6947 629.9531 91.0024 627.4887 92.2717 627.5474 98.5603 621.7384 97.9257 624.0268 104.0412 620.0368 103.6374 616.0468 113.4453 611.47 112.0607 611.5874 114.7146 607.5974 119.5032 613.1129 120.5994 616.1641 123.4264 618.7459 122.9648 618.6285 126.0803 614.6385 130.0035 610.3551 130.1189 598.0331 135.7152 597.2703 143.4461 598.6199 146.4462 598.5612 146.677 598.0918 148.8117 596.5662 155.2734 596.3901 155.2734 596.3901 155.3311 598.0331 155.8503 599.676 155.908 600.4975 156.6003 602.5512 158.3888 605.3676 158.1581 605.485 158.3312 607.7147 162.7159 611.47 156.8311 613.1129 156.8311 615.4013 161.0428 623.0879 158.7927 623.616 164.1582 637.2876 167.6199 639.224 168.0814 639.9281 168.2545 639.8694 174.6008 633.4737 173.2739 634.3538 169.0622 632.1241 174.197 626.9019 175.0047 626.7259 179.7933 619.9781 178.0048 619.9194 182.5049 613.0543 180.1971 608.7709 182.5049 608.9469 185.4473 613.1716 186.8896 610.7659 190.0628 611.646 192.7744 611.7634 193.1205 611.294 193.2936 603.6074 195.9475 601.9057 194.7937 602.7272 193.1205 598.2091 192.5436 598.6785 200.1592 595.4513 207.1402 599.0893 209.3902 593.3976 213.4288 592.3415 216.7173 590.1704 216.0827 585.2416 219.4289 589.4076 221.679 587.6474 224.3906 583.8334 224.2175 582.3078 230.7369 589.9357 236.7948 600.0281 239.391 599.8521 242.218 603.0793 244.8142 605.8957 251.3336 606.8346 257.2184 602.8446 259.5839 603.1379 263.9686 603.1379 264.1417 602.5512 264.6609 600.4975 267.0264 601.0256 273.1996 598.3265 274.1227 599.1479 279.3152 593.1629 279.2575 590.6985 281.1037 588.9969 279.6036 589.8771 276.2574 584.5962 277.5844 580.1368 275.2189 578.3765 270.5457 574.3278 270.1418 573.0369 271.7573 569.1056 270.0265 564.4115 271.5842 560.7149 268.988 555.2579 268.6418 552.5588 271.8727 550.4465 269.1034 547.1606 269.738 546.2218 273.8343 540.0607 273.4304 534.6038 275.5074 533.0782 270.0842 530.4965 269.5649 529.3229 267.0841 525.0982 272.5073 521.2843 271.7573 520.9322 276.8343 523.8074 277.8151 525.1569 281.9114 519.0546 284.1038 514.2431 283.4691 514.8299 287.2769 516.9422 287.7385 515.1232 291.777 514.7125 292.6425 507.906 288.8347 501.9797 291.4309 500.3368 284.623 503.74 281.9114 500.3368 280.469 500.3368 277.9305 494.8212 277.3536 489.6576 282.546 485.2569 281.2768 484.6701 283.9884 480.7388 285.4884 480.3868 287.7385 475.2232 286.5269 474.2844 290.7386 472.5241 291.5463 472.5828 302.912 472.3481 302.912 469.7076 302.5081 470.7638 298.1234 466.2457 297.7772 464.9549 295.5848 460.9649 297.0272 460.2607 300.5465 457.6203 300.2003 456.2121 303.0273 457.2682 307.6429 453.1609 305.8543 453.1609 303.9504 450.9312 304.5274 451.0485 300.4311 446.2371 300.4311 437.4943 303.6043 432.0374 303.0273 429.749 304.7582 429.6316 307.989 425.8176 309.9506 424.0574 310.0083 422.2971 310.1237 422.1797 310.1237 420.6541 308.1621 420.0087 308.2775 418.6591 309.6621 415.4319 309.0852 416.5468 305.3928 418.5418 304.6428 417.779 300.6619 406.2197 299.9119 407.3932 294.0271 413.2022 294.5463 413.8476 291.9501 402.9338 290.8539 406.8651 283.9307 416.5468 285.373 416.6054 287.7385 423.9987 287.45 421.769 282.4883 418.131 282.3153 417.3096 279.8344 417.3682 277.0074 423.0012 276.142 421.769 271.6419 417.4269 268.9303 416.3707 271.7573 411.2072 270.3726 411.4419 262.9301 417.8963 262.1224 418.6004 259.4685 416.2534 249.3721 416.6054 241.2372 411.0899 246.4874 409.2709 246.0258 409.6816 241.6411 404.6941 238.2948 409.8576 235.6986 410.4444 233.5062 404.2834 234.0255 405.8676 229.2946 403.6379 225.4291 399.5893 228.6023 389.5556 229.1792 387.2672 232.1216 385.9176 232.1216 384.0987 232.1216 383.5119 232.1216 383.3359 231.8908 379.5806 226.006 373.8303 225.833 372.7154 224.7368 363.0925 215.4481 356.1687 213.3134 356.1687 213.198 357.2835 209.8518 358.0463 207.4286 358.105 207.2555 352.2374 203.6785 352.0026 203.5054 353.2935 199.64 353.4109 199.2361 353.8216 199.2361 354.5257 200.1015 354.9951 199.2938 358.1637 194.2167 361.5669 193.1782 369.3122 197.6784 369.7229 205.1209 371.7179 205.5247 372.9501 202.2362 370.6618 196.3514 381.1649 194.1013 380.9888 192.2551 383.3946 191.6782 384.9201 194.9667 388.7341 194.9667 389.4969 199.5246 396.8315 199.9284 396.186 197.1014 401.7016 196.0052 403.2272 203.1593 408.3907 203.1016 410.7965 197.3322 413.5543 196.6399 413.0262 193.0052 404.9288 191.909 406.3371 181.4664 399.5893 181.9279 399.1199 175.5239 407.0412 171.9469 401.7603 171.543 401.9363 167.966 405.5743 166.6968 404.8115 163.5813 400.8801 162.6582 399.2372 153.1387 414.9038 151.8117 416.5468 144.7731 416.6054 144.5423 419.3632 145.2346 418.8351 143.7346 420.7715 142.5807 427.3432 141.773 426.8738 132.1381 433.3869 132.0804 433.2696 124.1764 442.0124 124.0033 440.4868 125.7341 441.6016 133.8113 443.6553 133.7536 446.9412 130.1765 449.4056 122.2725 449.4056 122.2148 452.5154 125.0418 452.7501 129.7727 456.7401 131.5612 458.2657 136.9844 461.845 137.2729 462.0797 137.9075 M 599.1479 279.3152 599.4413 279.3152 599.324 280.6998 598.8546 289.0077 602.3165 296.3926 600.6149 297.8349 595.7447 296.2772 596.3901 301.0081 593.339 308.2775 595.5687 310.0083 597.0943 308.3929 601.8471 309.1429 601.1429 314.2776 600.0868 316.2969 592.0481 317.6239 593.8671 320.7971 595.6274 322.124 599.7934 320.1624 602.1991 320.9124 598.2678 326.8549 600.7322 328.0665 599.7347 332.3935 595.7447 332.105 592.6349 335.3359 592.5175 335.4513 587.4713 335.1628 589.4076 338.4514 592.1068 338.8552 591.7547 343.6438 591.696 344.4515 585.7697 344.9131 585.0069 345.0862 583.2466 349.5286 576.2641 350.0478 570.7485 348.2016 569.9271 351.6633 560.6562 352.2979 562.1818 354.4326 568.5775 363.3174 568.9296 363.7213 568.8709 363.7213 566.1718 364.4136 564.8222 364.529 564.1768 364.2982 560.8909 362.1635 548.8035 359.5673 548.6275 359.5096 545.459 352.4133 534.1344 348.7209 528.0321 344.0477 520.1694 347.6247 519.3479 340.7014 519.524 339.6053 519.1719 339.3168 517.6463 338.1052 515.71 336.6052 514.8299 337.0667 513.1869 337.9321 512.3654 338.3937 512.3654 339.2591 512.7175 346.8747 502.1557 350.2209 494.8799 349.4709 494.7038 349.4132 493.8237 355.1826 489.599 359.8558 479.7413 362.1059 475.3993 360.202 472.4654 363.6059 448.8775 375.6062 425.5243 384.318 425.2896 384.3757 423.8813 385.4142 399.6479 401.5108 399.3546 401.6261 403.0512 394.4721 402.171 386.9719 393.6043 385.9911 394.191 379.6448 392.3134 377.4524 396.186 374.9716 394.7191 368.6253 395.5406 365.856 399.5306 366.8368 399.5306 366.4329 399.3546 360.4904 403.8726 361.3558 408.8015 360.7212 409.6816 358.5288 417.5443 358.5865 417.6616 358.5865 417.4269 344.2208 412.2634 322.1817 415.9013 312.893 420.6541 309.5468 422.4144 310.5852 422.2971 310.1237 M 231.3051 300.835 234.9431 300.4311 237.9356 300.1427 250.375 304.2389 249.7296 313.0661 240.7521 312.4891 245.0941 325.8164 250.6684 331.0089 246.9131 336.3167 249.7296 337.759 249.3188 346.0093 243.9206 346.3554 245.2701 352.1825 240.224 359.3366 239.8719 359.7981 242.2776 362.452 242.571 362.7982 242.7471 362.9136 249.4949 362.1635 249.6122 361.9905 249.8469 361.702 251.5485 359.8558 251.6659 355.7595 257.9443 353.6249 261.0541 355.3557 261.8756 360.8943 263.5772 362.5674 263.9293 362.9136 264.2226 363.202 269.4449 357.0288 275.4885 357.4903 290.9791 366.8944 306.8218 370.5292 332.6981 383.5103 345.1375 382.8756 352.0613 389.7412 351.8853 394.0106 350.7118 395.8568 351.7093 397.8184 352.3547 399.1453 352.4721 399.3761 365.1462 404.107 370.6031 403.4724 374.8278 404.5685 382.7491 406.934 382.6904 407.5686 382.5731 407.684 381.9863 413.0495 384.1574 413.5111 385.8003 418.992 387.9713 416.7419 399.4132 419.9151 398.6504 422.4536 388.1474 420.8382 386.0937 420.5497 386.1524 420.9536 386.3871 423.0883 394.2497 423.2037 395.7753 436.1848 393.3109 436.3579 393.3109 438.0887 398.5918 447.9543 395.834 449.9159 391.0812 448.8197 390.9638 453.4352 390.4357 453.3775 386.9151 452.7429 386.035 449.9159 381.2235 449.8005 380.6368 446.6851 376.0013 446.1658 375.884 447.7235 368.9601 450.2044 366.2024 454.7622 361.2735 456.3776 358.3984 453.8391 350.7704 452.6275 355.4646 436.8771 354.4671 434.2809 350.4771 434.5693 338.6244 435.2617 335.8079 438.6079 335.8079 441.7811 335.9253 460.7047 335.8079 460.7047 327.7693 458.2815 325.2462 451.7621 323.0165 449.7428 321.2562 451.0698 318.6744 448.3582 302.9491 449.5121 300.3087 453.4929 306.8218 455.0507 309.8729 453.8968 311.2812 457.0699 309.9903 459.8969 313.6282 458.9161 313.3349 464.7432 313.3349 464.8009 305.0028 461.4547 304.5921 463.1855 301.4822 463.0124 301.3649 468.6087 295.2038 469.4164 294.7931 469.1857 293.7956 469.301 285.5809 466.3587 284.9941 466.3587 284.29 466.301 283.1751 467.7433 282.9991 467.9164 282.3537 465.2625 279.5959 466.9356 277.0728 464.3394 275.0778 466.1856 272.6721 465.3779 272.496 467.9164 267.2738 465.7817 265.4549 467.2818 263.5772 464.8586 261.2301 467.1087 261.0541 467.2818 261.8169 465.8971 257.1228 465.4932 254.0129 462.5509 255.3038 461.4547 252.194 461.3393 251.4312 458.8585 248.0279 459.0892 243.2165 456.3776 M 568.8709 363.7213 569.9271 364.0674 570.5138 364.0098 572.4501 364.8752 582.1904 368.0483 584.9482 367.8752 589.6424 370.4138 591.2266 370.933 593.339 370.4715 604.5462 367.9329 607.7147 368.7983 610.4725 369.4907 610.5312 369.5484 610.5899 369.5484 617.7484 374.5677 623.264 375.3754 623.2053 375.4908 622.2078 376.9332 622.1491 376.9909 623.44 382.7026 623.7921 384.2026 617.6897 382.7026 614.4625 384.4911 612.9956 388.8758 610.3551 386.9142 607.304 387.3181 604.7222 390.9528 605.0743 395.5683 609.2403 395.7991 606.6585 396.8953 604.0181 407.2801 604.6635 415.0111 608.8296 417.0304 606.5999 417.3766 605.309 420.8959 607.656 422.1075 605.3676 429.6654 608.9469 434.8001 608.8296 448.9928 593.9844 445.2427 585.0656 446.8581 561.9471 442.4734 544.9309 445.2427 544.8135 445.2427 544.3441 445.4158 531.3179 451.8198 530.6725 452.1083 530.5551 452.2814 526.6238 458.3392 522.2818 465.0317 522.3404 465.0317 522.2818 465.0317 517.0596 470.6857 507.6713 478.4167 503.0359 489.4939 498.1657 492.0901 492.5328 499.648 488.4254 502.1865 488.4841 513.4945 484.2594 516.4369 475.0472 513.033 473.4043 509.2252 462.6078 507.8982 460.9649 504.8982 461.1409 502.3596 463.4293 502.7635 462.9012 498.6095 459.3219 500.225 459.6153 496.821 446.7651 494.0517 446.3544 489.4939 434.7951 489.5516 430.9812 486.4361 427.6366 488.1092 419.774 483.3207 418.4244 474.4358 413.6716 472.2434 420.5368 463.5317 414.6104 459.4354 416.136 455.6853 406.9825 453.5506 406.6891 450.839 403.1685 453.4352 404.1074 457.1853 402.7578 460.3585 400.4107 458.9738 401.6429 453.8391 396.4794 453.0314 396.0687 454.8776 391.9613 455.2237 391.844 455.2237 391.844 455.1084 390.4357 453.3775 M 382.7491 406.934 383.1012 406.9917 390.201 409.1263 393.3109 403.4147 399.2372 401.7992 399.3546 401.6261 M 484.2594 516.4369 484.3768 522.3794 484.0834 522.6679 480.7975 524.8025 466.1871 526.8795 458.6765 533.6874 449.0535 535.0143 445.5329 540.3222 438.9025 543.2069 427.93 552.3802 425.0549 551.5725 412.2047 555.7841 404.9875 555.3226 399.6479 566.8037 394.191 568.1883 392.1374 573.9577 386.0937 576.9578 384.6268 579.7271 379.2872 578.6886 381.4582 572.5154 373.7129 571.8807 368.8428 575.4 368.1387 578.804 360.276 578.2847 357.1075 584.6888 350.5357 585.7272 348.7168 587.1696 346.7218 587.8042 336.6294 586.4196 332.0526 589.0158 331.8766 589.0158 331.2899 582.8426 327.1238 581.1694 327.0651 577.0155 324.8354 570.8999 322.7231 570.0345 322.6057 564.4959 320.7281 562.0151 320.4934 550.8802 323.2512 550.7071 323.4272 542.1107 316.6794 541.2453 315.4472 534.7836 309.6382 533.5143 309.2275 533.4566 308.5821 531.8989 307.1151 528.2065 306.7044 527.2257 307.4085 526.8218 309.2862 525.6102 308.406 523.4756 315.6819 522.4371 316.8554 507.8405 322.3124 505.8789 322.4297 502.7058 320.2 501.1481 320.4934 495.0325 317.6182 494.2825 317.6182 486.84 320.4347 486.4361 319.7306 482.7437 322.2537 480.436 323.0165 480.7821 323.1925 480.8975 324.6007 481.5321 324.6007 482.5129 326.5371 484.763 325.4809 489.8401 329.8816 490.5901 330.4684 493.5902 334.6344 493.1286 334.6344 493.1863 334.8104 495.7248 342.4384 496.071 342.9665 492.8978 337.5096 495.2056 337.6856 490.5324 341.3235 486.6669 344.6094 487.7631 347.8366 486.1476 347.7779 484.3591 347.3672 477.2628 346.135 476.5705 339.5046 475.0704 337.6856 471.2626 334.0476 472.6473 333.5196 474.5512 327.8866 473.2819 313.3349 464.7432 M 331.8766 589.0158 327.7106 588.3812 323.1338 590.1697 320.024 594.439 320.2 594.6121 324.3074 599.9199 323.4859 603.0931 319.8479 604.247 318.0876 607.2471 313.1588 605.5739 310.8704 608.4586 306.3524 609.2086 302.3037 613.1318 301.3062 617.5743 294.4997 623.2283 290.8618 622.1898 288.7494 622.8244 287.4585 622.6513 285.7569 618.3243 285.4635 618.1512 284.8181 617.7473 281.7082 615.9011 279.8893 615.6704 275.1951 615.0357 271.1465 618.3243 271.4399 620.9205 269.1515 621.5551 263.4012 617.2281 259.1178 617.2858 259.4112 611.1125 257.6509 607.4201 250.9618 605.1701 244.9181 605.747 242.6884 602.7469 237.1141 602.6315 236.9968 598.4776 239.9893 594.1506 234.6497 583.131 233.3001 584.1695 233.8869 577.8232 239.9306 578.2847 239.9306 576.3231 242.8057 576.6116 241.2215 573.2654 236.8794 571.9384 236.9968 566.9767 234.591 567.3806 234.415 565.0728 237.0554 564.7844 235.1778 564.3228 236.2926 560.3996 242.8644 559.9958 244.2726 552.8994 241.9843 545.0531 246.2676 545.1108 247.4412 543.38 250.4337 548.1685 250.9618 530.2258 249.4949 526.7641 246.7957 526.1872 247.3825 521.9178 248.556 519.2639 257.0054 518.1677 257.8856 508.6483 261.4649 498.7826 252.2526 498.7249 249.6122 488.9746 246.209 489.2631 246.5024 492.2055 242.5124 492.5517 236.41 497.3403 227.4325 494.9748 226.9044 499.0711 222.6797 498.4941 222.9144 494.0517 215.2278 490.8785 214.465 491.0516 M 522.3404 465.0317 529.3816 466.8202 529.7337 473.8589 526.3891 481.2437 525.9197 482.2245 526.5065 484.013 531.9047 484.5322 531.7874 486.5515 533.3129 486.6669 531.7287 490.2439 540.6475 495.4364 539.3566 501.6096 532.5501 496.6479 523.2206 501.0327 523.1032 524.3987 513.3043 523.014 513.4803 525.841 513.4803 526.2449 523.4553 536.2836 522.9859 541.8222 526.1544 544.3608 525.2156 549.3801 529.3229 552.611 529.0882 555.3803 537.831 554.3418 538.7699 561.2651 544.6962 561.6689 543.8747 565.1305 547.454 566.8037 547.454 566.8614 543.2879 567.8998 540.1781 570.9576 540.0021 573.2654 544.6962 575.227 545.9871 577.5924 547.1019 580.9964 546.6912 585.6119 542.7599 585.4388 542.3491 587.4581 542.2318 588.0927 544.4028 588.2081 545.635 588.6119 544.7549 592.4197 540.8822 595.6506 537.831 607.4778 532.8435 608.1125 532.4328 612.4395 525.6263 611.8049 526.5651 607.6509 518.5265 607.5355 515.2993 608.8625 515.1819 610.8241 503.3293 607.2471 495.9947 608.1702 493.9997 602.9777 488.7188 599.4584 482.3818 596.516 478.2157 599.6315 477.629 603.0354 480.5628 609.8433 477.629 614.805 475.3406 615.3242 475.3993 615.4396 470.6465 616.1319 470.2357 611.1702 470.001 608.7471 468.4754 607.7086 465.2482 607.5932 464.8962 610.651 464.8962 610.7087 462.4904 609.0933 459.85 610.1318 462.6078 617.3435 467.3019 618.3243 467.3019 618.382 467.3019 618.5551 467.5366 622.7667 466.9499 623.4013 464.0747 626.4014 457.5029 623.8629 458.031 626.6322 458.4418 628.4207 460.5541 629.2861 460.6715 633.5555 464.1334 633.3824 466.9499 637.4209 466.6565 642.3826 471.996 645.7289 465.4243 645.8442 458.8525 650.1136 458.7351 653.4021 455.5079 656.7484 454.8038 664.4217 448.3494 668.9218 448.7601 672.268 446.5304 672.1526 446.4131 674.9796 448.9949 675.9027 446.1784 679.0182 446.9999 680.749 444.2421 681.3837 441.0735 686.6915 435.2646 691.3647 435.2059 691.4224 435.0299 691.3647 431.0399 691.4801 430.0424 690.6147 415.6079 687.73 417.0749 681.2106 410.2684 679.7105 409.6229 675.8451 406.8651 676.1912 407.7453 673.4796 401.2909 672.7873 400 669.0949 399.5893 668.9218 390.025 669.441 387.0912 667.3641 385.6829 667.2487 381.3409 675.7297 373.0675 666.6717 376.1187 659.8062 374.5931 654.6137 372.5394 655.3637 370.4271 651.6136 366.9651 651.8444 365.7916 650.229 366.4371 644.8635 368.9601 643.7096 374.9451 645.325 374.2997 640.7672 368.7254 640.6518 367.904 638.171 363.6206 638.2287 363.3272 636.7286 353.3522 636.7863 352.2374 634.1324 355.4646 628.8823 349.5382 628.4207 348.4821 625.8245 342.7318 631.94 342.321 630.3246 339.974 631.5939 337.7443 629.8054 336.3947 631.5362 334.3997 629.7477 317.9703 636.9594 317.2662 639.3825 314.5084 637.7094 314.5671 634.1901 310.6944 634.1901 307.8193 631.3054 305.2962 636.7863 306.6457 642.3826 307.5846 643.3634 308.1713 642.9019 310.2837 646.075 310.8704 646.9981 311.0465 647.2289 310.8704 647.6905 309.6382 652.2483 309.4622 652.7098 309.2862 652.7675 304.7681 654.4983 300.1913 650.4598 297.8443 653.4021 297.2575 659.6908 297.7269 660.6716 294.1476 661.4216 290.451 663.2678 288.6907 662.5178 288.456 662.4601 288.0453 662.287 291.2138 653.9791 285.8156 652.1329 282.7057 649.4213 281.0628 647.9212 280.8868 647.7481 285.5222 638.921 289.5122 639.671 293.0915 637.7094 294.2063 633.4978 292.27 631.7093 286.5784 632.69 284.3487 624.5552 284.2313 624.1514 285.7569 623.6898 287.4585 622.6513 M 236.9968 598.4776 236.9968 602.9777 228.606 604.6508 224.1466 601.6508 222.2103 598.1891 225.3201 595.766 225.2028 595.7083 224.264 594.7852 222.9144 593.4582 222.7971 584.8618 217.5749 586.0157 218.0443 589.0158 214.0543 589.2466 209.3601 592.5351 208.0693 596.1698 205.4875 594.2082 196.51 596.1698 191.1704 595.5352 191.2878 594.0929 187.8259 595.016 186.711 592.4197 190.2316 587.6888 188.1193 585.0926 187.8846 585.4965 186.535 587.8619 181.6062 588.4966 181.6649 588.6119 183.2491 592.7659 176.8534 593.9775 177.6749 600.3238 173.4501 600.7277 172.746 598.8238 165.4115 601.42 152.62 601.7661 152.5613 604.3624 150.7424 605.3432 148.3953 606.6701 146.8697 604.5354 143.4078 604.5931 141.5888 600.4392 143.9946 596.3429 143.6425 596.2852 138.1856 595.3044 134.5476 590.8043 133.4915 589.535 135.0757 586.3042 141.4128 579.2655 140.65 575.1693 147.2218 568.996 146.3416 564.1497 146.1656 563.5151 143.4078 559.0727 140.7674 560.6304 141.1781 557.3996 137.1881 553.0148 132.7287 553.1302 131.0857 547.8801 133.1394 547.4185 131.3791 545.2262 126.8024 546.38 121.5215 542.6876 121.7562 539.8029 121.7562 539.5722 117.0621 540.0337 116.886 540.0914 M 177.6749 600.3238 175.4451 610.8241 176.6774 618.1512 178.0269 621.2667 180.6674 621.2667 181.3715 625.1898 175.0931 627.9592 176.3253 636.7863 175.2691 642.0365 179.3765 646.9981 172.9807 646.4212 175.5625 652.0175 170.4576 653.6329 171.5138 658.8254 169.9296 661.7678 165.8222 663.0947 166.1743 664.9986 168.8147 665.3448 168.6387 672.9604 172.1593 675.672 167.7585 682.5375 167.2891 686.6338 167.2304 690.2685 168.8734 691.9416 174.0369 694.4802 169.6949 696.961 170.3403 702.1535 166.409 702.7881 161.3041 707.0574 161.4801 701.9804 158.1356 698.5187 159.5438 697.8841 159.0157 693.5571 155.0257 693.0955 151.7399 698.8649 150.1556 697.0764 145.5788 697.0187 143.5251 705.8459 149.0994 709.4229 143.7012 708.9613 140.8847 711.4999 141.6475 713.6345 148.454 714.3269 151.3878 719.2308 153.7935 720.0385 154.0282 720.0962 153.8522 720.8463 152.3853 727.308 158.605 731.0004 158.7224 731.8658 158.781 732.5004 159.0157 734.1735 158.2529 734.2312 157.0794 734.2889 149.3928 734.8659 148.5126 736.0197 146.8697 739.9429 146.9871 740.6353 147.6912 741.5584 150.0969 741.6737 150.1556 741.8468 150.2143 741.7891 150.2729 742.0776 151.5051 746.9816 151.6812 747.7316 150.9771 748.1355 146.9284 750.5009 143.6425 752.4048 141.4715 752.5779 140.65 748.0778 137.1294 753.3856 133.3741 750.097 126.2156 750.5586 121.2281 748.6547 115.2431 744.0969 112.7787 749.5201 113.2481 752.924 118.4116 765.559 103.8012 758.1742 96.7013 762.0397 97.3468 765.2705 100.1632 765.6744 100.3979 770.5784 102.0996 770.7515 98.8137 774.0977 102.9797 780.5017 101.9822 783.9056 105.9722 784.7134 103.9772 793.1944 103.7425 794.0021 100.0459 798.3868 100.6326 801.4446 100.574 801.4446 97.5815 800.5215 91.7138 803.0023 91.4204 801.2715 89.1321 804.0408 86.6676 799.7138 83.2057 800.0599 77.1621 793.1944 69.0647 757.4819 64.0772 751.0778 55.7451 716.6346 53.6328 716.1731 53.8675 712.9422 48.8213 700.5957 40.7826 698.4034 41.6041 694.0763 33.6828 679.6528 35.7951 679.6528 36.4406 676.3643 34.0935 666.7294 31.3357 665.3448 32.4506 663.3255 27.3457 658.1907 26.1722 660.0946 22.1235 660.21 22.769 663.5563 21.5954 663.2101 17.3121 657.7869 12.794 658.3638 13.7328 656.1138 10.9163 652.6521 6.9263 653.5175 6.7503 651.4982 2.2909 648.2674 5.8701 648.0943 5.8701 649.5367 7.9238 648.0366 7.9825 641.8057 5.6354 640.1903 2.819 631.5939 1 631.1323 7.8065 626.863 14.4956 629.1707 13.146 623.5744 14.789 620.9782 15.0237 620.9782 17.6054 621.209 21.5368 626.7476 27.7565 619.4782 30.5729 620.8628 32.6853 617.3435 30.749 613.9395 33.3307 613.2472 38.3769 606.2086 34.1522 596.2275 36.3232 593.3428 36.3819 587.1696 42.0149 580.4771 39.3157 573.7269 31.8638 570.7845 30.3969 567.6691 34.7976 563.342 43.6578 563.2843 45.4181 561.2651 42.0149 555.1495 43.1297 548.3416 34.739 544.0723 33.5068 539.226 34.6803 533.8605 30.3382 526.418 30.3382 526.3603 35.1497 520.8217 M 297.7269 660.6716 298.5484 662.287 298.6071 662.6909 298.3137 663.037 294.3824 667.7679 293.9716 668.2872 294.3237 668.5179 298.5484 671.1142 304.5921 670.0757 305.5896 672.095 306.8218 675.2681 305.8243 684.7299 308.2887 690.6724 304.9441 694.884 304.5334 700.2496 297.4922 699.6149 290.0403 707.1151 285.4635 703.6535 280.476 710.7498 279.2438 708.6152 276.0753 708.3267 274.9018 712.0191 277.1315 714.3846 273.6109 729.8465 275.4299 734.6351 271.4399 734.8659 270.149 738.9044 266.3937 741.5007 258.1203 741.6737 257.6509 741.6737 257.8269 739.5391 252.2526 736.2505 251.9593 729.7888 247.6172 729.9042 247.7932 734.5774 224.9681 722.0578 226.8457 718.3077 230.1316 718.5385 230.8944 713.9807 227.7846 712.5383 226.259 714.9038 223.4425 713.5768 224.4987 704.8074 219.8046 699.788 210.5924 699.5572 210.651 697.2495 215.8146 694.9994 210.1816 688.0762 206.309 688.3646 205.7809 692.4609 203.0818 690.2108 203.4338 687.3261 199.9132 689.4031 195.8059 686.98 195.3365 684.8453 199.5025 684.903 199.5612 677.8066 196.4513 680.4606 192.4613 678.5567 191.5225 681.3837 180.7847 675.095 176.0319 674.6912 172.1593 675.672 M 475.3993 615.4396 476.3968 617.8627 476.4554 617.8627 485.5503 618.9589 487.3693 621.2667 494.2931 618.9012 493.6476 632.0554 490.4204 633.1516 492.4741 636.7286 491.8874 641.3441 489.7163 642.498 491.8874 647.3443 488.9535 647.1135 488.8362 650.6328 479.2719 651.4982 482.8512 659.2869 477.9224 670.1334 476.1034 684.0953 479.0959 685.0761 483.4379 696.6725 487.8387 696.7879 492.1807 700.4803 494.3518 706.8267 500.1607 704.115 513.3043 704.8074 510.6638 710.9806 508.0234 710.9229 507.6713 719.9809 502.8599 716.2884 499.8087 720.2693 497.3443 720.6732 497.3443 729.2119 500.6888 733.6543 508.1407 735.3274 510.1357 738.6737 504.5028 742.3084 507.0846 747.4431 515.2406 746.9816 518.8199 749.0586 518.7612 749.6932 517.6463 750.2124 518.2918 755.751 521.8124 759.0973 510.7812 758.6357 508.4928 755.6934 507.554 760.1358 499.1046 761.1166 497.579 766.3667 502.3318 768.0398 504.5028 766.5398 508.3754 771.6746 508.6101 774.0977 505.0896 777.0401 504.1507 780.7325 501.8624 779.4632 498.0484 782.3479 495.2319 789.2135 488.9535 787.6558 486.4891 791.8674 490.9485 794.3482 491.1832 797.3483 484.3181 802.1369 485.0809 805.7716 476.0447 804.2716 473.3456 805.7139 473.8737 807.4447 468.6515 808.8871 476.3968 819.9643 476.8075 827.176 476.0447 829.5415 473.2869 829.7723 470.1184 829.0799 468.8275 826.3683 464.2507 831.3877 461.845 838.7725 461.9624 845.7535 459.7913 840.7341 452.1634 841.6572 450.5791 838.0225 441.4256 841.4841 442.7165 845.8112 436.2034 850.5997 434.3844 850.0805 435.1472 852.7921 429.1622 857.9269 422.1797 858.4461 421.1822 863.4078 416.7815 863.0039 413.7303 865.6578 411.3246 862.7155 408.3321 865.8886 406.6891 863.0039 403.0512 865.4271 400.9975 866.004 399.5306 862.427 393.7216 863.7539 388.9101 860.9269 391.2572 853.5421 387.1499 853.1383 379.7566 847.2535 379.4046 841.7149 371.2485 841.0803 370.6031 839.2918 366.8478 838.311 363.4446 823.7721 360.9215 824.176 357.929 815.0026 354.1737 812.1179 350.301 812.0026 348.13 808.7717 347.6606 808.7717 345.7243 808.8294 345.4896 808.8294 345.7243 808.2525 348.3647 801.0984 352.12 801.2138 353.2935 794.0021 349.4796 794.6367 349.4209 794.579 348.13 793.1367 348.1887 792.7328 350.125 775.0785 348.7754 773.5784 346.3697 774.9054 344.9028 770.8091 348.6581 763.3666 351.7093 762.5589 351.2985 751.424 354.4671 747.3854 364.3834 745.4815 363.5032 741.2122 361.2149 741.6737 361.7429 738.5583 359.3372 735.8467 361.0388 733.5389 368.256 734.1159 368.0213 722.2886 364.6181 715.1346 370.9551 711.4422 371.1899 709.1921 377.2922 709.769 379.2285 712.4807 382.6904 710.9806 386.7978 712.0768 390.3184 719.1731 408.4494 716.3461 410.7965 713.8076 415.6666 713.1153 415.5493 711.096 422.0037 710.7498 422.2971 701.115 426.4631 701.4034 434.5018 695.4033 434.9125 694.7686 432.2721 692.5186 430.9225 691.4801 431.0399 691.4801 M 345.7243 808.8294 345.7829 811.1372 344.8441 814.1949 343.7879 814.1949 343.2599 813.5603 342.5557 814.1949 338.5071 817.7143 335.1625 816.3296 331.5246 820.3105 331.994 823.4836 321.9603 825.2145 318.9678 824.5221 317.6769 817.2527 314.8018 813.4449 315.5646 806.7524 310.1663 795.906 309.2275 787.4827 304.7681 784.9441 308.6994 779.3478 307.5259 772.1361 306.059 773.4631 297.1988 771.3284 294.1476 772.9438 294.0303 775.367 291.0378 776.0593 291.8006 777.4439 282.471 779.3478 275.6059 776.6939 272.6721 777.2709 270.149 780.8479 259.4699 777.0401 257.3575 773.5784 250.1403 772.3092 242.6884 773.9246 234.0043 770.0014 241.8082 761.8666 249.0254 759.6165 244.1553 754.3664 252.2526 752.2317 253.0154 752.0009 256.536 754.8856 257.6509 741.6737 M 318.9678 824.5221 309.5209 823.0221 306.3524 827.2914 301.0128 828.3876 299.1351 826.8299 298.7244 829.5992 284.9941 832.2531 284.8768 835.1955 281.8256 832.7147 279.4199 835.8878 282.7644 839.9264 278.5984 840.7341 275.7819 843.7919 275.7232 843.8496 273.5522 843.0419 272.6134 839.9841 274.491 838.1956 271.1465 835.8878 271.4399 833.2339 264.4574 834.2147 263.4599 836.8109 259.0591 839.1187 253.0154 832.4262 251.4899 833.7531 249.4949 831.9646 249.4949 832.0223 249.7882 833.4647 247.0891 835.1955 243.6859 839.8687 237.4662 842.9842 231.0704 842.1188 235.3538 850.0228 236.6447 852.446 236.1166 854.4075 235.3538 857.2345 232.4787 857.523 231.9506 858.7346 231.7746 859.1384 231.5985 859.4269 229.3688 857.1768 229.1928 857.2345 228.7234 862.3116 224.2053 865.254 220.9781 863.1193 215.4625 864.504 212.5874 868.081 206.5437 860.8693 204.9007 862.0808 203.7859 861.2154 202.7297 861.3308 200.5 864.3886 203.3165 867.3887 201.4388 869.2926 203.1991 874.5427 194.3976 879.6775 193.2241 878.1197 187.2978 884.4083 188.1193 886.3699 183.6599 887.1777 181.2541 881.466 177.3228 880.889 176.736 876.9658 173.8609 876.1004 173.8022 876.1004 173.6849 876.1004 174.2716 874.4273 171.8659 871.1388 169.3428 867.6194 169.6949 867.1579 170.9857 865.3694 173.9782 861.3885 173.9782 861.3308 167.2891 856.6576 165.8809 855.6191 165.4115 851.5229 168.1693 849.8497 165.2941 848.1766 165.0594 845.6381 166.9371 844.3688 161.5388 842.2918 162.8884 837.2725 150.3903 831.8492 151.3291 828.4453 151.1531 828.0415 146.811 816.0988 141.6475 814.368 139.2418 816.1565 134.7237 809.0602 131.1444 807.214 121.0521 805.7716 112.0159 807.6755 111.3118 803.81 108.2606 802.6562 109.7275 799.5984 105.4441 796.3675 104.916 795.2713 103.9772 793.1944 M 188.1193 886.3699 190.525 887.8123 190.6424 891.9086 187.9432 896.0625 189.1168 898.5433 185.6549 899.8703 185.7722 903.2742 183.0144 905.0051 179.0244 904.1396 177.0881 907.3705 183.0731 918.1016 187.9432 917.1208 192.696 932.2366 199.6199 936.7944 189.7622 946.0254 183.5425 944.9292 184.54 944.0061 180.4326 938.929 177.4988 939.506 177.9682 942.333 173.5088 944.8715 169.6362 943.083 165.8222 944.9869 162.1256 940.3137 158.6637 945.2177 155.0257 946.66 154.5563 946.2562 152.7374 943.7176 152.9721 942.7945 151.8572 942.4484 150.6837 942.1022 150.3903 941.9868 147.2804 944.6407 147.5151 949.0255 141.5301 951.2755 138.3029 945.5061 132.3179 945.2177 129.3841 948.1024 126.2743 947.4677 127.3891 949.7178 126.2156 951.0448 123.6925 949.9486 123.4578 955.4872 112.896 912.5053 109.5515 906.5628 109.1994 902.3511 110.549 901.6011 109.1994 902.005 109.0821 887.3507 104.564 855.6191 100.2806 847.0804 94.0022 814.4834 89.1321 804.0408 M 403.0512 865.4271 404.9875 871.1388 404.7528 874.1388 401.7603 877.0812 396.4794 872.4657 395.7753 875.0043 392.4307 874.7158 391.844 878.639 381.9276 878.1774 381.4582 885.2161 375.5906 885.043 375.2972 888.3315 373.6543 887.9277 374.7691 885.043 369.2535 884.8699 364.7941 889.7739 365.2049 896.0625 356.4034 898.3703 356.2274 902.2934 350.3597 900.678 347.8366 901.8319 345.2549 910.1975 348.0713 910.7744 346.8978 924.1017 343.3772 923.6979 343.0838 921.8517 329.1188 922.7748 323.3099 922.4286 322.6057 920.9863 318.6157 922.0247 315.9166 925.6018 315.1538 922.3709 311.9266 923.5248 307.8193 922.2555 306.0003 929.8711 301.2475 930.9673 297.6096 929.6403 294.9104 931.3712 292.3874 935.6982 292.6221 939.0444 296.7881 944.0638 293.5022 946.3139 294.089 948.6793 292.094 950.5832 294.7931 955.891 294.3824 962.872 292.2113 964.0259 289.1015 961.4297 286.6371 961.6604 286.3437 960.045 285.5809 962.2374 279.4199 964.199 277.0728 962.6412 268.7407 978.1609 264.6334 979.7763 262.2276 983.1225 261.8756 983.6418 261.7582 978.334 254.3063 971.9299 257.5922 967.3721 254.4824 956.468 249.3188 951.7948 248.204 954.5064 246.561 954.4487 246.6197 950.9871 243.8619 948.6793 242.0429 949.6024 240.0479 946.6023 238.4637 949.3139 235.3538 948.3908 234.8257 940.6599 232.1266 937.7752 230.5424 936.4482 224.616 936.0444 221.3301 937.8906 219.2765 944.0061 215.3451 946.1408 213.6435 944.2369 212.3526 945.6792 207.8932 945.3331 201.6735 940.4291 199.9132 941.006 199.6199 936.7944 M 508.6101 774.0977 508.6688 774.5592 513.0696 776.0593 512.9522 780.1555 505.7937 781.3094 505.559 785.5211 517.705 792.5597 516.7075 797.5214 525.1569 802.6562 526.1544 807.4447 521.871 808.1371 520.2868 815.6373 516.4141 817.6566 513.891 821.5797 513.5976 823.2529 515.9447 824.0606 515.1819 827.9838 517.529 836.0032 520.6975 837.2148 522.1057 830.003 525.509 830.2915 529.2643 836.2917 532.9609 836.5224 533.841 832.1377 548.4515 833.0608 549.449 829.3684 545.7524 825.2721 547.6887 821.0605 540.5301 816.3296 543.9921 814.1949 547.6887 814.8873 546.5151 807.4447 550.5638 804.1562 551.62 806.4639 549.9771 813.9641 553.3216 815.1757 555.61 811.0218 556.7835 814.3103 559.6 807.8486 561.8297 808.3678 561.4776 814.3103 563.766 815.118 563.2966 818.0604 568.9296 817.8873 573.0369 814.5411 575.5013 820.4259 582.0731 816.7335 585.535 819.3297 594.5125 818.6374 591.6374 824.7529 591.7547 824.8106 591.5787 825.1568 593.1629 825.9645 592.7522 826.4837 594.8646 826.8299 595.0993 826.8876 595.2753 826.8876 596.7422 824.349 599.9694 825.2145 598.7372 828.3299 601.2603 833.7531 600.2628 842.1188 597.6224 842.1188 598.3851 846.5035 598.5612 847.1958 605.0743 845.8689 603.7834 841.4264 608.9469 841.7149 608.6535 844.5419 610.9419 845.6381 611.0593 845.1765 612.9369 838.6571 610.3551 836.1763 611.2353 834.6186 614.8732 834.6762 617.2203 840.0995 617.2203 840.0418 624.2028 835.0801 626.6085 834.8493 629.1316 837.9071 631.6547 835.7724 627.5474 834.3301 627.8994 831.9069 638.4025 828.6761 636.8769 833.3493 642.5099 831.6762 643.4487 836.8109 644.9743 836.7532 645.3263 826.2529 656.3575 823.0798 657.7071 820.9451 656.5335 818.522 661.8144 817.6566 666.2151 813.9641 664.5135 813.0987 665.9804 811.9449 665.335 809.3486 662.0491 806.0024 664.3962 800.6369 666.5672 802.2523 676.6009 801.3292 676.6596 804.9639 682.1165 807.6755 689.8031 797.983 692.9129 798.733 691.6221 803.6369 692.7369 808.0794 686.1065 811.0218 686.7519 821.4644 690.8593 821.1182 695.2013 813.3872 703.2987 815.2911 703.8854 809.3486 709.1076 811.9449 709.6357 815.4642 715.4447 815.1757 716.8529 819.0989 715.2687 824.9837 717.4397 828.6184 711.3374 836.5801 716.5596 841.311 715.21 845.3496 707.6994 844.3111 706.7606 848.292 711.044 851.2921 710.5746 854.1768 715.386 851.6382 722.7793 851.4075 725.1263 852.2152 724.9503 855.9653 731.346 856.773 729.7618 862.3693 728.8816 863.5232 728.999 865.1386 729.175 866.6386 729.351 868.0233 729.9378 867.3887 730.1138 867.504 730.8179 868.1964 730.2312 869.4079 731.2287 874.6004 728.4122 877.1389 730.2312 877.312 732.4022 884.6391 730.1138 888.8508 727.4734 893.5817 719.2 896.351 717.205 899.7549 716.7943 901.6588 720.4322 901.5434 721.7231 904.7166 721.7818 905.9859 718.4959 905.6974 718.3199 909.9667 714.4472 910.8898 719.3174 914.2361 718.8479 917.1785 711.396 913.1976 704.3549 916.14 703.416 918.8516 697.8418 918.0439 697.1376 914.7553 693.9691 914.2938 692.3849 917.4669 688.2188 917.8131 687.3387 920.3516 684.1701 920.6978 683.5834 924.5633 683.6421 924.5633 682.8793 924.7941 682.5272 925.9479 679.8868 926.1787 675.7794 926.5826 678.3612 923.7556 675.7794 922.544 672.7869 924.9094 673.2563 926.6403 670.9093 925.4287 669.9704 929.1211 668.5035 929.2365 668.6796 925.4287 663.4574 923.4094 662.2251 925.7172 660.9929 925.0825 663.3987 922.4286 661.2276 921.794 662.4599 915.4476 664.8656 916.6592 664.5722 914.0053 661.4624 913.1976 664.4549 910.1975 657.9418 905.9282 651.546 903.6781 649.7271 905.4666 646.6172 903.7358 646.9693 905.8128 644.7982 905.8128 643.8594 903.2742 641.6884 904.5435 641.9231 908.3513 639.1066 905.8128 636.0554 906.5051 634.1191 904.6589 634.4125 897.6202 631.0093 898.3703 630.1878 901.5434 627.8994 901.6011 626.4325 899.5241 627.5474 896.8125 625.4937 896.0048 624.6135 897.5625 624.0268 894.5625 626.9019 893.524 624.7309 889.947 622.3838 890.8124 622.6772 893.9278 615.5774 893.7548 615.0493 890.8701 610.4138 891.6778 607.1866 889.1969 607.304 887.0046 601.3776 884.9853 594.5712 885.9084 591.4613 880.9467 585.6524 879.4467 586.2978 877.0235 587.2366 873.735 587.1193 873.6773 586.8259 873.3311 585.6524 872.0619 585.5937 866.1771 584.1268 863.5809 582.1904 863.5232 582.0144 857.9269 582.4251 856.7153 588.2341 848.7535 595.1579 847.7151 598.5612 847.1958 M 404.9875 871.1388 411.5006 874.8312 416.2534 875.0043 414.0824 877.9466 410.7965 878.812 410.6791 880.6582 414.0824 883.2545 412.6154 886.7738 414.9038 888.6777 411.5006 893.2355 410.5031 896.2356 409.6816 898.8318 408.0974 903.6204 401.995 904.3704 401.995 904.6589 401.995 905.6974 402.1124 914.7553 402.9338 915.9669 403.6379 923.9863 405.1049 926.6979 407.804 927.1018 406.2197 932.6404 413.6129 934.1981 419.3632 938.0636 421.1822 941.583 424.3507 941.6407 424.2334 951.6794 428.1647 951.3909 431.744 955.7757 431.92 956.0064 432.8001 955.0256 433.9737 954.2179 447.6453 955.5449 448.5254 956.0064 450.3444 958.6027 447.9387 958.4873 447.8213 958.7757 447.8213 958.8911 447.2346 961.0835 447.704 962.5258 449.1709 967.1413 452.5741 967.4298 452.8088 971.5261 452.5154 971.7569 448.9362 974.3531 449.7576 979.3147 447.9387 979.084 446.2371 982.1417 446.2371 989.2958 443.1272 990.6804 442.8925 995.3536 432.7415 996.3344 432.3894 998.9884 427.3432 1002.5077 429.1035 1007.1232 427.8713 1009.4886 427.2846 1006.2001 424.6441 1008.6809 421.1822 1007.0078 424.0574 1003.8923 419.5393 999.5076 415.9013 999.2191 415.9013 993.392 413.789 992.2382 412.9088 995.8729 408.9188 995.6421 408.3321 998.1229 405.985 998.5845 405.7503 1002.0461 399.4132 1002.2769 399.7066 1005.5078 399.824 1005.8539 402.4644 1006.2001 401.2909 1010.5271 403.814 1012.4887 400.9975 1015.7196 404.5768 1020.8543 404.8115 1021.1428 403.0512 1027.0853 401.1149 1029.2199 401.1735 1029.3353 397.829 1032.9123 398.5918 1037.124 398.3571 1037.124 394.7778 1037.2971 395.3646 1035.1047 393.7216 1033.9508 390.1424 1036.1432 390.0837 1033.1431 385.6243 1035.5086 384.04 1032.5662 379.3459 1031.2392 376.9401 1034.0085 378.6418 1035.2778 374.5344 1040.1818 375.2972 1043.1242 367.4932 1042.7203 367.3172 1048.4897 364.09 1051.7782 360.6868 1052.0667 360.9215 1054.6052 355.7579 1049.9897 356.5207 1048.7782 349.7143 1047.2204 348.5407 1043.1818 343.8466 1044.278 343.7879 1044.3357 342.9078 1044.5088 339.0938 1041.1049 338.4484 1043.7011 334.9278 1043.2395 336.1013 1045.605 333.8129 1046.0088 329.7643 1037.5855 331.4072 1034.9316 329.0601 1033.7777 331.2312 1027.7776 329.8229 1025.6429 329.8229 1025.5852 333.2849 1024.3736 334.2824 1019.4697 330.175 1017.7965 328.5907 1010.0656 335.2799 1006.4886 334.9865 1002.7961 328.1213 1002.2769 328.0626 1002.2769 328.0626 1002.2192 326.2437 998.6422 324.7181 1000.9499 319.1438 997.6614 316.3274 1000.4884 316.3274 1000.7192 316.5034 1004.527 318.8504 1007.7578 315.3299 1009.0271 315.6232 1011.2194 313.7456 1012.5464 314.7431 1017.2196 320.1413 1020.3928 320.376 1020.5082 320.4934 1025.1814 320.376 1025.2968 319.9066 1025.5852 318.7918 1026.3929 312.1613 1026.4506 311.0465 1026.4506 310.8118 1026.4506 306.3524 1021.0851 298.0203 1025.9891 289.5709 1020.0466 287.2238 1020.5659 281.3562 1021.8351 277.9529 1022.5851 275.4885 1023.1621 274.139 1020.4505 278.5397 1018.0273 278.7744 1017.2773 279.4785 1013.3541 277.8356 1011.2771 276.6034 1009.7194 275.4885 1008.3925 272.0853 1004.1231 273.3175 993.8536 269.9143 992.1228 270.0316 990.2766 263.1078 991.892 263.1078 991.8343 263.0491 991.6612 261.4649 984.6226 262.2863 983.3533 262.2276 983.1225 M 729.9378 867.3887 731.9328 865.254 733.6931 863.4078 736.3922 864.1001 737.2137 862.0808 741.145 864.9078 752.939 862.7155 766.3759 864.0424 766.4346 864.1578 765.4957 869.581 761.5057 877.9466 762.7966 897.7933 759.8628 904.0243 767.6081 907.3705 764.7916 908.9859 763.0313 907.2551 761.9751 909.3321 766.2585 912.2745 771.0113 909.4475 773.1824 909.9667 773.8865 913.5437 780.8103 911.236 780.1062 914.7553 786.2672 916.6592 789.4944 920.8709 790.7266 917.1208 794.7166 917.0054 795.4207 912.8514 797.7091 918.4477 798.5893 918.4477 799 919.1977 798.2372 921.3901 795.5381 929.0057 797.7091 930.448 792.6629 932.6981 792.6043 934.5443 797.2397 935.0636 797.9438 938.5252 792.6629 939.1021 791.7241 943.0253 786.7953 944.8715 790.6093 949.4293 785.4457 951.9679 786.3259 957.218 777.055 960.5065 777.3484 967.2567 779.2847 969.6799 777.9938 972.6223 772.3022 971.5261 772.7716 974.5838 768.0188 977.8724 769.3684 982.0841 772.7716 980.7571 777.8765 984.9687 777.5244 991.8343 774.1212 983.8149 768.1949 985.3726 765.7891 982.8341 764.0288 984.6803 758.2199 978.6801 755.3447 985.3726 752.4696 985.6034 751.9415 988.1996 754.8753 989.065 750.7093 990.1035 750.5332 993.2767 742.7293 991.6612 739.8541 992.9305 738.6806 1005.7385 736.0401 1010.6425 718.9066 1006.8347 705.3524 994.4305 704.8243 994.3728 699.3674 993.6228 700.2475 995.6421 695.7881 999.1037 697.8418 1001.1807 696.8443 1002.6231 693.089 1002.2192 691.6221 997.4306 688.8056 997.8345 688.9816 995.1229 686.6346 993.5074 684.4635 994.2575 684.5809 999.5076 681.0016 998.6422 681.4124 993.7959 684.4049 991.4305 684.7569 991.0843 682.2925 990.392 683.7594 988.8342 683.5247 988.5458 683.3487 988.315 682.7032 987.6227 679.2413 989.4689 672.7869 991.2574 671.4374 991.2574 668.9143 987.5073 670.6159 983.411 666.6846 982.0841 666.6846 982.0264 672.2001 979.3147 671.144 972.853 674.8993 966.6798 676.0141 958.9488 679.8281 959.5834 682.4099 956.0641 684.7569 956.0064 684.4049 953.3525 683.0553 955.0833 679.7694 953.8718 677.5984 950.0063 680.1215 947.0639 683.9941 949.0255 684.3462 946.0254 687.28 945.16 686.8106 939.7368 688.6882 934.602 687.6321 929.4096 685.4024 930.2173 688.9229 924.9094 683.6421 924.5633 M 671.4374 991.2574 670.2638 991.2574 666.0391 991.1997 665.159 991.892 662.5185 983.2956 665.3937 981.2186 661.5797 980.0648 659.2326 982.661 653.4824 978.3916 655.9468 973.4877 654.5385 965.699 656.2988 962.1797 652.6022 955.0833 653.4237 949.0832 647.6734 947.8139 646.2651 945.7369 647.7321 939.9098 646.4412 934.0251 641.6297 934.602 639.1066 932.1212 639.576 933.9097 635.3513 935.5828 633.8844 934.8328 634.8819 932.5827 627.254 930.8519 624.2028 933.3327 619.9194 932.9866 619.626 932.9289 618.2765 932.4673 618.8046 929.8711 616.5162 929.2942 616.9269 927.1018 614.5212 926.9864 610.4138 931.1404 608.4775 927.6787 602.9032 928.6018 600.7322 939.3906 594.3365 938.929 590.2291 946.2562 587.6474 947.237 591.8721 949.6024 591.5787 951.6794 593.8084 952.8333 593.8084 952.9487 592.9282 955.718 585.8871 956.2949 585.8871 956.468 587.6474 958.7757 586.7672 963.5066 584.3615 963.1028 583.364 965.8144 583.716 969.5645 579.7847 972.5069 579.4326 972.7376 578.5525 972.5646 576.4988 972.7376 576.3815 972.2184 574.9732 967.1413 574.9146 966.7375 576.4988 960.5642 576.0294 959.295 572.9196 959.9873 573.5063 949.3716 569.6924 948.6793 568.2841 944.3523 565.409 947.1216 566.5825 941.1214 556.3728 942.5061 553.9084 935.4674 553.791 935.4674 554.6125 933.3327 550.2118 927.621 551.9134 925.0248 550.3291 922.4863 551.2093 919.1977 556.6662 921.5632 558.4265 912.6206 562.0057 914.6976 565.6437 913.0245 567.756 915.4476 567.6387 913.1399 572.5088 913.0822 573.0956 911.0629 577.8484 909.8513 579.1393 894.1586 582.1318 893.6971 579.6087 887.12 584.0094 884.8122 586.2978 877.0235 M 281.3562 1021.8351 276.9554 1033.2585 279.1851 1035.8547 279.8306 1038.5663 280.8868 1042.8934 282.0603 1047.7974 281.5909 1048.1435 280.9454 1048.6051 272.144 1055.0668 267.9193 1049.7589 261.7582 1056.6245 263.4599 1059.3361 256.9468 1056.9707 256.0079 1058.6438 250.6097 1059.74 250.0229 1063.9516 245.5049 1061.817 245.0354 1058.99 246.9131 1056.9707 240.1653 1051.4898 239.1678 1054.2014 236.9968 1054.1437 236.9381 1056.913 230.8357 1056.5091 228.3713 1058.2976 229.1341 1060.9516 226.9631 1063.0862 222.7971 1063.2016 222.0343 1056.913 217.1054 1056.2784 216.8707 1052.8167 212.8221 1052.5859 210.9444 1048.0858 211.3551 1044.3934 213.4675 1044.278 214.5237 1041.9703 218.9244 1043.7588 220.8021 1040.5279 218.3376 1040.701 212.5287 1036.0278 211.5899 1036.1432 205.2528 1044.7396 202.2016 1044.7396 200.1479 1040.4702 198.681 1041.1049 200.2066 1038.8548 198.329 1036.7778 198.9157 1034.0085 191.6985 1035.3932 187.5325 1031.1815 191.5812 1026.4506 189.7622 1026.0468 190.1729 1024.5467 186.711 1025.9314 182.9557 1024.7775 181.8409 1021.7197 178.2616 1020.4505 178.2616 1026.0468 175.3865 1027.7776 171.3965 1027.316 170.1643 1023.7967 172.8634 1022.3544 172.0419 1017.9696 163.2991 1018.662 165.1181 1016.4119 160.0132 1014.5657 164.8247 1009.4309 163.7099 1005.277 163.5925 1005.2193 162.8297 1006.1424 161.2454 1004.527 161.1281 1004.7577 160.8934 1006.6616 160.0719 1006.9501 159.2504 1007.2386 157.5488 1007.8155 156.7274 1007.1809 151.2704 1007.1232 142.2929 1011.7964 139.8872 1010.931 139.1831 1010.7002 131.8485 995.3536 123.4578 955.4872 M 665.159 991.892 662.4599 994.0844 660.5822 995.0075 659.4674 994.4882 658.4112 996.046 658.3525 996.1037 658.2938 996.1614 661.4037 998.0652 659.5847 1002.7385 661.169 1004.2385 655.8881 1009.3732 658.4699 1012.5464 658.4112 1012.6618 653.1303 1014.8542 652.7782 1016.5273 655.1253 1017.1042 652.8956 1021.8351 648.5535 1021.7774 648.8469 1026.2199 648.7296 1026.2199 643.9768 1024.3736 642.3925 1028.2391 638.1091 1028.4122 637.7571 1025.0083 634.8232 1024.2583 624.3201 1027.0853 626.9019 1019.7581 623.1466 1017.4504 618.3938 1021.2005 616.4575 1015.9503 618.6872 1016.1234 619.9194 1012.2579 623.264 1012.0849 623.7334 1009.7194 622.7359 1008.4501 620.7409 1005.9116 618.0418 1010.931 617.1029 1006.4309 617.5724 1005.9116 616.8682 1005.2193 615.4013 1003.8346 615.0493 1003.5462 614.9906 1003.8923 614.2865 1007.9309 615.7534 1008.5655 613.6997 1012.4887 612.5262 1011.4502 610.2378 1015.6619 608.8882 1012.4887 607.304 1015.6619 601.7884 1011.2771 602.4925 1006.9501 601.0256 1004.527 603.7247 1003.5462 602.9032 1002.1038 597.8571 1000.4307 595.0993 1001.8154 594.6299 999.5076 592.1654 998.9884 595.4513 994.7767 593.4563 994.719 591.9894 991.3151 594.0431 990.2766 590.5812 990.0458 585.0656 993.9113 582.6012 990.9689 577.2029 989.7573 576.9096 988.0842 578.6699 988.0265 577.9657 978.1032 576.4988 972.7376 M 343.7879 1044.3357 342.6731 1047.2204 339.0351 1045.8358 339.1525 1046.0665 340.2674 1048.432 337.5096 1049.7013 339.3872 1052.9321 336.1013 1053.336 333.0501 1058.5284 335.3972 1065.5671 335.3972 1065.6825 334.0476 1066.0863 327.8866 1067.5863 327.7106 1067.9902 324.4247 1074.5673 324.2487 1074.9135 324.6007 1075.2596 326.6544 1077.3943 333.4609 1084.5483 340.6781 1086.9138 339.5046 1089.2215 343.0251 1093.664 344.8441 1101.3949 351.4746 1101.3373 358.5157 1110.5683 364.09 1111.5491 366.0263 1118.1262 370.7791 1124.4725 374.0063 1136.6459 372.8915 1139.7614 367.4346 1142.0691 367.2585 1142.2422 367.0825 1142.4153 360.6281 1149.0501 352.8828 1151.3578 341.0301 1157.7042 329.2949 1155.858 329.2362 1156.031 317.4422 1154.0117 313.3349 1148.7039 310.225 1148.2424 309.0515 1143.223 305.1788 1138.9537 304.0053 1135.8382 303.9466 1135.6651 303.9466 1135.6074 305.4722 1131.4534 296.7881 1130.3573 289.8643 1133.0112 290.451 1130.3573 287.6346 1129.1457 287.8693 1126.3187 280.476 1128.0495 278.1876 1126.261 275.8993 1119.2224 272.9654 1117.8954 268.2126 1119.4531 265.4549 1117.7223 261.1128 1111.4914 257.5922 1109.9913 258.8244 1107.2797 249.1428 1094.1255 236.586 1094.1832 236.6447 1094.0678 239.4612 1091.0677 239.6959 1090.7793 235.9406 1083.9714 237.8769 1079.4136 230.3663 1075.952 228.0193 1072.4903 228.0193 1064.3555 228.0779 1064.3555 232.8894 1065.4517 238.0529 1061.7016 237.7009 1059.163 236.9381 1056.913 M 532.0807 955.718 532.0807 955.6603 532.3741 955.141 532.3741 955.0833 532.4328 955.1987 532.4915 955.3718 532.5501 955.6026 532.0807 955.718 M 553.791 935.4674 553.7324 935.7559 552.6175 935.5251 547.5126 934.3712 546.5738 934.1405 543.9921 937.3136 542.3491 936.6213 538.8872 939.4483 538.3591 945.1023 534.7799 942.333 534.1344 944.1215 532.5501 944.5253 530.7899 946.1985 532.1394 952.1986 529.9097 956.1218 531.494 957.8526 530.1444 961.0835 538.7699 965.5836 535.1906 968.2952 536.4815 969.5068 540.7649 968.9875 539.8847 967.0836 541.645 967.2567 543.464 970.3722 540.8235 972.103 545.6937 975.6223 547.1019 980.7571 545.811 983.5264 542.5838 982.7187 541.2929 986.2957 536.7749 986.9303 538.8285 988.7765 541.1169 988.0265 541.0582 993.1613 544.2268 995.0075 544.2854 998.2383 545.9284 998.8153 543.2879 1001.123 544.5788 1005.1039 544.2854 1005.6231 544.4028 1005.9693 543.9334 1006.2001 540.2954 1008.0463 539.826 1008.2771 539.7087 1008.2771 539.2979 1008.2194 535.0732 1007.8732 534.1931 1012.0272 532.0221 1010.931 531.5526 1012.6618 531.3766 1013.2964 529.7337 1011.0464 526.4478 1012.9503 525.509 1007.527 522.2818 1010.181 519.4066 1010.0079 519.524 1006.777 517.4703 1007.9309 513.4803 1005.2193 513.0109 1003.0269 504.3854 1002.9692 498.6938 995.2959 498.1071 986.3534 493.941 985.0264 494.2344 982.6033 499.3979 982.3148 498.5765 980.1225 493.4129 980.9879 489.3643 977.8147 489.3643 972.9107 491.7113 971.9876 484.9049 965.7567 479.8 965.4682 477.4529 962.3528 476.7488 962.0643 463.4293 961.6604 459.7913 958.3719 456.5641 966.0452 456.1534 966.9106 453.865 966.9683 452.5741 967.4298 M 518.8199 749.0586 521.1669 748.5393 526.5651 747.4431 527.2693 747.5008 532.1981 752.8664 535.66 752.3471 536.9509 751.5971 538.1831 750.9048 538.4765 750.7317 539.1806 744.2123 538.2418 743.7507 538.3004 740.9237 539.5326 737.8083 541.5863 732.6158 542.2318 731.0581 545.9284 730.3081 546.4565 730.2504 552.7935 733.8851 560.0107 734.5774 568.6362 730.5388 568.0494 740.7506 582.3078 741.9622 581.545 749.347 585.0069 750.674 587.4126 755.578 591.9894 753.7895 591.9307 753.4433 591.9307 752.174 591.8721 750.7894 590.2878 744.7892 586.4738 742.8276 584.8896 737.1736 586.7672 731.8081 590.3465 731.1735 593.7497 732.5581 594.2778 735.3851 596.9182 734.5774 597.6224 741.0968 602.7272 739.0775 606.1304 741.443 607.0693 744.7892 605.1916 749.924 607.304 756.4434 609.475 757.8857 607.0693 763.0205 600.6149 760.3666 587.5887 759.9627 585.0069 766.7706 580.1368 767.636 580.1368 767.8091 579.4326 772.4823 587.0606 768.386 588.8796 769.8283 581.721 779.7517 578.2004 780.2132 576.7335 785.4057 587.0019 787.8865 585.4763 795.0983 593.339 793.3097 595.4513 795.2136 594.9819 800.1753 590.8746 800.5215 591.52 804.3293 594.9232 805.9447 588.5275 810.6756 588.3515 807.4447 581.0756 807.8486 579.4913 805.7716 583.6574 799.2522 579.7847 798.2714 581.8384 792.502 577.4376 791.6943 574.9146 785.5211 572.1568 785.1749 566.5825 788.8673 567.2279 785.1172 565.761 784.7711 561.3016 788.7519 548.6275 788.5789 548.4515 790.6558 544.3441 790.6558 544.2268 790.5981 540.4128 782.521 531.7874 783.3287 531.3179 781.4248 522.8099 779.8671 522.7512 779.7517 523.1032 775.2516 520.4041 773.0592 522.4578 768.6745 522.3991 759.8473 521.5776 757.3665 518.2918 755.751 M 624.3201 1027.0853 623.9681 1027.2006 624.0854 1027.7776 623.7334 1028.7584 625.2003 1034.0662 624.7309 1034.4701 622.6772 1036.3163 622.6185 1036.4317 622.5012 1037.0663 620.8582 1046.5858 620.6822 1047.682 621.9144 1054.2591 627.0779 1055.2399 621.269 1060.6054 625.4937 1061.24 628.8382 1057.4899 630.3051 1058.99 630.2465 1059.5669 627.3126 1079.1251 626.9606 1080.3944 620.3888 1085.9907 615.5774 1093.8947 612.2915 1093.8371 609.7097 1096.0294 604.2528 1095.7986 602.7272 1097.4141 601.319 1102.3181 M 575.6187 1091.0101 575.5013 1090.837 576.3815 1081.3175 573.3303 1075.952 568.5188 1075.8366 568.3428 1069.4902 565.7024 1068.5671 565.5263 1063.0862 559.6587 1062.1631 559.4826 1059.7977 557.781 1061.4131 559.9521 1056.8553 557.5463 1056.3937 555.61 1059.5092 547.63 1059.4515 543.8747 1063.6055 540.0607 1059.9708 541.1169 1053.5667 538.0657 1047.3935 540.4715 1047.3935 540.5888 1044.4511 536.9509 1037.6432 539.474 1034.9316 535.6013 1033.7201 535.0732 1026.0468 535.0732 1025.7006 530.8485 1024.8352 532.0807 1013.1233 531.7287 1012.8349 531.5526 1012.6618 M 512.5415 1100.2411 512.4241 1096.9525 514.5951 1097.5872 514.6538 1100.1834 512.5415 1100.2411 M 499.75 1082.2406 499.8674 1079.2405 503.1532 1078.0866 503.3293 1079.7021 502.4491 1081.9521 499.75 1082.2406 M 537.0096 1102.8373 536.5988 1106.4143 531.6113 1106.2989 531.7287 1103.5873 524.2181 1104.3373 516.9422 1102.5488 516.1207 1094.6448 512.7762 1094.0101 513.715 1091.0677 516.5315 1092.2216 517.4116 1090.0293 515.4166 1086.3945 513.6563 1087.3753 513.715 1082.9329 510.0184 1083.0483 510.2531 1087.5484 503.916 1088.4715 505.735 1085.5291 504.3268 1082.8752 506.9672 1082.9906 506.7325 1074.5096 504.0334 1067.1825 500.9235 1068.1056 500.1021 1073.0096 496.0534 1074.625 491.946 1073.0673 488.0734 1074.1634 488.1907 1077.3366 484.9049 1076.8751 482.8512 1082.5291 476.2207 1083.3945 475.9274 1090.26 474.1671 1091.9332 472.2894 1089.1062 470.1771 1089.3946 470.001 1084.7791 467.9474 1082.2983 464.6028 1083.3368 461.3756 1080.4521 461.5516 1076.1827 456.1534 1075.6058 455.1559 1075.4904 454.5691 1075.4327 450.7551 1080.3367 440.8388 1083.106 440.8975 1077.7982 438.9025 1076.0097 440.7215 1074.7404 441.0735 1070.0095 420.5954 1059.74 420.6541 1055.8745 415.4319 1051.0859 416.3121 1049.3551 413.3782 1046.5858 409.799 1047.5666 410.7378 1043.8742 407.2759 1043.2972 404.7528 1034.0662 401.2322 1029.2776 401.1735 1029.3353 M 413.8476 1188.2819 413.9063 1188.2819 415.4319 1185.2241 415.4319 1185.1664 413.7303 1183.1471 416.4881 1181.7625 413.1435 1178.9932 422.4144 1182.2817 423.5879 1177.6085 427.8126 1177.0316 427.5779 1170.166 435.2646 1167.9737 438.6091 1170.5699 439.1959 1164.1659 442.7165 1159.0888 439.3132 1154.5887 443.0099 1147.6077 454.4518 1148.5308 455.9187 1144.0884 463.6053 1145.4154 465.4829 1148.127 467.654 1148.1847 471.82 1143.8576 481.2082 1147.9539 480.9149 1143.6269 484.3768 1140.7422 485.9024 1140.6845 486.0784 1143.5692 488.7775 1145.5308 492.3568 1145.5884 497.0509 1142.7614 497.5203 1145.3 500.8062 1145.7038 506.4391 1143.1653 506.9672 1140.8575 502.7425 1140.9152 498.4004 1135.2035 491.8287 1134.9151 494.7625 1134.3381 497.2269 1130.8765 495.936 1125.1071 490.4204 1125.4533 487.8974 1122.107 489.5403 1117.8377 491.8287 1117.2608 490.4204 1115.8184 491.4766 1113.7991 494.9972 1114.6645 494.9972 1120.4339 498.4591 1124.0686 508.7275 1128.2226 515.886 1120.607 516.5315 1114.3761 516.6488 1114.3761 518.4678 1117.1454 520.2868 1116.5684 520.6388 1121.7609 520.6388 1121.8186 524.3354 1120.8378 524.8635 1122.7417 525.7437 1115.5299 532.7849 1111.6645 539.474 1110.5683 541.5863 1105.4335 541.5863 1105.3181 541.2929 1104.8566 539.7674 1102.4911 537.0096 1102.8373 547.9234 1099.4334 547.3366 1090.5485 557.7224 1091.7024 565.2916 1089.7985 571.4526 1092.5678 575.6187 1091.0101 575.736 1090.9524 579.1979 1095.4525 583.54 1095.6833 591.4026 1094.8755 593.4563 1094.6448 594.1018 1094.5871 594.4538 1095.3371 597.2703 1101.1642 601.319 1102.3181 601.5537 1102.6065 602.6099 1102.9527 602.4925 1103.7604 601.495 1108.6644 601.5537 1108.6644 601.7297 1108.7798 607.3626 1110.3375 612.6435 1109.9913 615.8121 1109.7029 625.7284 1109.0105 625.9044 1108.9528 626.0804 1108.9528 626.6085 1109.0682 646.6172 1113.3376 647.2626 1113.5107 647.4974 1113.5684 650.1965 1117.8954 650.7246 1120.9532 655.4774 1125.6264 643.5074 1139.1267 637.581 1154.0117 633.6497 1153.5502 628.4275 1155.3387 621.8557 1156.2618 617.279 1155.8003 613.1716 1157.4734 605.5437 1155.4541 605.485 1155.5695 604.0181 1165.4928 599.6174 1163.2428 600.5562 1172.6469 593.5737 1187.9357 587.706 1183.1471 582.4838 1182.6856 581.721 1184.5895 577.2029 1186.0895 569.8684 1179.397 568.8709 1180.8971 562.0644 1178.647 560.0694 1181.9356 537.4203 1185.6857 538.6525 1194.9744 532.0221 1192.3205 527.7974 1186.3203 530.1444 1184.1279 528.9709 1182.6856 526.0371 1183.1471 523.9834 1186.3203 522.9272 1185.4549 524.6288 1182.051 520.0521 1178.3586 514.5951 1178.9355 512.4241 1185.051 509.6076 1182.3971 501.4516 1181.8202 497.9897 1192.7243 493.4129 1196.7629 488.5428 1206.6285 488.4841 1209.4555 492.6501 1213.9557 490.6551 1217.4173 486.5478 1215.1095 474.6951 1213.148 449.3469 1215.1095 445.4743 1213.148 442.7165 1213.8403 439.724 1212.4556 438.081 1203.2823 431.2159 1197.8014 425.8763 1200.0514 421.7103 1205.0131 414.4344 1203.7439 414.3757 1203.7439 414.3171 1203.6285 412.146 1197.2244 411.97 1196.7629 416.2534 1194.109 413.2609 1191.2243 413.2609 1191.1666 413.8476 1188.2819 402.9338 1191.9166 401.7603 1191.5128 396.9488 1189.6089 395.0125 1183.6664 390.1424 1178.7624 383.9813 1180.4355 380.1087 1179.5124 377.6443 1176.1085 377.2335 1170.0506 374.241 1168.3775 368.1387 1168.5506 361.7429 1172.0699 360.4521 1170.6276 360.3934 1149.2809 360.6281 1149.0501 M 223.7359 266.6802 222.6797 282.0268 233.1828 283.123 230.3076 290.1039 231.3051 300.835 228.0779 301.4119 227.4325 309.5468 214.4063 309.4314 212.0006 311.6237 210.2403 313.4122 210.7097 322.5279 209.0081 328.4126 209.0081 328.528 202.3776 326.7972 193.2828 329.9704 191.0531 332.6243 190.9944 332.682 191.7572 340.4707 191.8746 341.4515 190.8771 342.0284 188.1779 343.7015 183.6012 346.4708 183.3078 346.0093 175.7972 335.5667 174.9757 340.586 164.4726 340.7591 161.1281 347.3939 160.776 353.5095 161.0694 355.7595 166.1156 354.8941 166.2916 358.2404 168.1106 359.3366 176.9707 358.5865 176.0906 364.4713 170.1643 365.6252 169.3428 367.6445 170.8097 379.7602 176.6774 377.3947 186.1243 377.5101 189.5275 380.2794 191.4051 379.2986 189.4101 386.1065 204.666 390.2028 204.314 398.9722 213.8196 400.53 213.5849 404.9147 214.9931 405.5493 212.0593 414.8957 221.2715 415.7611 225.9656 413.3957 226.1416 415.7611 234.8844 415.9919 236.1753 413.0495 236.8794 415.7034 240.9868 415.7034 238.9918 419.742 239.5785 423.9537 242.1016 423.9537 242.0429 426.8384 237.3488 426.8961 237.0554 428.0499 238.6984 434.5693 240.8107 435.6655 239.6959 440.5695 241.1041 442.1272 238.4637 450.1467 241.4562 450.6659 240.8107 455.0507 243.2165 456.3776 243.2751 457.0123 243.6272 457.3007 244.3313 468.3779 240.6347 475.4743 236.586 474.3781 238.405 464.224 229.6035 463.647 227.7846 470.8011 223.6185 470.8011 223.3251 466.7625 220.7434 469.7049 216.9881 469.4164 217.3988 477.7243 219.5699 477.9551 219.5699 481.4168 218.8657 484.0707 216.284 484.5322 216.1666 484.3014 215.2278 482.1091 211.8246 482.2245 211.7659 486.263 212.5874 491.4555 214.465 491.0516 212.4113 491.6863 211.7072 498.4941 207.3065 498.7826 205.0181 493.1286 199.0918 492.6671 199.0918 498.4364 182.3103 494.3979 179.4351 505.7636 173.1568 501.3788 173.7435 492.6094 171.7485 493.3594 171.4551 494.6286 168.1693 494.744 166.585 499.3595 157.1968 497.5133 156.9621 502.3019 145.8135 501.4942 141.6475 503.9751 133.0807 505.302 134.9584 511.5906 127.3304 516.2638 130.1469 523.9948 125.3354 527.3411 123.8099 532.072 118.5876 525.5526 114.7737 526.8218 117.8249 531.3219 115.1844 537.0336 116.886 540.0914 117.1794 540.6683 109.8449 540.8414 108.0846 542.9761 100.9847 544.3608 94.7063 549.9571 82.3843 539.6299 71.4118 543.3223 68.1846 539.9183 66.7763 542.053 61.4368 542.8607 60.6153 531.3219 59.0897 529.4757 52.2832 528.2642 46.5329 521.6871 35.1497 520.8217 35.091 516.6677 32.2159 513.3792 29.2821 513.033 32.6853 504.3789 29.106 502.5327 30.5143 497.5133 27.7565 494.9748 22.1822 498.0903 22.0062 495.8402 18.955 495.1479 19.6591 493.1286 17.8988 492.5517 15.4344 494.3979 14.965 497.6287 9.8601 498.5518 8.2172 497.8018 6.9263 497.8595 6.7503 497.9172 6.809 497.9172 3.2884 495.5517 1.4694 494.744 1.8801 494.6286 8.0999 492.7824 9.2734 488.9746 7.4544 485.7438 14.4369 480.3206 21.5368 478.9936 22.8276 475.0704 22.8863 475.0127 24.9987 474.1473 26.2896 474.0319 27.2284 473.9742 26.2309 477.4359 26.1722 478.5898 28.2846 481.5321 33.3894 479.6859 36.734 481.936 40.4306 480.7821 43.1297 476.5128 47.1197 477.9551 49.9949 475.0127 51.3444 472.7627 51.4031 471.3203 49.9362 468.8395 49.8188 468.551 49.7601 468.4933 53.7501 462.9547 45.7701 461.9162 50.2296 458.3969 50.2296 458.2815 50.9337 455.8007 51.1684 454.9353 54.6303 462.0316 57.8575 461.8585 54.3956 453.0314 62.1996 443.9157 67.9499 429.2615 67.7738 427.3576 62.0235 425.7422 52.0485 429.7231 52.7526 426.4345 49.8775 426.6653 51.8138 422.3382 55.1584 421.9344 54.9824 420.319 61.6715 416.3381 71.5291 419.9151 71.8225 419.4536 72.5853 416.5112 70.8837 410.1071 73.4068 403.1262 74.6976 402.6646 75.3431 401.4531 73.8762 398.2799 73.8175 398.1645 73.7588 398.0491 74.991 396.1452 73.4654 394.5298 71.001 391.8759 68.9474 393.6067 66.4829 391.2989 59.8525 390.4335 59.3244 386.1065 53.6915 387.0296 51.9899 389.7989 49.5254 384.6642 47.1197 384.1449 47.9412 387.3758 43.4231 388.0104 42.719 385.7603 46.5916 383.3372 43.4818 380.5679 44.1272 378.7794 41.9562 378.3178 43.0124 376.9332 41.7215 375.8947 43.8338 375.4908 42.0735 368.6253 43.4231 369.1445 45.3594 366.3752 48.4693 371.2215 50.2882 364.3559 45.2421 365.0482 44.7726 355.5864 37.1447 354.0864 37.3794 346.7016 35.3844 346.7016 34.5043 350.1055 32.0399 351.0863 29.6928 348.0862 35.091 346.7016 32.6853 340.4707 33.8001 339.0283 33.9175 339.2591 36.0299 343.1823 37.5554 341.5091 39.2571 342.3746 39.3157 342.3746 40.0785 346.8747 41.7215 346.7016 41.7801 337.8744 46.0635 339.086 48.9974 336.9513 49.2907 340.7591 53.1634 342.4899 56.1559 332.7974 60.674 332.5666 63.021 329.6242 68.5953 328.5857 66.4829 321.4317 68.9474 318.4893 69.1234 318.7778 72.5266 324.4895 82.3843 323.5087 82.2082 330.6627 86.3743 332.3935 84.4379 336.259 85.0834 336.7783 86.961 337.8744 92.77 335.6244 95.5278 332.6243 97.6401 332.682 99.1071 328.528 99.2831 328.0088 99.2831 327.9511 100.75 328.0665 107.6738 328.2973 107.7325 326.6241 101.6888 322.9317 103.7425 318.1431 108.0846 316.1815 106.559 314.5661 108.0846 314.5084 107.9085 309.8352 109.0821 309.6621 109.1407 309.316 115.6538 308.8544 122.695 303.085 126.9197 303.6043 135.6038 301.1234 136.5426 299.1619 139.3004 300.835 140.0046 298.9311 148.8647 299.2196 145.6962 283.2384 156.1406 280.0075 156.6687 274.9304 155.2604 275.6805 151.2118 273.2573 150.8597 272.4496 149.8622 270.4303 149.5101 269.6226 150.6837 269.2187 151.5051 268.9303 151.9159 268.7572 156.8447 271.8727 156.8447 268.1803 161.4215 267.3725 161.6562 267.4302 167.8759 268.8149 167.6412 271.6419 178.9657 267.4879 180.1979 274.1804 183.9532 274.2381 187.0631 277.5267 187.3565 281.1614 194.4563 282.3153 196.686 280.9883 195.3951 286.6423 201.1454 286.9308 203.4925 286.7 205.3115 282.3153 210.0643 283.2384 213.1741 280.1229 214.5824 275.9112 212.7047 272.4496 212.7047 266.5648 223.7359 266.6802 224.3226 266.3917 232.6547 262.4109 238.9918 264.834 241.4562 262.007 245.6809 260.9685 248.8494 263.1609 250.0816 268.5841 257.0054 264.3148 263.8119 264.9494 264.7507 257.1607 270.7357 258.0838 270.9118 264.0263 275.5472 264.1417 277.0141 266.9687 282.8231 264.8917 281.2388 262.4686 281.8843 252.1414 276.8381 252.1991 278.481 248.7374 283.1751 247.2951 282.3537 238.2948 278.481 238.3525 278.305 235.064 274.0216 228.0253 274.6084 225.4291 276.6034 225.3714 280.5347 220.8136 279.7719 212.2172 279.1265 210.3133 274.491 210.2556 273.4935 206.5632 270.325 204.7747 271.3225 197.6784 266.159 196.5822 264.9854 190.9282 271.9679 189.3704 270.7357 184.3511 275.3712 174.2547 282.9991 178.0048 283.1165 178.4086 285.6396 186.255 289.4535 186.5434 293.2088 184.4088 298.8418 186.9473 299.1351 187.5242 300.074 190.4666 300.7194 190.9859 303.2425 192.8898 303.7706 193.3513 303.9466 193.2936 306.1763 192.9475 307.4085 192.7744 307.4672 192.659 308.8168 184.178 314.039 186.0819 315.7993 190.5243 319.9653 184.7549 321.6669 187.755 321.0801 195.6591 328.18 201.6592 340.15 198.9476 342.9078 196.2937 351.2399 195.9475 351.6506 196.4668 353.8216 199.2361"/>
</g>
</svg>