<?xml version="1.0"?>
<svg xmlns="http://www.w3.org/2000/svg" version="1.2" baseProfile="tiny" width="800" height="1414" viewBox="0 0 800 1414" stroke-linecap="round" stroke-linejoin="round">
<g id="KL" fill="none" stroke="black" stroke-width="1">
<path d="M 172.4701 159.428 165.4266 159.3108 150.7621 166.6932 136.2131 165.8729 132.6336 168.6853 133.211 177.2394 121.5487 181.8095 115.4289 180.9892 106.1914 190.598 96.954 190.9495 104.113 206.4174 101.4572 209.9328 102.4965 214.7372 101.4572 220.1275 101.2263 220.3618 97.8777 218.3698 94.4137 222.2367 82.2895 186.8482 55.6164 128.4924 47.1872 119.2351 34.3703 93.221 28.8278 76.2299 28.2505 78.1047 23.1699 64.8634 28.135 60.5277 24.2091 59.8246 23.5163 63.5744 21.2069 57.9497 26.8649 50.8017 19.9368 58.5356 7.3507 28.4202 13.0087 32.5215 8.6209 27.1312 6.5425 27.8343 1 14.7101 1.4619 12.3665 5.6187 13.8899 21.4379 5.57 31.2526 5.6872 32.6383 6.859 35.6404 5.8044 37.1415 5.3357 38.5271 4.7498 38.989 1.3515 39.2199 1 41.9912 3.8123 43.3768 2.289 43.6077 2.289 45.4552 9.6714 37.026 18.8114 46.0326 22.0925 42.7995 25.9594 58.2722 24.7876 59.6578 32.5215 54.9236 34.9823 57.1175 41.3101 64.2765 42.1303 69.2416 39.0837 69.2416 29.1233 75.5924 31.4669 77.5553 36.8572 84.2525 38.8493 90.3723 36.3885 89.564 39.0837 92.7971 39.7867 85.6381 48.2237 93.0281 55.6061 105.7296 53.1453 104.6903 58.0669 108.1544 61.6995 105.3832 65.6836 107.9235 64.629 111.6184 72.1285 117.0454 72.1285 128.2458 56.8951 129.8624 56.7779 140.1391 64.9805 144.5268 64.629 141.1783 70.3708 133.3264 67.207 131.4789 71.3083 127.784 71.5426 127.0912 77.9876 130.3243 85.9558 137.4833 86.4246 137.9452 92.5179 146.7207 93.6898 147.9909 104.8219 155.3808 104.4704 159.1913 100.8378 157.8057 96.1505 162.3089 92.8695 172.932 93.6898 174.3176 97.5567 175.0104 102.1267 165.8884 108.806 157.3438 106.814 157.2283 106.814 157.2283 121.11 161.3852 127.3205 174.664 133.4139 171.2 141.4994 177.8971 153.569 177.4352 154.0377 172.4701 159.428 172.3547 159.5452 194.5245 159.428 211.7293 182.7469 209.5354 187.4341 215.7707 190.2465 223.507 201.1442 228.2412 204.3081 236.7858 201.4958 241.9819 203.8394 246.0233 216.2605 249.9492 219.4244 262.9971 216.3777 262.6507 221.4165 267.6158 223.5257 266.6921 228.2129 278.8162 223.5257 294.289 225.4006 291.5177 232.9001 291.5177 233.0173 291.6332 233.2517 293.7116 238.7592 300.5242 246.2587 302.6027 255.1644 308.1451 255.9847 315.3042 265.3591 336.2039 268.8746 336.3193 268.6402 357.1036 271.8041 378.1188 260.6719 391.744 256.6878 391.3976 257.0393 391.5131 294.7714 393.707 297.2322 405.0229 291.0217 415.7614 290.6701 421.1884 293.7168 421.8812 304.4974 426.269 310.4736 433.0816 312.1141 443.9356 309.1846 452.5957 317.856 455.9443 328.2851 464.4889 331.6833 466.5674 332.3864 485.8505 326.0586 484.8113 330.9802 484.8113 331.0974 490.1228 336.2533 482.6174 340.9405 482.8484 341.7608 486.7743 353.1273 486.7743 353.2445 486.8897 353.2445 495.3189 360.9784 491.6239 366.0172 477.7678 366.4859 474.6501 375.1572 463.2188 379.7273 463.1033 379.7273 461.3713 377.1493 450.8637 384.766 448.9007 378.907 443.5892 375.5088 429.6176 385.5863 429.2712 385.8207 430.5413 388.0471 434.5827 398.7105 429.5021 398.4762 426.3845 404.4524 416.8006 407.6162 415.9923 407.8506 415.8769 408.788 414.3758 415.7017 400.866 422.6153 394.7462 415.7017 383.3149 411.366 384.4695 404.218 380.5436 400.5854 367.6112 406.4444 347.6352 392.8515 340.8226 381.7193 327.5438 375.8603 323.7333 362.6189 324.7725 352.1899 329.5067 347.6198 309.1843 343.7529 296.5983 331.2146 290.9404 331.0974 293.2497 328.0507 288.1692 325.7071 291.5177 316.3326 284.7051 312.4657 292.2105 307.5441 292.6724 307.4269 292.5569 307.4269 290.2476 300.2789 296.1364 295.5917 333.2017 299.8102 334.4719 295.0058 328.2366 289.8499 336.0884 284.8111 333.8945 277.0772 333.0862 274.2649 335.3956 270.3979 337.1276 268.9917 336.2039 268.8746 M 400.866 422.6153 400.7505 432.5757 397.2865 430.2321 393.0142 436.0911 389.0883 435.6224 387.4717 442.6532 384.9314 453.6682 385.0469 453.6682 392.8987 458.4726 391.8595 465.3862 382.2756 467.7298 370.267 481.2056 360.3367 480.2681 354.1014 483.7835 348.0971 479.9166 330.4305 490.1113 324.888 488.2364 323.8488 492.1033 311.0318 499.8373 312.7639 504.9932 319.9229 506.165 320.9621 510.1491 313.6876 510.3835 309.7617 516.1253 311.8401 519.8751 307.5678 519.4064 301.5634 525.4998 294.7508 514.8364 296.2519 512.8443 277.1997 464.0972 273.5047 461.988 272.0036 452.262 261.3806 430.5836 250.7575 418.8656 241.2891 418.9827 236.324 414.2955 210.8055 346.3308 216.0016 343.6357 221.0822 352.4242 230.7815 348.7916 226.8556 340.7062 251.3348 326.293 259.3021 313.5203 267.154 314.2234 271.0799 319.4965 278.7008 318.2075 276.5069 313.6375 282.6267 312.2313 291.5177 316.3326 M 429.5021 398.4762 434.9291 406.4444 433.6589 417.225 445.3212 412.5378 448.5543 417.9281 458.3691 421.5607 463.4497 417.3422 480.8854 427.0682 487.3516 425.4277 486.4279 431.1695 500.515 441.9501 518.4125 447.4576 515.4104 452.8479 527.8809 451.4417 528.5737 460.1131 524.5323 465.5034 527.1881 469.7219 521.2992 473.4717 519.6827 479.0963 498.2056 488.8223 496.9355 499.4857 494.857 500.7747 482.9638 498.1967 482.271 505.1104 485.8505 510.3835 484.234 526.7888 477.075 529.0152 477.8832 532.9993 464.0271 536.2804 459.4083 540.7332 459.9857 546.8266 448.4389 548.1156 445.2058 552.8028 445.2058 552.92 446.5914 557.2557 453.8659 554.6777 458.9465 556.3182 457.7918 562.4116 460.9094 564.4037 472.4562 565.1068 469.2231 572.2548 459.0619 570.4971 456.6371 584.2072 460.563 588.4257 460.3321 593.9332 448.7853 589.1288 440.2406 590.6521 435.2755 599.7922 429.1557 599.9094 423.7287 590.8865 420.6111 596.0424 416.6851 596.394 415.0686 592.2927 410.6808 593.6988 409.2952 590.7693 403.4063 598.5032 397.0556 596.6283 397.171 602.253 392.3214 601.0812 391.1667 606.0028 388.6264 604.2451 386.4325 613.3851 381.2364 614.3226 377.1951 614.6741 369.9206 611.6274 369.8051 611.8618 364.609 619.9472 371.7681 626.6265 368.304 636.9384 368.8813 638.8133 370.267 643.5005 370.7288 644.6723 371.0752 644.6723 371.4216 645.141 376.8486 646.0785 377.5415 647.719 377.7724 648.5393 377.6569 648.5393 377.3105 649.008 377.0796 650.6485 376.5022 650.297 372.2299 656.6247 363.8008 658.3824 359.8748 660.9604 350.7529 662.1322 349.9446 661.0776 342.6701 662.6009 327.8902 628.7358 301.5634 525.4998 M 494.857 500.7747 497.7437 501.3606 499.8222 505.1104 504.5564 502.7668 504.21 498.4311 511.7154 497.728 512.6391 497.6108 523.4931 505.6963 553.2839 503.0011 572.798 490.2285 574.761 488.9395 576.0311 489.5254 577.7631 489.1738 577.7631 488.8223 586.7696 496.3218 584.5757 503.9386 574.0682 511.6725 577.4167 519.5236 579.3797 516.5941 585.4995 522.6875 590.6956 521.5156 589.1945 531.8275 592.774 539.2099 589.3099 540.9676 590.2337 546.1235 600.1639 550.6936 607.2075 547.061 604.4363 552.2169 596.469 554.7949 580.9962 551.2795 580.5344 551.2795 575.5692 555.6152 564.3688 577.7623 561.7131 583.0354 563.0987 584.3244 565.9854 587.2539 568.2947 589.5975 588.3862 598.1517 601.2032 598.0345 615.8676 603.8935 623.8349 614.2054 622.6802 620.6503 622.6802 621.0019 638.6148 624.1657 638.9612 625.5719 640.4623 632.2512 635.0353 647.0159 634.6889 647.8362 634.5734 648.0706 635.8436 652.0547 635.0353 652.9921 628.5691 661.5463 627.6453 662.8353 629.2619 664.0071 632.7259 677.1313 611.4798 678.4203 610.2097 681.9357 612.4036 688.4978 619.1007 690.6071 618.0615 706.778 620.4863 709.2388 612.0572 744.8616 617.3687 749.7832 614.251 753.7673 622.2183 762.3215 617.5996 771.2272 617.1378 772.1647 611.8262 768.2977 608.1312 772.1647 592.4276 772.2819 595.5452 764.3136 580.0725 760.5638 571.5279 763.7277 563.4451 756.6968 561.2512 759.392 551.5519 758.6889 540.5824 741.1118 531.114 741.3462 520.1446 730.5656 504.6718 725.0581 494.3952 713.3401 491.393 709.2388 493.7024 703.1454 481.9246 690.8414 485.5041 691.0758 490.4693 684.9824 487.0052 681.1154 488.9682 673.9674 497.3973 669.2802 494.1642 659.4371 499.1294 658.3824 505.8265 648.6565 503.1707 641.9772 480.3081 643.7349 475.5739 636.8212 470.3778 638.4618 466.9138 644.7895 446.4759 640.571 434.9291 643.6177 432.5043 635.5322 415.7614 632.4856 420.4956 636.704 419.8028 641.9772 416.2233 642.3287 409.988 653.8124 407.9096 655.4529 407.4477 655.8045 407.1013 656.156 405.3693 652.5234 405.3693 652.4062 404.3301 654.3983 397.7484 651.0001 394.5153 654.7498 386.317 649.1252 377.8879 648.7736 377.7724 648.5393 M 617.5996 771.2272 618.6388 771.8131 618.0615 774.8598 615.8676 781.1876 616.4449 781.8907 622.2183 788.3356 629.9547 784.2343 629.9547 791.1479 635.7281 796.1867 630.8785 793.9602 625.7979 791.7338 619.5626 788.9215 618.0615 789.9761 609.8633 788.1012 608.5931 788.5699 608.0158 788.3356 597.0463 793.4915 590.3492 790.4448 574.1836 794.7805 563.5606 789.7417 550.8591 791.851 537.0029 782.7109 537.0029 782.8281 533.6543 785.5232 535.9637 788.3356 529.9593 788.9215 486.3124 785.5232 478.807 797.71 462.4105 805.3267 459.7547 812.1232 453.5195 813.295 453.8659 820.5602 450.5173 819.6228 449.5935 821.3805 441.9727 822.7866 437.8158 814.7012 437.5849 814.3496 424.9988 812.8263 423.1514 816.9276 407.2168 819.9743 387.5872 757.8687 342.6701 662.6009 M 635.7281 796.1867 636.9983 796.6554 637.922 798.0616 638.4993 798.6475 638.2684 798.5303 637.922 798.0616 M 638.2684 798.5303 641.5015 802.9831 642.0789 804.0378 642.1943 804.0378 650.739 802.866 664.0178 808.725 684.9175 796.1867 685.033 795.7179 685.6103 793.9602 686.3031 792.2025 683.4164 788.4528 699.2356 780.0158 699.6974 780.7188 711.4752 773.4537 726.3706 765.3682 743.4598 766.8915 741.035 778.2581 752.3509 794.7805 750.9653 805.3267 758.9326 804.7408 760.0873 804.7408 762.2811 809.0765 755.8149 819.5056 753.621 838.8404 753.5056 839.1919 745.0764 836.7311 734.6843 840.3637 734.5688 840.4809 733.6451 849.8553 752.4664 868.3698 749.5797 873.643 752.8128 876.2209 755.2376 888.7592 747.0394 892.6262 738.1483 907.3909 738.9566 913.6015 736.3008 915.9451 744.1527 923.9134 739.6494 926.0226 739.303 933.0535 745.3073 935.1627 747.0394 940.7874 739.5339 943.9512 742.6516 949.9274 738.7257 957.5442 739.8803 962.1142 733.5296 964.6922 734.5688 973.2464 726.3706 984.8472 725.3314 987.7767 722.2137 999.0261 722.7911 999.2604 735.1461 998.7917 743.1134 1008.752 754.3138 1011.4472 769.3247 1002.1899 773.1351 1003.2446 771.7495 1009.2208 776.1373 1011.33 782.9499 1002.3071 784.451 1004.182 781.7953 1004.6507 782.4881 1010.041 779.4859 1013.3221 784.2201 1017.7749 784.2201 1019.767 790.4554 1028.3212 795.305 1025.7432 795.9978 1026.7978 799 1031.4851 794.8431 1035.4692 792.7647 1047.0701 787.9151 1049.1793 785.6057 1047.5388 783.7582 1047.656 782.0262 1049.648 776.8301 1058.2022 776.2528 1059.4912 776.2528 1059.374 776.2528 1059.4912 776.1373 1063.1238 775.7909 1074.0216 775.2136 1076.7167 771.6341 1085.3881 763.7822 1085.5052 763.5513 1093.5907 758.1243 1097.4577 758.3552 1105.4259 747.7322 1100.27 744.0372 1102.4964 740.1113 1098.2779 746.8084 1071.4436 743.8063 1065.9361 739.1875 1057.6163 735.2616 1050.5855 735.1461 1050.4683 727.2943 1048.7106 726.486 1043.0859 722.5601 1046.367 718.1723 1043.4375 712.0525 1047.3044 701.6604 1044.3749 696.5798 1046.7185 688.728 1050.937 690.3445 1060.3114 672.9088 1063.0066 672.6779 1063.0066 672.7934 1062.8894 675.1027 1052.6947 659.8609 1045.6639 661.362 1045.078 664.1333 1044.0234 662.6322 1035.1176 657.5516 1031.6022 653.9721 1037.6956 639.4231 1027.8525 638.4993 1022.5793 633.7652 1021.9934 632.6105 1009.2208 636.7673 1007.4631 635.8436 993.6358 639.0767 992.464 647.5059 998.5573 649.2379 996.4481 643.9263 989.4173 646.6976 986.2534 638.9612 978.871 634.458 966.3327 627.8763 960.708 625.9133 962.4658 609.4014 943.8341 600.2794 937.975 592.543 935.0455 588.8481 939.1468 571.066 928.7178 569.334 928.0147 558.7109 927.7803 552.9375 924.3821 553.2839 923.3275 553.5148 922.5072 554.3231 920.398 554.2076 909.383 553.3994 904.9301 554.0922 904.5786 555.1314 904.2271 559.4037 902.4694 569.6804 905.2817 574.8764 905.6332 575.1074 905.3989 570.835 901.5319 583.1901 891.22 579.4952 886.0641 580.7653 882.1971 589.8873 880.3222 596.238 883.6033 595.7762 874.4632 601.665 866.4949 614.7129 873.5258 619.3316 869.8932 605.7064 864.3857 597.3927 856.769 614.0201 857.9408 611.5953 851.8474 615.4057 849.7381 627.1835 854.6597 627.8763 847.8633 646.6976 821.6148 666.0962 827.2395 677.1812 821.2633 677.4121 821.2633 692.8848 822.0836 697.619 819.6228 689.8827 810.9514 680.1833 812.2404 674.5254 807.7875 687.8042 802.2801 685.4949 795.4836 685.033 795.7179 M 553.2839 923.3275 552.4756 922.7416 551.09 922.9759 547.9724 924.0306 549.4734 928.7178 537.9266 926.8429 538.0421 933.5222 532.0378 933.9909 530.3057 939.9671 527.8809 940.2015 527.419 940.2015 527.3036 940.2015 525.2251 933.7565 519.2208 933.0535 514.833 924.6165 504.6718 927.1944 499.5912 925.3195 485.966 933.2878 477.8832 926.3742 473.38 928.4834 473.0336 928.7178 466.9138 913.953 460.3321 915.8279 449.3626 912.3125 449.3626 923.679 445.7831 924.7336 444.1665 931.1786 447.1687 937.1548 443.7047 943.5997 445.0903 955.5521 430.6568 891.1028 431.5805 883.1346 425.3452 877.8615 408.7178 820.5602 423.1514 816.9276 M 473.0336 928.7178 475.5739 933.9909 470.6087 942.4279 475.5739 955.5521 473.9573 972.4261 482.3865 976.0587 479.0379 1019.4155 485.966 1014.4939 489.7764 1018.7124 502.247 1014.9626 502.0161 1021.056 506.4038 1022.5793 506.7503 1031.9538 515.7568 1035.352 511.369 1051.9916 516.4496 1054.3352 514.9485 1064.2956 514.833 1064.6471 514.9485 1064.6471 517.3733 1065.4674 515.7568 1072.9669 515.7568 1073.0841 520.0291 1076.4824 519.9136 1076.5995 518.0661 1080.4665 507.5585 1083.0445 504.5564 1087.1458 505.0182 1087.263 507.4431 1088.2004 512.8701 1090.0753 528.5737 1089.6066 531.5759 1083.6304 528.5737 1081.1696 533.7698 1079.6462 557.2098 1084.4506 555.2469 1088.7863 561.0203 1099.6841 567.7174 1099.8013 569.6804 1103.6682 561.8285 1108.3554 562.6368 1114.8004 556.7479 1118.0814 559.0573 1126.2841 572.4516 1135.8928 567.6019 1138.3536 567.4865 1143.0409 556.517 1144.5642 555.9397 1144.5642 555.7087 1145.9704 554.9004 1147.3765 554.9004 1146.9078 541.7371 1149.9545 539.4277 1154.5245 531.345 1156.751 526.1489 1148.5483 516.2186 1148.314 513.5629 1148.8999 514.833 1152.0638 506.0574 1152.5325 506.0574 1152.7668 505.8265 1152.7668 508.7132 1163.899 465.2972 1069.6859 456.5216 1039.8049 443.7047 943.5997 M 661.362 1045.078 658.0135 1045.5467 652.2401 1050.7026 650.8544 1051.6401 650.8544 1051.8745 651.6627 1056.4445 654.8958 1054.6868 664.7106 1058.3194 646.0048 1061.0145 645.8893 1060.8973 623.8349 1047.8903 622.2183 1051.6401 617.1378 1049.5308 614.251 1051.5229 606.9766 1047.4216 596.0071 1054.3352 590.811 1049.5308 590.0027 1042.6172 578.225 1048.9449 575.6847 1041.7969 568.0638 1039.3361 557.5562 1041.0938 555.2469 1046.2498 552.7066 1043.4375 552.3602 1046.4842 541.6216 1050.5855 542.0835 1061.8348 537.5802 1058.9053 531.4604 1062.3035 529.6129 1058.085 517.8352 1063.4753 517.3733 1065.4674 M 758.1243 1097.4577 760.2027 1105.1916 756.0459 1117.4955 758.2398 1123.1202 748.8868 1131.6744 752.5818 1132.729 753.7365 1143.0409 747.1548 1152.2981 736.1854 1159.7977 733.7605 1168.469 733.6451 1168.8206 703.2769 1161.6726 687.6888 1154.5245 686.6495 1151.3607 675.5646 1150.4232 647.8523 1136.5959 646.5821 1147.4937 657.2052 1150.306 653.3947 1154.4074 637.6911 1150.1889 633.5342 1152.7668 630.6475 1149.9545 620.1399 1162.2585 601.7805 1155.3448 596.1226 1161.4382 597.8546 1167.6488 597.8546 1167.7659 596.9308 1167.8831 594.1596 1168.3518 593.9287 1168.3518 592.543 1163.4303 590.1182 1166.1254 572.798 1162.8444 567.4865 1166.8285 567.1401 1155.1104 564.4843 1154.6417 560.6739 1155.462 555.4778 1153.0012 554.785 1152.6497 554.6695 1152.6497 554.785 1151.595 554.9004 1147.3765 M 733.6451 1168.8206 731.5666 1176.5545 722.0982 1177.0232 715.7475 1184.4056 731.2202 1205.3809 730.181 1214.2866 739.0721 1213.935 739.0721 1221.2002 750.3879 1230.1059 752.4664 1240.6522 742.4206 1251.6672 741.6124 1258.9323 736.5318 1260.5729 737.8019 1263.8539 736.6472 1263.7367 732.2594 1263.0337 729.6037 1262.5649 703.2769 1244.5191 685.4949 1239.4804 679.7215 1240.6522 676.1419 1248.7376 672.216 1250.1438 677.4121 1261.7447 670.7149 1262.7993 663.7869 1257.1746 661.1311 1261.7447 649.1224 1266.3147 642.8871 1261.7447 644.8501 1258.8152 638.2684 1251.0813 633.3033 1252.7218 624.0658 1249.6751 612.0572 1235.3791 607.323 1238.7773 601.5496 1234.4416 599.2402 1240.3006 605.1291 1245.2222 601.5496 1247.9174 604.5517 1249.7923 597.8546 1250.4953 594.506 1256.7059 582.3819 1252.9561 578.4559 1256.8231 573.1444 1256.7059 570.1422 1261.0416 569.9113 1261.3931 569.7958 1261.5103 547.5105 1235.1447 538.504 1228.6998 533.5389 1228.817 527.8809 1221.669 524.0705 1211.8258 526.7262 1211.1227 524.0705 1211.1227 506.0574 1152.7668 M 732.2594 1263.0337 732.0285 1263.5024 731.7976 1263.5024 729.7191 1272.0566 723.8303 1269.7129 723.022 1272.0566 734.5688 1290.1023 732.7213 1294.9067 743.2289 1308.1481 747.6167 1309.9058 746.9239 1315.4133 753.621 1323.0301 754.1984 1323.2644 754.3138 1323.3816 758.7016 1333.2248 751.7735 1345.8803 751.7735 1345.9974 744.6145 1349.1613 736.6472 1344.1225 732.8368 1347.638 740.9195 1364.6291 734.3379 1365.5666 722.3292 1384.4326 716.9022 1384.1983 720.1353 1387.5965 717.4795 1393.4555 724.1767 1392.2837 721.8673 1397.3225 726.0242 1403.4159 726.0242 1403.533 723.9457 1404.822 722.5601 1400.4863 710.0896 1402.9471 700.3902 1413.0247 665.4034 1386.8934 657.0897 1372.4802 575.4538 1273.1112 569.9113 1261.3931 M 216.0016 343.6357 210.921 342.6982 209.5354 342.3467 206.9951 341.878 191.8688 323.4807 184.8252 321.9573 187.25 319.3793 182.8622 318.4419 179.8601 311.2939 163.5791 295.3573 154.2262 294.1855 142.6794 280.1239 137.7142 265.5935 134.0192 264.6561 121.4332 247.6649 113.9278 242.9777 105.6141 248.368 94.4137 222.2367"/>
</g>
</svg>