<?xml version="1.0"?>
<svg xmlns="http://www.w3.org/2000/svg" version="1.2" baseProfile="tiny" width="800" height="624" viewBox="0 0 800 624" stroke-linecap="round" stroke-linejoin="round">
<g id="MH" fill="none" stroke="black" stroke-width="1">
<path d="M 710.3526 132.3045 710.006 128.7959 710.0753 128.6063 710.3179 128.1005 711.2883 126.1091 712.8131 126.6149 713.3676 123.8333 711.8427 124.0861 711.5309 125.3821 707.7881 124.9712 706.7485 125.9827 703.4562 126.1091 704.5999 125.2873 705.7781 121.6206 700.372 122.9482 700.6838 121.2097 698.7778 122.1896 699.367 120.1034 698.1194 118.9338 697.9808 118.8074 698.2233 118.3649 698.362 118.0172 698.5699 117.6063 699.6789 118.2384 702.07 118.6178 703.283 121.0517 704.1147 120.3879 704.5306 118.4913 703.7335 117.9856 698.9164 117.0057 701.169 114.6982 703.179 115.2356 703.4909 112.8965 704.4266 112.5488 707.7881 114.0976 707.8574 111.9166 706.1247 111.2212 705.9861 110.1149 704.5306 110.1465 706.8178 107.6178 706.2286 105.2155 712.2933 106.1005 715.6548 104.3936 718.0113 106.0373 717.6648 105.1522 718.8777 105.3103 719.9867 102.3706 721.9273 101.9597 721.4422 97.9137 718.4272 97.8505 719.7787 96.681 718.9817 95.2586 720.3332 93.7729 718.8084 93.1724 719.3282 91.4655 717.6648 91.0229 720.1599 86.7873 718.8777 85.9339 719.1203 83.0258 718.15 81.5718 714.4419 80.4655 714.1993 78.885 712.3626 80.0546 711.011 78.4741 708.6198 78.5689 705.9514 76.3563 701.9661 76.6408 699.263 76.862 699.0551 76.9252 699.1244 78.5057 695.7282 79.0747 695.8668 78.8534 697.357 76.862 696.6639 76.1666 698.7085 76.7672 698.8471 76.135 695.0697 74.6494 696.2827 73.4798 695.347 72.5632 696.1787 71.0775 693.9608 70.0028 693.9608 66.6839 692.6786 66.273 692.2973 64.7241 700.4413 59.8247 701.3769 57.1379 704.8424 53.5661 704.288 50.8793 704.1147 50.1207 705.5355 47.3391 709.105 47.023 712.0853 49.4253 715.2389 47.2126 719.0163 47.181 721.8234 43.9569 723.2789 43.6408 723.7987 41.9023 726.987 42.3764 731.7694 39.5 733.4675 40.954 737.8686 41.2069 739.2202 43.3247 740.5717 43.6724 740.9183 45.3477 743.0669 45.2845 744.9036 47.3707 744.0372 48.0345 748.4384 50.3419 749.2008 53.6293 752.9089 58.4339 750.3791 61.5632 751.9386 64.6293 755.4387 65.0402 756.3051 62.0689 763.0975 62.8592 764.5876 65.1982 767.2214 66.4626 766.9095 67.6321 769.0928 67.8218 770.0978 69.4339 772.1771 70.0661 776.2663 68.7069 777.9991 70.6982 777.8258 72.1207 776.0584 72.9109 774.3603 76.7356 771.4493 79.1379 768.8848 79.5804 766.2164 81.5086 763.3054 81.1925 761.9192 83.3419 756.9635 84.1321 755.0922 89.2844 756.3744 89.9482 754.5377 91.7183 755.8546 97.3132 753.1168 100.2528 754.9882 101.6436 756.9289 107.9339 764.8995 107.3649 766.3897 118.2068 762.6123 117.0689 756.5823 118.5545 752.3198 117.9856 750.1711 119.7241 749.7553 119.7873 744.2105 118.3965 741.9233 127.4367 741.0222 128.9856 739.2548 129.0488 738.4231 132.0517 736.2745 132.2097 735.4774 134.4223 729.2742 132.3361 727.7494 130.6925 725.3582 131.6091 723.0363 130.566 721.0263 130.9137 717.6301 128.8907 715.0657 130.2815 713.5755 133.2528 713.3676 132.5574 711.1497 132.589 710.3526 132.3045 M 710.3526 132.3045 708.2733 130.5976 705.5702 132.0517 705.6049 132.7471 705.2237 133.0631 701.2383 131.135 696.4559 131.7672 692.9558 130.3131 691.327 128.0689 688.5546 126.7413 688.5546 126.8361 688.0348 130.1867 687.9308 131.0402 683.9108 131.3246 682.2474 132.6206 682.49 135.6867 682.4553 135.7183 679.475 134.5172 679.1978 133.316 675.2124 132.431 674.2075 130.5028 672.3014 130.9137 670.1182 130.408 669.9449 129.3965 665.4397 128.7327 666.7566 125.5402 666.5487 122.8218 669.1825 119.6925 667.2765 115.4568 668.9746 114.9511 671.2618 116.1522 672.9599 114.0028 674.3461 113.9712 674.3461 110.3994 677.6383 108.2499 678.6433 104.5201 673.0985 94.089 672.1975 93.5833 670.638 94.658 668.4894 92.5402 666.4447 93.5517 665.3704 92.2557 666.7566 91.7183 666.2715 89.5057 663.0486 87.6724 664.5041 85.4597 663.4298 83.3103 666.2715 83.8477 666.7566 85.7442 669.1825 85.9655 668.5587 84.4798 669.5983 82.6465 668.4201 81.066 670.9499 74.3017 668.8706 71.7097 668.9399 69.2442 666.1328 67.0948 663.6377 62.5431 662.1475 62.4166 661.3505 59.635 658.682 58.8764 661.2465 53.5028 664.9546 49.362 667.2765 49.1092 667.3804 48.6983 669.7023 48.0661 671.539 48.6666 675.2818 47.0862 678.366 47.2758 679.2324 45.2212 686.6486 42.6293 691.9161 44.273 695.6935 48.1609 701.3769 50.9109 704.288 50.8793 M 325.4398 135.181 325.4398 136.7298 323.4992 138.1838 320.4495 137.8045 320.3109 139.6695 318.1276 140.1436 318.2663 142.2614 313.969 142.7988 313.8997 140.5861 312.1323 140.0488 311.9937 137.9942 310.7115 137.7413 310.6768 138.6264 309.0827 138.4367 309.4639 140.4913 308.5629 140.7126 308.1817 142.6091 309.6718 143.3677 307.8698 144.0948 305.8944 143.02 304.1963 143.431 304.3003 141.4712 301.5279 142.2298 301.0081 138.5948 298.7902 139.1005 298.0278 137.8677 295.7059 138.3419 296.191 134.0746 293.6612 133.4741 292.1364 133.6953 291.7205 134.2959 291.9978 137.2356 291.8592 137.3304 291.8592 137.4252 290.5769 138.1522 286.5916 137.7097 287.2501 139.4166 285.8985 139.7959 285.7252 139.7327 285.344 139.8275 281.7746 139.385 281.532 139.9539 279.8685 139.1321 279.5913 140.5861 278.413 140.8074 279.1061 144.0631 276.8882 144.6005 275.6753 147.0976 274.5317 145.3591 272.2791 144.5057 272.1751 148.1091 271.2395 145.8333 269.0562 146.6235 269.5414 148.2356 266.4571 147.4453 265.6947 141.9769 263.4421 142.2298 262.7143 140.1752 262.4371 140.9338 258.9369 140.5861 258.6597 142.1982 256.1992 143.0833 253.6347 143.02 252.9763 142.0718 252.2832 144.6321 251.3129 144.5373 251.6594 145.9913 250.7237 146.0545 251.001 147.4769 249.8573 147.8562 249.9613 150.0689 247.882 149.5631 247.2236 151.8706 243.4808 151.7442 243.5501 155.5057 240.0846 156.0746 238.2479 157.9712 240.1886 163.9453 237.1043 165.3677 233.7428 165.3993 233.1883 168.0229 227.4009 165.3361 226.6732 168.4654 223.7968 169.3821 222.3759 170.7413 222.7225 171.4367 222.7572 171.4999 222.5492 171.4683 221.7175 171.6896 216.8658 171.7212 215.6875 171.1838 213.7815 170.2355 213.6776 170.1407 213.6776 170.0459 214.7519 165.9367 214.8905 165.4309 213.7122 161.4482 213.5736 160.9741 211.0091 159.2355 212.222 157.5287 208.8605 154.747 207.9595 151.6177 205.8455 152.1551 207.0238 149.4051 205.0485 146.2758 206.5386 145.9281 208.0981 145.5488 208.2714 145.5172 207.9941 141.9137 209.6229 140.8706 209.8655 138.1522 209.8309 137.8361 209.9002 136.6666 209.9002 136.635 210.9052 137.1091 217.4896 135.6551 218.356 134.3591 221.5096 134.3275 223.7275 130.9769 223.0344 128.0373 226.7771 126.4252 227.0197 125.4137 226.9504 124.3706 224.074 120.293 224.1087 120.293 224.1434 120.2298 224.8711 118.5545 225.7028 118.2701 226.2573 117.5747 224.5592 114.8879 224.282 110.6206 221.6135 109.0718 221.6135 108.1867 219.6036 108.0919 219.4303 104.6465 221.371 104.0775 219.8808 101.9913 219.3956 98.135 217.6282 97.3132 217.3163 96.112 214.3013 95.227 213.9548 96.112 212.4646 95.7959 213.1231 94.2787 215.3063 93.5833 215.3756 91.181 216.9698 89.9798 217.8361 86.6293 219.5689 85.2385 221.4403 85.2069 224.5246 82.2672 223.277 81.6982 224.1434 80.6551 222.6185 79.2011 225.3563 79.7385 225.4256 79.7385 225.6335 80.0229 228.4059 82.8362 231.6288 82.5201 231.6981 82.4569 232.1833 80.7816 233.1883 80.3706 237.6588 78.5373 237.936 78.1896 239.1836 76.6092 240.7777 74.0804 241.7481 70.4454 241.852 69.6235 239.7381 67.9166 242.3719 67.3793 241.0896 66.1149 241.5401 64.0603 241.5748 63.9339 243.4808 62.1005 250.6198 60.8994 252.5951 62.1638 256.6497 61.0258 257.0309 63.839 257.7933 63.0804 262.0905 63.2701 262.6104 62.2902 265.0709 64.3448 269.2295 63.2385 278.3784 63.5862 280.6656 65.3879 286.7995 63.1436 288.359 64.7557 292.8988 64.7873 298.5476 63.4597 308.6668 64.6293 313.7611 62.8908 316.187 64.0603 321.2466 63.3333 323.5338 65.3563 327.6924 65.7672 329.4945 67.2844 334.1036 65.135 337.2572 73.3218 338.678 73.4166 340.2375 76.3563 338.4354 77.7155 338.4701 79.0431 340.8266 79.6436 340.1682 80.4023 341.4851 81.2241 340.8266 82.6465 341.9009 83.2471 341.4504 84.954 337.6384 84.0373 335.4898 84.954 337.9503 89.3793 341.2772 91.0546 340.9653 93.4252 349.9409 92.3189 351.1192 92.4454 351.8469 94.3103 361.8276 93.7413 362.0008 93.7413 363.387 97.9137 361.6196 103.2873 360.3374 103.2241 358.2927 105.8476 351.9162 105.2155 350.4954 102.9712 340.6187 97.6293 340.0296 100.7586 336.2175 103.1925 335.6284 105.8476 333.5491 106.5114 332.5788 108.0919 332.3708 109.9252 335.8017 111.4741 335.4551 112.5488 331.9896 115.9942 331.955 117.3218 329.5291 118.9971 330.2222 120.2298 329.3558 121.7787 325.9943 121.9683 323.3952 124.2126 326.3755 127.089 325.4398 128.5114 324.5388 129.8706 324.4695 131.3246 325.0933 134.7068 325.4398 135.181 M 542.6918 69.1178 547.0237 72.7212 548.6871 72.5948 547.8554 74.4281 549.8654 74.8074 550.4546 76.8304 558.3212 77.9051 560.0886 79.1695 561.5788 78.1896 564.6631 79.7385 568.7524 84.1954 569.8267 87.6091 572.1486 89.7902 576.4458 90.5488 576.2725 92.4454 577.4854 92.5086 577.8666 94.8477 580.639 95.385 581.5054 97.7873 583.8966 97.5344 585.3175 99.2413 588.7136 100.6005 588.5057 104.0459 589.4067 106.227 590.8276 106.4166 590.0305 106.9224 591.3128 108.5976 594.1891 109.704 593.2534 110.3994 594.4664 111.727 597.516 112.6436 598.5557 111.4425 599.2488 111.4741 600.1151 111.8534 600.8775 112.5488 601.7786 116.4367 602.3677 116.8476 602.437 117.227 603.3727 117.543 603.9272 116.2155 606.8035 116.9425 606.8035 119.6292 609.9571 121.0517 609.6106 123.5488 614.8781 124.5919 614.9128 125.8246 620.111 126.4568 623.9924 129.0172 625.2053 128.6063 625.3439 131.293 629.0174 132.1781 629.5025 134.612 631.6511 135.3706 631.5818 137.1723 633.072 137.7413 633.5225 139.8907 635.2899 139.7959 635.4979 139.9539 636.4682 141.2183 636.6068 141.408 636.2603 144.3792 633.7998 145.8649 632.8641 148.1723 631.6858 148.1091 630.5422 151.5861 628.8094 151.2068 628.047 153.6091 626.7301 154.2413 625.136 153.1034 620.2843 152.7557 619.6259 151.6177 617.5119 151.1436 615.398 154.2413 614.0118 152.7873 612.0711 153.3246 610.7542 156.4223 605.5906 155.5373 605.556 155.5689 601.3974 157.0861 600.2884 155.8534 600.0805 156.0114 599.422 156.3591 599.1794 156.5172 599.2488 156.5488 599.1794 156.612 600.3577 157.908 597.516 159.4568 598.2438 163.1235 597.7586 163.9769 598.8329 166.1896 598.9022 166.6321 598.1744 167.1378 595.7833 168.7815 595.8179 168.8447 595.0902 168.908 589.8919 169.4137 589.684 169.3189 589.1642 168.3074 586.9462 167.8016 587.0155 164.0401 585.1788 163.1551 585.1788 162.0172 580.9856 157.339 581.1242 155.7585 578.4558 155.7901 577.6587 154.8103 577.0696 156.1378 572.8763 155.2528 570.2079 152.8189 567.7127 147.0344 564.1433 146.7499 562.0293 148.2356 560.4005 147.5718 558.1133 148.3304 546.9544 143.5258 545.4296 143.6522 543.8701 141.8821 542.5186 135.4022 544.5286 133.4741 544.4939 133.4425 544.2167 132.0833 545.3949 130.8505 544.9791 130.7557 545.1523 130.5028 545.2563 130.5028 546.6079 129.3333 546.7811 129.2068 547.1623 130.1235 547.2316 130.2183 547.301 129.9971 548.6525 126.4884 548.098 123.8649 546.7811 122.885 546.7811 120.4511 547.1277 119.2815 547.4049 119.1551 549.1723 118.681 549.103 118.4597 549.0337 118.2384 548.7911 117.3218 548.4792 117.385 546.7118 117.8275 546.7465 116.4999 545.4642 116.2787 543.3503 112.1063 543.3503 112.0747 539.0531 109.8936 538.3253 110.8103 536.0381 110.3361 534.7559 106.7011 532.2953 105.5632 532.7459 102.3074 531.4636 100.6321 532.5033 98.704 531.6022 97.408 532.9884 96.4281 533.0578 93.7097 532.5033 91.181 530.8398 89.9482 532.3993 87.6091 527.3743 83.816 527.7902 81.7615 525.295 79.6752 525.3644 78.1264 524.0821 77.8735 523.5623 76.3879 524.3594 74.1752 526.2654 73.7643 524.8099 71.8678 526.0921 69.0546 525.7456 66.7155 525.9881 66.6207 532.4686 67.8218 532.7459 67.9166 533.6122 69.023 540.9591 69.4023 541.4443 69.0862 542.6918 69.1178 M 361.8276 93.7413 361.7236 93.4568 364.7732 92.5402 364.5306 91.181 368.9665 90.6436 368.516 89.4109 369.1051 88.1781 370.7339 87.8304 369.9368 87.2931 371.1151 86.8189 371.323 83.4683 372.2934 82.4569 376.1054 83.4683 379.5709 81.7615 385.1503 83.1839 386.4672 81.4454 386.9524 78.1264 388.8584 77.7471 388.9624 73.9224 394.923 73.0373 397.3142 76.7988 396.5518 77.7155 397.037 79.454 398.4925 79.7701 399.151 82.5517 400.5718 82.3304 399.8787 83.1839 399.7401 83.3419 401.1956 90.9281 399.7401 92.9195 400.849 94.089 400.6411 95.954 398.9084 97.3132 399.6361 98.7356 401.6461 98.4827 401.6808 98.5775 402.1659 99.3362 401.958 100.7902 400.1213 101.454 400.052 101.7068 400.1906 102.0862 400.7797 103.7298 402.9977 104.0143 403.4482 104.0775 403.3095 104.7413 403.2749 104.931 403.2056 105.3103 401.1956 104.7413 400.9877 106.9224 399.9134 107.681 401.0916 108.0919 400.7797 110.0201 399.8094 108.7241 396.9677 107.9655 391.7348 109.0402 395.1656 112.3275 396.8637 111.9166 397.0023 113.5287 397.7301 113.1494 398.8391 114.9195 396.7944 120.1666 398.9084 121.1465 399.7401 122.7902 397.7994 126.3936 398.7004 128.1321 396.1706 128.6695 394.7498 131.0402 396.4132 131.3563 395.6855 134.3907 398.4232 134.9913 397.4182 136.9195 399.4628 137.204 398.4925 139.543 400.6758 139.4166 401.2649 140.9971 399.2896 142.0718 400.5718 142.4511 399.3242 147.793 397.6954 148.3304 397.037 149.9108 395.8934 150.1321 396.0667 148.4252 395.0963 147.8562 393.3982 149.4999 393.6755 152.1551 391.9774 153.293 393.8487 155.4741 393.8141 157.2758 395.2349 159.2988 393.4675 160.4999 392.4972 163.7873 396.8637 165.1781 396.6905 166.2844 398.943 167.2643 401.5075 167.4223 400.849 169.7614 403.9333 170.6465 404.1413 170.7097 404.5225 174.5344 404.5225 174.6608 404.3492 174.8505 402.3739 176.7154 400.7797 178.1694 397.1063 177.8534 397.2796 181.8045 398.4232 182.2154 398.0766 185.4712 389.5515 185.6608 387.6802 191.1608 385.8434 189.8965 385.2197 192.9309 388.9277 193.247 388.4772 197.7355 387.3336 199.3792 388.7891 200.1694 388.8238 200.1694 388.6158 201.2758 386.2246 202.1608 386.4672 204.3102 383.5909 205.2585 383.9721 208.2298 387.9921 207.4395 388.0267 207.4712 388.7545 208.2298 386.7098 210.7901 384.8038 213.224 384.4226 213.1924 379.4669 212.9079 376.8678 212.7499 376.7985 212.5286 376.5213 210.8849 372.3973 208.1349 372.6052 205.5746 364.392 205.5746 362.7632 207.1235 360.3374 204.7844 359.1591 207.8821 356.1788 209.2729 353.5104 210.5689 349.4557 209.7786 347.0299 210.9482 343.9456 210.9482 342.6287 212.2441 339.1979 211.8332 339.1285 212.9712 338.1929 212.7499 337.9156 212.6867 337.3265 210.9482 334.2768 211.7068 332.4401 209.3993 332.4748 206.3016 330.5341 205.701 329.4252 203.0143 326.4102 202.3821 325.8903 202.2556 326.029 200.3907 323.8457 200.4223 323.1179 199.7585 321.8011 198.5258 321.2812 198.02 321.5931 197.8936 327.1033 195.4597 326.6528 192.2039 331.4351 190.8131 331.3658 190.6235 329.8064 189.6752 330.2569 188.3792 333.965 188.6005 335.3512 182.089 336.3908 182.247 337.6037 178.6436 339.3365 178.0114 337.7423 176.3045 340.9306 174.7873 343.5644 168.8447 338.4701 168.7815 339.0939 167.8332 337.1186 167.2959 337.0492 164.5459 335.3165 163.6292 333.7917 164.1982 333.0986 162.3965 329.3558 165.2097 327.8657 168.3074 321.7317 167.3591 319.8604 168.9396 318.0237 168.7183 317.3652 167.612 317.5038 167.3907 319.1326 164.8304 319.1673 162.112 321.6278 162.112 318.994 156.4223 320.5188 152.8189 319.1326 149.4367 319.098 149.2787 319.2712 149.089 321.0387 147.5085 321.9743 146.6235 322.2169 146.4022 322.5635 146.4338 322.7021 146.6551 324.9547 146.6235 325.6824 145.77 326.5488 146.6235 326.5488 146.4654 326.3409 144.5057 328.3508 144.0631 328.94 141.8189 327.9003 136.1608 325.4398 135.1177 325.4398 135.181 M 400.5718 82.3304 401.1609 83.0574 401.3689 83.3103 413.5674 81.635 421.5034 82.1092 422.2312 78.9166 424.9343 77.1781 429.3701 80.1494 430.7216 79.1695 434.3257 79.7385 437.8259 77.5574 438.0685 77.5574 440.0785 78.0948 440.0785 78.2844 438.519 79.4856 439.524 81.7298 437.7912 82.9942 437.1328 87.0086 437.4447 87.9252 440.6676 87.6408 440.6676 89.3477 438.3111 89.5689 438.6923 94.0574 436.1625 94.3103 436.1625 97.8505 438.3804 98.7672 438.3111 99.7471 437.8259 102.1178 434.5337 102.1178 434.6723 103.5402 437.1675 103.793 434.707 108.7557 434.1525 114.2873 436.4397 114.7614 437.1675 113.6551 439.1081 115.6149 442.0538 115.7413 443.0935 114.7614 449.3314 115.8994 452.1384 114.8563 454.2524 116.1838 463.7478 116.2787 466.6588 112.6436 468.0104 112.7068 467.6638 114.5402 472.8274 115.7097 474.976 115.1724 475.1493 118.1752 480.6941 120.4511 480.7634 122.5057 481.6298 122.4425 480.7634 128.2586 480.7634 128.385 477.6098 127.4683 476.0157 129.9971 471.961 129.839 473.4859 130.3131 473.7978 131.704 471.1986 131.8304 471.06 133.6005 468.9807 131.8936 467.9411 133.7269 462.7082 134.0746 461.8418 135.3706 464.2676 135.6867 466.139 138.089 466.0697 138.089 461.3566 138.7844 461.0101 140.7758 457.1634 141.6608 456.6435 142.8936 454.5296 142.1982 454.1484 146.9712 456.9901 147.7298 459.9704 146.9712 459.312 149.247 458.5842 151.0488 457.3366 151.3649 457.3713 149.816 453.3167 149.6896 453.0048 150.7327 454.4949 151.0488 454.8761 152.2183 453.5593 152.4396 453.1087 154.2729 450.475 154.6838 449.8165 157.2126 448.4996 156.9281 447.4253 153.4827 443.8905 151.997 443.4747 154.5574 439.6626 154.4626 439.42 156.0114 440.7369 156.7384 439.3507 159.3304 436.2664 159.2039 435.2614 161.1321 433.3208 158.0976 430.479 157.4338 430.3058 159.6149 427.0482 160.4367 426.1818 160.0574 426.2165 157.4022 427.3601 154.9051 425.4194 154.5574 424.0332 154.3993 422.9936 157.908 420.8796 158.3821 421.1915 159.7413 419.1469 161.1005 419.4241 161.9855 417.5181 162.7442 415.4041 162.0172 415.0576 163.3447 413.81 163.0603 411.7307 165.4309 411.1762 167.1695 412.909 167.612 409.9633 169.635 409.998 170.8361 409.2702 171.2786 408.9583 170.8993 408.6811 170.5516 407.3988 168.9712 406.983 168.9396 404.5918 170.2672 404.1413 170.7097 M 221.7175 171.6896 221.5096 173.5545 218.8758 174.0286 219.1184 176.6206 221.0937 176.8103 220.9898 182.9424 219.0144 182.8476 217.9401 180.4137 214.0588 180.4769 213.8855 175.5775 211.5983 175.1034 210.4546 173.6493 207.1278 175.1982 207.0931 175.8936 208.6526 175.4511 207.1278 177.9482 205.0138 178.043 204.7712 179.8763 200.9938 179.1177 200.0928 181.0775 200.4394 184.839 199.3304 186.7671 201.9295 186.862 202.484 190.0861 199.9888 190.1493 200.9245 192.6781 199.573 193.8792 200.6473 196.0919 197.9095 197.1033 197.667 200.8648 196.3501 201.5286 196.2808 201.8447 196.1421 203.0143 186.3001 202.2556 181.8643 200.1062 181.5177 200.9597 177.6364 201.339 177.775 198.3361 175.5917 198.3045 174.1016 200.3907 168.1756 199.6953 166.3389 201.2125 165.0566 201.0229 164.8834 199.3792 162.1456 199.2844 160.6208 201.0861 158.9227 199.1263 158.4029 202.0344 155.2146 201.4338 155.2493 204.1522 157.6058 204.3102 157.8484 206.9338 163.7397 208.7987 163.8784 210.1895 166.3389 210.316 167.3785 217.0487 162.9427 217.6493 161.9723 220.6522 157.8831 219.4194 157.2939 221.0947 155.1453 222.6436 147.4172 223.9395 146.0311 228.0803 144.2983 227.7959 145.1993 229.4711 142.8081 232.6005 140.9021 231.8418 140.6942 232.6321 138.1297 230.7039 133.2434 229.4711 124.0598 229.566 122.2924 228.3964 122.6389 226.6895 121.0448 225.3303 121.3221 222.4539 120.1438 222.5487 118.3764 222.7068 115.7426 222.928 115.5 222.9597 115.5 223.0229 115.5693 224.7614 113.698 225.52 112.8316 228.4913 111.1682 228.0803 112.485 229.1551 110.0938 230.7987 109.9552 231.6838 111.2028 232.474 109.6087 232.6321 109.4701 234.0229 108.673 233.3591 105.8659 234.8447 104.2718 234.6867 102.5737 236.9625 100.4251 237.7211 98.4498 238.1321 95.8507 236.9941 94.0833 237.974 93.91 237.3418 93.8407 237.0573 91.3802 235.9194 90.1672 236.3619 91.0683 235.5085 88.9543 234.7183 88.5731 232.1895 87.0829 230.8936 85.6621 227.1637 84.3452 227.1637 84.7611 226.247 81.3995 224.5085 81.3649 224.4769 81.5728 224.3821 83.1669 223.6551 83.1669 223.3706 82.9243 221.7269 82.4392 221.1263 78.0727 220.6206 78.0033 220.4941 77.8301 220.2097 77.4835 219.7355 77.2409 214.7097 75.127 213.8562 74.5032 211.612 74.5032 211.5803 76.7211 210.0947 75.1963 205.9855 76.9637 204.2154 76.9983 202.1608 78.5232 201.8763 78.0727 199.5689 75.6468 199.2844 73.7754 196.0602 69.8941 195.9338 69.0624 193.9424 65.0424 193.2154 64.9038 193.089 64.8345 192.9942 64.28 192.4252 64.7998 189.043 60.6759 188.5689 60.5372 187.2729 58.5273 186.0085 59.0124 184.5229 61.4729 183.3534 61.8541 178.6752 63.4136 177.5689 67.6762 178.5804 68.9931 177.2528 68.6118 178.3591 69.7901 178.9281 71.5922 177.4108 72.1467 179.2125 75.2309 177.8534 74.3299 172.1637 75.8547 170.7413 74.3646 162.9654 73.5675 160.4999 71.4882 161.8275 71.211 159.8045 75.023 157.8764 76.1666 153.8936 79.7361 149.816 79.8747 147.5402 82.2313 145.77 80.4292 145.2327 80.2213 141.2815 76.1666 140.3649 75.127 137.1723 73.8794 137.4884 72.3892 135.0229 76.1666 133.5057 76.3053 132.3045 77.4835 131.7672 77.9687 128.4166 80.3945 128.1321 81.8847 131.4195 80.7411 132.3677 81.8154 134.3907 83.2362 132.9367 84.5878 133.2212 84.865 132.1781 87.7414 135.0861 89.5434 134.8017 94.0139 137.4252 95.1229 141.2499 97.5834 143.2097 99.2468 143.3677 101.742 141.8821 106.4897 143.1781 109.6087 139.7011 111.7573 139.9223 115.5693 137.8045 115.6386 134.0746 114.8416 132.5258 113.5593 132.8419 113.0395 130.8505 115.2921 129.9022 117.2328 130.8505 119.0695 127.2471 123.2281 127.7212 125.5846 126.1091 125.55 124.4971 124.6489 124.2442 125.55 116.5632 127.456 116.4051 127.9758 115.3936 133.1741 117.1637 132.8968 115.9942 133.7632 115.4568 135.5999 117.0373 137.2287 115.7097 140.5556 116.4367 141.2487 115.0459 143.8131 114.3189 143.8478 114.3189 145.4073 115.5833 146.5509 115.4884 146.4816 114.4137 153.8977 115.7729 155.4225 114.5402 156.8087 115.4568 159.3732 114.9511 161.6951 116.3419 162.7694 115.7729 163.3585 116.9741 165.022 114.7614 165.9923 116.1522 168.0716 116.5948 169.6657 114.635 170.2549 116.816 168.7301 116.9741 173.4431 120.2298 174.6561 118.8074 177.1859 118.4281 177.5671 117.1637 178.3295 118.6178 180.1662 118.6178 180.79 119.6292 183.2851 116.9109 185.8496 118.1436 186.6813 117.385 187.2012 118.9338 191.1518 119.9769 192.538 122.0948 195.5877 122.8534 194.444 124.5919 195.2065 126.2988 194.1321 130.6925 199.8849 131.4511 202.1374 132.3045 202.5187 133.4425 208.8605 133.9798 208.6872 136.0976 209.6229 136.0976 209.6922 136.5718 209.9002 136.6666 M 766.3897 118.2068 765.1767 120.8304 765.454 123.9281 766.5283 125.5086 766.7362 129.0804 768.9541 131.6723 768.1917 132.7471 762.3697 134.3275 758.627 138.0258 760.8449 141.3764 762.439 141.6608 768.261 138.9741 773.2167 139.9223 771.7958 141.1551 772.6969 143.3045 771.5879 144.6321 772.0384 149.0258 770.3403 154.3045 771.4493 155.7585 769.3007 159.8361 771.1721 161.5746 772.6622 165.6838 771.1374 167.0746 765.2114 167.9913 762.2657 172.1321 758.5923 171.247 750.3098 174.1551 751.2455 176.6838 752.9089 177.9482 749.6513 181.8993 750.9336 183.6062 754.0178 184.7758 756.1318 184.5229 756.5823 183.2585 760.9488 183.8907 765.454 186.4511 764.7262 188.6321 765.9392 190.9396 764.553 196.8505 765.2114 199.2212 763.34 203.7097 759.3547 204.5947 757.8299 202.635 755.8199 201.9712 751.8692 203.8361 752.0772 206.839 755.5773 207.9137 757.414 206.8074 759.5973 207.3447 761.0182 210.3792 759.1121 211.1062 757.4487 214.6464 754.7109 216.2269 750.9682 215.6263 750.9336 217.6177 756.9635 217.6493 759.3547 220.0832 758.9735 217.0171 757.4487 216.2269 758.5576 214.5516 762.4044 214.1407 764.8995 215.4367 764.553 219.1666 765.5233 220.589 777.5139 226.974 776.4396 235.4769 781.222 234.9711 783.7518 235.9826 786.5589 237.8792 787.1133 240.2183 792.97 239.839 794.98 244.043 798.7228 244.3591 799 248.0257 796.6781 251.566 793.5592 251.4079 790.7868 252.6723 790.6482 255.2642 792.2076 257.8878 794.6335 259.4366 787.0787 264.2096 784.7222 266.8964 778.7962 266.928 779.1774 264.2096 777.8605 262.6924 773.2167 264.9366 771.38 264.7154 767.8105 255.7384 764.7262 257.5401 762.4044 260.9855 758.7309 261.9654 755.4387 268.8562 749.7206 271.6694 749.2355 273.8504 750.1711 276.5056 744.3145 280.5832 743.76 281.6263 744.9382 284.9769 743.7946 285.4826 743.9679 287.8849 740.849 289.9395 741.3688 292.5315 738.4924 295.3447 738.2498 300.6234 745.8739 309.3791 746.0819 312.4452 741.0569 314.5631 738.631 317.3447 735.7893 317.3447 738.4578 321.4539 736.1012 323.0975 732.6357 323.1607 731.0763 325.563 727.2989 323.6033 723.4868 325.563 717.145 321.2958 713.8181 316.9021 708.5852 316.5544 703.7335 311.7182 708.3079 307.5774 706.2633 291.5832 705.1543 289.9079 699.5402 290.6981 698.3273 284.724 699.8175 282.6378 706.7831 278.2441 704.7038 272.8073 705.8821 269.1091 708.7238 265.316 708.0654 262.1234 709.9021 255.8964 706.7138 249.1637 703.7681 246.6665 698.9164 245.2441 693.3023 238.6378 691.2924 232.2844 690.9805 224.2872 688.1734 221.316 686.5793 215.6895 687.2724 213.5717 690.7725 211.3591 692.9904 208.293 689.6982 201.1809 689.7329 201.0545 691.0151 196.9137 693.7182 195.2068 694.7925 195.1752 696.9758 195.0487 697.8075 195.0171 697.8421 195.1436 699.4016 198.9051 699.7135 199.6637 700.0601 199.885 702.8325 200.8964 703.8721 200.8332 707.5109 198.6522 711.0457 193.4367 708.8971 186.4511 705.2583 185.2183 704.8078 184.7758 703.7335 183.7643 703.3869 183.4166 703.5256 183.1637 705.7435 179.0545 710.7338 177.0947 710.9071 176.4942 710.5605 175.135 706.4366 169.7614 706.9911 166.5057 709.2783 163.6292 707.8921 160.7528 708.3773 157.5287 706.09 154.9367 706.09 154.9051 707.199 146.4654 704.7385 144.0631 706.0554 139.6379 705.8821 136.7614 705.6742 133.6005 705.6049 132.7471 M 480.7634 128.385 482.9813 128.8907 483.1199 134.0746 484.9567 133.9166 484.3675 135.0861 485.1992 136.0028 482.3922 143.02 484.5755 143.2413 483.813 146.3706 486.828 145.7068 488.4568 146.0861 488.1796 147.1925 486.1696 147.8246 484.922 149.6896 483.8824 154.2413 481.1793 152.7241 479.5158 154.6206 480.0703 155.6637 478.7534 156.3275 479.2732 157.9712 477.9564 157.6235 477.1593 159.1407 477.6791 161.8591 476.6048 164.4195 476.5355 164.6091 476.5702 165.9051 478.1989 166.2528 479.1346 170.7097 480.7288 170.8993 480.7288 172.3534 486.1003 173.9338 484.021 179.7499 484.7834 181.2039 487.3479 181.6148 487.3825 181.6148 487.0706 183.6694 486.4468 187.9999 485.3725 188.5056 482.4268 194.4482 477.8177 195.0487 475.3919 193.2786 472.4116 188.5056 469.5005 190.1809 467.9757 189.7068 466.5202 191.1608 456.9554 188.316 457.4406 189.1694 455.7772 191.5401 457.6485 193.3735 455.9851 196.566 454.5989 197.135 454.1484 200.4223 452.7968 201.8131 451.0988 201.2125 450.5443 203.3304 449.1927 203.9625 449.1927 206.7125 448.2917 205.9855 447.8758 205.8907 447.5293 207.724 447.4946 207.724 447.4946 207.7556 446.9748 207.8821 444.549 208.3562 444.4103 208.3878 445.1728 207.0918 444.549 203.9625 441.7073 203.6464 441.6726 203.6464 442.4004 200.4539 441.0835 198.747 439.5933 199.3792 438.8655 199.7269 438.2071 201.2125 435.0535 202.1924 434.6376 203.362 431.588 204.4367 431.5534 204.3735 427.5334 198.3993 425.1422 197.0717 422.855 197.6723 421.0529 196.1867 420.4984 198.0832 414.1219 200.2643 412.0079 201.3706 411.4881 202.8246 405.9087 201.3706 404.3492 204.7212 399.6361 204.1206 398.8391 207.0918 397.141 206.3332 396.4825 210.1263 392.2893 209.8735 390.7645 212.6551 386.7098 210.7901 M 693.3023 238.6378 690.5993 236.6148 687.1684 235.7298 683.8762 238.0688 676.0095 239.1752 674.6926 240.5027 672.9252 245.5602 668.7666 243.9165 667.4844 240.9769 665.4397 242.0832 665.4397 244.3275 660.8999 246.224 657.1919 242.6522 655.9443 243.4108 654.4888 242.8418 650.6421 238.8591 646.0676 238.8275 645.6518 239.8073 644.9587 236.8993 641.6664 236.7096 638.7901 234.9711 638.3396 235.9826 639.7604 237.247 638.1663 240.724 638.4435 242.8734 634.978 246.8246 636.884 249.2269 633.7304 250.2384 624.7202 243.1579 619.6952 241.5775 615.0514 242.3677 613.4226 240.3763 612.7295 241.4826 609.472 241.2298 609.2294 240.2815 612.6256 238.2901 610.9275 236.5516 610.9275 231.178 605.9025 229.7872 604.2737 231.2413 600.8775 230.9252 601.6746 227.9223 599.8379 220.9051 603.338 220.3677 603.5113 221.6321 603.5806 222.201 603.5806 222.2959 604.2391 222.5487 605.7639 223.2125 605.9025 223.2757 608.6056 222.5487 610.3383 222.0746 610.4423 222.043 609.1601 219.451 610.5463 217.3648 612.5216 216.543 617.5119 217.2068 619.21 215.1522 622.1903 215.4683 623.9577 212.7183 625.5172 212.6235 625.8984 212.6235 626.5222 211.928 629.0174 209.1148 629.4332 208.6723 629.6065 207.8821 624.0271 205.9223 623.7845 202.7614 625.7945 200.7384 624.0617 199.5373 626.0717 198.7154 625.7251 196.9453 623.2646 195.6177 622.2943 191.635 619.4873 191.224 619.9031 189.4855 617.0961 187.0832 615.1207 185.5028 612.279 185.566 612.2097 183.9223 613.4226 183.4166 610.7889 181.2039 611.6206 177.7269 607.7046 174.7557 607.6006 173.27 597.3427 173.5545 597.3081 173.4597 597.7932 171.089 595.8526 168.8447 595.8179 168.8447 M 636.6068 141.408 643.6071 140.4913 646.3102 141.2499 648.84 136.3821 648.2509 135.4971 649.4638 134.6436 649.0133 132.431 651.9936 131.7672 653.8303 134.0746 657.4691 133.885 660.692 132.0517 662.598 129.2068 664.1229 129.9022 665.3704 128.7327 665.4397 128.7327 M 599.8379 220.9051 596.3031 221.474 594.1545 219.293 591.6593 219.862 589.9266 218.8505 588.0899 220.4625 586.1145 218.3131 576.8616 215.4367 568.3365 215.3734 567.5395 217.4597 565.9107 217.9338 564.1779 215.5631 560.2273 215.816 557.1776 213.9194 555.8261 212.7499 555.2716 209.4309 550.2813 208.7987 549.8654 207.7872 550.7664 206.997 550.0387 205.9539 548.0634 206.4597 545.9494 206.997 544.9791 210.0631 543.0037 210.8217 542.9691 210.7901 541.7562 209.2097 543.3156 207.3763 542.6918 205.1637 538.2907 207.6924 538.256 207.6924 534.3746 206.9022 532.33 206.4913 530.8745 208.0717 528.4833 208.4826 528.3793 208.451 525.6416 207.8821 523.6316 205.1637 519.9235 206.8074 513.8936 206.7125 508.9032 209.6522 506.0615 214.1407 505.8883 215.1522 504.2941 216.8907 503.8783 217.5545 505.2645 219.862 505.1259 222.4855 506.4427 222.6752 507.8289 224.4137 512.0568 223.2125 516.5273 227.0056 517.0472 229.0286 517.2551 229.1551 519.577 228.6493 521.379 227.6378 523.0425 227.8907 523.7356 230.451 526.9931 232.9798 528.3793 231.178 530.4933 231.589 531.1517 230.3562 535.7608 231.6838 535.8302 231.7786 537.4936 235.0027 536.7658 240.5344 536.7312 240.6292 533.0578 241.9568 530.0428 241.5458 531.5676 244.3907 531.5676 244.4223 530.2854 245.2441 529.3497 248.0257 527.6169 247.9309 525.1564 250.3016 525.0871 250.27 525.0525 250.3016 520.8246 247.2987 520.2701 249.1321 519.8542 250.5229 519.8196 250.6177 518.2601 250.6177 517.7056 250.6177 517.671 250.6177 515.661 245.4654 513.8589 245.1809 512.4381 246.5717 509.4577 242.9683 507.6903 244.4223 507.3438 246.1292 504.8833 244.1378 503.2891 245.2441 503.3238 247.4252 501.6604 248.3102 503.601 250.8706 502.0762 252.1349 501.0019 252.0085 499.5811 249.7326 498.9919 251.0918 494.1402 253.0516 489.2885 252.2298 489.1153 252.2298 488.838 250.5861 490.4668 248.4999 493.1352 247.9309 492.6501 246.793 494.1749 245.4022 493.7937 243.8217 492.0956 243.1263 489.947 244.1378 488.9766 242.4309 483.1546 241.451 482.9467 240.724 484.4715 240.724 483.3972 237.247 484.021 235.8878 482.3575 236.0142 482.2189 234.1493 480.8674 233.77 481.3179 232.8849 480.3822 231.9051 479.4812 232.4424 477.6098 230.8936 475.2879 231.6838 473.6938 229.9453 466.0004 228.6177 464.7875 227.9539 464.5449 227.9223 464.5795 227.8591 465.0994 226.816 464.0944 224.4769 461.4259 222.4539 459.6585 224.224 458.4456 224.1292 458.4456 224.0344 458.7575 220.3993 460.8715 219.6407 458.2377 218.4711 459.1734 215.3102 457.0594 214.7097 456.0198 215.5947 455.8811 215.4683 455.6732 215.3418 454.8761 214.7413 454.8761 214.3303 454.8415 213.9194 454.8415 213.6666 456.4703 213.793 455.6732 212.4654 456.6089 211.4223 455.0494 211.043 455.1187 209.8735 452.8662 208.7039 450.1977 209.0516 450.1631 208.9252 450.1284 208.3562 450.0591 208.0085 450.1284 208.0085 451.9651 207.9769 451.8612 206.3648 450.9601 206.5861 449.5046 206.9654 449.1927 207.0602 449.1927 206.7125 M 484.5755 143.2413 484.6448 143.1781 486.1003 141.7241 489.1153 142.4827 493.4125 143.5258 494.3828 145.1379 497.0166 145.5804 499.6157 143.2413 500.1009 141.3131 502.9772 143.1781 503.5664 140.9654 505.5764 140.2384 505.4724 138.7844 506.6853 138.8792 508.2448 137.362 510.4627 139.0689 509.9775 142.9884 511.1905 143.7787 511.9182 142.1666 515.8342 140.9971 517.9828 137.4252 520.4087 137.2672 520.2354 135.8764 522.0028 133.4425 527.0971 132.8735 528.0328 133.4108 527.4783 135.8131 529.1417 135.9712 530.9438 135.2442 530.8398 133.7269 533.6122 134.1063 536.0727 132.3045 538.3253 132.6206 539.4689 131.0402 539.6075 130.8189 543.1077 131.7356 543.177 131.7356 543.7315 130.3764 544.9791 130.7557 M 376.7985 212.5286 375.1697 212.3074 374.442 214.1723 374.4073 214.8361 374.2687 217.2384 371.7735 217.4597 371.6696 218.7872 374.234 219.9884 374.1994 220.3677 374.1994 220.4625 374.1647 220.9683 372.1547 220.7154 371.6696 222.6752 369.313 222.5171 369.3477 224.5085 371.6696 224.8246 372.0508 229.1551 370.3527 228.9022 369.9022 230.2614 368.3773 230.6407 368.4813 235.2872 366.6792 236.3936 367.0605 237.8792 368.2041 238.1321 367.6496 242.2729 361.1691 242.6522 360.0948 249.1321 358.1195 248.9424 357.4957 250.7757 355.1738 249.5114 353.9955 252.8619 352.7826 252.7039 352.2281 259.2154 350.1835 259.1206 349.7676 260.1637 351.5697 261.1435 350.3568 262.4079 348.1042 261.9338 347.1338 264.3993 345.2278 263.8303 344.9506 265.8533 346.0595 266.3907 344.9852 268.0976 344.5694 267.8447 344.2228 267.2441 343.4951 267.2757 340.792 267.4022 340.7227 267.2441 340.2375 265.8849 338.3661 266.6119 337.2918 265.2843 337.1532 265.3476 335.8363 266.043 334.866 264.8734 334.762 264.9999 332.6481 267.655 328.7667 267.2757 327.2419 265.8533 326.7567 261.7757 322.7367 265.0947 319.3406 266.4539 319.2366 266.4223 315.8404 264.3045 315.8057 264.1464 315.7364 261.6809 317.4692 257.793 316.3602 256.6866 316.2909 256.7183 313.8997 258.1407 312.6175 257.5401 309.5679 258.8045 304.5775 255.928 301.3893 256.9711 301.8398 257.951 300.6962 260.1004 297.0228 260.2901 294.181 260.1953 293.0374 259.0257 290.8888 259.1206 290.1264 257.6033 288.3937 258.5516 286.7649 257.382 287.2847 253.5889 286.4183 253.2096 286.557 250.9022 287.3887 249.4165 289.1214 249.701 291.478 239.4913 290.8542 237.0573 285.9332 236.5516 284.6509 232.9482 286.4876 232.474 286.6263 231.02 288.5669 231.178 289.1214 229.9137 288.3937 220.0516 290.5423 218.9137 289.364 216.1637 291.5126 215.974 291.8245 214.9309 290.5076 213.0028 291.4087 206.839 293.9731 205.3849 292.7602 203.2355 290.2304 201.9395 290.4037 197.2298 285.344 197.1666 284.9628 195.4597 286.453 192.9625 285.1014 192.0459 284.7202 188.4108 288.4283 188.1263 290.4383 179.8763 293.2107 180.1608 293.6959 179.3074 293.2107 175.135 295.2207 170.7729 293.9731 168.1809 296.5376 167.5804 297.3347 165.8419 299.8991 165.4309 299.8991 166.2528 301.0774 166.3476 302.6022 165.3361 301.32 162.2384 300.211 162.0172 300.4883 159.0459 298.7902 158.2873 301.112 156.8965 302.0131 154.1465 304.8894 154.2729 305.1667 153.1982 307.5579 152.1235 309.2213 153.5775 310.9541 153.4511 311.4739 155.2844 314.2809 154.747 312.2016 153.7988 310.0877 150.7643 311.3006 147.1608 313.5532 146.7499 311.2659 143.589 312.7215 144.3476 313.3799 143.6206 316.8107 144.1264 320.0337 146.3706 322.0783 145.7384 322.5635 146.4338 M 196.1421 203.0143 196.1768 203.0143 196.7313 205.1637 194.1321 205.6062 193.6816 211.3275 195.1371 211.6436 194.8599 213.8246 189.6617 212.8131 188.518 219.0717 188.8646 219.6091 190.1468 220.0832 190.4241 220.1148 192.8153 217.9022 192.8846 217.9338 194.3747 219.4194 198.0135 220.3677 198.464 221.5056 199.5383 220.8418 199.1918 219.4194 200.7166 219.1666 201.1671 221.5688 202.0681 220.1148 203.9049 222.1694 205.395 221.7585 205.6029 223.3706 207.1971 223.5602 207.2664 225.3303 210.0734 226.4999 209.519 228.0487 213.435 232.0631 216.7965 231.178 217.143 232.7585 219.8808 231.9051 221.4403 232.9798 224.3166 231.9999 227.9554 234.2441 231.8368 234.1177 231.8714 235.3188 233.8467 236.1091 236.5152 235.4137 242.8224 237.6263 246.2186 236.9625 246.3225 236.9625 247.9513 238.6062 247.7434 240.2183 252.8377 244.043 254.5704 240.9769 255.1942 241.8936 254.5358 244.8332 257.3428 245.2125 258.2092 246.7614 259.8726 245.7183 259.734 247.9625 260.4618 248.1522 260.8083 246.4137 262.5064 246.1608 262.7143 248.1838 261.3974 247.8677 260.8083 249.6062 259.3181 249.7642 259.6994 252.1665 261.5707 251.155 262.4371 252.7355 260.9123 255.3275 263.5114 256.1177 270.7543 253.2096 270.9969 254.6953 273.2841 254.6004 274.0812 253.3045 275.2594 254.2211 275.0168 257.5085 275.7793 257.6349 278.0665 257.4137 279.4873 258.2671 278.0665 262.6608 280.2498 263.3878 280.5616 263.4826 280.2498 264.1148 278.6556 267.2125 278.3784 267.6866 278.2744 267.7499 272.4177 270.4366 271.1701 273.2815 271.1701 273.3131 268.8483 273.3763 267.1155 275.5573 268.9522 277.8964 271.4474 278.5918 271.9672 280.7096 268.9522 281.3102 269.68 283.1751 274.7396 282.3849 275.0515 284.4079 271.5514 286.6205 271.0662 285.7039 267.9472 286.905 263.6847 286.7786 266.0759 282.4165 267.6353 282.1953 267.4967 281.0573 261.9866 282.4165 262.1599 280.2987 262.0905 280.2671 260.0112 279.8878 260.1499 281.974 262.9223 284.1866 263.3728 287.0631 260.5657 286.8102 257.8973 285.1349 255.5408 286.6838 256.4071 287.4108 255.5754 291.3619 260.9469 291.8993 261.1202 295.5975 256.6151 296.4826 254.0852 294.8389 252.8723 292.2154 254.2585 289.4338 253.3575 287.8849 249.788 288.1694 249.996 285.8303 248.991 283.7757 246.1839 285.6407 247.0849 288.1378 246.0106 289.6234 248.2632 291.2987 248.3672 292.4998 245.5948 293.4797 244.3819 292.7843 244.1046 291.0774 241.0896 291.2039 234.8864 289.3073 235.2676 287.9797 236.7924 288.0746 235.6488 286.8102 237.4509 286.7786 237.4855 284.8504 238.6984 283.6809 238.2479 282.4165 234.8517 283.0487 235.6488 283.1751 234.6785 283.9338 235.5448 284.4395 233.7081 285.1349 233.1536 284.2499 231.6288 284.8188 232.2873 283.997 230.4506 284.6924 230.4852 283.5544 229.1683 284.5976 226.0147 283.3648 225.5642 283.9338 222.4799 281.7843 220.3313 285.5774 219.7768 291.0142 223.2423 291.4884 223.069 294.2384 224.2127 294.5544 223.5542 297.2728 220.6085 297.3677 219.9501 298.7269 218.6679 298.1263 218.3213 296.7039 215.7569 296.1349 212.2567 297.5573 211.1131 295.5659 209.4843 296.9251 209.9002 298.3475 212.0834 299.2326 211.0784 301.1608 213.331 303.5314 214.8905 304.5746 216.7272 302.9309 216.8658 305.7125 218.148 306.6924 217.7668 309.5688 220.1927 308.747 220.5046 311.3389 222.5839 311.1177 223.9008 312.1924 225.4602 311.2757 225.2523 312.8245 226.6732 314.3102 228.9257 313.7096 228.5792 315.701 231.8714 317.5659 235.4755 322.3073 238.04 323.5085 243.1689 329.3561 244.971 322.8763 244.6591 320.1579 248.1592 319.9682 252.6297 321.7699 254.7783 320.8217 259.8726 313.4567 260.9469 315.3849 262.9916 315.0056 264.1698 317.2182 264.9323 316.9654 266.5957 310.8964 270.7543 314.7843 271.6553 318.7355 273.3188 318.7039 277.1655 321.4222 278.9329 320.474 278.9329 318.609 281.8785 320.1895 281.6706 322.9079 284.4777 323.8878 284.4777 323.951 284.5816 323.9826 284.4083 324.8993 284.3737 325.2153 280.631 325.563 280.8735 329.1665 280.3537 329.2613 278.3784 329.6722 276.3684 331.3791 275.2594 330.8418 272.7643 332.8332 268.1898 340.0717 261.1549 337.1952 259.9419 340.7671 259.9419 340.7987 259.8033 340.7987 258.2785 341.1148 256.6844 340.7671 253.1496 342.2211 251.3822 339.2182 248.7137 337.8906 247.5008 340.0401 243.2382 341.2096 240.9857 340.5458 239.8074 343.8648 238.2826 344.0228 236.8271 349.7441 235.7528 350.4711 233.7428 350.9136 229.6535 349.1751 228.5792 352.3992 226.0494 352.7469 224.8018 354.201 219.7768 354.8015 219.1184 356.951 215.0638 357.3935 214.8905 358.9739 213.6082 359.5745 211.8062 359.0688 211.7369 358.9739 208.9645 358.0573 208.3753 357.3619 208.0981 357.0458 208.0288 356.951 209.5883 354.4854 208.0981 352.5889 206.5386 351.8303 204.0781 353.063 201.7562 352.4308 200.5433 350.0602 201.5483 344.5286 201.2711 344.1809 199.6423 342.79 195.657 343.8964 194.8252 345.1607 194.7559 345.4136 196.5233 346.6464 193.8203 347.9423 193.7856 347.9107 190.736 346.2038 187.513 345.7297 185.1912 343.8332 184.1515 342.3159 187.2012 338.3015 183.6317 335.2355 184.4634 332.2326 180.5127 332.1694 176.9086 329.3561 180.5821 326.859 177.2205 324.9309 177.4631 321.8648 174.2055 321.6119 172.5421 318.9251 169.8737 319.5573 169.2845 317.2814 170.0123 316.3016 168.3835 313.6464 169.7697 311.4021 165.022 309.632 162.8041 310.359 160.9673 308.747 159.8584 304.0372 157.4325 302.4251 155.3532 299.0113 154.071 299.2642 154.1057 297.747 152.6848 297.4941 153.066 296.1033 151.6105 295.1866 151.8531 293.7958 150.6402 294.1119 148.1103 291.6464 148.0757 291.6148 151.5758 282.2901 153.9324 282.7642 157.0167 278.9711 157.0513 277.0746 159.7891 276.6636 161.903 274.6091 156.4622 272.7125 152.4422 275.02 147.5559 272.997 146.4816 275.0832 145.9964 272.7757 143.5012 273.1866 139.3773 271.5114 139.8971 272.6493 136.1197 271.0688 135.5652 269.3303 134.2484 270.4366 133.5206 268.8878 134.387 267.6234 132.377 265.8849 133.7285 265.8533 133.7978 264.2728 131.4413 261.6809 131.1294 259.816 125.0994 261.8706 124.8222 261.6809 123.5746 260.7642 120.7676 258.7412 119.5547 259.247 118.9655 259.9424 117.0595 260.2585 114.4604 257.6349 112.4157 256.497 109.8513 257.2556 109.678 257.1292 108.9849 257.3504 107.8759 256.0861 104.8263 254.316 105.1382 252.9884 101.4994 252.6407 99.6627 250.0487 103.5441 247.7729 103.0242 246.7614 100.8756 246.224 100.2518 244.4539 99.7667 245.3706 98.727 245.1177 98.1032 242.7154 95.6774 243.1263 94.707 242.178 95.2615 239.5545 94.0833 237.974 M 466.0004 228.6177 465.134 229.3763 466.7628 230.3878 466.4163 235.6982 468.0104 236.5832 465.2726 239.5545 465.4459 240.2815 466.7281 240.0918 467.144 246.9826 467.144 247.1091 467.1787 247.1091 467.2133 247.1407 468.7035 246.9194 468.8421 247.4568 468.7728 250.27 467.4559 250.3964 467.0747 252.2298 464.9954 252.0401 463.7825 255.1062 464.8914 257.4137 462.0151 258.1091 458.307 261.9338 456.7129 261.8073 455.5346 260.4797 451.8265 260.2585 451.5839 262.6924 448.8115 263.0401 448.8115 264.0516 444.9648 263.451 444.445 268.0976 442.9548 268.0343 441.2567 271.0372 438.9349 272.5228 438.8309 278.4338 440.1824 278.8447 440.1824 281.1522 437.8952 282.7642 437.4794 283.0487 437.3754 283.1435 436.9249 286.5257 435.0535 287.8533 434.2218 287.4108 433.3901 286.9998 433.3208 287.0315 430.4097 287.6953 430.1325 286.5889 430.1672 286.2412 431.1028 285.5142 431.692 285.0401 429.7513 284.0918 431.2761 284.2499 431.8306 283.1119 430.5137 281.0889 433.3208 280.109 430.687 279.4769 431.1721 277.8964 429.9939 277.8332 428.7463 275.8734 425.2115 274.9884 426.8403 271.7642 426.3204 270.4999 422.7856 270.2154 422.647 268.224 423.8599 267.0861 420.7063 267.497 420.4291 264.905 419.4934 264.0516 419.6667 263.8619 419.3201 263.9251 414.3991 264.6838 414.3991 265.8217 412.0773 265.8217 411.1069 264.7154 412.0079 262.5976 413.6367 262.0918 411.8347 261.27 412.0079 261.9654 410.8643 260.2585 411.2109 257.8246 414.3298 252.3246 412.0079 251.5027 411.5574 253.1464 408.5771 252.2298 410.6564 249.8275 408.6464 249.4165 407.0523 245.339 407.6761 242.8418 410.2405 242.9999 411.0376 238.4165 414.2605 236.8361 414.8497 235.4137 412.9783 234.4654 413.0476 232.4424 411.6267 232.3476 410.1366 234.3073 408.993 234.2125 409.6861 232.6005 407.1563 231.6838 408.4385 229.2183 407.0523 226.247 403.6908 226.6263 404.3492 229.7556 402.9977 228.4913 401.3689 229.6924 400.5025 223.6867 399.0123 225.2355 399.5668 227.3849 398.3539 228.2384 395.7548 225.5516 396.2746 223.9711 394.126 220.2413 391.215 221.3476 389.1703 219.4194 387.1257 219.6723 385.8434 216.7643 385.1503 218.8505 382.8631 219.5143 382.3086 218.8189 384.0067 218.0602 382.6205 217.0487 383.4523 216.2585 382.3086 214.3303 382.3086 214.2671 380.0907 214.6464 379.4323 215.7212 374.4073 214.8361 M 548.0634 206.4597 546.1227 212.5918 551.009 213.5717 550.7664 215.816 553.0537 216.701 553.7468 219.0401 551.4942 223.4654 551.6675 225.6148 549.2763 226.3418 548.6178 227.7642 545.187 227.6378 543.8701 230.293 546.5385 232.1263 548.0287 235.8878 547.8554 239.5545 546.8504 240.566 545.083 240.2183 544.9791 241.0717 546.8158 242.178 548.3753 248.1206 547.9247 250.4912 546.192 251.2499 544.6325 250.5229 542.1027 253.178 538.9144 253.178 537.3203 255.2958 535.4836 254.7585 536.6272 256.4654 535.1024 260.8591 537.2164 264.178 535.5183 267.6866 535.4143 271.6694 532.434 272.428 529.7655 270.5947 527.0971 271.4797 526.0921 269.9941 523.8395 271.701 522.488 271.1004 522.5573 268.4769 519.8889 267.655 519.7502 266.1378 513.1312 261.5229 509.8736 264.0516 508.2101 263.6723 505.2298 265.2211 505.4377 267.2125 509.1112 267.7815 509.4924 268.6981 509.0072 269.8677 505.9922 269.9941 503.705 276.3159 504.9179 277.2326 502.3881 281.6579 503.705 283.428 503.9476 286.0832 502.1109 286.3361 500.0316 284.5343 498.784 287.632 499.0959 289.7182 495.665 288.5803 495.3878 291.4567 496.7047 294.6177 496.3235 296.6723 501.1752 296.7355 500.9326 299.8964 504.7793 299.5803 503.2891 303.4998 507.3438 303.9424 507.9329 306.1234 509.1458 306.155 509.0765 307.5774 513.4777 309.8533 513.443 311.1809 509.4231 311.4337 502.9772 313.5832 497.8483 325.405 496.3581 324.7728 496.0116 323.1291 494.5561 323.6349 494.1749 325.405 492.3035 326.9222 494.2788 334.4452 493.1006 337.5745 489.5658 337.7326 485.1299 340.0717 484.1596 339.313 484.3675 337.7642 483.016 338.8389 482.5655 337.859 480.902 338.7441 479.3426 338.3332 478.8227 340.4826 479.7584 340.9251 478.3376 342.6952 480.1743 343.4222 480.0357 345.3188 477.4365 344.3389 477.09 345.9826 474.7334 346.109 474.9414 346.8992 478.1296 347.2786 478.3029 348.1952 476.2583 349.1435 472.7235 348.6694 472.7581 349.9337 475.5305 351.0717 475.0453 353.8217 472.5155 355.4021 472.2036 357.9308 475.6345 359.3533 476.986 361.5659 475.0107 363.2412 471.2679 361.5027 471.1293 364.1579 469.3619 365.6119 468.253 365.1061 466.3816 365.9912 464.0597 363.7153 463.9904 361.4079 461.218 362.2613 457.0248 361.7556 456.297 360.7757 460.3863 357.836 459.8318 355.7814 461.7378 353.474 460.3863 352.5573 457.7525 352.6521 457.0248 347.7527 455.0494 349.4912 452.6236 347.1205 452.3117 348.6694 447.356 350.5975 447.2867 348.6061 446.2124 347.7211 447.4946 347.4682 448.465 345.3188 445.8312 344.3073 445.5886 343.0113 447.5639 340.9567 448.9501 340.9567 450.371 338.4912 446.9748 336.563 447.5293 332.2326 442.0885 331.0314 440.8755 328.7556 436.509 328.7872 436.9942 325.6263 440.4597 324.678 439.1428 323.6665 436.3011 323.6981 435.3307 322.4337 434.9842 323.951 426.0779 325.3418 425.8699 323.5717 427.2561 321.3274 426.8056 316.997 422.4737 317.3447 420.7063 311.6866 420.7757 311.655 420.6717 311.2757 423.5827 309.8217 423.0975 306.3131 417.0676 306.9452 417.2408 305.2383 414.815 304.2585 416.5477 303.6579 417.3448 301.1292 419.7014 303.1521 420.6024 301.0343 423.8946 301.2556 427.1175 295.7556 427.0482 294.8073 425.6274 294.3016 425.8006 291.678 428.0532 291.8044 427.568 288.2958 427.6027 288.201 429.7513 284.0918 M 420.6717 311.2757 413.0129 310.4855 411.3842 310.7067 409.8247 310.8964 409.0276 311.0228 407.2256 313.1406 405.0423 312.8562 400.3292 314.5631 400.1906 316.3964 396.7251 316.3332 395.7894 318.2929 394.9577 318.7671 394.7151 318.8935 393.7794 318.5774 389.7941 317.3447 391.007 316.2383 389.7595 312.7297 387.2643 312.0659 386.9177 309.5056 385.6702 309.474 384.9078 307.5142 381.5809 306.9768 381.5116 300.1809 376.7638 299.5803 376.4173 302.6148 375.1697 302.6148 373.5063 299.5487 371.0458 299.1378 370.2141 296.4826 371.219 294.6177 368.9318 293.7958 367.2337 290.4769 368.5853 289.8447 366.6792 287.6953 366.8872 285.2297 364.5306 285.7987 362.5553 282.4165 361.2731 281.9424 358.6393 285.1665 356.0055 284.3131 357.0798 281.405 359.7483 279.5085 359.8176 279.4453 358.8819 276.0631 359.8869 272.7757 360.0948 272.1435 359.8176 271.9223 358.9858 271.2269 358.0848 270.4682 356.8372 270.1205 352.4707 268.951 352.3321 268.8878 352.2974 268.951 349.0745 271.4481 349.0399 271.4481 346.4407 271.1953 346.7526 269.8361 346.7526 269.7728 345.5051 269.4884 344.9852 268.0976 M 211.8062 359.0688 213.1924 361.6607 212.9498 361.9452 211.8408 363.1148 211.8062 363.1464 211.7369 363.2096 209.1724 362.2929 208.7565 362.5458 208.3407 363.0199 209.519 364.7584 212.2914 367.4768 212.7765 367.7613 223.069 365.8015 227.1237 368.3619 232.0793 366.086 232.2526 367.0659 228.8564 371.2067 230.1733 373.1981 233.8121 372.0918 235.7874 370.3533 238.3519 370.2584 238.8371 372.313 236.7924 377.3389 236.9657 379.678 242.5105 379.5515 243.966 380.5946 241.1243 382.4912 240.7431 384.0716 237.139 384.8303 235.7874 387.7067 232.8418 389.3504 229.9654 394.6923 231.8021 396.3044 233.223 396.1147 234.8864 393.3963 237.7281 393.8389 238.5598 391.5314 239.1143 391.4998 239.2529 391.4998 239.5995 391.4682 241.055 394.0917 241.1243 394.2182 241.1243 394.2498 240.7431 394.2498 239.4262 394.3762 240.6045 395.6406 240.3619 395.8935 239.4955 396.7785 238.8717 397.4423 238.7678 397.4107 237.4509 396.6837 235.8567 397.1894 236.5152 398.5802 235.129 399.4021 235.025 399.4653 232.8764 398.5486 233.1536 400.6665 230.3466 401.6147 229.7575 400.2871 222.4453 398.7699 221.9254 397.1894 219.5342 396.7785 217.8015 397.5688 214.8905 396.0515 213.1231 396.6205 214.5786 392.1004 211.7022 392.1004 210.42 390.0142 208.9298 391.7843 208.8605 391.7211 205.4297 389.1291 203.7662 389.7613 201.7909 388.7814 200.6819 388.655 199.8502 388.5917 199.8156 388.5917 199.7809 388.5601 197.8056 386.7268 196.2114 385.2412 195.1025 384.8303 194.8252 384.8935 194.548 384.9567 193.2658 387.1377 193.1965 387.2326 192.1222 385.9682 190.2508 387.0113 188.3794 386.063 187.5824 386.9481 187.5477 387.0113 185.3298 384.7354 175.765 387.0429 173.5471 385.2728 168.1063 384.6722 165.5071 382.0803 160.3089 384.9567 153.8284 381.6693 151.4719 382.0486 149.2886 380.6262 147.2093 381.132 145.5459 379.7412 144.5062 380.1521 142.7388 378.6032 138.7535 379.7096 136.4663 377.9078 133.9711 378.6665 131.6839 376.0745 129.8818 376.7383 125.7925 374.0199 122.0152 376.0745 121.9805 375.9797 121.0102 373.8935 120.9755 373.8935 120.8369 373.9567 119.2428 375.1895 121.6686 379.0774 120.2824 380.2785 117.7526 379.8676 119.5547 383.0918 117.406 388.4653 116.2624 387.5803 114.495 388.5917 113.1088 387.8015 111.1335 389.5084 108.569 389.2555 107.8066 387.8331 102.5737 387.0113 98.8656 389.0343 98.7617 389.0975 98.1032 388.655 98.0339 388.5917 93.7367 385.7785 93.7367 385.7469 94.4645 384.0716 92.7317 383.6291 93.4248 382.017 91.9346 380.9423 93.1476 377.9395 93.1129 378.0975 92.8357 380.0573 95.2615 379.5199 94.3951 379.1406 95.7813 377.3073 96.6131 377.6866 97.1329 376.0745 98.3805 376.7699 98.8656 375.9797 97.6874 374.7153 92.2812 373.0716 91.9346 374.2728 90.7564 374.178 89.3009 373.2929 88.5385 370.7642 88.3305 372.4711 86.8057 371.3647 86.4592 373.1349 84.865 373.3561 86.2166 371.6492 84.865 371.0487 86.3205 369.4998 85.1076 368.9941 86.4245 367.9193 83.3402 366.6866 84.2412 365.1377 82.855 364.1895 80.6718 365.5803 80.4985 362.4193 77.7261 362.2297 76.1666 362.1349 75.4389 362.0716 75.127 362.0716 75.127 361.8188 75.1963 360.8389 75.2656 359.5429 77.1716 356.7929 75.4042 355.3389 75.0923 352.3992 73.0477 352.6837 72.4932 348.4481 73.3249 348.4481 73.9487 343.0745 72.0427 343.8648 70.5179 346.5199 69.7555 346.0142 69.3396 344.5918 71.1417 344.8446 70.6911 343.7383 72.8398 342.5688 71.6615 342.7584 68.8544 339.882 67.6069 340.0401 69.1663 337.4797 66.7405 338.2067 65.7008 337.4797 66.7751 332.5487 67.5375 333.0228 69.4089 329.8303 72.0773 328.0918 71.9387 324.7412 70.6911 322.813 69.3743 323.6033 69.4436 322.6866 68.5772 322.8447 67.7108 324.0774 66.5325 323.5717 68.8198 321.6435 69.1317 318.3245 68.2653 318.2297 70.0674 314.5314 71.0377 314.6895 72.0773 308.905 73.2903 309.8849 76.0627 306.8504 77.033 304.5113 77.0677 304.4165 76.132 302.836 77.1716 301.5085 78.8004 301.4769 79.0083 298.0631 79.043 298.0631 80.8104 297.905 80.949 296.609 83.7561 297.9682 87.8107 293.6694 87.4642 293.2901 86.5631 292.3102 86.0086 291.7096 86.7364 290.0343 84.2759 290.1924 84.5531 289.0861 85.3502 289.4021 85.5235 286.4941 84.2759 286.6521 83.964 285.4826 85.2809 282.1636 86.875 283.27 87.2216 281.0573 85.6967 279.5717 86.7364 279.2556 86.1473 277.3907 93.0783 275.9999 93.6674 274.293 94.7417 273.724 95.4001 274.9251 98.3805 271.4797 101.2222 270.405 101.4994 269.9309 101.3954 269.2355 99.0736 266.5171 99.4201 265.5372 99.4894 265.5056 106.2471 262.2499 106.3165 263.4194 109.3314 262.6608 109.2275 261.5545 111.3761 262.6924 111.3068 259.7843 109.8513 257.2556 M 394.7151 318.8935 395.8587 323.7297 390.8684 324.4883 389.1357 327.7441 390.7645 328.6607 390.002 329.9567 389.7941 330.2412 385.8781 328.9136 386.8484 327.4596 386.4326 326.1004 382.9324 326.2268 382.2393 326.3533 380.9917 331.8533 377.4569 328.3447 376.0014 328.5975 375.1697 330.8418 375.0657 331.0947 374.5459 331.3475 373.229 331.9481 372.7785 332.1694 371.219 332.2642 370.1447 330.2728 369.2784 331.5372 363.491 333.2125 363.3524 333.3073 362.6246 339.0602 360.476 338.9021 358.5353 336.7211 351.8816 335.8992 351.3617 337.3849 351.3271 337.4481 349.4904 336.9107 349.4557 335.7728 341.3118 334.8561 341.2425 334.8561 341.2772 337.1636 340.3415 337.701 340.3415 337.6694 340.2722 337.4165 339.5444 335.2038 339.1285 335.0458 335.0739 334.5717 334.6234 334.5717 330.3262 336.0889 328.0043 333.3705 326.0636 332.6751 325.6478 334.7929 324.1576 334.9826 324.0883 334.9826 323.1179 334.1924 324.2616 332.1061 324.1229 331.9165 320.3456 332.8015 319.895 332.928 319.895 332.8964 318.9594 329.3878 310.8501 328.6607 311.0234 327.6176 310.1916 328.0918 305.7558 326.2901 304.3003 327.997 301.6665 325.8475 300.9734 325.6579 298.4436 326.1636 292.7255 324.5199 292.6216 328.4711 290.8195 328.5659 290.0918 328.6291 289.3987 327.9653 286.9035 325.563 286.0371 324.678 284.9282 324.109 284.5816 323.9826 M 274.0812 253.3045 273.9772 253.2096 274.6356 252.4826 275.2248 251.8188 275.2594 251.7872 277.2001 252.9568 277.9625 255.4855 281.3241 257.2556 284.9282 258.0458 286.6956 257.4137 286.7649 257.382 M 18.6394 290.0343 18.8473 290.0027 22.59 290.0343 22.7287 290.1292 22.8326 290.8246 23.3871 296.0717 23.4218 296.5774 24.1842 296.4826 25.2585 297.0516 25.709 297.6205 26.0209 298.9165 25.9169 299.77 22.2435 302.8044 21.5504 303.247 21.4464 303.4682 21.0999 303.9424 18.5701 307.8619 17.8077 307.7987 15.3818 303.8159 16.4908 302.2671 16.2482 303.2154 17.5304 302.4251 16.8027 301.8878 17.2878 300.1809 15.9016 299.0113 14.4808 300.5286 14.2382 299.6119 16.4908 296.2929 16.5601 292.1521 17.4265 292.9108 18.778 291.3935 18.6394 290.0343 M 447.356 350.5975 445.0341 351.5458 444.3757 353.063 445.4846 355.6234 443.5093 356.0975 442.9548 357.678 443.8559 357.7728 442.8509 359.9222 440.9448 360.8073 442.2617 364.3159 438.5883 363.905 438.0685 366.2125 436.0585 368.3303 436.3011 370.4481 431.0682 372.4395 432.9395 375.063 432.3504 376.4538 427.8453 376.8647 426.667 374.7153 424.8649 373.8619 423.8946 374.4624 423.8946 376.1377 421.746 375.8849 420.7063 373.0716 416.9983 373.2613 416.0626 376.3274 415.0229 376.0113 414.2605 377.2441 415.0576 378.54 413.9486 380.0257 418.3845 381.9538 416.3398 383.4078 417.0329 387.5803 413.3248 388.0544 412.4931 390.5515 413.81 399.5601 412.0773 399.4653 410.4485 401.7096 406.1513 401.2038 405.3195 402.563 403.2749 402.405 402.6858 403.9854 399.8787 403.29 399.2203 401.0142 396.4479 401.1722 396.0667 400.7297 395.9974 400.0975 395.4429 400.0343 390.106 399.3705 390.7645 396.6205 390.002 396.4308 389.9674 394.6607 391.5269 394.4078 390.5565 391.8475 383.175 390.8676 383.9374 387.8015 382.7938 388.4969 379.6402 387.6435 378.358 388.9078 376.348 387.9912 375.6202 389.382 374.1301 389.1923 374.442 387.1693 373.0904 386.7584 372.7439 389.0027 366.0208 388.1492 363.2137 386.1578 361.585 382.9653 356.9759 384.1349 356.5253 382.1751 351.8469 380.9107 352.0202 373.8303 354.0302 369.1837 352.5054 368.9941 352.2628 367.2556 355.2778 364.2211 355.555 359.5113 352.4014 358.5314 352.8519 353.9165 349.7676 356.2556 344.3961 353.3475 346.718 349.4912 350.8073 350.724 350.1142 346.3303 350.9459 346.1406 349.3518 344.7498 350.0102 343.7067 349.3864 341.0832 350.9805 340.7038 351.535 337.4481 351.3617 337.3849 M 396.0667 400.7297 396.3092 405.3446 399.151 405.7871 401.3689 408.2843 398.5965 412.0774 393.9874 412.6779 395.3389 416.8504 392.5665 417.8935 391.7001 422.3504 389.1357 421.7182 388.3039 418.7785 386.1207 417.767 386.0167 415.2383 384.2493 413.6262 382.9671 418.0199 381.1997 419.9481 380.0561 419.9797 379.4323 415.586 380.2986 414.6693 375.4816 414.7325 375.5509 419.063 372.0161 419.0946 372.2587 424.3417 368.6892 424.7843 367.5803 425.3848 367.8922 426.2067 361.6543 424.4366 361.5503 421.9394 360.0948 421.971 359.4017 420.8647 356.0055 420.9595 355.3817 419.1578 353.441 417.767 353.3717 417.767 350.9805 417.8302 349.2131 420.0429 346.3714 420.6435 346.3021 421.7182 343.0446 422.1291 340.8959 420.5802 338.8513 420.6118 339.1285 418.8417 340.8266 419.1894 341.797 417.6406 339.0939 417.2613 338.8167 415.0802 337.8117 415.1118 337.2918 414.0055 334.7274 414.2584 333.3065 412.9308 330.1529 414.4164 327.5191 414.132 325.1626 415.6176 326.6874 408.0946 322.9447 406.5774 322.6674 408.8532 321.5585 409.0745 319.1673 405.7239 318.2316 405.8188 317.4345 407.6205 312.7215 406.3877 312.6175 405.0601 310.9541 404.1435 309.8104 401.9308 310.3649 398.8963 309.152 398.0745 309.3253 393.3331 310.5728 390.8992 315.9097 391.1205 317.2613 393.8705 317.2959 393.9337 317.3306 393.9337 322.8754 394.155 323.2219 392.1004 324.4348 391.9107 325.2666 388.5601 326.6528 387.3906 326.6528 387.359 326.2022 386.3475 323.3259 386.2527 324.4348 384.9567 323.5338 382.9337 320.5535 383.1866 319.5485 381.1952 318.8554 379.2987 320.7268 375.9165 318.5781 372.7556 319.7564 369.1205 317.9197 366.3073 318.3356 363.8102 314.7314 356.8561 313.4492 356.0975 311.3006 356.7613 307.8351 354.8648 305.0974 354.7383 302.6022 351.9567 301.8398 348.9222 298.0624 349.5228 296.3297 353.2527 298.0624 354.1377 298.5476 356.4136 297.4733 358.9423 294.0078 360.1119 290.7156 359.5745 290.6809 359.6061 287.4926 365.3274 288.9828 365.8015 288.7749 367.9193 284.8935 366.9395 283.0915 368.5831 282.2944 371.8389 281.1161 371.6492 281.7399 373.04 280.7349 374.2412 280.631 375.6952 279.5913 378.1291 279.3487 378.4136 276.8882 376.5487 276.7149 376.359 276.6456 376.3906 275.1901 376.8331 275.0168 374.6205 272.8682 374.905 272.7989 376.1377 269.5414 374.4941 270.4077 371.6492 268.6057 368.267 269.6453 366.2125 266.3185 365.9912 266.8729 362.7987 266.0066 361.6291 267.0462 359.701 265.5907 359.8274 260.4964 353.8849 257.5507 353.7584 255.714 352.2728 257.3428 349.3331 256.6844 343.6751 258.2785 341.1148 M 361.6543 424.4366 366.3327 425.9538 365.4663 429.8101 356.8719 430.5687 357.8076 435.7526 359.9562 436.2268 360.4067 437.9337 358.3967 438.6291 358.3274 440.5888 361.1691 440.8101 356.8372 442.7383 357.1145 446.2469 360.7879 446.0256 360.0255 451.7153 364.4267 452.3159 364.7386 454.2756 363.2137 454.6549 361.9315 457.8159 359.1245 457.8475 358.2581 453.9595 355.2778 454.5601 355.5897 456.109 351.6043 455.8877 351.1885 453.359 349.1092 453.3906 348.2775 451.6205 346.9606 451.9049 347.0645 452.9164 341.3118 454.1176 342.5594 457.3417 341.9009 459.1434 340.8266 458.8906 340.5841 454.8446 336.3561 452.3791 334.4848 452.948 332.4748 456.1722 330.7074 453.8647 326.2369 454.0544 324.6774 455.54 318.1276 457.0256 314.2463 453.7699 314.5928 449.4394 313.6571 447.8273 311.3699 450.925 310.4342 448.5228 307.5579 447.5113 306.7955 452.1894 304.8201 452.5055 302.7755 450.925 302.1863 449.0285 299.0674 447.6061 296.9881 448.7756 294.9088 448.6176 293.4879 444.1291 289.3294 442.0745 286.7649 447.5745 287.4233 450.3245 283.6113 451.1463 284.2351 454.2756 287.1114 454.8762 286.557 458.7325 280.7003 461.3561 278.0665 465.0227 273.7 464.7383 268.8136 462.5572 266.9422 467.836 267.3234 470.3331 263.8233 469.8273 263.4421 465.4021 260.3925 465.1176 259.9766 467.0773 255.818 467.3934 255.5061 469.6061 257.4814 471.7871 256.6844 474.1262 254.1892 473.9681 254.0852 470.4279 249.5801 470.5227 248.7484 468.9423 251.1396 467.3934 252.0059 463.4107 249.9267 463.7268 247.778 462.0515 246.7384 462.3044 245.3869 465.4653 239.1836 465.0227 237.0697 463.9796 235.7528 464.359 235.5795 466.7929 229.4456 466.4135 228.9257 468.0572 225.8761 469.6377 223.2423 468.6894 222.1334 469.6061 223.2423 469.6693 223.0344 471.3446 221.5789 471.9452 220.366 472.1664 218.3213 470.3963 217.0044 470.8388 217.8361 469.4164 215.5836 469.8906 214.7519 469.2584 215.3756 467.9308 213.3657 468.5314 216.9351 466.8877 219.153 461.7354 221.8561 461.6406 221.8908 460.6923 224.074 459.8704 225.1483 454.9394 228.7871 452.6319 227.4009 450.2929 227.8168 448.9653 228.6138 448.2383 230.2426 448.8072 231.3862 447.7009 231.7674 442.1377 231.213 440.7469 230.7971 440.4308 230.6585 440.336 225.6682 443.086 225.4949 443.1808 225.2523 442.8647 224.8711 442.4222 221.9254 438.9136 226.6039 435.5314 224.282 433.6032 224.2127 430.9797 219.8461 432.1176 220.6085 428.3561 219.257 428.2929 218.9798 427.5975 216.8658 422.2239 216.7965 422.1923 214.8905 421.086 214.9251 421.0544 214.9251 420.9595 215.3756 417.9567 212.2914 417.9251 206.6426 413.1837 205.0831 414.9222 204.9098 413.8791 204.4593 414.8274 204.3207 413.7843 202.7959 413.9423 203.9049 413.4998 203.385 412.3935 204.39 413.3733 204.1128 412.0142 202.4493 411.6664 203.4197 410.7182 200.37 412.1722 200.1968 411.2555 198.7759 411.8877 199.573 411.2555 198.2561 411.0659 199.1918 410.971 199.2264 409.9596 197.9095 410.4337 197.3551 409.6435 197.9789 407.9366 196.7659 407.4308 196.9392 405.9768 195.657 404.6808 194.4787 404.744 193.6123 406.1981 194.3747 406.5458 193.5084 406.9883 193.9935 407.0831 193.2311 407.6837 193.1965 407.7153 192.8499 407.9682 191.9142 406.9251 191.8796 406.8935 191.8796 406.9567 191.9489 407.6521 191.9489 407.905 191.2904 407.7785 191.0825 407.7469 190.632 407.6521 191.3598 406.4509 190.0082 406.5142 190.1468 405.2182 190.3548 405.0917 192.8153 403.7642 192.7113 400.9825 194.4094 399.1492 195.0332 396.8101 195.7609 394.155 195.553 392.5113 195.4144 391.0573 195.4144 390.994 196.1768 390.6463 200.0581 388.6866 199.8502 388.5917 M 218.9798 427.5975 216.4153 429.7469 215.9994 433.1291 214.1974 434.0774 214.4746 438.7871 209.4496 444.2239 209.2764 444.3819 207.9595 443.813 197.563 441.0946 198.464 441.9164 198.6026 445.5515 197.1818 447.4164 197.6323 450.0084 196.1768 450.6722 195.1025 449.7239 191.741 449.471 191.637 448.017 188.8992 444.8561 187.721 448.2383 182.3148 447.6693 179.4038 451.1779 176.5621 450.1664 172.9926 450.4509 169.4925 448.744 164.5021 448.586 164.814 447.5113 158.7148 447.6061 155.9077 453.2641 156.4969 454.0544 159.1999 453.7699 158.3336 455.698 159.5118 458.0687 156.6355 458.5429 155.977 459.9021 156.7741 463.4423 159.1653 464.4222 158.8187 465.7814 156.982 466.7929 158.8534 468.4365 158.6455 469.1003 158.091 470.9969 157.0167 470.1434 155.2493 470.5227 155.8384 471.6923 153.7591 473.336 155.18 473.2727 155.1107 474.6003 148.3876 473.8101 146.4123 476.1492 143.9171 477.0974 141.9764 476.1808 140.3476 478.425 140.2783 478.4883 136.2237 478.0773 134.2137 479.4997 129.6739 476.8446 129.258 475.517 125.4807 475.3273 121.53 472.7986 120.0052 473.2411 118.619 469.7957 116.6783 469.0687 115.1881 466.3819 108.5344 464.0429 106.6283 461.4193 104.0985 463.1262 101.6034 463.0314 101.6034 462.9365 100.0786 459.744 100.0439 459.7124 100.633 454.1808 99.9399 452.6319 96.5091 450.4193 98.9349 450.2929 101.1875 447.3532 102.5044 447.2268 102.8163 443.2124 101.5687 441.1262 102.9203 440.4308 102.3658 439.3245 104.2372 437.3015 106.0739 436.6377 106.559 434.4567 103.648 432.7182 104.757 431.2009 103.4401 429.3992 104.1332 428.198 101.2568 427.471 102.1925 424.5314 100.3211 422.6348 100.9103 421.7814 97.4101 419.632 95.8507 420.8331 93.91 419.1894 91.5881 420.2325 89.4741 418.1779 91.7614 413.0889 90.7564 411.8877 92.8357 411.2871 90.999 407.9998 92.1079 405.882 90.4791 404.8073 90.3405 404.5228 90.1672 404.2383 89.8207 403.5429 88.9197 401.7412 86.1473 401.3302 88.989 399.5285 90.4791 396.7153 92.2812 397.3475 96.2319 394.2182 95.2615 392.4797 97.93 390.267 97.2369 389.2555 98.0339 388.5917 M 101.6034 463.0314 101.5687 462.9998 101.4994 465.9394 103.648 468.2153 101.5687 470.8704 101.5341 470.8704 101.6727 470.9337 102.8856 471.7239 102.9203 471.7239 100.841 472.925 101.0489 474.6003 103.1975 474.4423 105.762 476.5917 106.8016 475.8963 106.8709 475.8647 112.4157 480.1319 112.1385 482.3446 114.8069 482.6291 113.9059 484.5888 115.0149 485.8848 114.9455 488.54 114.9109 489.2038 114.3218 489.1722 110.5444 488.9509 108.2571 492.1434 111.48 495.1779 110.8563 496.9796 110.7176 497.2957 108.4651 496.948 108.1185 497.7699 106.0739 496.7584 105.9006 497.2957 105.9352 497.675 106.9749 497.8331 106.6977 499.4135 108.777 501.0572 108.5344 502.6377 108.4997 502.8905 107.2521 504.2181 105.762 503.3015 103.1282 504.7871 108.1185 507.4423 107.3908 509.0543 108.0839 510.4767 110.0592 509.7181 110.0938 509.6865 110.579 510.4767 111.1335 511.2354 113.0742 510.6664 113.1435 510.698 113.3514 510.8877 114.6683 512.0888 115.0495 513.1635 115.3267 513.9221 115.3961 514.017 115.1881 514.2382 112.9009 516.5773 117.5447 519.0744 116.7129 519.8647 117.9952 520.244 117.9605 520.3072 117.7526 520.7497 117.1635 521.9825 117.0595 522.0141 116.8862 522.3302 116.8516 522.2037 116.3664 522.1089 114.8762 522.2986 109.4354 520.7813 109.1582 520.7181 108.4304 522.7727 107.2868 523.0256 108.8463 524.606 108.7076 526.7555 103.0589 526.7871 102.1925 524.5744 101.3608 524.606 99.3162 528.5572 98.3805 528.0514 98.831 528.8417 97.1675 529.4106 96.925 530.4537 96.8556 530.7066 94.4991 528.7152 92.4891 532.3819 92.4198 532.4451 90.4445 532.3503 87.0483 535.1951 84.7611 534.3101 84.068 535.3532 82.5085 534.7526 79.7361 537.2497 79.5628 537.1865 74.8151 535.2267 70.1367 535.3848 69.7208 535.3848 67.9534 533.8043 65.2503 527.5773 65.3889 526.2497 67.295 526.5974 68.5079 525.5227 68.2653 524.7325 66.3939 525.0486 67.5029 523.2785 65.7355 523.4681 65.5622 522.7411 66.6712 522.1089 66.3246 518.7267 67.4682 519.2325 67.8148 518.1894 67.4682 517.5888 66.3939 518.5687 65.2503 517.6204 64.0027 514.3647 65.2503 507.0946 63.0671 506.0198 62.3393 502.1003 63.5176 501.7526 62.1314 499.8561 63.7948 498.7813 62.9284 498.0859 61.2303 498.7181 62.2007 496.3474 61.7502 493.0601 62.7205 492.5227 63.0671 489.8043 61.4383 488.9509 60.7452 489.5831 60.4679 488.4135 61.6809 488.4451 61.8195 486.9911 59.151 485.6635 59.4283 483.6089 61.2303 484.8101 62.27 483.1348 62.4433 477.0974 61.9927 478.4883 61.3343 477.2871 60.3293 477.3819 59.9828 473.336 60.1907 473.2727 58.8391 469.8589 56.8292 469.0687 58.0421 468.8791 58.146 466.7296 56.1014 464.2957 56.0667 462.5572 54.438 461.0084 54.23 462.1779 54.1954 460.2498 52.8092 459.3331 53.4676 458.5745 56.0321 459.017 56.3786 461.0084 58.5966 461.0716 57.6262 458.9538 58.0767 457.1204 55.6509 456.3934 56.7598 455.7929 55.2697 454.7814 56.3093 454.0227 54.5073 450.8934 52.2547 451.0199 50.6952 449.1233 52.5666 448.1434 52.6706 446.5314 54.9231 445.8992 52.5319 445.4567 52.2547 444.1607 53.2597 443.2756 51.7695 439.2297 49.4476 437.0486 47.7496 434.3934 48.3387 433.0343 49.5516 433.4452 50.6952 432.4021 50.9032 433.1291 51.5963 431.8647 47.7496 429.1463 46.7099 426.5544 48.4427 426.4595 45.5316 422.0343 45.7742 420.7067 47.9921 420.2641 47.507 419.0314 48.4427 418.336 47.4377 418.7785 45.3237 411.8561 43.6949 409.7383 43.0711 410.0228 43.5216 406.8302 41.373 401.7728 39.5363 400.6981 39.8136 398.0429 38.1501 397.79 37.2144 396.3044 37.4224 394.4394 38.7739 393.1751 38.8779 393.0803 42.7246 392.4481 45.5663 393.3963 46.1208 392.6693 51.1804 385.7469 51.319 385.7785 52.9825 385.8734 54.23 384.767 56.344 385.9998 62.27 384.5458 62.9631 385.8418 62.4779 387.9912 63.5176 389.1291 66.1513 389.0659 66.7751 390.3935 67.8841 388.9394 69.1663 390.8992 69.201 390.9624 67.5029 394.155 70.6218 398.6751 70.3446 402.3101 73.7408 402.7211 75.7161 400.2555 76.7211 400.7929 77.5528 405.8504 79.0776 404.3331 81.8154 404.3331 83.4442 405.882 86.1126 402.7527 87.9493 404.3963 88.5731 404.1119 89.8207 403.5429 M 286.557 458.7325 288.2897 459.6808 288.8095 461.7038 291.374 461.767 291.7205 462.8101 292.1018 467.4883 289.9878 469.9854 288.8788 469.9854 288.6016 471.4078 290.8888 475.2641 291.0274 477.0658 293.1414 477.0342 293.5573 481.9337 290.9928 482.7239 290.0918 484.6204 292.8642 484.5888 292.483 490.2153 293.384 491.6061 290.1957 492.6492 289.3987 491.1319 286.8688 491.0687 286.7995 487.813 283.5073 487.3388 282.9875 491.5745 279.2794 491.2268 275.3634 493.6607 274.8436 490.563 273.1108 489.3934 270.7889 489.9624 269.4721 491.4796 266.0066 490.1836 261.9173 492.3331 255.0902 492.4911 255.0902 495.6836 256.0952 497.5486 255.3328 499.8561 253.6694 501.563 251.0703 501.0572 250.0999 503.4279 248.783 503.5859 245.6294 503.4279 246.3225 500.3618 245.1096 501.0572 241.2629 500.425 241.0896 498.4653 239.4262 496.6319 237.3816 496.6319 236.6885 492.9336 230.4852 495.2411 230.6238 493.6923 227.3663 492.902 224.5939 493.3446 224.5939 495.3676 221.4403 493.629 220.4699 495.0831 223.7275 497.4538 224.5246 497.0112 224.2127 499.7928 218.4946 501.563 220.262 510.3187 215.4103 510.129 215.0291 511.2038 213.5043 510.2555 212.9845 511.3302 208.2714 512.6894 205.9495 512.4049 202.1374 515.5342 198.568 515.8187 198.2561 515.8187 198.8799 513.9854 193.5777 512.152 191.9142 508.7382 185.5031 507.0313 184.8793 505.2296 181.2752 501.9423 181.0672 503.6808 179.5424 504.7871 179.2998 502.1951 177.2205 501.0256 175.6264 502.5744 170.6707 503.1118 171.5025 500.3302 170.1509 499.6348 166.3042 502.448 165.5071 500.6463 159.5465 498.3072 158.5415 496.1578 154.3482 499.3187 152.7541 496.6635 151.6105 498.6233 148.145 497.7382 145.3726 499.5716 142.9121 496.6951 140.0357 496.221 137.5752 497.7382 137.5752 497.7066 134.9761 495.7469 134.6989 494.198 133.4513 494.0084 133.5206 489.8043 130.4017 488.54 128.8768 489.2986 128.7382 489.3618 128.7036 489.2354 128.6689 489.0457 128.2531 487.6233 128.8768 487.4653 129.2234 485.2842 129.2234 484.9365 124.6489 481.2066 124.4063 481.0486 122.9162 481.4279 121.634 478.7095 118.9655 476.971 119.2081 475.9595 118.3071 475.1377 116.505 473.5572 109.5394 470.6492 108.7423 471.471 109.1582 473.9681 106.8709 473.3676 106.6977 473.336 106.3165 471.1865 104.2025 471.9135 103.2322 471.5342 102.8856 471.7239 M 198.568 515.8187 197.9789 518.6319 197.1471 518.6635 197.9789 519.517 195.6223 520.6233 194.5134 523.2469 197.7709 525.2382 197.9095 526.1865 193.1272 525.9968 192.7806 528.5888 191.1518 528.5256 189.4191 530.3905 186.6467 531.4968 185.0525 530.5802 186.1269 528.3991 183.8743 527.4509 183.9436 523.5629 178.6067 524.0687 176.9086 520.7813 175.2798 522.425 176.4235 526.3129 173.3738 526.8819 172.0916 528.4624 169.6311 528.6204 168.0023 533.8991 165.8883 532.9509 165.7151 530.8963 164.1209 532.0658 161.8337 531.3704 161.7298 536.2382 160.898 536.3014 160.4129 533.8359 159.4772 533.3934 158.6455 534.2785 157.6058 532.0658 156.8087 532.7928 158.1949 536.2066 155.18 536.9652 156.4969 538.6089 157.7791 538.0716 158.2989 536.2066 159.4079 536.2066 159.2346 540.221 163.4278 541.0428 163.6704 546.2267 166.4428 545.879 165.4378 549.5773 163.7744 546.9537 162.6654 548.4394 161.9377 548.1549 162.908 551.9164 161.7644 552.1376 162.4575 552.7066 161.903 553.4336 163.0813 553.7181 162.7347 554.698 164.3982 556.2152 162.2842 557.5112 162.6654 558.7756 165.1952 558.3963 164.7101 556.6261 166.027 556.9422 167.3439 559.7555 168.2795 558.2382 171.3638 557.7009 171.6757 560.1032 175.2798 560.5457 176.5967 561.81 177.775 560.8618 179.9583 563.2641 179.2652 564.3388 180.4434 565.4767 177.7057 570.8503 178.7453 573.7899 178.1216 576.2238 172.6461 574.2325 169.0073 576.4135 169.0766 577.2985 167.3092 577.4882 166.2349 579.8273 167.7597 579.7325 167.3785 581.5342 172.854 579.3531 175.9729 580.2382 176.0769 581.2497 172.958 589.2468 168.6954 594.2411 170.5668 599.0773 168.834 599.1721 166.5468 595.3474 166.4428 597.1491 163.9823 599.1089 168.3142 599.6778 166.1309 602.8072 167.1013 603.4077 166.9627 605.5572 164.7101 607.8646 162.5268 607.0744 161.0367 609.4135 158.888 610.0773 157.19 608.8129 154.3136 609.856 153.2739 608.6232 153.3432 605.5572 147.9717 607.0112 146.1004 605.6836 146.6202 602.3014 145.0954 602.333 145.338 601.2899 141.7338 602.3014 141.214 600.4997 139.1347 600.9422 138.2337 601.4796 137.7139 602.9968 134.5603 604.1663 134.2137 601.1003 140.2783 597.4336 140.3476 594.9681 138.3376 590.0687 137.2633 590.7008 135.5999 589.2468 140.3823 584.379 139.5852 583.3359 138.3376 582.7669 137.0208 580.1434 135.4959 582.1031 131.372 581.3445 131.0948 581.2813 130.7136 579.1635 131.9611 578.152 130.2977 577.3618 130.471 576.0974 122.0498 575.402 121.3567 576.5083 117.9952 575.8761 118.8962 574.7698 117.7526 574.7698 115.9159 576.2554 117.6486 578.3416 115.1188 576.0342 115.0842 575.971 116.9555 571.7985 116.1585 570.3129 117.9605 571.6405 118.2724 570.8503 122.3271 571.7985 123.1241 568.3848 125.7232 568.1951 125.0994 567.0888 126.4856 565.5399 123.6786 565.5399 123.3667 563.9595 125.4807 561.5256 120.4557 562.948 123.1588 561.3359 120.6636 560.2928 119.4853 558.0169 121.634 555.425 121.9458 553.3704 120.2131 553.244 117.9259 555.2037 117.1635 554.4767 116.2624 556.0256 116.4011 554.856 115.7426 554.5399 115.604 554.4767 115.5693 554.4767 116.3317 553.5284 114.9455 551.6635 118.0298 549.2928 115.1535 546.1951 120.3171 541.6118 120.3517 540.3158 119.9705 538.9882 117.9259 539.1779 115.6386 535.9221 116.1931 534.0256 113.2821 532.4135 114.8762 531.8762 116.3664 529.5371 115.8119 528.3043 117.8219 525.744 116.5397 522.9624 116.8862 522.3302 M 147.9717 607.0112 151.4719 606.2526 150.7441 608.4336 146.8974 609.129 143.0507 612.1003 144.0211 613.8704 143.3973 615.925 139.7585 616.7784 142.7042 618.7698 142.1843 619.3388 134.2137 621.6146 133.278 623.1951 130.367 622.6577 128.0798 620.856 127.7332 614.9767 125.7925 614.2813 126.555 612.5428 125.3074 609.9824 119.1734 609.1922 119.5547 606.948 117.9605 604.5773 117.2328 604.4192 116.8516 606.2842 114.7376 607.8646 114.2871 610.1721 111.1682 610.6146 110.4404 611.6577 106.3165 610.6462 104.9303 612.1635 101.6034 611.9106 97.722 609.8876 98.9003 608.7813 95.0882 599.425 93.8407 599.1405 91.4148 593.7985 89.6128 593.5141 86.7364 591.1434 83.8254 591.1434 81.85 586.2439 81.2263 581.5658 78.6618 579.8589 79.5628 578.0572 78.8004 577.2985 78.6271 572.6204 74.2953 558.6491 74.5725 557.5112 76.4785 557.5428 77.934 555.1405 76.4092 557.4796 74.8151 556.7526 74.122 558.5227 71.7654 552.4221 72.112 550.1147 72.9437 550.7468 76.929 549.0715 73.4635 550.2727 72.4585 550.1463 72.6665 549.4509 71.5922 550.3359 70.0674 549.8302 70.4139 547.4279 70.5179 548.6606 71.9387 546.8905 73.1516 547.4595 73.9487 545.6894 81.053 545.4365 82.7511 544.583 79.4242 544.7727 80.3252 542.5601 79.2856 544.7727 75.7508 545.3417 74.5378 545.1204 74.7111 544.425 73.0823 546.1003 69.8941 546.6693 68.8544 542.244 69.998 542.8129 71.7654 541.5802 68.5079 542.1175 65.8741 535.4164 65.0077 535.4164 64.4879 532.6664 66.6019 530.675 67.9534 533.8043 M 85.2809 282.1636 85.2462 282.132 84.4838 282.132 80.5332 282.132 77.4835 282.1004 68.7158 282.0372 64.176 284.3763 65.3196 286.9366 63.2057 287.6953 63.275 286.6521 61.4729 286.3361 58.7352 288.7384 53.329 282.4165 53.329 282.4481 52.3933 283.27 51.4576 284.1234 49.2397 283.7125 48.3387 282.5113 47.0565 284.155 41.9622 283.6493 39.1205 285.1349 39.0858 285.1665 38.67 292.8792 37.8036 294.3016 34.3381 295.9136 30.2141 295.882 32.1895 290.9194 31.1498 285.5774 32.5014 279.6665 31.2191 277.5487 28.1348 276.1263 25.2238 270.7211 20.892 268.6665 18.8473 268.951 17.3918 270.9424 13.5451 269.1407 13.8223 264.9366 14.862 265.1895 14.862 265.2211 14.9313 265.2211 20.3721 263.7987 24.6 266.8332 24.9466 266.8332 26.818 266.8332 28.2042 266.8016 28.2735 266.77 30.526 265.632 28.8279 262.5343 28.9319 261.9022 29.7983 258.2671 30.3528 255.928 32.1895 256.1177 32.0509 254.9481 34.5114 253.7154 35.8282 251.8188 35.9322 251.6924 36.0362 251.5344 33.6796 249.3533 33.4371 247.2355 34.7193 246.0027 36.1055 245.655 37.2491 247.1723 38.2194 246.5401 39.9175 248.2786 47.3337 246.224 47.403 244.6752 50.4873 244.1378 54.8192 240.3763 53.2597 236.678 56.5866 236.2671 57.1757 234.9395 58.4926 235.6033 59.2897 233.8016 62.0274 234.1809 60.6065 230.9884 62.0621 227.6378 65.4929 229.3763 66.2553 227.701 68.0574 227.4798 69.2356 229.5028 71.4536 226.974 74.6072 227.0688 74.3992 226.1522 76.0973 226.7211 77.8301 225.0459 80.3252 224.8246 80.6025 223.8131 81.2263 224.5717 81.3995 224.5085 M 14.862 265.1895 15.0699 262.724 12.0549 258.3935 12.6787 260.0688 11.0499 258.4568 12.6441 254.6953 11.4311 256.2441 9.6637 249.9539 12.4708 247.4568 11.951 245.5286 7.2032 242.4309 8.0003 239.7757 6.9953 239.2068 6.926 237.3418 9.941 236.7413 9.4905 237.5947 11.1886 236.52 11.951 237.9108 12.3322 236.6148 14.0303 236.8361 13.7184 235.8246 12.4015 235.793 13.1639 234.9079 12.4015 233.1378 11.0499 235.793 10.2875 234.9711 9.2132 236.7096 8.2429 236.4252 7.8963 233.8016 10.2529 234.7183 10.0449 232.0315 8.4508 231.8734 8.6587 233.77 6.926 232.0947 7.1686 233.2326 6.0596 228.839 6.7181 227.3849 4.8814 224.2872 5.817 224.2556 5.817 223.4022 4.5695 223.1809 3.9803 221.2844 4.5695 217.6493 3.0793 215.7212 3.4952 214.8677 2.2476 215.1838 1 213.6982 1.3465 212.5918 3.7031 212.1809 2.6981 211.928 3.8417 210.6321 4.0843 211.5171 5.4012 211.5171 5.5398 209.4309 4.9507 210.9166 4.2576 209.9683 3.4952 210.8217 4.015 206.5861 3.2526 207.4395 1.901 204.2786 4.015 203.52 4.4308 201.8763 7.4112 200.9597 6.4755 201.7183 7.931 202.3189 7.1686 203.1091 8.2429 205.4798 9.1786 205.2585 8.6934 206.5861 9.6291 207.3447 10.2875 205.9223 11.0499 209.2729 11.7777 207.4079 12.6787 207.5028 11.3965 204.0258 12.6094 203.2987 12.2282 202.3189 9.941 202.5085 10.5648 201.5918 12.8173 201.6235 11.743 199.5689 9.837 199.7585 9.4558 200.8332 9.2825 198.9683 8.5548 200.612 7.8963 198.9683 6.9953 200.4539 7.5844 198.3677 6.2329 190.7183 8.7627 188.9166 9.04 185.4712 12.6441 185.0919 14.4808 185.9453 13.6491 183.8591 15.6244 182.9424 17.4611 184.1436 16.6294 180.0344 18.674 179.6235 18.0849 178.8648 18.8473 177.6637 21.0306 177.7901 20.7533 176.1148 22.1742 175.9252 30.8379 177.5689 30.734 180.0344 32.2588 180.4769 30.9765 185.6608 32.2588 186.9568 33.7143 186.4827 34.2688 184.0171 35.551 184.839 34.5807 187.0516 38.8086 191.5401 39.5363 191.6033 39.8482 188.2844 40.6799 188.316 44.4573 189.201 45.2891 190.6867 47.7149 189.5488 50.522 192.5516 53.0171 193.0574 52.7399 190.3706 54.8192 189.5488 54.8192 186.1982 56.2054 184.3016 56.2054 185.9137 58.146 185.5028 58.9778 186.9568 60.5372 187.2729 M 34.5807 176.9683 32.4321 176.9999 32.4667 175.1982 34.9965 175.4194 34.5807 176.9683 M 388.9624 73.9224 384.9771 68.8965 396.4825 61.2471 396.8637 58.4971 400.8837 56.0316 401.854 53.6609 398.7004 50.658 401.2649 49.1408 400.4678 46.4224 401.8887 43.546 405.4582 44.0517 407.5375 41.7126 412.1466 43.2931 414.7457 40.6379 428.7463 31.4396 434.1525 31.1552 437.618 32.2931 438.6576 30.8391 440.1824 31.2816 439.8359 33.1149 441.9845 34.2845 443.6479 33.3678 443.5786 31.6609 446.8015 31.9454 447.9105 30.5862 449.4353 31.1552 448.7769 27.6465 460.7328 28.2471 468.0104 26.5402 468.045 28.0575 470.2976 28.8793 472.5155 30.9339 472.5502 32.1667 474.2829 32.9253 477.3672 40.954 477.4712 47.3391 479.2732 46.8965 480.8327 48.9195 477.3326 50.0891 470.3323 47.6235 465.6192 47.4655 465.1687 48.635 462.8121 48.9827 462.5002 51.0057 464.5449 53.9138 464.3716 55.431 467.4559 57.0747 468.8421 64.8189 471.4066 64.6925 473.1393 60.5201 476.0157 62.7327 476.189 65.3247 478.5108 65.9569 480.4515 65.7672 480.2436 63.2385 484.922 63.2069 486.4815 65.3563 488.6301 62.6063 490.3282 66.4626 492.9966 65.9885 494.2442 64.0287 498.7493 63.4281 499.1652 61.4367 507.1705 63.8707 507.1012 64.6925 512.7499 63.7442 512.8539 62.6695 521.3444 60.2672 535.4836 52.7442 536.1074 51.5747 535.0331 50.2471 536.0381 47.181 540.0581 47.5919 544.9444 46.0115 543.6275 45 544.2513 43.7988 547.7515 44.5574 548.098 45.9483 551.6328 44.0833 553.5735 45.4109 555.3756 43.7988 554.5092 41.7126 559.8114 43.0718 558.9797 45.8218 560.8857 50.9425 560.3659 52.9339 560.1926 53.6293 560.5045 55.273 560.851 55.4942 561.7521 62.0689 559.2223 62.385 558.0786 64.1867 553.7814 62.954 553.5388 63.9655 551.8408 63.7442 548.1673 66.4942 546.5039 66.7471 542.5532 69.023 542.6918 69.1178 M 127.456 116.4051 124.3717 116.3419 123.2281 109.9884 120.3864 107.5229 120.8022 105.3419 122.3271 104.2672 121.6686 102.8132 118.5497 102.5287 116.7476 101.2327 117.1288 97.8821 M 206.2614 41.4914 204.6673 45.2529 204.1474 54.704 198.9492 55.6839 199.4344 57.2959 198.2561 60.3304 197.8749 61.3735 192.8153 62.1954 192.7113 62.1954 189.0379 60.773 186.4387 62.1322 182.9732 59.7931 179.2305 59.8563 179.785 60.8362 178.9879 63.1753 180.4434 63.3649 178.8147 65.1034 178.676 67.1896 177.3245 67.2528 177.879 71.1724 177.0819 71.4569 177.1512 72.3735 178.8493 72.1523 179.681 73.5747 178.676 77.589 173.3392 78.158 173.6164 76.4195 170.8787 76.1666 171.1212 75.2816 165.6804 76.6724 165.7844 78.6321 163.9477 78.9798 161.9377 78.5057 161.9377 77.0517 160.2049 77.9684 155.0413 77.0517 152.4769 77.8103 151.7838 79.612 149.2886 79.7701 148.5609 80.8132 147.036 80.3074 146.4816 78.727 145.0954 79.8965 145.338 80.9396 142.8081 80.3706 136.7782 84.7011 139.3773 87.5143 137.8871 88.9051 135.9118 88.7471 136.0504 87.862 134.6989 87.0086 133.1047 87.3247 132.1344 88.7155 132.7235 91.1494 131.3027 89.3793 128.7382 90.2011 126.2084 93.0143 127.0055 94.4367 126.0005 95.1954 126.9015 97.2499 126.2431 97.9137 122.2924 96.9655 119.9012 98.1666 117.1288 97.8821 116.6436 101.1063 111.4454 96.7758 112.9009 95.3218 112.589 92.8879 109.9552 94.8477 107.9799 94.3735 105.0689 93.1091 106.4204 89.9482 105.0689 91.4339 102.7123 90.5804 102.4698 89.6321 101.1182 91.339 97.5141 90.6436 96.9596 89.3477 94.2565 89.6321 94.1872 87.2614 92.3852 85.9023 90.4098 86.5028 90.3059 84.5747 92.4891 83.5 93.2515 85.681 95.3308 86.0919 95.1229 87.2298 96.6824 87.5775 99.0389 86.1235 105.2422 87.4195 105.762 86.25 104.9303 85.3965 106.0739 84.4798 109.1582 85.1436 110.4057 83.2471 113.3861 84.227 114.3564 82.9626 114.3564 81.7298 113.3514 81.9827 112.8662 80.9712 113.0049 78.727 114.599 77.8735 114.0792 74.8707 119.5547 75.3448 124.7529 72.9109 125.6539 72.0258 126.2777 67.0948 125.3074 61.8793 127.3174 62.8276 131.476 60.2672 135.5652 60.5201 135.6346 57.8965 137.298 55.1465 138.2337 56.8218 140.9714 57.7385 143.3626 55.9051 144.4023 56.9166 146.7935 55.6839 148.8728 55.6523 149.3926 56.727 151.4719 56.3161 151.9571 54.4511 153.9324 54.3879 154.0363 55.8103 155.7691 55.8103 156.0117 54.9253 160.6554 53.8189 160.6554 52.7126 162.2842 52.8074 163.2199 47.5603 160.5515 47.6235 159.7891 45.9799 157.9524 46.6753 156.7394 48.8247 154.071 48.8563 153.4126 47.4339 150.2936 49.5517 148.9074 48.5718 148.249 46.0115 146.4816 46.0115 144.4716 48.1925 142.7388 47.2126 142.1843 47.9712 141.214 47.2126 138.199 48.0345 136.5356 46.9914 135.392 48.5718 134.8722 47.75 131.7532 47.4971 131.0601 48.9195 128.7036 48.5402 129.5353 50.5632 127.9758 50.5948 127.0748 48.6983 126.555 51.4482 122.0498 50.2787 120.8022 51.796 118.0991 51.4799 118.5843 52.5862 116.9209 52.8707 115.2228 50.6896 113.2128 42.9138 111.6533 42.5661 109.9552 40.2586 113.2821 38.7098 115.604 39.7845 116.9209 38.5201 120.3864 37.8247 120.7329 34.1264 119.7279 31.8822 114.2178 27.3937 115.1881 26.0345 114.6683 24.9914 115.5347 24.6753 114.5297 24.3592 114.495 22.6523 112.6583 22.6839 111.48 21.2615 113.49 19.681 118.9309 19.5862 136.0158 11.4626 143.6399 9.1552 146.4469 9.0287 149.9124 11.4626 158.4029 10.7356 160.3436 7.4483 164.6061 6.658 167.6211 4.2241 169.7697 2.0747 168.7647 1 170.1509 2.0115 173.0273 1.3477 174.1709 2.0115 175.0026 3.8764 173.0619 4.319 173.7897 6.5316 175.1066 7.954 176.7007 7.4483 176.6314 8.1437 178.5374 8.523 178.1562 9.5029 180.4781 10.3247 180.5474 11.9368 181.9683 12.8218 179.4384 24.5804 180.9979 26.9511 180.1662 30.7758 184.2208 31.4396 185.1912 32.8937 184.8793 35.1063 187.4091 34.9483 187.5824 36.7184 195.5183 37.9195 197.7709 39.9425 206.2614 41.4914 211.4596 42.0603 214.7865 39.6896 218.5292 40.1322 219.361 41.5862 226.0494 43.4511 230 46.0115 233.0497 46.2327 236.7231 51.1954 238.4905 56.3161 248.0206 61.0258 243.4808 62.1005 M 560.3659 52.9339 564.4552 52.5862 567.99 49.931 573.6387 51.2902 575.0942 53.9454 577.3468 53.7557 579.2875 55.0201 580.7083 54.0718 582.9956 54.862 585.0402 54.4195 588.9216 56.3161 590.6197 55.5574 591.1048 53.3448 592.6643 53.7557 593.5653 56.1264 593.9812 54.7356 595.9219 53.5977 602.437 53.25 604.6896 54.1034 605.4866 52.6178 609.0908 54.0718 609.8532 51.1322 608.1897 50.5316 608.4323 48.7615 606.2144 47.4971 608.6402 46.7069 606.9075 45.8218 607.1501 43.862 609.7492 43.7672 612.8335 41.2701 615.0861 41.1437 616.403 43.0402 622.6062 42.4712 624.3043 43.1983 625.5865 42.5029 624.9281 41.3017 626.1064 40.6695 629.8837 39.0891 631.5472 39.4052 630.1263 38.5201 630.2303 37.1609 636.9187 38.2672 637.5771 36.181 636.6068 34 638.2356 32.0402 637.6811 31.1552 641.1813 31.8189 643.3645 34 649.5331 34.7902 649.3598 35.454 653.2412 35.8333 656.1176 34.0948 663.2911 35.8649 665.2665 40.5431 663.9842 41.5546 664.816 44.5258 667.9002 46.8965 667.3804 48.6983 M 38.7739 393.1751 37.7689 393.3647 34.6846 389.4452 36.3134 388.5917 35.2391 386.6004 33.5064 386.2211 34.3727 384.2297 31.7736 379.4251 33.4371 376.2642 32.8479 372.6291 30.2488 370.3216 27.8576 370.3216 28.8973 367.6981 28.2042 364.2843 30.9419 364.3159 31.9469 365.9912 31.4617 367.9193 36.0362 367.7929 40.9918 370.8906 39.5017 372.0285 39.3631 373.8303 41.373 376.928 44.6306 377.9078 41.9275 373.1981 41.9275 371.2383 43.3484 370.29 42.1701 369.9107 40.4027 367.0659 41.4424 365.9596 40.9918 364.4423 39.4324 364.2211 39.2937 362.7354 42.4127 363.1464 44.388 365.7699 42.4473 361.2814 43.2791 359.8906 45.3584 359.5745 42.9325 358.9423 41.3384 361.6291 38.7739 361.1866 38.0115 363.1148 39.571 365.2958 37.2144 365.8964 35.9322 363.8418 34.2341 363.8734 33.7489 364.9797 32.6746 362.451 30.1102 360.9021 29.9022 359.0372 26.1249 357.1406 25.9169 355.813 27.3031 355.3389 27.2685 354.0113 25.3624 352.4308 25.3624 348.9538 24.2535 346.6148 25.8476 342.3159 25.3278 339.155 26.0902 340.1033 27.9962 339.155 23.1792 329.7355 21.4118 328.3763 20.4761 323.7613 21.689 314.0573 18.1889 308.3993 18.5701 307.8619 M 24.1842 296.4826 30.2141 295.882 M 18.6394 290.0343 16.768 290.4769 17.7037 285.7671 16.9759 282.9539 15.1392 280.8677 13.7877 282.1004 13.3025 278.5918 14.6194 277.9912 14.758 275.8418 13.4065 275.9999 12.7827 273.1234 13.5451 269.1407"/>
</g>
</svg>