<?xml version="1.0"?>
<svg xmlns="http://www.w3.org/2000/svg" version="1.2" baseProfile="tiny" width="800" height="839" viewBox="0 0 800 839" stroke-linecap="round" stroke-linejoin="round">
<g id="MN" fill="none" stroke="black" stroke-width="1">
<path d="M 541.3568 478.3007 553.9627 481.3905 552.5463 468.0013 546.0309 460.4975 548.2971 440.6345 541.3568 432.5422 544.4728 417.3874 536.1161 405.0282 523.6518 401.497 529.8839 389.285 526.4846 371.0404 534.1331 364.8608 538.9489 345.4392 550.2801 338.2297 563.7359 338.8182 591.7806 330.1374 613.5932 318.8081 641.9212 318.8081 668.2662 304.6833 702.6848 297.3266 739.0863 266.4286 758.3493 260.5433 795.6006 261.5732 799 295.8553 791.3514 312.4813 777.4707 326.9004 785.4026 341.908 780.0202 344.2622 773.5048 362.3596 759.7657 370.4519 748.2929 385.1652 742.0607 411.355 746.8765 422.5371 731.2961 443.5772 724.4973 443.8715 723.2226 436.3676 720.9563 445.0485 709.4835 442.9887 704.6677 473.4453 687.5293 496.9866 668.5495 508.1687 655.6603 546.1291 632.5729 540.3909 633.4228 532.1515 626.6241 529.3559 626.4824 529.3559 631.7231 516.2611 612.885 515.6725 613.8765 508.463 603.6784 505.8146 590.7891 492.4255 582.9989 494.7796 582.7157 494.4853 575.492 484.9217 559.2034 485.6573 541.3568 478.3007 M 560.1949 233.6179 550.8466 228.4682 496.5985 235.8249 462.6049 225.9669 471.5282 198.453 450.5655 180.797 460.0554 156.0786 458.2141 143.7194 445.8914 136.2156 428.328 134.45 427.6198 133.8614 426.6283 131.213 415.2971 122.0908 388.6688 120.0309 382.8616 105.0233 375.9212 103.6991 378.1874 94.5768 374.0799 88.9858 367.7061 85.7488 358.4995 90.1628 354.9585 85.4546 357.9329 69.8584 381.0202 69.2699 389.2354 60.0005 401.2748 63.2374 413.5974 57.9406 445.8914 64.4145 456.0895 56.4693 467.1374 57.0578 464.7295 48.3769 469.5453 45.5814 480.8765 55.8807 485.4089 53.2323 494.049 63.826 501.8392 62.6489 506.23 70.447 501.8392 73.6839 512.4622 77.5094 527.0511 78.5393 534.1331 64.2674 537.9574 68.6814 544.0479 64.4145 550.2801 65.2973 547.8722 76.4794 562.3195 91.0456 591.9223 83.689 608.6358 85.896 637.3887 72.8011 651.5527 70.7412 655.2354 48.2298 680.0224 35.4292 683.9883 40.1375 674.3568 50.2897 671.099 65.003 650.1363 98.2552 653.6773 102.522 649.0032 104.1405 641.0714 121.7965 636.3972 121.9436 639.3717 123.2678 634.6976 128.8589 633.8477 151.6646 614.8679 172.8518 610.1938 186.6823 594.0469 203.6027 577.6166 209.488 574.6422 220.8173 563.4526 225.2313 560.1949 233.6179 M 428.328 134.45 428.0447 134.8914 428.8946 137.2455 424.787 139.3054 420.2545 145.485 413.1725 161.5225 427.3365 164.9066 443.2002 183.004 443.7668 183.5925 442.9169 184.0339 437.9595 186.6823 430.4526 190.6549 419.9712 189.9193 397.8754 209.488 385.4111 212.4307 370.2556 237.1491 361.3323 243.1815 372.2386 267.0171 372.0969 275.4037 379.8871 299.2393 381.3035 302.0349 380.8786 302.182 369.4058 305.1247 373.5133 331.7558 355.1001 354.2672 361.049 380.3098 361.049 380.457 360.6241 381.0455 348.3014 398.9958 348.3014 399.29 351.2758 402.6741 354.3919 406.2053 353.967 406.2053 305.6677 402.527 299.1523 402.0856 290.5122 396.9359 272.9489 386.6366 265.8669 397.6716 258.0767 398.5544 237.3972 392.2276 196.7465 391.492 192.9223 399.7314 180.7412 398.5544 176.7753 421.36 166.4356 424.8912 161.9031 435.9262 166.0106 442.1059 150.0053 452.1109 141.3653 463.1459 138.9574 466.2357 127.0596 466.2357 110.6294 447.9912 107.655 447.1084 103.5474 445.9313 103.689 445.7842 113.3206 437.839 117.853 424.0084 93.3493 406.0582 92.3578 405.3225 92.7827 405.0282 101.8477 397.5244 100.9979 378.3971 105.2471 379.7213 115.1619 369.7162 113.0373 365.8908 117.9947 364.4194 115.0202 361.1825 121.6773 356.0328 119.1278 352.5016 125.36 350.8832 119.836 340.8781 126.3514 339.2596 123.6603 334.6985 131.7338 329.9902 125.5016 322.7807 130.1757 311.7457 123.377 313.3641 122.9521 304.2419 127.6262 303.3591 132.1587 290.2642 148.3056 291.8827 155.1044 274.3738 162.8946 270.4012 168.8435 257.0121 168.9851 235.972 185.2737 212.1364 184.9904 204.6326 205.8115 184.9167 224.9329 175.5002 217.7093 166.2308 225.9244 175.9416 225.9244 190.3607 241.3632 191.2435 239.0969 203.3084 263.6006 201.8371 276.3482 212.7249 278.1896 221.9943 285.9798 222.8771 313.8829 172.5575 312.7497 165.7894 320.2567 164.4652 322.6645 150.3404 332.721 151.6646 347.5932 130.6245 362.0405 123.5621 376.0628 103.9934 382.8616 105.0233 M 425.6368 352.7959 417.2801 354.1201 421.246 365.8908 427.3365 366.6264 418.2716 376.1901 429.1778 376.3372 427.3365 379.427 439.5176 388.6964 433.5687 398.7015 433.852 398.8486 438.8094 402.6741 433.7103 424.7441 433.5687 424.8912 434.1353 426.804 437.2513 438.7218 437.1097 438.8689 420.6794 447.9912 420.8211 459.0262 433.4271 463.5873 434.4185 470.6497 434.4185 470.7969 430.4526 468.8841 413.5974 485.6573 423.9372 487.4229 423.7955 487.8643 420.8211 496.6923 423.9372 504.6375 418.9798 513.4655 424.3621 513.0241 406.0905 514.7897 404.6741 525.9719 399.7167 524.5005 398.8669 517.4381 410.0564 511.5528 400.8498 508.0216 405.9489 493.7497 397.0256 504.3433 396.3174 500.0764 386.6858 495.221 389.377 488.0115 376.3461 484.7745 380.0288 473.7395 373.3717 465.5001 375.3546 458.4377 387.819 454.1708 391.36 462.2631 402.8328 466.2357 407.6486 463.1459 413.0309 448.5797 407.6486 446.667 404.5325 430.3352 404.5325 430.0409 388.9521 437.9861 372.8051 429.5995 360.0575 431.9536 370.3972 418.2702 365.4398 400.6142 377.4792 386.4894 376.771 373.3946 394.3344 344.4093 395.1842 333.08 402.2662 330.4316 408.7817 318.5138 412.606 319.3966 422.804 323.9578 424.6454 325.4291 425.0703 325.7234 412.7476 339.701 412.606 339.8482 412.7476 339.8482 422.5208 344.5564 427.6198 329.4017 433.1438 327.0476 425.9201 351.4717 425.6368 352.7959 M 424.3621 513.0241 428.4696 503.1662 443.3419 502.7248 445.8914 512.877 468.8371 518.6152 471.2449 519.2037 473.6528 527.1489 474.2194 528.9145 473.0863 529.3559 473.3695 532.8871 469.6869 534.0642 472.0948 539.8024 472.9446 541.7151 472.9446 543.0393 470.2535 546.7177 473.0863 557.017 473.2279 557.7527 473.3695 558.1941 475.9191 557.3113 485.2673 555.2514 483.2843 557.7527 480.8765 560.8425 470.9617 567.1692 470.82 566.875 469.1203 562.7552 461.7551 562.0195 467.5623 562.3138 460.9052 552.4559 453.8232 554.3686 456.0895 544.5107 449.0075 543.1865 449.0075 537.3011 449.0075 536.7126 448.7242 537.3011 445.7497 544.5107 443.4835 550.2489 446.1747 550.6903 446.5996 559.9597 435.9766 563.638 443.6251 565.6979 443.4835 565.845 433.4271 568.3463 440.7923 572.1718 433.0021 574.0845 430.311 579.9698 429.4611 573.2017 428.6113 575.4087 428.328 576.4386 427.6198 578.3514 426.4867 578.7928 423.7955 577.91 424.0788 579.6756 425.6368 593.5061 425.6368 593.359 421.5293 589.5335 423.5122 594.3889 419.5463 592.4762 419.5463 592.6233 416.8552 598.8029 417.5634 603.6583 415.2971 604.9825 418.9798 614.1048 414.164 622.1971 414.0224 622.6385 417.8466 622.7856 418.9798 630.4366 409.6315 630.7308 415.5804 639.5588 411.1896 641.0302 414.3056 646.9155 419.5463 648.6811 414.0224 667.8084 417.8466 671.0454 407.7902 673.3995 401.983 669.2798 409.3482 661.9231 408.2151 661.3346 400 657.6562 402.9744 647.6512 405.099 640.2945 409.2066 636.1748 404.3908 632.7907 404.2492 632.7907 403.3994 631.3194 403.3994 631.1722 402.6912 622.05 397.7338 621.9028 397.7338 615.1347 402.2662 612.6334 396.6006 608.5137 401.983 603.5112 395.8924 603.5112 396.8839 592.1819 391.2183 578.4985 395.0426 575.9972 390.6518 570.8476 410.3397 542.8922 406.7987 538.4782 411.3312 533.9171 404.5325 526.8547 404.6741 525.9719 M 403.3994 631.1722 401.2748 627.3468 401.1331 627.1996 399.1502 623.8156 396.7423 624.9926 395.1842 624.1098 396.6006 621.9028 390.3685 621.7557 389.9436 616.606 394.3344 616.1646 389.5186 612.0449 395.0426 610.4264 391.0767 608.808 390.6518 599.6857 383.0032 600.8628 382.8616 605.8653 379.4622 601.4513 377.9042 608.6608 377.0543 599.8328 364.4483 601.4513 368.5559 594.8303 359.066 592.1819 361.049 587.3265 364.4483 592.4762 365.4398 589.0921 367.4228 593.359 376.3461 593.5061 379.1789 586.4437 366.0064 581.7354 374.0799 568.6406 365.5815 569.6705 367.9894 574.9673 361.6155 575.5558 361.6155 582.0297 349.5761 579.087 345.4686 584.0896 340.2279 576.2915 335.9787 581.4412 327.9052 582.9125 327.7636 577.3214 327.6219 571.7304 337.82 552.7501 342.0692 544.6578 343.2023 509.7872 339.9446 505.6675 344.1938 494.0439 346.0351 488.7471 344.0522 487.2758 344.0522 484.7745 345.1853 481.5376 347.4515 481.3905 347.8765 477.565 350.8509 455.9364 359.3493 450.9339 360.0575 431.9536 M 405.099 640.2945 406.3738 636.469 404.3908 632.7907 M 480.8765 560.8425 490.3663 571.7304 508.3546 573.9374 514.0202 584.0896 530.3088 590.7106 532.8584 627.4939 555.0958 642.9429 558.9201 652.6537 552.263 702.8262 577.475 711.6542 578.4665 725.9261 571.6677 739.3153 566.4271 737.5497 570.6763 747.2605 548.5804 781.2483 549.2886 793.0189 540.2236 795.3731 534.2748 831.4208 529.0341 830.6851 528.6092 837.159 524.0767 838.336 516.2865 835.8348 507.0799 812.8819 485.8339 813.7647 482.0096 803.3183 471.2449 795.9616 452.5485 797.1387 438.6677 787.4279 415.8637 784.1909 400.2833 793.7546 377.196 795.9616 361.049 776.9814 355.2417 761.5324 347.0266 760.2082 346.885 759.7668 362.0405 720.0408 362.1821 719.4523 362.7487 718.1281 362.7487 715.3325 364.8733 701.3549 368.6976 697.9708 380.4537 687.8186 389.9436 679.2848 396.6006 666.7785 401.2748 670.0154 401.558 669.7212 401.983 669.2798 M 347.0266 760.2082 347.4515 764.3279 294.3365 758.0012 287.5378 775.8043 279.7476 780.8069 265.3003 771.2432 261.1928 781.3954 240.7966 789.0463 221.2503 773.7445 222.1001 765.9464 208.361 752.1159 200.8541 730.7815 183.2907 723.2777 191.2226 679.7262 228.7572 650.741 234.5644 598.3615 177.9084 590.2692 170.9681 582.6182 176.0671 561.5781 186.4068 553.4858 189.9478 538.7725 197.3131 532.8871 186.4068 525.0891 188.1065 507.1388 191.7891 504.6375 192.639 504.049 215.443 519.498 225.3578 504.4904 233.8562 513.0241 243.9127 508.1687 252.6944 512.2885 256.2354 503.4605 269.1246 495.9567 281.5889 508.0216 296.1778 489.7771 305.6677 496.1038 311.475 489.1885 327.6219 486.8344 335.2705 490.2185 338.8115 483.3032 344.0522 484.9217 344.0522 484.7745 M 425.6368 352.7959 424.0788 357.6513 433.9936 358.0927 441.2173 358.5341 446.1747 351.0303 439.9425 349.1176 447.1661 345.7335 442.0671 340.5838 445.8914 340.4367 449.574 340.731 453.3983 350.8832 456.656 347.0577 457.0809 346.4692 455.3813 336.317 442.9169 334.5514 442.7753 328.3718 459.9137 333.2272 455.6645 326.459 461.6134 326.7533 464.3046 334.8456 469.4036 332.4915 469.9702 332.1972 473.0863 313.217 462.7465 315.1298 472.5197 310.5686 471.1033 292.3241 475.7774 288.4986 476.344 302.0349 485.2673 306.4489 477.3355 307.3317 476.9105 312.7756 482.0096 310.4215 486.2588 314.8355 478.7519 315.8654 477.7604 318.9552 484.8424 320.7208 477.3355 323.3692 476.344 328.8132 482.5761 326.3119 481.7263 333.9628 488.9499 334.9928 483.9925 338.2297 490.3663 341.0252 489.0916 366.185 501.9808 363.6838 504.1054 357.0628 517.8445 348.6762 518.4111 341.6138 524.36 348.9704 511.754 367.3621 509.2045 378.8385 502.4058 380.7512 508.4963 392.2276 502.4058 393.9932 494.3323 427.3925 488.3834 429.5995 490.6496 435.0434 487.5335 437.2504 486.2588 438.1332 491.0745 438.8689 487.5335 450.4925 493.1991 445.0485 499.5729 452.2581 478.4686 461.8217 475.0692 459.0262 468.5538 469.7669 464.5879 453.7294 451.9819 462.9988 444.7583 461.0861 442.6337 454.7593 446.8829 450.9339 439.2343 443.2829 437.9595 439.016 437.6763 438.5746 437.1097 438.8689 M 110.6294 447.9912 110.2045 449.0211 107.3717 452.8466 105.2471 459.1733 111.7625 460.4975 109.3546 462.5574 106.9468 464.7644 106.8051 464.7644 113.1789 475.2109 107.655 480.5077 111.0543 495.6624 104.5389 499.0465 105.8136 506.6974 99.1565 506.256 99.0149 506.256 101.8477 509.1987 93.066 521.5579 68.5623 513.4655 52.6986 505.2261 60.0639 499.4879 45.3333 492.8669 51.1406 486.6873 47.3163 481.6847 52.4153 479.4777 50.574 470.2083 56.098 468.8841 60.0639 458.7319 53.8317 457.8491 46.3248 444.1657 52.2737 443.4301 61.6219 429.1581 57.3727 426.6568 58.3642 411.9435 62.4718 397.5244 67.8541 393.9932 66.4377 398.9958 75.5027 398.113 80.1768 408.2652 91.2247 401.7913 92.7827 405.0282 M 541.3568 478.3007 540.5069 478.1535 539.5154 477.8593 524.6432 485.6573 517.8445 481.0962 513.1704 478.0064 507.3632 463.7345 506.655 461.9689 506.5133 461.8217 515.5783 458.1434 516.853 452.6995 527.6177 452.4052 516.5698 447.8441 521.2439 434.1606 516.1448 443.4301 507.9297 440.7817 510.4792 443.2829 504.5304 451.3753 499.8562 452.6995 499.5729 452.2581 M 345.1853 481.5376 341.7859 481.8319 332.2961 472.5625 343.344 464.0287 339.3781 451.3753 346.0351 445.7842 340.5112 426.5097 348.3014 418.5645 350.7093 406.6467 354.5335 406.3524 354.5335 406.2053 354.3919 406.2053 M 560.1949 233.6179 544.6145 237.0019 536.1161 248.3312 537.9574 252.5981 531.017 252.0095 523.3685 259.0719 523.2268 259.2191 518.836 274.0795 516.7114 280.9948 516.7114 281.1419 530.7338 296.7381 529.1757 313.0699 529.1757 313.217 541.0735 340.731 540.5069 342.2023 538.9489 345.4392 M 517.8445 481.0962 519.6858 484.186 514.3035 487.1287 507.0799 487.8643 503.3972 492.8669 508.4963 492.8669 503.6805 494.9267 505.3802 500.2235 510.3376 502.8719 508.3546 507.2859 514.0202 504.3433 511.754 507.4331 515.1534 508.7573 511.0458 508.9044 519.9691 519.7923 502.8307 506.4031 498.8647 518.3209 494.1906 508.9044 494.3323 519.7923 498.0149 527.7375 503.2556 528.7674 497.3067 530.8273 495.8903 530.0916 493.9073 526.119 489.5165 527.0018 492.4909 524.9419 489.0916 520.3808 483.8509 525.2362 479.3184 515.084 478.8935 514.3483 479.0351 515.8197 479.6017 527.4432 479.1768 527.4432 475.2109 528.6203 474.2194 528.9145 M 632.5729 540.3909 632.5729 540.5381 646.737 545.2463 643.196 545.6877 642.4878 558.1941 647.1619 566.1393 641.6379 578.6456 626.3408 585.4138 634.2726 592.0348 621.6667 612.192 608.7774 614.9876 608.7774 638.676 601.9787 654.2722 595.0383 658.2448 588.2396 685.023 580.7327 688.7014 577.475 711.6542 M 683.9883 40.1375 698.2939 24.8356 708.6337 19.6859 721.9478 1 732.4292 5.2669 725.2055 11.1522 727.8967 13.5063 721.8062 25.1299 731.1544 26.1598 726.7636 26.7483 711.8914 51.4667 717.9819 58.6763 714.2993 62.6489 719.115 65.7387 713.3078 86.1902 723.6475 89.1329 741.2109 104.2876 767.9808 111.9386 761.1821 129.8888 749.7093 134.45 749.5676 152.2531 727.4718 192.4205 727.7551 209.3409 723.0809 216.2561 736.6784 230.8223 743.0522 228.4682 752.1171 237.7376 770.2471 245.5357 774.6379 241.5631 785.6858 250.3911 795.459 251.7153 796.8754 260.1019 758.3493 260.5433 M 188.1065 507.1388 187.9649 507.1388 168.4185 502.5777 163.4611 506.9917 140.2322 507.2859 139.8072 507.2859 130.0341 525.9719 132.3003 532.4457 119.1278 531.1215 112.3291 540.0967 99.4398 526.8547 94.9073 531.2687 90.5165 529.2088 93.066 521.5579 M 183.2907 723.2777 167.5687 716.6567 172.8094 722.1007 162.328 724.6019 162.8946 738.8739 142.3568 739.4624 127.3429 753.5872 131.8754 736.814 125.6432 726.9561 112.4707 725.4847 112.4707 735.6369 107.655 741.3751 88.6752 739.9038 87.8253 729.8987 76.6358 723.572 70.1203 735.0484 57.9393 743.7293 57.2311 730.0459 48.5911 717.2453 34.2854 722.5421 9.2151 711.0657 1 712.2427 8.9318 701.3549 7.9404 695.9109 16.0138 690.3199 13.0394 674.4294 19.6965 673.3995 23.0958 664.8658 20.5463 661.9231 23.9457 657.6562 15.164 647.0626 18.705 641.0302 16.2971 635.7334 31.4526 608.9551 21.1129 605.4239 24.5122 586.738 17.147 577.3214 24.3706 579.6756 32.5857 575.2616 27.9116 569.8176 34.1438 549.8075 27.77 539.9495 35.8435 528.9145 35.8435 517.8795 45.0501 511.6999 39.6677 504.3433 52.6986 505.2261"/>
</g>
</svg>