<?xml version="1.0"?>
<svg xmlns="http://www.w3.org/2000/svg" version="1.2" baseProfile="tiny" width="800" height="768" viewBox="0 0 800 768" stroke-linecap="round" stroke-linejoin="round">
<g id="NL" fill="none" stroke="black" stroke-width="1">
<path d="M 661.5053 274.4778 661.3579 274.4778 633.9474 273.6045 600.2 241.0026 591.0632 240.2749 576.6211 246.9699 567.9263 233.1432 570.4316 225.5749 567.6316 216.2601 583.5474 197.1937 586.4947 182.4938 586.6421 182.3482 575.5895 166.775 559.8211 162.5542 580.8947 149.1641 582.8105 141.8869 593.2737 141.7414 590.9158 127.9146 596.3684 128.7879 587.8211 120.3463 589.4421 109.285 597.1053 113.5058 601.9684 103.8998 610.6632 100.5523 M 576.6211 246.9699 576.4737 248.4253 575.8842 251.6273 573.8211 262.6887 569.9895 260.7966 563.6526 273.8956 554.9579 276.2243 557.6105 278.1164 552.1579 291.7976 537.1263 296.8916 527.9895 309.6995 523.8632 307.5163 523.4211 312.1738 516.2 313.047 515.9053 314.648 514.2842 326.2916 524.0105 333.5688 524.1579 341.1371 524.1579 341.7193 511.6316 348.8509 502.3474 342.5925 489.2316 343.6113 488.9368 343.6113 488.4947 337.4985 496.0105 333.1321 484.0737 315.8124 481.2737 311.7371 478.6211 315.5213 466.6842 347.1044 449.8842 344.7757 435.5895 352.4895 436.0316 351.3252 440.3053 338.9539 436.3263 336.4797 420.8526 332.8411 420.7053 332.6955 420.5579 332.6955 430.7263 320.9064 427.6316 303.7322 433.5263 292.5253 424.0947 294.7084 430.4316 284.2292 418.4947 268.0738 416.2842 265.454 406.4105 275.6421 407.5895 268.656 401.8421 258.759 411.5684 241.1481 411.7158 240.857 412.8947 241.8759 416.5789 231.9788 427.7789 228.6313 427.9263 228.6313 427.9263 228.4858 425.8632 222.5185 436.0316 221.9363 437.6526 215.3868 447.9684 210.1472 453.1263 192.2452 448.8526 178.273 469.0421 167.6482 474.9368 168.9581 469.7789 160.8077 472.7263 157.0235 486.2842 155.277 492.7684 147.1265 496.6 148.5819 497.9263 141.3047 515.3158 138.8305 514.1368 146.6899 517.2316 147.8542 521.5053 140.7225 528.4316 142.178 528.2842 134.7552 529.1684 135.0463 532.2632 136.2107 531.6737 135.6285 528.8737 133.5909 527.4 132.281 525.1895 130.5344 528.8737 128.6424 529.7579 126.6047 534.4737 125.7315 534.9158 125.5859 535.0632 125.5859 539.4842 135.9196 569.5474 127.7691 588.2632 114.9612 587.8211 120.3463 M 748.7474 287.8679 732.0947 292.0886 726.4947 292.2342 713.5263 296.7461 698.0526 310.5728 684.0526 309.1173 673.7368 305.1876 678.8947 294.9995 678.0105 285.8302 660.3263 284.3748 661.6526 274.4778 661.5053 274.4778 662.6842 264.8719 655.3158 249.8808 656.9368 241.1481 651.6316 234.5986 655.1684 222.2274 648.8316 201.9967 653.5474 199.3769 647.6526 192.2452 653.8421 180.8928 649.2737 176.2354 637.4842 178.5641 609.1895 168.8126 608.8947 168.6671 609.3368 159.9344 605.9474 158.3334 610.3684 145.9621 606.0947 141.7414 616.7053 145.5255 628.6421 133.4453 616.2632 120.6374 613.6105 115.6889 616.5579 112.778 612.1368 112.6325 611.8421 112.4869 613.1684 112.1959 620.5368 108.9939 620.3895 107.684 615.9684 101.7167 613.9053 101.28 610.6632 100.5523 609.7789 100.4068 615.5263 98.8058 612.4316 93.4206 612.5789 93.4206 620.3895 91.0919 621.7158 79.4484 635.2737 68.2415 641.9053 53.9781 644.1158 52.0861 648.8316 48.0108 651.7789 45.5366 658.5579 42.0435 666.2211 37.3861 669.0211 44.0811 680.6632 42.3346 681.6947 42.189 690.5368 52.2316 704.8316 48.8841 740.3474 31.8554 744.4737 23.996 778.5158 1 779.4 1.2911 777.7789 22.2495 786.0316 29.9633 782.2 33.4564 784.1158 40.1514 793.8421 48.1564 794.7263 56.4524 792.9579 65.6217 784.8526 65.0395 773.3579 75.9553 782.4947 80.0306 780.1368 89.9276 784.7053 101.4256 798.7053 106.5196 799 106.6652 788.0947 117.8721 785.4421 129.079 795.0211 138.6849 795.4632 148.1453 795.4632 148.4364 784.8526 162.8453 773.3579 164.8829 760.0947 176.0898 762.1579 189.9165 755.9684 201.1234 750.0737 200.3957 742.5579 207.2363 745.5053 216.8422 723.6947 245.3689 725.4632 248.862 733.1263 246.3877 741.2316 257.5946 739.4632 268.656 751.6947 272.4402 748.7474 287.8679 751.4 291.3609 747.7158 322.5074 750.9579 327.1648 745.6526 335.8975 757.2947 344.7757 748.7474 355.8371 746.6842 366.7529 750.5158 379.1241 746.2421 388.1479 760.2421 396.735 766.5789 394.4063 775.2737 402.4112 750.3684 438.7973 735.0421 453.6428 716.1789 463.3943 710.7263 461.6478 703.5053 478.3854 703.5053 478.5309 686.5579 482.3151 684.4947 474.019 671.6737 469.3616 667.8421 455.5349 666.6632 454.3706 660.4737 454.5161 653.8421 456.9904 641.1684 454.6616 632.1789 460.629 638.5158 444.6191 651.1895 429.4825 647.9474 425.4072 641.3158 426.135 633.3579 415.8013 608.8947 429.1914 600.4947 423.3696 580.4526 423.3696 568.2211 428.9003 559.9684 424.534 574.7053 412.5993 567.4842 384.9459 575.1474 361.3677 571.3158 361.5133 568.3684 350.3064 558.7895 344.3391 554.6632 348.2687 547 342.447 536.2421 352.344 530.9368 350.5975 524.1579 341.7193 M 703.5053 478.3854 704.0947 478.2398 701.5895 488.4279 710.1368 499.6348 711.6105 510.4051 718.6842 516.0814 714.7053 540.6783 699.2316 546.209 685.5263 562.8011 671.3789 571.3882 662.3895 596.7129 649.1263 605.5911 642.0526 596.1307 635.8632 595.403 633.6526 578.9565 638.0737 550.8664 622.6 531.8001 622.4526 531.509 595.7789 523.7952 583.2526 537.913 583.4 538.9318 583.9895 547.5189 583.9895 547.6645 582.5158 548.1011 580.0105 548.8288 579.5684 545.4813 578.0947 533.4011 567.4842 517.6823 566.4526 516.2269 556.2842 511.715 553.0421 510.2596 552.4526 509.9685 535.3579 508.9497 529.3158 484.9349 518.4105 479.1131 559.9684 424.534 M 436.0316 351.3252 420.7053 358.6024 442.2211 384.6548 439.2737 391.0588 443.6947 398.0449 429.9895 423.9518 432.0526 429.4825 421.1474 433.2666 413.1895 425.2617 413.0421 425.4072 405.8211 430.3557 395.2105 429.0458 395.5053 431.229 382.8316 432.2478 381.5053 431.3746 374.1368 426.5716 372.2211 425.2617 361.1684 437.4874 347.9053 444.328 339.0632 436.1775 322.5579 439.0884 321.5263 436.4686 281.7368 436.9052 269.3579 436.1775 261.6947 445.7834 261.2526 431.6656 265.0842 417.6934 275.5474 405.031 273.0421 399.0637 279.9684 387.2746 275.2526 385.3826 279.8211 379.2697 276.2842 378.3964 281.7368 376.941 278.4947 371.1192 281.2947 361.0766 294.1158 350.5975 300.7474 328.9114 311.9474 322.6529 311.9474 314.648 315.9263 314.7936 324.6211 299.5114 331.5474 300.3847 329.1895 295.4362 341.2737 295.1451 347.7579 292.0886 352.4737 289.7599 354.9789 288.5956 350.8526 288.3045 348.9368 286.558 352.1789 281.6095 352.1789 277.8253 352.4737 253.6649 357.1895 243.0402 379.4421 221.9363 382.3895 216.5511 398.6 199.668 399.3368 199.0858 401.6947 232.8521 411.7158 240.857 M 578.0947 533.4011 571.0211 534.1288 555.4 525.6873 546.2632 529.1803 533.8842 525.3962 514.1368 544.7536 511.6316 524.9596 504.1158 522.9219 506.7684 511.4239 496.8947 506.0388 493.9474 509.5319 487.0211 503.2735 474.9368 503.7101 471.4 494.1042 439.4211 503.1279 400.0737 521.3209 394.7684 518.5556 404.3474 512.2972 392.5579 512.4427 370.3053 484.7893 382.5368 465.4319 399.1895 458.3003 395.5053 431.229 M 649.1263 605.5911 655.4632 614.1782 633.5053 615.9248 624.9579 623.7841 617.7368 644.0148 607.7158 649.5455 598.5789 648.9633 594.3053 644.1604 580.3053 654.3485 565.8632 655.6584 562.4737 664.2455 537.8632 657.2593 537.4211 656.8227 521.3579 643.2871 513.1053 640.8128 511.9263 639.9396 517.0842 621.4554 512.6632 618.6901 516.2 615.0515 510.6 608.3565 524.1579 585.506 528.2842 584.9238 520.1789 582.8862 525.3368 573.1347 522.8316 571.0971 529.6105 565.4209 529.3158 565.4209 522.8316 562.8011 519.8842 561.6367 519.7368 561.6367 519.2947 561.4912 502.2 581.5763 498.0737 583.6139 488.2 594.0931 484.6632 597.8773 481.4211 593.9476 480.0947 593.9476 458.1368 605.4456 454.6 626.2584 441.4842 628.0049 414.9579 640.2307 399.4842 638.193 385.0421 643.8693 377.8211 643.5782 370.3053 643.2871 367.8 643.1415 363.3789 636.301 359.1053 629.4604 358.3684 628.296 359.8421 621.601 359.9895 621.0188 362.9368 607.3376 370.1579 595.6941 367.6526 587.9802 372.6632 576.0456 369.7158 569.9327 394.6211 518.5556 394.7684 518.5556 M 251.0842 570.2238 251.9684 569.6417 265.9684 560.909 285.5684 513.6071 288.0737 497.3061 271.4211 481.8784 286.4526 453.6428 281.7368 436.9052 M 359.9895 621.0188 355.1263 620.4366 349.6737 624.2208 345.9895 620.1455 339.3579 633.3901 325.9474 632.3713 316.0737 628.8782 320.0526 625.9673 316.2211 618.6901 308.8526 619.7089 300.8947 609.9574 296.7684 612.2861 286.1579 602.8258 281.7368 605.4456 283.8 612.8683 283.3579 613.4505 273.7789 613.0139 263.0211 620.1455 259.4842 619.4178 254.0316 616.9436 M 77.6316 568.4773 138.7895 579.102 195.2316 570.9516 232.2211 575.4634 251.0842 570.2238 251.2316 575.4634 251.3789 589.4357 245.0421 590.4545 245.0421 594.3842 255.8 605.5911 254.0316 616.9436 234.4316 614.3238 222.9368 619.2723 211.7368 616.2158 204.3684 624.6574 182.8526 625.3851 182.8526 625.5307 182.7053 626.2584 180.0526 639.794 181.3789 641.6861 182.4105 642.996 183.4421 644.1604 191.5474 640.3762 191.9895 640.2307 197.5895 642.996 201.5684 648.2356 199.5053 656.8227 186.6842 675.0157 173.2737 681.5652 159.5684 701.0682 150.1368 699.9038 148.0737 712.8573 141 714.1672 142.1789 720.4256 116.2421 766.9998 109.0211 766.1265 107.4 757.5394 95.7579 747.4968 95.6105 747.4968 73.0632 748.9523 74.9789 737.7454 60.6842 736.7265 60.6842 723.482 59.8 722.4632 50.8105 707.9088 60.6842 690.0068 61.1263 689.2791 60.0947 688.1147 54.7895 670.2128 54.0526 669.6306 53.9053 669.0484 52.7263 668.6118 40.9368 663.8088 26.4947 657.9871 26.9368 648.8178 24.8737 647.3623 24.5789 645.4703 13.5263 635.1366 9.8421 628.0049 1.4421 623.7841 1.4421 623.9297 1 623.4931 4.3895 618.6901 6.0105 617.2347 13.3789 618.6901 41.6737 586.3793 49.0421 583.1773 55.9684 586.2337 54.4947 582.5951 68.2 577.9377 70.8526 577.0644 73.5053 572.6981 77.6316 568.4773 81.6105 559.0169 83.6737 561.7823 89.4211 558.5803 90.0105 545.1902 97.9684 542.2793 100.6211 533.6922 104.7474 535.2932 121.2526 526.415 124.3474 515.3536 133.1895 507.0576 142.4737 507.2031 150.8737 497.1606 161.6316 497.7428 156.6211 494.8319 147.9263 472.8547 177.1053 460.9201 174.7474 456.9904 179.1684 455.2438 183.8842 453.6428 183.8842 453.4973 184.0316 453.3517 183 445.929 186.3895 445.929 187.2737 446.0745 186.6842 447.3844 195.5263 472.2725 188.0105 495.5596 195.5263 512.5883 213.9474 492.7943 231.4842 498.3249 245.7789 481.4418 253.2947 480.8596 254.9158 476.2022 271.8632 467.6151 267.7368 450.732 261.6947 445.7834"/>
</g>
</svg>