<?xml version="1.0"?>
<svg xmlns="http://www.w3.org/2000/svg" version="1.2" baseProfile="tiny" width="800" height="624" viewBox="0 0 800 624" stroke-linecap="round" stroke-linejoin="round">
<g id="OR" fill="none" stroke="black" stroke-width="1">
<path d="M 686.0218 232.9177 685.406 232.3629 686.4008 230.7838 683.2744 228.351 682.9901 225.2782 682.9901 225.1928 682.4691 225.1074 669.537 223.4003 664.2789 226.9 655.4206 223.7417 651.8679 225.9183 647.6045 224.1685 649.073 222.4187 647.1308 222.4613 645.8992 220.0713 641.5885 218.5776 641.3517 218.1081 642.678 208.1639 642.9622 206.158 643.1044 205.0056 642.1096 204.0667 641.8254 203.3412 644.9992 203.8533 646.0887 198.7318 647.1782 199.2013 647.4151 198.5611 647.5572 198.177 647.6045 197.9209 647.3677 197.6222 645.1413 194.9334 645.615 191.5191 641.778 188.873 640.6885 187.2085 641.3043 185.8428 643.1044 183.282 645.7571 184.0502 645.8518 184.0929 648.173 182.6845 649.8309 181.7456 650.7783 181.1908 650.8257 179.9104 651.0152 175.173 651.1099 175.173 652.6258 175.173 652.6258 175.1303 654.4732 176.24 659.3997 179.1848 659.7787 177.0509 661.4367 177.2216 662.7157 179.9104 660.4893 182.4284 660.584 182.4284 660.6787 182.4711 662.763 183.3674 662.8578 183.5381 661.2472 185.0319 663.4736 185.9281 664.3262 184.8611 672.095 188.4035 674.0845 185.1172 678.2531 185.5013 678.1584 187.4646 681.8533 190.8789 682.2796 193.3969 686.9219 193.9091 687.7745 194.8907 686.4482 196.6406 689.9062 198.049 690.0957 198.177 689.3378 195.787 691.8484 195.3602 692.2747 193.7811 692.2747 193.653 690.0009 191.9032 692.7011 183.8795 695.5433 184.477 697.0591 182.0017 706.1069 183.7515 703.7857 180.2945 705.6331 179.3556 705.4437 176.5387 707.3858 177.307 709.5649 175.8986 714.6335 179.3982 716.9546 178.3313 717.1441 178.0325 717.3336 177.9471 714.6809 185.4587 716.1967 193.7384 732.4921 224.2965 732.5868 229.2473 731.3552 233.3445 717.9494 234.4115 710.8913 238.466 710.1333 240.7706 709.0912 240.5146 708.2385 240.3012 706.8648 239.9597 706.249 240.4719 704.3541 240.6853 703.6436 240.2158 703.4067 239.661 704.7805 237.9965 704.591 237.6124 704.3068 236.9722 704.1173 236.5881 703.8804 236.6308 697.6276 237.5697 697.0591 235.3077 690.901 232.747 689.243 234.1127 687.3482 232.9177 687.2061 232.7897 687.1114 232.9177 686.0218 232.9177 686.4008 233.2591 685.5481 235.2224 685.4534 235.5638 685.3587 235.5638 678.5373 235.6492 675.4583 238.5087 675.0793 240.856 678.0636 240.3865 676.1215 242.5632 677.4005 244.5264 673.4687 246.9164 671.9055 245.4653 671.5265 247.0445 668.4475 248.0687 665.9842 246.7884 663.8052 248.6236 663.6157 252.2513 660.4419 252.55 659.8734 255.1961 656.9839 255.2815 653.9522 259.2506 647.8414 257.2874 646.4676 254.4706 645.8045 260.9578 641.3043 260.9151 640.9253 260.6164 637.4199 257.7569 631.925 256.3912 630.9776 254.2145 628.6564 255.0681 626.0984 253.489 629.3196 253.3183 629.1301 250.8429 627.3774 252.6354 623.5878 252.9342 619.9403 256.6472 616.0085 256.2204 614.7769 259.1653 610.0399 259.464 609.9925 259.3787 607.8609 256.8179 605.1608 253.5317 603.5975 251.6111 602.6975 250.5015 602.2238 250.3734 600.0921 249.7332 599.0974 247.3432 593.6971 245.0385 593.555 245.2093 M 566.8856 187.934 564.9907 188.2755 562.9064 191.391 565.5592 196.3418 568.8751 197.7502 569.4435 202.4876 568.0698 208.5907 572.0015 207.0542 574.5122 207.7371 575.8385 209.743 578.5386 210.3405 582.044 215.9315 584.3652 214.9072 593.7919 215.5047 594.0761 219.047 591.3286 226.1317 598.5289 227.9243 599.1447 227.028 600.6606 229.2046 608.6188 231.1252 607.0082 236.7588 608.6188 239.9597 607.7187 241.7523 602.1764 240.5146 599.2868 242.5632 592.2287 243.3314 592.5129 244.7825 593.555 245.2093 592.7971 246.4043 592.8445 246.703 590.0023 250.8002 584.9336 249.4772 579.7703 250.5868 576.7386 249.0077 575.9806 250.2027 573.5174 250.3734 572.4752 253.7451 569.633 252.7208 568.0698 253.2329 566.8382 254.2999 566.0803 255.2815 566.175 255.751 567.075 256.5192 566.5066 257.7569 563.996 258.9519 559.5905 264.9696 552.1534 266.5488 550.3059 269.7497 539.6476 266.7622 533.4895 273.5908 527.9945 270.3472 526.8103 270.3472 527.1419 273.1213 526.0524 273.2067 523.7312 271.4995 519.5153 271.9263 512.1729 269.3229 506.5832 269.1095 501.3724 265.2257 499.4776 262.7503 500.8987 261.598 497.0617 258.3117 490.3352 256.3485 491.3299 253.0195 488.5825 247.5139 492.0879 241.2828 493.6984 240.984 494.6459 244.3984 496.588 245.1239 495.1196 248.5809 495.8775 250.3734 495.9722 250.3307 496.6828 249.8186 499.0513 248.2395 498.9565 247.77 498.4355 245.3373 498.4355 245.2519 502.083 238.5087 499.4303 233.9847 507.1516 232.7897 507.5306 222.504 506.2042 221.2237 508.099 219.986 505.7779 219.4311 505.0673 217.724 505.3515 210.6393 507.6727 208.9321 507.9569 208.676 507.5779 208.0358 506.9148 206.8835 506.2516 205.8165 500.6619 202.6583 495.9248 199.4574 495.688 198.5184 497.2038 196.1711 497.9144 195.4455 503.7883 196.5979 509.3306 183.1967 511.6992 182.4711 515.2046 185.416 517.3362 182.8979 523.2101 184.1783 525.2471 182.087 525.4365 182.3004 535.0053 190.0253 535.4317 190.3667 538.8897 191.0069 545.0952 184.221 553.1008 188.2328 555.5641 185.0319 560.5379 184.3063 563.1907 181.7883 566.3171 182.3858 566.0803 184.0076 569.0172 187.5926 566.8856 187.934 570.6278 187.8487 571.1962 187.3792 573.4227 187.1231 573.47 187.1231 575.0332 192.2873 575.6491 192.2873 579.3439 192.1593 581.3335 194.2078 589.718 194.8054 589.8601 194.8054 589.9549 194.8054 593.7445 193.9945 595.3077 188.2755 597.0604 189.2571 601.3711 187.3792 608.1924 188.0194 609.4241 185.0745 613.1663 186.1842 615.7243 183.9649 614.398 186.0135 614.6822 189.129 611.6031 190.8789 608.4293 196.6832 611.082 203.2558 616.3401 203.5119 616.8138 199.0306 619.4192 198.9025 622.1193 196.0857 640.0727 202.1888 642.1096 204.0667 M 290.6694 267.5304 290.9536 267.8718 290.6694 267.9572 287.9693 268.7254 286.5481 273.5481 288.2535 273.164 292.7537 277.0051 293.0379 278.7123 298.817 281.7425 299.0539 281.8705 298.0591 282.8095 297.7275 284.858 297.1117 286.1384 297.1117 286.2238 297.2538 288.8699 297.2538 288.9552 293.9853 288.8699 293.9853 288.9552 293.8905 288.9552 293.7484 289.4247 292.9431 291.0465 287.3534 289.4674 286.5008 286.3091 284.5112 284.6873 277.2636 282.5107 276.0319 283.9618 277.0267 280.1207 275.5582 277.6026 275.5109 277.6453 267.1737 284.2605 265.3262 288.8272 262.5788 291.6013 259.5471 292.0708 259.2155 295.4424 251.1625 297.0642 249.173 300.3505 243.0148 303.3807 243.2043 306.9231 241.3569 310.2521 236.7146 313.9225 230.8407 314.8187 228.4722 311.4897 225.2036 311.8739 223.8299 310.7642 219.8508 312.6421 216.3927 312.5567 213.9768 314.52 202.229 313.4103 200.2395 315.0321 200.05 317.7209 188.3969 315.3309 M 172.7173 241.6669 173.6647 241.8376 177.1701 242.4778 178.686 236.2893 182.0019 232.1495 197.3025 218.1934 201.1395 219.2604 202.1816 221.4371 207.5819 220.114 209.3346 226.3025 212.2241 225.9183 213.7874 224.2112 216.1559 225.3635 223.2614 224.7233 225.2983 222.504 228.9459 224.7233 230.8407 221.6931 236.9514 219.7299 240.2674 215.2486 244.8149 217.0411 244.957 219.5592 248.1782 223.3576 248.4624 226.8146 249.173 225.3208 253.5784 224.4246 254.9522 221.6931 257.7944 222.7174 264.8999 220.6262 266.321 218.2361 261.6314 213.9682 263.1946 210.8953 262.484 207.5664 259.1681 205.6885 255.4259 208.6334 254.6679 206.7982 250.5941 204.3228 254.0521 198.7745 254.0521 198.7318 256.7049 198.7318 257.9839 196.8113 261.4419 198.177 263.1946 196.982 267.5053 202.1461 271.7212 198.5184 M 377.6886 221.6078 377.6886 221.6504 382.4256 224.5099 388.3469 228.0523 388.7732 228.9059 388.489 234.6249 388.489 234.6675 388.5838 234.7956 389.9575 236.7161 391.1891 237.3136 396.8262 240.0878 397.442 240.3438 397.5841 240.3865 403.3633 240.728 410.3267 245.0812 416.2006 246.6603 426.48 255.3669 442.5385 257.4155 443.1543 258.013 446.2334 260.9151 445.8071 264.927 443.107 267.4023 439.7437 266.2073 436.0962 268.4693 435.9067 270.6886 434.0119 271.8836 433.4908 275.4687 431.9276 276.7917 433.3013 278.0721 431.9276 280.3768 427.4748 281.5718 423.7325 280.1634 421.8851 282.0412 420.0376 281.5718 416.5796 283.1936 413.8321 282.212 409.5688 285.2848 405.8739 286.7359 403.5054 284.9434 403.6475 279.2244 403.6475 278.6696 403.6475 278.6269 402.4159 275.9808 398.5315 273.4628 399.5737 270.3899 393.605 267.5731 392.705 263.9027 394.4103 261.598 392.5155 259.9762 391.0944 251.8245 389.5312 249.1784 384.6994 247.0445 384.4625 246.8737 384.3678 246.9164 379.015 249.0077 379.536 253.8304 378.3991 253.7451 376.4096 258.2264 372.2884 260.8298 367.125 260.531 365.846 258.5678 361.7722 261.3419 356.5141 259.5494 350.6875 259.8055 343.4399 262.5796 340.1239 260.3176 334.6764 260.531 333.5868 258.9519 335.0553 257.8422 332.4973 257.1167 331.3604 261.1712 326.2444 260.7871 322.0285 265.6525 319.1863 265.7379 319.1389 268.6827 316.0598 270.3899 318.0968 276.4076 320.3232 277.816 318.3336 277.4746 318.5231 279.9073 317.4336 280.5475 314.7808 279.1391 314.0229 283.7057 306.0647 280.0353 302.5119 282.8095 300.4276 280.8462 300.2382 280.6755 299.7171 281.2303 299.0539 281.8705 M 641.3043 260.9151 640.3095 263.1344 639.4568 263.2625 639.1726 263.6466 640.0727 263.86 637.2304 266.5061 637.2778 266.8048 640.8306 269.1522 639.7411 270.4752 640.9727 272.0543 638.9831 273.4628 640.499 277.4746 639.2674 277.9441 640.6411 278.5416 639.7884 281.3157 640.9727 281.6998 639.3621 283.9191 640.3569 286.2238 638.841 286.3518 638.32 287.9309 637.562 287.2908 637.1831 288.9126 637.0883 289.254 635.6199 289.2967 632.3513 289.4247 630.646 289.4674 630.0775 288.6565 626.1458 287.3761 622.593 290.2783 618.235 288.059 616.3401 289.5954 616.2928 289.6381 608.1924 284.4313 608.0977 284.3886 606.0608 287.5895 609.7557 299.3689 610.7504 300.4786 613.3558 302.143 614.7769 305.0025 624.3457 309.0144 622.7825 311.4471 626.6195 315.0321 623.7773 314.3919 623.1615 318.1477 626.1458 322.0741 624.7721 325.0617 628.5617 329.5856 628.3248 329.9271 626.9985 331.8476 621.0298 332.1037 619.8929 330.8233 619.9877 330.6953 620.7929 329.2442 619.6087 328.604 618.9929 328.3053 616.0085 329.3723 614.4927 326.8542 614.7769 326.6408 616.198 325.7445 616.1033 325.2751 616.0085 324.8056 615.8191 323.824 615.2033 323.3545 610.4189 319.8122 608.9504 318.7025 608.7609 318.5745 608.903 318.5745 610.4189 318.5745 611.6031 315.5443 609.5188 313.5383 607.4345 315.0748 608.2398 313.1542 606.8661 312.6421 605.1608 307.606 603.2659 307.4352 598.0552 301.5029 595.592 301.5455 596.5394 300.0091 592.8445 295.1864 593.555 294.1194 595.1182 295.9973 595.0235 293.8633 591.4707 290.7051 591.1865 288.315 588.7706 290.2356 587.0653 284.6447 581.5703 283.535 581.523 283.535 580.5756 280.5901 578.2544 280.3768 576.5017 280.206 576.5017 283.1082 574.749 284.0898 574.6543 284.1325 574.1806 282.5534 567.454 284.0898 562.338 294.5462 560.7274 293.5646 557.8852 294.3755 555.3272 298.7287 547.7006 297.7898 545.7584 296.0399 545.5215 297.491 542.3477 296.9789 540.5477 298.8994 533.8211 298.0885 532.7789 302.3991 528.6104 301.2041 526.4313 302.8259 525.8629 303.2527 525.626 301.8443 523.6838 299.4543 521.0785 300.82 520.1311 301.3321 517.4783 300.6066 516.9099 300.5639 520.0837 297.491 519.5626 293.1805 522.4996 290.9611 521.6943 288.9552 509.2359 289.9369 499.4303 287.1627 494.4564 287.4615 467.029 273.036 457.7444 271.2861 453.86 267.8718 460.3024 260.7871 466.271 260.8298 471.0554 263.0064 472.0976 261.0432 477.3083 259.8055 480.9558 261.3846 483.3717 260.9151 485.5981 256.007 489.5772 256.8179 489.6246 256.8606 489.6246 256.7753 490.3352 256.3485 M 409.5688 285.2848 410.9425 287.12 410.6583 288.6992 406.0634 291.4733 407.3898 293.3512 409.8057 292.7963 410.1846 295.229 413.8795 294.7169 415.0638 299.8384 413.7848 304.1916 413.9742 304.4477 419.6113 314.1785 419.6587 314.3066 415.869 316.3978 416.2006 318.7879 411.6531 318.1477 411.2741 317.038 409.4267 319.1293 406.5371 318.5745 402.179 315.1601 402.8422 312.6421 402.937 312.386 402.7948 312.1726 401.8948 310.8496 401.8001 310.8496 399.7631 310.7642 399.7158 310.7642 400.6158 317.8062 395.7367 326.086 397.5367 330.5246 390.3838 333.6402 389.6259 332.7012 385.031 338.2922 384.9836 338.2922 386.7363 339.8713 389.3891 338.3775 393.8419 342.7735 395.784 341.9199 403.5054 343.1149 403.2212 355.7052 400.9474 357.327 400.9474 358.522 399.8105 358.3513 399.2894 357.9672 396.8262 357.8818 392.3734 357.199 389.7206 354.8943 385.2678 353.742 382.8993 348.9619 378.7307 352.7603 367.0303 355.2784 368.9725 358.5647 365.5618 360.1438 364.4249 362.4912 365.4671 364.0703 359.8774 365.7774 363.7144 371.2404 362.8143 373.0329 366.5566 371.3684 369.1619 371.8379 367.5513 375.5083 368.8777 377.9836 374.0884 380.8431 375.178 383.5319 372.1463 385.8366 373.6147 390.0191 373.4253 392.8786 371.0094 391.3422 369.6356 392.025 369.8725 390.4032 369.4462 390.2752 362.8143 391.5556 359.83 385.4525 356.6562 386.3487 353.6719 385.0683 348.4611 385.7939 346.3768 384.5562 344.0557 386.9035 343.2504 385.6232 338.4186 386.2634 336.9028 384.6416 334.9606 384.7696 332.8289 381.0565 334.4395 380.0322 332.7342 379.2213 331.171 379.392 326.1497 379.9895 323.6865 378.1544 322.5022 375.0815 320.8916 375.3802 318.5231 373.5877 315.4914 374.8681 312.2228 374.1852 311.7965 379.3494 309.049 382.1662 307.2963 382.2089 306.491 379.9895 302.8909 377.4715 296.6854 381.7821 294.9801 380.0322 296.1643 376.7459 294.6485 372.2646 293.7958 370.4295 291.4747 369.7039 293.2274 366.4176 292.9431 361.2961 291.3325 361.0827 290.4325 358.6927 288.5377 360.1865 281.0058 356.0039 281.0058 355.9186 280.8637 353.0164 285.1744 346.1878 277.3109 342.4747 276.7899 342.2186 276.6951 342.176 277.4057 337.8227 280.39 334.8352 282.9006 334.323 284.4638 329.9698 286.3113 329.6283 286.785 325.8299 288.8693 324.0374 288.3956 322.0741 295.1222 325.5738 300.3803 322.5009 304.9278 323.7386 305.591 320.1109 307.0121 320.6231 307.8174 317.7209 311.7018 315.5443 313.1702 316.1418 315.3019 313.6237 314.3545 309.1851 307.6753 309.5692 308.8122 307.9474 306.0173 305.9842 305.8279 299.0275 303.6014 290.9611 304.2646 288.8272 297.4433 286.6506 297.4907 286.3091 297.1117 286.1384 M 443.1543 258.013 453.86 267.8718 M 516.9099 300.5639 516.7678 300.7346 516.152 303.21 518.331 303.6368 518.2363 303.9356 518.1889 304.1063 517.9994 304.7465 516.3888 304.9599 515.9151 306.9231 507.2937 307.3499 507.0095 307.3926 505.8726 309.3985 505.7779 309.5265 505.6831 309.4412 504.1199 308.2888 503.5041 307.862 502.8409 308.0754 500.6145 311.1056 499.904 312.3433 499.9987 312.8555 501.6093 314.6907 500.2829 316.6112 501.4672 319.8122 504.4989 321.434 505.5884 321.4766 509.1885 317.5502 509.2359 317.5502 514.5414 316.7393 514.6361 314.8187 514.7309 314.7334 516.1993 313.7091 516.5783 313.453 518.1889 314.6053 519.0889 312.4714 520.0363 312.4714 520.6521 312.4714 521.0311 312.4714 521.268 312.9408 521.9311 314.2639 522.1206 314.648 520.2258 318.1904 524.1575 316.5685 524.4418 319.0866 527.8051 320.3243 528.1366 320.4097 526.1945 325.147 524.0154 324.9763 523.4944 327.7504 526.0997 332.4025 527.9945 332.6585 528.0419 333.7682 530.742 333.256 527.9945 337.78 530.9315 337.4813 532.6368 339.1457 533.2526 340.8529 530.6946 344.9074 530.0315 344.9074 528.4209 346.956 523.9681 344.822 523.826 343.2856 520.889 342.6881 516.6257 346.6999 505.541 349.3033 501.2777 348.4924 495.1196 349.4741 494.8827 349.5167 489.8141 345.6756 477.1188 349.9435 466.4605 350.413 465.8447 350.4557 464.2815 349.0046 461.5814 349.0473 463.3341 344.4379 462.8604 343.2856 460.7761 338.0788 460.7287 338.0788 455.7075 336.9264 454.9969 333.0426 449.0756 328.2626 447.3229 325.147 448.3177 322.1168 450.4494 321.3486 451.681 308.6729 451.6336 308.6303 442.9649 304.7465 439.1279 305.0452 435.054 300.5212 434.3908 300.6493 430.8854 301.1187 430.7907 301.1187 430.7907 301.1614 427.6169 310.4655 421.0798 313.9225 419.3745 312.5994 419.6113 314.1785 M 615.2033 323.3545 615.2506 323.4399 614.5401 323.4825 613.9716 323.0131 607.7187 323.952 605.2555 322.0741 604.4976 323.0131 599.3342 321.0498 598.3868 322.2875 597.771 321.3913 594.7393 322.2022 592.1339 320.5377 591.4234 322.5863 589.197 322.4156 587.8706 320.8364 591.9918 317.1234 589.8601 312.9835 585.2179 310.3374 583.9862 311.1056 585.881 312.0446 585.7863 314.1358 584.2231 314.0078 583.323 311.9165 581.7598 316.1844 579.2018 315.8857 578.4439 317.3368 573.6595 314.9467 573.8016 316.91 572.2384 317.8062 573.0911 318.7025 569.0646 317.4221 568.0224 318.4464 568.5909 320.2389 567.833 318.2757 565.796 318.3611 564.0907 316.2698 562.0064 320.7511 564.3276 324.5068 561.5801 325.5311 562.6222 328.1346 558.7852 328.2199 558.6905 324.2934 556.4167 323.5679 557.9799 326.2994 554.7114 328.0065 553.8587 332.061 556.2746 334.1096 554.0482 337.9507 553.1008 337.5666 554.1429 334.4511 551.1112 337.3959 548.5532 333.6402 548.3638 337.2252 547.2742 337.5666 548.4111 339.6152 546.3742 340.3408 547.8427 340.5968 547.5111 342.9442 545.7584 343.2002 545.9953 341.8772 543.2951 342.432 542.5846 339.8286 539.9319 343.2002 541.874 344.9074 540.1213 346.4865 542.632 344.3526 543.4846 346.5719 548.3638 348.1083 547.5585 356.26 539.4582 354.2541 539.5055 352.1202 531.0736 352.2909 524.2997 359.0768 520.7469 360.2718 516.8151 365.1373 506.7726 367.4419 506.3937 370.5148 502.6514 370.7709 502.4619 371.027 501.8935 371.7098 500.2355 373.8011 499.904 375.0815 499.7618 375.5936 499.7145 375.807 501.5619 378.069 497.5828 379.9042 497.5828 379.8615 497.6302 379.136 491.7563 371.155 484.6981 367.0578 483.1822 363.8996 479.5821 362.3631 474.2766 362.5765 471.6239 360.5279 469.6817 356.0466 465.1815 353.3578 465.8447 350.4557 M 276.7899 342.2186 275.2266 341.7918 270.9159 340.6822 269.7791 345.7183 266.7 345.633 264.8052 347.3828 268.2632 353.9127 267.1263 356.6868 269.3527 358.8634 268.4053 359.8024 269.0685 362.9606 272.0528 363.6435 270.8686 365.2226 271.3423 371.4537 267.9316 376.7886 262.1524 380.5017 260.2576 386.7755 260.7313 389.7204 258.7418 388.4827 253.7205 390.4032 249.5519 389.763 249.5993 390.8727 246.7571 389.2082 247.1834 392.3665 245.0044 393.3054 246.7097 394.7565 246.4255 396.2076 244.3886 397.3172 245.5728 398.811 244.057 401.8839 241.7832 401.7132 238.7515 405.853 238.1831 407.6882 240.599 409.9502 240.1726 411.572 238.2778 410.4197 237.5673 408.5845 236.5725 407.5175 236.1935 408.0723 235.9567 410.6758 236.1461 412.4683 235.7672 412.3829 234.0619 411.9988 231.3144 406.792 232.5934 404.658 232.3565 404.3166 229.609 401.4571 227.9037 402.7801 225.9142 401.329 225.9615 401.329 226.8142 400.5608 225.2983 399.2805 226.0089 397.4453 223.4035 397.616 221.1298 394.4151 217.3875 395.6954 215.2558 401.2437 215.2085 401.4144 211.7978 402.7801 211.5136 406.7493 211.0873 407.1334 209.8083 408.3711 209.1451 409.0539 209.0977 409.0539 203.3659 408.7979 201.7553 410.249 201.9922 410.8038 203.7922 415.1144 206.1134 416.5655 204.7396 420.3212 205.8292 422.5405 203.7922 427.79 199.0078 430.8202 201.1869 436.7099 196.7341 439.3987 198.0604 440.295 197.1604 441.618 197.113 441.6607 197.0183 441.6607 194.8866 442.3863 194.1761 441.1486 193.8918 440.7644 193.7024 441.1059 193.0865 440.9778 192.2813 440.8498 190.4338 436.9233 185.5073 437.0087 188.918 434.3626 189.1074 430.9483 191.097 427.5766 192.6602 427.6193 191.997 425.528 191.7602 425.4854 188.6337 425.7414 187.2126 425.0159 183.044 423.01 180.0597 425.1439 178.0228 422.1564 175.9859 422.7539 174.1858 420.3212 173.7121 413.0231 171.2488 412.8951 170.3014 410.6758 169.2119 411.1025 166.0381 407.7736 165.9434 405.4262 163.8591 404.8287 165.6118 401.4571 160.4484 399.7499 161.6327 397.4026 155.0956 396.6344 154.0534 391.7263 150.2638 391.3422 152.6323 387.7998 149.648 385.1537 153.7218 383.4465 156.5167 378.7945 155.2851 378.3251 155.2377 378.2824 155.9956 374.4413 154.764 372.7341 154.6692 372.6061 159.7852 370.1307 158.8378 366.4176 158.7905 366.4176 158.9326 366.2042 158.8852 365.9908 159.1694 365.8628 163.0538 364.0276 166.3697 358.9915 172.1962 359.1622 174.0911 357.9672 175.8438 353.3152 174.47 353.0164 173.57 349.8155 175.2753 343.7978 174.9437 338.4629 M 637.0883 289.254 639.8358 288.2297 640.3569 290.2356 645.1413 289.6808 645.9939 290.4917 646.1834 290.6624 648.5993 288.5284 651.1573 290.7051 651.631 291.1319 651.7258 290.4917 652.4837 290.1929 655.6101 290.6624 656.1786 289.1686 663.8052 293.778 666.5527 292.9244 669.9159 294.034 672.7108 292.3269 676.4057 294.5462 683.7007 292.3696 691.5642 293.9487 695.9222 298.1312 699.2855 297.9178 706.2963 293.2231 706.2963 293.0951 706.4858 292.9671 707.2911 293.5219 693.6011 302.4418 692.2274 300.9054 693.6485 302.9966 682.5638 307.606 674.3688 313.2396 666.8369 324.3788 661.2472 330.1832 658.1207 337.6947 653.4311 342.176 653.0521 339.4445 649.3099 338.847 646.8466 334.5791 639.9305 331.5916 641.0201 329.8417 638.0357 330.0124 636.7094 332.4451 634.7672 331.3782 631.8302 332.1891 630.8828 330.1832 630.8355 330.1405 630.7881 330.1832 628.6564 330.3539 628.3248 329.9271 M 653.0521 339.4445 653.4311 342.5174 658.4523 340.3408 655.4206 342.9015 644.8571 344.694 634.483 349.9009 612.1716 356.6015 589.6233 361.5095 562.6222 370.3868 519.9416 390.83 496.3038 406.7493 491.3773 399.6646 496.4933 394.8845 497.5828 379.9042 M 193.0865 440.9778 192.755 442.5996 191.2865 441.6607 190.0075 443.1118 188.6811 448.5747 187.9706 445.6299 186.1231 448.1052 184.6546 447.5931 184.1809 445.2457 180.6282 446.3554 179.1123 445.2457 177.3596 447.337 175.6069 446.8249 175.8911 445.1177 172.8121 442.9411 170.7278 443.5813 169.9225 442.0875 168.5014 443.8373 166.5592 443.1972 164.3801 444.947 164.3801 447.5077 164.0959 447.337 163.8591 446.6968 163.1959 446.7822 162.959 446.8249 162.6274 446.9102 162.8643 447.7211 162.8643 448.0199 161.9643 447.4224 161.6327 447.1663 161.5853 444.1361 160.2116 444.1788 157.9378 441.4046 156.8483 442.3863 156.1851 440.2523 156.043 440.5084 155.4272 441.9595 148.7953 441.4046 144.9583 444.3068 141.2161 443.752 138.6107 445.5018 134.8685 443.6239 133.5895 446.27 127.1471 443.7947 125.5365 445.9286 121.7469 444.7336 118.3836 448.532 117.0099 447.4224 114.8308 449.3002 111.0412 449.0869 111.7991 451.9463 108.7674 452.4585 107.9148 452.0744 107.9148 451.6476 105.2147 450.8367 104.9304 450.7513 104.8831 450.7087 104.7409 450.9221 103.5567 452.0317 102.9882 451.0074 102.7988 450.4953 103.983 449.7697 103.7462 449.1295 104.6462 448.1906 103.1777 446.8249 104.3146 447.5077 105.3568 446.142 104.0304 445.3738 104.5988 442.8984 102.1356 441.4473 103.083 440.0389 101.6619 438.1184 101.7092 433.2103 104.6936 425.5707 106.3989 425.2293 104.362 422.9673 100.4776 421.7296 100.2408 420.1078 101.0461 418.5714 104.4094 418.3153 105.7831 411.9561 103.4146 410.6758 97.4933 411.7427 94.4142 406.8773 95.1248 403.2069 93.7984 402.6094 94.0826 400.3048 90.9088 399.3658 89.5825 401.0303 84.7981 401.4571 84.8928 401.201 87.3087 396.677 87.4034 395.0126 86.2192 389.6777 88.6824 385.6659 86.8823 375.3802 86.835 375.1241 89.5351 364.4117 79.161 363.046 76.4609 358.3513 76.7925 355.3638 66.5605 350.9251 63.9078 349.7728 62.3919 348.1083 61.7761 347.4255 61.634 347.2548 62.2498 343.8831 60.6866 343.3283 60.9234 342.5174 64.6657 330.4819 64.7604 330.1832 67.271 330.6953 73.9029 323.3118 73.9503 323.2265 80.3452 330.0124 83.2822 330.6099 83.8033 333.8962 85.2244 334.9632 90.1983 329.543 97.588 335.0486 103.4146 336.2862 105.1199 339.0604 108.4832 338.8043 112.0833 336.5423 116.2046 340.2554 120.7995 351.5227 126.1997 358.4793 128.2366 354.9797 129.9419 355.2784 132.6894 351.6507 139.3686 348.7485 141.7371 349.9862 146.0952 349.5594 150.5007 352.9311 151.0217 351.8214 152.7744 353.2725 159.5484 354.3395 159.9747 354.4248 159.7379 354.7236 156.3746 358.8208 157.1325 365.3933 158.7905 366.4176 M 334.9606 384.7696 332.971 385.9219 334.629 394.6284 334.9606 395.3113 340.0766 398.3415 337.4712 401.4571 339.745 404.3166 335.1974 412.9377 335.908 416.0106 339.8871 417.7178 341.1187 415.2424 341.4977 417.0349 344.8136 418.5714 346.5663 422.4552 344.6715 427.79 345.4294 429.8813 340.1713 440.0389 342.4925 442.5996 341.2608 443.4959 341.3556 447.3797 347.2295 450.6233 344.861 452.4585 344.5768 454.8485 346.9926 460.2688 344.0083 460.4395 343.2504 458.775 339.8871 458.4762 338.1818 459.7139 337.9923 462.3173 340.9292 465.0488 336.9501 467.7803 336.287 468.2497 330.7446 465.3476 328.5656 468.6338 324.1602 469.1033 322.8812 467.2254 320.9863 467.4388 320.8916 467.3108 320.8442 467.3535 320.5126 466.9267 317.8125 463.8538 316.8178 464.75 315.9177 465.6036 315.7282 465.5609 313.4545 465.5183 314.0229 466.7133 309.9017 468.1644 309.6175 468.7192 310.9912 474.2675 312.365 473.7126 314.3071 476.4868 314.6861 478.2793 314.6861 478.45 314.7808 478.7914 313.7861 479.3463 313.644 479.3036 313.5018 479.3889 310.328 477.5964 310.8965 479.6023 307.8648 469.5301 304.7857 467.6522 307.4858 465.0488 303.5541 464.622 301.6119 460.2688 298.4381 457.3239 298.6749 454.9766 296.638 452.4158 297.6328 450.9647 295.2169 450.5379 295.359 447.8918 293.7011 446.5688 292.8958 449.2576 290.0535 450.7513 291.5694 455.2326 288.3008 456.4703 288.1587 460.2261 285.4113 459.9273 285.2218 456.5557 283.5164 457.2385 284.606 460.4395 282.569 462.36 281.9532 466.4145 277.5004 465.2195 276.8846 463.299 279.3005 464.1952 279.8689 462.8295 278.8742 458.7323 277.2162 459.7139 274.8477 457.6653 275.1793 455.8728 272.9055 455.6167 274.2792 457.4093 272.6686 457.3239 272.1476 459.4579 274.895 463.427 274.4213 466.6706 270.537 466.4999 271.2475 468.9326 272.8581 468.9753 272.1002 473.7126 270.2054 473.4139 269.3527 471.0239 266.321 469.2313 266.1789 467.5669 265.2789 467.1401 263.8578 466.6279 260.3997 467.4815 259.7839 465.689 257.368 465.5183 259.3576 461.6772 256.468 459.97 256.5154 454.5498 254.7153 454.8058 250.973 451.861 249.5519 452.6292 249.173 452.2878 248.7466 451.989 248.4624 451.7756 245.8571 459.0737 246.9939 460.7809 246.5202 461.7625 245.9992 462.8722 242.5885 464.4513 242.9201 469.3167 238.1831 473.1151 236.1461 473.0298 237.6146 469.0606 236.0514 466.1158 237.4725 457.9641 236.1461 457.3239 236.7146 455.318 235.2935 455.0619 238.7989 450.5806 240.7884 449.8124 241.3569 451.861 243.9149 451.1781 243.4412 448.9161 245.5728 446.4834 241.5937 445.2457 240.6937 446.8249 237.8515 445.8006 238.2304 448.532 234.8671 448.9161 233.0671 451.989 229.6564 450.0685 228.8511 455.7021 227.6195 456.1716 225.1089 453.3548 221.5561 457.2812 220.4192 462.1466 214.7348 459.8846 215.6348 456.5984 213.1242 455.4033 212.5557 452.1171 209.3346 449.8124 209.1451 445.5872 209.1451 445.3311 206.0186 447.5077 201.4237 446.6542 199.0078 447.5931 198.5341 445.1177 194.9814 442.4716 194.8866 442.3863 M 257.368 465.5183 255.9943 468.207 252.2994 467.951 253.3889 471.3226 255.4732 471.9201 256.0417 474.0114 255.8522 474.2675 255.1416 475.2918 254.4311 476.3161 254.7153 476.7002 257.5102 477.5537 257.747 472.4323 257.7944 472.4323 258.8365 472.5176 259.6892 472.603 259.6892 472.731 260.2576 475.2918 257.7944 475.2064 258.4102 477.5964 259.405 479.0902 262.863 479.6877 262.6735 479.8584 261.1577 481.2668 265.9421 484.3397 264.7578 488.4369 261.2998 489.9307 259.4997 488.3515 254.6206 491.6378 254.9522 493.1743 252.0626 492.7475 248.8888 494.2839 247.1834 498.6372 241.0727 497.3141 241.2148 498.2957 241.499 499.6188 241.4516 499.7468 239.4621 503.0758 238.6568 500.3443 234.9145 497.7836 232.1197 498.125 229.7038 495.9484 226.7195 498.1677 227.6195 499.5334 221.1771 506.3194 219.235 511.6116 213.8821 513.9163 214.2137 515.5807 211.7504 517.4586 211.7504 519.1658 213.6453 519.5072 213.4084 520.9156 215.019 521.6412 218.5718 520.2754 218.5718 521.7265 215.5401 523.6044 217.577 527.4455 219.9929 527.8723 223.1667 526.2932 224.0667 527.1468 218.856 535.1277 214.4032 538.9688 217.0085 541.0174 217.198 543.1514 219.5665 541.6576 220.4666 542.3832 219.1402 543.7916 221.6035 545.8402 221.9824 546.0109 219.0928 548.6996 218.9034 548.8704 214.5453 547.462 211.2294 548.2729 207.7713 551.6018 203.7922 551.5165 198.0131 548.8704 198.1552 543.3221 192.376 543.7062 191.7128 542.0417 189.5811 541.1028 187.26 540.0785 186.5968 539.7371 186.3126 539.9505 183.1388 542.3405 183.7546 544.9866 185.4126 545.4987 184.6546 548.1875 183.1862 548.7423 184.2283 551.175 182.0966 554.1626 168.0277 559.7108 164.9012 559.1987 166.1329 561.9301 164.8539 564.1921 166.1802 565.9846 164.238 567.7345 157.7009 562.613 159.122 558.8999 156.8483 557.4915 158.6483 555.699 160.4484 555.9124 159.7852 552.7115 162.2959 551.7299 160.3063 550.919 158.8378 547.8887 151.1165 545.6268 151.1165 545.5414 152.1112 544.005 153.8639 541.1028 154.385 540.2492 154.4798 540.1212 151.7797 538.8408 151.4954 540.6333 148.9848 537.8592 150.927 536.2801 150.6428 531.9695 150.6428 531.9268 146.8531 531.5427 144.4846 529.6648 144.6741 526.8053 144.532 526.8907 138.3265 531.2866 137.0475 535.2131 131.742 533.4206 131.6946 533.1645 131.1262 530.433 133.7316 529.9636 135.2474 525.1408 131.5525 522.4521 131.4104 521.4278 134.4421 519.9767 132.6421 517.4586 131.4104 517.3733 128.6629 517.2452 128.5682 517.2452 121.889 523.4764 118.6204 522.4521 115.9203 521.6412 115.7782 521.5558 115.6361 521.3851 112.1307 517.4586 111.4675 516.7758 110.9938 516.2209 111.2307 515.7088 110.0938 510.8861 103.3672 515.2393 101.9935 511.1848 100.0987 511.7823 98.1091 509.9471 99.7671 507.9839 98.0144 504.3562 92.9931 502.1795 92.9457 502.1369 92.7089 500.3443 92.6142 499.32 92.851 499.2774 98.4407 498.6372 98.4407 496.6739 101.804 495.6496 103.083 489.3758 101.9935 483.7849 102.0408 483.7422 104.1251 482.6752 104.0304 480.6693 104.5988 480.3706 109.5727 478.0659 113.1729 478.4927 111.4675 465.5609 107.4411 459.2018 109.4306 455.4033 107.82 455.19 107.9148 452.0744 M 137.0475 535.2131 128.4261 543.5355 130.463 545.8828 131.2209 550.6202 125.1575 555.8697 125.0154 555.9551 127.3366 557.3635 131.6946 555.7417 132.121 559.7108 130.0367 561.9728 125.8681 562.0155 124.826 567.2223 123.2154 568.46 124.8733 569.3563 121.4627 572.0024 122.0785 574.6485 127.005 576.2703 129.5156 579.3432 128.3314 581.093 125.1102 579.5139 124.7312 584.8914 126.8155 588.6899 125.7734 591.1226 124.4944 592.0188 122.9311 590.9092 122.6469 592.8724 119.8521 591.5067 120.2784 589.6715 116.4414 591.2506 115.0203 593.2565 116.5362 595.7746 116.0151 598.9328 113.6466 599.7437 107.7253 596.2867 104.1251 596.0307 104.8831 594.9637 102.8461 591.9335 98.7249 593.0005 98.2512 590.9092 94.13 590.8665 90.8141 588.9033 88.8719 591.3787 86.0771 591.2506 85.0823 589.6288 84.9875 589.6715 84.277 590.0129 81.9085 591.1653 81.9085 591.2506 82.0979 594.6649 81.9558 594.7076 78.0715 596.8416 78.3557 597.183 78.261 597.2257 78.0241 596.8416 75.6556 598.7621 70.5396 599.3169 68.3606 601.2375 55.9969 604.4811 55.9495 604.5238 53.2021 608.5356 43.7754 615.1082 43.1596 615.3216 42.4964 613.5291 41.7385 611.6512 41.6911 611.5658 40.0805 613.6998 37.5225 614.1692 36.7646 614.34 34.2539 619.248 34.0645 619.5895 30.8907 621.9795 25.2536 619.9309 23.8325 621.4673 14.5005 623.3452 12.4162 619.9736 8.4371 621.6807 7.1108 620.7418 4.6475 623.1745 2.4211 622.3636 2.1369 622.2356 2.0895 622.577 1.379 623.0038 1.0474 621.2113 1 621.0832 2.9422 618.053 1.6632 615.9191 2.4211 612.9742 2.4685 612.7608 8.295 613.7851 8.8635 607.7247 13.2689 601.8777 13.0321 592.1042 17.248 585.745 17.2954 580.5809 18.906 578.7457 16.4427 574.4351 19.5218 567.3504 18.8586 565.0457 23.9272 562.7837 28.2853 558.3878 36.7646 556.766 35.1066 554.7174 36.3382 553.437 48.2756 552.5408 50.7862 544.005 61.9656 534.6583 63.7183 530.0916 69.0711 528.4271 68.0763 527.0187 69.308 524.1165 74.5187 524.2019 76.224 521.5131 71.5344 517.672 67.1763 516.477 67.0816 512.7639 67.7921 512.3798 67.9816 512.2518 70.7291 514.6418 74.2818 514.5564 76.9346 510.6727 75.8451 508.6667 77.0767 507.4291 85.0349 504.0574 92.0931 504.7403 92.9931 502.1795 M 456.9865 183.5808 457.3181 182.7699 457.3654 182.6418 457.5549 183.4527 457.4128 183.4954 456.9865 183.5808 M 379.3466 216.2729 378.9676 216.7424 377.9254 217.4679 377.8781 218.1508 377.6886 221.5651 377.6886 221.6078 373.5674 219.8579 373.1884 219.8579 372.9516 219.7299 371.862 219.9433 368.783 220.4128 367.9777 220.5835 356.8457 227.3268 348.1769 229.5461 344.4346 226.9853 334.5343 226.7719 329.2288 230.0155 321.46 228.9486 314.6861 232.1068 314.3545 232.2348 311.7018 234.8809 311.086 243.118 305.591 253.1902 307.7227 255.4949 307.4858 257.2874 301.4224 263.86 296.2117 266.7622 290.6694 267.5304 290.1483 266.8902 290.0535 265.5245 291.2852 262.5369 289.9114 261.1712 289.7693 257.6288 293.2747 254.1292 294.1274 250.4588 295.8801 249.1357 295.2169 248.0261 298.9118 244.7825 300.7119 240.2158 297.4433 239.4049 297.7749 236.1613 295.0748 236.0759 294.9801 232.875 289.5798 232.3629 289.6272 229.5887 293.3695 230.2716 293.9379 228.9059 286.5008 226.3451 287.3534 222.7174 293.0379 218.8336 291.6168 215.2059 295.5959 208.548 287.164 209.615 278.6847 208.8041 276.0793 206.7128 273.3318 206.7555 270.3475 203.9813 271.7212 198.5184 271.9581 198.3477 276.553 200.7804 276.2688 197.9636 283.6586 196.043 289.7693 191.9885 291.0009 189.2998 305.212 190.4948 311.6544 187.4219 312.4597 185.8428 314.544 186.2696 316.5809 191.2203 321.839 193.8664 322.6917 193.0982 326.8129 184.8185 328.9919 183.1113 330.0341 183.154 340.7398 188.9157 340.5029 190.7935 341.8766 191.8178 341.3082 195.8723 345.0978 199.3293 361.4406 201.762 361.109 204.4508 363.4775 206.8835 363.1933 209.4443 367.9777 209.1882 374.0411 216.2302 379.3466 216.2729 382.2835 214.4377 383.5625 214.9925 385.8363 212.4318 385.9784 212.4318 390.7154 212.133 391.5681 212.0477 391.8049 212.0477 395.8788 209.1455 396.9683 205.6458 399.621 204.1094 396.3525 202.1035 399.0052 200.8231 400.2369 201.762 405.8265 195.5309 412.4584 194.6346 419.4218 198.0916 427.2853 195.1468 431.7381 197.8356 430.1749 193.8664 431.8802 186.8244 437.4699 186.6537 438.5121 183.9649 440.2648 183.9222 440.5016 184.0929 446.8966 188.6596 448.0809 188.2328 448.6967 187.5926 447.3229 184.4344 447.4177 184.3917 447.3703 184.3063 449.8336 183.6661 457.5549 184.5624 463.0499 187.678 464.8026 186.0135 464.2815 182.4284 467.2184 183.7515 467.029 186.739 468.7817 186.8244 469.7764 181.3615 465.7973 180.4225 463.9973 175.5144 460.3024 171.9294 468.0711 167.1067 472.1923 168.5151 475.1767 167.192 475.224 167.1494 475.982 167.3201 478.0189 167.7042 474.7977 163.735 474.703 156.4369 472.6187 152.1264 473.3766 149.0535 473.5187 149.0108 477.1188 147.4743 476.4557 146.1086 481.5716 148.1999 484.1296 146.0233 493.8879 145.5111 500.2829 137.8716 501.4198 133.2622 500.425 131.8111 498.2934 129.1224 492.5616 128.1834 492.6089 128.1834 497.2038 124.0436 499.0513 122.4218 499.146 122.3364 499.0987 122.3364 497.2986 121.6962 498.4355 120.0317 498.7197 119.5623 498.7197 119.6049 500.0934 119.6049 501.1356 117.6844 507.1042 117.8551 508.8569 124.6411 512.1729 127.6286 510.7518 128.4822 511.1781 129.5918 514.5887 131.5977 512.9782 133.6037 513.0255 134.2438 513.3097 136.5485 515.7256 136.1217 515.8677 136.4632 517.431 143.0357 517.431 143.1211 514.0677 145.6391 513.7361 147.6024 508.1464 146.2366 507.1042 147.0049 509.378 150.0778 513.4992 151.6142 513.6413 154.2176 516.4362 154.9858 518.5678 158.1868 516.3414 164.1618 514.9677 162.8815 510.9412 167.064 509.4254 166.5092 509.2833 166.4665 509.1412 169.4113 509.0938 170.1796 509.0938 170.2222 511.2255 171.5453 512.6466 170.0089 520.8416 174.0634 523.8733 179.4409 525.1997 182.087 525.2471 182.087 M 710.1333 240.7706 711.886 241.1548 713.0703 238.0819 717.3336 235.5638 722.7338 237.1856 738.4134 236.1613 740.924 237.6551 740.7345 239.8317 742.8188 243.4167 707.8596 267.1036 704.8279 271.0301 703.0752 269.1949 703.8331 272.3104 702.5067 275.0846 699.2855 274.1456 700.9909 276.621 700.2803 283.1509 697.5328 285.1568 699.475 287.5041 700.9909 285.0288 701.9856 287.4188 705.3489 285.4982 707.0543 286.9493 708.2385 280.2914 709.6596 278.883 708.6175 272.3531 709.3754 273.2067 710.7018 277.9441 708.2385 286.2665 708.9964 287.5041 708.9964 285.1141 709.9438 285.797 709.0438 284.5593 710.0386 284.7727 710.6544 287.9309 706.249 291.772 706.2963 293.0951 M 388.868 453.1414 389.3891 453.184 389.2943 453.3121 389.1522 453.4828 389.0575 453.5681 389.0101 453.5255 388.868 453.1414 M 391.2839 452.3731 391.2365 452.6719 390.9996 452.3731 390.9523 452.2451 391.2839 452.3731 M 496.3038 406.7493 487.0192 414.1328 484.0823 418.8274 471.2923 426.467 457.8391 437.6489 448.9335 447.2943 442.9649 457.836 434.5329 452.3731 434.154 448.9161 435.5277 448.6174 435.7172 447.0809 430.7907 446.142 430.317 446.3554 429.8907 450.794 420.464 450.4526 422.3114 454.5924 424.3957 454.8485 424.3957 456.6837 428.8011 455.446 430.3644 457.7934 429.0854 459.5432 423.4483 459.1591 423.7799 460.4395 421.9324 462.8295 420.6534 464.4086 420.3219 464.8781 419.6113 464.1099 418.7113 463.1282 418.0955 462.4881 418.806 458.2628 417.527 458.1348 415.3953 460.3968 410.1372 461.4638 405.7318 465.6463 404.8318 469.1887 397.6789 464.9208 399.0526 468.4631 401.7053 470.7251 398.9105 471.8348 398.1052 474.5235 396.6367 475.9319 394.3629 474.0114 396.542 472.4749 396.1156 471.4933 393.3682 472.0055 393.1313 472.0482 394.9787 469.8288 394.3156 467.7803 389.8628 468.8899 391.3786 466.4572 389.1048 466.7986 390.4786 460.9516 388.7732 459.0311 389.6733 457.7934 388.3943 457.6227 393.4629 451.9463 392.0418 450.1538 393.6524 449.3429 390.5733 446.8249 391.047 444.3922 389.9101 443.2825 394.9787 441.5753 394.7419 439.9109 398.5315 433.7651 397.7262 431.3324 398.7684 428.6863 397.2052 425.0159 397.8683 422.3271 400.3316 420.3639 394.3156 419.2542 392.4681 417.5471 393.8892 415.6692 391.2839 414.2608 391.5207 412.0842 398.2473 410.249 395.7367 408.0723 394.5998 408.7552 394.5524 406.3652 391.7576 404.0605 393.4629 400.5181 392.9892 396.421 395.4998 395.1833 395.3103 392.5799 386.7837 390.1472 385.031 388.44 384.652 392.1957 381.9993 392.6652 382.0467 392.8359 383.373 393.0493 383.5151 393.092 383.6099 393.092 382.473 393.6895 378.3991 395.7808 378.1623 395.9088 377.1201 391.9823 375.8885 394.5858 375.3201 393.8602 375.178 394.2443 374.7516 393.1347 373.7569 391.897 373.4253 392.8786 M 398.1052 474.5235 398.0578 474.6516 398.1999 474.9503 399.2894 476.9989 399.7158 477.8525 398.8631 479.3463 398.6736 479.6023 398.4368 479.4743 397.3946 478.5354 397.3473 479.1329 397.2999 480.4986 397.2525 481.1388 392.1365 480.2852 394.5524 482.0777 393.8892 483.9556 389.6733 481.6083 392.8471 484.2117 391.5207 485.8762 389.9575 485.9615 386.8784 482.3765 386.0731 483.2301 386.4047 486.2176 390.2891 488.8637 388.2995 491.2964 385.8363 491.6378 387.6364 493.6864 385.4099 494.0705 384.5573 495.6923 380.3413 493.473 380.0571 494.9668 376.6464 496.2045 372.1463 494.1559 371.1041 495.2655 368.1198 495.0521 367.4092 496.8873 363.3828 495.5643 360.9195 496.9727 360.5405 499.0213 358.551 498.1677 354.4771 499.5334 347.5611 491.8512 343.2504 492.8328 338.0397 492.0646 336.0027 493.3023 331.5026 490.3148 328.5656 492.0646 323.7338 486.3883 322.9285 485.4067 322.6443 479.2609 320.1337 478.9195 319.4705 473.1578 319.0442 472.2616 318.2862 470.7251 316.0125 466.1158 315.7282 465.5609 M 492.5616 128.1834 483.8454 127.0738 480.0558 128.7383 477.5925 123.9155 477.1662 118.0685 473.4713 116.8308 470.487 118.0258 468.0237 116.5321 467.6448 119.0501 466.0342 119.7757 462.5288 118.3246 460.7761 119.861 455.518 120.7573 454.7601 119.6476 446.2334 118.5807 445.1439 121.0987 446.7071 122.7632 441.9701 124.3423 439.8384 118.4953 440.5963 116.7455 436.8067 112.2215 433.3013 113.2031 431.1697 109.7034 431.596 108.0389 431.5486 107.9963 429.3222 106.4598 428.8485 106.1184 422.643 105.777 419.8008 106.8866 415.3006 105.3928 417.1007 103.1309 411.6531 99.5885 411.8899 94.5097 413.4058 93.272 411.5584 91.9063 411.7478 89.5589 407.0582 86.7848 407.5792 85.5898 411.5584 84.9069 410.4688 81.9621 411.7478 78.7185 409.1425 80.639 408.2898 78.8038 409.3793 72.5727 411.8899 69.201 409.6162 67.7073 410.1372 64.0796 407.6266 63.0979 407.7214 57.1656 405.1634 50.3369 397.5367 52.5989 393.1313 56.0986 390.4312 55.5438 387.3521 58.1472 382.0467 59.8543 379.1571 59.0434 379.3939 60.8786 377.736 61.5615 378.0676 73.1702 378.0676 73.2556 378.1149 74.1091 374.1358 78.1636 373.52 78.1636 369.4935 78.121 364.8512 75.0481 360.8248 75.4749 358.172 73.5116 356.7035 76.2431 354.4298 75.2615 354.1456 76.4992 352.0139 76.5418 354.4771 80.0415 353.2929 83.4985 351.0191 83.8826 346.5189 81.3219 343.6767 85.3337 339.8871 87.6811 337.4712 82.8156 329.4183 82.3889 327.0971 85.163 323.4022 85.2057 325.2497 86.9128 320.7021 88.7907 320.4179 91.2661 318.7599 90.2845 318.4757 94.339 315.823 92.6745 308.528 99.2044 306.0647 103.2162 302.2277 102.7467 301.8014 101.1676 295.2169 98.9056 293.6537 95.1072 289.2956 98.0947 287.7324 97.4119 289.2482 94.6804 287.0692 91.5648 287.5429 89.6443 291.1431 86.486 289.2009 84.3948 284.7954 83.6692 285.4113 82.0047 282.4743 79.6574 283.0427 75.9443 284.606 74.2798 282.5217 72.4873 282.4743 72.1459 282.2374 69.6278 282.1901 69.3718 282.2374 69.3291 282.948 68.3475 283.6112 67.4512 283.6586 67.4512 288.6798 68.7743 289.1061 68.5182 291.2852 66.5123 291.2852 66.4696 285.7428 61.9029 285.5534 61.7322 291.2378 55.3304 291.4747 55.0316 294.0326 48.5017 294.3642 48.2457 294.8379 47.7762 296.9222 45.941 300.3329 44.4899 303.1751 43.2949 304.0752 42.9108 311.0386 43.7217 312.1281 42.484 315.9651 37.7466 316.2019 37.7039 317.0072 36.765 317.8125 37.3625 318.1915 37.2772 320.0389 36.765 319.66 35.0578 319.4705 34.2469 319.4705 34.2043 321.6022 32.7105 325.0128 30.2351 328.4709 31.1314 332.7816 28.2719 344.1504 26.5647 344.5768 23.1504 348.9822 17.8155 348.9822 13.761 340.1713 9.4078 339.8397 8.3835 339.745 7.9567 339.6502 7.786 342.4451 5.652 343.9609 6.0361 344.3399 6.1215 350.6402 7.5726 357.4141 12.7367 361.2511 13.1635 361.2511 19.48 363.2407 21.8274 368.5461 25.7111 375.5569 25.5831 380.9571 30.3205 399.0052 29.0401 399.1947 26.3513 406.3002 24.2174 405.0686 22.6809 405.6371 21.1018 412.8847 19.2666 425.1063 18.3277 430.0801 20.2482 440.9753 20.3336 442.1596 16.7059 448.8861 15.8523 449.8336 17.9862 452.3442 18.7118 458.0286 16.4071 458.7865 20.1629 459.2129 20.1202 462.2919 19.5227 463.9973 18.2423 463.4288 17.0473 467.7395 15.1268 468.3553 16.9193 478.3978 12.7794 478.7294 11.8405 480.2453 11.9685 482.8033 10.9442 482.4717 11.7978 483.2296 12.2673 483.6086 12.3099 483.6559 12.5233 483.7981 14.4866 481.5243 16.4498 485.0297 22.8516 483.7507 28.5706 486.2139 30.0644 485.7402 33.8202 489.1509 33.6068 489.0088 36.637 482.9928 39.2404 483.9402 41.5024 480.1979 49.6967 480.8137 51.1478 477.5925 53.922 477.4504 59.2142 471.7186 62.6712 471.6713 63.9515 473.8029 64.3356 476.882 60.8786 478.3505 60.5799 480.1505 60.2385 480.9558 60.0677 486.5929 61.3054 489.672 65.9148 494.1721 65.2319 494.5037 65.1892 495.4038 66.9391 496.067 67.8353 495.6406 66.1282 497.2986 65.5733 497.346 65.6587 498.1986 67.5792 501.7514 68.7316 502.7462 72.8288 504.9252 73.8957 505.0199 73.9384 504.3568 75.5602 504.262 75.7309 510.2307 80.639 511.6992 81.0658 514.8256 80.5963 523.2101 83.6266 521.3627 93.6134 518.331 98.1374 514.2572 98.8203 511.7939 96.4729 505.7779 100.9115 503.362 98.7349 499.904 106.3318 501.8461 109.4473 497.867 113.2885 498.9565 114.9103 498.7671 119.5196 498.7197 119.5623 M 504.9252 73.8957 509.7096 64.421 510.278 63.8235 510.5149 63.354 512.1729 61.9029 514.9203 59.4702 516.0099 58.4886 517.431 58.6593 521.6943 59.0861 521.6469 55.1597 521.6469 54.3914 522.168 54.3061 523.2575 54.178 525.7681 53.8366 527.1892 54.3914 538.1318 58.83 541.4003 60.1531 542.0161 60.6652 545.0952 63.4394 547.369 62.7138 552.1534 64.9331 559.3063 63.0553 559.5905 62.9699 562.8591 67.1525 562.7643 67.2805 563.1433 67.7073 M 651.7731 166.4238 651.4889 166.5519 650.8257 168.9846 653.3363 172.2708 652.6258 175.1303 M 748.7401 93.0159 749.7349 94.0402 758.83 99.6312 759.8248 102.448 758.4037 99.8873 758.2615 102.9175 757.0299 102.9175 756.3667 105.1368 752.6245 104.1552 751.8192 105.0514 750.8718 102.7894 749.1191 103.4723 748.8822 105.0941 751.535 107.3561 747.8875 108.2523 748.0769 110.1302 746.6085 109.49 747.7927 111.0691 746.8927 110.557 746.94 112.3922 744.6663 113.4592 741.5872 112.6483 741.5872 109.2766 738.8397 108.8498 740.3082 114.6969 742.2978 116.6601 742.3451 116.7455 739.7871 117.8978 739.5503 119.5623 737.6081 117.8551 735.7133 117.8551 734.2922 118.2392 734.1501 120.3305 734.1501 120.5866 737.087 121.1414 736.0449 124.1289 734.6238 122.8912 733.7237 123.8302 736.3291 127.4579 736.2344 127.5006 730.3604 130.0613 730.692 128.3541 729.6499 128.0981 729.9341 131.0002 725.1497 128.6956 723.776 130.0613 722.5917 125.9641 721.3127 125.9214 719.2284 122.5498 718.9442 124.6411 720.6969 125.9214 717.8073 128.7383 716.7652 127.1165 715.0598 127.6713 713.3071 126.3909 709.2807 126.5616 708.6648 127.842 701.4646 126.8177 695.3538 129.5065 694.0274 127.97 691.5642 130.4027 689.5272 130.0613 688.0588 136.2498 684.4586 138.213 680.8111 137.7435 673.9898 150.2485 673.895 150.3765 673.6108 150.6326 664.5157 158.2721 660.8682 161.345 658.3576 163.479 657.5997 164.1191 651.8205 166.5945 651.7731 166.4238 651.6784 165.9117 651.4889 164.9727 639.8832 156.4369 639.6463 158.8696 634.2935 163.8204 631.9723 169.4113 629.4617 170.649 625.3405 168.0029 622.7351 169.454 622.6404 171.4599 619.8455 170.393 618.8034 166.3811 616.577 165.3142 618.6139 163.5216 618.6139 160.278 621.0298 159.1257 620.6035 157.4185 622.7351 153.6201 626.1932 150.6753 621.7877 144.4441 605.7292 136.2498 607.3872 134.2012 606.9608 132.7501 610.9873 130.5735 615.2033 123.7875 614.2558 119.6049 615.677 115.5931 612.4084 115.4224 611.3663 112.2215 609.5188 115.5078 608.0977 115.1237 608.2872 111.3252 606.724 107.8682 600.4237 109.3193 596.5394 106.2891 591.8023 105.8196 588.2496 102.0212 580.0071 100.0153 579.3913 89.9857 577.1175 87.8518 577.8755 81.6206 571.8594 78.2063 570.6278 76.2004 566.3645 77.2247 566.3645 77.2674 565.275 76.3284 565.9381 74.664 561.5801 73.4689 560.68 70.8655 562.6222 67.8353 563.1433 67.7073 571.8121 65.5733 579.5808 60.1104 579.7229 60.0251 581.4282 61.2628 580.4335 62.7565 583.0388 63.0126 583.4652 64.7624 580.8124 65.5733 577.8755 64.6344 575.4596 67.9207 576.2649 71.0789 573.3753 73.7677 573.9911 75.859 576.3596 77.2247 580.765 77.0967 581.8072 78.4624 591.0918 77.3101 592.7497 78.5051 593.8866 73.9811 595.5446 72.1459 597.2499 72.53 605.8239 60.0251 604.166 57.8484 608.7135 50.3369 601.1816 42.8254 603.2659 41.8865 603.0765 40.222 606.8661 36.2955 610.4189 34.8018 606.6766 34.2896 608.4293 31.4301 604.3555 30.4912 607.8609 26.266 608.0977 23.8333 606.9608 19.4373 603.2659 18.3704 602.8396 18.2423 602.0343 17.4314 600.5185 15.8523 599.0974 14.4439 599.0026 14.3585 599.05 14.2732 599.7132 11.6698 602.6028 7.7433 608.3346 6.5909 609.0451 5.2252 607.7661 3.9022 610.6557 1 611.6031 1.4695 613.3558 2.2804 613.64 2.4084 620.1298 11.4564 620.1298 11.499 631.8302 13.2062 634.1987 15.895 639.8832 17.3034 641.7306 16.5778 646.894 24.8149 651.6784 29.5523 660.8682 33.7348 661.2472 35.0578 662.8104 35.1432 663.0946 32.2837 663.1894 32.3264 665.321 32.6251 669.5844 29.8083 669.6317 29.723 669.6791 29.8083 671.3844 32.3691 673.895 32.9239 674.5582 35.7834 675.4109 34.8444 677.2583 36.1248 680.8585 35.698 680.9059 35.8687 682.6112 38.8563 684.8376 38.2161 689.243 40.1366 689.7167 41.9292 690.3799 44.1912 690.9957 44.0204 692.4168 43.4656 692.5116 43.6363 692.6537 43.5936 694.359 46.0263 699.8066 46.7519 699.8066 46.7946 699.7592 46.9226 699.096 55.9706 708.6648 54.6048 709.8965 55.5011 709.6123 58.1045 711.1755 58.702 710.5123 59.5983 713.0703 59.769 714.3019 62.4151 730.9289 63.9515 734.5764 68.006 739.2187 70.2253 739.5503 77.0967 735.808 86.5287 736.0449 86.9128 740.3082 92.2477 740.5924 92.4611 740.7345 92.5465 748.5033 92.8025 748.7401 93.0159 748.4085 91.7782 747.4137 88.3212 748.1717 87.2116 749.7349 84.9923 753.5245 85.2057 756.651 83.6266 757.93 77.9929 757.9773 77.9076 760.1564 79.6574 761.2459 80.4683 763.1881 79.6147 766.8356 80.9378 767.404 79.9135 766.4092 82.5596 768.7304 85.1203 767.5461 87.0835 766.7882 88.0652 766.8356 88.2359 768.4462 91.5648 768.1146 94.339 770.9568 97.7533 770.1041 98.863 770.0567 98.9056 771.6673 100.2714 772.0463 100.6128 772.52 100.9969 774.5096 99.9726 776.1675 102.3626 779.4361 102.2346 779.7677 103.515 782.0414 102.5333 783.9836 105.3075 784.2678 105.7343 784.4573 106.0757 786.0205 104.5393 787.3469 105.8196 793.3156 105.5636 793.7893 108.8072 794.8788 109.2766 793.6945 110.0022 796.9631 110.2582 797.2947 116.5747 795.9683 120.8426 797.8157 121.3975 798.0052 121.7389 799 125.58 798.9053 127.2018 792.5103 129.9759 788.9101 134.6706 785.5468 131.0002 779.5308 130.5308 784.1257 132.366 787.1101 136.3351 782.5151 135.1401 764.4197 135.9083 754.8983 139.4934 746.7979 145.8952 744.382 145.5111 742.1083 149.8644 728.8446 159.1684 717.1441 178.0325 M 378.0676 73.2556 378.6834 73.2129 380.3413 73.3836 380.4361 73.1702 381.8572 70.6095 385.1731 70.268 389.7206 70.2253 394.1735 72.1886 392.9418 73.2129 392.6102 78.0783 390.4312 77.4381 391.7102 81.0231 385.8837 93.1866 385.931 97.1558 380.6255 105.1368 377.5465 105.9477 375.9833 101.8932 373.9937 100.6555 364.3302 103.0882 363.4775 104.838 358.0299 103.0455 354.4771 105.2221 350.3086 104.8807 347.7506 107.228 345.5715 103.3442 343.6767 103.0882 343.0135 104.9234 340.3134 103.9418 340.7871 107.1 338.9397 106.5452 336.9501 110.1729 335.3869 110.685 339.4134 114.0567 339.0818 129.037 338.5607 130.0613 329.6551 130.7015 327.2866 130.6588 325.0602 130.232 318.0494 128.8236 317.7652 128.7809 316.5809 132.366 307.6279 124.257 303.0804 114.6542 302.7962 114.4835 302.0382 114.0994 296.9222 111.5386 286.406 108.8498 286.2165 108.8072 286.0271 108.7645 283.327 110.7704 280.8163 117.9831 275.653 121.8669 275.6056 121.8669 266.6052 117.0869 268.4527 114.4835 272.1949 114.7822 276.1267 108.6364 274.2319 107.6975 274.9898 105.8196 273.2845 103.0455 275.3688 102.2346 276.3162 99.119 282.8059 101.5944 282.8059 101.5517 281.7637 98.0094 281.6216 97.4972 282.2374 96.8997 283.2796 96.3876 289.2956 98.0947 M 164.5223 194.5066 168.7382 197.7502 171.7699 203.4265 170.9646 209.615 172.4331 214.267 171.8173 218.8336 170.112 221.1383 170.5383 230.6557 172.4331 237.527 170.8225 241.1974 172.7173 241.6669 171.8647 247.5566 171.9594 247.5566 175.2279 248.4102 176.8385 251.5257 176.3175 253.489 178.2596 254.5986 176.5069 260.5737 174.0911 262.4943 173.4279 271.1581 170.5857 276.7917 170.9646 277.2612 171.6752 278.0721 172.2436 278.755 172.291 281.4011 172.291 281.4437 176.6491 287.0347 174.4227 290.0649 174.9437 290.1076 176.2227 290.2356 182.144 290.8331 186.3126 286.7359 187.8284 287.3334 187.4969 289.5954 184.5599 291.772 184.323 294.7596 187.3547 294.3755 187.6863 290.2783 190.3864 293.1805 192.5655 293.0097 191.8549 299.1128 190.5286 298.5153 190.2917 295.101 187.9232 295.6132 187.2126 298.5153 187.26 298.5153 189.1548 300.1798 189.5811 300.5639 191.7602 299.1982 191.8076 299.2409 193.0865 301.0761 192.5181 305.3867 193.7971 306.9231 191.9023 311.6178 188.0179 312.4714 187.9706 312.8982 187.8284 315.0321 187.7811 315.2028 188.3969 315.3309 188.6337 315.4589 187.4969 323.6959 184.1809 323.4825 179.8229 329.8417 177.8333 330.0978 178.4965 333.7682 176.3175 333.9389 176.2701 334.0243 176.1754 334.1523 174.8016 336.1582 174.849 337.2252 174.9437 338.4629 165.0907 336.3289 160.8274 338.2922 159.88 338.2922 153.106 334.8778 147.7532 334.8352 143.7741 332.2317 133.2579 329.5856 133.1631 321.0072 131.5999 318.0196 136.1948 310.2521 134.7263 305.3013 136.2422 304.6184 134.8211 302.3991 138.3265 298.6007 137.4265 296.0399 133.4 292.4122 136.1001 285.5836 135.5316 283.663 138.3265 280.1634 136.7159 278.7123 135.7685 274.1456 132.9263 277.0478 131.9789 269.3229 127.905 267.8718 124.447 263.4332 126.9102 260.9151 126.3892 258.141 130.2735 254.2145 129.2314 251.9525 129.9419 249.6479 127.2418 245.2519 126.6734 242.9473 126.5313 241.0694 127.2418 240.6853 125.8207 231.68 125.5365 227.8816 126.1997 223.2296 126.2471 222.7174 125.4418 222.5467 126.9102 220.5835 128.7103 220.8395 128.8524 223.1869 134.1579 223.2722 136.1001 228.3084 141.1687 228.8205 141.3582 228.6071 141.9266 227.9243 144.8162 224.3819 144.8636 218.0654 154.2903 213.072 163.3854 201.0792 161.0642 196.4698 163.5275 195.915 164.5223 194.5066 164.4275 194.4212 164.1907 194.2505 166.0855 192.1593 164.9486 190.7935 164.8065 190.6228 166.4644 189.1717 164.4275 187.1658 164.7591 185.8854 164.8065 185.8854 179.9176 184.2636 184.8915 187.4219 185.7442 185.7147 192.376 184.0502 192.6602 185.2453 195.7393 184.6904 196.4972 186.6963 199.1026 184.2636 203.7449 183.8795 205.0712 184.9465 204.5502 182.8126 207.2976 180.8066 207.3924 183.154 210.3293 182.1724 209.3346 183.8368 212.3189 184.0929 210.0451 186.3549 210.6136 187.806 213.9768 186.9524 222.0772 191.4764 229.088 192.2446 233.7303 187.934 237.0462 187.8914 239.9831 180.5932 240.9305 171.2892 244.7202 169.1553 247.3729 170.4356 248.3677 168.2163 245.6202 164.4179 245.6676 164.2472 245.5728 164.1618 247.515 157.5893 247.1361 156.6503 247.0887 156.565 247.4676 156.693 247.7519 156.7784 261.4893 161.0036 262.0577 160.8755 263.1946 161.2597 264.1894 160.278 264.8525 159.5952 265.3262 159.1684 263.8104 158.0161 264.0946 153.0653 260.7313 148.1145 258.2207 147.4317 256.1364 140.475 260.684 133.0488 260.305 127.5006 261.963 124.8971 269.9212 120.2878 270.9159 120.928 270.0159 124.4277 271.6265 126.2629 272.9055 126.3056 273.9003 123.318 275.8898 123.5314 275.9372 123.5741 275.6056 121.8669 M 316.5809 132.366 318.8073 135.9937 322.7864 137.2741 323.2128 138.1276 327.9498 148.7974 327.1919 150.3765 322.6443 151.913 327.1445 155.4126 326.1023 166.0824 326.055 166.2104 326.1971 166.5092 326.7655 167.6615 326.8603 167.8749 328.613 167.6615 328.3287 169.4113 328.4235 169.5821 331.0762 174.8743 329.513 179.2702 328.234 183.0686 328.9919 183.1113 M 440.2648 183.9222 440.3595 183.8795 439.791 180.6786 436.7593 178.8007 437.4699 176.368 441.1174 176.0693 442.0175 175.9839 442.1596 175.9412 443.628 173.0391 441.449 172.3562 442.3964 169.7955 435.9067 164.4179 432.5434 163.9058 428.9433 165.0154 430.0328 166.3385 427.38 166.7652 425.3431 170.0515 422.9746 169.8381 421.743 171.7587 416.9112 173.4659 417.1007 163.9484 414.4479 157.2478 414.1163 157.1625 410.5636 156.0955 408.053 156.9918 408.2898 158.4855 406.6318 157.76 407.0582 154.9858 404.5949 154.4737 403.3159 154.7724 395.5946 156.4369 394.505 150.974 394.4577 150.2058 397.2999 146.6634 396.3999 143.8039 401.1843 141.8834 401.279 141.8407 400.9 138.3837 402.9843 138.6825 404.6897 135.6523 407.3898 136.6766 408.5267 135.0547 408.4793 134.9694 406.9634 130.5308 409.7109 131.299 409.8057 130.104 412.9321 131.8111 414.0216 129.8052 417.5744 130.104 412.6005 126.8177 411.7005 124.4277 408.574 124.513 406.4897 122.4218 408.6688 116.7455 413.1216 117.1722 413.9269 117.2576 413.9742 117.2576 417.1954 114.142 425.3905 114.7822 426.5747 111.5386 425.6273 109.4047 427.6169 108.8925 429.3222 106.4598"/>
</g>
</svg>