<?xml version="1.0"?>
<svg xmlns="http://www.w3.org/2000/svg" version="1.2" baseProfile="tiny" width="800" height="700" viewBox="0 0 800 700" stroke-linecap="round" stroke-linejoin="round">
<g id="PY" fill="none" stroke="black" stroke-width="1">
<path d="M 489.5391 582.9063 490.0678 582.7566 490.8036 583.1559 490.8036 583.1808 489.723 584.6032 489.5391 582.9063 M 492.229 582.5819 490.9875 582.5071 491.5623 581.983 492.229 582.5819 M 503.4027 581.2593 503.4487 580.2113 504.5063 580.2113 503.1958 585.8759 500.3909 586.2502 499.6782 585.1272 498.4136 587.0737 493.4705 585.2021 494.804 582.9313 496.1145 583.056 495.3788 579.812 496.3674 579.1133 496.5973 579.1881 499.8391 581.2843 500.023 581.4091 500.161 581.5089 500.7587 580.8601 501.2645 580.4858 503.4027 581.2593 M 486.6422 579.3878 488.5504 582.4072 485.6306 581.6586 485.6765 580.386 486.3663 579.3129 486.6422 579.3878 M 491.8152 576.9672 491.4473 577.067 491.8612 575.6696 491.8152 576.9672 M 485.5386 575.1206 487.5388 576.2436 486.964 577.9654 483.3314 577.7907 483.5154 575.9441 480.3886 577.3665 480.0897 574.3969 481.1473 575.0957 481.1703 575.0957 481.2392 575.0208 482.8946 573.6483 483.3544 573.8979 484.2051 574.372 485.5386 575.1206 M 490.1138 566.1122 486.6192 566.0872 487.4698 564.2656 489.8149 563.8663 490.1138 566.1122 M 490.2058 574.347 488.8723 574.6714 488.8493 573.3738 491.3783 572.9995 491.4703 570.1298 494.1143 570.1547 492.6888 570.8035 493.2406 573.4986 495.3098 573.5485 496.7123 571.7518 493.9763 568.9819 494.3902 567.1103 493.0567 566.5114 493.2406 568.5078 491.5623 566.9357 491.4243 564.8645 493.7005 564.4402 493.3786 562.2193 498.4596 560.1232 499.0344 561.8949 496.8502 563.2674 495.0339 562.3191 494.6891 563.3423 497.1721 564.7646 497.8389 570.0549 499.2413 569.0318 498.9654 567.2601 501.8853 565.3635 504.2764 566.1371 505.173 563.2424 508.4608 565.8377 504.5983 579.8619 504.5523 579.7371 504.6442 578.8388 504.1384 578.6142 501.6324 577.5911 501.6094 577.5911 501.5864 577.5911 501.4945 577.7159 500.046 579.4626 499.9311 579.4377 499.7931 578.165 499.4712 575.2204 499.4482 575.0957 499.4023 575.2204 498.0228 578.4645 497.8619 578.4645 497.8159 578.4645 496.5973 576.543 496.5514 576.568 496.5514 576.543 494.4132 576.8175 494.1833 577.6909 494.0683 577.7658 493.9763 577.641 493.1027 573.7481 493.1027 573.6733 493.0797 573.6733 492.9877 573.6733 492.0451 573.6733 490.1138 574.0476 490.2058 574.347 M 502.713 557.9522 502.9889 557.6277 504.3454 558.027 502.8969 558.2766 502.713 557.9522 M 482.5268 560.4476 483.4234 556.954 486.2053 558.0021 484.573 562.6685 485.8605 564.4901 485.1937 567.4347 486.9181 566.736 488.4815 568.6824 487.6768 570.554 485.8835 571.5023 484.1361 572.176 483.9062 572.1511 483.3544 570.8285 482.8946 569.7056 482.3658 568.383 482.3658 568.0835 483.5154 567.0854 482.1819 561.87 483.2395 560.6722 482.5268 560.4476 M 492.4819 556.8791 492.252 559.3246 494.2292 561.5456 490.2058 561.6204 489.677 562.5936 488.8493 561.2211 486.8721 561.6204 487.3779 559.1999 488.6654 559.4993 491.2634 556.5298 492.4819 556.8791 M 508.4608 559.0751 509.5414 554.5334 512.3693 555.6314 510.415 559.8237 508.4608 559.0751 M 503.1038 572.9496 501.5634 572.1261 500.7587 572.2259 500.069 572.3258 500.5978 574.0725 500.9197 575.1456 501.4025 576.7676 501.7244 576.1687 502.713 574.2223 503.3108 573.0744 503.1038 572.9496 M 504.6213 692.53 504.3913 692.4302 504.8282 692.3304 504.6213 692.53 M 496.5514 687.5641 496.5973 687.6639 496.5054 687.614 496.5054 687.5891 496.5514 687.5641 M 494.4822 685.8672 494.2982 685.7924 494.4592 685.6926 494.4822 685.8672 M 494.804 686.1667 495.3788 686.017 494.758 685.1186 495.7697 683.8709 496.2295 683.297 494.2522 683.8959 494.1833 681.9744 497.1721 682.2489 497.379 683.3968 499.4023 682.9476 499.4482 682.9476 498.4366 680.6269 498.1148 679.9032 497.586 678.6804 497.448 678.6305 497.425 678.2063 498.1377 677.9568 498.6436 677.9318 502.0462 678.5806 503.4257 680.3274 505.4719 677.832 508.9896 678.7802 509.7483 679.7784 509.6563 698.519 507.3342 698.5689 506.9893 695.9487 504.6213 695.25 504.5753 694.1021 506.6215 694.152 505.0121 692.3304 506.8514 691.8812 506.9434 691.8562 502.552 690.6335 501.7703 691.3821 503.1498 689.7102 502.4371 689.0364 498.5516 691.0078 499.2643 688.3377 496.9422 687.4893 496.9422 687.1399 494.85 686.6159 494.804 686.1667 M 1.7357 595.1588 2.2185 595.2586 2.8163 596.0821 1.4138 595.6829 1.7357 595.1588 M 4.4027 593.3621 2.1725 593.6366 1.5288 594.9342 1 592.863 2.7703 591.3658 1.5518 589.0201 2.3335 588.5709 4.4027 593.3621 M 784.4006 3.3956 786.6767 3.6951 788.9529 1 789.4357 1.0749 789.6886 1.2495 788.0792 3.8947 794.2178 5.1923 796.5629 4.6184 798.4252 2.073 799 5.5417 793.873 8.3864 790.6082 5.8411 785.918 5.2921 784.9754 4.6184 784.4006 3.3956"/>
</g>
</svg>