<?xml version="1.0"?>
<svg xmlns="http://www.w3.org/2000/svg" version="1.2" baseProfile="tiny" width="800" height="650" viewBox="0 0 800 650" stroke-linecap="round" stroke-linejoin="round">
<g id="RJ" fill="none" stroke="black" stroke-width="1">
<path d="M 438.1967 23.1205 438.1967 23.026 451.8092 23.7823 451.8801 23.7823 459.0054 24.1604 458.9345 24.3179 457.4456 27.3115 460.4943 27.9417 462.0541 30.8092 460.0689 33.4561 457.233 34.1493 455.1769 35.8194 454.2552 39.6006 454.3616 40.7665 454.716 42.1215 459.6081 42.5627 462.1959 41.1762 463.4366 41.8379 464.4646 40.1363 467.0879 41.4913 464.2874 50.3458 464.8191 51.7008 463.9329 52.8352 463.3302 58.5386 467.6905 61.5636 467.5842 62.3829 465.7053 64.3051 464.2165 68.1494 460.2816 67.7082 460.0335 68.3069 459.8562 71.2374 462.5504 71.6155 463.6138 74.5145 465.8826 76.6573 465.5281 80.0604 470.5619 79.5563 470.8809 76.0271 476.4465 76.1846 478.2544 77.6341 480.3459 77.6026 482.6501 76.9724 485.6279 73.7268 488.3575 73.1281 496.3336 76.9094 496.4754 78.926 498.3896 80.7222 497.2553 82.4237 498.4251 84.3144 501.8282 85.2282 503.7425 83.8102 506.4721 83.8102 509.3789 89.104 512.7821 89.5452 513.2429 88.0011 516.7169 87.623 517.7804 86.9928 517.2487 86.2995 519.0211 85.4488 521.0063 88.4738 523.5941 88.8834 523.7005 86.2365 524.1967 87.0558 527.7417 87.1819 528.1316 84.9761 529.7977 84.8501 531.2512 83.4951 533.3427 84.0623 531.7475 88.4108 533.8035 89.3561 536.0723 86.6147 538.7664 86.142 538.9437 86.5831 539.0855 86.9928 539.3691 87.749 537.9865 90.0493 539.05 90.4275 539.5818 93.0428 538.8728 94.3663 536.5686 94.4608 536.3204 96.8872 535.6823 96.9817 535.6823 97.0132 536.0723 97.2653 538.3765 98.6518 538.8019 98.8723 538.2701 99.345 537.4548 104.1031 542.0632 104.5758 542.9849 106.2458 542.4177 109.0503 544.8637 108.5146 547.4515 109.0503 548.834 109.3339 549.3303 109.4599 549.8266 112.4219 549.8266 112.4535 549.7203 112.548 549.4721 112.8001 548.3377 114.7537 548.4086 115.0688 548.1605 115.1004 547.8769 115.6045 545.2891 115.7306 545.0055 116.5183 547.0261 119.2283 547.2034 123.5137 549.1885 124.8687 547.6642 129.5638 550.1102 132.7464 551.2446 132.4628 550.1102 133.5656 550.961 134.7946 551.1028 140.6241 552.8753 142.8613 552.9462 144.9095 558.4054 145.9494 558.4408 145.9809 559.4688 151.1801 562.482 152.22 562.872 152.346 562.6947 152.9447 562.8365 153.5119 562.8011 153.4804 562.2339 154.2682 557.0937 154.4573 556.7038 159.8141 555.1086 160.5388 557.4482 163.5639 553.5488 163.1227 553.4779 166.0532 549.933 165.6436 549.933 166.6519 548.515 166.9355 548.4441 169.0467 547.4161 170.0236 543.3394 169.7085 542.0632 167.2191 539.5818 167.5342 539.9363 169.5824 536.6395 169.929 536.4977 169.8345 532.0665 167.3136 531.8184 164.7298 529.1242 161.7362 528.1671 161.9883 527.0681 159.562 525.6502 159.6565 524.4803 158.4276 522.9915 159.1208 523.1687 160.6649 521.6444 161.6102 522.3888 164.7298 519.3402 166.0532 515.1217 165.9272 516.8233 169.2988 515.3699 171.1579 516.1143 172.2608 515.3699 173.8049 513.1011 174.372 510.7969 176.4833 508.8472 176.2312 506.0112 177.4601 506.3303 179.8864 504.2742 181.714 504.2388 181.9661 504.2033 182.2182 504.1324 182.5963 502.9626 183.0375 502.5018 182.5648 496.9717 183.7622 495.5537 182.7854 491.6897 183.4156 489.1019 188.4573 486.1596 190.474 483.2173 190.1274 482.402 193.1524 484.3871 194.9486 484.0681 197.879 483.111 198.3832 483.0401 200.3369 480.1332 201.6288 482.402 204.7799 485.6279 205.9143 486.7622 207.5844 486.266 208.9078 483.1819 210.2313 481.5866 209.6326 477.9354 210.4833 477.4036 211.8383 478.4317 211.7753 477.4391 212.1849 478.0417 213.4454 480.7004 213.4769 481.9057 215.6196 483.4655 215.1154 485.4506 218.6761 482.6147 221.0394 478.538 221.7957 477.6872 222.7725 477.1555 225.8921 477.3682 225.9236 478.1481 225.6085 479.2824 226.4908 478.9988 229.1692 478.1126 229.9255 476.2338 229.8624 474.7095 229.7994 469.5693 232.0052 468.0804 232.5093 466.0244 229.8309 467.9741 228.3184 467.7969 228.1924 466.3434 227.1525 460.707 231.1859 458.9345 230.1145 456.0986 230.8708 455.7795 229.0117 448.4061 228.8856 447.768 227.9088 444.8611 229.4213 442.0606 229.5788 441.5643 231.4065 439.1892 232.4778 439.5437 233.6122 436.3533 234.6521 434.12 236.8263 434.5099 240.324 433.2338 240.9227 432.8438 243.7587 428.838 246.122 428.4481 247.729 430.0788 248.7374 429.6534 253.0859 424.8323 253.7161 424.3005 253.1489 424.1942 252.2981 423.946 250.3759 421.89 249.7457 421.2519 248.3908 418.5223 248.0126 413.7721 242.8134 410.3335 245.6178 407.143 245.0821 402.7828 246.9728 401.1876 245.9959 399.7696 242.5928 399.8405 242.5613 399.9468 242.5298 400.6204 240.6391 399.6987 238.78 401.5775 236.7318 398.1744 231.501 399.4151 231.1859 398.9188 229.0432 399.9114 228.0663 398.6706 224.7577 399.0606 220.6613 400.7976 219.5899 404.0589 220.3777 410.4044 217.7938 411.4679 219.842 413.9848 221.7012 410.2626 220.8189 410.298 222.8986 413.3467 222.2999 410.8652 224.7262 412.8504 225.8606 414.3038 225.1358 414.6937 226.0496 417.1043 225.0728 418.9831 221.26 421.9254 218.9912 427.0301 219.2433 431.674 217.1951 432.1703 215.5881 430.9295 211.8383 431.284 209.412 432.4539 209.1914 433.9427 206.6075 432.2766 203.8976 433.3401 203.2989 432.8084 200.715 438.0194 196.5871 436.3533 192.3016 438.0903 189.7493 437.8422 187.449 442.0606 185.6214 443.6559 181.9661 440.2882 177.5231 436.4596 177.082 433.6591 178.2164 430.256 174.9392 429.1925 175.2543 428.7317 174.5296 430.2915 173.0801 429.0507 170.5277 424.7259 171.6621 424.5841 169.9605 422.6344 169.1413 416.7144 170.4647 413.6303 166.4313 413.8075 163.9105 418.3096 162.1459 416.4662 159.9401 416.998 155.6232 416.0408 152.8187 420.9683 147.4619 418.3096 139.7733 428.5899 136.181 426.9238 133.7232 423.7333 133.6917 424.8323 131.675 425.7185 131.1393 425.6476 130.0995 425.683 130.068 426.5338 128.4924 427.3137 128.0198 427.81 127.7362 428.838 127.1059 431.4613 126.8539 431.5676 126.8224 431.674 126.8224 433.4464 126.8224 433.9073 128.0513 434.1909 128.1143 435.5025 128.3034 443.9395 123.1671 445.6056 121.1504 449.186 120.2366 450.8166 125.3413 454.397 126.5703 458.6864 125.6249 460.317 126.4442 464.0038 125.3098 465.2091 126.9169 468.4704 126.8224 468.7894 124.6481 474.0005 124.9317 476.5174 123.3877 479.1052 123.1041 479.4951 125.4044 481.1967 125.94 483.6427 125.1208 483.3946 122.852 480.8422 121.371 480.6295 119.89 482.012 117.6842 483.9972 116.2347 489.2083 114.8798 492.9659 115.3524 492.6114 116.4553 495.0219 119.6064 496.6172 119.5434 497.078 118.2829 501.4737 118.0309 502.1473 116.1087 505.1959 115.384 506.0112 119.2913 504.5933 120.6147 504.4515 123.3247 513.0657 120.9929 515.3344 121.2134 517.3905 123.6713 518.6312 122.4424 519.1275 121.8121 519.2338 121.8437 522.0698 122.6629 521.8571 122.0327 524.3385 120.3311 524.055 116.0457 527.0327 116.0457 528.557 117.2746 529.1597 114.3756 529.8686 114.2496 528.3798 112.5795 528.6988 111.3506 532.2792 111.4451 534.4062 112.8001 534.4062 114.5647 534.1935 114.6277 532.3146 115.2894 532.3146 115.3209 532.2792 115.4155 532.1728 117.0225 534.0162 117.5267 535.2215 117.5267 536.0014 116.991 536.2141 115.4155 538.1638 115.1634 538.4474 112.5165 540.7516 109.8381 540.7516 109.8066 542.8785 111.2245 543.0558 113.9345 545.0055 116.5183 M 562.8365 153.5119 565.6725 155.9383 569.1111 156.6 568.7566 158.0495 573.5422 159.436 573.5422 161.2321 571.5571 162.9967 572.4787 164.2571 573.0105 164.1311 576.3073 163.4063 579.675 165.2339 581.1993 165.5175 583.0072 165.2339 583.3262 165.2024 583.7162 166.841 585.3469 166.841 586.6585 170.0551 588.6791 170.3072 588.9272 172.1033 590.2743 171.6936 591.515 173.9939 595.1309 175.6325 594.2092 179.0987 597.825 180.6112 597.0451 182.6279 599.2784 182.9745 600.8028 186.4407 601.1573 187.2599 601.37 187.7641 600.0938 187.7641 598.6758 187.7641 599.1721 185.6214 595.6272 185.3693 594.2801 186.9763 593.4293 186.6927 592.6494 189.4657 590.6288 189.2766 587.8283 190.8837 587.1902 192.6168 591.2669 193.2155 591.6923 194.6019 590.487 195.9884 591.3378 196.335 593.4648 195.2637 594.8473 192.8058 596.4779 193.8772 595.06 195.7048 593.5002 195.3267 594.3155 195.8309 594.2446 197.8475 592.2949 197.1228 592.1886 197.1543 590.4516 198.3517 590.1325 199.171 592.3658 199.9903 591.8341 201.0931 589.7426 200.6205 589.6362 202.1015 592.7203 202.7002 591.1251 203.7716 590.2743 206.7336 587.9347 205.5362 586.623 206.9541 586.6585 207.1117 586.5876 206.9857 586.4103 207.1117 584.4961 208.2461 584.4606 209.1284 583.5389 208.4982 571.6989 215.9662 566.5942 222.3629 567.3031 223.5603 567.2322 223.7178 564.2899 229.7994 562.5529 229.957 562.0212 228.7911 562.482 226.4278 560.3905 226.0181 558.1218 227.6252 555.7821 226.8689 555.5694 227.6252 553.6197 227.9088 550.9964 226.7744 548.5504 228.602 545.0764 228.3814 544.1193 230.7447 540.8934 233.1711 537.8093 231.2174 536.0014 232.982 536.2141 229.5158 535.0442 228.3499 531.5348 228.0978 531.1094 226.9635 527.8126 226.1442 525.4729 221.7642 528.1316 221.1025 527.9544 216.88 523.7714 217.5102 524.0904 214.5797 522.7788 211.5862 521.0063 211.3026 520.3682 208.8133 519.3402 208.1831 519.482 204.4018 516.9651 204.3387 514.9799 198.1311 513.491 198.2887 511.5768 196.0199 510.726 194.0978 512.2503 192.4907 511.7186 190.1274 513.5619 189.5917 513.4556 188.2053 509.9461 185.8735 506.7202 186.1255 506.6848 185.3063 509.4853 183.6047 509.3435 183.5102 509.308 183.4471 508.4572 182.8484 506.0821 183.2581 504.4515 182.1552 504.2033 182.2182 M 586.6585 207.1117 587.0484 208.12 591.6214 209.3174 590.5225 210.2628 591.3378 211.2711 590.168 214.0125 591.5859 214.9894 597.116 215.5881 598.2504 214.3907 599.562 214.8003 599.6684 214.9894 599.5266 215.0524 599.952 215.3675 600.9091 216.7855 600.9091 217.1636 600.5546 217.9829 599.6684 218.5186 598.8176 221.7012 597.4351 221.5751 595.379 226.0812 591.8341 228.5705 590.7706 232.0682 588.8563 233.5492 589.459 234.9042 587.332 235.1878 587.722 237.7086 589.3526 236.9839 589.7426 237.7086 587.5447 239.5993 588.4309 240.3555 587.1548 246.2795 591.3023 246.3741 591.4796 248.8949 588.5018 248.6113 585.3114 250.4389 582.6173 250.2814 580.9866 253.5585 582.1919 255.3546 581.412 256.2054 578.9305 255.134 577.0517 256.3315 575.7401 255.0395 574.2512 257.3083 572.7269 256.8671 572.4787 255.2601 569.1465 255.134 567.3386 257.1192 567.5867 258.6002 563.0138 258.4427 561.9148 261.3732 558.9725 261.0581 558.0863 263.1693 556.4556 264.0831 553.7615 263.894 554.5768 262.0034 553.1234 260.6169 549.7557 260.932 545.0764 265.7847 543.4812 265.9422 542.0278 264.9024 536.3204 265.2175 537.5611 266.0998 537.2776 270.6373 531.6411 272.2759 531.5348 272.465 531.003 273.4103 530.3295 274.6392 530.5776 278.3575 530.6131 278.389 528.9824 278.7356 528.947 279.996 527.6353 280.4057 526.2174 279.6494 519.8365 279.996 519.4465 278.8931 517.4614 278.7986 517.9931 277.2861 513.5265 276.3093 512.4985 275.2064 512.9239 272.2129 508.2445 271.8347 509.7689 269.3139 511.0096 269.3139 514.0228 265.9422 516.0789 266.1628 516.8942 263.8625 516.6106 262.6336 511.6477 260.9635 512.3921 257.1822 508.989 256.3945 506.0821 257.1507 505.125 259.2304 497.1489 259.6716 496.4754 260.7114 492.7532 261.3732 492.7886 262.7912 491.0516 263.2953 489.8818 260.995 491.0871 260.1127 490.5908 257.6549 488.0739 257.1822 490.5199 254.0942 489.2083 250.5965 483.8909 250.5965 483.5364 247.2249 481.2322 246.5631 479.7078 247.1618 479.2824 245.9959 477.5454 246.6577 476.6237 245.9014 476.4465 242.4667 480.3459 240.0719 480.275 238.6224 479.8496 237.5826 478.538 238.3388 477.5454 236.1331 475.2058 237.2675 474.7804 234.9357 475.9148 233.4232 473.0079 230.6502 476.2338 229.8624 M 599.6684 214.9894 600.5192 214.7058 600.8382 213.2878 603.9578 214.1386 605.0567 215.21 604.7731 216.5649 606.7228 216.9746 608.7789 218.8337 610.8704 216.817 612.501 217.2581 613.21 215.7456 611.7212 215.1469 611.9693 214.7058 610.3741 213.3823 611.0476 210.3573 608.0344 209.3805 609.7005 203.74 607.609 203.0153 607.29 200.8411 608.8143 198.6668 610.6222 199.2025 612.4301 197.4064 610.5513 197.8475 609.0979 195.6733 614.3799 196.1144 614.8053 194.7595 616.4714 194.4759 619.4137 196.146 619.3073 198.2572 621.7179 199.2025 623.7739 197.879 624.9792 194.4129 620.1227 191.7345 620.1581 191.7345 620.1227 191.7345 620.8316 190.7891 623.3131 191.2933 625.4401 189.2766 621.8951 187.1339 619.7682 187.0709 620.4062 186.1571 618.2438 185.5899 618.2793 185.5584 619.3073 184.3294 621.0443 184.4555 622.2496 184.8966 624.1284 185.2432 625.2628 185.9995 625.1565 187.575 626.5035 188.1422 628.276 187.9532 629.0559 187.449 630.8638 187.6696 633.4871 187.386 635.3659 186.8818 635.4722 187.1654 635.7558 187.9217 635.9331 188.5204 636.3584 188.7409 637.4219 188.8355 637.2447 189.2136 638.3436 189.8123 638.0955 191.5769 634.8696 190.7261 633.4162 192.5222 638.3082 195.1691 637.2092 195.8309 634.6569 195.2952 634.0542 196.7762 637.9182 196.6816 639.088 197.9106 640.8251 196.9652 642.1367 197.5009 641.6758 202.9208 642.0303 203.5825 642.8457 203.6455 644.2991 202.9838 646.2134 200.8095 653.445 199.3601 652.1689 197.4694 652.4524 192.4907 655.182 192.6483 657.7698 189.0245 660.2867 189.6232 661.9883 187.6696 664.9306 187.1339 665.4624 185.8735 664.7179 183.8883 666.5258 183.2896 666.1713 181.462 668.2274 181.6195 669.9644 180.5166 670.2126 180.5481 672.1977 180.8317 672.0205 181.9346 675.1046 182.4073 673.8284 183.9513 677.4088 186.7243 679.1103 187.0078 678.8622 187.7011 680.8828 188.0477 677.3024 201.1877 677.9405 202.1645 677.3733 207.6474 679.1812 208.0255 679.0749 210.0737 677.9051 210.0107 678.3305 214.8948 677.7278 216.1238 675.7427 215.8717 675.3882 217.3842 676.2035 218.3925 673.7929 224.9153 673.9702 226.2387 676.6998 227.8773 674.2538 228.0663 673.8993 228.0978 675.0337 229.1062 674.3247 229.894 675.7427 231.9421 677.4797 231.8476 678.3659 230.2721 678.4014 230.2406 681.0601 231.7216 681.5918 232.0367 681.6272 232.0367 681.769 233.1396 682.0526 235.1562 678.5432 235.4083 680.5638 235.9125 677.6215 236.6372 678.685 238.2128 678.0823 239.0636 680.0675 239.1266 679.7484 240.6391 678.6141 240.6076 679.9257 242.0571 681.0601 241.3008 683.1516 242.9709 685.1367 242.5928 685.3849 241.805 683.3288 240.7336 683.5061 239.6308 688.1145 240.45 688.1145 240.4816 687.7954 241.5844 686.4484 241.3323 689.6742 242.6243 689.6388 242.6873 688.9298 243.5696 687.051 243.223 686.8738 244.767 685.5267 244.5149 685.2076 245.6178 688.2563 247.4139 688.9653 250.8486 687.8663 251.5733 686.732 251.0061 687.9727 249.5882 686.5547 248.8634 685.1367 250.4705 680.5283 249.3991 680.5638 248.2017 677.8342 247.0988 677.0543 244.4519 674.8919 244.0738 675.1755 243.4121 676.6643 243.7587 676.8416 242.5928 674.2538 242.6243 672.6231 245.2082 674.112 246.7837 675.53 246.059 676.5934 246.6262 675.0337 249.2731 678.4368 250.7856 679.9611 253.3379 680.1738 253.3379 682.5489 252.5187 684.4277 253.4955 684.3214 255.4176 686.5547 254.9135 685.9875 256.0794 688.788 256.7411 689.0362 256.7411 689.9933 255.5752 694.1054 258.6633 695.417 259.1359 696.126 259.325 701.0889 258.6317 701.1244 258.6633 701.1953 258.6633 702.5424 259.325 702.5424 259.4825 702.5069 259.9552 702.5069 260.4279 702.1524 260.6169 698.3593 262.6651 696.7996 262.3185 694.4599 268.085 691.8367 268.7467 690.5605 270.2907 687.9727 269.7865 687.2991 271.2045 691.5176 273.3157 690.8795 275.0803 692.7229 275.8681 692.2266 276.7189 688.4335 277.0655 685.9875 276.4353 685.7394 275.3639 680.5992 274.8913 679.5003 277.0025 679.8902 278.3575 679.6421 278.4205 676.877 279.0507 673.8993 276.7819 674.0765 275.5215 675.3882 275.0488 673.9702 270.3852 673.2967 271.3936 671.4887 270.5113 670.6025 272.4019 669.1845 272.591 669.929 274.1035 669.6099 275.0173 669.0427 276.6559 667.7666 276.6244 667.5184 279.4288 667.9438 280.7208 668.9364 280.5947 667.9793 284.5966 666.3131 284.1239 665.4624 282.1072 666.384 280.2481 664.7534 278.7986 663.938 281.2249 658.1598 281.7606 654.5794 281.0674 653.126 283.0841 650.5027 283.0526 649.1911 281.6661 649.6874 280.2166 648.8012 279.87 651.389 276.5298 645.788 275.3954 642.9875 275.8051 642.3848 280.059 641.6404 279.5549 639.1589 281.0989 636.9965 281.1304 634.0542 284.5651 632.0336 283.4307 631.3246 279.7754 630.4384 279.6809 628.8077 280.2166 628.2405 284.2815 627.3898 284.0609 624.6602 286.4872 618.2084 285.5734 618.1729 285.5734 618.2793 277.8533 616.9677 275.1119 616.755 274.7022 616.1878 275.3324 614.8761 276.6559 613.1037 278.515 610.6577 281.0359 609.4524 280.7523 608.4244 279.7439 608.7789 274.7652 606.1911 275.0488 606.6519 271.7717 605.6239 271.4566 604.5249 273.6939 603.6387 273.7884 604.7376 271.1415 603.2842 270.1962 605.1276 265.9737 605.7302 266.0368 606.3329 263.1693 607.9635 263.3583 608.6371 260.6484 610.6577 258.5057 610.1968 257.4343 612.1111 254.7244 613.0328 254.8189 613.1037 250.7541 615.4788 251.3528 612.0757 250.1554 614.2735 248.3592 614.5926 245.6808 613.3518 244.83 614.0254 243.8532 611.3667 242.9394 612.0048 241.5844 610.2677 235.6604 611.3312 234.6836 613.5291 235.0617 614.947 234.2739 615.2306 231.8161 614.0254 230.8078 615.2661 230.6187 614.4862 229.2637 615.7269 228.6335 614.2026 222.8671 616.1523 222.1423 617.1095 220.4092 616.6841 218.9282 618.7756 218.7707 615.8687 216.8485 616.5423 215.8402 614.309 214.4222 613.3873 215.8087 613.21 215.7456 M 618.2084 285.5734 618.1729 285.8885 618.1375 287.0229 617.9602 287.1805 616.365 288.5039 615.9751 288.8505 615.0888 289.5753 614.4508 290.1425 613.4582 292.3482 612.9619 295.1842 612.9264 295.5308 615.2661 296.2871 613.919 296.4446 614.2735 298.2092 612.4656 299.7217 614.2026 301.0452 614.3444 302.5577 616.4005 302.9988 614.5217 305.5512 616.4005 306.4965 615.2661 308.4502 615.8687 309.2695 614.4508 309.7106 613.2455 308.7338 611.2249 309.4901 610.3386 312.389 608.9561 313.4289 610.2323 313.8701 609.736 314.8469 610.6931 315.2565 609.1688 316.0758 611.7921 316.7375 609.9487 317.6513 608.9916 319.8256 608.2117 319.542 608.6725 317.3362 607.9635 317.0526 605.8011 319.1954 609.3461 326.6004 607.9281 327.4827 606.9 330.0981 606.7228 334.8877 606.6519 334.8562 605.9075 334.6356 601.9017 333.3122 600.3419 334.7932 599.2075 334.3205 598.4986 336.0221 594.9891 334.9192 593.5356 336.8414 590.168 336.1796 589.1399 338.1018 586.1622 336.0221 575.8819 334.9507 574.0031 334.0999 574.9247 333.0601 574.2158 332.2408 572.0179 332.934 571.7698 334.0369 572.6914 334.6671 570.8835 335.2343 572.0179 339.3937 569.7491 339.6458 569.1465 341.631 567.9058 339.8664 566.2751 341.694 561.1704 339.9294 560.5678 342.0406 557.6964 342.2927 553.5842 341.5365 553.8324 339.0156 551.7409 338.0073 549.1885 340.1185 547.3806 338.4484 543.1621 337.188 541.2479 338.4169 538.9791 337.2825 539.1209 338.3539 535.1506 337.8497 532.2437 334.8247 531.712 331.264 528.238 331.6421 527.8126 331.0119 524.7639 332.7765 524.7639 334.0054 520.2619 335.2343 520.0137 338.543 518.4894 338.2278 517.4259 340.15 517.1778 340.1815 517.1423 340.1815 516.5397 340.213 516.5397 339.2047 515.1217 339.5513 515.1926 339.2677 515.618 336.8099 515.4762 336.7153 512.1794 334.6986 512.6048 332.0517 510.6197 331.39 508.6345 332.745 507.4647 331.8312 509.2371 327.01 507.4292 325.4975 507.7837 322.7561 503.7425 321.9368 502.8917 319.5735 499.8431 320.96 499.205 320.5188 499.0277 320.3613 498.6378 320.1092 498.6378 316.7375 496.6526 316.4854 496.6526 315.6347 496.7944 315.6662 501.8991 315.7607 502.6436 313.8701 500.3393 312.6411 496.2627 314.1536 496.2627 311.4122 495.0574 310.2778 494.1357 306.339 494.1003 306.1499 496.1209 305.5827 497.6806 305.0155 497.7515 303.5976 499.6658 301.3288 499.6658 301.2973 499.7722 301.3288 501.0129 301.4233 502.8562 300.9507 502.8208 296.3186 516.5397 297.516 516.327 293.9553 520.1201 293.6717 520.191 290.6782 523.7005 290.174 525.0121 288.5984 521.8216 286.6763 521.7507 284.1239 531.9247 283.0526 534.9379 283.8403 534.867 281.8236 534.7252 281.7921 534.2998 281.6346 533.1654 281.288 532.7046 279.5549 532.7046 279.4603 532.6337 279.3658 532.3855 279.1452 531.712 278.4205 530.9321 278.515 530.6131 278.389 M 251.5205 247.4769 251.4141 248.2017 252.3358 249.4306 253.4702 249.8402 258.8585 244.4834 262.0844 246.5946 262.6161 243.2545 264.6367 241.4899 266.0547 241.7735 269.2451 239.7883 269.9896 237.9292 274.8107 238.1183 279.7381 235.0932 280.6598 236.1331 283.8857 236.2276 285.5518 237.5826 285.8354 239.3787 288.9904 242.6873 292.1099 236.4482 294.1306 237.8977 295.4776 241.4584 298.6326 243.7272 299.7316 242.3722 299.058 240.1034 304.5172 238.3073 306.0415 240.8597 305.4389 243.16 303.2765 244.3889 303.7019 248.0126 304.4463 248.8949 308.7711 248.1387 307.0341 250.9431 306.9278 251.1007 310.1182 250.502 310.7563 253.7161 314.124 250.691 315.0457 254.8189 318.4134 256.7411 323.2699 253.1489 326.9566 252.4556 327.5947 252.5817 329.828 253.3064 331.6714 255.008 332.4513 263.3268 332.4867 263.3268 332.3804 263.5159 330.1825 268.085 328.0201 269.6605 329.509 271.2045 330.7497 275.9942 330.8915 278.578 329.19 280.7523 332.8412 286.8654 330.1116 289.5753 331.2106 292.3482 330.0407 294.2704 331.2815 296.7597 334.2592 298.2407 335.7126 297.516 336.9534 301.959 338.6549 302.3056 338.7967 303.377 341.9517 304.0387 345.3194 303.9757 346.7019 302.9043 349.7151 304.6689 352.4093 303.1879 353.8627 303.3455 356.6632 302.4317 357.5849 301.8014 358.5775 301.8014 359.57 301.8014 360.3499 301.8014 360.9171 302.9358 361.2007 302.8728 365.561 301.5809 365.8446 301.833 368.716 304.3853 374.1752 303.7866 376.1958 306.0239 377.4365 305.5827 377.9328 309.0174 379.9888 308.9229 380.4851 311.6643 381.9386 313.4604 379.4217 317.3047 379.8471 319.2584 381.4068 320.4243 380.1661 323.1657 382.2576 323.922 383.8528 327.4827 383.8528 330.1296 385.6607 333.2807 389.9501 333.5643 391.3326 335.707 394.4167 336.4317 396.0474 339.1101 397.9262 339.8979 398.2453 341.9776 398.6706 342.4818 399.3442 343.2696 396.9691 345.2863 396.5791 347.7441 397.359 348.1852 393.9204 349.9183 393.4596 353.9832 391.6162 353.353 393.0697 353.9517 393.885 356.252 393.6368 358.2687 391.6871 361.0101 393.2824 364.0666 391.4035 367.4383 391.4035 368.7302 393.9204 372.1964 392.8924 373.8665 388.603 374.024 386.6888 372.1964 384.5618 373.6774 383.3211 376.2928 379.8116 375.9147 378.9608 374.1816 379.6344 371.5032 377.2947 369.0769 374.8487 370.936 372.4027 370.5894 372.7572 372.0389 370.9493 372.8897 367.5461 373.1732 367.9715 376.6709 366.3409 376.2613 365.3128 374.5597 362.3351 374.6227 359.3928 370.4633 357.3722 371.0305 356.7695 367.6589 355.8833 367.8479 354.2881 368.3521 354.359 369.8016 353.9336 370.0537 351.204 371.7553 351.913 374.3391 353.2246 375.1269 352.8347 376.6079 350.1051 377.3642 348.8998 378.9712 349.2897 381.2715 348.2262 380.9879 348.2617 379.4754 343.4406 377.3012 342.9443 376.3243 343.6887 375.9147 342.7316 375.9777 341.9517 374.6858 340.5337 375.7256 337.7332 374.7488 337.8396 375.9777 336.3862 377.3642 337.0597 379.1603 335.0036 379.3494 332.6285 378.0574 330.6788 379.6014 324.9715 380.9249 324.1561 385.4309 322.5255 386.5023 319.9022 386.3762 319.5832 387.6997 317.7753 388.2669 317.8816 389.5273 316.4991 391.2919 308.7711 392.3318 307.9912 391.7961 306.5733 391.8906 306.1479 392.1112 305.7579 393.2771 305.6516 394.4115 305.2971 394.569 305.2971 394.6321 302.9574 395.6089 300.3342 392.7729 297.8527 393.088 297.8173 391.607 295.4776 389.4643 294.6623 389.0547 292.9962 388.2039 291.1174 387.2585 289.5221 386.4393 285.8 384.5486 285.2682 381.9332 292.4644 378.8137 291.6137 377.3327 292.0745 376.4189 290.7629 375.8832 292.9253 371.6607 291.1174 366.556 292.1454 365.4216 287.0052 361.4197 283.6021 357.0713 283.4958 356.9452 279.3127 358.2057 276.8313 356.189 275.3779 356.8192 274.1726 355.3067 271.053 354.9285 267.1536 357.1343 268.1462 358.6153 266.9055 360.758 263.5023 361.8294 260.5246 360.0018 253.8601 364.3187 248.6845 360.9471 246.912 358.1111 243.8988 356.6301 244.1115 355.0231 241.6655 353.29 242.1973 352.6283 239.6095 353.3845 238.6878 353.0379 237.4471 352.0926 235.3556 350.4225 M 254.7109 241.2378 255.9162 241.7105 254.5691 244.4519 251.8041 244.83 251.5559 247.1303 M 681.5918 232.0367 683.577 224.5056 684.6404 224.9783 685.3849 223.7178 686.8738 223.4343 689.0007 225.4509 691.3404 224.4111 690.4896 221.8272 689.0007 222.3314 688.6817 221.3861 685.9875 220.6613 687.6891 216.8485 690.3478 217.4787 693.4319 220.0311 694.7435 219.3694 695.8424 220.9764 697.8985 219.9051 698.0403 218.0774 698.0757 217.2266 698.1112 217.2266 700.8053 217.8884 698.9265 219.5269 699.6355 220.0311 701.6207 218.8022 700.9471 217.8884 701.9397 216.5334 701.9752 216.6594 702.7196 218.6131 704.7048 219.0228 705.3783 219.9996 705.8391 219.842 707.9661 217.4157 709.2777 218.8337 711.7592 219.842 711.5465 223.0561 712.4682 224.6001 712.5745 224.8207 711.0856 225.514 711.192 226.8689 714.5597 227.5622 715.5877 232.2888 712.3618 236.3221 713.957 237.7401 714.8433 237.2044 716.1195 237.9607 714.2052 239.6938 714.2761 241.5214 715.2687 242.1201 714.4533 243.6011 718.7427 244.8615 719.9834 246.2795 720.0543 248.1702 723.3511 249.9978 721.8268 253.1174 723.3511 254.2833 723.5284 255.9848 726.5061 257.1822 729.6256 257.1822 731.6817 259.4825 733.1351 259.7031 733.3478 260.8375 736.1483 262.1294 740.1187 260.9005 740.0478 263.0117 737.9562 264.4297 739.5869 265.4065 739.5515 268.0219 741.0049 267.9904 741.0758 267.9904 741.1821 268.211 742.2102 269.4084 741.962 270.1016 742.8483 270.1016 742.3165 272.3389 744.0181 272.465 745.4361 273.7884 744.089 275.2064 743.38 275.9942 741.9266 276.4353 741.7139 276.4983 741.5012 276.5613 739.8705 275.679 738.9843 276.6559 739.3033 277.7588 737.9562 278.4205 737.8853 280.7208 733.5605 281.3195 732.3907 282.5169 730.6182 282.1387 729.5193 283.0841 731.3627 283.7458 731.1854 285.3528 733.3124 285.1323 735.1912 284.9432 735.5102 284.9117 735.5102 285.0377 735.7229 285.857 735.8293 286.2982 734.7304 288.756 736.1838 287.9682 738.2398 289.3862 740.1896 289.4492 740.8631 290.4261 741.8911 289.1026 744.0181 289.8589 745.2943 287.149 745.3297 287.1805 746.535 287.7161 746.2159 289.0081 748.2011 291.6865 749.8672 292.0016 750.5053 289.0396 750.5762 288.7245 751.2143 288.756 751.6397 288.7875 751.7815 288.7875 752.8804 290.8042 752.5968 290.9302 751.7106 291.2769 752.455 291.718 751.2852 291.8756 751.1079 292.9784 749.1937 292.5373 744.9752 293.8607 744.6207 295.0581 743.5927 294.0498 738.2753 297.4845 737.3536 296.8543 736.5383 298.3353 728.1013 300.478 725.3717 301.8014 725.2654 302.9988 722.394 303.7866 722.6067 305.3306 719.6998 306.8432 722.5358 309.4585 722.8548 312.5151 724.84 311.6013 725.4072 312.0739 725.7971 312.4206 726.2934 312.7987 725.2299 313.9646 724.9109 314.7839 724.4146 314.8784 724.3082 314.9414 723.3157 315.9813 718.4237 318.124 715.1269 317.6513 715.0205 317.6198 715.4105 313.618 714.2406 312.6411 716.084 309.9312 715.4459 309.1434 714.1343 308.8598 710.1994 311.3807 706.7963 307.6939 702.2233 311.4437 701.3725 309.8997 702.5424 308.5447 698.7847 306.5596 697.863 307.4734 696.0197 306.4335 692.971 302.8728 692.4393 303.9127 690.3123 304.2593 688.8589 301.3918 688.9653 299.2176 687.1928 299.7217 684.6404 297.579 685.8103 296.7597 685.1722 293.8292 684.1442 293.7032 684.1087 291.0248 681.6272 288.693 682.0172 287.9997 684.4986 288.2518 684.605 287.5271 683.0098 286.4872 680.741 284.9747 680.8474 283.9979 682.4071 283.3046 681.7336 281.9497 682.9034 281.351 679.7839 280.0275 679.6421 278.4205 M 499.6658 301.2973 499.4177 301.2973 500.233 296.5707 498.6023 296.224 498.1769 294.9636 494.3839 294.68 494.2421 294.5225 493.7458 294.0813 493.2495 293.6087 488.5702 293.3566 486.0887 298.0202 484.9543 303.503 483.6427 304.7004 480.9131 305.0786 481.5157 310.4984 479.9914 310.3724 478.4671 312.3575 474.4968 311.9479 471.3418 317.3047 476.6237 318.6282 475.8793 321.7477 474.0359 323.4493 472.7598 326.6949 472.2635 326.3483 472.0153 328.1129 470.5619 328.9007 469.8175 328.3335 467.017 330.6653 466.9461 327.3566 464.571 325.0879 457.4811 334.1945 456.3467 335.1713 453.0854 338.0073 451.2775 336.5263 450.1785 338.0703 444.6484 337.9758 444.613 339.0156 441.2453 342.1037 441.2099 342.1352 439.6501 340.8747 437.6295 341.505 437.5586 341.505 437.5231 341.5365 432.5957 340.3391 428.3063 342.4818 428.4835 343.4586 425.5767 345.0027 425.3286 343.6792 423.7333 343.1435 422.1736 340.7487 420.3656 341.8201 420.3656 344.467 416.7498 343.6792 414.2684 344.7506 413.6303 343.4901 409.589 343.8052 408.3129 342.7339 406.8594 344.1519 400.2659 343.6477 399.8405 343.3326 399.3442 343.2696 M 332.3804 263.5159 336.8116 265.3435 337.3078 262.8542 340.9591 261.0266 342.6961 263.1378 342.0581 264.8394 344.0078 267.0451 343.7242 267.8329 347.34 271.4881 349.3606 273.5678 349.8924 274.1035 350.2823 274.5131 350.3887 274.6077 352.2675 272.3704 350.7786 271.5196 352.3384 268.3686 352.8347 267.8644 360.1372 263.0432 365.3128 261.5622 364.4975 258.9468 367.6879 257.6864 365.88 255.9533 365.7382 254.8505 365.9509 252.046 367.7234 250.9746 367.5107 249.3361 367.8652 248.4538 369.2832 246.8152 369.7794 246.4371 372.8281 247.666 375.8058 247.0673 377.4365 244.4519 376.2312 242.5928 380.3079 240.1665 381.1587 240.7021 384.2782 244.2628 389.2057 242.8449 392.5379 246.2795 395.6929 245.4603 399.5923 242.6558 399.7696 242.5928 M 692.4393 303.9127 690.4187 304.2908 683.4352 303.1249 682.2299 304.3538 680.032 303.9442 679.1812 303.0304 679.1812 299.123 674.5728 294.0183 668.3337 291.6865 667.6957 291.4659 667.4475 291.592 665.037 292.8209 664.7888 297.4845 662.2719 299.7848 662.91 301.3288 654.8276 305.5827 648.4467 311.2231 646.7806 311.5698 644.9726 310.6875 644.4763 312.2 641.924 312.0739 641.3923 311.2231 635.7204 317.0211 635.6849 317.0526 635.7913 317.1157 633.8415 319.731 634.7278 321.4641 630.722 327.073 629.3395 330.8228 630.013 332.745 633.3807 331.7051 636.1458 336.8729 634.905 338.9841 633.4516 339.3307 632.849 341.9461 630.1194 344.467 629.3395 347.7441 623.5967 344.9711 623.4549 342.5763 622.0369 340.7802 615.2661 342.0091 614.7344 340.3706 608.9207 338.3539 608.6371 338.1333 608.6725 338.1018 606.5456 336.4632 606.6519 334.8562 M 715.1269 317.6513 714.9851 319.479 717.3602 322.6615 715.4814 322.6931 714.9851 323.985 716.0486 324.8673 719.3808 324.8043 719.4517 324.8043 718.9554 326.3483 717.7501 326.0647 715.8359 328.491 712.1846 329.5624 709.8449 331.8942 706.7608 331.8627 704.2794 334.163 705.591 338.543 705.4847 338.7005 705.7682 339.6773 706.6899 342.8599 706.7608 343.0175 708.2851 342.8599 711.4047 342.3873 711.7237 342.4503 713.0708 342.8284 713.7089 343.0175 713.9216 343.3011 714.7369 344.2779 715.0205 344.656 714.3824 346.2946 715.8359 346.2001 716.0131 347.9647 717.1829 347.9647 717.6792 349.036 717.6438 349.0675 714.347 350.6746 712.7518 352.9118 712.3264 353.9832 711.192 355.0546 709.7031 356.4726 708.1434 357.9851 703.7122 360.4429 702.5778 361.1046 702.0815 361.3567 699.671 360.6005 699.4228 360.569 699.2101 360.6005 695.2752 361.5773 694.4245 362.8062 694.07 362.5226 692.4393 365.5161 686.4129 366.5875 684.1442 368.5412 683.4706 370.4318 678.8622 372.9212 674.5728 373.835 674.5374 373.835 673.1549 377.8999 670.0708 379.3494 669.8581 377.6478 668.6173 376.3558 668.4755 376.2298 667.9438 375.6626 666.3486 375.9147 664.9306 372.8897 662.8391 372.1964 660.0032 368.163 658.5497 368.1946 656.5646 365.8943 656.5291 365.8312 653.4096 367.1547 652.3106 365.6107 649.7583 365.5161 645.1499 362.6802 646.0007 362.0184 645.6107 361.1046 647.5959 360.0333 647.5604 357.4809 642.7039 357.9851 644.3345 356.441 644.051 353.353 645.788 353.5736 647.3477 351.746 650.0064 353.4475 650.6091 351.2103 654.1186 350.2965 655.182 348.7839 654.2249 347.3344 654.8984 346.4521 663.1581 342.2612 663.938 341.3474 662.8391 340.4336 663.5126 339.6458 666.4549 338.1963 667.8729 338.8896 671.6305 335.9906 674.9628 334.7617 675.3527 331.5791 678.295 333.0286 680.8828 332.2093 680.7056 330.3502 677.6924 330.0351 677.6924 329.783 677.7987 329.4364 681.3791 327.7033 681.8399 327.4827 681.8754 327.4827 681.8045 327.3882 679.8548 325.4345 679.2167 321.4641 679.1812 321.3381 675.9908 320.1722 671.7723 321.4641 670.4962 323.4808 668.2628 323.0712 664.1862 327.8923 663.4772 328.7431 662.3074 330.0981 661.5629 330.6653 659.4714 330.3817 656.6709 329.7515 653.5514 326.947 650.7509 326.8525 650.6445 325.529 648.4467 323.8274 648.8012 322.5985 647.4541 321.9053 646.0361 323.2287 635.8267 317.1157 635.7913 317.1157 M 724.9109 314.7839 724.8754 314.8784 727.6405 314.3112 727.7114 314.2482 728.6685 313.1138 729.2003 312.4521 729.2003 312.4206 727.8532 310.6875 729.0939 305.5512 730.8664 305.8348 730.5119 307.2528 731.3272 307.883 735.7584 307.6939 738.8425 306.0554 739.0197 307.0007 739.906 305.7088 744.8689 304.3853 745.9323 302.7783 746.9249 303.4715 747.7403 302.6207 749.1937 302.8413 749.4064 299.5642 750.0799 298.6819 751.9942 298.997 752.6323 297.579 755.61 298.9655 757.1698 298.3353 760.7856 299.3436 765.0041 301.959 766.1385 301.3603 765.8903 298.9025 766.7411 299.8478 768.9035 299.9108 769.7188 301.1082 771.7749 299.9738 773.2283 301.4863 775.7098 300.2574 777.1278 301.8014 776.596 302.9988 777.6241 303.1564 776.3124 304.3853 776.8087 305.1101 776.8442 305.047 778.4394 303.2509 779.4674 303.377 778.8293 299.5957 781.7716 300.2574 783.2959 300.604 784.3949 300.8561 784.4303 300.8876 784.5012 300.8876 783.6504 298.9025 783.934 298.0832 785.4229 298.4613 785.4584 298.4613 785.4938 298.1777 785.5293 297.5475 785.5293 297.3899 784.9266 297.0433 784.6076 296.8227 784.7139 296.7282 787.2308 296.0665 787.8689 296.098 793.4345 297.6735 793.4699 297.6735 794.0016 297.1379 794.7815 296.3501 796.0577 298.0832 797.5111 298.1777 797.5466 297.3584 797.972 297.705 799 298.6504 795.526 302.8413 793.3281 303.3455 792.4419 302.4632 792.2292 302.2426 794.2852 306.5596 794.5688 306.6856 794.6397 306.8116 794.2498 306.8747 790.1022 307.3473 789.9604 307.5994 789.8541 307.7885 789.5705 308.1981 791.1302 309.7106 791.272 309.8997 791.0948 311.0341 791.0593 311.0656 785.1039 310.1518 784.5721 310.0573 784.4658 310.3724 783.8277 312.1055 783.6504 312.6096 783.7568 312.7042 785.6002 314.4057 783.1187 316.1703 782.5515 320.9285 781.1335 321.3696 779.432 320.1407 774.4336 319.1323 770.1797 322.3779 765.6422 322.4095 764.8268 326.3798 760.502 326.6949 758.7296 328.1129 759.474 329.846 758.3751 332.2723 754.7238 332.1148 751.2143 333.3752 749.5482 336.6523 744.9398 336.5578 741.0758 338.795 739.3033 341.1268 734.305 342.7339 732.4616 344.9081 723.3157 345.6329 723.9183 349.4142 718.1755 349.3826 718.0692 349.3511 717.6438 349.0675 M 305.2971 394.6321 306.6087 396.8378 305.368 398.5394 305.1199 398.886 304.8008 398.76 304.3754 398.9175 302.4257 397.9722 300.2278 400.0204 300.0506 400.1779 298.2781 399.5162 297.7109 401.5644 297.7109 401.5959 295.4776 402.6043 295.4422 402.6988 295.2649 403.9592 298.1009 405.8184 298.4554 407.2994 292.0745 412.1205 291.8264 412.3096 292.8544 414.5468 294.6977 415.4606 294.8395 417.7609 293.4216 418.5172 290.9047 417.4143 286.4381 417.5088 285.9063 418.4857 283.0704 417.7609 279.1709 421.9519 278.9582 423.1493 280.4471 424.8508 276.9022 427.2457 275.6969 426.9936 275.4488 428.6321 273.5345 429.1363 271.5493 431.6257 270.4859 431.4051 267.8626 433.1697 264.1404 432.8861 261.7653 431.4051 261.6235 432.7285 260.0637 433.1382 258.6103 437.8018 256.5543 438.0223 252.194 435.3439 249.358 436.4468 244.147 433.5163 239.1132 434.9343 237.4825 430.9009 234.4693 429.2623 232.4487 429.9871 227.4149 434.3986 227.2731 436.3523 221.8494 441.6146 224.6499 444.3245 223.3737 447.6331 219.0843 449.8073 220.325 450.8787 219.8996 451.7295 215.4685 454.9751 214.4759 460.3319 213.3415 462.2541 211.7463 462.7583 211.7818 464.2708 210.4347 465.9724 211.6754 466.8547 211.4627 468.1466 208.2723 466.382 205.649 466.8862 204.6564 470.7305 200.6507 474.2912 196.2195 469.9742 191.9301 471.0456 189.0587 474.7323 187.0027 475.6146 186.4 473.1883 184.4149 472.18 183.1032 472.5581 182.6778 474.1336 181.4371 473.2828 176.2261 475.8037 173.8155 475.331 173.142 476.623 169.4907 478.6082 170.1997 481.0975 168.5336 482.547 167.4346 481.7592 166.3357 483.1772 168.2854 485.0048 168.3209 487.3051 166.1585 489.1958 164.4569 488.9122 164.6341 489.6369 161.7273 491.6851 160.8056 491.1179 162.2945 495.7185 157.6861 500.4766 155.7009 504.8566 148.8237 502.5248 144.5698 498.712 141.0603 490.4247 132.9779 478.6397 128.5113 459.6072 116.0685 447.8222 114.7215 442.875 108.1988 437.014 109.4395 425.3235 108.4115 424.8193 109.0141 411.6794 107.7734 409.3161 106.6036 408.3392 103.0941 408.1186 95.9688 410.9861 82.9589 411.8684 72.2177 408.2447 70.2326 403.8332 63.639 397.8462 56.8682 387.8572 55.3793 374.6858 60.6258 368.1 M 670.0708 379.3494 669.9999 379.4439 669.0427 379.885 666.065 383.1621 666.065 383.2567 665.8877 383.4457 665.7814 385.8091 665.4978 386.2187 664.2925 387.3531 661.5629 387.6682 660.8185 387.7312 660.6058 387.7627 661.2439 388.582 661.5275 389.1492 661.2793 389.4643 659.2233 390.5672 657.7344 391.1974 652.9487 390.8193 651.0699 390.6302 651.0345 390.6932 649.1911 394.1279 645.7171 394.0334 645.6462 394.0334 645.4335 394.2854 642.3848 396.8693 642.3494 396.9008 636.0394 396.6487 636.2166 398.9805 632.849 402.8248 629.5876 403.203 629.5876 403.2345 629.5167 403.2345 626.7871 404.81 626.0427 404.9361 625.7945 405.3772 625.121 405.7553 622.0015 402.3207 621.1861 399.1381 621.5406 398.8545 621.0089 398.4133 620.7607 398.2243 620.548 398.0667 619.0946 398.5394 618.0666 397.0584 617.2513 398.2243 615.4788 396.1446 615.337 397.2159 611.863 394.8841 611.7212 389.937 614.628 389.6218 614.628 380.2317 613.2809 379.696 612.4656 381.24 609.1334 380.8304 608.4244 383.5088 606.4392 383.1621 604.7022 385.1788 604.5958 385.0843 604.7022 384.7062 601.4054 382.1538 600.2001 383.4457 598.3213 382.721 600.9091 379.1918 600.8028 378.1519 602.4689 377.7738 602.5398 377.7423 602.3625 376.923 602.3271 376.734 602.3271 376.7024 602.2562 376.7024 600.5192 376.6709 600.3419 376.4189 600.6964 373.1417 600.7673 372.8897 600.7319 372.8266 600.5546 372.543 599.8811 371.5347 598.9239 370.7784 598.534 370.4633 598.4277 370.3688 597.6832 371.8813 595.2727 372.2909 592.1886 371.6607 592.1886 367.5958 592.8976 367.5643 593.1457 365.3901 590.9124 364.2872 591.8695 362.1445 595.2727 361.9869 595.0954 359.3085 601.7599 360.3169 601.9726 360.3484 603.3551 359.4031 603.6387 359.1825 603.6742 359.1825 602.7879 357.1658 605.9075 354.0147 603.9223 351.0212 605.5175 349.6978 604.5249 348.4688 606.4747 344.8451 606.6519 342.4188 606.6519 342.1667 604.7376 340.4651 608.2117 338.3854 608.6371 338.1333 M 621.1861 399.1381 619.1655 400.5876 618.7401 402.0686 617.0031 399.9259 614.2381 400.9027 612.3947 399.4532 611.7921 397.1844 609.8069 396.5857 608.9916 398.6339 607.5736 399.2956 607.1836 404.3059 605.2694 401.785 602.4689 401.5959 602.3271 399.9574 596.8679 399.2641 597.506 394.6321 593.7129 394.38 593.4648 393.0565 589.8135 394.2854 586.3749 393.9073 585.9495 397.9722 582.5109 398.7285 582.0501 397.3105 583.0426 395.9555 580.313 393.6237 578.7178 395.1992 576.3073 395.4828 575.3856 399.9574 573.7195 400.1779 572.7623 398.0667 571.5216 398.5709 570.3872 404.3059 567.2677 403.8647 565.6016 404.621 564.7508 403.9277 561.3477 404.9991 558.8662 408.9694 559.6815 409.5051 557.8736 411.2697 557.8382 411.3012 555.6758 410.6395 555.144 409.0009 555.7821 408.3707 552.8044 409.6312 552.4853 409.4736 550.3229 408.2762 550.252 408.2447 550.252 408.2132 548.834 404.9991 546.0335 406.5116 544.8992 406.1335 543.8002 407.583 543.5875 407.3939 542.5595 406.4801 541.7087 405.2197 541.2124 405.2512 538.3765 402.6673 536.9585 404.9676 535.6823 404.0223 530.7549 403.4235 532.5273 400.367 532.4564 398.5079 533.7326 397.5941 533.6617 397.5626 532.0311 397.279 529.585 394.9787 525.8274 395.4198 526.0401 392.6784 524.0904 391.3234 524.055 390.5987 524.3385 387.8257 526.4301 386.6914 529.1597 387.2585 529.5496 383.3197 533.7681 381.2085 531.8184 377.2066 529.4078 375.8201 531.6411 373.0787 532.4919 370.2743 528.2025 369.0453 526.6073 370.0222 525.6502 373.2048 523.9841 374.9694 521.6444 372.48 518.8793 371.7553 518.9148 367.7534 516.1852 365.7052 515.7953 362.176 514.6609 361.5143 514.6963 360.0018 512.3567 358.7728 512.0376 356.0629 513.6328 355.4642 514.2355 353.4475 513.172 350.1704 514.909 348.2798 513.6328 345.9165 513.7037 345.6644 517.1423 344.4355 517.2841 340.5281 517.3196 340.4336 517.2132 340.276 517.1778 340.1815 M 437.5586 341.505 437.594 341.5365 437.1686 344.7506 438.7284 347.492 438.7284 352.3447 433.9427 356.252 435.857 358.5838 438.4803 359.4031 438.7993 359.4031 443.7977 355.7793 446.2082 357.0082 447.2008 358.1741 444.5421 360.4114 445.1093 363.1528 444.4357 364.8859 441.9543 364.4133 439.9691 365.7367 438.3739 365.3901 437.1686 366.8711 435.8216 366.4615 435.8216 367.8164 438.4448 370.1482 433.2692 375.0639 432.6311 376.1668 433.3047 377.3642 431.5676 377.0176 427.5264 379.2863 427.1365 376.5134 425.8248 376.0407 424.9386 378.4671 426.5338 381.3345 422.599 385.8721 425.4349 386.1872 424.5487 387.4791 425.8603 389.0231 425.8957 389.0547 423.7333 392.3633 421.7482 393.088 420.8974 395.2623 420.8265 395.4513 416.0054 397.7201 415.899 397.7831 414.6583 396.9954 410.7234 394.443 408.2065 397.3735 406.4695 397.1529 406.3632 397.3105 406.0441 400.0204 404.2362 401.1548 404.8388 403.3605 402.641 405.7869 403.3854 409.7257 402.7828 410.8601 402.2156 411.9945 398.7061 414.0112 395.4093 420.2188 393.4596 426.6785 388.7094 433.2642 387.6814 437.3291 386.7242 438.5895 384.7036 438.432 383.6756 440.3541 378.9608 443.6943 379.1381 445.0807 378.2518 444.6396 377.4365 445.2068 376.0894 446.5617 375.6995 447.1604 376.6921 449.6183 375.5577 450.4061 374.2461 455.5108 372.2963 456.1095 371.4101 457.9056 365.5255 461.9075 364.9229 463.0734 364.6747 463.609 364.6393 463.6406 364.2848 463.7036 357.4431 465.027 354.5008 469.0919 354.0399 469.9742 353.5791 470.3523 351.4876 472.0854 351.6648 474.0391 350.2114 475.4571 352.0548 476.749 350.2823 481.5702 349.2188 481.7277 346.7728 484.9418 345.922 484.091 344.9295 484.5007 344.7168 486.4543 342.0935 489.0697 341.42 492.6304 339.293 492.5359 333.5857 495.876 335.819 493.1346 335.8544 492.2838 335.6063 490.0466 333.7984 487.0845 331.7069 487.8408 329.9344 485.9502 327.4529 485.6981 325.4323 483.3978 323.908 483.3348 319.5832 480.1522 319.9731 476.56 323.7662 475.5831 325.1842 472.2745 330.1471 469.5331 332.0613 467.0752 332.8058 464.2393 324.227 458.2837 323.6953 460.1114 324.617 463.5145 322.2773 464.964 320.2567 463.9557 319.9377 459.8278 318.8742 459.5442 318.3779 460.584 315.7547 460.1114 315.0811 456.1725 316.4636 456.5506 316.57 455.4793 317.9171 455.5108 317.8462 453.0845 317.5271 452.8009 315.0811 453.242 314.443 451.1623 314.4076 450.9732 314.6912 450.9417 318.4134 450.5006 318.9805 450.4376 319.0514 450.28 319.8668 447.255 317.8462 442.6544 314.5494 440.3541 316.3573 439.0307 318.0234 439.3773 319.6186 441.4885 321.0012 440.6692 319.4768 438.6841 319.8313 438.1169 320.1504 437.6127 320.2213 437.4867 321.8874 438.558 323.4826 437.3606 324.7233 435.722 325.7868 433.8944 325.8223 433.7999 325.1487 432.697 328.5873 430.6488 327.8783 428.4746 324.936 426.899 324.936 426.8675 325.1842 422.4875 318.4843 418.1076 317.6335 416.3114 314.4785 415.3346 314.6557 414.2632 312.9542 412.1835 314.0885 410.8601 310.5436 410.5135 309.7992 409.3476 311.1108 408.5913 310.3309 406.228 304.3045 403.6756 300.7241 400.4931 300.2278 400.0204 M 543.5875 407.3939 543.3394 407.6145 543.6584 408.0871 540.2198 410.545 541.4606 413.507 541.0352 416.406 541.0352 416.4375 534.4062 424.2206 535.3633 427.3087 534.7961 429.2939 534.7961 429.3254 531.3221 431.6257 529.3724 434.8713 527.7417 433.5478 527.6708 433.6108 525.7211 435.2809 525.792 435.8481 526.111 436.4783 527.848 436.4783 529.4432 438.7156 531.0739 440.0705 532.9882 443.7258 535.1506 444.1984 542.3114 449.0826 543.0558 454.723 542.5595 459.04 538.5537 463.7666 542.914 468.6508 542.4177 470.951 539.2627 471.2346 533.8744 471.7073 533.839 471.3607 533.7326 470.0372 528.7343 469.47 520.8291 469.9427 519.8365 470.0057 519.4111 470.0372 519.3756 469.7536 519.2693 469.6906 519.3402 469.47 519.1629 468.1151 520.4746 464.9325 513.3138 463.546 513.1366 461.6554 509.2017 461.6554 507.6419 462.6322 504.7351 461.9075 504.0261 460.8676 499.524 463.609 498.3187 460.3634 496.4399 459.3866 495.5891 461.876 494.5966 460.2374 492.186 460.1429 493.7812 457.0233 492.0796 456.141 489.1728 457.4329 487.2585 459.9538 483.7845 459.3236 483.3946 459.2291 483.5364 458.6304 483.0755 457.4329 482.402 457.1493 481.9766 454.66 479.6369 453.4941 478.4317 457.1809 476.1274 457.2754 477.3327 456.2355 476.801 454.3764 475.8084 454.5024 474.0359 456.9918 470.9164 456.5506 466.9106 460.3004 463.6138 459.5757 462.3731 461.1197 459.8917 459.7332 461.4869 456.9603 457.3393 456.4876 457.552 454.723 456.134 454.7545 453.2272 458.0947 451.9156 456.9603 447.4135 456.015 447.2362 455.9834 447.2717 454.534 445.0738 455.5738 446.3146 456.6452 446.1728 457.9056 445.4992 459.1345 443.7268 458.7879 442.486 462.128 440.6072 461.8129 437.984 464.2078 436.9205 463.9557 435.9988 467.0437 435.0417 467.1067 434.6163 467.0122 432.2057 466.9177 431.5322 467.1067 431.3549 467.3588 431.6385 468.5562 428.3417 467.8945 428.2354 467.8945 428.1999 465.0585 427.491 464.901 428.2708 464.2078 426.1439 461.5608 420.1175 460.5525 419.6212 459.3236 416.5726 460.1114 417.8842 456.6767 420.2593 456.204 422.3508 451.0363 420.7556 451.1938 419.9757 451.8555 418.5577 451.3829 417.3879 451.0048 415.6509 451.4144 415.4027 451.5089 414.6583 449.3032 414.6229 449.2086 413.7721 449.2402 414.4456 445.9315 413.134 444.3245 415.19 445.774 418.1323 445.8055 418.4514 444.3875 418.1678 443.8518 417.636 443.7258 414.5165 443.064 413.0631 441.457 413.4885 439.9445 412.1768 437.8018 412.2123 437.8018 413.8784 437.9593 414.6583 436.8564 417.8487 436.0372 417.9551 435.9111 416.1826 435.1233 416.5371 433.1697 412.7795 433.2957 412.6022 433.3272 412.425 432.0038 413.5594 430.9639 415.9345 431.0585 414.5165 430.0816 414.871 427.7813 419.5503 428.4116 418.735 427.6238 420.6847 426.3949 418.4868 425.0399 418.7704 422.33 416.0763 421.3847 422.0318 417.8555 421.4291 415.9648 422.7053 414.3263 418.3096 411.5848 418.6995 409.1585 420.8974 407.4569 428.8735 405.9129 428.129 403.6126 430.0433 402.6988 429.1216 400.3355 430.4333 399.7053 428.6962 398.6339 426.6402 399.3902 427.81 396.05 427.7037 396.0185 428.6608 395.5774 430.3978 395.3883 431.7094 396.4912 436.9205 392.7729 437.6649 392.2372 438.9765 391.67 439.8982 392.5523 442.4506 391.1974 442.5924 389.5273 440.9263 389.2752 440.9617 387.9833 446.35 385.62 446.6691 385.9351 449.3278 388.2354 450.0722 388.582 454.9996 388.7395 458.7218 390.2836 459.5017 392.7729 458.6864 394.3169 460.0335 393.7813 460.3879 393.4031 460.8842 393.4346 462.8694 393.4977 463.4366 392.4263 461.735 391.1344 461.9123 390.063 465.9535 389.937 467.0879 390.8823 475.4185 389.4013 483.7491 393.7498 488.6056 393.1195 491.7252 393.8128 492.9304 392.962 496.6172 394.7266 500.2684 394.6321 501.4028 396.4597 503.4589 395.0102 505.6213 396.1761 505.2668 397.531 502.7145 399.5792 505.2314 401.6274 508.7408 402.0371 507.961 405.8499 509.9816 407.3939 509.6271 409.0955 511.7186 409.7572 512.463 408.8119 514.4482 409.0955 515.0154 407.4884 516.3624 407.2679 520.9709 410.2299 524.7285 410.8286 525.4729 409.127 526.8909 409.4421 526.9618 407.3624 526.9618 407.3309 530.7549 403.4235 M 314.443 451.1623 312.7415 449.8389 310.3664 450.6896 309.9764 450.8157 309.6574 450.5636 308.523 450.343 304.9426 447.2865 303.4892 448.9881 303.2056 449.8073 302.8156 449.8073 300.3342 452.8009 300.3342 455.9204 300.3342 455.9519 299.2707 456.8973 297.2855 458.6934 296.5766 461.6239 294.1306 463.3255 293.457 465.6572 292.2163 466.2244 292.039 468.8713 289.6994 468.9028 288.3878 471.6443 287.3952 471.6128 287.0761 473.0623 281.0143 478.9233 276.4413 478.8918 274.4916 480.5933 275.2006 483.902 272.9673 484.7843 274.6689 489.5109 273.8535 490.5822 274.0662 494.8992 273.9953 494.8992 267.1182 495.3719 265.8065 493.4497 263.3605 494.3635 257.795 502.7139 258.1849 504.8251 259.9574 506.4006 258.5749 507.7871 256.9797 507.6926 254.0728 505.991 252.6194 507.1569 250.457 505.7704 250.3861 505.7074 247.1602 507.3144 247.3374 508.0707 244.466 507.472 243.119 505.4553 240.7793 505.8964 237.6243 504.0688 237.1635 499.7519 237.1635 499.6888 234.7884 499.1847 230.6053 501.1698 228.9038 500.7917 228.0175 501.611 228.4075 504.1949 224.0118 506.3376 221.8139 504.9196 222.0975 502.8714 217.8436 501.9891 216.5674 503.3756 217.2409 506.6212 216.0711 508.5749 211.8526 506.9678 212.278 504.3209 210.541 502.3988 205.5427 503.9428 202.9549 503.8167 198.1692 505.8649 193.8798 502.3988 192.2846 503.2811 190.7248 501.7685 187.8889 502.4933 186.8609 501.8316 183.635 502.0521 182.0398 502.1782 180.9408 502.7769 172.9293 507.0623 171.2277 506.5897 170.2351 503.8798 167.151 505.0457 164.8114 507.9446 164.7759 507.9446 163.358 507.472 155.7009 504.8566 M 625.121 405.7553 625.121 405.7869 623.6676 408.8434 623.4903 409.253 623.4194 409.2215 623.384 409.3161 619.91 409.6627 619.6618 409.9148 619.7682 412.3726 621.7533 414.1057 619.2364 415.7758 619.5909 419.305 618.9883 420.2818 618.811 423.5274 618.4211 424.0946 618.4211 424.3782 616.8259 426.4894 616.5068 426.899 616.5068 426.9306 614.0963 427.0566 611.4376 428.8842 610.0905 427.5608 609.5942 427.7813 609.3106 428.0019 608.5662 432.8231 607.1836 433.4218 606.9355 435.2494 604.8085 436.3208 606.6519 437.7072 606.6165 437.7387 605.0567 439.1252 606.9355 440.3541 606.7583 441.8666 606.5456 441.8351 604.4186 441.4885 602.5043 443.001 600.3774 441.0789 598.8176 441.3625 598.3213 443.4107 594.7409 444.6081 595.8044 447.6646 592.7912 449.5868 591.9759 451.9816 591.7986 451.824 586.9421 447.0029 580.5966 451.9816 575.6692 452.0446 574.8538 451.3199 576.0946 450.8157 575.3856 449.7128 572.975 448.9566 571.6989 454.1558 567.6931 457.1809 568.7211 459.4496 566.9486 461.3403 568.8275 462.5692 569.4301 462.9788 569.501 463.0103 569.2174 463.3255 564.8217 468.2096 563.3683 469.8797 562.2693 470.1003 559.9651 471.7388 557.9091 470.8565 557.9445 470.3839 555.8885 468.9974 554.6477 468.5562 551.0319 469.6591 551.0319 469.6906 550.6774 471.7703 542.4886 471.0456 542.914 468.6508 M 642.3848 396.8693 643.9446 395.987 641.4277 399.3587 640.0452 401.0918 640.0452 401.1863 640.187 406.9212 638.2018 406.9528 635.7204 408.6543 635.8267 409.0955 636.1812 410.5765 636.2875 410.9231 636.3584 410.9546 636.3939 411.0491 638.5209 412.215 637.8828 414.7044 639.1589 415.9963 638.6627 420.4393 639.9743 423.3698 639.6552 425.166 643.2002 429.1993 643.2002 431.9093 643.2356 431.9408 643.9446 432.3819 645.9652 433.7684 646.2843 434.4931 646.7097 436.0056 644.7954 436.1002 642.9875 434.8082 640.0452 435.2179 637.8473 433.989 637.8473 434.0205 637.2447 435.3439 632.8844 436.0056 632.5299 438.1169 627.8861 437.3606 627.0707 438.1484 626.0072 437.1715 623.8803 438.6841 622.1078 438.4005 622.0724 438.4005 618.6338 450.4061 615.3724 451.1623 615.3724 451.3514 615.3015 456.3301 614.1317 456.4561 613.9899 458.0947 611.9693 458.6619 611.8984 458.7879 611.5794 459.2921 611.0831 460.0798 610.5868 461.7814 612.8555 466.3505 620.0872 476.686 622.2142 476.4024 624.412 474.2282 628.5241 474.4802 628.7014 475.9297 628.7368 476.1818 628.9495 475.7407 629.9421 475.0159 631.0765 475.6777 632.5299 476.749 633.0617 479.1438 635.3659 479.2069 636.7838 482.0428 638.4145 482.421 638.5563 483.2717 638.4854 483.4923 638.0246 483.6814 637.3156 483.3663 637.4574 483.965 636.5711 484.3431 637.032 485.8241 632.7072 485.8556 632.849 488.408 630.7575 488.5655 630.7929 487.6832 630.5448 487.6202 630.2612 487.5572 629.5876 487.3681 628.985 488.0929 625.3337 484.8158 622.8877 485.446 621.2216 487.9353 618.811 488.1559 619.201 489.6054 618.3147 490.6137 616.8259 490.3301 617.1804 487.3996 615.5851 487.6202 615.7624 488.7861 612.8201 488.5971 613.3873 490.015 612.6783 492.977 611.0122 495.3404 606.581 496.2227 606.5101 496.1596 605.4466 494.4265 605.4466 493.7018 606.6165 491.5591 605.1985 491.2124 603.1424 494.4581 598.6049 496.4117 598.1795 497.231 598.0377 497.5146 598.0023 497.6091 601.8308 501.1068 598.3568 503.218 597.7896 507.6295 599.4202 511.9465 597.8605 512.7973 596.9033 512.0726 595.2018 513.8687 589.3881 512.7028 588.3955 514.5619 586.1622 514.1523 585.5595 514.0577 585.5595 514.5619 585.276 514.751 584.6733 514.5304 584.2834 514.2468 585.0278 511.915 581.731 510.9067 581.0929 508.8269 579.0723 508.4173 577.8316 509.5517 577.9379 508.8585 576.9454 508.1652 578.6824 506.9363 579.0369 505.0772 578.966 503.6592 576.8745 503.2811 577.6189 497.7667 577.6543 497.4516 574.783 495.1828 573.7195 495.0883 573.2232 494.7101 573.8613 493.7333 574.783 490.7083 575.4919 488.534 575.7755 487.5887 575.6692 484.8473 569.9973 483.3978 565.7434 480.5303 563.1201 478.7027 560.8159 475.142 557.9445 473.9446 557.3773 471.6443 555.0022 470.888 550.6774 471.7703 M 333.5857 495.876 333.1957 502.1782 328.2328 506.5582 328.1974 508.9845 326.9566 511.0642 324.6879 514.751 322.2419 516.7677 321.462 519.257 320.3276 519.9817 320.3985 520.2338 320.3985 520.3284 317.4208 522.9122 317.3853 522.9438 318.5906 524.4878 315.7547 527.6704 316.3573 528.143 317.988 529.1514 317.988 529.4035 318.0234 529.8446 318.0234 530.4118 316.6409 531.0735 316.6054 531.105 312.2097 533.2793 310.4018 531.4832 306.9987 530.1597 306.8569 530.1912 306.6442 530.1282 297.8527 530.6954 295.6549 530.5694 292.0745 526.5045 291.5428 521.7779 281.7942 520.4229 278.4265 516.7046 277.9302 518.1541 276.7249 518.4692 275.307 522.282 274.2789 522.219 274.917 526.0318 271.0176 526.2209 268.5361 520.2969 269.5642 517.1143 267.2954 516.5786 264.7785 517.776 261.6235 512.7028 259.532 512.1986 259.3548 513.7426 256.2707 514.2468 255.4199 512.5767 253.5411 513.0179 251.875 510.7176 254.5337 508.7324 256.4834 508.6064 257.9722 509.9613 259.9928 509.5202 260.0283 509.4572 261.0209 506.8418 261.0209 506.8103 260.95 506.8103 259.9574 506.4006 M 646.7097 436.0056 646.9932 436.0056 647.0996 437.4551 649.3684 438.8731 650.8927 438.2429 653.5868 441.394 656.3873 441.1419 659.0106 443.2216 661.9529 444.0409 670.6025 442.8435 674.6792 443.6943 677.1606 445.5534 676.5934 447.1604 677.8342 447.3495 678.6495 447.318 679.8548 446.5933 681.1664 445.8055 686.4484 446.3097 687.7245 444.0724 690.0287 443.9779 690.0642 443.9464 691.1277 442.5284 694.9562 443.064 698.5366 445.0807 702.5778 445.2698 702.2588 443.4107 703.3222 443.1586 703.1095 444.0409 703.854 444.1354 704.882 442.7805 703.9603 442.6229 704.8466 438.6525 706.1582 438.495 710.0222 434.6822 712.1137 433.8944 716.9702 435.8166 717.112 436.1002 715.4459 438.0854 715.4459 438.4005 715.375 438.5265 715.4814 438.621 716.8639 440.3226 714.666 443.8518 717.0057 443.2846 717.1829 443.5052 718.1401 446.3097 718.1755 446.4672 717.5374 448.1373 715.765 448.2318 715.8359 449.1456 720.9406 452.7378 722.3231 456.015 719.9125 456.3616 719.2744 458.5988 719.0617 461.9075 720.5152 462.9158 719.2744 462.2226 716.0486 464.5544 712.9645 465.2161 712.1491 465.4052 712.0073 465.7518 711.8301 465.8463 708.4269 462.8528 708.0725 462.5692 705.2365 463.357 699.4228 462.9158 698.7493 465.3736 697.1895 465.2161 697.0123 464.4283 694.7081 467.0122 692.262 467.1382 691.3404 468.0836 683.6124 466.2875 681.2728 467.0437 680.6701 468.4617 672.3395 469.3125 672.2686 472.4005 670.5671 472.8417 671.5596 474.5748 671.0279 476.5915 673.5448 479.0808 673.6157 480.4043 676.3098 480.6564 676.2744 480.8769 675.6363 483.2402 679.004 484.9418 677.1961 486.864 677.0543 486.8955 676.877 486.9585 674.2892 487.7463 667.9793 487.9353 665.3915 489.0067 665.7814 490.5192 669.6099 493.9539 669.6454 494.0169 669.7872 494.395 670.4607 496.3487 673.6511 496.0651 675.1046 497.4516 678.7204 494.9937 679.2167 495.0568 679.5712 495.0883 680.2802 495.1828 681.2373 497.0419 683.2579 497.3886 683.4706 498.712 686.4838 499.4998 686.732 499.5628 689.497 505.4238 689.5325 506.3376 689.7806 512.8918 689.816 513.27 688.5399 516.0744 686.9092 516.0114 686.4838 517.713 686.2711 518.7528 686.2357 518.7843 684.6404 519.194 684.0024 520.6435 683.9315 520.864 682.0881 520.9586 681.5564 521.9984 677.4442 520.9586 676.8416 520.8325 676.3807 520.3599 676.1681 520.1393 676.0263 520.0133 676.0972 514.5304 674.6437 514.3098 673.0485 516.5156 671.0633 513.9947 667.6248 515.1921 666.9158 515.4442 670.248 521.4943 669.5036 524.2672 669.3972 524.2672 667.0221 524.4248 666.9158 525.1495 661.8111 523.2589 657.3799 527.2607 654.2958 524.0466 651.1408 526.3469 647.9504 525.4016 646.7097 522.7232 644.9017 521.7779 645.398 519.32 642.4557 518.7213 641.3568 517.4924 641.3923 512.7973 639.797 510.9067 640.8251 503.9428 637.1383 504.9196 636.004 504.0373 635.8622 503.5647 633.168 496.1911 632.849 488.4395 632.849 488.408 M 364.6393 463.6406 365.3837 464.1447 365.88 464.4913 366.0927 465.9408 363.1504 470.7935 364.7811 472.5581 365.9509 470.9826 368.5742 472.0539 366.3409 475.3941 368.6805 477.2847 369.035 480.8139 371.8355 480.9399 371.9064 482.7991 373.218 482.2319 375.5577 484.8788 378.9254 483.7759 382.8248 485.6035 382.364 487.7778 380.6624 488.0614 379.1026 491.6536 379.5635 493.1976 381.3005 493.9854 379.0317 495.813 379.7407 497.6091 380.946 497.9242 380.7687 496.9159 382.683 496.2542 383.5692 496.9159 383.1793 495.9706 385.2354 494.0484 383.8528 493.3552 384.2782 492.2523 386.866 494.9622 387.8232 497.5776 389.1702 497.7667 389.3829 499.0586 391.4035 498.0503 392.0062 496.3802 393.6723 496.0966 393.6014 495.4664 392.0062 496.1911 390.9781 495.3404 391.4744 493.7963 390.6945 493.1031 391.8998 490.8973 393.9559 491.0549 392.9279 490.0781 395.1257 488.2504 392.6088 485.4775 396.4373 481.5071 401.7193 484.3746 403.2436 482.8621 404.6261 483.5238 405.796 486.99 407.4266 486.2338 406.6822 482.0428 410.6171 480.2467 412.8858 482.7361 416.1117 481.4441 417.3524 484.7212 420.1529 485.383 422.3863 483.5238 422.4572 483.4608 424.0524 483.8704 423.5561 485.9502 420.6138 485.6035 422.8825 487.2736 420.8619 490.4877 420.8265 494.5526 421.8545 495.5924 420.5783 497.168 426.6047 499.3107 426.7465 501.5165 425.1868 501.674 424.9741 503.3441 426.6756 503.1235 427.7391 504.2894 429.3343 503.6907 429.7952 505.4238 428.9444 508.1022 430.4333 507.9762 431.6031 504.9511 433.1629 505.7389 434.0136 507.9446 430.5396 508.0392 430.6814 510.1504 432.5602 509.4256 433.3047 510.8121 435.6798 511.5369 434.8999 514.1838 435.9634 515.2236 435.5734 517.0828 433.8009 517.0828 433.8718 518.3747 432.7729 518.1541 433.1629 519.9817 430.8586 520.1708 429.1216 523.2904 432.0285 524.9604 433.8718 522.5656 434.829 522.7547 434.829 521.5573 434.0136 521.6518 434.4036 519.8872 435.4671 520.4859 435.5025 522.6602 436.8496 520.5174 437.594 521.7779 439.1538 521.9669 440.2527 519.8872 442.0961 519.9817 440.9972 522.4081 439.1892 523.7945 439.1538 526.9456 442.2379 526.0948 443.9395 527.4813 444.4003 530.1282 442.2733 530.3488 442.3088 531.9243 441.3871 532.6491 443.7977 533.7204 444.5421 536.6509 445.4283 536.8085 444.4003 538.1319 449.7531 537.7538 449.7886 537.8483 449.9658 538.5101 450.2494 539.3293 450.2494 540.4637 450.1785 540.4952 445.5347 542.5119 445.2156 543.2052 447.1299 545.9466 445.4992 548.2784 443.4432 548.7195 438.3385 546.0411 432.8084 545.0958 430.7877 545.6945 431.8512 548.9401 434.439 550.6732 435.0771 552.5008 431.284 554.8641 432.3475 557.385 435.0062 560.0319 435.148 560.1894 435.5025 561.891 432.9856 565.6723 435.7152 568.5398 435.3607 569.8632 435.3253 569.8947 431.9576 571.7854 431.0004 572.3211 429.1571 568.0356 426.0021 566.334 425.1159 562.9939 424.9741 562.8994 421.3937 564.9476 419.7985 564.6955 417.636 566.9327 415.0482 565.7353 410.8298 566.7752 403.4563 565.1996 399.0606 567.6575 398.1035 569.6742 396.4373 569.8947 391.7226 568.5713 390.73 569.7372 388.603 568.5713 387.0787 569.3906 383.2147 567.752 381.2296 569.3591 380.5206 568.4137 379.3508 569.044 378.3582 568.6973 377.5428 568.4137 374.1752 567.2478 373.218 567.2794 369.9212 569.6427 369.744 569.7687 369.6731 569.8317 366.9789 570.2414 364.0721 575.7242 363.0441 575.6927 362.406 578.4026 359.3573 578.6547 356.805 581.8058 354.7489 581.3962 353.7209 580.7659 353.4727 579.8836 352.9765 578.0245 352.6574 576.8271 352.622 576.6696 353.3664 575.3461 354.6426 572.6677 354.678 572.6677 355.2098 572.0375 355.4934 571.5333 355.6352 571.5333 355.777 571.3442 358.0103 570.6825 358.4711 570.2414 358.4357 570.1153 357.833 569.4221 357.9748 565.1996 356.4859 564.79 357.3367 563.1514 357.0531 560.1579 353.0828 556.5342 353.1537 554.3915 351.0267 554.9271 349.9278 553.9503 349.077 559.0235 347.2337 559.9058 345.9575 562.1431 344.3977 562.0486 342.3417 563.6871 341.1364 561.891 337.8396 560.1894 339.7184 556.8493 334.72 554.9587 334.2947 553.7612 331.6714 552.5638 327.2402 547.6167 326.4249 546.2302 327.4884 545.2849 327.4175 543.9929 329.1191 542.9216 328.3392 542.5749 328.2683 542.5749 328.481 542.2913 329.3672 540.9364 330.0407 539.928 331.3524 539.3293 331.636 539.1088 332.5931 535.8947 335.6772 536.6194 336.3153 533.2163 336.8116 532.7121 338.3359 533.7519 340.1792 530.8214 338.3359 529.6555 335.819 531.5777 334.1174 531.7037 327.2402 527.8909 329.6508 524.5823 329.5444 521.1476 328.5873 520.738 329.0127 519.383 328.1974 518.6898 323.4472 521.7463 320.6112 521.5258 320.5758 521.5258 320.3985 520.3284 M 669.3972 524.2672 669.9999 525.4331 668.83 526.7881 670.1062 530.2227 668.3692 531.3571 669.1845 534.6027 670.5316 536.2413 671.1342 539.0772 673.4739 541.6611 675.6009 542.2913 676.5225 544.6862 678.7913 545.6315 677.7278 547.207 675.9554 546.8604 674.6083 552.2487 672.7649 552.0597 672.7295 551.9651 671.7369 551.7761 665.6041 553.3201 661.4566 548.5305 658.6915 548.5935 658.0889 549.4758 656.2101 548.5935 654.154 546.5453 656.5291 541.9762 655.9265 538.2265 653.3032 540.0541 651.1763 539.4239 650.29 540.4952 648.7303 540.4637 648.2694 542.2598 645.8589 541.7557 646.7806 543.6463 644.5472 544.9067 643.9801 546.5453 645.1499 547.7427 640.6833 549.6333 639.4071 548.8456 638.5918 545.4424 636.3939 545.0013 635.5077 543.3627 633.8061 544.9067 630.5802 543.8354 630.9701 544.9698 630.2257 545.6945 625.2274 542.1338 621.966 541.5981 618.8465 543.0161 618.2793 545.1273 613.4227 544.3711 612.0402 544.8437 610.445 539.0772 611.3312 536.6509 610.8349 535.9577 609.5942 533.9725 608.5662 535.9892 607.7154 536.0207 607.5027 538.0374 605.7657 538.1949 605.163 539.2978 606.2265 542.8585 603.426 546.2302 603.3197 547.081 603.107 548.8141 603.7451 549.3182 604.0641 549.4443 604.0641 549.5703 604.0996 549.6018 604.6667 553.2886 604.2059 553.6352 604.3122 555.904 596.5843 557.9207 593.6065 561.6704 589.4235 562.2061 589.778 564.6955 591.3732 566.271 591.0542 570.3359 588.7145 571.0922 587.0839 573.2664 583.2199 573.9281 582.4046 574.8734 581.022 573.8336 579.4268 574.1172 578.2924 575.2831 577.5834 574.8104 576.2364 575.8818 574.0385 575.9763 572.975 577.6149 571.4862 577.4573 571.3798 575.2201 570.3163 574.1172 568.7211 573.1088 566.0624 573.0458 565.6725 575.4406 568.8275 576.9216 567.2677 578.3081 567.4804 580.9865 564.609 580.829 565.6725 583.2868 564.609 586.8475 564.609 586.879 563.2974 583.6964 561.8439 583.4759 561.3831 582.2154 554.9313 582.5305 555.4276 581.1756 553.3716 581.2071 552.7335 580.3563 552.9462 579.1274 554.5768 578.8753 553.1943 576.9216 547.806 574.0857 547.3097 573.3924 544.8283 571.8799 543.9066 571.6593 543.9775 571.3757 544.9701 565.6408 544.9701 565.5463 549.2594 561.6704 556.0303 564.79 560.0715 564.0653 562.872 562.2376 563.0138 562.3952 564.3963 563.4035 564.3254 564.916 565.3889 564.9791 565.6725 566.9327 567.0904 566.9012 569.2529 565.9874 569.3592 564.5694 571.4507 564.5379 571.2026 562.9939 572.1951 563.2145 573.0459 561.9225 573.0459 559.9689 577.9379 558.7084 577.7607 555.5574 576.0946 556.1246 575.102 554.8641 573.9676 555.5574 573.0105 553.3516 571.9116 553.4146 570.1391 550.8623 572.2306 547.4906 572.4433 544.9698 577.3353 542.701 575.9173 541.6926 576.2718 538.4155 575.5628 537.0291 571.5571 536.8085 569.1465 533.6889 568.9693 533.4998 569.1465 529.6555 568.1539 529.561 568.0476 527.8909 570.529 526.9771 569.82 525.3701 573.3295 522.7232 573.6131 521.0531 575.8464 521.9669 575.4919 524.4878 577.8316 526.2209 583.7162 523.7315 584.7088 519.2885 584.7442 519.2255 582.6173 517.776 582.5818 517.776 582.8299 516.7992 584.5315 517.2403 584.8151 517.0512 585.5595 515.7593 585.5595 515.1291 585.5595 514.5619 M 435.7152 568.5398 435.8216 568.4768 436.885 568.0041 438.3739 567.3109 439.8982 569.2645 444.1167 569.6427 445.2865 572.5732 443.8331 572.8252 443.585 572.8568 443.585 572.8883 443.7268 574.3693 441.6352 574.968 438.9056 577.2683 435.7861 579.1274 432.3475 580.829 429.5825 582.1524 424.5132 583.5389 424.4069 583.5704 424.3714 583.6964 423.8042 584.8623 423.1307 586.2488 423.4497 587.8243 421.89 589.1793 423.2725 591.8892 422.599 593.2442 423.3434 596.2377 422.3863 596.8994 422.209 599.3888 417.4233 600.2396 417.2107 603.1386 414.5874 604.8401 412.9213 608.6214 412.0705 612.1191 412.744 614.5454 408.0647 619.7132 407.4266 620.1228 405.4769 621.2887 405.1224 623.8726 405.087 623.9672 403.7399 624.0617 401.2585 624.2192 401.1167 624.2508 401.1167 623.8726 399.9468 621.1312 395.6929 615.9949 395.5511 614.0728 391.7226 615.6483 388.9221 613.4426 385.7671 617.4759 384.3846 614.766 383.711 613.3796 383.5338 613.285 379.1026 615.0811 377.2593 613.9783 378.5 609.6298 379.918 608.6214 377.791 606.6993 378.11 603.4537 379.3153 603.1386 378.7127 600.7437 379.8471 598.2859 376.1958 595.4815 372.2963 595.3554 367.7943 599.6094 365.1356 597.2776 366.5181 596.2062 365.4192 595.7651 366.3763 590.8809 363.2922 590.6603 363.115 589.3684 361.0944 587.9819 360.9526 586.3433 358.8256 585.5556 357.833 583.9485 356.6632 583.4128 353.969 585.209 353.9336 585.1774 352.2675 582.8457 353.7209 580.7659 M 445.2865 572.5732 445.3574 572.7622 446.9881 572.6992 451.1002 571.7854 451.7383 571.1552 454.716 570.6825 455.1769 570.9031 455.425 571.0291 455.6377 571.1237 455.5314 572.5416 459.289 574.9365 458.0483 578.9698 460.8488 579.474 460.5297 581.5222 462.0541 581.6167 461.2387 586.0282 462.1959 587.6353 458.8991 588.36 460.1043 590.4713 460.1043 593.5278 458.1901 596.994 466.2725 596.4898 467.4424 595.1979 470.1011 596.1747 471.2709 593.3387 471.3063 593.2442 471.4836 593.3702 472.4407 594.0005 473.8587 594.9458 474.674 597.057 478.0063 598.9161 479.0697 598.9476 480.4523 600.2711 481.4448 601.2164 481.6575 601.4055 481.5157 601.563 480.3459 602.7919 481.6575 604.6511 481.693 604.7456 480.9486 604.1784 481.1258 605.4704 481.2676 605.4073 480.3105 607.361 477.7227 607.3295 477.1555 609.7243 474.8513 608.9365 474.7804 608.905 474.674 608.9996 472.9725 610.4491 472.6889 610.7011 470.3138 612.7178 468.6122 612.0561 468.5413 612.7808 465.9889 613.159 466.5207 613.6947 465.5281 615.7744 463.1175 616.4991 462.7985 620.5325 461.7705 621.8559 460.1398 621.8559 460.1398 624.3138 457.8001 624.9125 457.871 626.0154 459.2536 625.5742 460.7779 629.5446 463.2948 627.906 464.2519 629.5761 466.4498 629.0719 469.1439 631.5297 472.5825 629.8282 474.674 630.3323 476.0566 633.1998 473.9296 634.2081 474.8867 635.248 477.6518 634.9644 477.7581 634.6493 479.1052 634.3657 479.1406 634.3342 479.0697 634.3972 476.092 637.3907 472.0862 636.5399 466.2016 641.7707 460.1043 642.9681 460.6006 644.7958 457.0557 646.97 453.2626 647.2851 450.3912 645.1739 446.1728 644.5752 442.1315 648.5455 440.1818 649.3333 440.1109 648.7661 436.9559 646.2452 436.9559 646.1822 437.7358 644.071 435.6443 639.9746 433.5528 637.9579 429.547 637.4222 427.5619 640.9514 424.8323 639.691 422.7407 638.7142 422.6699 638.147 422.599 637.2332 422.5281 636.1618 423.9106 634.4602 423.7333 630.5529 419.4794 627.6539 414.5874 628.0636 415.19 626.6771 414.1266 626.9292 413.7366 624.5974 409.4827 624.0302 408.951 621.3833 408.0293 620.4695 407.4266 620.1228 M 416.0054 397.7201 416.5017 398.76 419.1958 401.3438 419.5149 403.2345 415.4736 404.6525 414.2684 404.2743 411.8224 405.6608 409.0219 408.4338 412.2123 408.9379 412.1768 409.19 412.1414 409.3476 412.1059 409.7257 410.4398 410.8286 410.1562 411.0807 409.8726 412.5302 406.3986 413.9166 406.0087 414.0427 404.9806 411.4903 402.7828 410.8601 M 446.35 385.62 446.3146 385.5885 446.1373 381.7442 443.3014 380.5468 440.9617 380.8934 440.3591 381.177 440.2527 382.2798 436.7078 385.746 438.303 389.9685 437.2395 390.2206 436.2115 386.6914 435.2544 388.2354 431.8158 388.1724 435.1835 393.6867 436.9205 392.7729 M 431.7094 396.4912 434.2972 394.1279 431.4967 391.8276 430.9295 391.9536 428.6608 395.5774 M 427.7037 396.0185 427.3492 396.2076 423.1661 394.9472 422.1027 394.6951 420.8974 395.2623 M 435.0417 467.1067 434.8644 467.1067 436.4242 467.6109 436.9205 467.989 437.8422 469.6591 439.9337 470.1633 440.04 470.3523 438.693 473.787 437.5586 472.9362 434.829 474.7008 432.4184 473.4719 428.8735 474.2912 428.8026 477.2217 427.3846 479.9316 425.4349 480.7824 424.5132 483.3663 424.0524 483.8704 M 573.2232 494.7101 570.7417 494.7416 570.7063 494.7416 564.0064 498.1133 561.6667 500.9178 561.135 501.1068 559.1498 501.8001 558.8662 501.9261 557.271 501.9891 554.8959 499.1216 551.8472 500.0355 550.4293 499.2162 546.4235 501.4849 543.3039 502.0836 525.9692 498.7435 522.6724 498.712 521.8571 500.0985 521.7153 499.8149 519.8719 496.3802 518.7021 495.9075 521.538 491.0234 524.8703 490.0466 524.5512 488.5025 522.3888 488.1244 522.3179 487.2421 527.2099 487.5887 530.1877 491.1494 531.7829 489.5109 539.05 486.7064 540.1135 485.509 540.4325 484.4061 540.2198 483.7444 535.8596 485.0994 531.6057 484.4376 530.0104 486.1707 525.8629 484.4376 526.1819 482.2319 528.6634 481.3496 525.4729 476.623 527.848 476.1818 527.529 477.3477 529.6205 479.585 530.4358 483.4923 532.4564 477.3477 530.6485 475.1735 530.4713 474.9529 530.4004 474.8899 530.4358 474.7323 530.7549 472.6841 530.7903 472.369 531.0385 472.243 531.4284 472.0224 532.6691 471.3922 533.839 471.3607 M 519.2693 469.6906 519.2693 469.7536 517.7804 468.8713 515.8662 470.1318 517.0714 472.8102 513.9519 474.5748 514.8027 475.0474 513.7037 475.8667 512.2503 476.0873 512.5339 484.154 509.8752 484.8158 509.9816 484.091 508.8826 483.902 507.9255 485.0363 507.0038 484.6897 507.3938 485.4775 505.4795 487.1161 498.1769 485.9502 497.2198 485.383 497.6806 483.9335 495.7664 484.4061 494.3484 483.4293 493.1077 479.4274 491.158 478.7657 490.1299 479.9001 489.1374 476.4654 487.6839 475.8982 486.8331 476.749 486.1242 482.2319 489.1019 487.5887 489.1019 487.6832 489.2792 490.0781 489.3146 490.7398 487.2231 491.496 488.003 492.977 488.3575 493.3867 489.3146 493.1346 489.3146 491.37 491.0162 491.496 494.1712 494.0484 495.6246 493.1661 495.9082 493.2606 496.05 493.1976 499.914 494.4265 500.8356 494.206 502.1473 493.8909 502.5727 493.7963 503.4234 497.4201 501.2256 497.4516 501.2256 500.9178 502.0764 501.548 498.3187 502.2412 498.4251 504.2894 496.6881 505.1087 496.7944 505.9595 493.3204 505.6759 493.0013 506.4321 492.3632 505.3923 491.8315 506.3376 487.0458 499.7519 484.5998 492.977 483.7491 493.1346 484.139 497.1365 481.9057 497.4831 482.6147 499.9724 481.1967 503.8167 484.7062 503.3756 484.7416 503.4386 485.0607 503.9113 485.2025 504.1634 485.0252 504.3209 481.9057 508.0077 482.5438 510.6861 478.6444 512.0095 479.7433 515.3497 478.7153 515.5387 478.7507 517.2718 476.4465 517.8075 476.0566 518.2487 474.4613 520.0133 474.355 520.1393 474.1423 520.0763 469.2503 518.6898 469.463 519.7612 468.2222 520.7065 467.3006 517.9966 466.9815 517.902 464.9609 517.65 462.444 519.4461 462.3731 519.5091 461.6996 525.055 458.1901 525.5276 459.4663 531.3256 459.0763 537.9429 458.1901 537.9114 455.2123 543.3627 454.6806 543.6148 453.9716 543.9929 453.688 544.119 453.4753 543.9614 451.2775 541.9132 450.214 540.9679 450.1785 540.4952 M 425.6476 130.0995 425.6476 129.8159 423.6979 128.2088 423.5915 128.2403 416.3244 130.0364 419.5149 125.4989 422.6344 124.27 422.6699 124.2385 421.89 123.6713 423.1307 121.0244 422.2445 119.0392 421.3582 119.1968 421.5709 115.3209 417.2461 115.6676 418.026 113.0837 416.1117 109.9011 414.8355 109.9641 414.8355 108.9243 413.4885 110.3422 412.8858 110.9725 413.0631 112.2014 413.5239 115.8566 408.561 118.7241 407.2848 114.8798 408.2065 112.0123 402.8537 113.4618 400.0532 115.3209 397.1463 115.5415 397.7135 114.3756 396.8627 112.7055 395.7638 112.9576 395.1966 111.067 392.7861 109.3654 392.9988 106.5294 390.3046 105.3005 387.5396 109.4914 387.2205 108.1365 384.1719 107.6953 383.0375 106.5294 380.8396 108.4201 376.373 106.687 371.4101 109.9641 367.5107 110.4053 364.0721 109.3024 362.7605 111.4136 362.2642 109.523 350.814 108.6407 350.9558 109.4914 348.1199 112.4219 345.6739 112.7686 345.8157 115.636 342.0581 115.636 341.5618 117.2746 339.2576 116.928 339.2576 119.5434 337.5914 119.953 340.3919 120.7723 339.6475 121.4025 340.8528 121.8121 339.4703 121.8121 338.974 123.4507 337.0243 123.4507 336.4216 124.6796 334.0111 124.0809 334.4719 125.877 332.5931 126.9484 333.0894 129.8474 329.2963 129.6583 329.5799 131.0763 326.7439 130.8872 326.7085 132.3997 323.199 132.7149 323.6599 134.1644 321.1075 134.7946 307.3177 134.7946 307.3177 133.5656 310.5791 133.5341 310.5791 132.1162 306.396 131.7065 301.4686 129.4377 297.4982 129.4377 296.9665 128.2088 297.9945 126.5072 294.2369 126.3497 293.7761 124.7111 291.8973 125.3413 291.8618 123.5452 290.9756 123.5452 290.9401 119.9845 289.5576 119.5749 289.5576 117.9678 296.0094 114.5647 315.3293 107.2857 320.6821 95.9103 327.9847 88.3793 345.9575 57.8454 356.3441 23.9083 374.5297 17.2595 393.5305 12.8165 408.1711 1.3781 408.6319 1 408.8446 8.0899 402.3928 14.4236 400.7976 17.8898 401.542 21.3559 438.0549 23.026 438.0903 23.1205 438.1967 23.1205 438.1258 25.7674 436.4951 26.2086 434.12 28.6664 434.5454 30.8092 436.2469 30.3365 436.7078 33.2985 431.8867 33.393 432.2057 36.3866 430.1851 37.0168 430.0788 39.7582 429.1571 39.8527 429.2634 43.0353 427.5973 43.697 427.8455 41.6804 423.3788 41.6804 423.0952 44.6739 421.9609 44.7369 421.2519 43.4765 418.4159 43.2874 418.4159 42.6257 415.8281 43.634 414.9064 42.7832 412.7795 44.4848 409.2346 44.4848 409.2346 46.0919 407.3912 46.1234 407.3557 48.7388 406.3632 49.4005 405.4769 48.1401 404.3071 48.1401 405.4415 49.2429 401.0103 48.8333 395.7993 50.2513 395.7993 51.4487 398.1744 52.9927 398.458 54.5998 397.2881 56.3013 400.2659 56.2698 402.8891 54.3792 405.0161 55.8602 405.3351 54.0641 406.2923 54.2531 405.9378 56.4274 407.533 56.4274 407.6039 58.192 403.2436 58.192 403.2082 59.0113 407.3912 59.1373 405.796 61.6897 407.143 62.9186 405.9023 63.4228 407.7102 64.0215 408.1356 65.8491 407.2139 66.6999 406.4695 65.8491 406.7176 68.2439 405.796 68.2439 405.8314 69.0002 400.7622 69.0317 400.7976 71.584 402.641 72.2143 401.8256 75.901 405.6896 76.1531 409.6954 73.4432 411.4324 79.4932 412.8858 79.9974 412.8149 83.7472 415.2255 83.7472 419.444 86.3941 420.8974 83.0224 423.8397 82.9909 426.0375 81.4784 426.2502 80.218 429.547 79.8398 429.7952 78.8 432.8438 80.0604 433.5173 82.3607 430.7877 82.7703 428.129 84.5034 430.7523 87.749 430.4333 88.7574 428.6253 89.3246 430.1851 90.1123 429.1925 92.9483 429.9015 94.1142 429.5116 96.1939 426.1793 97.1708 425.8957 99.6916 423.3434 102.307 423.1307 103.6305 423.0952 103.8825 421.2873 103.9456 418.5223 107.1912 414.8355 108.9243 M 218.588 208.4351 217.7372 209.3174 218.8362 211.2081 219.6515 212.5631 220.2896 211.2711 222.4166 212.6891 222.5229 212.6261 222.771 212.5315 223.6218 211.6807 223.7991 211.2396 223.1964 210.4833 226.0678 206.7651 227.9821 207.0487 230.0736 205.095 232.0942 205.0635 235.5328 206.9857 237.4825 209.349 242.1264 211.5232 243.0481 213.3193 241.9846 214.5167 243.0835 218.6761 244.2533 219.5584 238.546 223.5603 238.1206 223.8439 238.0497 226.2387 238.2624 226.4593 242.2327 226.5853 246.0613 227.9718 246.0967 228.0033 248.9327 229.7994 249.4289 231.438 256.1643 226.9635 260.1346 228.4445 256.5188 236.9524 254.6045 239.7883 252.7612 240.4816 254.8881 241.1433 254.7109 241.2378 253.8601 241.679 252.8675 242.1831 251.8041 243.4121 251.5205 245.2082 251.5559 247.1303 251.5205 247.4769 251.166 247.4139 251.1305 247.7605 248.5427 246.6892 248.4364 247.8236 245.3523 249.4306 243.6862 248.1387 243.9697 246.3741 241.8782 243.9477 242.4809 242.7188 238.9005 240.4816 241.0275 238.6224 233.9376 235.5029 231.7043 237.2044 229.4001 239.5362 226.4578 241.2063 222.5583 240.2925 220.0769 243.3805 219.6515 248.1387 218.2335 247.1618 214.2632 247.666 212.1362 251.3528 213.1643 255.008 212.8452 260.4594 215.0431 263.768 219.0489 264.9654 221.6012 270.5743 221.4949 275.1119 225.217 274.7022 225.9969 278.6095 228.7265 279.1767 233.264 281.8551 231.8106 286.3927 234.1148 287.8422 232.4133 289.2917 233.2995 289.7959 233.973 294.2704 232.8741 297.2954 236.6317 299.123 238.7587 301.7069 238.6523 304.2908 237.4471 304.984 238.4397 306.7801 237.1635 308.8283 234.5048 309.238 233.5831 310.4984 234.8947 311.1601 234.7529 312.9878 237.3407 315.8237 237.2698 316.9266 235.781 316.8636 232.945 320.3613 235.3556 323.4178 234.8238 323.985 238.3333 327.5772 231.9879 336.8099 236.4899 341.0953 235.9582 350.4225 235.3556 350.4225 233.0159 350.391 231.3498 350.8321 227.8049 353.3215 219.7224 355.1806 218.8362 351.4308 214.7595 348.2798 212.8807 349.6978 212.4907 351.935 211.4982 351.9665 210.1511 350.8006 207.2442 350.6116 206.9252 349.3196 203.6993 347.1454 202.4231 346.6097 199.9771 347.429 196.2549 345.5068 195.1915 344.3724 196.0068 343.175 194.3052 338.543 192.2846 336.6838 190.6894 336.3057 185.8683 338.0388 182.9614 340.6857 181.1535 339.2047 179.5583 335.707 178.9202 336.1796 178.2467 337.125 168.3209 344.0258 166.5484 342.6709 165.5558 340.1185 164.386 339.8349 157.9697 342.0406 155.2046 345.2547 155.8427 347.3029 151.4115 354.2983 150.0999 354.7395 145.4915 352.9434 144.0026 353.8572 145.0307 355.4957 143.6836 356.5041 139.6778 356.8192 138.5434 358.6468 134.0414 360.0648 133.2615 361.9239 139.3233 361.9869 139.6424 364.1297 142.1947 366.5875 143.1873 369.6125 140.8122 371.9128 138.5434 372.0074 133.1906 375.0324 135.7075 379.2548 134.8567 380.6413 133.2615 379.6014 133.1906 377.3642 126.6324 370.3373 115.1823 369.4235 112.3464 367.2177 112.8072 363.1528 109.6522 363.0898 107.2417 364.4133 98.7338 364.2557 93.1683 366.619 86.9292 366.3984 86.362 364.7599 84.8731 364.2872 80.761 369.3289 75.0182 369.1399 74.1674 368.163 72.4304 368.2891 72.2532 367.4068 70.5161 368.0055 67.8929 371.4402 67.8929 371.4717 66.0495 368.9823 60.6258 368.1 63.7453 359.4346 62.6818 355.4642 64.667 348.2483 63.639 332.1778 58.4988 328.9322 52.9333 327.7033 37.4774 329.6884 31.6991 328.7431 28.9341 327.9238 22.3759 322.7876 3.3397 314.7208 1 309.1434 3.6233 290.5206 10.3232 274.7652 20.7807 265.6586 35.3859 254.9135 41.8022 246.2165 50.1682 240.324 59.8459 218.2665 68.3537 209.6326 74.6992 206.45 81.6118 199.5491 93.8773 197.2803 101.3571 199.6752 109.3332 207.7104 109.9713 216.2183 116.7775 225.9236 126.9869 227.3416 130.1065 226.995 157.2961 215.5566 173.4256 212.1849 199.1618 211.7123 218.1272 204.7169 218.588 208.4351 218.1272 204.6223 220.2541 204.1182 222.9128 189.5602 229.1165 181.714 241.4883 172.1978 248.1882 164.8243 256.6606 139.8048 266.1256 129.4693 273.0028 126.8539 289.5576 117.9993 289.5576 119.5749 M 474.4613 520.0133 477.1909 519.5091 478.7153 521.3367 481.6575 522.093 482.5792 521.0216 485.1316 521.3367 485.7697 522.7547 485.0252 524.2357 488.4993 523.574 488.712 523.5109 488.7474 524.6768 488.7829 525.244 488.7829 525.3701 486.0533 527.5758 485.7342 529.435 484.4226 529.3089 483.9618 531.3256 482.0475 533.1532 482.0829 537.5647 482.0829 537.6278 479.2115 540.6213 479.6369 541.9132 489.9172 541.8187 492.5759 543.2682 492.6114 543.9299 493.5685 544.6862 493.5331 544.7177 490.9807 548.1208 492.505 549.5703 493.1431 553.9818 494.4902 555.0217 494.7384 556.8493 496.5108 557.5425 496.4399 558.992 499.5595 560.284 500.3393 561.5444 498.7796 563.2775 498.2124 566.4286 495.6955 567.752 494.313 570.1783 494.7384 571.2182 493.0722 575.4091 494.1003 578.2136 493.1786 582.5936 495.0574 582.373 496.5108 585.272 495.0574 586.0282 496.1563 588.4546 494.7029 589.3684 494.8092 591.6056 492.8241 592.5825 492.9659 592.677 494.8447 594.1895 496.1563 597.6242 494.2066 598.5695 493.1077 598.0023 493.1077 597.9708 488.0739 604.5881 484.0327 606.3527 483.2528 604.6826 481.3031 605.3128 481.2676 605.4073"/>
</g>
</svg>