<?xml version="1.0"?>
<svg xmlns="http://www.w3.org/2000/svg" version="1.2" baseProfile="tiny" width="800" height="799" viewBox="0 0 800 799" stroke-linecap="round" stroke-linejoin="round">
<g id="TG" fill="none" stroke="black" stroke-width="1">
<path d="M 317.4201 125.2785 317.0484 125.3466 316.2308 127.3895 316.0822 128.3429 315.7105 128.5472 310.3588 131.4754 308.8722 136.3784 306.7167 137.7404 306.568 137.8085 306.4937 137.8766 298.4661 125.3466 290.8845 121.7374 291.4048 115.881 282.1136 117.9239 270.4439 128.6834 265.0922 123.4398 261.6731 123.7122 252.1589 130.7263 249.7804 137.7404 239.4486 135.357 237.8877 144.4821 237.8877 144.7545 234.9145 144.8907 227.7789 145.2311 226.1436 145.2992 222.4272 144.0735 221.1636 140.6686 212.3927 137.6042 212.244 137.5361 208.7506 129.0239 204.0678 127.73 202.3582 124.1208 195.2226 119.354 189.6479 119.2859 188.8303 119.2859 188.4586 118.1963 187.7897 116.0172 184.6678 114.2466 183.8502 109.4117 186.8977 102.6019 184.6678 99.1289 188.3843 100.2185 191.5805 95.9964 198.0471 95.9283 203.1015 90.5486 206.2977 92.0468 209.7168 90.4805 210.6831 85.7137 207.5613 73.7285 203.8448 71.4812 203.9935 69.7788 207.6356 70.4598 209.5682 68.4849 209.9398 61.0623 206.9667 53.5034 201.5406 49.758 204.2165 44.4464 211.2034 44.7188 212.5414 41.8587 217.2984 40.3605 216.9268 35.9342 221.4609 27.1496 220.3459 22.8594 215.5145 20.5441 215.9605 15.9815 208.8249 15.3686 206.0004 12.3723 210.2371 1.0681 214.8456 1 213.6563 4.8816 215.8118 7.0607 224.657 7.6736 225.6233 14.4153 228.4478 16.7306 234.6172 20.476 242.5704 19.9993 245.9896 24.8342 249.3344 23.8809 250.8953 19.7269 258.1053 18.7054 285.6071 25.1747 290.7358 29.9416 294.824 26.6729 298.0201 28.7839 303.0745 27.6262 306.9396 31.9164 314.5212 30.8268 318.2377 44.9912 316.6768 51.0519 323.4408 51.7329 326.7856 48.8047 336.8944 51.5286 336.8944 62.4242 340.3135 65.8972 333.4009 69.915 333.1036 72.2303 332.9549 72.2303 333.1036 72.3665 335.8538 75.499 334.2928 79.3125 335.6308 81.764 340.6108 83.8069 331.3197 89.3909 326.7856 87.0756 323.0691 92.6596 316.8998 92.3192 310.5818 103.8958 308.4262 104.1682 317.1228 107.7093 317.1971 120.3073 317.1971 125.2104 317.4201 125.2785 M 253.4968 497.2968 253.6455 497.7735 255.8754 497.7735 254.1658 502.8127 249.2601 502.2679 249.1114 502.1998 249.3344 508.1243 243.4624 508.3286 240.9352 511.3249 239.0769 508.6691 238.4823 507.1029 237.5904 506.5581 232.9819 503.8342 233.7252 501.7912 236.6241 502.1998 233.6509 500.0207 233.9482 497.5692 222.4272 496.6158 227.4072 494.9134 226.9613 491.849 229.1911 490.6913 227.4072 487.695 230.3061 485.3797 229.7114 484.6987 230.2317 484.0177 232.6103 483.1324 238.9283 483.4729 239.2999 482.9962 240.4892 481.0214 243.1651 476.595 243.4624 476.4589 243.2394 479.7956 245.0976 481.2257 248.8884 478.8423 247.9965 475.9822 252.3076 476.1184 251.4156 484.2901 257.5106 484.903 253.0509 487.8993 254.6118 491.2361 252.3076 491.7128 252.3076 491.7809 252.4562 492.5299 253.3482 497.2968 253.4968 497.2968 M 404.5341 215.5081 403.4192 218.5044 400.8176 219.5939 398.5134 222.1136 398.4391 222.8626 396.7295 224.1565 391.3778 228.0381 390.5602 228.651 390.1142 228.5829 377.4039 227.4252 374.951 233.2816 371.0115 236.5503 367.5181 236.2779 370.1196 241.4533 367.1464 246.0159 365.7342 248.1269 358.3756 247.3778 358.3012 247.3778 358.2269 247.3097 357.2606 244.9944 355.3281 248.6036 352.6522 249.0803 349.0844 247.2417 346.8545 243.0877 345.2936 243.292 343.138 244.722 342.6177 246.1521 339.2729 256.0263 343.5097 262.4275 343.361 262.6318 343.2124 262.9041 342.3204 263.9256 337.8607 262.4275 337.1917 262.3594 333.6982 260.9974 331.6913 264.4023 331.394 264.2661 330.8737 264.1299 328.8668 263.3808 326.6369 267.6029 324.7787 258.4097 316.4538 260.1121 304.8584 253.7109 298.8377 254.1195 297.6485 251.8723 288.06 249.8294 281.1474 253.2343 273.6401 242.6791 275.201 234.3031 274.6807 234.0988 270.3696 232.3963 263.9029 233.8264 261.8217 230.8301 258.2539 229.9448 260.3351 222.8626 257.8823 216.121 256.0984 215.7805 256.3957 207.0639 254.9834 202.2971 250.6723 200.7309 253.2738 191.4696 254.4631 190.6524 255.1321 190.2438 254.7604 189.9033 256.8417 190.2438 257.0646 190.3119 257.0646 190.2438 258.5512 185.4088 258.9972 184.0469 265.2409 178.5991 268.7344 182.4806 274.532 183.9788 284.1205 174.5132 285.9044 173.4236 299.1351 177.4414 302.4056 172.3341 310.6561 170.0868 315.2645 165.9329 328.7925 173.696 335.3335 165.4562 349.456 164.9114 349.9763 164.9795 358.4499 170.0187 362.315 175.1261 367.6667 191.4696 381.1947 205.3615 391.9724 207.4725 398.5877 213.2608 400 213.8056 400.5946 214.2823 401.6352 214.4185 404.5341 215.5081 M 446.0842 415.1027 446.0842 419.1205 444.3003 424.0916 441.4015 423.0021 439.5432 424.7726 444.0773 428.8585 439.5432 432.6039 441.4015 434.3744 439.6175 438.5284 441.2528 440.8437 447.6451 441.1842 448.0168 446.7001 451.1386 445.7467 455.747 449.5602 457.4566 448.9473 453.8145 453.6461 450.544 453.0332 445.4152 455.6209 446.3815 460.3878 446.4558 461.0006 449.7263 461.6135 449.875 466.9933 450.9899 468.0828 447.4965 473.7349 437.908 469.8534 429.6574 469.4448 426.1639 472.9859 420.4406 470.3981 419.9946 470.6705 419.0283 471.1472 416.5011 472.5092 416.7984 473.8711 417.0958 475.3693 417.839 476.1184 415.7578 476.1184 409.6628 482.3153 401.3379 478.7061 402.9732 475.3012 399.2567 473.1221 395.4659 478.1613 395.1686 478.0251 390.4858 473.3264 392.9387 472.373 391.0061 467.2656 384.1678 468.5595 381.5663 466.789 381.7893 464.6779 379.2621 464.4055 378.3702 457.9362 375.174 455.6209 376.3633 448.8792 371.9035 444.7934 371.0115 439.0732 365.0652 437.9836 359.0445 429.88 354.5848 428.518 352.9495 431.7867 350.4966 431.1057 344.7733 423.6831 345.8882 419.8015 343.807 415.307 343.7327 415.307 335.5564 416.3966 327.5289 411.6297 325.968 413.1279 319.5013 412.1064 319.7243 409.1782 323.8867 405.9776 330.4277 406.931 330.2047 401.4151 331.5427 399.4402 332.8063 399.0997 337.489 400.1893 345.3679 405.2966 349.5304 399.2359 353.2468 399.985 354.1388 402.1641 358.3012 399.7126 363.5786 399.7807 369.8966 394.1286 365.5855 391.7452 371.3089 385.4121 373.6874 381.6667 372.7211 379.2833 375.5456 376.5594 385.4314 375.5379 390.3372 376.6956 397.0268 378.1937 398.5134 379.2152 397.8444 384.2544 408.9195 385.9569 412.5617 390.3832 421.5555 394.401 422.6705 392.9709 427.6505 395.3544 432.1103 392.3581 432.1846 392.3581 432.1846 392.4262 433.2996 398.6231 435.3064 399.4402 438.9486 396.9206 439.6919 396.1034 439.8405 396.3077 441.4758 398.3507 443.9287 401.4832 443.8543 401.8237 441.4758 409.9273 446.0842 410.404 446.0842 415.1027 M 593.2563 259.7716 609.8318 258.7502 613.9199 255.5496 616.7444 258.614 629.752 251.8723 636.07 251.5999 641.4961 254.0514 645.3612 260.1121 665.5045 272.9145 665.3558 276.3875 668.9236 282.0396 678.7351 289.1218 676.9512 292.1862 681.2623 294.9782 684.4585 294.3653 681.4853 298.5874 687.2086 314.7947 696.0538 324.1922 684.9044 331.6148 684.9044 340.3994 688.6209 341.489 688.5466 341.8976 688.3236 341.8976 688.3236 343.4638 688.3979 360.6245 680.519 350.2736 677.3972 350.2055 674.201 346.1197 676.9512 344.0767 674.0523 342.6467 670.1129 349.3884 664.4639 347.2092 662.68 349.7288 666.5451 350.546 664.9842 353.6104 661.342 351.908 658.5918 358.8539 655.47 361.9183 652.4968 364.2337 651.0846 364.0294 646.8478 352.3166 635.9214 360.6245 631.8333 357.3558 630.1237 363.2122 627.8938 361.9183 625.218 363.2803 617.4877 359.0582 608.6425 367.8429 607.6019 372.2011 602.6962 375.8103 601.4326 379.8281 598.4594 381.9391 594.6686 381.5986 593.7766 386.0931 593.7023 385.344 587.8303 376.5594 582.9989 376.0146 583.9652 373.6993 581.8096 370.3625 583.8908 366.0042 570.1399 358.6497 569.248 356.4705 556.4633 361.2374 549.625 355.1086 546.5032 352.3166 546.2802 352.3166 544.1246 352.5209 539.3675 354.019 536.9147 353.1337 532.6779 357.5601 528.5155 358.6497 518.4067 358.2411 518.927 355.8576 504.7301 357.0834 505.6963 352.9294 509.5615 348.9798 510.0818 349.116 513.3523 345.643 510.5278 344.0767 508.9668 338.6289 514.1699 335.3602 510.5278 333.113 512.3117 324.2603 519.2986 319.2891 517.8864 316.5652 520.0419 313.0922 530.0764 312.8198 531.9346 308.6659 521.3055 302.5371 519.6703 297.0211 525.7653 295.6592 538.9216 299.5408 549.179 296.0678 555.3484 299.2003 562.93 298.315 574.674 306.7591 583.2962 298.9279 586.2694 266.4452 586.2694 266.3771 593.2563 259.7716 M 198.7161 771.2542 199.3107 770.5733 199.3851 778.3364 186.3031 783.3075 185.3368 784.8738 187.3437 786.7124 184.5192 793.386 176.7146 794.067 176.4173 797.6762 166.6058 796.7909 164.2273 792.705 159.3959 790.1173 159.0242 784.3971 156.497 783.7842 151.9629 792.705 145.4219 788.483 137.9147 788.483 128.4005 784.0566 122.6028 788.4149 111.8994 790.2535 96.3646 786.0315 90.2696 788.483 83.7286 788.0744 74.3631 781.7413 70.7953 782.899 55.1861 779.9708 55.3348 764.104 51.3953 758.4518 53.9225 750.1439 51.321 748.8501 52.8076 744.9685 55.1861 744.5599 50.5777 742.3127 49.9087 733.8685 52.8076 722.36 55.6321 721.2023 51.098 720.93 50.652 715.8226 53.5509 711.8049 56.8957 711.3963 59.7945 713.5754 61.4298 708.7405 64.9232 706.7656 71.6872 708.4681 69.9033 700.4325 80.3838 694.8485 80.6811 694.7123 84.0259 694.8485 85.3638 694.9847 86.8504 695.0528 88.0397 696.3467 106.3247 705.7441 133.1576 724.1306 136.9484 727.944 139.9216 742.4489 155.9767 754.0255 163.8556 762.8782 175.7483 766.1469 176.8633 766.4193 178.7958 771.2542 181.1 775.272 193.513 776.634 198.7161 771.2542 M 367.1464 246.0159 367.8154 251.3275 367.2951 253.5066 368.0384 253.3705 374.4307 252.349 379.9311 247.2417 381.715 255.7539 385.5058 258.7502 385.7288 262.1551 390.4858 264.2661 387.6613 270.5311 387.7357 278.9071 391.8238 287.5555 400.669 281.2225 405.426 281.1544 418.4337 289.939 439.9892 299.4046 440.4352 299.6089 443.4827 298.5193 451.5102 295.6592 452.4022 295.3868 454.1118 293.8205 456.3417 292.1862 459.0175 294.2972 458.7945 306.8953 458.1999 314.5904 454.9294 316.429 455.5984 323.5793 455.5984 323.6474 454.2604 323.1026 453.6658 322.8302 453.3685 323.5112 453.0712 326.7118 450.9899 328.3461 450.3953 328.7547 450.0237 329.0952 449.5034 328.8909 438.131 330.1167 435.8268 342.9191 433.0022 343.9405 432.036 343.8043 428.8398 343.3276 423.5624 342.5786 423.1164 346.1197 419.6973 344.4172 417.0214 347.6859 409.5142 346.0516 404.4598 349.5926 404.3854 349.5245 402.3785 345.5068 402.0069 345.4387 394.574 344.8939 393.3847 339.0375 386.7694 340.8761 387.0667 343.4638 382.3096 341.7614 377.3295 344.281 374.0591 341.6252 372.4238 334.7473 366.7004 331.751 366.7748 328.6866 369.6736 327.529 369.079 325.1455 371.6805 322.013 368.0384 318.2677 359.7135 319.2891 357.8553 317.9953 357.4836 317.6548 359.6392 313.2284 357.2606 308.1211 357.1863 308.1211 356.1457 308.053 352.8752 307.8487 351.9832 309.1426 349.3074 313.0922 347.8208 307.5082 350.4223 303.4904 347.2262 300.0174 346.6315 299.4727 349.1587 296.953 344.9963 296.8849 340.5365 291.5052 341.3541 288.6451 343.9557 288.8494 343.138 284.7635 335.4078 288.3046 330.6507 282.2439 330.502 282.1077 336.5971 274.8213 337.935 270.2587 335.6308 266.7857 337.1917 262.3594 M 709.9534 524.2635 720.4339 527.396 721.4001 539.5174 712.7036 538.9045 710.4737 546.3272 712.109 549.7321 710.3994 554.6351 712.2576 556.61 706.0883 562.5345 685.2761 554.7713 677.5458 553.9541 672.4914 557.359 668.6263 556.9505 669.2953 552.8646 671.8968 550.5493 666.3221 547.6892 666.9911 546.191 661.7137 545.2376 654.2064 540.4708 650.9359 544.3524 641.3474 546.5315 639.6379 556.9505 636.8133 560.4234 633.0225 560.4915 631.7589 564.5093 626.6302 563.0112 622.3934 555.9971 622.7651 552.3198 616.5958 556.4057 620.4609 567.2332 616.6701 568.5271 611.913 574.9964 628.7858 579.1503 637.3336 584.5301 638.4486 578.8779 643.726 580.5123 645.3612 577.8565 658.5175 586.2325 655.6187 589.0926 657.3282 592.9061 651.9765 595.8343 650.8616 602.9846 660.6731 610.6796 657.5512 610.952 652.3482 615.6508 631.6846 610.271 631.6103 605.5042 624.6233 601.9631 624.4747 599.7159 615.9268 596.6515 614.8118 599.2392 620.6095 599.9883 619.8662 603.1889 615.2578 605.9809 613.9942 599.1711 607.5276 597.741 608.1222 594.8809 603.8111 593.8595 604.1827 588.6159 601.8042 586.6411 602.7705 580.4442 600.5406 579.4227 600.8379 575.4731 597.6418 574.043 598.3107 571.0467 596.1552 568.8676 592.6617 570.9105 585.0801 567.3694 582.2556 568.3228 579.3567 561.7854 577.4985 566.416 570.8832 569.0038 568.356 572.2044 559.5108 572.2044 558.8418 576.5626 551.8549 575.9497 551.7806 575.9497 553.0442 568.5271 548.1384 565.5989 548.733 560.3553 540.2595 555.5204 540.1108 555.3842 539.8135 555.0437 530.448 544.0119 525.022 545.0333 523.8327 541.288 517.7377 536.453 516.8458 532.5033 518.704 529.507 521.7515 529.0304 521.5285 520.7905 509.7845 515.8194 507.8519 517.5899 504.5071 512.6869 502.2029 509.3501 502.6488 507.1029 502.7232 506.8305 508.0006 504.7194 516.6228 505.809 517.2917 501.3145 520.5622 500.7017 522.0488 496.9563 527.4005 498.7949 528.5898 493.1428 535.0564 490.9637 539.2932 492.3256 539.4419 499.2035 551.1859 502.6765 555.4227 501.7912 557.7269 498.6587 562.1123 500.2931 564.4909 495.5943 569.025 493.4152 572.3698 496.752 574.1537 484.6987 580.6203 484.0177 579.2081 477.3441 580.0257 475.2331 580.769 477.6846 583.2219 477.4803 585.4518 471.7601 585.5261 466.7209 580.3974 461.3411 585.8977 462.4307 586.5667 459.7068 595.7835 464.3374 598.0134 461.7497 596.1552 460.3197 597.2701 458.5491 604.1827 460.7964 612.9536 459.4344 610.5007 466.5847 608.0479 465.8356 607.3046 468.2871 608.6425 475.5736 611.3184 475.3693 611.467 472.5092 618.454 467.1975 625.218 473.1902 614.3659 488.9207 620.3122 488.1036 628.1168 490.1465 634.1375 495.1857 631.9819 497.9778 638.8202 498.7268 645.4355 495.3219 646.4762 499.8845 649.5237 498.4544 649.598 503.698 654.6524 500.6336 656.6593 495.7305 659.3351 495.6624 661.9367 497.7735 660.0041 500.7698 661.0447 503.3575 663.7206 504.1747 664.8355 499.4759 667.1397 500.0207 667.0654 502.6765 673.755 504.3789 674.3497 512.4145 676.2079 513.9126 676.3566 513.8445 682.0799 510.712 687.1343 513.436 689.5872 509.0096 692.4117 510.1673 693.0807 504.447 699.696 504.5151 703.4124 499.4078 708.7642 499.1354 712.109 518.6114 709.9534 524.2635 M 333.1036 72.2303 340.5365 72.3665 341.9488 70.1193 345.2193 74.2051 354.5848 72.5708 364.3962 75.6352 382.9042 90.0038 389.2966 88.029 385.4314 83.1259 392.4927 75.0904 391.8981 70.8683 395.0199 63.7862 392.1954 61.2666 393.7563 59.2236 398.8851 62.6966 405.5004 63.1733 406.9126 69.0297 407.8046 66.9868 417.0214 67.123 424.7517 75.0223 427.7249 76.18 430.252 74.7499 437.685 81.9683 446.9018 78.0867 446.9018 73.5923 450.6183 71.4131 453.5915 77.2695 461.7677 80.6744 465.5585 70.3236 468.5317 67.5316 484.0665 65.4886 490.7561 60.7899 498.1148 62.8328 505.0274 67.5316 507.4059 73.5242 514.4672 79.9254 524.2044 82.7855 530.1507 87.8928 530.671 91.8425 535.9484 99.197 536.989 103.7596 532.9009 114.3828 534.3132 120.2393 528.5155 128.0705 526.2113 135.5613 530.225 146.9336 527.4749 149.317 526.0626 147.4103 512.4603 145.9121 501.6826 150.0661 498.6351 148.0232 499.3784 143.733 496.4795 142.5753 493.2833 144.1416 488.9722 143.3244 484.2152 139.1704 477.6742 140.8048 478.2688 135.6294 474.9983 137.0594 473.5117 132.6331 474.8497 128.8877 467.2681 129.7729 465.5585 125.6871 454.7064 129.092 452.9968 128.0705 455.524 124.4613 446.6045 123.9165 446.3815 122.6227 444.1516 127.2533 449.2804 129.4325 447.9424 130.5901 452.6252 140.1919 439.4689 140.3281 437.5363 143.052 438.9486 143.8011 435.9011 146.1164 425.272 140.3962 412.0414 136.4465 411.8927 138.4895 414.1226 138.5576 413.6023 145.0269 407.5816 147.7508 409.3655 151.2918 407.3586 161.6427 399.7027 156.8759 397.7701 173.0831 393.3104 173.8322 389.7425 173.2193 383.7962 163.5495 375.0253 161.5746 366.0315 146.525 359.2675 143.1201 356.889 138.898 346.7802 136.9232 345.2936 136.6508 343.9557 133.9269 340.0162 134.3355 336.7457 131.203 336.4484 131.0668 336.3741 131.0668 334.2185 130.3858 324.853 123.0313 323.2178 126.3681 317.4201 125.2785 M 457.4566 448.9473 458.4229 447.5854 465.4842 446.0872 466.0045 448.8792 473.2887 447.6535 474.7753 443.4995 478.9378 442.478 480.6474 436.2131 485.1071 436.7578 486.5194 433.421 495.5876 436.2131 500.1216 431.9229 506.6626 434.5787 506.068 430.9695 514.3186 429.8119 515.3592 425.3174 520.1162 427.7008 522.1231 421.572 518.1837 418.099 516.6228 412.4469 523.4611 411.4255 524.4273 414.2856 528.9614 406.1138 530.5967 407.1353 531.7116 402.2322 536.0971 402.0961 539.8135 396.5801 539.8135 391.2004 536.3944 384.3225 538.1783 384.0501 539.7392 374.8569 536.9147 371.0435 537.2863 363.1441 539.3675 354.019 M 593.7766 386.0931 593.182 388.9532 595.0402 398.2145 589.3169 409.3144 591.6211 423.8193 589.4655 426.1346 587.1613 442.3419 584.1138 441.2523 581.3636 442.8185 581.8839 450.4455 584.5598 451.9436 580.3974 461.3411 M 502.6488 507.1029 502.5745 506.8305 500.4933 506.6943 501.0879 501.1784 497.5201 498.2501 501.2366 493.4833 501.2366 493.4152 494.4726 490.6913 492.6887 485.0392 492.4657 484.4263 489.1209 486.1968 487.1883 485.7882 482.2826 481.2257 473.8091 478.3656 473.6604 473.8711 470.4642 475.3693 466.8964 472.6454 463.4773 472.9178 461.7677 468.9681 460.9501 467.0614 461.7677 472.8497 456.1187 473.1902 451.3616 467.4018 450.9899 468.0828 M 84.0259 694.8485 86.2558 689.7412 94.209 687.4939 95.0266 681.5013 100.0067 687.6982 101.642 686.8811 99.3377 674.6235 105.0611 671.0143 101.3446 655.0113 106.9937 655.2837 108.7776 653.5131 107.514 645.4095 111.0075 645.2733 110.7845 642.5494 106.0274 637.7825 104.3178 631.2452 101.2703 630.2237 102.0879 624.2992 100.527 621.2348 96.8849 618.9195 87.668 617.898 86.6274 613.9483 87.668 610.4072 93.2427 612.7226 93.8374 610.8158 99.7837 610.7477 97.4052 607.2747 100.2297 604.0741 97.0335 599.5797 100.6757 587.7988 99.5607 582.419 97.5538 581.3295 101.4933 579.5589 103.4259 569.889 116.1362 572.8853 119.7783 571.932 118.589 575.7454 120.5216 579.8313 123.5691 579.8313 125.2044 576.5626 127.6572 578.4013 124.7584 584.5301 133.6036 585.7558 136.5768 579.4908 141.0365 580.1718 144.6043 576.0178 147.5775 577.9246 148.9154 577.3117 149.4357 577.1074 149.5844 577.0393 150.1047 574.7921 150.179 574.3154 152.3346 574.5878 152.2602 573.5663 152.1859 570.1614 155.2334 568.3909 163.6326 569.2762 168.2411 573.6344 169.6533 573.6344 170.248 573.6344 173.6671 573.7025 175.0794 572.2725 176.8633 570.4338 179.4648 567.8461 184.2962 568.7314 186.6004 572.6129 185.6341 575.5412 193.1414 582.2828 195.8173 582.0104 197.2295 577.516 202.8785 577.2436 204.0678 585.1429 204.0678 585.3472 209.1965 586.1644 208.7506 593.9957 212.0211 594.8809 214.3996 599.3754 213.359 604.5508 215.3659 609.8624 218.4134 613.4035 217.8931 614.6974 222.5758 619.0556 218.7107 627.2955 218.562 632.4709 208.5276 630.9047 196.1889 620.7581 193.959 620.8943 188.9789 628.7255 185.9314 628.2489 186.0058 622.9372 182.215 623.2777 182.0663 623.3458 177.6809 633.901 179.6878 639.1445 175.674 643.4347 173.9644 649.904 165.2679 646.7715 162.2204 643.9113 158.2809 644.5242 151.4426 646.7715 150.3277 649.5635 148.0978 649.972 151.071 654.7389 149.8817 657.3947 154.0442 662.1616 149.8817 661.9573 146.7599 667.5413 138.8066 667.9499 133.9009 679.2541 129.9614 677.5517 123.6434 678.4369 124.4611 682.3866 115.7645 686.132 109.8925 683.2719 102.2366 683.4081 103.7232 688.7197 101.2703 689.9455 101.642 686.8811 M 335.3335 165.4562 332.063 156.5354 328.7181 156.944 330.2047 158.9188 326.6369 161.3703 322.1772 157.5568 323.7381 154.0158 321.6569 148.3636 330.2047 143.8011 329.5358 140.3281 336.3741 131.0668 M 527.4749 149.317 516.2511 155.4458 513.2779 160.9617 515.8795 171.7212 525.7653 169.9506 528.8128 171.6531 533.3469 206.1106 524.13 213.6013 524.13 213.6694 518.927 213.6013 516.1025 212.3075 515.2105 211.8308 514.9132 211.6946 512.0143 205.9744 510.8251 205.4296 508.8182 205.5658 508.2235 206.2468 506.737 213.2608 510.9737 219.8663 511.0481 219.9344 505.3247 226.9485 506.5883 233.4859 506.6626 233.554 505.845 234.3712 503.2435 237.2994 503.6895 237.708 502.3515 237.9803 501.3852 239.0018 478.3431 243.5644 469.2006 232.4644 449.652 221.5007 443.334 220.6835 439.4689 215.3038 429.6574 209.4474 425.3463 208.2897 420.7379 208.1535 419.3256 208.5621 416.8728 211.1498 413.1563 215.0995 412.7846 215.5081 410.1088 215.2357 404.5341 215.5081 M 261.2271 339.2418 261.3757 338.9013 262.2677 339.7185 263.7543 343.1234 260.9298 343.3276 256.916 351.908 256.7673 352.1123 256.8417 352.1804 263.3826 354.1552 261.5987 362.1226 265.4639 364.1656 263.9773 368.66 259.5175 366.0042 254.0915 384.5949 256.0984 386.5017 253.7198 389.7023 256.916 391.609 252.6792 395.2182 259.8148 400.3255 255.5781 402.3003 255.801 406.8629 251.8616 412.7874 250.0777 422.7978 253.1252 423.6831 252.9022 428.0413 249.1114 429.8119 247.9221 435.464 247.7735 436.4173 246.8072 434.6468 242.3474 435.5321 238.185 432.1272 237.739 432.7401 238.185 431.4462 236.2524 428.3818 231.5697 427.2241 226.1436 433.6934 225.8463 433.6253 225.1773 433.2167 221.7582 428.7223 220.7176 425.8622 219.5283 425.7941 215.8118 425.4536 212.3927 425.1131 212.3927 425.7941 212.467 427.3603 212.7643 437.5069 195.5199 435.2597 195.5199 435.1235 196.7835 432.6039 194.4793 430.7652 196.1889 426.7475 189.5736 426.6113 190.1682 420.891 188.6073 421.1634 188.4586 419.3248 190.0939 413.5365 184.1475 416.3285 182.1406 414.5579 182.7353 411.3574 186.8977 408.0887 179.3905 412.9236 179.2418 406.9991 172.7008 413.3322 171.2886 412.4469 169.802 411.085 168.7614 402.3684 168.687 402.3003 164.5989 400.5979 165.7139 393.5157 163.5583 390.1789 163.1123 390.3151 159.3215 391.8133 159.5445 395.9672 157.0173 398.7593 153.4495 396.6482 145.199 398.0102 145.199 396.3758 137.9147 396.5801 136.8741 394.4691 138.658 390.8599 136.3538 388.3403 133.6036 389.8384 127.0626 387.8636 126.7653 385.2078 122.9745 387.7955 120.0013 394.1286 115.5415 393.9243 115.3186 389.2256 115.0956 389.2937 110.1898 389.7703 112.94 383.0287 115.3929 383.233 115.4672 383.1649 116.1362 377.5808 124.0151 370.5668 121.1906 360.7607 128.4005 361.2374 130.4074 357.0834 M 229.7114 484.6987 228.1505 482.86 223.1705 477.0036 224.88 470.9429 222.7988 468.9681 218.1904 468.2871 218.1904 468.0147 220.8662 462.9755 219.6026 460.5921 223.9137 460.3197 224.5084 458.8215 226.1436 454.1228 226.4409 453.3737 222.7988 450.2412 226.5896 448.9473 224.7314 444.8615 227.4816 438.3241 232.536 439.1413 237.293 433.9658 237.739 432.7401 M 247.7735 436.4173 249.6317 436.8259 251.6386 433.2167 259.9635 436.7578 266.0585 434.2382 270.7412 439.0732 274.0861 439.686 280.9987 433.9658 290.5129 438.7327 291.6278 439.8222 289.1749 445.3382 284.1205 448.8792 287.391 450.9222 284.3435 454.1228 285.3098 456.1657 282.411 457.8682 288.06 461.4092 285.9788 462.635 289.3979 468.6276 288.8033 477.3441 290.2899 478.9104 297.0538 478.2975 298.8377 480.4085 296.9795 484.7668 298.6148 486.9459 297.7228 491.3042 294.824 492.8704 294.601 493.0066 294.3037 494.9134 288.8776 492.8704 284.5665 491.2361 284.4922 491.3042 279.5864 496.4796 263.3826 494.2324 262.0447 496.5477 263.8286 499.2716 259.0715 499.8164 257.6593 497.5692 253.4968 497.2968 M 218.4134 613.4035 219.6026 610.1348 226.2923 612.5864 228.0019 609.6582 230.975 609.7943 235.1375 613.6759 241.0838 614.4931 244.5773 605.2999 255.2807 605.2318 270.5926 610.5434 270.5926 612.5864 273.9374 614.0164 280.4041 608.7729 280.4784 603.1208 281.519 604.006 281.742 604.7551 283.6746 611.633 277.7282 615.8551 286.2761 616.1274 286.2761 617.2851 292.5941 618.3066 294.5266 617.7618 297.6485 618.9195 297.6485 619.1237 298.1688 620.9624 297.8715 627.7722 294.9726 627.636 288.9519 633.22 289.6209 638.5997 280.627 638.3954 283.0799 643.7751 286.7221 644.7966 290.1412 652.015 279.5864 658.961 281.5933 662.2978 291.7765 660.3229 299.7297 661.4806 306.6423 665.2941 317.4201 658.0757 320.1703 659.5057 327.9749 658.0757 333.7725 665.975 354.6591 676.1216 363.5043 683.34 375.2483 687.6301 375.62 690.9669 375.843 691.1712 376.2889 691.5117 379.1878 693.827 381.269 694.4399 383.7962 695.189 386.7694 696.1424 386.7694 696.0743 391.3035 700.092 388.4789 720.3852 376.5863 724.8115 369.0047 720.3852 365.4368 722.1557 347.4491 718.7508 342.8407 724.5391 337.8607 724.8796 327.0086 729.987 330.7994 739.1802 330.0561 745.7857 323.9611 749.1224 320.7649 737.682 313.332 737.3415 313.7779 751.9145 304.7098 761.1077 294.9726 763.9678 283.3029 758.8604 277.2822 750.2801 271.5589 748.5096 267.7681 749.3267 258.0309 757.3623 243.0164 752.323 229.9344 751.0973 221.6095 756.5451 214.0279 758.5199 212.0211 763.1506 201.7636 760.4267 200.3513 764.0359 195.074 765.4659 191.8778 763.6273 192.8441 759.8819 187.3437 757.4985 189.7966 755.1151 184.6678 752.4592 185.1138 749.1905 187.864 750.0077 192.3981 747.1476 190.5399 744.7642 194.628 731.5532 191.1345 730.5317 191.5061 726.4459 188.6816 724.9477 189.1276 714.9374 182.3636 713.5073 182.0663 707.8552 187.3437 702.8159 191.9521 702.884 193.4387 706.357 199.9054 709.4214 201.7636 700.7049 207.487 701.9988 211.6494 691.5117 198.4931 684.4976 189.5736 685.7234 189.4993 678.3688 179.1675 676.5983 169.802 670.5376 174.1874 657.8033 172.9238 653.7855 173.9644 649.904 M 297.6485 619.1237 302.7772 619.9409 306.9396 604.2784 301.8109 600.8735 302.7772 596.1067 301.0676 593.3147 296.7565 598.7625 293.0401 596.8558 292.8914 596.8558 292.7427 593.6552 292.6684 590.9994 292.6684 590.8632 295.8646 586.9816 286.2018 582.9638 286.3504 582.3509 286.4247 581.9423 287.391 577.2436 288.2086 577.1755 298.0201 576.2902 297.4998 573.4301 298.0944 573.5663 304.4124 574.9964 306.345 570.4338 309.6898 570.2295 311.3994 566.5522 301.9596 564.1688 302.1082 564.0326 303.1488 562.4664 304.2638 562.7388 310.8048 564.4412 313.1833 563.2154 314.5956 556.4057 314.6699 555.929 322.6975 560.7639 324.3327 561.7173 324.9273 560.2872 326.4883 554.9756 327.9005 553.6137 328.6438 552.9327 329.0155 552.6603 331.617 554.4989 336.0768 544.5567 340.3879 545.1695 344.1787 539.9941 337.266 531.4819 340.4622 528.4175 342.9894 521.4034 342.0231 515.7513 365.8085 522.9696 368.4844 516.0918 375.9916 515.4108 376.2146 519.6329 380.377 521.1991 381.5663 516.977 385.6544 519.1562 388.4789 509.0777 394.0537 508.7372 394.574 500.2931 396.4322 500.0207 403.3448 500.0888 409.7371 500.1569 410.4804 500.1569 418.6567 503.2213 433.0766 502.6765 433.5969 502.9489 438.2053 505.6047 438.3539 505.7409 438.3539 505.809 442.7394 519.0881 442.0704 524.7402 447.1248 524.8083 448.2398 534.0015 461.2474 554.0222 465.8558 573.4301 466.0788 585.2791 476.1133 601.3502 476.1133 622.4605 482.2826 625.3206 469.6466 636.5568 462.5853 634.1734 451.5102 642.2089 444.003 641.4598 439.9892 643.9794 433.5969 644.388 427.3532 652.3555 412.0414 651.8788 402.4529 655.9647 395.7632 655.1475 393.3847 661.8211 389.9655 663.3873 387.9586 668.1542 387.7357 671.8995 391.1548 675.9854 386.918 678.3007 386.7694 696.0743 M 254.7604 189.9033 249.5574 185.0684 239.5229 188.3371 233.5022 184.1831 230.3804 178.9396 222.7245 180.4377 211.5751 189.1542 205.926 190.9248 204.3651 188.8818 204.8854 181.8678 204.7368 181.7316 202.7299 180.3696 197.3782 176.488 196.9322 176.6242 182.9583 180.1653 179.4648 186.0217 172.4035 187.2475 167.7951 191.3334 160.5108 191.4015 157.612 203.591 152.1859 202.2971 149.0641 203.2505 145.4963 204.34 144.6043 204.5443 144.4557 204.7486 144.084 204.9529 140.2932 210.2645 137.543 209.9241 136.5768 207.2682 131.3737 205.702 131.5224 202.8419 129.0695 202.8419 127.8802 198.4155 119.6297 197.5303 122.6028 189.6309 114.9469 190.2438 115.4672 183.8426 105.6557 183.7745 106.399 179.5524 103.7232 173.2193 104.3178 167.431 111.2304 169.6783 110.5615 165.5243 113.163 159.1912 117.3254 162.8685 121.0419 162.3918 120.5216 157.0121 117.8458 153.471 122.9745 144.414 120.5216 142.6434 125.13 129.841 131.2994 129.5686 132.1913 127.2533 131.3737 125.3466 124.0151 124.257 123.5691 120.2393 129.5898 117.1068 133.0089 117.9239 139.3269 112.7485 152.9292 122.0779 153.1522 125.1423 158.5782 126.8447 157.3146 130.7263 161.1054 133.3821 165.7139 129.9091 167.6464 132.9054 173.1468 131.1349 178.4985 134.8803 184.5192 133.2459 184.7422 125.2785 188.0127 117.7196 188.4586 118.1963 M 281.1474 253.2343 278.0255 258.5459 270.2209 259.7716 267.4708 262.9041 266.9504 267.3986 266.9504 267.4667 264.3489 267.3305 259.6662 267.1262 261.5244 268.7606 258.4026 271.3483 258.0309 276.5237 254.1658 282.993 253.9428 283.674 253.7942 284.0826 M 103.6488 272.3697 102.7569 276.8642 106.9937 276.2513 109.1492 277.8857 123.8664 275.7746 128.6235 278.839 138.0633 279.0433 145.3476 283.1292 146.6855 285.3083 145.3476 287.8279 154.5645 289.8028 157.6863 284.2188 157.9836 273.8679 163.93 275.7065 165.1192 274.4808 170.4709 276.5237 170.9169 278.9752 181.4717 281.7672 187.7897 275.6384 199.0877 279.9967 200.7973 285.9212 201.0203 286.6022 202.0609 286.5341 203.3245 286.5341 210.3115 286.3298 214.6226 283.8102 225.0287 286.3979 228.1505 280.882 233.2049 282.2439 237.2187 280.6096 241.9015 287.896 246.3612 289.5304 253.7942 284.0826 255.7267 284.8997 256.3957 285.2402 256.47 285.4445 258.4769 290.8242 256.0984 294.4334 260.6325 298.7236 254.0915 299.3365 254.4631 304.58 257.5849 309.2787 255.2064 312.956 255.9497 316.429 252.0846 320.583 253.1995 321.264 258.2539 324.5327 258.3282 324.6008 261.1528 331.4105 261.0784 331.4786 259.9635 334.3387 259.8892 334.543 261.2271 339.2418 261.3757 339.8547 261.0041 339.7866 256.8417 339.2418 254.0171 338.9013 252.9765 339.1737 251.044 342.5105 248.3681 340.7399 244.726 346.0516 246.2869 349.116 243.9827 350.4098 239.7459 351.4313 236.5497 349.5926 237.293 346.6644 234.8402 343.1915 230.752 349.4565 225.4003 350.8865 223.3934 346.7325 221.2379 346.324 220.123 341.4209 211.3521 335.4964 211.5751 340.059 204.5138 347.073 200.4257 347.754 194.7023 340.7399 192.5468 340.7399 192.6954 335.7688 190.7629 332.6363 190.6885 332.6363 185.5598 335.0878 183.2556 342.3062 185.3368 355.9938 180.3567 358.2411 178.2012 361.646 173.0725 360.8288 171.0656 356.7429 168.6127 361.646 164.7476 360.8969 164.2273 363.3484 158.8756 359.4668 159.0985 361.7141 157.0173 362.4631 155.9767 358.6497 152.6319 357.4239 153.0779 360.2159 151.1453 357.9006 150.402 359.1263 149.2871 354.1552 145.4963 352.5889 137.543 354.4957 136.5768 355.7895 130.7047 357.0153 130.4074 357.0834 131.5967 354.7 131.8197 354.3595 135.9821 354.7 136.5024 352.3847 132.4886 350.7503 135.3132 350.0012 134.4212 348.3669 137.6174 345.8473 137.6917 345.8473 136.2051 344.6215 133.6036 347.4816 131.225 346.8006 129.6641 344.4172 131.448 337.4712 124.6097 338.0841 121.7852 334.4749 121.7109 334.543 116.4335 337.1307 110.4871 335.0197 105.2841 338.2884 103.0542 334.9516 99.858 334.9516 100.1554 331.2062 97.1079 329.4357 96.0673 324.6008 96.0673 324.5327 95.9929 324.5327 89.2289 324.1922 84.8435 319.6296 80.3094 319.1529 72.2819 321.1278 73.1738 320.0382 66.8558 317.7229 64.7003 319.3572 62.619 317.9953 66.3355 312.8879 57.639 308.1892 56.524 305.261 57.5646 302.1966 62.6934 299.0641 63.6596 293.1396 58.0849 291.2328 57.9363 288.6451 65.1462 289.5985 69.2344 287.7598 68.937 285.9212 62.5447 285.104 62.0987 283.4697 66.8558 283.2654 67.5248 279.9286 72.7278 281.8353 73.0251 278.09 69.383 276.5918 72.2075 272.9826 70.275 272.1654 71.3899 267.8072 74.5861 268.6244 77.8566 266.8538 78.7485 268.7606 80.6067 266.5814 82.7623 271.3483 91.9791 266.5814 99.1891 266.2409 103.6488 272.3697 98.8918 264.879 101.4933 259.9078 97.4795 244.722 103.5745 236.8908 108.7032 241.6576 119.035 217.8234 132.0427 213.5332 139.1783 213.8737 144.4557 204.7486 M 503.6895 237.708 507.8519 242.0662 507.8519 246.9693 502.6488 253.6428 500.196 263.0403 487.1883 262.9722 484.6611 265.4919 483.4719 273.3231 476.4849 281.2225 471.0589 282.1077 467.2681 279.9967 465.1868 284.4231 463.3286 282.312 462.5853 282.9249 461.9164 283.5378 460.4298 284.7635 460.8757 286.6703 460.5041 287.5555 458.5715 289.7347 456.3417 292.1862 M 349.3074 313.0922 348.7871 313.8413 347.8951 314.4542 343.8813 316.2247 343.807 317.6548 343.4354 324.2603 328.9411 325.0774 324.1097 328.278 317.4201 329.1633 312.0684 325.5541 300.473 323.7155 296.7565 331.8191 292.6684 332.9768 292.3711 332.9768 291.8508 332.0234 292.2968 330.7296 290.5872 329.7081 285.0868 330.1167 275.647 324.9412 275.5727 325.0093 272.8968 326.848 265.2409 326.4394 261.1528 331.5467 261.0784 331.4786 M 150.179 574.3154 146.0166 568.3909 137.543 564.8498 135.1645 557.9719 139.5499 555.1118 137.32 553.6818 137.4687 553.6137 137.3944 553.5456 141.3338 550.9578 148.3208 550.1407 148.6181 545.3057 153.4495 538.0193 158.8756 537.4064 159.3959 529.6432 162.7407 529.1665 163.8556 525.285 160.2135 524.3997 161.8487 521.2672 158.7269 516.6366 159.4702 512.6869 153.1522 509.4182 151.294 506.2857 151.7399 505.4685 152.7806 503.5618 153.8955 501.5188 160.2878 489.8741 164.2273 489.6017 164.2273 489.125 162.8893 483.9496 162.592 482.6558 162.5177 482.4515 164.0043 481.2938 159.9905 477.4122 164.1529 473.4625 161.6257 470.9429 164.1529 469.1043 166.3085 469.4448 166.6058 474.4159 170.8426 474.6202 171.9575 476.6631 178.6472 475.7779 178.5728 478.9785 182.3636 479.9318 187.3437 477.4122 187.641 475.2331 192.0265 475.4374 192.8441 484.6987 198.5674 486.6735 206.5207 486.1287 209.1965 480.3404 208.4532 474.484 212.3184 473.7349 210.3115 470.7386 216.1092 471.9644 218.1904 468.2871 M 294.3037 494.9134 293.3374 501.1784 290.1412 500.225 288.3573 502.6765 290.8845 506.2176 297.4255 506.0133 299.1351 511.0525 295.0469 512.5507 297.4255 519.3605 310.2845 525.0126 310.2101 525.6255 309.6898 528.8942 306.122 530.7328 298.5404 528.5537 304.4124 538.1555 301.7366 540.7432 301.8109 540.8113 312.9603 548.302 313.0346 550.1407 310.2845 549.0511 309.5412 551.5707 314.5956 556.4057 M 162.592 482.6558 162.5177 482.7238 158.2066 480.9533 158.1323 478.2975 154.6388 479.5233 151.071 477.5484 151.8143 473.4625 148.5438 471.3515 146.5369 475.846 143.3407 475.7098 145.199 469.1724 145.0503 468.8319 143.4894 466.6528 137.9147 465.0865 136.5768 459.162 125.4273 456.5743 124.3867 449.3559 121.4879 451.5351 115.6902 446.9044 111.1561 448.2664 110.4871 447.7216 107.9599 445.6105 106.5477 447.9259 100.75 448.4707 106.176 452.9651 103.6488 461.3411 93.5401 467.6742 89.8236 467.538 88.4113 471.0791 84.2489 468.219 71.5386 465.9718 70.9439 460.1154 62.4704 462.5669 59.9432 457.9362 58.1593 457.9362 53.9225 464.4055 51.4696 459.3663 41.5095 456.3019 43.9624 446.8363 42.4758 443.159 43.2934 434.6468 56.8957 428.518 61.5784 428.3818 65.9639 424.0916 66.1125 420.6187 63.288 421.0953 59.9432 418.0309 53.8482 416.8052 58.2336 411.5616 58.0849 408.6334 63.1393 410.1316 67.5248 399.3721 71.9845 399.7807 69.383 393.039 75.8497 393.7881 75.7753 386.8421 78.4512 385.4121 76.8903 382.8925 78.5999 381.3943 79.4175 384.3225 81.796 384.7992 83.0596 381.19 81.6474 375.2655 77.5592 375.6741 73.3225 371.0435 69.9033 372.6097 68.3424 368.8643 63.1393 368.0472 61.8757 364.0294 65.4436 360.0116 71.5386 358.1049 72.4305 354.3595 71.5386 344.5534 68.4911 343.3276 64.9976 336.8584 69.2344 332.0915 66.6328 327.3247 72.2075 321.1959 72.2819 321.1278 M 319.7243 409.1782 318.1634 423.6831 314.5956 423.3426 310.7304 425.9303 309.5412 433.2167 303.0002 431.4462 304.2638 433.2848 301.9596 435.2597 293.7833 438.8689 292.8171 439.8903 292.2224 439.6179 291.6278 439.8222 M 404.4598 349.5926 402.9732 350.8184 402.4529 357.5601 400.9663 360.3521 400.669 362.1907 396.7295 368.2514 396.5065 374.4483 390.5602 375.0612 390.3372 376.6956 M 551.8549 575.9497 550.8143 582.8276 548.6587 586.573 544.3476 586.9816 540.7055 596.6515 550.071 598.9668 550.3683 602.9165 555.274 606.049 551.7062 620.1452 546.8748 626.0697 540.4082 628.5212 536.543 636.2844 531.117 641.4598 523.1637 641.7322 520.1906 638.6678 517.1431 629.6108 511.8657 627.8403 505.2504 630.5642 498.7837 623.0053 491.0535 625.2525 486.8167 630.8366 478.2688 630.2237 482.2826 625.3206 M 433.5969 502.9489 434.1915 502.9489 431.9616 500.2931 428.0222 496.8882 426.9816 494.3005 426.6842 493.6195 426.1639 492.3937 428.4681 489.2612 428.5425 489.125 428.3195 488.1036 427.5762 485.9244 417.839 476.1184 M 51.4696 459.3663 52.5102 462.4988 51.3953 459.3663 48.2735 459.6387 51.4696 459.3663 M 103.4259 569.889 104.5408 566.0756 97.7025 564.7136 97.0335 562.875 94.5063 562.4664 89.1546 566.3479 84.4719 564.1688 78.9715 568.3909 78.3769 570.0933 82.688 569.2762 80.7554 572.2725 76.8159 573.4301 76.6673 579.5589 72.8022 580.7847 70.7953 583.9172 71.4642 587.1178 63.8083 589.365 63.4367 589.4331 59.9432 583.9853 57.4903 584.9386 55.7064 583.3724 57.1187 580.4442 45.9693 579.3546 49.0911 575.8135 48.5708 571.1148 53.0306 568.5271 51.9156 561.9897 48.8681 554.9075 45.3746 551.9793 45.5233 548.8468 34.3739 546.0548 25.9747 539.3131 27.6099 532.1629 31.8467 532.3671 33.7792 529.3708 29.1708 526.9193 34.6712 523.242 37.0497 523.923 38.239 520.2457 44.4827 515.8875 40.4689 513.2998 44.0367 505.6728 43.5164 497.2968 48.4965 497.9097 47.6045 499.7483 49.4627 501.0422 57.2673 499.2035 59.0512 496.071 57.3417 494.5729 60.0175 491.0318 55.3348 489.4655 55.1118 486.1968 59.8689 483.6772 67.4504 486.1968 67.4504 481.2257 74.8834 483.2686 75.1064 477.957 80.9041 477.0717 83.2826 471.4196 82.3163 476.0503 89.4519 477.4803 89.8236 467.538 M 200.3513 764.0359 201.0203 765.9426 198.7161 771.2542 M 446.0842 415.1027 453.2942 416.6009 455.8957 414.9665 454.9294 412.515 461.619 409.5187 463.2543 409.723 467.0451 408.4291 466.4504 399.2359 469.4236 399.9169 470.0183 395.2863 473.1401 393.5838 471.5792 393.1071 472.9914 389.9746 473.8834 387.9317 470.7615 383.6415 470.7615 383.5734 472.4711 380.9857 467.1194 380.2367 470.6872 377.9894 471.2075 374.8569 469.2006 372.814 472.9171 372.814 476.7822 369.6815 472.7684 366.7533 466.8964 367.23 467.3424 361.7141 463.4773 356.1981 463.7746 352.1804 467.8627 350.7503 467.1194 348.1626 463.0313 347.3454 465.2612 338.2203 462.2137 336.3136 462.3623 332.9768 458.4972 327.5971 460.0581 324.2603 466.8221 323.7836 469.3493 319.4253 473.0658 325.6903 474.6267 325.5541 481.7623 320.7873 483.1746 321.9449 481.3906 325.9627 484.4382 327.9375 486.7424 334.0663 489.3439 334.9516 487.0397 337.0627 493.655 341.6252 495.5876 345.3025 509.5615 348.9798 M 455.5984 323.6474 455.8957 323.6474 459.3148 324.8731 458.4972 327.5971 M 688.5466 341.8976 697.0201 341.489 701.9259 337.0627 701.8515 328.2099 705.7167 328.959 710.1021 329.4357 711.3657 333.2492 707.5749 334.8835 710.2507 347.6178 719.5419 346.8006 728.0155 340.4675 732.1779 340.059 732.1036 344.8939 727.5695 349.116 726.3802 358.173 730.3197 365.6637 729.2791 366.8895 735.9687 391.2685 735.5971 404.4795 737.9013 414.4218 745.4085 417.5543 752.9901 414.4899 756.6323 419.5291 747.6384 427.156 744.2193 424.2959 734.5564 423.8873 731.063 417.9628 713.8929 426.6113 715.7511 433.0125 713.9672 437.3026 717.6837 438.0517 716.3458 439.686 719.1703 441.8652 718.873 445.7467 709.2101 446.4277 706.9059 448.8111 708.0209 452.7608 730.3197 453.5099 740.1311 468.7638 751.9495 469.7172 755.3687 471.8282 761.1664 467.538 763.3219 469.5129 764.0652 474.8926 767.4844 475.7098 765.2545 479.7956 770.5319 479.7956 769.9372 482.6558 774.0253 485.2435 775.8836 485.584 776.4039 482.5196 788.7425 488.6484 796.8444 490.2827 799 494.5729 795.8782 502.7446 789.7832 508.3967 773.505 506.8986 770.7548 514.185 772.9104 520.5862 770.2345 525.3531 751.8009 528.2813 746.9694 526.4426 742.361 533.1843 735.1511 532.98 724.8193 527.5322 709.9534 524.2635 M 524.13 213.6013 533.6442 223.6798 544.5706 224.497 551.2602 233.3497 563.3759 241.8619 573.1874 238.1165 575.6403 241.4533 579.3567 241.9981 582.4786 237.1632 586.5667 237.7761 595.4862 234.1669 607.9735 258.2054 593.2563 259.7716 M 80.3838 694.8485 79.7148 694.7804 72.2819 698.662 66.9301 699.1387 57.193 692.2608 50.5777 690.4902 41.0635 691.3074 36.8268 694.1675 11.1831 685.8596 6.1287 677.4155 1 673.3977 12.3724 672.5805 13.2643 668.767 19.285 670.7419 27.0153 670.2652 28.7249 665.3622 36.8268 663.6597 36.7524 658.4843 33.7792 658.0076 31.698 654.3303 37.7187 654.5346 40.8405 650.9935 45.226 651.334 46.1923 648.7463 46.2666 646.5672 43.5164 645.2052 47.9018 638.6678 45.226 637.9187 39.7999 640.4384 36.7524 635.1267 45.5233 633.5605 46.7126 631.3813 47.5302 625.7292 42.2528 624.9121 40.5432 626.6826 38.1647 624.7759 41.5095 616.7403 40.7662 611.5649 46.1923 613.2673 47.9762 611.7011 44.1854 603.5293 45.5976 599.5116 43.5907 587.1859 46.6382 586.1644 45.9693 579.3546"/>
</g>
</svg>