<?xml version="1.0"?>
<svg xmlns="http://www.w3.org/2000/svg" version="1.2" baseProfile="tiny" width="800" height="1066" viewBox="0 0 800 1066" stroke-linecap="round" stroke-linejoin="round">
<g id="TN" fill="none" stroke="black" stroke-width="1">
<path d="M 790.1773 82.4187 778.4137 82.4187 770.9484 85.6929 767.6682 99.1172 768.1206 105.5565 756.5833 103.4828 747.8737 103.1554 747.3082 107.0845 740.2953 106.3205 736.3364 102.2823 730.6808 101.0817 719.4828 103.8102 720.5008 108.5033 710.547 120.8362 703.1948 120.0722 697.0867 117.3437 696.5212 109.2673 690.9787 105.4474 690.6394 99.2264 682.6085 100.2086 681.0249 97.4801 680.6856 77.7257 672.5416 79.2537 671.976 75.7612 663.4927 71.5047 660.2125 81.873 648.2227 83.5101 638.1558 82.3096 631.256 83.0736 630.0118 89.2946 625.2611 92.0231 621.9809 83.7284 615.6466 89.9494 616.0991 94.5333 602.7519 98.4624 596.6439 93.9876 592.9113 86.3478 597.8882 88.4215 601.6208 84.8198 608.6337 84.8198 606.824 78.2714 613.8369 72.8144 621.5284 73.4692 625.8266 68.1213 625.7135 63.8649 618.9269 62.9917 618.022 51.9686 615.0811 46.075 633.8575 43.2373 642.0016 44.4379 642.5671 57.3164 649.1276 59.9358 655.3487 54.2605 668.0172 55.7885 670.5056 62.7735 677.1792 68.1213 679.8938 64.1923 685.2101 69.8676 691.9967 63.21 680.3463 56.6616 686.7936 49.2401 691.3181 53.1691 696.295 48.3669 718.4648 41.9276 723.6679 36.5798 720.0483 27.7394 726.6088 26.7571 726.3826 19.1173 733.2824 17.3711 737.015 10.4952 737.3544 5.5839 746.7426 7.985 746.9688 15.2974 759.9766 14.8608 775.586 16.0614 778.7531 18.4625 783.0513 1 788.7069 13.9877 795.0411 23.8103 799 49.0218 798.7738 55.8976 793.7969 74.0149 790.1773 82.4187 789.0462 92.1322 782.1464 122.3641 780.2235 137.8621 772.3057 135.0244 767.3288 135.8975 768.3468 125.5292 764.9535 116.5797 758.5062 113.5237 756.5833 103.4828 M 469.5069 254.0966 474.0313 261.2998 466.566 269.9219 462.3809 268.8305 456.2729 271.7773 451.4091 269.1579 444.8486 269.3762 440.2111 277.1252 434.3293 275.2698 435.3473 270.6859 419.7379 264.4649 418.6068 259.881 412.6119 260.3176 408.653 253.0052 402.4319 251.0406 395.6452 253.0052 394.7403 248.0938 389.4241 244.6014 391.4601 240.5632 387.8405 236.525 383.5423 240.3449 378.3392 239.3626 376.077 233.7965 371.4394 232.2685 368.4985 226.1566 371.1001 220.5905 366.3494 215.7883 362.9561 217.6437 353.2285 211.8592 349.0434 215.0243 345.9894 206.6205 340.4469 205.7474 334.6782 209.8947 328.4571 208.9124 338.1847 224.6287 333.9996 231.3954 333.7734 238.8169 329.5882 241.1089 317.9378 240.1266 319.5213 245.3653 317.146 254.3149 313.5264 253.4417 307.7578 258.6805 303.7989 275.3789 297.3515 271.3408 294.6369 273.9601 291.5828 269.2671 278.8013 265.6655 268.6213 264.2466 250.4103 266.4294 241.3614 263.4826 241.1352 256.9342 244.5286 249.8401 251.9939 250.0584 259.4592 244.8196 261.9477 239.0352 268.6213 234.1239 271.449 215.2426 267.6033 211.9684 269.0737 206.4022 263.6444 204.3286 262.1739 192.978 264.4361 184.7924 267.2639 182.2822 265.9066 174.7515 277.7833 171.4773 281.4028 176.0612 293.3926 173.4418 297.3515 168.9671 297.3515 163.0735 303.7989 157.1799 304.8169 138.9535 311.9429 135.3518 322.4622 135.461 330.0407 131.3136 331.8505 134.9153 327.6653 141.5728 332.1898 144.4105 336.8274 142.5551 341.8043 144.7379 347.3467 142.8825 349.722 138.7352 358.5447 141.2454 361.2594 145.611 369.8558 152.4869 388.5192 156.6342 390.329 167.8757 397.3419 168.0939 401.3008 173.9875 417.3626 182.937 423.8099 182.5005 423.6968 182.6096 422.7919 187.4118 425.5066 193.5237 424.3755 209.4581 431.049 216.9888 428.3344 227.7937 432.8588 229.54 442.2471 226.7023 454.1237 228.9943 457.1777 234.233 463.512 236.7432 462.7202 247.0024 460.458 252.3503 469.5069 254.0966 M 469.5069 254.0966 474.8231 251.8046 481.4967 245.1471 485.2293 231.6136 489.6407 229.1034 492.8078 222.4459 490.8849 218.2985 494.7307 213.9329 503.214 199.5264 510.2269 181.2999 516.7874 172.787 520.6332 170.8225 532.2836 173.8784 539.0703 167.8757 542.3505 169.8402 550.3814 159.3627 563.3892 156.3068 571.1939 159.6901 577.7544 159.4718 578.2068 151.9412 586.6901 147.3573 593.703 153.6874 595.1735 159.2536 604.3355 162.2004 614.4024 170.3859 606.9371 173.7692 612.0271 182.2822 625.2611 173.9875 627.9758 168.4214 628.7675 154.6697 626.9578 152.1594 626.3922 140.3723 629.4462 134.5878 637.0247 137.9712 646.2998 138.626 651.3898 142.2277 661.796 146.2659 663.1534 154.3423 673.2203 153.6874 682.2692 159.9084 681.5905 169.5128 667.904 174.8606 663.1534 174.0967 660.0994 181.7365 666.886 189.0489 671.7498 187.5209 678.3103 190.2494 676.3874 197.5618 682.0429 200.9452 684.4183 204.2194 683.1741 215.57 675.2563 221.1362 673.1072 226.1566 667.6778 227.7937 666.5467 232.8142 662.0223 237.2889 653.652 236.1975 640.3049 232.3776 636.1198 237.0707 625.2611 231.6136 624.6955 227.3572 618.3613 225.2835 614.7417 219.6082 600.8291 216.7706 597.6619 219.0625 584.9935 217.7528 581.7133 224.4104 586.0115 229.8674 583.4099 232.5959 586.2377 241.6546 593.9293 242.5277 588.3868 250.4949 585.3328 251.0406 583.0706 265.8837 578.6592 271.9956 591.7802 279.9628 588.2737 288.2575 583.4099 292.2957 576.7364 290.6586 571.307 298.2984 566.3301 295.5699 562.145 300.4812 553.0961 298.0801 556.8288 290.7677 554.3403 288.4758 547.893 297.0979 543.821 291.6409 529.9083 290.8769 520.9725 301.3544 513.1678 299.0624 505.7025 302.7732 499.7076 300.3721 482.9671 307.2479 479.1213 305.6108 481.3836 295.0242 486.1342 282.1457 485.2293 279.4171 473.0133 284.2193 466.1135 277.9983 469.2807 272.323 466.566 269.9219 M 482.9671 307.2479 480.4787 315.9792 484.2113 319.7991 481.1573 323.9464 471.8822 324.4921 465.3218 329.5126 459.3269 338.5712 449.8255 341.6272 437.1571 339.5535 429.2393 335.297 427.7688 330.9314 422.0001 328.7486 418.0412 337.0433 411.8201 344.4648 407.5219 343.3734 415.1004 327.3298 406.3908 322.5276 405.7121 317.2889 393.6092 315.7609 389.311 308.2302 372.7967 310.3039 356.7349 316.0883 351.3056 316.5249 339.6551 323.9464 327.6653 323.9464 317.7116 320.5631 311.9429 323.4007 297.6909 321.6545 293.0533 315.9792 280.8373 313.4689 284.7962 301.1361 291.0173 291.9683 296.3335 288.6941 300.1793 281.1634 294.6369 273.9601 M 284.9093 408.0937 282.1946 416.0609 288.9813 424.7921 293.8451 427.5207 306.7398 446.5111 312.5084 447.4933 317.7116 451.6407 316.9198 461.4633 321.3311 467.9026 322.6884 482.7457 330.7193 484.6011 328.6833 488.5301 320.6524 493.4415 310.8118 488.9667 308.4364 484.6011 300.4055 486.893 292.9402 481.6543 278.0095 478.0527 269.2999 473.5779 258.1019 477.0704 246.7908 477.3978 244.1892 463.4278 248.8268 461.8999 246.7908 454.3692 239.6648 448.039 241.927 439.6352 230.9552 437.9981 224.621 435.7062 214.6672 436.6884 216.9294 444.4374 205.279 441.4906 192.0449 429.9217 182.2043 436.6884 178.2454 432.9777 172.0242 424.683 158.564 420.0991 152.3429 426.6475 142.6153 423.4825 146.0086 420.3174 146.4611 412.7867 152.1167 410.4948 148.0446 404.8195 152.2298 396.5248 142.0498 387.357 131.1911 385.6107 121.3504 386.1564 119.9931 382.8822 117.6177 374.0419 120.6717 364.9832 128.024 355.8154 131.9828 343.9191 143.8595 347.4116 146.4611 342.8277 152.2298 340.0992 157.2067 344.1374 165.8031 354.6149 171.4587 354.1783 171.2325 348.0664 186.3894 344.4648 196.0038 344.0283 198.1529 340.4266 206.7494 341.1906 214.7803 348.503 226.4308 345.6654 232.765 349.3761 236.9501 343.7008 240.0041 328.4212 244.8679 321.8728 245.3203 315.5426 254.143 317.2889 258.5544 315.4335 267.0377 316.1975 280.8373 313.4689 M 142.6153 423.4825 137.5253 428.5029 130.7386 430.14 128.5895 427.1932 120.6717 432.2137 122.9339 438.653 119.0882 442.3637 110.6048 441.4906 108.6819 444.2191 97.8232 450.4401 92.6201 451.5315 77.6894 460.4811 72.2601 459.8262 59.2523 462.2273 52.5787 457.2068 42.8512 458.2982 43.6429 451.7498 56.877 445.638 60.949 440.6175 61.967 428.5029 45.0003 422.7185 27.2418 409.6216 18.9847 410.0582 10.8407 404.492 7.108 404.8195 2.3573 396.1974 1 388.0118 9.8227 381.5725 14.3471 387.357 20.9076 382.5548 29.0516 381.3543 30.9745 376.0064 38.5529 375.2424 44.3216 369.2397 54.9541 361.3816 60.2703 364.4375 66.2652 378.2983 74.7485 380.2629 85.9466 378.7349 115.3555 380.1537 119.9931 382.8822 M 438.0619 419.1168 433.8768 425.0104 430.4835 433.7417 433.1982 435.2696 425.6197 457.0977 417.7019 461.8999 417.7019 470.6311 410.8021 472.1591 409.1055 477.8344 411.8201 484.7102 406.617 487.0022 388.293 479.7989 389.4241 485.6925 379.2441 484.7102 381.5063 493.878 375.7376 495.6243 363.5216 483.5097 354.3596 483.8371 349.0434 480.5629 341.9174 479.4715 333.3209 485.4742 330.7193 484.6011 M 507.286 396.7431 513.9596 399.6899 530.3607 419.5534 544.0472 421.8454 548.5717 420.0991 561.2401 421.2997 570.4021 424.7921 568.253 432.5411 563.163 433.7417 558.8648 445.7471 561.4663 449.8944 556.9419 453.3869 555.9239 459.3896 548.4585 473.0322 551.1732 476.8521 548.3454 481.6543 543.9341 481.9817 538.9572 486.7839 532.7361 479.908 523.5741 480.7812 517.5792 478.8166 500.3863 482.8548 501.0649 476.5247 491.3373 474.8876 486.3605 477.7252 487.8309 483.5097 479.8 484.9285 475.8411 472.9231 474.71 460.4811 479.2344 461.1359 482.0622 456.6611 481.4967 449.8944 487.0391 441.1632 486.0211 435.4879 471.0904 433.4142 472.4478 425.6653 M 178.2454 432.9777 178.924 438.7621 172.9291 441.9272 181.6387 446.1837 180.96 465.6107 190.2352 470.9585 196.9087 471.5042 200.7545 476.0881 182.4305 485.1468 184.4665 491.2586 179.6027 498.6802 184.4665 512.4319 190.6876 517.1249 197.8136 516.6884 200.0758 527.0567 205.0527 529.3486 206.8625 534.4782 199.0578 541.5724 194.4203 541.3541 187.8598 536.4428 180.96 538.2982 175.7569 546.702 177.1142 560.2354 179.2634 566.0198 184.9189 567.3295 180.3945 578.8984 169.5358 578.4618 165.4638 581.1903 163.8802 587.4113 164.8982 594.6146 161.1656 599.5259 163.9933 602.3636 157.7722 609.3485 166.4818 618.8438 164.5589 626.9202 167.2736 631.1766 160.6 636.5245 159.6951 640.9993 146.6873 649.0757 137.9777 646.0197 132.3222 646.5654 129.7206 641.3267 116.7128 633.3594 120.3324 620.9174 115.4686 615.6787 113.9982 610.1125 116.3735 604.9829 118.4095 576.6064 114.3375 575.2967 113.6588 568.9666 126.8928 568.2026 123.7257 559.4714 131.078 544.1917 130.5124 535.4605 124.5175 535.2422 116.9391 523.3459 106.9853 519.3077 99.1806 518.6529 83.5712 511.6679 85.0417 504.3555 94.6561 490.3855 100.5379 487.2204 100.8773 472.0499 92.6201 470.6311 90.5841 465.8289 97.3708 460.5902 98.3888 456.3337 92.6201 451.5315 M 538.9572 486.7839 540.2014 496.2791 535.1114 498.0253 533.641 503.9189 526.515 503.3732 538.1654 513.305 538.6179 518.762 526.9674 519.7443 522.8954 524.219 509.0958 528.6938 512.2629 532.0772 511.5843 552.3773 513.1678 555.3241 512.9416 558.7074 502.8747 557.3977 497.106 566.129 490.8849 565.4741 486.4736 553.5778 477.4247 549.6488 478.2164 558.0526 473.0133 561.7633 471.5429 555.4332 465.4349 555.6515 458.7613 564.3827 453.4451 564.0553 450.6173 559.0348 445.188 561.4359 445.9797 570.1671 437.3833 568.3118 432.8588 573.5505 434.7817 587.193 438.0619 587.6296 444.5093 598.5436 450.3911 592.4318 458.0826 600.1808 456.8384 605.5286 452.6533 608.4754 445.188 607.4932 441.7946 619.2803 441.9077 616.8792 430.9359 612.7319 428.4475 621.7906 424.3755 621.7906 417.2495 632.0497 408.4268 633.9051 409.3317 629.103 397.9074 619.9352 404.9203 606.9475 389.1979 600.9447 383.7685 600.2899 380.9408 595.0512 382.5243 586.1016 390.8945 584.6828 394.7403 579.8806 395.1928 570.7128 400.509 556.088 405.1466 556.088 410.689 552.2681 417.0232 551.395 422.6788 561.4359 435.9128 555.6515 444.0568 554.9966 453.6713 548.5573 456.0466 527.275 450.6173 521.9271 441.2291 520.0717 426.8639 508.3937 421.887 505.7743 410.0103 505.7743 392.2519 504.2463 383.8816 506.2109 378.9047 501.8453 375.7376 495.6243 M 570.4021 424.7921 581.3739 422.1728 595.2866 424.1373 594.4948 418.2437 608.9731 417.0432 612.4795 418.7894 613.2713 426.975 629.6724 437.2341 634.4231 437.3433 636.7984 453.9326 635.1018 458.7348 626.7315 468.994 621.4153 474.6693 615.1942 485.2559 607.1633 488.6393 598.2275 494.7511 594.2686 495.406 580.9215 508.612 565.199 509.8125 552.5305 513.305 550.0421 517.998 544.0472 520.1808 538.6179 518.762 M 300.4055 486.893 303.3464 491.8043 301.3104 498.4619 295.4286 501.8453 299.1613 505.556 297.2384 516.9066 299.6137 522.0362 311.3773 529.7852 318.7296 529.2395 320.0869 539.0621 318.7296 542.4455 304.7038 535.8971 299.2744 543.3186 310.2462 546.8111 309.6807 553.3595 306.5135 560.1262 302.7809 559.2531 295.8811 562.6365 291.0173 569.9489 285.2486 563.7279 286.7191 553.2504 284.6831 549.5396 278.6882 553.2504 276.9915 561.5451 273.2588 562.4182 263.4181 559.5805 256.2921 568.2026 255.0479 573.8779 249.8448 573.3322 247.5826 567.5478 243.2843 566.129 230.729 570.822 224.2816 577.6978 221.2276 585.4468 223.0374 590.249 224.5079 604.9829 214.3279 603.7824 211.8394 611.3131 211.0476 623.3185 218.0605 638.8165 213.6492 639.4713 205.6183 647.1111 201.0938 646.5654 200.8676 640.9993 193.9678 631.0675 195.3252 623.7551 183.9009 622.6637 173.0422 630.5218 167.2736 631.1766 M 626.7315 468.994 639.9656 462.5547 645.0556 473.4688 640.5311 487.3296 636.9116 490.0581 640.8704 496.0608 637.8164 504.0281 634.9887 509.4851 632.0478 523.5642 626.166 524.5465 613.3844 518.3255 607.3895 517.5615 594.3817 510.2491 590.5359 517.7798 590.8753 522.8002 595.0604 524.5465 596.3046 531.4223 606.3715 538.189 604.4486 548.6665 597.5488 553.1412 599.4717 564.0553 607.1633 567.1112 605.0142 577.2613 607.842 579.8806 615.3073 580.2081 622.9989 590.5764 628.7675 592.9775 631.4822 597.234 629.3331 608.0389 625.9398 608.0389 630.0118 620.0443 634.9887 620.59 630.238 624.0825 629.3331 630.9583 611.4615 630.9583 608.86 635.2148 596.0784 640.781 589.5179 647.766 591.7802 650.3853 585.559 655.8424 581.8264 665.665 577.0757 661.5177 567.1219 661.1902 568.9317 654.3144 566.8957 650.2762 560.2221 646.7837 563.5023 640.781 560.7877 636.1971 563.5023 632.268 561.2401 626.7019 567.3481 624.4099 563.3892 609.8942 568.5923 600.2899 564.9728 592.7592 568.4792 588.721 573.5692 587.8479 572.0988 578.571 565.199 578.1344 562.9368 569.0757 557.2812 570.058 550.4945 566.4564 550.6077 562.1999 543.3685 560.0171 536.4687 552.159 535.2245 560.4537 521.9905 562.0908 513.1678 555.3241 M 382.5243 586.1016 378.6785 583.5914 370.7607 583.0457 370.1952 576.3881 375.8507 573.1139 372.005 566.129 373.1361 548.5573 378.7916 534.8057 364.0872 536.0062 362.7298 543.4278 357.3005 541.6815 343.5009 542.0089 340.4469 544.8466 333.3209 543.2095 330.2669 547.9025 343.3878 548.1208 346.668 552.5955 344.8583 561.1085 337.8454 561.7633 335.9225 568.0935 320.8787 566.2381 318.9558 569.0757 310.9249 569.4032 306.5135 560.1262 M 637.8164 504.0281 643.472 504.9012 652.4078 501.5178 658.2896 503.7006 663.2665 495.9517 673.6727 495.1877 682.9478 498.8985 685.097 505.7743 677.6316 504.1372 678.3103 511.8862 667.4516 514.833 664.3976 520.29 664.85 529.6761 679.1021 531.5314 679.3283 537.3159 674.2383 540.2627 667.1123 566.0198 668.4696 571.0403 667.3385 580.7538 676.3874 590.249 671.6367 604.8738 660.0994 605.7469 660.778 618.7346 646.4129 617.3158 641.6622 622.5545 634.9887 620.59 M 408.4268 633.9051 407.5219 647.8751 396.5501 656.6063 398.2468 667.0838 393.8354 675.3785 385.0128 677.5613 374.041 671.3403 375.059 662.1725 371.5525 656.8246 367.0281 655.5149 347.5729 656.3881 338.4109 666.7564 330.8325 670.1397 327.0998 677.5613 322.9147 677.0156 305.8349 679.1984 297.9171 681.3812 287.9633 687.1656 286.0404 672.3226 290.3386 662.3908 284.9093 652.2407 278.3488 655.5149 271.1097 651.2585 259.7986 656.7155 253.6906 657.4795 239.891 666.8655 219.531 662.9365 216.2507 665.7741 208.4461 665.7741 201.6594 668.5026 203.0167 656.3881 205.6183 647.1111 M 417.2495 632.0497 418.9461 639.7987 423.8099 650.8219 420.3035 658.4617 421.6608 665.3376 428.5606 666.5381 432.5195 672.5408 431.6146 680.7264 426.7508 681.8178 432.1802 688.6936 432.2933 698.298 419.1724 701.463 414.8741 705.0647 405.2597 706.4835 403.7892 718.3798 394.9665 717.5067 390.5552 719.4712 384.4472 716.5244 373.1361 716.5244 368.0461 720.4535 369.8558 728.8573 375.7376 725.5831 381.2801 729.7304 372.005 732.1315 370.3083 738.4616 364.5396 733.6595 363.2954 739.6622 355.6038 742.3907 360.5807 753.8504 355.2645 757.7795 351.6449 754.6144 346.8943 760.6171 338.9765 764.1096 334.7914 760.2897 313.1871 762.7999 300.2924 761.9268 297.0122 753.9596 288.4157 750.3579 279.3668 754.8327 274.6162 749.4848 267.1508 751.3402 263.4181 756.7972 253.9168 758.216 241.927 776.9882 239.7779 773.9323 251.9939 757.5612 259.7986 741.5176 266.2459 734.7509 270.7704 726.347 269.7524 719.6895 274.9555 713.6868 276.6522 708.0115 281.5159 705.283 285.588 689.4576 287.9633 687.1656 M 241.927 776.9882 237.9681 781.1355 232.765 780.1533 227.7881 784.3006 224.3948 785.5011 220.6621 779.2801 208.6723 770.0032 201.9987 775.1328 195.212 773.3866 188.1991 767.0564 182.3174 766.9473 184.5796 758.8709 193.0629 744.5735 197.5874 731.3675 193.7416 726.7836 195.5514 719.3621 192.3843 718.3798 192.0449 710.6308 202.6774 696.77 199.2841 690.0033 200.5283 685.7468 189.3303 675.0511 188.7647 671.4494 197.1349 666.6473 201.6594 668.5026 M 370.3083 738.4616 379.5834 739.2256 384.1079 734.6417 390.4421 739.553 397.5681 742.609 396.7763 753.0864 399.3779 755.051 404.2417 745.9923 413.2906 759.1983 420.1904 760.9446 421.3215 767.493 427.0901 768.1478 423.5837 772.186 416.1184 775.0237 416.5708 787.6839 411.1415 787.0291 407.5219 790.1942 402.2057 800.4534 386.1439 799.362 386.9356 806.6744 390.8945 812.2405 402.6581 811.6948 402.8843 819.7712 409.2186 817.4793 414.0824 818.4615 412.2726 826.3196 406.2777 832.4315 398.2468 831.1218 384.7865 826.9745 384.221 822.718 376.9819 819.7712 376.3032 814.7508 354.812 815.8422 345.7631 826.4288 345.5369 834.2869 335.3569 837.9977 327.8916 847.0563 320.0869 845.8558 320.5393 838.6525 314.092 838.8708 302.894 837.452 287.8502 829.703 274.8424 830.2487 264.323 826.3196 264.4361 819.5529 252.6726 813.3319 250.7497 821.2992 248.035 821.8449 235.3665 817.4793 237.1763 814.4233 231.1814 808.748 225.0734 810.0577 215.5721 804.7099 220.7752 796.9609 225.8652 797.07 227.7881 784.3006 M 398.2468 831.1218 395.9845 847.0563 401.1877 846.4015 397.1157 857.4247 411.707 863.4274 418.4937 868.0113 396.5501 885.5829 387.6143 891.6947 382.2981 898.134 377.095 908.8298 374.9459 924.0003 376.6425 929.7847 381.6194 934.3686 375.5114 939.8257 370.6476 948.3386 369.969 960.6715 371.7787 964.2731 369.0641 973.9866 371.5525 982.9361 368.1592 988.1749 356.0563 1000.2894 356.3956 1007.9293 342.1436 1012.2949 338.0716 1015.2417 322.3491 1017.3153 316.3542 1014.1503 314.3182 997.9975 311.1511 996.3604 312.6215 986.2103 307.984 970.9307 301.3104 967.1108 302.2153 960.1258 308.5495 957.8338 307.3053 948.1203 310.2462 938.516 309.002 929.239 314.7707 924.2186 305.1562 909.5938 297.3515 907.411 297.1253 900.2077 284.57 900.3168 283.6651 894.4233 291.2435 889.5119 289.7731 885.692 283.2126 883.4001 287.7371 876.4151 285.8142 874.014 293.9582 871.1763 293.5057 865.9376 282.8733 866.3742 280.4979 859.3892 292.6009 849.894 294.0713 854.6962 301.7629 854.3687 304.7038 851.8585 312.3953 853.6047 316.4673 846.9472 314.092 838.8708 M 338.0716 1015.2417 333.8865 1019.8256 322.5753 1027.7928 312.9609 1031.3944 305.8349 1040.8897 303.6858 1048.7478 296.786 1052.022 291.9222 1048.4203 272.9195 1050.6032 264.0968 1053.1134 259.6855 1057.2607 257.6495 1065.3371 253.2381 1065.4462 236.0452 1061.8446 213.9885 1055.5145 198.0398 1047.1107 185.2583 1037.6154 179.2634 1031.3944 168.744 1023.5363 172.816 1017.9702 180.5076 1016.6605 183.6747 1012.2949 180.7338 1008.8024 187.9729 998.8706 191.0269 988.9388 200.6414 981.9538 204.8265 974.2049 201.8856 967.9839 215.1196 973.0043 222.4719 979.6619 225.0734 978.5705 234.801 981.8447 235.9321 987.8474 241.3614 991.8856 239.3254 997.1244 241.3614 1002.4722 253.2381 1008.8024 254.8217 1019.9347 259.0068 1026.8105 254.8217 1035.3235 256.179 1043.3999 254.4824 1048.966 264.0968 1053.1134 M 662.0223 237.2889 668.4696 242.746 673.5596 239.4718 683.2872 241.1089 692.7885 238.7078 698.331 243.51 707.2668 257.0434 712.583 259.6627 717.7861 256.0611 726.6088 258.8987 733.2824 254.7514 709.4159 291.6409 702.6292 294.1511 700.8194 301.5726 704.0996 302.8823 700.8194 312.705 694.259 310.413 689.9607 311.941 683.1741 319.2534 681.9298 308.4485 677.5185 305.6108 672.994 315.4335 681.4774 322.5276 670.6187 327.2206 673.4465 336.825 670.8449 340.5358 668.6958 341.6272 660.8911 342.6094 652.4078 334.9696 647.4309 335.1879 640.418 331.9137 628.5413 329.076 631.1429 337.2615 630.4642 341.7363 623.4513 341.4089 621.5284 346.3202 608.9731 339.4444 608.9731 333.7691 604.788 328.7486 601.2815 332.5685 596.7571 328.4212 589.7442 335.5153 580.2428 328.4212 579.2248 321.5453 583.7493 313.4689 578.3199 309.1033 570.9677 306.3748 571.307 298.2984 M 672.2023 297.3162 665.1894 305.72 672.3154 306.1565 672.2023 297.3162 M 661.6829 306.8114 657.724 318.4894 659.0814 322.9642 665.0763 322.091 667.6778 316.3066 663.3796 313.2507 661.6829 306.8114 M 513.9596 399.6899 519.2758 400.1264 523.0085 388.121 538.6179 386.7021 541.3325 380.4811 551.6257 381.9 554.1141 375.1333 560.3352 381.9 573.343 384.5193 578.433 378.0801 583.523 376.1155 586.3508 371.6408 595.2866 374.6967 602.1864 370.0037 612.4795 366.0746 623.9038 369.0214 622.3202 357.7799 627.5233 353.96 627.4102 349.7036 621.5284 346.3202 M 668.6958 341.6272 670.8449 340.5358 M 670.6187 327.2206 681.3643 330.4948 687.133 328.5303 692.6754 337.589 680.6856 334.7513 680.4594 341.1906 677.4054 345.8836 692.1099 348.0664 685.4363 377.2069 684.6445 390.0855 686.4543 396.9613 693.5803 410.0582 695.5032 415.9518 693.5803 424.2464 686.115 424.0282 685.097 429.8126 678.3103 431.1223 671.7498 436.7976 665.0763 439.3078 653.4258 456.0063 646.7522 457.7525 639.9656 462.5547 M 581.8264 665.665 581.6001 672.5408 586.577 682.3635 585.2197 686.9474 567.3481 706.1561 561.8057 714.7782 561.3532 715.433 560.9008 720.7809 560.4483 721.2175 550.7208 721.1083 545.7439 718.4889 536.0163 703.1001 537.4867 694.3689 524.2527 687.9296 525.2707 677.9979 530.0214 673.7414 514.8645 662.1725 508.1909 667.7387 502.196 659.2257 500.9518 650.931 493.034 653.5504 492.5816 660.5354 485.2293 661.0811 481.2704 658.1343 476.9722 663.9187 473.3527 662.2816 474.3707 652.459 469.2807 648.4208 470.1855 643.0729 455.8204 636.5245 454.4631 642.4181 447.3371 642.8546 440.4373 655.6241 435.4604 651.9133 438.4013 646.6746 432.5195 645.5832 431.6146 640.3444 442.1339 640.8901 444.8486 628.8847 440.3242 623.8642 441.7946 619.2803 M 536.0163 703.1001 531.3787 703.2093 526.8543 708.3389 517.5792 705.1738 518.5972 712.4862 512.2629 720.6717 511.8105 733.1138 515.7694 733.5503 515.0907 741.1901 504.9107 734.9691 504.3451 722.418 500.6125 722.418 497.6716 713.5776 494.1651 716.8518 484.6638 717.1793 481.7229 724.2734 481.1573 731.1492 486.2473 737.5885 484.4376 748.2843 495.1831 746.8654 498.6896 751.0128 497.8978 764.8736 503.1009 769.8941 493.5996 772.0769 484.89 771.8586 478.3296 774.3688 470.9773 785.2829 463.0595 781.8995 462.3809 778.1887 455.4811 774.478 444.6224 773.9323 436.2522 767.2747 427.0901 768.1478 M 560.4483 721.2175 553.7748 727.9842 549.2503 736.2788 545.7439 737.5885 533.9803 752.4316 530.0214 763.5639 524.3658 770.658 521.1987 790.6307 518.9365 796.306 524.9314 806.347 540.8801 822.0632 550.7208 828.3933 569.0448 831.1218 578.9986 831.231 589.1786 829.4847 598.2275 822.6089 602.7519 826.3196 598.6799 832.1041 605.0142 843.4547 595.9653 838.5434 587.4819 836.0331 581.1477 836.1423 574.7004 831.5584 555.3583 835.7057 533.8672 832.9772 523.3478 834.396 519.9545 837.7794 513.5072 836.2514 484.89 845.6375 482.5147 849.5666 476.746 848.366 469.2807 850.4397 469.8462 854.9144 456.1597 860.808 447.7895 859.4983 424.2624 864.0822 418.4937 868.0113 M 678.3103 511.8862 688.4903 518.2163 697.6523 520.6174 697.0867 528.1481 702.8554 531.6406 703.3079 568.8575 706.8143 620.9174 708.9634 629.5395 704.6652 637.3976 686.9067 639.4713 669.7138 637.5068 661.2305 635.1057 629.3331 630.9583 M 695.5032 415.9518 697.5392 424.683 701.385 430.0309 699.6883 435.8153 703.8734 463.9735 703.7603 497.9162 682.9478 498.8985 M 285.8142 874.014 282.8733 872.9226 270.8835 875.2145 268.0557 895.7329 264.7755 903.4819 259.233 906.5378 265.0017 911.7766 260.0248 927.1654 250.6366 927.6019 240.5697 922.7998 235.9321 936.224 226.7701 936.5514 219.531 934.3686 208.6723 926.6197 212.405 919.5255 210.4821 911.0126 206.9756 909.0481 199.3972 909.7029 192.6105 904.9007 183.3354 887.8748 178.6978 884.3823 182.0911 877.5065 187.068 877.8339 189.6696 869.9758 201.6594 856.4424 199.5103 848.0386 203.1298 840.7262 204.7134 829.4847 215.3459 814.7508 215.5721 804.7099 M 201.8856 967.9839 198.4923 959.9075 191.2532 954.3413 189.8958 948.1203 184.4665 938.516 188.5385 932.295 194.3072 928.0385 194.7596 923.6729 200.9807 916.9062 199.3972 909.7029 M 510.2269 181.2999 500.6125 180.7542 492.8078 172.1321 496.2011 160.345 499.7076 158.2713 500.3863 147.903 508.8696 145.8293 518.2578 137.9712 520.8594 130.5496 515.8825 130.7679 501.0649 138.5169 495.6356 139.8266 489.0751 145.5019 482.6278 137.7529 471.7691 136.3341 460.6842 140.2631 466.6791 123.4555 464.1906 111.8866 470.9773 107.1936 480.5918 107.1936 482.4016 96.8253 489.5276 99.4446 496.5405 97.6984 501.5174 92.8962 507.1729 94.8607 516.6743 91.2591 516.7874 103.8102 522.8954 94.6425 529.1165 95.4064 534.3196 93.4419 544.4996 96.607 550.2683 100.2086 553.4354 105.1199 558.8648 102.6097 569.3841 106.2113 575.0397 100.7543 574.361 93.1145 583.2968 89.7311 582.1657 79.6902 589.1786 88.858 594.721 100.0995 589.631 113.0872 589.9704 118.5442 579.7904 118.8716 573.9086 126.0749 574.9266 132.7325 572.325 145.0653 578.2068 151.9412 M 690.9787 105.4474 665.6418 119.7447 666.2074 123.7829 647.8833 129.7857 646.2998 138.626 M 582.1657 79.6902 592.9113 86.3478 M 423.8099 182.5005 435.2342 181.5182 434.5555 173.0053 441.4553 171.9139 441.5684 163.51 451.4091 168.5305 451.8615 157.289 458.7613 152.3777 461.7022 144.7379 460.6842 140.2631 M 747.3082 107.0845 744.0279 108.5033 745.7246 116.1431 752.1719 118.9808 742.4444 132.8416 742.105 141.3545 723.3286 150.8498 714.2797 149.1035 708.9634 155.4337 716.0894 158.3804 722.4237 166.4568 715.637 171.8047 717.8992 180.5359 697.5392 183.8102 696.9736 191.8865 682.0429 200.9452 M 780.2235 137.8621 781.2415 152.2686 764.5011 199.9629 762.1257 214.9152 758.5062 224.5195 742.7837 240.8906 733.2824 254.7514 M 465.3218 329.5126 478.3296 333.0051 478.1033 342.1729 472.7871 343.5917 468.4889 349.1579 467.4709 358.2165 470.4118 359.3079 469.7331 368.694 471.656 372.5139 479.6869 364.0009 483.0802 365.6381 495.1831 361.709 499.8207 364.6558 500.16 369.8945 496.5405 372.2956 496.3142 379.1715 504.3451 386.2656 502.196 389.4307 507.286 396.7431 500.9518 399.6899 496.8798 410.1673 502.7616 412.8958 498.8027 423.4825 496.2011 422.1728 487.6047 410.9313 479.4607 409.7308 477.3116 413.6598 470.0724 416.2792 472.4478 425.6653 468.1495 431.7771 461.0235 432.432 454.5762 437.0159 451.0697 436.1427 451.0697 428.6121 445.3011 426.3201 442.6995 421.1905 438.0619 419.1168 430.5966 420.5357 430.8228 414.5329 427.6557 405.8017 429.5786 401.4361 435.5735 397.2888 432.1802 392.7049 431.3884 382.3365 414.6479 386.0473 407.7481 394.9968 402.545 383.9736 396.5501 385.9382 391.0077 390.9586 384.4472 388.6667 374.9459 393.6871 359.2234 391.8317 358.3185 396.8522 352.2105 398.271 348.9303 395.3242 339.4289 395.2151 338.2978 407.3297 328.0047 410.4948 324.0458 416.6066 315.11 417.698 309.002 411.0405 297.3515 410.713 291.696 411.9136 284.9093 408.0937 291.5828 399.2533 290.1124 394.5603 294.5237 387.4661 292.6009 381.136 297.4646 372.0773 294.9762 369.3488 288.4157 372.1865 283.4388 371.6408 285.0224 355.488 289.8862 343.9191 287.624 340.9723 278.9144 338.2438 278.1226 327.7663 282.6471 327.9846 280.8373 313.4689"/>
</g>
</svg>