<?xml version="1.0"?>
<svg xmlns="http://www.w3.org/2000/svg" version="1.2" baseProfile="tiny" width="800" height="1078" viewBox="0 0 800 1078" stroke-linecap="round" stroke-linejoin="round">
<g id="TR" fill="none" stroke="black" stroke-width="1">
<path d="M 693.0984 555.8797 690.3989 527.1182 679.8087 507.0394 678.9781 458.7418 662.7814 410.4442 655.7213 404.4749 633.7104 404.7462 628.9344 403.6609 631.8415 365.1313 650.5301 362.1466 652.6066 359.162 651.5683 354.8206 649.0765 342.0679 656.9672 332.2998 665.2732 336.3698 670.8798 330.6718 686.0383 293.7703 687.2842 288.8862 672.541 278.8468 711.1639 251.442 711.9945 244.116 712.2022 234.8906 690.8142 229.4639 685.623 221.0525 683.9617 221.0525 667.765 228.3786 663.4044 209.6565 644.5082 197.1751 639.9399 179.5383 620.4208 174.9256 620.8361 152.4048 616.6831 146.7068 621.6667 103.0219 649.0765 98.6805 668.8033 70.1904 687.9071 71.0044 675.6557 25.6915 679.6011 2.3567 687.9071 1 718.847 13.7527 717.6011 16.4661 728.8142 17.8228 730.0601 18.3654 730.2678 18.6368 729.8525 52.2823 741.0656 58.7943 741.2732 59.6083 750.2022 115.5033 722.377 164.6149 716.1475 190.1204 704.5191 193.3764 721.3388 199.6171 722.1694 199.3457 723.2077 199.6171 771.3825 187.9497 799 236.5186 793.3934 242.2166 798.7923 255.2407 796.0929 289.4289 785.5027 322.8031 795.0546 359.7046 782.5956 384.9388 783.4262 404.7462 794.4317 416.4136 784.8798 439.2057 787.1639 451.4158 786.1257 452.2298 772.6284 449.2451 768.0601 448.1598 767.2295 448.1598 764.1148 452.7725 757.0546 463.3545 756.0164 464.9825 765.153 483.162 748.3333 485.0613 748.1257 485.0613 753.9399 544.2123 753.9399 544.4836 737.5355 548.5537 740.235 564.0197 725.6995 594.1379 716.7705 587.3545 720.9235 572.1598 713.6557 558.0504 693.0984 555.8797 693.0984 556.4224 666.1038 537.4289 655.0984 539.5996 646.1694 567.5471 626.6503 583.0132 624.5738 597.6653 614.3989 599.8359 578.6831 584.9125 563.1093 542.3129 546.082 535.2582 546.7049 562.1204 531.5464 568.6324 550.6503 672.2823 544.6284 678.7944 556.2568 693.9891 556.2568 709.4552 533.623 718.4092 535.0765 746.0854 510.9891 737.1313 506.8361 748.2561 488.1475 755.8534 484.6175 751.7834 481.918 758.8381 476.9344 742.558 483.3716 733.604 458.0383 712.7112 456.5847 700.5011 441.4262 686.3917 439.3497 684.4924 441.2186 676.895 433.3279 667.6696 426.4754 661.9716 426.0601 659.2583 417.7541 599.2933 406.541 594.1379 417.7541 580.2998 415.2623 571.8884 416.3005 569.7178 416.7158 568.9038 423.776 555.337 419.2077 535.8009 428.1366 481.2626 420.2459 415.8709 425.0219 406.9169 406.7486 386.2954 403.0109 361.604 407.5792 285.0875 400.3115 268.5361 408.2022 262.2954 409.6557 260.9387 402.8033 192.291 449.5246 215.8972 466.5519 204.2298 470.7049 211.0131 463.8525 224.8512 479.2186 234.6193 494.7923 261.7528 508.7049 265.0088 522.2022 284.2735 522.8251 285.0875 553.5574 307.0657 552.9344 317.3764 569.5464 302.9956 575.5683 307.337 578.8907 290.7856 594.6721 297.0263 608.5847 290.5142 623.9508 293.4989 614.3989 338.8118 624.1585 342.8819 632.8798 346.9519 633.0874 346.9519 631.8415 365.1313 M 441.4262 686.3917 437.2732 704.0285 455.5464 718.9519 468.0055 747.9847 464.2678 784.0723 441.4262 810.3917 414.6393 825.5865 411.5246 843.7659 421.0765 852.72 411.1093 854.8907 399.8962 857.3327 399.4809 856.79 384.3224 839.1532 388.6831 822.8731 349.8525 793.8403 328.2568 796.825 308.5301 762.0941 308.1148 761.8228 302.0929 773.7615 286.5191 775.3896 272.1913 759.6521 208.6503 767.2495 208.235 769.1489 206.3661 778.3742 204.7049 785.9716 195.776 785.9716 185.8087 779.7309 181.4481 781.6303 171.2732 785.9716 159.4372 794.383 159.4372 815.0044 152.7923 816.0898 149.2623 826.4005 140.9563 835.8972 133.6885 841.8666 123.306 846.7506 113.5464 847.5646 101.5027 847.0219 104.8251 836.7112 110.847 839.1532 109.3934 831.2845 92.3661 822.3305 97.3497 806.0504 109.1858 804.6937 116.0383 789.499 95.2732 794.9257 91.7432 780.2736 98.388 776.4749 89.0437 775.6609 89.0437 751.7834 73.4699 728.72 69.5246 705.6565 60.388 706.7418 58.5191 697.7878 47.5137 700.5011 49.1749 689.6478 33.8087 687.2057 41.2842 664.6849 27.7869 666.5843 16.3661 635.1095 5.9836 632.6674 3.2842 581.3852 12.6284 590.6105 26.541 591.6959 26.3333 597.1226 42.3224 590.6105 32.5628 585.4552 37.1311 568.3611 1 567.2758 3.2842 532.8162 38.1694 526.0329 50.2131 539.8709 61.6339 534.1729 84.2678 545.8403 97.9727 530.9169 109.3934 546.6543 112.0929 519.2495 148.0164 530.9169 158.8142 528.2035 160.0601 512.4661 192.0383 515.9935 195.5683 526.3042 217.9945 529.5602 239.7978 524.4049 278.6284 500.5274 278.8361 501.8841 279.2514 504.0547 282.3661 520.8775 283.4044 527.1182 281.9508 536.3436 281.3279 537.1576 260.7705 543.127 261.3934 553.9803 257.2404 557.2364 253.0874 560.4924 240.6284 558.0504 237.929 569.7178 210.3115 586.5405 190.1694 622.8994 166.2896 639.4508 169.4044 676.895 151.1311 684.7637 162.7596 711.0832 152.1694 734.418 160.2678 741.744 157.776 762.0941 181.0328 776.7462 181.4481 781.6303 M 282.3661 520.8775 284.6503 520.6062 284.8579 518.7068 288.8033 520.0635 335.1093 514.9081 366.0492 522.2342 382.6612 514.9081 400.7268 541.4989 395.5355 559.1357 410.4863 572.4311 416.7158 568.9038 M 278.8361 501.8841 279.0437 501.6127 270.1148 419.6696 256.6175 417.7703 262.4317 401.4902 255.9945 402.3042 248.3115 390.0941 250.1803 381.1401 233.3607 355.6346 230.2459 328.5011 215.2951 316.5624 226.3005 292.4136 232.3224 300.5536 262.4317 308.6937 290.4645 307.8797 298.9781 300.011 297.1093 292.9563 308.1148 296.2123 324.1038 288.3436 329.918 242.7593 341.5464 232.7199 335.1093 211.0131 346.1148 201.2451 359.1967 248.186 370.6175 248.7287 388.8907 262.5668 408.2022 262.2954 M 50.2131 539.8709 51.459 498.628 64.7486 473.3939 45.6448 440.0197 46.6831 430.7943 61.6339 423.4683 54.7814 412.3436 78.8689 410.1729 71.3934 397.1488 74.0929 389.5515 86.7596 370.2867 89.2514 380.0547 95.4809 377.6127 100.4645 359.976 153.8306 375.442 149.8852 356.7199 165.8743 326.3304 153.2077 304.6237 151.5464 286.7156 169.8197 284.0022 188.3005 285.9016 193.6995 294.5843 193.4918 289.7002 222.5628 295.1269 215.2951 316.5624 M 411.1093 854.8907 423.153 852.72 423.153 870.3567 432.9126 882.0241 431.459 896.9475 448.4863 937.1051 447.8634 968.3086 462.6066 972.1073 442.6721 992.4574 421.4918 988.3874 425.4372 1015.7922 417.7541 1007.3808 419.623 1013.0788 384.3224 1044.011 366.8798 1043.4683 360.4426 1050.7944 338.224 1051.6084 334.2787 1045.639 316.4208 1076.5712 309.3607 1064.3611 303.1311 1065.9891 312.2678 1063.2758 307.4918 1054.3217 296.2787 1051.0657 287.3497 1058.6631 274.4754 1049.9804 274.2678 1037.499 264.3005 1035.5996 268.2459 1022.3042 261.6011 1022.3042 269.6995 1009.2802 256.2022 1009.2802 255.7869 973.1926 243.3279 964.7813 247.4809 950.4005 237.7213 946.8732 245.8197 937.1051 234.6066 938.7331 240.4208 930.8644 229.4153 928.4224 234.3989 919.197 230.0383 915.127 240.6284 911.057 237.7213 905.3589 215.7104 902.3742 223.8087 899.9322 218.8251 886.0942 202.0055 886.9082 215.5027 881.2101 206.9891 868.7287 197.6448 868.4574 204.4973 858.9607 180.2022 862.2167 181.2404 850.278 173.765 842.1379 175.4262 862.2167 168.1585 855.4333 166.082 861.674 173.765 867.6434 162.7596 868.7287 168.5738 880.1248 158.6066 881.2101 162.3443 886.3655 154.8689 893.9629 159.4372 894.5055 154.2459 910.243 170.0273 958.2692 167.9508 969.9366 179.5792 979.162 178.541 992.7287 165.0437 997.3414 147.3934 987.5734 131.8197 966.1379 122.4754 931.6784 115.8306 928.1511 112.7158 869.8141 118.1148 864.3874 112.3005 864.116 106.9016 848.1073 113.5464 847.5646 M 522.2022 284.2735 513.2732 262.5668 535.0765 180.081 521.5792 129.3414 547.1202 115.232 558.541 133.4114 569.9617 135.5821 555.0109 98.6805 566.224 100.8512 574.9454 90.5405 579.5137 98.1379 621.6667 103.0219"/>
</g>
</svg>