<?xml version="1.0"?>
<svg xmlns="http://www.w3.org/2000/svg" version="1.2" baseProfile="tiny" width="800" height="828"
    viewBox="0 0 800 828" stroke-linecap="round" stroke-linejoin="round">
    <g id="state-borders" fill="none" stroke="black" stroke-width="1.5">
        <path
            d="M 659.4167 364.7617 659.2083 362.4018 661.0417 359.6673 660.7083 355.884 661.2083 352.3254 660.25 350.6398 663.7083 350.49 664.0833 353.1121 666.7083 352.4753 667.2083 350.5649 668.875 350.3401 669.25 348.2799 671 347.6805 672.9583 343.3353 674 345.8825 676.625 346.6692 679.7083 346.0698 680.0833 350.9395 678.7917 354.1609 685.0833 356.0338 686.3333 356.7456 690.25 359.3302 691.0833 366.8594 691 370.1932 690.0833 371.0173 690.4167 373.9766 689.2083 375.5498 690.125 378.5465 689.125 382.5546 687.625 384.4276 684.7917 383.0416 682.7917 384.3901 683.4167 386.5253 682.0833 390.3835 682 392.5186 683.3333 395.9274 683.0417 398.9616 684.5833 400.2351 684.875 404.2432 683.8333 406.9028 680.8333 406.3409 679.4167 410.349 677.7917 411.3604 675.5 410.0868 671.4167 407.6894 670.9583 410.7236 668.5417 411.5102 668.7083 408.4386 668.0417 403.0446 666.0833 391.6196 664.4167 387.9487 662.3333 386.3005 662.875 383.0041 661.625 378.097 663.1667 377.3104 662.125 375.7746 659.625 367.0467 659.4167 364.7617 M 320.875 685.4834 319.375 685.371 316.6667 687.5436 320 688.5175 319.9583 688.8172 319.6667 690.1283 318.7083 694.5484 318.875 697.3203 320.125 699.9799 321.3333 706.7225 321.1667 711.9292 318.375 711.6296 317.7083 713.465 320.2917 714.8136 321.125 716.237 321.75 728.973 321.4167 731.0707 318.9167 731.3703 310.8333 730.1716 308.5417 730.1342 305.25 732.5315 304.1667 735.0413 304.8333 737.4012 301.375 741.9711 301.2917 742.0461 301.25 742.7952 301.1667 742.8702 297.4583 747.2528 296.0833 749.8 295.25 753.2462 297.5417 756.2429 299.75 757.8911 302.2917 758.2657 307.125 757.554 306.25 759.352 303.5417 758.453 300.4167 758.9399 297.5 758.5654 294.5 759.0149 286.5 762.4611 282.2917 762.8357 281.2083 763.4725 276.9583 766.7314 275.4167 769.2036 275.125 771.3388 276.0417 772.7997 274.5 774.7475 274.625 779.6172 272.2917 782.951 269.9167 784.1497 266.4167 786.4347 265.125 788.832 259.5417 789.4688 258.625 791.1919 255.625 790.705 249.8333 788.3451 246.1667 785.3109 250.625 779.4673 250.8333 777.5195 248.125 773.0619 248.9167 772.2753 250.4583 769.316 248.75 768.0424 247.5417 765.7574 249.0417 764.1093 250.7917 761.8617 251.1667 757.8911 252.75 754.5947 254.4583 751.7104 252.1667 749.6127 250.8333 750.4368 248.0417 749.3505 250.2083 744.2561 249.2917 742.121 250.6667 738.0005 250.7917 735.4533 251.3333 732.4566 248.4167 729.0479 245.9583 730.2091 244.875 731.6325 243 732.7938 240.75 731.8947 240.7083 731.8573 240.5417 731.7075 238.9583 729.5348 238.4583 727.2499 239.0833 722.5301 240.9583 717.4731 238.875 715.0758 234.125 713.2028 236.7917 709.382 235.1667 706.9847 235.5 704.9994 233.375 706.2355 228.2917 706.0482 230.4583 704.1753 231.1667 701.7405 228.7917 700.9538 222.625 697.1705 226.5417 695.1477 227.625 693.2373 230.1667 692.3383 231.5 694.5858 236.875 694.6982 239.3333 695.335 239 693.6868 241 689.866 243.8333 689.3416 246.5 690.4654 251.4583 689.4915 255.1667 690.6152 256.9583 685.8205 261.9167 685.5958 262.7917 683.3108 264.625 681.2131 263.8333 680.0519 260.125 678.6659 257.25 678.8906 256.3333 677.6545 258.5 676.3434 260.25 674.2832 260.7917 670.9868 259.5 670.2751 259.875 666.0798 263.625 665.9674 265.0833 663.8697 266.125 660.6857 267.0833 660.5733 268.7917 660.0114 270.1667 661.5098 272.2917 661.0603 274.375 662.9707 277.0417 663.57 278.9583 666.1547 281.9583 667.2035 286.875 662.9707 287.1667 661.285 287.6667 657.277 291.2083 655.5539 295.0417 654.4301 297.8333 654.6923 302.4167 656.4903 304.375 654.1679 304.2083 652.7444 305.7083 653.6809 309.9167 651.9204 309.0417 647.9123 312.625 647.7999 312.5417 649.523 316.5833 648.9611 317.125 650.9839 319.625 650.4969 320.0417 648.3992 323.75 647.1256 326.25 642.3684 327.375 643.7169 331.0833 643.6794 332.5417 641.6567 334.125 644.9156 334.625 649.523 333.4167 653.1565 332.0417 660.9105 332.1667 663.0456 329.75 669.8631 329 673.0845 325.4583 677.3548 322.0833 682.5241 321.3333 682.9362 321.3333 684.0974 320.875 685.4834 M 384.7917 555.2019 385.1667 555.6514 386.25 555.7638 387 556.3631 387.0833 555.614 384.7917 555.2019 M 227.625 693.2373 227.5 690.8774 224.9167 691.0647 221.875 688.068 219.3333 688.1429 219.3333 684.8466 216.3333 686.1576 214.5 685.8954 212.7083 685.5958 210.625 682.7489 206.3333 680.2392 204.7083 680.0144 202.2083 676.3809 200.2917 676.3809 200.5 674.1334 198.9583 673.0471 200.3333 670.6872 196.625 670.0129 192.0417 665.7426 188.5 664.1694 185.4167 663.6075 184.1667 661.2101 182.9167 655.1043 181.2917 648.4742 180 639.7463 177.625 631.805 175.7917 630.1568 174.5417 624.6504 173.7917 623.6765 172.5 618.3948 171.4167 615.9225 169.0833 612.7011 168.9167 610.1913 164.9583 608.3933 164.0833 605.2468 167.25 604.5725 169.8333 601.426 169.1667 599.8902 170.375 597.4554 168.8333 595.957 170.625 594.8333 170.5417 592.5108 169.25 591.874 168.5833 589.1395 169.3333 588.3154 168.2083 584.3448 164.9583 584.7943 M 164.0833 605.2468 161.25 601.0514 158.5833 592.8854 159.9583 590.7502 155.375 589.0646 153.1667 582.6966 M 434.5417 397.4257 437.25 398.8117 439.5833 401.5087 442.1667 402.4827 445.9167 402.2205 448.7917 400.1602 454.6667 400.385 456.2917 399.4485 460.3333 399.6733 463.375 398.4371 463.5833 404.8051 462.25 408.4761 466.375 409.8246 467.9583 411.5477 468.9583 409.5624 472.2917 407.3523 480.0833 410.2366 481.875 409.7871 482.8333 412.2219 485.9167 412.2594 488.9583 408.6634 489.5833 406.6406 488 405.0673 489.5 402.7074 489.2083 400.1977 487.7083 398.587 490.5417 396.6391 491.9583 398.5495 496.4167 399.5983 498.5 402.2954 500.4167 403.1944 502.25 402.3703 503.8333 403.6814 508.5417 405.9289 511.5417 409.1503 515 409.4875 516.75 410.7611 516 414.1698 518.7083 415.5183 518.9167 413.8701 522.5833 412.7838 522.75 415.7805 523.6667 417.1665 528 418.1404 529.1667 422.2983 527.0833 424.2087 521.9583 424.4709 520 425.1827 514.5833 429.3031 512.125 433.2363 511.9583 436.4952 515.3333 442.8632 515.0833 444.7361 512.2917 444.9609 510.6667 446.2719 512.1667 445.1856 516.5833 445.298 517.5 446.8338 510.2083 451.7409 508.7917 453.7262 509.875 457.1724 507.25 459.1203 503.25 461.3678 498.7917 466.7993 494.9167 469.0094 485.5833 471.4067 479.9583 473.2422 471.0833 477.5125 466.1667 480.8089 463.625 483.3186 460.9583 484.9293 456.3333 489.2745 455.0833 491.4472 453.3333 490.3234 455.0417 491.5221 450.6667 496.5415 449.25 499.276 447.6667 500.6245 443.875 505.6815 438.25 510.626 437.7083 512.2742 432.4583 515.1211 425.0417 518.6422 421.125 522.1633 418.4167 524.7105 416.4167 528.2691 411.375 532.8016 407.5417 534.225 406.75 535.1615 398.875 538.6826 394.5 541.2673 388.4167 546.474 386.5 549.8079 386.5 551.4186 389.5833 551.9805 388.375 557.2621 388.2917 560.0715 386.0833 560.5211 378.5417 564.4917 375.625 565.1285 371.9583 566.8141 367.5417 565.8402 363.1667 565.9526 359.7083 567.7131 358.2917 569.6235 356.5 575.9915 352.875 579.3628 352.7083 581.9849 350.7917 583.0338 347.875 583.296 346.3333 578.9133 343.75 578.4263 339.8333 579.3253 336.625 580.7862 333.8333 582.8465 332.0833 585.2813 330.8333 589.6265 328.5833 592.5108 326.3333 602.2875 328.2083 609.6669 330.5833 613.8248 329.8333 620.2303 328.7917 623.5641 329.2083 628.6585 332.1667 635.7007 331.5833 639.1469 332.5417 641.6567 M 246.1667 785.3109 242.375 781.7898 235.2917 773.1368 234.8333 772.1254 231.1667 768.6792 229.2917 762.6858 225.75 755.4937 224.9583 752.8716 223.875 744.5183 220.7917 733.8426 222.0833 733.5055 220.6667 733.7677 219 728.3736 215.0833 720.0952 213.7917 717.1735 211.5 708.1834 208 699.9424 205.8333 698.519 204.0833 692.4132 203.625 692.3009 203.5 692.3009 199.5 688.1804 198.7083 688.1055 195.8333 684.0599 194.4583 684.0974 193.5 681.8499 190.125 673.6839 189.4167 672.8972 185.4167 663.6075 M 546.625 420.6876 544.0833 420.313 546.0417 416.1176 547.75 416.6421 547.875 418.9645 546.625 420.6876 M 570.875 417.8408 573 421.287 571.5 422.4107 570.875 417.8408 M 564.375 415.4059 565.25 420.8374 563.5417 421.0247 562.0417 418.5899 562.7083 414.3945 564.375 415.4059 M 568.9167 414.1323 569.0417 418.103 565.5833 413.7952 567.25 414.1698 568.9167 414.1323 M 204.125 691.8514 203.75 691.4019 203.625 691.9263 204.125 691.8514 M 320.875 685.4834 320 688.5175 M 343.25 429.9774 341.9583 432.8992 337.875 434.2851 337.2083 436.4203 337.875 440.9902 340.125 440.8404 340.5417 443.8746 341.0417 447.9576 339.4167 450.5048 342.0417 450.3549 341.3333 455.5992 342.2917 457.2473 336 459.6447 337 462.6039 339 462.3792 340.0833 463.5779 339.6667 467.9605 338 471.0321 340.125 471.2569 340.5833 472.8676 343.5417 474.4034 344.7083 476.7633 349.625 479.3854 348.4583 483.6183 345.7083 485.716 341.9167 485.1166 340.9583 482.7193 338.375 484.3675 335.9583 488.4505 334.2917 489.6117 334.2083 491.6344 332.625 495.1181 334.75 497.7028 332.7083 499.9503 332.75 501.1864 328.4583 502.2727 325.75 499.8005 322.875 498.3021 324.1667 497.2158 323.5833 492.6084 321.375 490.7729 323.2917 489.2371 324.625 482.6818 323.7083 480.734 321.5417 479.6477 319.9583 477.7747 318.25 476.9506 310.8333 479.9099 307.9583 477.8496 304.875 477.4001 303.1667 481.0336 300.625 479.0483 296.25 478.5614 296.7917 475.677 294.1667 474.778 293.6667 472.7927 286.4167 471.2569 282.5 471.3693 281.125 469.5713 279.0833 468.7097 280.6667 472.2683 280.0833 474.1038 278.25 474.7031 279.0833 477.0255 279.1667 480.4343 276.5 481.8952 276 484.9293 275.5 487.0645 271.875 486.1655 269.2083 484.2176 267 485.2665 266.9167 488.6378 265.2083 491.5595 266.4583 496.0546 269.3333 497.8151 266.375 498.864 264.9583 502.1978 263.375 502.6473 263.625 505.644 259.75 505.8313 259.4167 508.6407 257.7917 510.6635 258.5 512.8361 256.1667 513.6602 254.625 512.5739 254.75 510.1016 252.125 508.7531 250.7083 509.2775 250.2083 510.7009 245.25 516.6943 242.1667 515.683 241.3333 517.5933 242.2083 519.691 240.9167 520.5526 241.2917 523.0998 237.375 524.1486 236.4167 523.5493 237.7917 525.5346 235.7083 526.7707 234.9167 529.4678 234.125 528.4938 230.5 527.3326 229.5833 530.0671 227.9167 530.5166 225.2917 531.7902 225.25 535.2364 226.375 536.1729 226.6667 539.4692 222.5 538.0833 218.2917 538.8699 214.375 539.2445 213.375 537.1093 211.1667 537.896 206.25 535.0491 204.625 537.5963 205.4583 539.7315 206.8333 540.593 206.0417 543.3275 207.3333 544.9008 207.125 548.6092 203.4167 548.8714 201.6667 548.347 198.2917 549.246 196.625 549.246 196.2083 551.7932 193.9583 552.3176 191.4167 549.3584 186.3333 551.7932 186.7917 554.228 184.9167 554.228 180.7083 555.8013 178.9167 559.3973 177.2917 560.1839 176.5833 557.9739 170.3333 560.1839 170.7917 562.9184 170.375 566.4021 171.9167 568.1626 174.8333 568.4998 174.8333 571.2717 171.875 573.1446 174.375 574.2309 172.2917 577.9019 171.1667 581.7227 168.25 582.2471 167.4583 581.2732 165.0833 582.9214 164.9583 584.7943 161.5 585.8806 160.0833 582.322 158.3333 582.0973 153.1667 582.6966 150.5417 577.7521 148.4167 577.0029 145.7083 567.863 144.5417 565.3907 143.9583 560.8582 144.0833 558.5357 142.8333 555.3892 143.1667 553.3664 142.0417 551.0065 142.5833 548.4593 142.375 544.9008 140.5833 540.8178 141.1667 539.282 139.5 537.5589 139.3333 532.1648 135.7083 521.3018 133.75 517.4061 133.6667 514.1846 135.2917 513.5853 132.1667 511.1504 131.625 508.1912 132.7083 506.0561 130.5833 501.7483 130.9167 499.0138 130.0417 497.2533 129.125 496.1295 130.125 492.2338 128.6667 490.0237 128.625 486.3528 129 485.2665 126.8333 478.861 126.75 475.9392 125.0833 470.7699 125.3333 468.1104 127.2083 467.0615 126.5417 464.2896 128.375 462.7163 131.0417 460.1317 133.4583 460.6186 133.5417 462.8287 138.25 463.9524 140.25 463.016 141.2917 462.9785 142.6667 460.5812 145.8333 460.731 145.5 455.7864 147.25 452.7897 147.375 450.3924 145.5833 449.3061 147.4167 446.684 151.25 449.2686 152.2917 450.9168 154.7917 450.9168 157.3333 449.381 158.3333 446.4218 159.5 446.5716 160.1667 443.4251 158.7083 440.8779 157.625 439.1173 157.625 439.0799 156.5 438.8176 156.3333 438.2558 154.5833 436.9072 152.6667 434.847 156.7083 434.3226 156.9167 431.7005 160.1667 430.8764 160.625 428.2917 163 426.9058 167.4583 426.4563 170.5 425.4823 169.25 423.7592 166.2083 423.5719 161.25 424.8081 161.25 424.8455 157.25 424.883 156.6667 421.5117 158.5 419.6013 156.9583 418.3277 156.75 416.1551 160.0833 415.2561 165.75 413.1584 M 128.375 462.7163 127.4167 459.6822 128.4583 457.135 129.8333 456.2734 131.4167 453.7262 131.875 450.6171 130.5417 445.8599 126.9167 437.7313 127.7083 437.3567 124.1667 436.3454 124.625 433.3112 123.5417 430.4269 125.0833 429.6403 126.125 426.4937 127.2917 426.1191 126.5 424.6957 123.875 423.2348 126.3333 421.4742 122.0417 419.0769 124.2083 417.0167 121.125 413.3457 122.7083 406.8653 124.9167 405.9289 127.75 407.0901 130.875 405.9663 133.0417 403.8312 125.2083 404.2058 121.2917 403.0446 119.7917 404.8051 117.5 403.2318 116.4583 406.9777 113.9167 411.9597 112.8333 414.7691 113.8333 416.6046 112.5417 418.6274 115.6667 422.0361 113.6667 426.6436 110.2083 430.8389 110.3333 433.6483 102.4167 436.8698 98.4583 439.1548 93.9167 440.5782 91.9167 442.6384 88.75 443.2378 85.625 444.6237 81.375 446.3843 80 446.0846 77.8333 446.0846 75.2917 447.5081 64.9583 443.2003 59.2917 439.2671 55.25 435.9333 52.25 432.8617 44.7917 424.4709 35.625 416.4548 36.2917 414.8441 35.0833 416.1926 31.4167 412.9711 24.5833 405.4419 23.7917 403.3442 25.6667 399.8231 29.9583 402.3328 30.375 406.0038 34.7917 403.3068 38.875 402.6325 40.25 401.5462 42.4167 401.696 46.0417 400.4224 49.0417 399.1863 52.0833 397.0137 56.1667 396.7515 58.8333 393.7922 58.7083 392.2564 60.7083 390.9454 63.625 387.1621 65 388.8102 66.2917 386.3754 68.0417 383.7533 71.5417 381.3559 72.3333 379.4081 66.5 379.7452 64.3333 378.6589 61.25 378.6964 57.25 382.7419 54.9583 386.75 50.75 387.3868 46.4583 389.2972 43.1667 390.1213 36.875 389.7092 29.0833 387.9861 15.5 379.9325 12.75 376.9358 13.25 374.8756 9.1667 373.115 9.5833 371.317 7.1667 371.0548 6.7083 368.8073 2.125 368.1705 1 366.0728 2.9583 365.5858 3.9583 360.7162 7.5 358.2439 18.7917 358.0941 19.0833 349.2538 21.375 350.7896 24.0417 349.0665 25.5833 351.2391 28.0833 349.8532 30.7917 350.8645 34.0417 349.6659 38.9167 350.0404 41.7083 349.3287 45.4583 352.6626 53.4583 352.6626 55.75 349.2913 68.375 345.8076 68.3333 350.4525 70.9583 351.3515 74.7083 351.314 76.5833 349.2913 79.625 347.3434 81.3333 347.6056 82.7917 345.433 79.9583 345.2083 79.625 341.0878 83.0417 338.9152 85.125 339.5895 87.8333 340.5259 90.2917 340.2637 93.0417 338.8028 96.5833 338.8777 97.875 339.8891 101.5833 338.8777 105.0417 338.9901 108.8333 337.9038 111.75 340.3761 116.375 340.0764 116.875 341.9494 120.875 345.9574 121.4167 343.6725 125.875 344.6839 127.0833 347.306 133.375 347.4933 134.5417 344.2343 136.875 343.7474 136.5833 346.5193 138.625 347.6431 136.3333 352.0258 137.9167 353.8987 140.3333 355.2098 141.125 357.27 143.125 355.8466 145.5417 356.1837 145.8333 359.3677 144.7917 359.9296 144.5417 362.3644 147.4167 365.3611 148.75 368.0206 150.0833 366.747 152.375 367.6461 151.5833 372.3284 155.0833 372.1786 157.125 372.9652 158.7917 375.4375 160.625 374.2013 161.25 375.3626 165.5417 377.3104 165.2083 379.7827 168.5 379.5579 170.4583 382.9292 172.25 381.5058 175.5417 382.255 181.75 378.5465 176.1667 375.8121 177.3333 373.115 182.7917 369.7812 184.8333 369.519 186.875 366.4099 187.375 363.7129 186.3333 360.7536 188.2917 356.2211 185.7083 352.5876 186.5 351.5388 185.375 350.6772 182.2917 350.7147 183.0417 348.0926 185.0417 345.7702 183.9583 344.534 180.75 344.1594 183.1667 341.35 182.7917 339.2898 183.6667 337.267 185.9583 340.039 188.7917 338.4282 188.375 336.4804 185.2083 335.5439 184.25 332.8094 186.3333 331.9853 187.875 333.9332 190.0417 334.2703 192.1667 333.4088 192.0833 330.974 194.2083 329.0636 198.5833 329.5505 198.1667 331.3485 194 336.9299 201.4167 338.7654 203.9583 338.166 205.5833 338.7279 210.375 336.5553 211.4583 339.14 214.0833 342.5112 213.5417 345.2457 210.4167 344.9835 208.8333 346.5193 211.1667 350.6398 209.4583 353.4117 211.7917 355.7716 208.125 358.2439 203.2083 356.6332 201.5833 359.555 204.375 361.2406 204.875 362.8888 207.7917 364.1998 210.625 360.9409 214.5417 360.1168 217.375 355.5094 219.7083 354.9101 219.4583 352.0258 222.0417 351.6137 225 350.6398 230 351.7636 231.7917 351.6137 233.7917 349.9655 234.6667 352.1007 238.0833 354.1235 240.25 353.7489 241.375 351.5388 239.75 349.8906 238.9167 347.5682 239.25 345.433 238.5 342.7735 239.7083 342.3614 242.875 344.7588 245.375 342.1367 244.4167 338.0162 242.0417 336.6302 239.5417 337.0423 238.1667 335.3192 242.125 333.6335 239.7083 331.1238 240.125 328.9512 243.5 328.0147 245.8333 328.5766 248.25 327.0408 250.8333 326.9284 252 327.8649 254.2083 326.816 254.7083 323.9692 253.5 318.8748 252.0417 318.3129 249.875 319.7363 249.5833 321.3845 245.75 320.8976 242 322.321 239.5833 321.0099 237 321.3471 234.5 320.5604 232.4167 318.9497 230.2917 315.6908 229.9583 311.7951 231.125 307.2251 233.75 305.3147 235.75 305.502 237.7083 304.3408 239.4583 301.9434 240.7917 300.2953 243.4583 299.2839 246.75 296.9989 250.875 295.538 253.7083 292.8784 255.4167 291.8296 258.1667 291.6048 263.7917 288.1586 265.9167 287.8215 268.125 284.8623 270.75 283.8883 273.1667 284.4128 273.7917 281.1538 276.7917 280.1425 280.5 279.1311 281.5 280.5545 285.5833 282.0154 292 281.8656 294.5 283.8134 298.1667 284.5251 297.7083 287.0349 301.6667 290.8182 301.75 293.5901 297.8333 297.4484 298.2917 300.5575 296.5833 302.0558 296.2917 304.116 294.875 305.2023 291.5417 310.4466 292.8333 313.1811 290.2917 313.5931 288.6667 314.8292 283.0417 314.4921 282.1667 315.5784 282.0833 317.0768 281.5 317.9758 280.4167 317.751 280 318.2754 280 318.7249 280.125 321.1223 281.375 324.4561 282.9167 326.7411 280.9167 327.3779 279.9167 327.7525 279.875 328.202 280.1667 329.7378 275.4167 333.4462 275.9167 334.3827 278.25 339.2523 278.0417 345.0584 280.7917 347.1187 279.7083 348.3923 281.3333 350.1528 284.4167 346.6692 286.7083 347.6805 289.875 351.1268 292.7083 352.4378 297.2083 347.8304 297.75 345.9574 297.5833 345.2832 295.6667 344.7962 296.7083 342.3989 294.7917 339.8517 291.2083 340.9754 292 338.0911 291.7083 333.8957 289.1667 332.8469 287.9583 331.2362 288.1667 328.1271 285.9583 324.2688 284.7083 322.5457 288.7083 319.624 291.8333 320.4481 290.6667 317.6012 294.8333 316.0279 296.4167 316.6647 294.7083 319.549 296.9167 320.6728 294.4583 324.9806 294.7083 325.7672 296.0833 324.4187 299.7083 324.0066 301.5417 327.0782 304.6667 326.9659 306.7917 325.9919 306.2917 325.1679 305.9583 325.0555 305.5833 323.4447 305.1667 322.6207 305.625 321.2347 307.5833 321.0848 309.875 323.1451 308.625 325.4301 309.0417 327.1532 311.375 327.9023 313.5 325.3926 316.3333 326.7786 318.375 326.2542 320.875 327.3779 321.2917 324.7933 326.125 320.7477 328.0833 320.523 331.25 319.2494 333.8333 319.4741 333.7083 322.2835 336.25 323.4447 336.9583 325.3177 334.8333 326.7037 333.1667 328.4642 332.4167 329.4007 334.5417 329.7004 336.1667 328.1645 338.25 330.7117 338.875 328.9512 341.375 327.6027 344.7083 328.2769 344.9583 326.8535 348.25 324.9806 349.1667 328.2769 347.875 329.1759 348.6667 332.0228 351 330.974 353.4167 331.3485 355.75 332.6971 356.8333 332.4348 359.6667 328.6141 360.0417 325.5424 363.1667 326.4789 366.0833 326.0294 367.2083 324.9431 369.5417 325.6923 370.6667 328.3893 374.0833 329.9626 376.7917 330.3746 378.1667 334.2703 382.2917 335.057 385.625 335.6938 387.8333 340.7881 391.125 341.1253 391.125 339.552 394 338.8777 398 338.3159 399 339.9641 400.7917 339.8142 401.4583 341.6122 400 343.7848 399.1667 346.9688 400.7083 347.231 400 352.8124 397.8333 353.8238 401.875 358.3563 405.5417 360.8286 409.4583 360.8286 412.625 359.4426 415.9583 354.5355 418.75 354.985 421 357.8319 422.5417 361.0533 426.2083 362.2145 428.0833 367.9457 432.5417 369.0695 434.6667 367.2715 434.625 370.83 433.2083 374.0515 436.25 375.4749 435.25 379.8951 435.9583 381.4683 439.0833 385.1018 444.4167 385.1393 445.0417 386.5253 443.0417 388.6229 442.2083 390.7581 440.7083 392.9682 438.375 394.4665 436.5 394.429 434.5 396.1896 434.5417 397.4257 435.5 399.0365 434.5 401.696 430.5 402.4452 428.8333 403.7937 424.0833 406.266 421.625 410.5738 421.6667 412.7464 423.0833 416.5672 419.5417 420.0508 420.25 421.5117 417.4167 422.1485 416.1667 425.4074 417.8333 428.0295 417.6667 429.7152 414.4583 428.7787 414.375 428.7787 414.2917 428.7787 412.2083 435.2591 409.0833 436.0082 406.0417 434.2851 397.1667 434.847 397.125 436.645 395 440.5033 393.0417 441.5521 392.25 443.7997 388.9583 442.4886 389.3333 447.2084 390 449.0813 388.7917 450.9917 391.6667 454.4754 390.625 457.0226 391.2083 460.731 390.25 462.3417 390.5833 464.7765 399.2917 466.612 398.7083 470.9198 395.9167 472.4181 394.2083 469.6087 391.875 468.7472 389.125 470.7699 387.0417 466.9866 384.75 466.7244 381.625 464.7391 380.2083 464.9638 378.25 463.428 376.3333 464.8889 376.3333 464.9264 375.5 467.6234 376.1667 468.9719 378.875 470.1331 379.3333 471.7064 381.5 472.0061 381.3333 476.4262 380.5 479.7226 382.4583 479.4604 383.1667 481.8577 384.875 481.8952 384.125 488.0384 385.3333 490.2485 386.4167 495.7549 384.5417 496.2044 384.0417 499.3135 382.2083 500.6995 377 502.7972 377.2917 505.2694 373.4583 509.3899 372.9167 511.1504 370.4167 511.3377 366.9167 514.2595 366.7917 516.6194 365.5833 519.3914 365.625 521.4141 363.375 523.6991 363.2917 525.7594 359.7083 525.9466 357 524.673 354.7917 526.3212 M 116.9583 417.3163 115.7083 416.1551 115.2083 412.7089 117.4583 411.0233 119.1667 413.7952 116.9583 417.3163 M 277.0417 663.57 277.625 660.8355 279.25 660.873 280.4167 658.6629 283.4583 657.7265 284.75 655.3666 286.7083 649.523 282.8333 648.624 280.6667 647.1631 280.9167 643.155 281.6667 641.0199 279.625 640.8326 276.0833 641.5443 276.2917 639.8961 274.0417 637.5362 274.1667 635.5883 273.875 633.5281 270.75 633.2659 269.9167 630.906 265.6667 632.1047 264.7917 634.7268 260.4167 636.1128 255.9167 638.4352 256.2917 636.375 255.2917 634.0525 252.375 634.3148 248.4167 633.3408 247.7917 635.0639 245.25 636.787 242.875 634.502 244.625 631.6177 241.625 628.9582 242.0833 627.1976 240.625 625.2123 243.5833 624.3882 244.25 628.0966 248.2083 629.4451 252.25 628.9582 254.3333 632.3294 255.3333 631.2057 254.125 629.3327 254.2083 625.025 257.2083 625.512 256.5417 621.841 254.625 620.6049 253.4167 622.2905 247.25 620.6049 246.6667 623.639 243.625 623.3768 240.3333 620.3052 240.7917 616.4469 238.2083 615.3232 237.0833 613.3753 237.375 611.2402 239.0417 608.2435 239.875 603.3738 236.9583 602.8494 238.0417 599.9276 243.0833 602.1377 246.5833 601.6133 247.75 598.729 246.9167 596.3691 247.625 594.571 245.2083 593.5971 244.375 590.6753 244.3333 585.2438 245.75 584.5696 244.2083 579.7374 245.4583 577.7521 250.25 576.2537 257.5 577.2651 261.4583 578.4263 265.375 578.726 267.6667 577.8644 273 579.625 275.5 579.1755 277.5 576.0664 277.7083 575.055 281.9167 573.257 285.75 574.1186 287.125 572.9948 290.9167 575.055 295.875 571.946 295.375 570.2978 298.7917 568.7245 302.2917 569.5861 303.8333 569.1366 303.7083 565.578 303.9583 561.3451 305 559.8843 309.375 559.4722 310.1667 558.4234 312.75 558.0488 316.5 556.4006 319.5833 555.539 321.875 556.2882 323.8333 557.9739 326.75 555.0146 327.2083 553.0293 326.2917 550.2948 326.75 548.8339 330.3333 547.4854 333.5833 548.759 334 551.3437 340.75 554.3778 340.5833 552.6173 341.625 550.2574 339.7917 549.0961 335.125 548.6841 339 546.1744 341.0417 543.8894 344.2917 545.7623 348.25 546.961 349.125 546.1369 349.2083 543.6646 350.875 542.0914 352.3333 542.8405 357.2083 541.7542 357.6667 539.207 359.9583 539.3943 360.9167 536.8846 353.0417 533.8879 350.0417 530.6664 349.375 528.0069 351.75 526.8082 354.0833 528.0818 354.7917 526.3212 352.9167 526.3962 351.6667 519.5037 351.9167 516.2823 348.8333 516.994 348.4583 515.196 345.8333 516.1699 345.625 512.3866 344.4583 508.828 342.5833 506.543 337.625 503.6212 335.375 504.1457 332.75 501.1864 M 321.1667 711.9292 321.125 716.237 M 135.9583 785.8353 135.6667 786.0975 135 785.7604 135.9583 785.8353 M 129.8333 456.2734 130.0417 453.951 131.4167 453.7262 M 80 446.0846 79.375 447.1709 77.8333 446.0846 M 740.3333 284.2255 735.625 290.556 737.2917 293.3279 737.125 299.8832 739 300.8197 737.375 303.1796 734.3333 305.8017 735.0417 309.8472 732.2083 311.87 730.75 314.0801 728.7083 316.6273 725.0833 317.9383 721.7917 316.3276 721.7083 314.2674 720 313.5931 718.0417 315.466 715.4583 316.365 712.375 316.5523 711.875 315.1289 709.625 315.8406 706.875 314.6045 704.9583 314.8292 700.2917 315.3911 701.375 317.4514 697.625 321.6093 695.9583 324.6434 693.125 323.4447 692.25 321.7216 M 508.5417 405.9289 511.4167 402.9322 511.75 400.9094 509.5417 400.1977 510.5417 398.512 509.5833 396.1147 506.6667 396.1147 506.2083 393.9046 503.9583 392.3688 500.125 390.2711 500.5833 386.5627 502.375 384.7272 495.2917 384.6523 489.9167 380.6068 485.5833 380.0074 483.7917 377.2355 485.5417 375.0254 484.875 372.8528 485.5833 371.3919 489.7917 370.9799 490.9583 369.1444 493.0417 369.3317 493.5417 371.7665 497.1667 373.3398 498.6667 370.0809 501.9583 367.234 508.125 365.5109 510.5417 365.5109 511.25 363.7129 510.5417 361.8399 513.6667 360.5289 518.2917 362.4393 519.5 361.3155 522.3333 361.2406 524 360.0045 522.3333 356.6332 525.125 356.371 527.9583 357.7944 533.1667 352.8499 533.375 350.3776 535.2083 350.2277 537.7917 346.8939 537.5833 341.4249 540.2083 341.9119 540.7083 337.6416 538.8333 337.0048 540.25 334.0081 542.125 332.2101 541.9583 330.7867 537.625 327.6776 537.2083 326.1418 537.1667 323.2575 535.3333 323.0327 536.75 322.8454 538.25 323.4822 539.0417 321.9464 537.3333 320.7852 536.875 318.7249 539.5833 316.5149 542.125 315.3911 545.0417 316.8895 543.7917 313.8179 544.5833 310.971 542.3333 310.2967 540.2917 306.4759 538.5 305.8017 538.375 304.5655 539.0417 303.0297 538.875 302.9174 539.2083 302.0184 539.125 301.7561 542.5417 298.9093 545.2083 298.0477 547.2083 295.9875 550.8333 293.8149 549.75 290.3312 546.2083 287.8964 547.5833 285.4616 548.2917 281.7906 546.5 276.921 543 272.6133 544.25 269.5791 545.8333 271.939 547.4167 272.5758 550.875 271.9765 554.7917 273.6246 557.7083 270.7778 559.5 270.4406 562.875 271.7892 566.7917 272.6133 566.875 276.509 568.2917 275.7223 572.875 278.6066 572.9167 279.9177 573.9583 280.8542 577.4167 280.8167 580.6667 279.5431 582.8333 281.0789 585.375 280.6669 587.7917 282.3525 591.25 283.776 593.6667 283.8134 593.875 282.802 599.0417 282.9144 603 281.7532 604 279.4307 606.875 279.3184 609.0833 278.1571 612.5833 280.5545 617.25 281.8656 623.625 281.6408 626.4167 281.5284 627.625 280.4047 631.4167 280.7043 634.125 281.5659 636.0833 279.9177 638.4583 281.2662 642 280.4421 644.125 280.6669 649.2917 277.7826 651.75 279.4307 653.75 279.7679 655.2917 278.4943 655.0417 275.3852 653.125 273.8119 652.875 271.1524 654.125 268.0433 653.7083 264.672 652.5833 262.2372 650.5833 263.0238 642.7917 262.4245 640.3333 259.6525 640.2083 258.304 642 256.3562 642.125 253.7341 647.4583 253.5093 648.9583 255.9067 651.8333 254.5956 653.75 254.8953 656.5 252.7601 659.2083 252.0859 660.625 254.3334 664.9583 253.3595 667.5 253.2096 670.4583 251.0745 672.2083 248.9768 670.25 246.5045 670.9583 244.8938 674.0417 242.8336 676.625 242.7586 680.125 240.0616 685.5417 239.0128 684.4167 236.5405 687.0417 234.5926 688.7083 230.8842 692.875 229.6855 696.4167 230.4347 702.5 229.0487 705.6667 228.8989 706.625 225.4153 711 222.3062 711.7917 220.0212 714.625 217.062 716.5 216.9121 718.5 214.8893 721.9583 214.8519 722.5 213.4285 725.2083 212.1549 728.2917 214.9268 730.5 216.088 740.8333 218.1108 741.2917 219.7215 746.3333 220.1336 748.625 215.3014 749.9583 215.189 753.125 212.9415 758 210.4692 760.0417 210.694 763.625 208.5588 766 211.2184 767.8333 214.7395 771.9167 214.1776 770.625 216.5001 767.125 217.3991 765.2917 219.7215 767.9583 222.7182 770.625 220.2834 773.0833 220.1336 775.3333 221.969 775.8333 224.3289 777.75 226.6888 777.125 228.7865 774.0417 229.6855 774.625 231.0715 770.0833 234.4053 771.3333 235.192 769.75 237.889 775.0417 237.0649 776.9583 235.8662 779.25 235.7913 782.4583 238.4134 785.625 237.9639 788.2917 239.8743 790.875 238.4509 793.0833 240.3613 794.4583 240.3613 798.5417 242.3841 797.375 244.1072 797.375 246.7667 799 248.2276 798.6667 250.8123 795.3333 251.037 792.7083 253.3969 789.2917 255.1575 785.7917 258.8659 784.6667 258.3789 786.6667 261.7128 785.7917 263.2486 787.4167 264.6345 790.9167 269.7664 792.9167 271.7142 790.1667 273.0628 788 271.3771 784.625 270.4032 785.2917 268.4928 782.9167 266.1329 777.7083 265.6085 775.0417 267.4439 769.5417 267.5563 763.625 269.5042 761.7917 270.6654 759.7083 274.1865 755.7917 275.1604 754.25 278.4194 752.5833 278.1946 750.5 280.6669 747.4583 280.5545 745.5833 283.8134 742.2083 285.087 740.3333 284.2255 739.4583 279.7679 740.2083 277.6702 739.2917 274.636 736.7083 276.6213 733.4583 277.9324 731.875 276.9585 730.2917 278.0448 728.25 281.1164 726.75 282.39 722.6667 283.0642 717.6667 286.1733 717.625 288.271 715.25 290.2563 714.4583 287.5218 711.7083 290.4061 711.1667 293.253 709.5417 294.1146 706.7083 298.1226 705.4583 303.6665 706.125 305.09 703.4583 307.0753 700.625 306.9254 700.5833 303.6665 698 305.4271 698.5833 306.8505 694.25 310.1469 693.4167 311.6827 691.0833 312.8439 688.4167 315.2787 691.875 318.238 692.25 321.7216 689.8333 323.5197 688.8333 326.7037 686.1667 330.8241 686.2083 332.3974 684.2083 335.5814 682.4167 335.2068 681.7917 337.9787 681.8333 341.7246 680.7917 342.4738 679.7083 346.0698 M 659.4167 364.7617 657 365.2862 655.4583 364.6119 653.8333 367.0467 650.5 365.7731 651.5 371.4668 650.625 372.9277 648.5417 372.4033 646.875 370.5304 647.7917 374.4635 645.625 377.3104 647.1667 380.6068 646.9167 382.8543 644.5833 384.9145 640.6667 385.5139 639.75 384.5774 638.7917 379.5579 637.3333 377.4602 633.6667 377.0107 631.9167 371.317 629.3333 368.3578 629.2083 364.3497 631.125 364.6119 631.7083 361.9523 630.9167 360.6038 633.125 357.3824 635.125 357.27 637.75 355.6218 642.125 354.498 642.8333 352.2505 645.5417 353.4492 645.2917 350.6398 648.375 352.3254 650.125 354.3482 650.625 350.1528 650.0833 348.0926 651.4167 346.8939 654.125 347.0438 656 345.7327 656.4583 342.9982 658.0417 343.4477 M 739.2917 274.636 741 274.7484 744 272.5758 744.2083 272.9504 746.1667 271.9765 747.125 268.9798 748.5 268.3804 751.2083 269.2794 754.1667 268.3055 757.2917 268.1931 760.0833 267.1068 761.625 265.5336 759.5833 263.6606 758 263.6981 757.75 260.7388 755.2083 258.6411 755.0417 255.607 760.375 249.4263 756.25 249.0892 750.4583 249.5387 748.0833 251.4865 747.9583 251.5989 744.2917 252.7227 742.375 251.936 737.6667 253.3595 729.9167 255.7568 719.2917 260.4392 716.625 259.9147 713.1667 258.3415 712.5 259.0532 713.9583 261.4131 712.6667 261.8251 706.4583 266.6199 701.4167 271.5269 702.0417 273.737 698.4583 275.7223 697.5833 276.434 692.2917 277.2956 690.2917 276.7337 681.125 277.7076 680.0417 277.9324 676.375 275.5725 670.5417 274.7109 670.0833 275.3477 667.5417 276.7337 664.375 276.6963 662 277.5953 657.5 278.5692 655.2917 278.4943 M 725.0833 317.9383 722.375 324.2314 724.5 326.9284 726.75 326.9659 726.9583 329.0636 725.4167 333.0716 723.9167 334.4576 723.8333 336.7051 721.5417 337.9413 721.25 339.8142 716.9167 343.8598 717.7917 345.3956 714.625 350.9769 713.5833 354.1984 713.1667 356.3335 711.3333 359.2553 710.9583 361.4654 707.1667 359.2928 703.7917 358.581 701.4583 359.3302 699.625 357.1576 696.4583 357.0078 693.2083 358.8807 690.7917 355.3596 689.75 354.9101 686.3333 356.7456 M 675.7917 677.8793 675.5 679.9395 673.1667 679.3027 672.375 677.5796 674.2917 675.7441 674.875 676.0812 675.9583 676.0438 675.7917 677.8793 M 676 675.2571 674.8333 676.0438 674.25 675.6692 673.4167 675.7441 671.7917 676.1187 671.25 675.3321 671.625 669.451 672.5 664.5814 672.0833 661.5098 673.8333 660.7981 673.6667 656.4903 674.5833 653.9806 675.125 646.3765 675.9167 644.1664 677.625 643.4547 679.125 641.3945 680.625 642.6306 680.2917 647.6501 681.2083 649.5979 680.2917 652.1826 680.375 654.8047 678.3333 656.6027 677.0417 655.5539 675.5833 659.7118 677.375 660.1987 678.5833 664.1319 678.25 667.2784 678.75 669.4885 676 675.2571 M 666.375 714.3266 668.1667 717.3233 668.4583 720.2076 666.6667 724.5903 664 723.7662 662.6667 720.5073 662.5 717.4731 666.375 714.3266 M 669.625 697.62 671 701.3284 668.5 702.0776 668.1667 700.6167 669.625 697.62 M 672.7917 679.4525 672.7917 679.5274 672.2083 681.9997 673.5 682.9736 671.4583 684.9964 673.75 687.3938 672.75 692.4132 670.2083 693.7243 672.6667 694.923 670.3333 697.7698 667.2083 691.9263 666.7917 686.6821 668.5833 688.4052 669.1667 681.5128 670.2083 678.4411 672.7917 679.4525 M 702.25 813.9668 703.125 814.9407 704.375 821.9081 703.375 826.1409 701.25 826.8901 699 820.7469 697.625 819.8853 697.0417 817.0759 697.8333 815.3153 702.25 813.9668 M 698.5417 808.3855 699.7083 810.2584 698.875 812.019 696.7917 813.8544 696.0417 812.019 698.5417 808.3855 M 673.7917 759.5393 674.7083 762.1989 672.0417 762.5734 671.8333 760.0637 673.7917 759.5393 M 276.7917 280.1425 278.125 277.7451 274.7917 276.9585 273.75 278.4194 270.375 278.6066 264.2083 277.408 263.1667 278.9812 257.7917 280.517 255.875 282.5773 254.3333 280.1799 256.8333 278.2695 261.5 276.3591 258.5 272.5383 261.4167 270.9276 261.0833 268.9798 255.4167 263.1362 252.75 261.2258 253.0833 257.8171 251.2083 253.809 M 535.3333 323.0327 534.8333 321.5718 531 321.0474 529 324.7558 524.875 323.9692 524 327.6401 520.75 328.5017 519.9167 329.5505 520.25 333.2964 518.9583 334.1205 517.375 340.2263 514.6667 340.1139 513.5833 342.3989 509.25 340.4885 506.5 341.7621 505.375 340.7507 502.3333 343.4103 501.0417 347.1561 498.25 345.1334 496.25 344.6089 496.9167 342.0243 492.3333 340.8631 492.2083 338.2784 490.2083 336.0683 486.875 337.1921 486.0417 336.4429 481.5833 334.982 479.625 339.2898 479.9167 341.2002 476.25 342.8109 471.6667 342.2116 470.5 343.4103 469.3333 343.0731 463.875 347.231 462.25 345.9949 458.8333 347.1561 458.4167 344.6839 456.0833 342.8484 450.1667 346.407 447.75 349.4786 446.75 348.1301 443.5417 346.5942 443.125 343.9721 441.2083 342.9607 436.75 342.7735 434.4583 339.8142 432.5 342.3614 430.75 342.8109 426.5417 343.5975 420.6667 342.9982 M 401.875 358.3563 398.625 359.5175 397.0417 361.7276 393.2917 363.1885 386.8333 362.1771 385.4167 361.3155 381.9583 362.3269 379.9167 361.0908 377.5833 360.8286 374.5417 362.5517 372.25 361.6901 370.6667 359.3677 368.9167 360.454 369.125 361.765 371.4583 364.9116 369.2083 366.4848 369.125 370.6053 373.125 369.5939 374.8333 370.5304 377.4583 370.006 379.3333 373.2649 382.5417 373.7144 385.1667 375.9993 383.0833 381.7305 378.1667 382.4048 378.375 385.0269 375.9583 387.5741 373.625 387.9861 374.125 390.9454 372.4167 393.3802 372.3333 393.5675 370.1667 395.0658 369.4167 397.1635 365.4167 398.4746 361.4167 397.5007 359.25 399.2987 357.75 398.4371 355.5 399.9355 355.7083 403.8686 353.7083 405.2546 352.5833 410.1992 349.9583 408.8132 347.9167 414.6193 348.2917 416.3049 347.5 418.2903 345.8333 418.2903 344.7083 421.0247 345.3333 426.1566 343.25 429.9774 342.1667 430.3145 339.625 428.2917 336.75 427.0556 335.4583 424.7706 332.5417 422.2234 328.5417 422.4107 327.0417 423.9465 323 424.7706 318.125 422.6355 312.6667 424.3211 311.875 422.8228 311.5 420.6876 308.6667 420.6876 304.375 419.4889 304.0833 421.3993 300.0833 422.5606 297.2917 422.2234 295.7083 422.9726 295.25 425.4074 286.6667 425.782 284.6667 424.6582 282.5417 425.5198 282.1667 423.497 280.0833 423.0101 276.8333 424.0214 275.5417 425.4449 271.5417 427.58 267.5833 428.5914 265.3333 427.9171 258.7917 428.2543 256.7917 428.8536 255.875 423.984 259.1667 424.6957 258.2917 419.8635 256.5417 418.0655 251.125 418.4026 249.2083 420.2756 245.1667 419.6388 244.5833 420.0508 244.125 420.313 243.6667 420.5752 243.4583 420.2007 240.8333 422.7853 239.5417 422.3358 237.5417 423.8341 237.5833 426.4188 233.1667 430.0148 234.2917 431.4008 233.2083 434.0229 229.5833 433.8356 229.25 435.0343 226.6667 436.9822 220.7917 436.9072 220.5833 432.1125 218.8333 428.9285 215.875 429.0035 205.5833 428.4416 199.4167 428.7038 194.75 427.8422 191.9167 426.4563 190.4167 423.6094 185.25 421.7739 182.875 422.2983 177.625 420.9498 175.5 419.2642 176.0417 414.2073 174.0833 412.8587 173.5417 410.9858 169.4167 413.6079 165.75 413.1584 164.3333 411.3604 165.125 409.1503 165.0833 406.0413 163.2083 403.6814 163.625 402.1081 166.9167 403.082 167.625 399.7856 165 400.385 163.3333 396.8264 165.8333 397.613 168.9167 394.2792 172.0833 394.504 172.7083 391.8819 174.4167 389.5594 174.2917 387.0871 172.4583 387.3868 170.4583 382.9292 M 663.7917 329.2509 665.2917 327.1157 666.9167 327.3779 669.125 326.9284 670.2917 325.2428 672.4583 324.4187 673.7917 322.3584 670 318.238 667.7083 317.3764 670.2083 314.4921 668.125 315.054 665.9583 313.256 664.2917 310.4466 658.3333 310.5589 656.3333 311.7576 656.3333 307.8245 657.7083 305.3522 656.6667 303.6291 659.6667 301.0444 656.9167 300.7448 655.8333 301.6063 648.5833 301.6812 647.4583 299.5835 644.6667 301.8685 644.625 303.7415 640.75 301.906 637.0833 307.1877 634.0833 307.1502 631 310.3717 628.9583 306.888 625.1667 307.5997 625.6667 305.9141 623.5417 304.2284 617.25 304.0411 614.9167 305.0151 609.5417 303.0672 602.7917 304.3408 601.0417 303.9288 599.3333 305.1649 594.9583 310.2593 598.25 313.5182 594.375 315.0915 594.2083 317.0768 593.6667 317.3764 594.5 313.256 593 310.1094 593.4167 306.0264 594.625 304.3033 590.3333 298.1601 587.75 296.5868 587.0417 298.6471 588.1667 301.0819 585.2083 302.6552 579.9583 302.5428 576.7083 299.4337 574.6667 299.0217 573.0833 292.1667 570 290.6309 568 292.4664 570.0833 293.2905 568.4583 295.0885 563.9167 293.8524 562.3333 292.2791 557.6667 289.7694 554.6667 287.4844 554.125 285.2743 552.2917 289.2824 556.4167 290.2563 557.25 292.8784 554.1667 293.8149 552.7917 296.7741 548.0833 298.7594 545.75 304.7154 545.9583 307.4499 547.125 308.4238 550.5 308.7609 555.5833 311.9824 555.375 313.8553 560.8333 317.0393 565.3333 315.8032 566.0833 320.1484 570.125 322.6207 568 325.1679 565.1667 325.4301 563.2083 324.6434 555.0833 324.606 555.5417 327.9023 553.9583 330.899 550.7917 333.0716 549.375 331.1612 547.0417 332.3974 547.9583 333.8583 545.0833 336.3306 543.9583 338.5032 546.8333 343.4103 552.3333 345.2457 553.625 346.5193 558.4583 348.9167 561.8333 348.4672 563.4167 350.3776 563.5417 353.2994 562.2917 354.6853 563.4583 356.371 563.1667 359.7423 559.75 361.0908 558.5833 365.1363 559.375 367.7584 562.9167 370.6053 564 372.4033 562.5417 378.2469 565.2917 377.6101 568.875 378.9586 566.5833 385.4389 569.625 388.8102 568.0833 391.1701 569.4583 392.9307 568.4583 394.0919 570.4583 400.1228 570.3333 403.981 572.25 406.1536 571.9583 408.3262 572.3333 413.1959 570.6667 414.4695 568.625 413.3832 566.4583 413.9076 564 413.046 564 411.3978 560.4583 413.046 557.7083 415.818 555.3333 414.0574 553.875 414.6193 553 417.129 550.5 419.2267 551.4583 420.8 550.2917 423.9091 549 417.7284 547.1667 413.046 548.875 411.0982 549.1667 409.0005 548.2083 406.7155 545.4583 404.6927 543.1667 405.1422 543.625 406.3035 546.9167 406.753 548.2917 408.963 544.9583 411.3229 542 416.4173 537.4583 420.0134 534.3333 421.3244 529.1667 422.2983 M 281.5833 125.0259 283.125 127.0112 285.2917 128.06 283.8333 129.858 283.875 131.731 287.3333 133.4915 286.8333 135.1397 289.0833 137.1999 292.0417 139.5224 289.9583 145.4783 291.5417 148.2128 293.7917 150.0108 290.75 151.9587 292.4583 154.5059 291.1667 156.6036 292.2917 158.2892 294.75 158.8511 297.5833 161.8478 298.2083 163.5709 294.875 163.908 292.7917 161.1735 289.0417 161.211 287.3333 160.3494 283.9167 161.1735 280.8333 158.7762 279.2083 158.8511 277.4583 160.312 273.5417 161.5107 269.8333 161.8478 267.0417 163.6083 266.0833 165.781 265.4583 170.5757 262.6667 173.0105 265.7917 178.5544 265.7083 180.0527 259.1667 182.8996 261.4167 182.8996 263.1667 184.8474 269.625 187.2448 266.9167 190.7285 265.3333 191.2154 263 196.9466 265.8333 202.7153 268.75 201.629 271.2917 205.225 274.2917 203.3146 276.2917 200.9922 279.875 199.344 284.6667 201.3293 285.25 203.6517 287.5417 205.8618 292.5417 208.409 295.9583 209.1207 293.9167 211.593 291.4583 213.878 294.5833 215.4887 296 217.8486 297.2917 217.5115 298.9583 216.4626 302.1667 217.9235 301.875 219.2346 305.0417 221.2948 309.0833 222.3811 309.5 223.8794 313.9167 225.2654 316.5833 225.0407 320.3333 224.1417 324 228.6367 326.0417 227.925 327 225.5276 328.5 225.7898 332.7917 228.9364 333.7917 231.1839 337.75 231.2963 340.2917 229.4983 343.4167 230.8093 344.7083 232.8321 353.9167 237.2897 358.2917 238.5633 358.8333 240.4362 361.2083 242.9459 364.0833 243.6577 365.5 246.055 372.7083 249.6136 376.5833 252.2357 378.6667 250.4002 381.625 250.4002 383.0417 251.9735 385.375 252.5728 391.9583 257.0679 397.8333 255.8692 398.9583 256.3936 400.25 259.5776 399.6667 262.3121 405.0417 261.9375 407.9167 263.3609 412.125 263.2111 414.9167 266.4326 416.3333 266.4326 418.125 264.2974 417.75 262.4994 423.7083 262.7991 429.625 265.4961 430.4583 266.4326 429.625 263.9228 434.6667 263.6606 436.875 261.488 441.25 263.286 441.8333 264.8218 451.125 266.3202 453 269.5416 451.7083 274.2614 454.875 275.4976 456.6667 275.0106 460.4167 276.6588 462.2917 278.9812 466.7083 279.1311 466.3333 281.0789 468.4167 282.2776 470.5833 282.6147 476.2917 279.9926 479 279.5806 481.3333 280.7793 481.1667 284.4502 483.7083 286.473 484.875 287.3345 487.625 285.087 489.5 284.675 493.9167 286.0609 498 286.2857 503.5 288.1586 504.25 289.2824 508.4167 291.2302 511.7917 290.7807 517.125 287.5593 518.4583 290.556 520.375 291.7921 526 291.7172 528.5833 290.8182 532 292.4289 533.9167 292.4664 539.0833 290.9306 544.125 292.1293 545.9167 290.4061 546.2083 287.8964 M 165.75 54.9406 156.1667 50.9325 154.4167 51.6817 153.5833 47.8609 156.125 45.0515 155.875 43.2909 151.7917 42.0173 145.5833 42.2421 138.2083 38.0092 138.6667 34.6754 136.9167 33.5516 132.5417 34.563 131.7917 33.5891 126.0417 34.9002 121.7917 32.6152 123.4583 29.6185 121.7083 28.3449 123.4583 23.213 128.4583 21.902 131.2917 19.8043 131.2083 18.2685 134.25 17.8939 137.5417 13.736 137.9167 11.6383 143.0417 11.1139 146.5 10.065 153.5833 11.7132 156.5 10.8516 158 8.9038 154.2083 7.6302 153.2917 5.495 158.4167 5.982 163.25 8.3794 165.625 7.4804 166.3333 5.7573 168.8333 6.2068 173.4167 3.3974 176.2083 3.4723 177.7083 1.899 181.0417 1 181.75 2.5358 184.625 2.4983 186.8333 5.6823 189.4583 3.7719 191.5833 4.671 194.6667 2.1238 198.3333 1.6743 198.5417 3.6221 200.5 4.184 201.875 8.267 205.75 9.6155 209.375 14.3353 214.125 16.6577 218.3333 17.4444 223.1667 20.8906 225.7917 20.5535 228 21.9769 229.3333 24.599 232.5833 25.8351 233.75 25.3482 235.8333 28.0827 238.0417 29.0566 235.9167 31.6412 238.3333 34.6005 241.7083 36.2487 246.625 35.8741 248 37.5972 255.2083 39.7698 256.125 41.9799 255.3333 43.5157 260.1667 44.8267 263.1667 44.6394 265.75 43.628 268 44.8642 269.7917 42.0173 271.8333 41.6053 274.4583 42.9163 276.125 39.3577 278.125 37.9343 281.2083 37.5597 282.25 36.2112 284.9167 36.8105 288.8333 34.2259 293.125 34.3008 296.875 33.2894 298.5417 34.4881 301.5417 34.8252 303.25 33.4393 303.8333 30.9295 308.25 30.48 309.4583 33.177 321.6667 36.2861 325.1667 34.7878 328.125 39.0581 333.125 41.0434 334.125 44.7893 331.3333 51.6067 330.1667 53.0676 329.9583 57.5252 327.1667 62.2825 327.0833 65.3916 323.6667 66.2906 321.375 66.0658 319.0833 67.7515 319.5833 71.6472 314.125 71.1977 311.7917 71.9094 314.0833 77.1536 311.75 79.2513 311.4167 81.1617 307.625 83.8587 303.3333 83.4467 301.625 84.1209 298.5417 83.4467 295.375 85.5069 297.9583 90.1892 299.2083 91.2381 300.875 95.2836 297.6667 95.4335 295.625 96.4448 296.125 100.3031 297.6667 103.0001 300.9583 104.1239 304.5 103.974 310.3333 105.0604 308.2083 109.7802 309.4583 113.1514 313.4167 117.9087 315.0417 119.1823 310.1667 124.8386 306.6667 123.1904 303.25 126.1871 301.6667 126.3369 301.0833 128.8841 298.875 128.8092 297.4583 130.1202 294.0833 127.3483 291.875 124.1268 291.4583 121.5047 288.75 121.5047 283.2083 123.5275 281.5833 125.0259 279.25 123.7148 281.7917 122.4412 281.2917 118.6953 276.7083 121.2425 274.625 120.7556 273.4167 122.1415 271.1667 122.4412 268.5 120.5308 268.9583 119.5569 265.5833 114.6123 263.6667 112.9267 259.9167 113.6384 256.25 115.9608 254.5417 115.2866 252.7083 117.0846 250.9583 115.5113 247.5833 112.7019 243.75 112.4023 241.6667 111.316 240.375 108.7688 238.5 107.7199 237.2917 105.2476 229.9167 98.0181 224.6667 96.5198 223.625 94.5719 223.4583 91.8749 220.875 90.414 217.5417 86.7805 216.8333 84.9076 212.5417 85.432 207.7083 80.4874 205.2083 79.4386 202.5417 78.4647 200.25 77.1161 199.4583 74.981 199.2083 74.2693 197.7083 72.9957 198.7083 70.411 195.5 67.714 192.5833 67.227 189.5417 67.7889 186.9583 66.7775 181.7083 66.5528 178.125 64.7548 177.0833 63.8932 170.4583 63.4062 173 63.0691 174.2083 61.6082 177.2083 61.0463 177.75 57.3379 175 54.6034 172.125 56.0269 168.625 56.5888 165.75 54.9406 M 237.4167 169.1897 236.2083 168.2907 233.25 166.605 233.8333 160.8739 232.25 159.1133 229.7917 159.2257 228 157.6899 226.9167 155.33 224.125 158.2143 221.7083 158.3267 219.5417 153.0075 216.7083 149.374 215.1667 145.291 215.1667 143.2308 213.7917 140.6836 206.8333 137.2374 205.2917 137.0876 205.375 136.7879 207 135.5892 206.375 132.4801 210 131.4688 212.7917 128.547 214.375 128.5844 211.7917 125.4004 M 239.0833 173.2727 239.2917 171.1001 237.4167 169.1897 239.9167 170.0512 241.2083 169.3021 244.1667 173.4225 248.0417 175.1831 248.1667 177.4306 246.8333 178.4795 249.1667 180.5397 254.5833 182.1879 257.75 181.7384 259.2917 183.4989 259.1667 182.8996 M 83.0417 338.9152 78.2917 331.7231 76.9583 326.0294 73.2083 322.5083 70.875 319.2494 71.125 311.6452 69.3333 310.5964 67.2083 311.458 63.2917 311.7202 60.0833 310.6339 55.4583 304.4906 55.0417 300.5575 56.5833 298.5722 57.5 295.9875 57.7917 292.6162 57.5 287.784 54.2917 286.473 49.6667 287.0349 47.0833 286.5104 45.125 284.9746 39.4167 282.5773 38.7083 280.8916 39.5 275.3103 41.5 270.553 49.0417 264.5971 50.9583 262.0124 53.4583 260.2519 56.375 253.6217 58.9167 251.037 62.875 248.0029 66.5833 247.3286 68.7917 248.0403 71.2083 250.4751 71.375 253.0223 73.4167 255.9067 77.4583 256.2438 85.5833 252.7976 90.4167 251.7862 98.1667 251.6364 103.8333 249.5387 104 250.6624 105.2917 245.0062 107.125 242.6463 110.8333 239.7994 112.875 237.5893 115.4167 230.0976 118.25 226.9885 125.2917 223.9918 127.2083 222.4935 133 220.3209 134.625 216.9121 136.7917 214.6646 142.2083 205.4872 145.3333 195.2984 150.75 193.3131 156.4583 192.0021 160.875 188.5559 161.0833 190.5786 159.125 192.4516 158.875 194.5493 169.875 195.0737 173.9583 195.261 176.0833 195.4483 179.375 196.2349 180.9583 194.5118 183.875 194.0248 187 195.1861 188.9167 197.4336 192.2083 198.4075 194.2083 198.0704 195.5833 200.6176 193.5833 202.9026 197.25 205.8243 198.4167 202.1159 201.5417 199.0818 204.7917 200.9172 208.625 198.8945 210.2083 198.6697 214.7917 201.2169 217.5833 200.7299 218.9167 199.0068 222.0833 198.1828 220.9167 195.8229 223.1667 191.4027 227.4167 189.8669 228.9583 191.1405 231.9583 191.0656 233.625 189.8295 233.75 189.7545 231.5417 187.2448 235.625 184.9598 236.625 182.1504 241.0833 182.2253 240.7083 181.7009 240.9583 181.3263 241.4583 177.2059 238.7917 175.258 239.0833 173.2727 235.5833 173.0854 236.375 174.9583 238.7917 175.258 M 176.0833 195.4483 177.0417 197.3961 174.9583 198.8945 174.8333 200.7674 178.5417 200.5801 177.4167 205.712 178.7083 206.611 177.6667 208.5963 178.1667 211.1435 183.2083 211.2184 184.9167 210.0946 187.2917 211.2184 187.9167 213.4285 190.375 213.2786 191.2083 214.8519 195.5417 213.9903 198.4167 213.3535 200.0417 213.9903 199.6667 219.3844 201.0417 219.4968 203.375 221.8567 201.9167 223.0928 203.1667 225.6025 204.2917 231.6334 205.9583 231.9331 207.25 234.1806 213.3333 237.7017 217.75 242.3091 216.2083 244.9687 216.4583 246.7293 215.5 250.1755 214.4167 250.2878 215.4583 252.3481 218.3333 252.6477 221.0417 253.809 222.375 252.8725 220.8333 250.9621 220.5833 248.3775 223.3333 246.5045 224.9167 247.8905 226.0417 244.9313 224.75 243.4704 231.0417 247.4035 230.9167 249.0143 234.4583 247.9654 234.9583 245.9426 237.9167 244.2945 239.5 242.3091 242.6667 244.5567 241.5833 248.4898 241.9167 252.6103 240.5417 255.607 242.875 257.7421 244.7083 253.2096 251.2083 253.809 252.875 252.423 254.9583 252.2732 257.9167 250.3253 258.25 248.6022 256.4583 246.0176 257.125 242.7212 257.25 238.2261 252.9583 234.1431 251.5833 232.8695 252.7917 231.7083 252.125 230.8468 251.625 229.0113 249.7083 227.3631 249.1667 226.7638 249.5417 225.6775 249.375 225.0781 249.8333 223.2801 248.0417 220.171 247.375 216.5375 247.7083 212.979 246.9583 211.5555 247.0833 207.8846 246.375 203.839 247.625 202.3407 246.75 200.5052 248.2083 199.1567 249.6667 195.4857 255.9167 189.38 259.375 185.4468 259.2917 183.4989 M 294.75 158.8511 296.4583 156.6036 298.1667 156.2664 299.9583 154.1687 301.75 154.7681 302.5417 156.7534 304.3333 157.5026 304.0417 159.4879 306.0417 160.6491 306.6667 162.8966 309.0833 164.5823 311.7917 165.706 314.375 168.4031 317.9167 167.1669 321.5417 167.3168 322.2083 168.8151 326.7083 170.8379 328 172.3362 329.9583 171.8118 332.0417 173.5349 331.0417 177.9176 336.625 179.5283 339.9583 181.626 341.7917 180.9892 344.5417 182.4501 347.125 184.9973 352.4583 186.5331 353.7083 188.1064 350.5417 189.0803 346 192.489 343.625 194.9988 341.625 194.9988 340.3333 197.9205 337.0833 199.1567 335.2083 200.9172 336.375 204.8504 334.5417 207.1729 331.8333 208.9709 333.9167 212.8666 332.2917 215.9757 329.1667 218.2981 328.4583 221.5945 327.25 222.6808 327 225.5276 M 160.875 188.5559 160.6667 186.4582 158.4583 184.0234 160.7917 182.2628 160.75 180.6146 167.625 174.9958 171.7083 169.4894 178 165.5562 181.0417 164.6197 180.5417 163.0839 175.6667 162.9715 176.7917 156.641 179.5 154.1313 178.4167 152.9701 175.4583 146.4148 177 145.9278 177.3333 143.7178 179.9167 141.4328 183.7083 140.3465 186.625 138.1364 189.3333 138.3612 192.3333 137.125 193.75 137.4996 199.3333 134.3531 199.375 131.9932 198.2917 129.8955 M 237.2917 105.2476 236.625 107.1955 233.8333 107.6825 231.75 106.3714 227.4167 107.0082 224.2083 109.2557 222.2917 111.5033 219.2917 111.9153 218.625 113.2638 215 115.5488 212.1667 114.013 210.8333 115.2117 214.1667 118.9575 214 122.0666 211.7917 125.4004 208.8333 127.0112 207.7083 128.6968 205.25 129.0339 202.9583 130.9443 198.2917 129.8955 194.5833 127.9476 191.9167 126.7864 187.5417 127.161 185.9583 125.1382 185.4167 126.0747 180.2917 125.9249 179.125 122.6285 179.7083 117.8712 175.75 119.0699 173.9167 117.8338 172.1667 118.6953 166.5833 115.2866 163.375 114.5749 160.5833 112.4397 157.0833 111.8778 153.25 109.7052 151.5833 109.6303 152.375 106.4089 149.875 102.7754 151.4167 96.4448 149.7917 95.1712 150.7917 92.6615 149.75 90.9384 150.5417 88.0166 148.7083 85.2447 147.7917 80.8995 147.9167 78.8392 145.125 74.6439 146.6667 69.2123 151.3333 68.8752 154.9167 63.4062 160.75 61.9079 163.75 59.2483 163.5417 56.2891 165.75 54.9406 M 258.5 512.8361 259.875 513.2856 258.8333 515.4582 259.7917 518.2676 258.4167 519.279 261.375 521.6389 259.4583 523.3245 258.125 526.8082 255.8333 529.1306 255.5833 532.1273 256.2083 532.3146 256.9583 532.6143 262.1667 534.1126 257.4583 536.3227 256.6667 538.3829 253.8333 541.979 253.4167 543.7395 256.125 545.0506 257.0417 546.8861 256.2083 549.2834 256 551.1938 256.4583 553.8159 255.0833 555.6514 255.8333 558.4983 254.8333 561.1953 250.0833 562.394 251.3333 564.1546 254.7917 565.2783 256.8333 564.7913 259.6667 565.9526 257.125 569.2489 257.5 577.2651 M 660.25 350.6398 658.1667 349.516 659.2917 347.5307 658.0417 343.4477 659.125 338.8403 660.25 337.2296 658.5833 332.8094 660.3333 332.3599 662.7083 334.1205 666.25 333.3339 663.7917 329.2509 657.625 326.6662 654.4167 325.0555 652.6667 324.9056 645.2917 325.3926 642.4583 326.6662 641.375 325.3177 638.375 326.404 635.2917 325.2428 634.625 323.707 631.8333 324.6809 627.1667 324.5685 624.125 325.3551 621 325.7297 618.9583 325.0555 616.5833 325.7297 611.625 325.4675 609.8333 326.1418 606.75 324.8307 604.0833 324.5311 600.75 323.9692 597 321.9089 593.2083 321.9839 592.6667 319.4741 594.2083 317.0768 M 252.9583 234.1431 250.4167 235.1545 248.25 237.2897 246.75 235.0047 246.125 234.4428 243.6667 233.5813 240.3333 234.6301 239.2917 233.319 240.4583 231.109 242.2083 230.1351 242.7083 229.311 241.9167 226.5765 242.625 226.2019 246.7917 224.9283 249.375 225.0781 M 430.4583 266.4326 431.7083 268.0807 434.0417 270.8152 433.25 273.2875 435.5833 274.3738 435.875 278.6441 441.2917 280.8916 443.2083 284.188 445.625 285.6114 441.875 286.473 437.2917 285.6489 435.625 287.784 431.9167 289.1326 431.7083 290.6309 438.5 292.5788 439.0417 295.6129 436.5833 296.8491 435.75 300.108 442.2917 304.3033 443.875 303.9288 447.0833 306.0264 451.25 308.4987 450.5833 310.1094 449.4167 311.5329 443.375 309.8098 442.9167 311.87 439.8333 311.8325 438.0417 310.1469 436.25 311.1208 436.4167 312.7316 432.3333 314.8667 430.0417 318.238 428.2083 319.2119 427.1667 318.8748 424.6667 320.8226 421.625 321.6467 416.5 325.0555 416.5417 329.8127 417.75 336.0309 420.2917 337.267 421.4167 339.7768 421.25 342.324 420.6667 342.9982 417.875 343.7474 417.3333 348.7669 418.125 350.0404 415.9583 354.5355 M 140.25 463.016 138.1667 460.8808 139.0417 458.446 135.6667 457.4346 132.6667 458.2587 133.4583 460.6186 M 428.5833 493.0579 427.3333 493.7321 427.5833 495.9797 M 427.5833 495.9797 425.0417 490.8478 423.5417 490.9227 420.0833 492.6084 419.5 494.7435 416.4583 493.0579 M 416.4583 493.0579 415.625 494.2566 418.2083 496.991 412.5417 500.2874 410.6667 499.3884 406.9583 504.2206 408.1667 505.9437 407.5 508.341 409.0833 509.8019 M 409.0833 509.8019 406.125 510.9632 404.0833 510.4013 401.7083 508.4909 400.7917 511.4876 395.7083 513.2481 396.25 510.8133 392.9583 506.3932 391.375 507.5544 M 445.75 494.9308 446.0833 495.6051 442.9167 499.3135 440.3333 499.0138 436.6667 500.1376 435.2083 498.5269 431.25 498.5643 428.5833 493.0579 M 453.3333 490.3234 451.2083 491.2224 450.3333 492.908 448.25 492.1963 445.75 494.9308 M 391.375 507.5544 389.5833 509.315 390.1667 510.7759 388.2917 515.7579 389.2917 516.095 388.4167 519.5787 386.5417 521.0021 384.2917 519.3539 380.5833 518.9044 379.1667 520.4402 M 379.1667 520.4402 374.5417 521.976 372 524.1861 369.2917 525.6095 363.2917 525.7594 M 593.2083 291.5299 593.4167 292.3915 M 593.6667 283.8134 594.1667 286.0984 593.2083 291.5299 M 593.4167 292.3915 591.75 293.2156 589.5417 296.8865 590.3333 298.1601 M 546.3333 258.7161 548.5833 254.0712 548.7917 249.9133 555.9583 247.853 556.7083 246.8416 560.0833 245.643 563.8333 246.2423 566.2083 248.5273 566 250.2504 567.4167 252.2357 566.5417 253.322 566.3333 257.3675 564.0417 260.177 564.8333 264.2225 M 544.25 269.5791 544.4167 262.5369 546.3333 258.7161 M 564.8333 264.2225 568.25 266.8446 567.8333 268.1557 565.0833 268.8299 564.7917 270.5156 562.875 271.7892" />
    </g>
</svg>