<?xml version="1.0"?>
<svg xmlns="http://www.w3.org/2000/svg" version="1.2" baseProfile="tiny" width="800" height="1131" viewBox="0 0 800 1131" stroke-linecap="round" stroke-linejoin="round">
<g id="WB" fill="none" stroke="black" stroke-width="1">
<path d="M 440.1369 1125.1296 438.9688 1125.2599 439.8773 1123.6962 440.1369 1125.1296 M 442.1486 1125.3251 444.5496 1120.7642 444.8741 1123.5659 442.1486 1125.3251 M 476.6721 1129.495 474.92 1130.0814 470.5721 1126.2372 472.5838 1118.9398 474.92 1119.3308 477.9051 1125.9115 476.6721 1129.495 M 546.3032 1116.0078 545.3947 1114.5744 546.9522 1113.8577 546.3032 1116.0078 M 495.8158 1118.4837 496.9839 1112.5546 497.3084 1115.5517 495.8158 1118.4837 M 548.4447 1111.3818 547.2118 1110.6651 548.3798 1110.209 548.4447 1111.3818 M 446.5614 1112.6849 445.3933 1112.3591 445.0688 1109.5574 446.5614 1112.6849 M 652.5994 1109.1665 653.8973 1109.4923 651.1717 1110.0135 652.5994 1109.1665 M 447.9241 1110.209 446.3018 1109.7529 446.5614 1108.7104 447.9241 1110.209 M 500.8126 1113.5971 497.8275 1110.7302 497.9573 1108.5801 500.8126 1113.5971 M 437.7358 1111.5772 439.5528 1110.9257 440.8507 1116.9852 438.839 1113.4016 437.4113 1117.8973 435.14 1114.7047 433.2581 1120.6339 428.5209 1124.3477 433.3879 1108.124 437.7358 1111.5772 M 469.0795 1118.614 464.1476 1116.3988 462.3306 1107.7331 467.3923 1111.5121 469.0795 1118.614 M 532.3511 1109.8832 535.4011 1111.5121 537.0883 1120.7642 530.534 1120.5036 525.7319 1115.4866 527.8734 1107.6679 532.3511 1109.8832 M 595.0385 1106.2345 605.8109 1110.8605 608.1471 1117.5716 601.3333 1120.5687 594.13 1116.3988 593.4162 1106.1693 595.0385 1106.2345 M 445.7177 1105.7132 444.7443 1104.6056 445.3933 1102.9767 445.7177 1105.7132 M 582.3842 1100.7614 585.564 1106.2996 584.6555 1108.2543 587.2513 1108.124 586.213 1110.6651 578.4906 1114.3138 570.314 1111.4469 569.0161 1107.2118 571.547 1100.175 573.8831 1101.2175 574.2076 1099.1977 581.8002 1096.9824 582.3842 1100.7614 M 545.2 1106.9512 541.5011 1114.5092 538.1915 1114.1183 534.7521 1107.7331 531.183 1107.4724 532.7404 1097.1127 545.2 1106.9512 M 619.244 1098.937 623.6567 1099.0674 620.0876 1097.7642 616.5184 1086.8833 612.1705 1083.4952 612.6248 1075.0249 620.3472 1079.5207 622.5535 1079.3252 620.2174 1083.0391 624.5004 1089.3592 623.9163 1095.549 629.6919 1096.9824 630.9249 1107.4073 625.7333 1107.0163 625.0195 1099.5235 624.1759 1099.1977 625.0195 1103.3676 620.8663 1103.4328 615.1556 1099.1977 617.362 1092.6821 619.244 1098.937 M 554.999 1097.1778 553.5714 1095.7444 556.2969 1091.7699 554.999 1097.1778 M 420.3442 1108.7755 419.1761 1107.5376 423.7836 1100.6963 425.0166 1091.0532 427.3528 1090.141 428.1964 1102.7161 420.3442 1108.7755 M 549.2235 1104.2798 540.2681 1099.0674 543.0586 1089.7501 549.2235 1104.2798 M 426.3145 1089.1637 425.99 1087.0787 427.5475 1087.7303 426.3145 1089.1637 M 411.8431 1090.141 410.8697 1090.141 412.0378 1086.753 411.8431 1090.141 M 493.2201 1105.8435 490.8839 1105.8435 490.17 1103.107 492.2466 1096.2005 491.5328 1086.2317 496.5945 1087.9909 498.8658 1091.4442 497.6977 1101.2175 493.2201 1105.8435 M 470.637 1093.1382 474.4008 1094.2458 474.8551 1096.8521 471.87 1108.0588 465.5104 1093.2034 465.8997 1090.2714 470.8966 1085.7756 468.2359 1090.6623 470.637 1093.1382 M 421.5123 1086.5575 419.7602 1086.6878 420.7336 1085.2544 421.5123 1086.5575 M 536.8287 1087.3394 540.8522 1087.1439 541.5011 1092.0957 537.6724 1099.1977 534.4926 1096.2005 532.8053 1084.277 536.8287 1087.3394 M 575.7651 1095.8747 576.6736 1097.243 573.0395 1098.6113 565.1874 1091.8351 566.031 1084.0816 569.9246 1092.5518 575.7651 1095.8747 M 415.9963 1089.685 415.0229 1085.6453 418.4623 1082.9088 415.9963 1089.685 M 466.2242 1088.6425 469.5338 1082.9088 469.6636 1085.515 466.2242 1088.6425 M 628.2642 1095.549 625.2142 1095.6793 625.2791 1087.4697 622.0993 1082.8436 628.5887 1085.8408 630.1461 1090.4017 628.2642 1095.549 M 427.1581 1083.2345 425.8602 1082.7785 427.4826 1081.6057 427.1581 1083.2345 M 421.123 1081.4102 419.8251 1081.6708 422.2262 1079.7161 421.123 1081.4102 M 611.262 1101.0872 605.6162 1097.1778 600.8141 1087.3394 603.7343 1079.4555 614.5067 1087.4045 611.262 1101.0872 M 510.0925 1081.0844 512.8829 1087.0136 510.7414 1096.6566 514.8297 1102.1948 508.6648 1109.4271 506.1339 1106.1693 508.0808 1103.4328 506.1339 1100.8917 505.4201 1091.2487 509.5733 1083.6255 503.0839 1082.3875 507.0424 1079.3252 510.0925 1081.0844 M 469.7934 1081.4102 468.9497 1079.2601 470.5072 1075.7417 469.7934 1081.4102 M 503.2786 1083.9513 506.9776 1084.2119 507.4318 1085.9711 501.4616 1090.2062 497.4382 1086.4272 498.4765 1075.8068 502.3052 1075.3507 500.8775 1080.6283 503.2786 1083.9513 M 594.9737 1074.5689 599.7758 1075.481 595.2981 1083.7558 598.6726 1099.0022 595.1683 1103.4979 588.4194 1100.2402 591.729 1093.9852 590.8853 1085.7756 588.3545 1084.3422 581.281 1086.8833 585.9534 1080.3677 585.4343 1078.413 594.9737 1074.5689 M 505.8095 1078.6085 501.5914 1080.1071 503.3435 1074.8295 506.069 1075.6765 505.8095 1078.6085 M 418.8517 1078.5433 416.7102 1078.804 421.6421 1073.4612 421.707 1076.3932 418.8517 1078.5433 M 489.5211 1083.821 486.2764 1080.6935 487.5743 1073.3309 489.5211 1083.821 M 406.7814 1078.6085 406.5867 1076.1977 410.8048 1073.3309 406.7814 1078.6085 M 547.2118 1082.9739 544.616 1082.2572 543.4479 1073.2657 546.8873 1076.2629 546.0437 1073.3309 547.4064 1070.855 550.8458 1070.6595 553.182 1072.6793 553.9607 1080.5632 550.0022 1086.2969 548.315 1084.9938 552.0139 1079.5858 547.7958 1077.1099 550.7809 1079.651 547.2118 1082.9739 M 454.8678 1092.7473 457.0742 1093.3988 459.021 1098.6113 453.8944 1102.5206 439.4879 1099.0022 436.6975 1094.8322 436.5677 1090.0107 444.4848 1078.0873 444.6794 1072.3536 448.1188 1070.7247 453.9593 1072.94 455.7763 1076.3932 453.8944 1081.1496 456.6199 1086.2969 455.322 1091.2487 458.1125 1087.7954 455.322 1081.5405 456.9444 1075.7417 452.0773 1069.7473 446.6911 1069.3564 450.5848 1059.5831 456.2954 1053.3933 462.7848 1063.3621 463.7582 1080.1071 459.4752 1091.379 457.0093 1091.9002 455.2571 1091.3138 454.8678 1092.7473 M 484.3296 1072.0278 482.837 1070.2686 485.1083 1070.7247 484.3296 1072.0278 M 518.7233 1069.5519 522.2276 1069.8777 519.4372 1075.7417 518.9829 1083.821 522.7468 1092.5518 519.2425 1105.0617 515.1542 1107.0163 516.3872 1101.4781 512.2989 1095.8747 513.0127 1089.7501 515.4138 1087.4045 513.5967 1077.1751 518.7233 1069.5519 M 499.8392 1068.6397 502.8243 1069.3564 502.4999 1073.7218 497.4382 1075.5462 497.6328 1081.9966 493.9339 1082.1269 494.5828 1086.1014 491.9871 1085.515 490.4296 1084.5377 489.5211 1072.2884 499.8392 1068.6397 M 466.0944 1071.702 464.7316 1071.3111 464.6019 1068.1185 466.0944 1071.702 M 513.6616 1068.3139 516.3872 1069.0958 512.5584 1074.5037 512.818 1082.3224 505.2903 1071.8975 512.3637 1066.3592 513.6616 1068.3139 M 539.4245 1075.481 542.4096 1076.3932 541.7607 1081.0193 549.6128 1090.4668 547.5362 1095.8747 545.1352 1089.7501 535.0117 1083.4952 535.3362 1081.736 532.416 1082.583 530.0798 1078.2827 530.9234 1071.8323 537.1532 1065.6425 541.8905 1069.4216 539.4245 1075.481 M 629.8217 1072.1581 637.6738 1080.3025 637.544 1083.1694 641.5675 1086.8181 639.4909 1089.0334 641.9568 1090.141 641.1132 1092.3563 645.2015 1096.9824 644.8121 1100.6963 640.9834 1104.9314 634.3642 1105.0617 631.1195 1097.9597 633.261 1095.6141 630.2759 1095.2232 631.1195 1089.8804 629.3674 1084.7983 622.4238 1081.8663 623.2025 1078.3479 618.3354 1075.8068 622.878 1071.8323 627.4855 1072.2884 625.5387 1069.9428 627.161 1065.5774 629.1727 1066.2289 629.8217 1072.1581 M 591.6641 1074.9598 585.8885 1076.3932 584.7204 1073.3961 592.1183 1063.4272 593.2864 1066.7502 591.6641 1074.9598 M 525.9266 1067.4017 520.151 1066.2941 525.8617 1060.8862 528.2627 1064.7955 525.9266 1067.4017 M 549.7426 1068.2488 546.0437 1067.532 543.383 1064.3394 545.9788 1058.28 550.9756 1061.7984 549.7426 1068.2488 M 532.5457 1062.3196 528.0681 1061.4074 529.0415 1057.4329 533.2596 1058.9967 532.5457 1062.3196 M 467.5221 1061.212 465.5753 1060.1043 464.4072 1056.9117 467.5221 1061.212 M 446.172 977.0961 446.1071 976.1187 447.7943 972.1442 449.0273 968.2349 447.9241 956.963 457.9178 947.7761 457.9178 947.32 455.6465 942.303 453.6997 937.9376 453.3752 937.1557 453.8295 937.0254 463.4338 933.6373 471.1561 926.9263 477.3211 925.6883 476.0881 921.1926 477.1264 921.3229 480.8902 921.8441 481.2796 923.4079 486.7956 922.5608 486.8605 922.5608 487.5094 926.7959 497.4382 929.337 501.0722 928.2294 502.4999 927.643 503.5382 923.3427 507.3669 920.0198 509.1191 918.456 509.2488 918.3909 509.4435 918.5212 511.5201 918.9121 515.5435 922.7563 519.567 925.558 521.7085 917.3484 521.9031 915.7195 522.0978 915.7847 523.1361 916.1756 532.7404 920.2152 532.7404 917.9348 539.3596 911.8102 537.0883 909.1388 538.9702 909.1388 540.4628 905.6204 546.8873 907.9008 546.3681 910.9631 552.7277 914.1558 552.7926 914.2209 553.5714 918.5863 553.8958 920.541 554.0256 920.6062 558.3735 926.0141 559.4118 927.252 557.9841 931.0311 561.099 931.5523 568.5618 938.0027 568.5618 938.1982 568.497 943.0848 574.4672 945.6911 574.4672 947.5806 578.6853 950.0565 577.9066 951.4248 581.0215 951.099 580.8917 953.7052 582.4491 952.1415 582.0598 955.4644 591.9236 955.4644 588.4194 963.7392 590.6258 976.7703 597.5694 971.9488 600.2301 974.8808 602.6311 974.2292 606.395 978.8553 608.4716 978.9856 609.6397 974.8156 612.9493 976.8355 616.9727 979.3765 617.6216 979.7023 617.7514 980.0932 621.061 989.0195 630.5355 989.3453 630.6653 996.1215 637.6738 1002.7674 637.9334 1003.028 637.8036 1003.2886 635.2727 1009.2829 637.2196 1017.9486 642.4111 1024.6597 640.4643 1038.603 633.0015 1042.5775 627.0312 1038.6681 628.1344 1035.8664 625.9929 1035.9316 624.4355 1038.4075 629.3674 1042.7729 628.4589 1047.6596 621.4504 1043.7503 621.7099 1039.45 618.6599 1042.4471 613.6631 1039.7758 613.2737 1035.4103 616.3237 1029.4812 614.5716 1017.7532 622.0993 1014.5605 624.4355 1006.807 621.5801 1011.824 613.1439 1016.0591 613.6631 1027.8523 611.3918 1031.6313 609.7046 1022.9656 612.2354 1017.6229 608.0173 1014.9515 612.7546 1007.8495 605.746 1015.0818 605.2269 1017.9486 608.4716 1018.0789 607.4982 1042.0562 598.0237 1043.7503 585.3694 1037.2999 580.3725 1037.2999 579.3991 1031.6965 590.8853 1034.7588 580.697 1030.5237 580.7619 1028.8948 577.0629 1030.5888 580.1778 1025.4415 578.88 1019.1866 582.2545 1017.7532 577.8417 1016.9061 583.5523 1010.9118 584.4608 1007.3283 577.7768 1012.3453 575.9597 1018.0138 568.5618 1014.0393 577.4523 1002.7022 582.3842 1000.8127 579.9183 999.3793 575.5704 999.9657 565.382 1013.2574 567.6533 1017.688 575.3757 1021.9883 575.4406 1025.8325 565.9012 1033.586 566.9395 1036.9089 564.4086 1039.2545 554.7394 1037.365 554.7394 1029.6766 559.4767 1023.6823 560.3203 1017.3622 555.5831 1006.3509 559.282 995.3396 564.7331 987.7164 568.497 987.4558 556.1671 986.0224 559.8012 981.8524 560.1905 980.1584 558.1139 979.572 554.4799 986.6739 562.6565 988.368 556.232 996.1215 556.2969 1000.8127 549.7426 1008.6314 552.6628 1009.739 555.5831 1019.1866 552.4682 1024.0081 548.5745 1022.5095 551.5596 1025.7673 547.9905 1032.0222 550.9756 1040.3622 548.5096 1040.6228 549.5479 1044.6624 546.9522 1049.0279 544.2266 1049.8097 542.6043 1046.0307 541.7607 1048.1157 537.0883 1047.399 537.9319 1051.178 534.817 1057.3678 527.8085 1052.2856 533.584 1044.5973 528.9117 1048.7672 533.584 1043.229 528.8468 1034.8891 530.4691 1032.2829 536.4394 1030.7843 531.3777 1030.5237 528.1979 1033.1299 529.5606 1043.1639 522.7468 1047.9854 520.0212 1047.399 519.5021 1039.3848 521.7734 1036.0619 517.8797 1030.9798 520.7351 1036.6483 518.918 1039.2545 517.3606 1038.2772 517.685 1044.7927 511.1957 1047.008 509.0542 1049.94 507.1073 1048.8324 509.1839 1043.7503 505.485 1035.0846 510.2871 1029.9373 506.5233 1027.6568 509.3786 1030.8494 503.8626 1035.1497 507.8861 1043.3593 504.8361 1048.1157 507.3669 1050.7871 504.7063 1059.1921 505.2903 1068.8352 501.6563 1067.1411 500.1637 1062.5802 500.8775 1066.9456 487.4445 1072.0929 481.7338 1066.8153 490.0403 1061.8635 494.9073 1056.0647 499.3201 1057.2375 500.1637 1062.5151 503.4733 1047.008 499.6445 1040.4925 499.1903 1034.1724 498.4765 1041.2092 502.1105 1047.1383 501.6563 1051.6992 499.7094 1054.6964 491.4679 1056.1298 490.17 1052.7417 487.6392 1055.2176 481.4094 1055.0873 484.1998 1048.3111 484.5892 1039.1894 483.7455 1036.3877 481.604 1035.9316 483.3562 1037.9514 483.2913 1048.3111 480.1115 1056.0647 488.8073 1056.7814 489.9105 1059.3876 481.7987 1064.2743 480.5009 1067.6624 485.4977 1076.2629 482.9019 1081.9966 489.6509 1093.464 486.4711 1105.1268 489.7158 1110.8605 481.2796 1115.8124 476.5423 1112.4243 473.4274 1106.4299 476.6072 1098.3506 475.3742 1093.5291 470.0529 1090.9881 473.4274 1087.1439 471.4806 1082.6481 471.87 1071.1808 468.3008 1059.2573 462.3955 1051.4386 462.5253 1039.6455 458.8263 1037.2999 471.0263 1023.2914 473.8817 1014.1696 473.2976 1008.3056 466.1593 991.6258 450.455 986.2179 443.2518 987.2603 446.6263 981.2009 446.172 977.0961 M 606.2652 1070.9201 606.8492 1077.1099 611.8461 1077.8266 609.445 1080.7586 603.8641 1077.2402 600.6843 1071.8323 594.6492 1070.1383 597.4396 1055.6086 601.6577 1057.6284 603.2801 1067.5972 606.2652 1070.9201 M 463.4338 1055.6086 462.3306 1055.5434 462.1359 1054.8919 463.4338 1055.6086 M 542.9937 1052.6114 540.0085 1061.4074 539.749 1053.3933 542.9937 1052.6114 M 539.4245 1064.2743 535.0766 1059.3876 539.4894 1051.6341 539.4245 1064.2743 M 448.7029 1054.6964 448.1837 1049.4188 450.5199 1050.2007 448.7029 1054.6964 M 623.3972 1048.9627 631.8334 1054.7616 632.4174 1061.668 630.3408 1064.2743 625.928 1064.6652 620.2823 1071.7672 617.4269 1068.8352 622.878 1064.3394 618.0759 1061.7984 617.4269 1058.8664 622.294 1054.1752 621.7099 1049.5491 623.3972 1048.9627 M 554.6097 1054.11 558.7629 1054.3706 556.2969 1070.008 552.3384 1067.4669 551.5596 1060.6256 547.6011 1056.3253 552.0139 1048.8324 554.6097 1054.11 M 542.9288 1051.178 540.2032 1051.3083 540.7873 1049.3536 542.799 1048.7672 542.9288 1051.178 M 594.9737 1052.5463 593.8056 1054.11 588.7438 1053.5236 591.0151 1048.0505 594.0651 1048.7672 594.9737 1052.5463 M 583.0981 1054.3055 592.7673 1055.8692 590.5609 1064.144 586.1481 1067.8578 583.6172 1073.5915 583.9417 1079.9768 579.0747 1078.9343 580.8268 1074.1779 579.0098 1073.0703 581.93 1066.0986 576.7385 1072.6142 578.3608 1075.2204 577.5172 1080.1722 581.6055 1083.0391 578.6853 1085.1892 579.7885 1089.6198 588.3545 1087.0136 589.263 1093.7898 586.5374 1096.8521 585.4343 1094.1155 584.1364 1095.6141 576.998 1095.0277 569.7948 1088.5773 566.1608 1077.566 570.1842 1069.2261 570.7033 1065.1864 567.3938 1060.6256 567.0693 1056.1298 571.0278 1047.2687 583.0981 1054.3055 M 526.5106 1058.4754 525.1478 1060.0392 521.1244 1059.0618 521.7085 1061.8635 517.8148 1065.2516 520.0212 1068.4442 512.6882 1065.1864 508.5999 1066.6199 508.7946 1052.8069 512.8829 1048.0505 517.4904 1046.8126 523.0712 1049.8097 526.5106 1058.4754 M 525.5372 1048.8324 523.9149 1048.1808 526.251 1046.6171 525.5372 1048.8324 M 451.8827 1047.9854 449.6763 1048.3763 448.8326 1047.0732 451.8827 1047.9854 M 555.7778 1043.8154 561.4884 1045.5746 558.3735 1052.6114 555.7778 1052.7417 553.3767 1048.4415 555.7778 1043.8154 M 575.2459 1043.7503 585.9534 1044.0109 586.3428 1045.6398 589.4577 1045.6398 589.7172 1048.246 587.1864 1052.025 582.8385 1052.6766 570.898 1043.8806 573.0395 1042.4471 575.2459 1043.7503 M 455.7114 1048.1808 452.1422 1044.7927 452.7263 1042.0562 457.9827 1044.1412 455.7114 1048.1808 M 615.8046 1045.2488 621.1908 1046.8777 620.7365 1053.7842 615.6748 1060.2998 621.1259 1065.0561 615.7397 1068.3139 616.8429 1073.9173 611.0673 1074.1128 608.9258 1076.2629 604.5779 1066.6199 605.6162 1060.9513 600.1003 1056.2601 600.7492 1054.2403 591.729 1042.7078 603.8641 1045.5095 610.2886 1041.6653 615.8046 1045.2488 M 532.416 1043.9457 531.3128 1044.5973 531.5723 1040.8834 532.416 1043.9457 M 582.5789 1039.3848 585.0449 1038.6681 588.0949 1042.1865 586.0183 1043.2942 573.6885 1040.4273 573.364 1032.4783 577.1927 1032.8041 577.7119 1036.6483 582.5789 1039.3848 M 450.0007 1034.3027 447.5348 1033.6511 449.1571 1028.4387 456.555 1025.3112 455.322 1029.807 450.0007 1034.3027 M 373.5557 829.5186 373.426 829.6489 371.4791 826.7169 368.4291 826.7169 370.7004 828.0852 369.5972 832.8416 369.4674 833.1673 366.4823 833.5583 359.6036 835.2523 361.6153 841.7027 359.344 847.7622 355.4504 849.0002 357.527 851.6064 353.9578 853.7565 351.5567 851.8019 348.6365 852.3883 345.3918 848.5441 341.2386 846.7197 337.2801 845.6121 336.2418 845.8727 336.1769 848.0228 332.6726 847.8274 333.9056 851.9322 337.0854 851.8019 338.1237 854.9293 334.8141 858.0568 342.8609 857.9265 349.2205 862.8783 353.9578 861.1191 355.9046 862.3571 357.3972 868.7423 361.4206 870.7621 367.7153 870.6318 366.5472 874.6063 368.2993 875.9746 374.7238 873.3684 376.3462 873.5638 376.2164 876.1049 379.1366 875.4533 379.0717 883.4023 382.9654 886.2692 383.6143 893.0453 391.2718 903.7309 393.2186 903.796 393.2835 907.5099 401.2654 911.2889 401.2654 911.4192 400.0973 917.0878 399.708 918.847 403.4069 923.473 409.1825 926.2747 407.1708 928.2294 399.7729 927.643 389.1952 934.2237 387.6377 933.0509 382.9654 935.3313 378.6824 932.5296 372.9717 932.0736 369.4674 929.0112 368.8185 931.9432 367.6504 932.5296 365.8983 936.8299 363.1078 937.4815 360.7068 942.7591 362.978 948.0367 360.3823 962.5664 360.5121 963.0876 365.9632 964.065 375.3728 965.6287 375.6972 965.6938 375.6972 965.759 372.3228 973.317 370.7004 985.6315 376.7355 988.5635 376.8653 991.0394 372.9717 992.8637 371.4142 1003.7447 365.8983 1008.1101 355.9695 1008.1753 355.4504 1010.2603 348.961 1012.1498 348.7663 1012.2149 347.9876 1009.8042 339.162 1012.4104 330.3364 1010.6512 326.7024 1013.9741 329.1034 1016.1894 327.8705 1018.6002 329.6226 1019.7078 329.4279 1020.2291 329.5577 1020.2291 328.9737 1021.9231 328.8439 1022.2489 328.8439 1022.3141 328.6492 1022.1838 326.7024 1021.5322 326.6375 1021.6625 324.1066 1026.0931 323.9119 1026.7446 327.4162 1028.0478 328.9088 1036.7786 333.1918 1036.8438 333.7109 1037.7559 333.7758 1037.8863 334.1652 1038.5378 331.1152 1039.5151 328.13 1040.4925 327.0268 1048.3111 321.5758 1049.6794 322.9385 1058.5406 320.1481 1060.0392 320.9917 1063.2969 317.0981 1068.4442 319.564 1069.6822 319.9534 1074.0476 311.2576 1074.5689 309.2459 1072.6142 306.8448 1074.8946 303.2757 1069.617 299.7714 1071.0505 299.382 1069.1609 294.4501 1069.3564 291.9841 1065.7728 288.9341 1067.3366 285.2352 1064.144 286.598 1062.3848 282.2501 1057.3026 282.8341 1053.0675 280.3032 1047.8551 283.5479 1043.7503 279.7841 1039.6455 281.2118 1035.6058 281.2118 1035.5406 276.4745 1031.3707 272.3213 1021.9883 267.2596 1015.9288 264.9234 1013.3226 259.7968 1011.0421 259.7968 1010.8467 260.251 1003.6144 262.717 1000.2263 269.7255 999.6399 265.8319 997.5549 268.6223 993.385 267 990.9742 269.1415 990.9091 268.0383 981.657 276.6043 983.4813 278.2915 979.7675 275.8905 975.9233 270.7638 973.1216 273.5543 968.6258 263.95 963.7392 263.8851 961.133 265.767 961.8497 270.2447 954.6825 280.4979 952.1415 284.132 949.3398 281.2118 946.4729 267.3894 950.3171 268.0383 947.32 265.3128 944.8441 253.8265 943.997 256.617 940.6741 256.1627 938.3285 249.4787 935.6571 251.685 926.0141 255.9031 921.5183 251.5553 913.5042 253.3074 908.4872 250.7116 903.6657 252.2042 898.2578 257.7202 893.7621 252.8531 891.8725 250.9712 887.1162 248.3106 885.6828 248.5052 885.4873 250.7116 883.0765 249.1542 876.8868 248.5701 874.4108 243.8329 866.5922 245.8446 861.1191 258.5638 862.3571 266.8053 853.4307 274.9171 852.5186 276.9288 849.8472 281.3415 851.867 286.598 850.6291 295.748 842.5498 303.665 840.6602 323.1981 848.935 336.2418 845.8727 M 409.1825 926.2747 407.4303 931.2265 410.4155 935.8526 410.7399 936.3087 406.1325 940.1528 406.2623 940.6089 409.7665 944.3228 417.6836 945.4956 420.7336 973.9686 429.7538 979.9629 429.6241 980.2887 428.2613 984.1329 432.9985 988.6286 438.6443 988.1725 444.4848 992.147 456.9444 992.0167 463.5636 998.9232 462.8497 1001.1385 466.8731 1007.9147 461.7465 1014.2999 449.3518 1022.9005 442.7975 1024.9203 437.8007 1021.7277 433.9719 1014.3651 428.7155 1013.5832 432.8039 1016.4501 439.6826 1029.0251 434.0368 1036.9741 427.4826 1053.9797 421.3176 1061.8635 409.8963 1069.1609 404.6399 1065.7077 406.3272 1073.2657 388.676 1087.6 380.2398 1088.7076 379.2664 1091.2487 365.8983 1097.3082 361.4855 1097.8946 361.0961 1095.2232 358.9546 1094.8974 356.9429 1098.481 344.2237 1101.7387 343.8343 1100.1099 339.8758 1103.107 328.9737 1105.3223 327.1566 1098.09 324.1715 1097.1778 326.1832 1090.7274 325.6641 1081.2147 320.7321 1080.8238 322.6789 1079.7161 320.9268 1079.0646 319.564 1069.6822 M 281.2118 1035.6058 280.3681 1037.1695 274.9171 1035.1497 272.0617 1036.518 266.8053 1032.5435 265.1181 1041.2092 260.3159 1043.5548 254.6702 1043.2942 252.2691 1045.4443 252.7233 1054.8919 240.718 1054.4358 233.7094 1045.6398 239.3552 1031.3707 238.8361 1021.0761 231.8275 1017.688 226.4413 1011.6285 201.3923 1009.2829 199.5104 1005.3084 195.6816 1005.0478 196.7199 1003.7447 194.3189 1002.8325 194.838 998.9232 192.8912 997.5549 178.5496 999.6399 179.5879 985.8269 189.2571 985.5663 190.2954 981.8524 192.9561 983.6116 190.9444 983.0252 189.6465 985.5663 194.3838 985.6315 196.3955 981.0054 192.8263 980.6145 192.4369 976.1187 194.1891 976.2491 194.5135 980.419 196.5901 975.8581 197.2391 978.5295 198.6667 975.9884 210.9966 977.8128 211.3211 969.9941 200.4838 964.6514 202.8848 949.7959 196.5253 946.0169 186.9859 944.5183 186.7263 940.4786 184.3252 938.7846 184.2603 933.5721 192.5667 934.5495 194.1242 932.4645 191.7231 920.4759 187.7646 919.4334 188.3486 917.3484 185.5582 914.6119 166.09 915.1983 165.6358 912.0708 161.0932 908.2266 162.5858 898.7139 146.4272 888.5496 146.557 888.289 146.6219 888.289 153.241 878.3853 154.0198 876.561 154.6687 874.9972 155.3825 873.238 154.2793 871.6092 156.6804 871.2834 156.7453 871.3485 156.6804 871.4137 165.7656 873.5638 168.7507 877.0822 173.3581 877.3428 177.6411 881.9037 194.6433 889.0057 212.554 900.3428 216.837 905.0991 223.9754 903.1445 223.0668 896.7592 225.8573 895.5213 236.3052 900.5382 237.2786 891.0907 243.5084 885.2918 248.3106 885.6828 M 524.3691 68.0451 524.0446 67.8496 524.3691 68.3057 530.5989 75.7986 530.8585 76.1244 525.4723 73.3879 517.2308 76.8411 514.8946 79.9686 516.1925 81.7929 514.635 81.2717 514.8297 84.2037 517.2957 86.9402 515.2191 88.113 516.1276 91.8921 513.4669 92.8042 513.2074 95.9969 513.7914 99.1243 515.6733 98.3425 518.6585 102.7731 516.2574 104.9232 510.9361 103.6201 507.1722 107.5946 507.1073 107.6597 509.1839 108.8977 508.8595 114.4359 510.7414 116.977 506.3286 120.6908 508.5999 122.3849 504.252 124.0789 498.8658 140.3678 495.7509 143.365 493.4796 143.2998 487.5094 144.4726 486.2115 146.5576 481.9934 145.5151 477.4508 150.923 477.5157 151.1185 477.3859 151.1837 472.454 147.3395 474.92 144.4075 469.1444 145.8409 465.9646 141.7361 476.4774 133.9826 475.5689 128.5747 472.5838 128.3792 473.103 132.2885 467.3923 131.1157 465.3806 133.9826 463.304 132.2885 462.9146 135.8069 458.8263 138.4783 450.8444 132.7446 452.3369 128.5747 455.7763 128.3792 458.0476 118.2801 461.6816 115.9345 466.938 89.4162 462.8497 74.1697 463.888 70.6513 457.3986 64.5919 458.4369 59.9007 453.9593 54.167 456.2954 47.912 448.0539 43.2208 445.8475 37.6826 437.9954 37.422 433.5826 29.7336 434.4262 27.3229 428.5209 23.0877 428.8453 18.8526 431.8953 16.6373 433.9719 10.9037 433.0634 2.7592 437.9954 1 445.6528 4.779 444.7443 7.9065 449.0273 18.1359 460.3838 22.8271 465.8997 18.3314 472.5838 18.5269 475.8285 21.0679 489.586 19.0481 492.4413 19.6997 493.9988 23.6741 497.4382 22.8271 500.2935 25.6288 515.1542 28.626 513.9212 30.3852 512.4935 32.3398 511.3903 39.3766 513.2074 42.5693 506.9776 46.7392 512.4286 47.9772 513.5318 52.9942 516.517 52.1471 517.3606 56.5777 523.6553 61.5296 524.3691 68.0451 M 524.3691 68.0451 530.7936 71.3681 542.9288 66.3511 548.7692 68.1103 552.2086 63.0933 554.999 62.963 555.2586 58.1415 559.7363 50.9092 561.6831 55.1443 560.7097 58.9885 579.5938 59.0536 578.88 51.5607 585.4991 46.1528 600.9439 51.3001 601.5279 51.4956 601.9822 55.4701 611.262 45.5664 616.778 50.9092 615.3503 58.0112 622.0993 61.5947 630.1461 56.708 631.2493 59.64 635.2079 60.878 635.5972 63.7448 644.5526 66.2208 643.709 70.2604 646.2398 72.3454 644.7473 75.7986 644.6824 75.9941 645.2015 81.0762 640.5292 91.436 641.7621 93.8467 640.1398 103.4246 635.2727 116.977 635.8568 120.5605 640.2047 123.8183 641.5675 122.3849 641.6323 124.1441 647.6675 124.6002 647.5377 124.7956 646.2398 127.467 645.2664 129.6172 647.0185 130.3339 647.343 135.1554 649.7441 134.6341 650.393 138.0874 650.4579 138.0874 650.4579 138.4132 641.3079 136.1979 637.1547 136.0676 635.727 136.9797 631.3142 139.7814 619.5035 135.2205 619.828 138.0222 616.5184 142.518 613.728 142.7786 614.5067 148.5774 611.5216 149.9457 607.1088 148.5774 611.7812 151.5746 612.3003 151.9004 612.495 152.0307 603.7343 154.6369 602.112 161.4782 599.4513 164.1496 587.3811 166.9513 582.7736 163.1071 582.0598 163.3026 579.3991 167.668 577.5821 171.1864 579.3991 175.4215 579.7885 176.2686 579.7885 176.3337 576.4789 184.413 571.3523 184.4782 571.6119 186.3025 564.8629 187.0844 565.7065 188.9088 563.565 190.9937 560.9044 190.4725 561.6831 183.4357 564.6033 186.498 569.081 185.1297 564.5384 183.9569 562.5267 179.3309 566.2257 177.3111 566.8097 180.634 576.6736 178.1581 577.1278 176.2686 574.2725 176.9201 576.4789 173.0108 574.3374 171.7728 567.9778 176.3989 565.4469 170.1439 566.5501 168.059 564.1491 167.4074 568.1076 165.1921 561.8778 163.5632 565.1874 162.5207 564.9927 160.5009 561.5533 161.6737 557.0107 159.4584 557.8544 157.3083 552.5331 156.2006 552.2735 148.9032 547.6011 148.7729 546.3032 153.2035 539.9436 151.2488 539.6192 146.1015 534.4277 147.0789 532.5457 141.2149 526.3159 141.0845 525.2127 135.0902 520.2159 134.1781 517.7499 136.3282 513.0127 130.399 511.7797 117.4331 508.8595 114.4359 M 517.9446 320.914 519.8914 320.2624 522.2925 323.3248 528.3925 323.1293 527.3542 328.2114 533.1298 332.8375 535.0117 331.4692 536.3745 337.9848 539.1649 335.5089 545.849 338.3757 549.9373 336.421 552.598 340.2001 557.7246 340.2652 557.3352 344.0442 560.0607 343.2624 560.5799 344.761 567.848 345.2822 569.8597 343.4578 569.6001 339.6137 576.2842 338.7015 576.7385 342.0896 580.697 340.7213 581.8651 339.0273 579.6587 334.727 583.5523 336.6817 589.7821 335.0528 589.9768 341.7638 593.4162 341.6335 595.2981 347.8233 592.7024 350.8856 593.546 356.0329 589.9768 357.336 595.5577 359.8771 595.4928 366.5229 601.0737 368.8034 600.6194 370.8232 603.9939 374.1461 604.9024 371.9308 608.4716 371.8005 610.3535 376.8175 612.8195 376.1008 614.961 379.098 623.9163 378.0555 626.9663 380.0101 628.6536 378.6419 628.4589 386.2651 624.4355 384.1801 617.5567 389.3274 619.3737 397.1461 614.8961 396.5597 614.1173 398.8401 616.6482 399.9478 616.8429 403.5313 614.1173 402.6191 611.3269 405.486 609.2503 402.7494 602.5662 402.9449 602.1769 399.4917 600.3598 400.7948 600.4247 398.775 596.0768 396.0384 588.8087 404.639 582.5789 402.9449 581.7353 400.8599 577.7119 403.3358 574.7268 401.8373 574.4672 398.9704 565.382 396.9506 562.2671 398.9704 550.7809 397.9279 543.9671 403.2055 540.333 403.5965 539.9436 400.2084 535.2713 401.1857 535.7904 399.1659 528.0032 396.4945 523.5255 396.0384 521.3191 399.5568 515.868 398.6446 521.5787 384.7013 519.9563 386.5257 519.7616 386.4605 516.6467 383.2028 518.4638 377.4039 517.3606 376.7524 516.1925 376.1008 515.4138 375.6447 512.5584 376.0356 512.1691 376.0356 511.8446 376.1008 512.4286 376.2311 514.3755 377.4039 514.1159 378.0555 512.818 378.707 509.4435 379.8798 507.5616 378.0555 504.7063 380.9875 496.0754 377.9903 494.2584 379.7495 489.7158 379.1631 485.9519 375.7099 485.8222 375.6447 485.7573 375.7099 482.9668 378.4464 482.7721 378.1858 480.6955 375.5796 474.9849 375.1235 472.7136 372.6476 472.0646 372.7127 468.8848 373.1688 463.888 373.8204 465.1859 370.2368 462.2657 365.4153 466.8082 364.047 464.1476 362.2227 462.8497 354.0782 468.6253 354.2737 472.9732 351.2114 481.7338 352.6448 482.1232 346.6505 480.6955 343.8488 480.6306 342.9366 484.8487 341.3077 486.9902 336.812 493.6743 332.7723 494.1935 327.9508 496.0754 328.9933 500.8126 326.5174 502.6297 321.5004 507.1073 320.8489 509.0542 318.6336 512.7531 319.0896 511.5201 321.1746 513.4669 322.4777 517.9446 322.0868 517.9446 320.914 M 515.868 398.6446 517.0361 403.7919 520.8 408.5483 517.101 413.044 519.3074 422.4916 515.8031 427.1176 519.2425 430.8315 516.0627 436.6955 513.7914 434.8712 511.2606 438.4547 512.0393 443.2762 509.768 442.1034 507.7563 443.9929 508.4052 448.7493 505.0307 449.9221 501.5914 447.1856 497.0488 449.7266 496.2701 454.0269 493.9339 455.0042 498.2169 458.8484 494.6477 463.4093 492.9605 460.7379 489.6509 463.2138 489.4562 460.4121 484.7838 459.8909 484.5243 458.1317 480.8902 461.9759 481.9285 455.5255 474.5955 445.9476 463.5636 447.8371 461.0327 451.0297 457.204 450.6388 457.6582 455.0042 463.3689 459.2393 459.9944 460.6728 464.4721 465.4291 461.8114 467.7747 457.788 467.5793 458.9561 468.8824 455.971 470.3158 456.7497 476.3753 454.1539 472.8569 450.6497 477.2223 450.7146 481.3923 447.4699 480.7407 443.5113 483.2166 442.2784 492.7945 435.5294 498.854 422.8102 486.735 409.8963 465.4943 422.3559 453.636 421.0581 442.364 389.909 420.8627 390.8824 414.8684 386.6643 409.7862 386.5345 388.741 373.2962 387.3076 383.4196 385.809 394.3867 390.435 399.9676 386.0045 400.0324 378.1206 387.6377 371.0838 388.676 363.8515 383.8739 362.4833 384.2632 356.1632 386.5345 357.2708 385.5611 353.6221 388.2218 349.6476 394.9707 352.2539 398.475 345.9338 403.4069 346.6505 403.7963 340.2652 407.5601 337.7893 407.3006 335.574 410.9995 338.7015 413.5304 332.9678 422.1613 332.0556 427.1581 334.5967 430.9868 340.3955 430.5326 336.812 432.5443 336.812 436.1783 341.5032 443.0571 341.7638 445.7177 347.8233 446.5614 349.8431 446.6911 350.0386 449.1571 350.7553 449.6114 353.1009 452.3369 352.3842 448.5082 355.0555 451.688 355.9026 450.0656 358.3785 452.8561 357.9224 449.3518 362.6136 454.2837 366.1971 451.3635 373.7552 454.9976 379.3586 450.2603 381.0526 451.6231 381.8996 449.6763 383.9195 454.0242 384.6362 455.0625 390.0441 459.7348 384.5059 457.5933 383.5285 458.7614 379.554 461.8114 378.1858 461.9412 378.1206 467.7168 382.7467 472.3891 376.3614 476.9966 377.86 476.6721 379.945 482.7721 378.5767 482.9668 378.4464 M 435.5294 498.854 439.6826 502.8284 440.1369 506.412 447.405 513.514 451.5582 521.2023 451.1039 525.7632 456.2954 534.5592 466.1593 538.5337 467.8465 541.2703 496.0754 547.6555 505.4201 557.0379 524.434 565.3127 527.7436 570.1342 533.5192 572.8056 540.2032 574.239 541.7607 570.6554 545.5245 570.9812 547.7958 573.6526 557.7895 573.7177 558.4384 575.933 564.6682 571.0464 573.0395 576.5846 576.0246 584.8593 574.1427 600.5618 577.0629 605.9046 567.3289 611.4428 568.0427 615.8083 568.1076 616.2643 562.2022 618.219 564.214 619.5221 563.8895 619.5873 564.0842 619.6524 558.1139 621.4116 556.4916 624.474 554.2852 628.9697 557.9841 632.8139 553.8309 637.896 553.5714 637.9612 553.3118 637.9612 551.1054 638.2218 547.4064 634.964 544.4213 628.7742 538.3862 627.2105 537.0883 635.0943 530.8585 636.5277 533.1947 644.2161 530.7936 643.3039 526.5755 646.9526 520.2808 648.777 530.3394 655.2274 530.534 655.3577 528.5872 656.9866 525.667 654.641 521.2542 656.4654 523.9149 666.6296 524.3042 668.0631 523.9149 668.3888 523.2659 668.9101 521.1244 670.6693 520.8648 670.148 518.2691 663.3719 511.6499 673.4058 510.5467 670.148 504.3818 671.4511 499.5148 668.3237 495.9456 672.6891 483.2264 671.9724 477.0615 673.8619 477.4508 679.6608 477.5806 680.7032 477.5157 680.7684 477.2562 681.029 475.8934 682.267 475.1147 682.0715 467.0678 680.0517 464.9263 681.9412 460.1242 685.9808 458.7614 687.2188 458.6316 687.284 457.0093 687.2188 456.1657 687.2188 456.1008 687.2188 454.5433 683.8307 450.3252 683.3095 446.172 689.3689 442.0188 689.4341 441.9539 689.3038 437.3464 682.0064 438.2549 679.4653 441.6943 679.7259 441.889 678.0319 436.2432 675.2302 436.0485 670.7996 432.0251 665.4568 423.8485 665.4568 425.0815 667.8024 423.5889 672.3633 421.5123 672.4936 416.3208 668.9752 417.424 667.6721 415.4772 666.2387 408.5984 666.4342 407.8197 662.0687 405.7431 663.6325 404.2505 660.4398 401.7846 660.8308 403.342 658.811 400.3569 656.9214 400.292 656.6608 399.9027 655.1622 399.2537 652.6212 399.5133 652.4909 403.8612 650.6665 403.6016 645.1283 401.3952 641.5447 400.292 640.8932 400.7463 640.5674 402.5633 639.3294 402.1091 635.0943 404.5101 632.2926 402.758 630.0122 402.8878 629.8819 403.1474 629.6212 405.7431 626.9499 409.9612 626.2332 409.5718 619.3918 409.6367 619.2615 410.2208 618.61 412.6868 615.9386 412.557 615.1567 411.1942 614.1794 408.7282 612.355 412.3623 608.5108 409.7665 606.3607 410.2857 602.9726 416.84 600.4315 414.3091 598.0859 416.4506 595.5449 427.223 597.4344 428.0017 592.7432 429.2347 593.7205 431.3762 591.7007 429.6241 586.9443 434.6858 586.0973 434.7507 585.2503 432.739 579.0605 433.5177 573.7829 428.5209 573.0662 428.7804 569.9387 421.6421 567.6583 421.3176 563.358 422.1613 560.9472 424.8868 560.6866 425.9251 552.8679 424.8868 541.4006 422.8102 538.8595 419.0464 538.7943 420.0198 533.1258 417.8783 532.4091 417.3591 530.1938 414.7634 527.7179 408.4038 527.9134 408.274 527.9134 408.4687 526.0238 408.9878 520.4205 412.1676 519.5734 412.6868 514.7519 405.5484 514.1004 411.5836 513.8397 413.2708 509.4743 413.7899 503.8058 408.2091 501.1996 411.9729 492.9248 408.5335 492.2081 407.041 488.9503 403.6665 490.7095 394.3218 486.2789 397.6314 479.5027 397.9558 484.1288 401.4601 484.9758 404.3803 482.3696 404.2505 479.5679 406.8463 477.6132 404.3154 472.6614 410.4804 472.8569 408.5984 466.5368 409.9612 465.7549 422.8102 486.735 M 423.5889 672.3633 420.2144 678.8137 418.0729 679.2698 421.0581 684.0913 417.2293 688.1961 413.8548 688.131 414.374 690.9978 412.4921 690.3463 412.557 690.5417 414.7634 697.7089 412.6219 701.0969 417.5538 701.2273 417.3591 704.4199 422.0964 707.4822 419.5655 714.0629 416.4506 715.6266 416.191 719.4057 415.8017 719.7966 411.1293 724.162 410.1559 724.553 408.0144 721.23 407.8846 721.4906 407.7548 721.23 406.9112 723.315 405.7431 722.5331 405.1591 722.0119 405.0293 722.0119 404.8995 722.077 400.0324 723.2498 399.8378 723.2498 397.9558 719.6663 391.5313 721.4906 386.9239 716.7994 377.1249 715.6918 372.6472 709.8278 368.494 712.0431 364.4706 709.6975 360.577 712.7598 355.7748 710.8051 347.8578 714.3887 345.7812 713.8023 338.4482 711.6522 338.3833 711.8476 337.5396 710.6097 336.5013 710.2187 330.6609 713.2159 329.6226 712.9553 329.4279 713.0856 329.1034 712.825 321.1864 710.74 314.1778 702.791 315.4757 699.012 313.7885 696.4709 306.0012 693.8647 302.7565 689.4341 289.7778 688.8477 285.2352 684.2216 277.383 686.4369 274.3979 684.0913 263.4957 684.2216 255.2542 679.1395 250.8414 671.4511 256.1627 672.8194 255.384 674.4483 260.9 673.2755 262.717 674.9044 266.2213 669.301 258.8883 663.6976 258.7585 660.6353 265.767 661.4172 268.9468 663.8279 271.9968 662.8506 270.5692 665.9129 273.8139 663.1112 279.3298 663.1112 276.0851 668.3237 280.6926 669.1707 283.6777 665.5871 280.7575 660.3747 281.7958 652.8166 284.0671 652.8818 283.0288 654.5758 286.3384 659.5928 291.4001 654.3152 289.3235 650.2756 290.9458 642.913 284.9756 641.2841 285.0405 634.1821 282.0554 635.0943 279.3298 630.0773 281.6011 625.9725 290.0373 629.2303 299.6416 628.1878 299.4469 630.7289 296.1374 633.3351 298.0842 635.0943 302.497 635.1595 304.314 632.3578 319.8236 638.4824 323.847 637.9612 323.9768 635.6156 319.4991 632.2926 327.0917 632.4881 334.1003 627.7969 333.7109 625.5164 330.4013 624.2133 330.2715 619.7176 333.9056 618.5448 329.6875 617.1114 331.7641 614.8309 331.2449 611.7035 337.9939 613.7884 340.2003 617.9584 343.3152 618.8706 347.6631 617.6326 346.3652 612.8763 348.5067 610.4655 353.4386 608.8366 346.6248 603.1681 357.4621 602.5817 359.6685 604.797 364.0812 603.8848 366.2227 605.0576 365.7036 606.9471 370.1164 605.5137 370.7653 598.0208 366.5472 596.5874 366.0281 594.0463 358.9546 592.6129 360.5121 589.5506 359.0195 584.8593 362.8483 588.4429 363.627 586.5534 372.2579 583.6214 373.6855 577.0407 376.9951 578.0832 383.16 574.1738 384.9771 571.4373 383.809 567.984 390.9473 559.579 389.6494 556.1909 393.1537 553.3892 391.9856 552.1512 390.7526 554.3665 388.676 552.1512 391.4665 545.4402 395.425 544.6583 392.8941 540.9445 396.3335 536.9048 393.0239 538.0125 392.6994 533.647 391.2069 537.5564 389.6494 536.1881 391.4016 535.3411 390.6228 527.8482 392.5048 527.1315 389.0654 522.2448 384.9771 522.5054 385.1717 519.9644 389.3899 520.0295 395.9441 522.7661 396.2037 525.1117 401.0059 525.8284 408.5984 523.6131 408.4687 526.0238 M 568.0427 615.8083 572.6502 614.3097 572.5204 621.3465 575.3108 622.7799 573.1693 624.474 576.2842 627.9272 573.4938 635.5504 579.7885 633.7261 581.4757 638.2869 575.1161 638.743 574.2725 642.5872 576.414 648.6467 574.7268 648.0603 574.4023 652.3606 567.9778 652.2302 568.8863 654.4455 565.5767 654.3152 560.8395 658.0291 561.4884 660.505 553.2469 661.4823 551.4299 659.267 549.6777 662.0036 545.2 660.505 543.6426 663.9583 546.4979 663.8279 545.5894 668.1282 548.6394 670.9299 545.7841 671.5815 547.4064 673.2755 543.9671 677.0545 539.6192 677.5106 544.2266 679.4653 542.2798 684.6777 543.7075 687.0885 541.3064 691.4539 543.1234 700.2499 539.9436 704.0289 540.7873 706.4397 546.9522 705.723 546.8873 710.349 544.2915 713.1507 557.0756 711.8476 555.7778 715.3009 558.3086 716.5388 558.8927 722.1422 563.7597 724.3575 567.3289 730.0912 572.5853 730.8079 575.8949 737.1931 579.464 737.7795 579.8534 735.4339 582.5789 737.3235 581.4108 735.043 584.9151 731.9807 584.2013 733.6747 586.6023 733.0883 587.8353 736.1507 585.0449 739.4736 586.5374 744.5557 583.747 745.8588 580.2427 743.9042 578.5555 749.8985 579.9183 751.3319 577.5172 753.2866 580.7619 759.2809 577.2576 760.5189 576.6736 763.1251 574.2076 762.3432 575.5704 764.1024 574.3374 767.2299 577.5821 768.4027 576.7385 771.1392 574.2076 771.2044 573.7534 768.7936 572.9097 772.8333 569.1459 771.8559 569.9895 770.1619 567.0693 772.1817 572.5204 778.1109 571.547 781.5641 578.4906 785.278 570.314 784.887 569.8597 785.9295 569.4055 785.9295 568.3023 789.2525 568.3023 789.3828 568.2374 789.4479 571.2874 789.9692 571.6768 794.8559 570.1842 798.9607 567.7831 798.4394 566.6799 800.6547 568.8214 804.955 566.8746 809.972 562.7863 813.1646 564.6682 818.1164 567.1991 819.0286 564.4735 821.3742 565.6416 826.6518 563.0459 828.6065 563.565 831.8642 560.4501 835.0569 560.7746 841.7027 563.6948 842.7452 559.282 843.7226 558.8927 847.4364 561.748 852.9747 559.6065 856.1021 558.5682 854.0171 553.5714 854.9293 550.4565 849.9123 541.5011 848.6092 540.9819 846.85 531.183 844.6999 529.5606 842.1588 522.8766 844.2438 521.4489 841.5073 513.2723 840.0738 510.0925 843.0058 510.6765 835.3826 510.8063 833.6886 512.1691 832.4506 515.5435 825.7396 509.5733 833.6886 509.8329 833.2325 510.8712 831.1475 518.5936 820.7878 527.484 822.3515 520.5404 818.377 528.9117 810.9493 515.4787 803.0003 515.868 802.8048 520.2808 800.1986 522.617 791.3375 520.6702 788.0797 511.7797 790.295 511.6499 790.295 511.8446 789.9692 499.969 785.1477 499.2552 784.6916 500.4233 782.9324 501.3318 781.499 501.3967 781.3686 498.8658 776.482 495.102 776.3517 495.8158 774.0712 498.6711 774.5273 494.2584 769.6406 496.2701 766.8389 495.2318 764.4933 497.7626 763.5812 495.1669 760.7143 495.2318 759.737 500.3584 751.5925 495.1669 749.3121 499.2552 746.8362 496.7243 741.6889 502.2403 741.3631 502.435 741.3631 500.2286 740.06 506.3935 733.8051 506.069 732.4368 505.9393 731.7201 505.8744 731.5898 500.3584 724.0969 492.8956 723.1847 484.1998 725.7909 484.2647 721.23 493.3498 718.5586 492.1169 715.3009 486.4711 717.7768 485.4328 712.3689 484.3945 714.3235 480.8253 709.6975 473.103 712.1734 468.6253 709.1762 461.8114 707.7428 456.6199 700.9015 462.3306 691.7797 472.2593 691.5842 475.7636 691.5191 475.9583 691.5191 475.3742 690.6069 474.5306 689.3038 474.4657 689.1735 473.6221 688.9128 468.1061 686.5021 468.1061 685.1338 468.1061 680.7032 464.9263 681.9412 M 511.6499 790.295 509.3786 794.5301 505.485 793.1618 505.2254 796.0938 502.3701 796.8105 503.9924 799.6122 501.4616 801.6972 501.202 808.4734 501.0073 808.4082 493.4147 805.5414 492.5062 806.9748 483.1615 806.649 476.5423 800.5244 463.4338 801.0456 460.3838 805.6065 462.2008 807.1703 458.9561 816.4224 447.405 823.1985 440.2018 822.547 437.2815 829.1277 439.9422 833.6886 436.5677 835.7084 434.1666 834.1447 434.1666 836.4251 431.506 835.3175 431.8304 838.8359 431.8953 839.1617 431.2464 839.0965 427.6123 838.8359 425.6655 838.7056 422.0964 840.986 420.0847 839.8132 418.3325 842.9407 412.8814 842.4846 408.6633 844.6999 408.6633 844.5696 407.625 839.1617 405.2889 840.3996 405.0293 843.2665 398.4101 844.309 394.6463 840.0087 393.5431 842.4194 390.1037 841.377 387.9622 837.5979 379.8505 838.445 379.3962 838.5101 379.2664 837.5979 374.1398 830.3657 373.426 829.6489 373.5557 829.5186 375.243 826.1305 379.2664 825.5441 379.2664 820.7878 383.7441 816.8133 381.343 815.3147 381.7324 812.513 380.6292 811.9918 380.11 809.5159 377.6441 806.5187 377.3845 805.8672 377.3196 806.0626 375.9568 808.7992 369.727 806.3232 367.6504 807.4309 369.0781 803.0655 363.3674 799.2213 364.86 798.2439 360.3823 792.9663 360.6419 788.8615 362.7834 787.4281 361.81 784.2355 351.2971 780.9126 342.9907 770.1619 331.3747 762.669 328.13 759.2157 321.7055 752.3744 318.7853 748.7908 320.7321 746.8362 320.9917 749.3121 324.4311 748.5954 324.6258 748.2044 325.7939 744.3603 325.1449 737.5841 321.9002 736.9977 326.313 728.6578 325.0151 727.094 327.0268 727.9411 329.8173 725.7909 328.5843 722.9241 331.5045 718.2329 336.5662 715.8221 338.3833 711.8476 M 146.557 888.289 139.6782 886.5298 137.4718 887.1813 136.9527 889.7876 127.0239 878.255 119.042 872.8471 122.8058 864.8981 122.092 859.0993 125.2718 858.7735 125.726 854.0823 128.4516 851.2155 125.6611 850.6942 122.2867 846.2636 130.2686 841.1815 132.7346 843.9832 135.4601 841.2466 139.9378 842.0285 141.1059 838.6404 143.7016 838.3798 144.1559 833.7537 138.6399 837.4676 136.3686 837.0115 137.5367 836.0994 135.2005 832.7113 124.4282 834.0144 118.9771 831.6036 114.0451 835.4478 110.6707 831.9945 100.677 832.7113 96.4589 828.411 83.1556 832.6461 77.1854 831.6036 77.3152 830.105 73.0322 830.6263 64.3364 820.3969 65.2449 816.8784 46.1661 810.819 47.2693 807.3006 45.0629 803.1306 27.9959 800.0031 20.0788 802.9351 13.2649 798.5697 13.5245 793.0967 10.2149 788.2751 4.3096 788.2751 4.6341 783.0627 1 778.8276 4.6341 771.465 10.6043 766.6435 10.0851 764.4933 13.5894 762.7341 10.8639 755.1109 17.3533 753.2214 14.1086 751.9835 13.7841 747.0968 9.6309 746.7059 9.566 740.6464 14.1735 736.281 26.698 739.0175 47.1395 735.8249 48.0481 734.3915 44.1544 733.6747 42.0129 724.8787 39.8065 723.9014 44.7385 716.3434 51.8119 717.7116 50.7736 719.7314 54.6023 720.9042 61.2864 719.536 62.3247 721.6861 67.7109 721.5558 65.6343 729.3745 68.1003 731.6549 65.6992 740.1251 71.345 739.213 81.5333 744.4254 82.312 740.7115 84.9078 741.2328 81.8578 746.8362 85.2323 750.6804 87.5684 750.3546 86.1408 747.618 88.4769 746.9013 93.2791 747.162 93.6036 749.3772 97.5621 750.6152 98.9898 747.6832 96.6536 746.0543 102.1696 743.6436 105.1547 745.0118 108.0749 738.8872 111.1249 738.4311 110.9951 736.1507 107.6855 736.1507 110.3462 731.4595 108.3345 727.1592 112.9419 721.4255 112.8121 718.689 117.9388 718.298 119.3015 715.6266 124.493 713.9978 124.3633 710.1536 127.4133 707.7428 133.059 706.1791 140.5867 707.7428 149.5421 704.2244 154.2144 699.0771 176.7975 694.1905 182.0539 694.9723 183.6763 698.0346 195.0327 694.6465 203.1444 697.0573 214.1115 705.8533 214.0466 705.9185 211.1264 713.281 211.97 718.2329 206.3891 719.9921 209.6987 721.621 210.0232 725.4651 212.7487 726.4425 212.4242 731.0034 214.6306 734.5218 208.2061 735.1082 206.9083 740.8419 199.5104 739.9297 199.4455 739.9297 199.2508 745.7937 204.7668 744.6209 207.103 745.9892 203.7285 749.0515 203.988 755.567 199.8997 756.805 200.4189 760.9098 197.2391 760.584 195.6816 764.363 191.3986 765.0146 192.0476 772.6378 189.5816 773.8106 190.6848 780.4565 189.8412 783.9097 187.7646 784.1052 192.0476 790.0995 185.8178 792.4451 185.8178 797.1363 181.7943 799.6774 180.4316 805.2156 177.6411 807.5612 180.4965 811.0144 183.3518 811.4054 184.455 814.2722 180.3018 822.0909 182.1188 823.1985 179.4582 824.6971 181.2103 826.7169 179.7177 831.9945 172.1252 845.2863 175.4347 855.2551 166.8687 860.8585 165.5709 863.7253 157.9134 866.3316 156.6804 871.2834 M 214.1115 705.8533 217.6158 707.5473 236.1105 707.2216 256.8766 717.9722 274.3979 721.9467 287.9607 733.4141 321.7055 752.3744 M 511.5201 918.9121 510.6116 917.9999 507.1073 911.0283 507.1722 904.7082 501.8509 904.1218 500.618 903.9915 500.4233 903.9915 499.1903 900.4731 499.1903 900.1473 498.9956 899.5609 501.7212 882.2947 495.102 874.7366 499.5797 871.8698 500.2935 866.0058 504.4467 865.0284 503.1488 859.7508 503.4084 859.4902 509.5733 853.7565 508.4052 847.4364 509.5733 844.2438 510.0925 843.0058 M 569.8597 785.9295 578.231 785.5386 581.1513 783.3885 583.3576 788.2751 589.0034 788.6009 589.7172 781.3035 593.0917 783.4536 592.1183 785.8644 594.779 783.9097 596.4662 786.3856 598.413 785.278 604.4482 787.1675 608.4716 785.278 610.029 789.7737 612.495 788.9267 615.545 791.2071 620.9961 788.0145 622.5535 789.6434 622.0344 787.6887 625.8631 789.5131 622.8131 789.8389 624.3057 791.8587 622.9429 795.8983 619.8929 793.7482 614.8312 797.006 612.6248 799.8077 613.1439 803.7822 611.3918 803.5867 607.1088 809.6462 600.5545 811.9266 602.112 814.0116 599.5162 816.4224 603.9939 823.6546 601.5279 828.3458 603.2152 830.496 596.6609 829.8444 600.6843 831.6688 601.6577 835.969 598.9322 837.9889 599.3864 842.8104 606.1354 840.9209 604.9024 844.8302 609.1854 847.8925 606.7194 848.8047 606.6545 851.9322 612.6897 856.884 616.3237 855.2551 620.9312 862.4222 618.9195 871.6743 614.8961 872.4562 609.7046 879.3627 611.5865 880.2748 610.4833 883.9236 612.8195 887.2465 619.5684 892.068 612.4301 900.6034 614.3769 905.1643 618.9195 907.6402 614.8961 912.9178 615.9344 918.1954 619.5035 920.8016 621.9046 930.575 626.3174 936.2435 624.9546 941.1953 627.0312 943.997 621.5801 947.5806 625.344 951.5551 623.9163 964.2604 626.9014 964.5862 631.8983 969.7335 626.8365 970.1244 625.9929 971.9488 631.1195 975.6627 629.4972 978.2037 633.4557 977.487 635.0781 983.1555 639.7504 987.7164 640.9834 997.6852 645.7856 996.9685 645.2664 999.7051 638.193 1004.9827 637.8036 1003.2886 M 498.9956 899.5609 492.7009 896.4986 488.0934 898.0623 485.3679 898.9745 485.2381 899.0397 485.1732 899.0397 477.7753 895.1955 468.8848 898.1275 466.0944 896.5637 465.4455 900.2125 464.2125 892.7847 463.4338 894.4136 460.9029 892.7847 459.4103 895.5864 456.7497 895.0652 452.0124 889.2663 449.8061 889.7876 450.0007 892.0029 443.2518 893.3711 444.4848 891.1558 442.6028 888.0935 439.6826 894.5439 435.0751 892.5241 432.09 893.3711 428.6506 889.8527 427.7421 884.3797 429.7538 881.9689 426.4443 874.8018 426.3145 874.7366 420.2144 876.6261 419.1112 887.6374 414.8931 893.3711 418.0081 904.3824 410.8048 904.643 408.3389 908.8782 403.0176 909.3342 402.1091 910.3767 401.2654 911.4192 M 446.172 977.0961 445.9773 977.8779 443.4465 978.2037 441.5645 982.4388 436.8922 985.3708 429.6241 980.2887 M 500.618 903.9915 500.8775 904.7082 501.3318 905.881 499.3201 909.3342 493.2849 919.8243 478.3594 918.1954 477.1264 919.8243 477.1264 921.3229 M 644.7473 75.7986 652.3398 82.5097 660.192 80.8808 677.324 82.249 689.0698 75.2122 690.8868 76.4502 700.6858 73.1273 702.1783 76.6457 711.3284 76.8411 716.3901 84.2037 734.7551 81.2065 736.7668 84.2689 752.9253 88.2434 752.2115 93.521 746.7604 98.0818 748.9668 100.3623 750.5243 99.0592 754.8073 100.4274 757.9871 96.1923 767.6563 99.5153 773.302 97.0394 777.2606 103.6852 784.2691 101.8609 794.4574 103.7504 796.8585 107.1385 797.4425 114.1753 794.1979 118.6059 798.0915 120.3651 797.3128 124.7305 799 126.2942 795.7553 127.858 796.6638 132.2234 794.4574 138.7389 794.3276 144.9939 798.0915 149.9457 793.8085 158.025 795.4957 159.9797 791.6021 160.0448 791.2127 159.6539 789.4606 158.1553 791.2776 156.2658 788.4223 155.8097 789.85 152.9429 794.8468 153.5293 793.8085 152.2913 796.1447 149.4896 793.3542 148.7077 788.6819 148.5774 789.0712 150.7276 774.4052 149.7502 774.0159 154.5718 770.252 153.5944 764.152 157.1128 756.5594 154.5718 754.4828 157.9598 749.486 157.9598 748.3179 162.7162 741.4391 156.5916 737.4806 156.9174 739.103 158.8069 737.4157 160.4358 734.4306 159.3281 736.5072 156.5916 732.6136 154.1808 733.1327 151.0534 730.0827 147.991 725.6699 149.7502 723.8529 147.2092 715.7412 145.2545 712.4965 149.229 703.9954 150.2063 696.7273 143.8862 686.5389 146.4925 664.1505 140.8239 661.6197 142.518 656.0388 139.2602 650.5228 138.0874 650.4579 138.0874 M 203.1444 697.0573 193.7348 693.9298 196.2657 685.0035 199.5753 682.1367 198.9912 678.6834 194.7731 673.9271 195.9412 669.9526 193.9944 667.5418 195.8763 667.2812 196.7199 670.6041 199.1859 671.4511 208.6604 664.8704 211.6455 670.3435 212.554 667.3463 209.9583 661.8081 216.837 657.9639 222.8722 665.1962 225.9871 664.4795 227.9988 660.6353 240.7829 666.4993 250.517 672.233 255.2542 679.1395 M 513.9212 30.3852 520.4106 26.8016 523.6553 20.6118 527.8085 20.3512 534.4277 15.2691 534.817 9.7309 547.666 7.3852 558.6331 12.9235 565.5767 9.9263 569.2108 11.6855 572.7151 17.745 587.1864 17.0283 596.6609 23.0877 600.5545 22.9574 602.696 37.0962 600.9439 51.3001 M 724.4369 254.0644 723.2688 255.2372 722.8795 254.8462 724.4369 254.0644 M 727.0327 251.5884 724.3071 250.155 725.7997 249.1777 727.0327 251.5884 M 744.7487 250.8066 745.9168 252.5658 742.737 253.934 742.4125 251.7839 740.4008 254.5204 740.0115 251.5233 738.0646 251.4581 742.2828 248.6564 744.7487 250.8066 M 748.4477 216.7302 747.9934 216.1438 748.7072 216.3393 748.4477 216.7302 M 747.2796 216.0135 746.1115 215.5574 746.8902 215.4271 747.2796 216.0135 M 749.6158 211.4526 750.0051 212.039 749.0966 210.8662 749.6158 211.4526 M 622.1642 203.1127 621.5152 202.7217 621.5801 202.2005 622.1642 203.1127 M 617.1674 201.4838 616.8429 201.2232 617.2971 201.2883 617.1674 201.4838 M 757.8573 208.0645 757.6626 208.5857 756.9488 208.1297 757.8573 208.0645 M 619.3737 201.6141 618.595 200.8974 619.5035 200.8974 619.3737 201.6141 M 620.0876 199.0079 619.0493 199.3988 617.9461 199.2685 620.0876 199.0079 M 637.8036 193.4696 637.6089 193.4696 637.6089 193.209 637.8036 193.4696 M 638.193 193.4045 638.0632 193.2742 638.2579 193.2742 638.193 193.4045 M 643.8387 192.1665 641.5675 192.362 641.5675 191.9711 643.8387 192.1665 M 641.3728 186.3677 640.9185 186.498 640.6589 185.5858 641.3728 186.3677 M 642.7355 183.6312 642.0217 183.6963 641.827 182.9796 642.7355 183.6312 M 629.627 182.0023 629.4323 181.9371 629.4972 181.6113 629.627 182.0023 M 638.7121 181.3507 640.4643 182.5887 638.5823 183.1751 638.7121 181.3507 M 640.594 181.1552 640.4643 180.5688 640.7238 180.5688 640.594 181.1552 M 637.544 180.2431 637.3494 180.9598 636.3759 180.9598 637.544 180.2431 M 640.3994 180.4385 639.6855 180.3734 639.6855 179.6567 640.3994 180.4385 M 631.1195 178.9399 630.3408 180.0476 630.1461 178.9399 631.1195 178.9399 M 627.161 178.8096 626.4472 178.549 626.5121 177.7671 627.161 178.8096 M 633.6504 178.6793 632.3525 178.4839 633.91 178.0929 633.6504 178.6793 M 641.6972 177.5717 640.6589 179.5915 637.7387 177.8323 641.6972 177.5717 M 628.5238 177.3762 628.0695 176.3337 628.7185 176.7247 628.5238 177.3762 M 628.5887 174.3139 630.4706 175.6822 628.978 176.0731 628.5887 174.3139 M 626.2525 173.4017 626.4472 173.9881 625.0195 173.7275 626.2525 173.4017 M 624.1759 170.991 624.2408 171.3819 623.1376 171.3819 624.1759 170.991 M 641.8919 169.2318 641.6323 169.0363 641.8919 168.8408 641.8919 169.2318 M 613.5982 167.2119 613.5333 169.1015 611.4567 167.668 613.5982 167.2119 M 637.2845 167.9938 637.3494 168.7757 637.1547 168.7757 637.2845 167.9938 M 636.8302 167.8635 636.3111 167.8635 636.3759 167.2119 636.8302 167.8635 M 637.6089 167.8635 637.4142 166.821 637.6738 167.2119 637.6089 167.8635 M 642.6707 164.6709 642.476 164.736 642.3462 164.5406 642.6707 164.6709 M 623.9163 164.2799 623.3972 164.0845 623.6567 163.3678 623.9163 164.2799 M 630.211 161.4131 629.3025 161.4782 629.8217 160.6964 630.211 161.4131 M 620.5418 160.7615 620.1525 159.6539 620.7365 160.0448 620.5418 160.7615 M 625.0844 161.3479 624.2408 159.8494 625.4089 160.0448 625.0844 161.3479 M 623.9812 159.7842 623.527 161.9343 621.3206 160.11 623.9812 159.7842 M 620.9312 158.4159 621.7099 158.9372 620.2823 159.0023 620.9312 158.4159 M 617.2323 160.1751 616.9727 162.2601 617.1025 157.2431 617.2323 160.1751 M 620.6067 156.787 620.0876 156.2658 620.7365 155.8749 620.6067 156.787 M 622.4887 153.855 622.6184 154.4414 622.2291 154.1808 622.4887 153.855 M 791.2127 159.6539 789.9149 163.5632 791.8617 164.2148 793.484 161.5434 795.4957 165.5831 789.2659 166.1043 788.4223 171.838 786.6053 170.2743 788.4223 167.7983 780.635 171.7728 780.9595 175.7473 777.1308 178.9399 774.6648 177.9626 775.9627 184.413 769.9924 183.3054 768.6297 180.8295 768.1754 183.0448 772.2637 188.1269 768.5648 190.6028 766.0988 187.9966 765.1903 190.2119 768.0456 190.668 771.0307 194.6424 764.8009 198.3563 771.4201 199.9201 767.0073 201.4186 768.7595 202.7869 767.3318 204.4158 764.4116 203.6991 766.618 207.4129 771.9393 207.3478 767.3967 208.1297 764.9956 211.4526 760.9073 208.6509 765.1254 207.0872 762.1403 205.5886 762.0105 202.3308 759.3498 201.7444 762.9839 199.6594 760.6477 198.9427 760.5828 197.1835 762.5945 197.7699 761.8807 195.8153 760.5179 194.3167 759.1552 198.0305 757.0137 198.1609 751.7573 196.0759 751.3679 200.0504 754.8722 203.8294 753.3147 204.8067 750.9785 202.6566 750.4594 205.0673 756.5594 206.5659 754.0934 208.9115 751.4328 205.6537 749.8753 207.5433 749.6807 205.9795 746.5009 205.9795 748.837 208.26 746.7604 211.0617 743.2562 210.2146 744.2945 214.7104 745.8519 218.2288 750.0051 216.0135 750.9785 218.0985 748.1232 220.3138 744.554 219.141 743.7753 221.2259 746.6955 223.8973 747.7338 221.0305 750.8487 220.2486 752.7956 223.4412 751.6924 225.461 754.8722 228.7188 749.0966 230.7387 746.0466 228.6537 747.604 230.8038 740.7902 236.0814 742.2828 246.1154 739.103 247.7443 738.3891 245.2684 736.2476 248.2004 733.0029 246.5715 732.4838 243.3788 735.0146 241.7499 733.3923 240.1211 718.0124 241.6196 711.0039 238.5573 712.3667 235.1692 710.355 232.0418 703.606 236.9284 704.3847 239.665 695.6889 239.2089 690.6921 233.7358 686.0847 231.2599 681.9314 231.5857 682.0612 228.1324 676.9995 228.5234 679.2059 222.9851 676.5453 223.1806 672.1325 216.8605 664.7995 216.8605 657.4665 213.9285 656.1686 210.0843 657.9207 209.107 653.443 205.7189 656.3633 200.0504 654.676 194.7728 650.5228 191.515 651.5611 189.3648 646.6292 186.1722 647.5377 179.0703 650.7175 184.7388 652.9888 182.1326 649.9388 179.3309 652.6643 180.3082 653.7675 178.2232 649.0951 178.549 645.9802 176.3989 643.3845 177.7671 646.8888 174.9655 646.3047 170.5349 642.6707 169.8182 645.9153 164.3451 639.2962 162.3253 633.6504 163.4329 628.1344 158.2856 625.7333 157.9598 625.7982 159.9145 623.1376 157.4386 623.6567 153.2686 620.0227 151.0534 616.3237 153.008 616.1291 157.3734 612.4301 156.1355 613.728 157.0477 611.7812 157.8295 612.4301 161.1525 608.212 160.7615 610.8727 162.4556 609.0556 166.3649 611.4567 166.9513 609.3801 168.7757 614.5067 170.991 618.7897 170.0136 616.3886 173.0108 618.8546 173.532 618.2706 176.2034 619.3089 171.838 624.2408 172.5547 624.0461 175.6822 627.0961 176.2034 625.2791 177.7671 626.3174 179.4612 623.9812 178.549 623.527 180.1779 626.4472 182.1977 626.1227 184.0872 628.394 181.2856 630.6004 184.1524 631.1844 180.3734 630.7951 184.1524 635.0132 184.9343 635.7919 187.0192 636.8951 184.413 635.0781 184.1524 638.5823 183.4357 639.2313 186.3677 637.6089 186.6283 639.2962 190.8634 637.0249 190.9937 636.96 193.7303 623.4621 193.0787 617.8163 189.1042 622.7482 193.1439 618.4652 193.9257 612.4301 185.3252 606.9141 184.413 602.5013 184.804 599.646 187.5405 599.646 191.6453 603.0205 195.294 596.012 195.8153 590.1066 190.9286 591.3396 183.2402 586.2779 180.1779 579.7236 182.0674 579.7885 176.3337 M 495.7509 143.365 499.1254 152.9429 501.1371 151.6398 501.1371 145.8409 503.4733 144.9287 506.3935 146.8182 509.4435 145.3848 512.4935 149.4245 514.1159 147.9259 525.4723 150.467 524.3691 152.161 527.6787 155.1582 526.3159 156.3961 528.8468 158.872 527.6138 160.5009 532.0266 164.3451 530.8585 166.9513 533.2596 167.4074 531.3777 169.3621 532.8702 170.2743 529.301 172.5547 529.95 169.8182 526.251 170.2743 525.3425 172.4244 521.1244 170.8607 519.9563 167.0165 515.7382 175.1609 509.3786 176.2686 511.7797 178.9399 505.7446 179.4612 498.736 185.7161 498.4765 191.3195 500.8126 193.5348 499.1903 197.6396 493.0903 201.2232 487.3147 201.3535 484.2647 204.2203 477.7753 203.8945 474.7902 207.869 468.82 208.9115 468.4955 211.2571 465.3157 211.7784 465.2508 216.7954 461.2923 221.8775 462.5901 224.0276 461.1625 225.5914 465.9646 226.7642 465.2508 232.1069 463.2391 232.4979 465.9646 236.0163 457.5933 238.4922 458.4369 240.6423 455.5816 241.8151 452.5316 249.3732 453.9593 251.4581 451.8827 254.5204 448.4433 254.9765 447.1454 258.2343 448.7029 259.1465 447.7294 261.5573 450.2603 262.9255 448.5731 266.053 450.1954 268.4637 451.8178 267.2909 450.1305 274.7838 453.7646 278.1068 452.7912 280.8433 458.5667 281.7555 459.8646 285.339 466.4189 280.1266 471.4157 282.9934 472.6487 280.4524 475.504 281.2342 477.3859 278.4977 481.604 277.9113 484.2647 282.0161 482.7721 284.1011 492.3764 289.8999 493.3498 292.9623 503.7978 297.1322 503.4084 301.0415 509.7031 303.322 509.3137 305.7979 519.6319 307.3616 519.9563 314.3984 517.9446 317.0047 517.9446 320.914 M 445.7177 347.8233 443.7709 334.5315 441.889 334.4664 442.9273 333.3587 440.3964 329.9706 436.3081 328.9933 438.0603 325.1491 434.2315 325.7355 437.0869 323.7157 434.9454 323.3899 434.3613 320.7185 438.7092 317.9168 436.8922 313.9424 440.9805 311.1407 437.2166 310.3588 440.072 309.4466 440.9805 301.9537 439.7475 299.7384 434.2964 300.9764 434.3613 298.2399 428.6506 295.1124 423.7836 295.1775 418.7219 285.6648 411.324 285.9906 412.4921 279.866 410.4804 279.2144 413.9197 277.3901 410.4804 276.0218 411.5836 274.5884 408.3389 274.7187 411.1293 274.0671 410.1559 273.0898 413.5304 270.0926 408.9229 267.6819 407.1059 268.9198 405.4835 267.1606 396.5931 266.5091 395.7495 258.7556 392.6994 258.5601 392.8941 255.4326 398.5399 254.2598 397.5665 251.7839 400.2271 247.223 401.6548 234.3222 407.7548 232.6933 409.1825 228.6537 415.6719 224.7443 417.3591 228.5885 420.0847 229.4355 420.9932 226.4384 426.6389 226.8945 426.3794 224.5489 423.0698 222.529 427.9368 220.5092 427.2879 218.0985 423.9783 217.7727 426.574 216.1438 425.2113 213.0815 428.6506 211.5178 429.8187 213.733 432.1549 212.6254 431.9602 209.6934 436.9571 205.9795 444.5496 206.7614 453.0507 197.1835 458.0476 196.6623 458.8263 191.9711 464.8614 191.2544 466.6785 187.9314 474.92 185.1949 475.6338 181.9371 479.3977 179.9173 479.9817 175.4215 484.1349 176.0731 484.3945 175.7473 484.3296 176.0079 484.2647 176.0731 486.2764 176.3337 486.3413 172.8805 489.2615 172.2289 486.7307 170.7955 485.887 166.821 478.2945 167.2771 476.2179 164.1496 481.5392 158.6114 483.9402 158.8069 479.5274 156.0052 477.5157 151.1185"/>
</g>
</svg>